0
SECTION
2
HEADER
9
$INSUNITS
70
4
9
$ACADVER
1
AC1014
9
$HANDSEED
5
FFFF
0
ENDSEC
0
SECTION
2
TABLES
0
TABLE
2
VPORT
5
8
100
AcDbSymbolTable
0
ENDTAB
0
TABLE
2
LTYPE
5
5
100
AcDbSymbolTable
0
LTYPE
5
14
100
AcDbSymbolTableRecord
100
AcDbLinetypeTableRecord
2
BYBLOCK
70
0
0
LTYPE
5
15
100
AcDbSymbolTableRecord
100
AcDbLinetypeTableRecord
2
BYLAYER
70
0
0
LTYPE
5
16
100
AcDbSymbolTableRecord
100
AcDbLinetypeTableRecord
2
DASHED
70
0
3
Dashed __ __ __ __ __ __ __ __ __ __ __ __ __ _
72
65
73
2
40
0.75
49
0.5
74
0
49
-0.25
74
0
0
ENDTAB
0
TABLE
2
LAYER
5
2
100
AcDbSymbolTable
70
2
0
LAYER
5
50
100
AcDbSymbolTableRecord
100
AcDbLayerTableRecord
2
0
70
0
62
7
6
CONTINUOUS
0
ENDTAB
0
TABLE
2
STYLE
5
3
100
AcDbSymbolTable
70
1
0
STYLE
5
11
100
AcDbSymbolTableRecord
100
AcDbTextStyleTableRecord
2
STANDARD
70
0
0
ENDTAB
0
TABLE
2
VIEW
5
6
100
AcDbSymbolTable
70
0
0
ENDTAB
0
TABLE
2
UCS
5
7
100
AcDbSymbolTable
70
0
0
ENDTAB
0
TABLE
2
APPID
5
9
100
AcDbSymbolTable
70
2
0
APPID
5
12
100
AcDbSymbolTableRecord
100
AcDbRegAppTableRecord
2
ACAD
70
0
0
ENDTAB
0
TABLE
2
DIMSTYLE
5
A
100
AcDbSymbolTable
70
1
0
ENDTAB
0
TABLE
2
BLOCK_RECORD
5
1
100
AcDbSymbolTable
70
1
0
BLOCK_RECORD
5
1F
100
AcDbSymbolTableRecord
100
AcDbBlockTableRecord
2
*MODEL_SPACE
0
BLOCK_RECORD
5
1B
100
AcDbSymbolTableRecord
100
AcDbBlockTableRecord
2
*PAPER_SPACE
0
ENDTAB
0
ENDSEC
0
SECTION
2
BLOCKS
0
BLOCK
5
20
100
AcDbEntity
100
AcDbBlockBegin
2
*MODEL_SPACE
0
ENDBLK
5
21
100
AcDbEntity
100
AcDbBlockEnd
0
BLOCK
5
1C
100
AcDbEntity
100
AcDbBlockBegin
2
*PAPER_SPACE
0
ENDBLK
5
1D
100
AcDbEntity
100
AcDbBlockEnd
0
ENDSEC
0
SECTION
2
ENTITIES
0
ARC
5
100
100
AcDbEntity
8
OUTER_PROFILES
100
AcDbCircle
10
-25.419114736949659
20
-11.519048226651885
30
0
40
1.9999999999999996
210
-0
220
0
230
-1
100
AcDbArc
50
-81.195629433241862
51
0
0
ARC
5
101
100
AcDbEntity
8
OUTER_PROFILES
100
AcDbCircle
10
28.41911473693548
20
7.8499999999998504
30
0
40
21.600000745058033
210
0
220
0
230
1
100
AcDbArc
50
261.19562943324195
51
278.80437056684201
0
ARC
5
102
100
AcDbEntity
8
OUTER_PROFILES
100
AcDbCircle
10
-31.419114736949684
20
-11.519048226647488
30
0
40
2.0000000000000018
210
0
220
0
230
-1
100
AcDbArc
50
180
51
261.19562943315822
0
LINE
5
103
100
AcDbEntity
8
OUTER_PROFILES
100
AcDbLine
10
33.419114736949687
20
-11.519048226647485
30
0
11
33.419114736949666
21
-7.0915527974774193
31
0
0
ARC
5
104
100
AcDbEntity
8
OUTER_PROFILES
100
AcDbCircle
10
-35.419114736949687
20
-7.0915527974774157
30
0
40
2.0000000000000195
210
-0
220
0
230
-1
100
AcDbArc
50
0
51
64.897279243996195
0
ARC
5
105
100
AcDbEntity
8
OUTER_PROFILES
100
AcDbCircle
10
28.41911473693548
20
7.8499999999998504
30
0
40
14.499999999999972
210
-0
220
0
230
1
100
AcDbArc
50
-64.89727924399719
51
64.897279243997161
0
ARC
5
106
100
AcDbEntity
8
OUTER_PROFILES
100
AcDbCircle
10
-35.419114736949687
20
22.791552797477152
30
0
40
2.0000000000000453
210
-0
220
0
230
-1
100
AcDbArc
50
295.10272075600318
51
360
0
LINE
5
107
100
AcDbEntity
8
OUTER_PROFILES
100
AcDbLine
10
33.41911473694968
20
22.791552797477141
30
0
11
33.419114736949687
21
27.219048226647192
31
0
0
ARC
5
108
100
AcDbEntity
8
OUTER_PROFILES
100
AcDbCircle
10
-31.419114736949606
20
27.219048226647189
30
0
40
2.0000000000000009
210
0
220
0
230
-1
100
AcDbArc
50
98.80437056684174
51
180
0
ARC
5
109
100
AcDbEntity
8
OUTER_PROFILES
100
AcDbCircle
10
28.41911473693548
20
7.8499999999998504
30
0
40
21.600000745058026
210
0
220
-0
230
1
100
AcDbArc
50
81.195629433158231
51
98.804370566757825
0
ARC
5
110
100
AcDbEntity
8
OUTER_PROFILES
100
AcDbCircle
10
-25.419114736949737
20
27.21904822665158
30
0
40
2.0000000000000018
210
0
220
0
230
-1
100
AcDbArc
50
0
51
81.195629433242317
0
LINE
5
111
100
AcDbEntity
8
OUTER_PROFILES
100
AcDbLine
10
23.419114736949737
20
27.219048226651587
30
0
11
23.419114736949656
21
22.791552797490464
31
0
0
ARC
5
112
100
AcDbEntity
8
OUTER_PROFILES
100
AcDbCircle
10
-21.419114736949645
20
22.791552797490468
30
0
40
2.0000000000000107
210
0
220
-0
230
-1
100
AcDbArc
50
180
51
244.8972792441055
0
ARC
5
113
100
AcDbEntity
8
OUTER_PROFILES
100
AcDbCircle
10
28.41911473693548
20
7.8499999999998504
30
0
40
14.500000000000027
210
0
220
0
230
1
100
AcDbArc
50
115.10272075589398
51
143.34682492990839
0
ARC
5
114
100
AcDbEntity
8
OUTER_PROFILES
100
AcDbCircle
10
15.181762282611466
20
17.700000000000003
30
0
40
1.9999999999999973
210
0
220
0
230
1
100
AcDbArc
50
269.99999999999994
51
323.34682492990822
0
LINE
5
115
100
AcDbEntity
8
OUTER_PROFILES
100
AcDbLine
10
15.181762282611464
20
15.700000000000006
30
0
11
3.6191147369354493
21
15.700000000000006
31
0
0
LINE
5
116
100
AcDbEntity
8
OUTER_PROFILES
100
AcDbLine
10
3.6191147369354493
20
15.700000000000006
30
0
11
-6.6786796564403605
21
15.700000000000003
31
0
0
SPLINE
5
117
100
AcDbEntity
8
OUTER_PROFILES
100
AcDbSpline
70
0
71
3
72
14
73
10
74
0
42
0.000000001
43
0.0000000001
44
0.0000000001
40
0
40
0
40
0
40
0
40
0.084029410931691167
40
0.084029410931691167
40
0.16908109112966974
40
0.16908109112966974
40
0.25084823201009182
40
0.25084823201009182
40
0.33428371778324689
40
0.33428371778324689
40
0.33428371778324689
40
0.33428371778324689
10
-8.8000000000000078
20
13.578679656440361
30
0
10
-8.8000000000000167
20
13.858777692879332
30
0
10
-8.7445240011096192
20
14.136122078233843
30
0
10
-8.5277276809118252
20
14.65636088426411
30
0
10
-8.3673114791397207
20
14.893555313288793
30
0
10
-7.9705714975941788
20
15.28317455619538
30
0
10
-7.7411114180900586
20
15.434892506403578
30
0
10
-7.2322206481691609
20
15.645305445361451
30
0
10
-6.9567979423508763
20
15.700000000000003
30
0
10
-6.6786796564403605
20
15.700000000000003
30
0
0
LINE
5
118
100
AcDbEntity
8
OUTER_PROFILES
100
AcDbLine
10
-8.8000000000000078
20
13.578679656440361
30
0
11
-8.7999999999999989
21
2.1213203435596384
31
0
0
SPLINE
5
119
100
AcDbEntity
8
OUTER_PROFILES
100
AcDbSpline
70
0
71
3
72
14
73
10
74
0
42
0.000000001
43
0.0000000001
44
0.0000000001
40
0
40
0
40
0
40
0
40
0.084029410931690793
40
0.084029410931690793
40
0.1690810911296694
40
0.1690810911296694
40
0.25084823201009182
40
0.25084823201009182
40
0.33428371778324673
40
0.33428371778324673
40
0.33428371778324673
40
0.33428371778324673
10
-6.6786796564403605
20
-4.4408920985006262e-15
30
0
10
-6.9587776928793321
20
-4.4408920985006262e-15
30
0
10
-7.2361220782338442
20
0.055475998890379685
30
0
10
-7.7563608842641152
20
0.27227231908817151
30
0
10
-7.9935553132887982
20
0.43268852086028042
30
0
10
-8.3831745561953674
20
0.82942850240582455
30
0
10
-8.5348925064035708
20
1.0588885819099447
30
0
10
-8.7453054453614421
20
1.5677793518308381
30
0
10
-8.7999999999999989
20
1.8432020576491226
30
0
10
-8.7999999999999989
20
2.1213203435596384
30
0
0
LINE
5
120
100
AcDbEntity
8
OUTER_PROFILES
100
AcDbLine
10
-6.6786796564403605
20
-4.4408920985006262e-15
30
0
11
0
21
0
31
0
0
LINE
5
121
100
AcDbEntity
8
OUTER_PROFILES
100
AcDbLine
10
0
20
0
30
0
11
15.18176228261124
21
0
31
0
0
ARC
5
122
100
AcDbEntity
8
OUTER_PROFILES
100
AcDbCircle
10
15.181762282611244
20
-2.0000000000000084
30
0
40
2.0000000000000067
210
0
220
-0
230
1
100
AcDbArc
50
36.653175070090434
51
90.000000000000099
0
ARC
5
123
100
AcDbEntity
8
OUTER_PROFILES
100
AcDbCircle
10
28.41911473693548
20
7.8499999999998504
30
0
40
14.500000000000028
210
0
220
0
230
1
100
AcDbArc
50
216.65317507009038
51
244.8972792441059
0
ARC
5
124
100
AcDbEntity
8
OUTER_PROFILES
100
AcDbCircle
10
-21.419114736949648
20
-7.0915527974907437
30
0
40
1.9999999999999862
210
0
220
0
230
-1
100
AcDbArc
50
115.1027207558942
51
180
0
LINE
5
125
100
AcDbEntity
8
OUTER_PROFILES
100
AcDbLine
10
23.419114736949666
20
-7.0915527974907242
30
0
11
23.419114736949656
21
-11.519048226651879
31
0
0
SPLINE
5
126
100
AcDbEntity
8
INTERIOR_PROFILES
100
AcDbSpline
70
0
71
3
72
14
73
10
74
0
42
0.000000001
43
0.0000000001
44
0.0000000001
40
0
40
0
40
0
40
0
40
0.042733943711514594
40
0.042733943711514594
40
0.084053400139760176
40
0.084053400139760176
40
0.12351835413600165
40
0.12351835413600165
40
0.16123897349644645
40
0.16123897349644645
40
0.16123897349644645
40
0.16123897349644645
10
6.593434123761428
20
12.350000000000003
30
0
10
6.7358806027998108
20
12.350000000000003
30
0
10
6.877247809277689
20
12.322304009827185
30
0
10
7.1359790826496949
20
12.215091094311422
30
0
10
7.2517752942420088
20
12.138219572400901
30
0
10
7.4414110394476873
20
11.947470958064796
30
0
10
7.5149834421253603
20
11.837303422000907
30
0
10
7.6120844378902541
20
11.599534472645727
30
0
10
7.6366119770779406
20
11.475486081130875
30
0
10
7.6366119770779406
20
11.349999999999998
30
0
0
LINE
5
127
100
AcDbEntity
8
INTERIOR_PROFILES
100
AcDbLine
10
7.6366119770779406
20
11.349999999999998
30
0
11
7.6366119770778917
21
4.3500000000000068
31
0
0
SPLINE
5
128
100
AcDbEntity
8
INTERIOR_PROFILES
100
AcDbSpline
70
0
71
3
72
16
73
12
74
0
42
0.000000001
43
0.0000000001
44
0.0000000001
40
0
40
0
40
0
40
0
40
0.037694073110035559
40
0.037694073110035559
40
0.076087839224573683
40
0.076087839224573683
40
0.11600253562742371
40
0.11600253562742371
40
0.13835591283166043
40
0.13835591283166043
40
0.16083236653362773
40
0.16083236653362773
40
0.16083236653362773
40
0.16083236653362773
10
7.6366119770779362
20
4.3500000000000068
30
0
10
7.6366119770779317
20
4.2243530896332189
30
0
10
7.6120215602959362
20
4.100149400336484
30
0
10
7.5159964784640909
20
3.8653429696452046
30
0
10
7.4448000032571615
20
3.7576743869453488
30
0
10
7.2623357656203291
20
3.5707224497839651
30
0
10
7.1514951469096033
20
3.494649256158886
30
0
10
6.9611898178947307
20
3.4110280875302967
30
0
10
6.8898748544132538
20
3.3882748313627742
30
0
10
6.7433678470569092
20
3.3576862801195206
30
0
10
6.6684756009691526
20
3.3500000000000041
30
0
10
6.593434123761428
20
3.3500000000000041
30
0
0
LINE
5
129
100
AcDbEntity
8
INTERIOR_PROFILES
100
AcDbLine
10
6.593434123761428
20
3.3500000000000041
30
0
11
-0.79999999999999405
21
3.3499999999999988
31
0
0
ARC
5
130
100
AcDbEntity
8
INTERIOR_PROFILES
100
AcDbCircle
10
-0.79999999999999183
20
4.3499999999999979
30
0
40
0.99999999999999978
210
0
220
0
230
1
100
AcDbArc
50
180
51
269.99999999999989
0
LINE
5
131
100
AcDbEntity
8
INTERIOR_PROFILES
100
AcDbLine
10
-1.7999999999999916
20
4.3499999999999988
30
0
11
-1.7999999999999927
21
11.349999999999998
31
0
0
ARC
5
132
100
AcDbEntity
8
INTERIOR_PROFILES
100
AcDbCircle
10
-0.79999999999999183
20
11.349999999999998
30
0
40
1.0000000000000009
210
0
220
0
230
1
100
AcDbArc
50
90.000000000000099
51
180
0
LINE
5
133
100
AcDbEntity
8
INTERIOR_PROFILES
100
AcDbLine
10
-0.79999999999999349
20
12.349999999999998
30
0
11
6.593434123761428
21
12.350000000000003
31
0
0
CIRCLE
5
134
100
AcDbEntity
8
INTERIOR_PROFILES
100
AcDbCircle
10
-28.419114736935455
20
-9.6500000000000359
30
0
40
1.7000000000146442
210
0
220
0
230
-1
0
CIRCLE
5
135
100
AcDbEntity
8
INTERIOR_PROFILES
100
AcDbCircle
10
-28.419114736935455
20
25.349999999999966
30
0
40
1.7000000000150051
210
0
220
0
230
-1
0
CIRCLE
5
136
100
AcDbEntity
8
INTERIOR_PROFILES
100
AcDbCircle
10
5.5000000000000027
20
7.8500000000000059
30
0
40
2.6500000000000012
210
0
220
0
230
-1
0
LINE
5
137
100
AcDbEntity
8
BEND
100
AcDbLine
10
1.8095573684677291
20
15.700000000000003
30
-1.857585823759468e-14
11
1.8095573684677202
21
0
31
-4.5078224797855911e-15
0
LINE
5
138
100
AcDbEntity
8
BEND_EXTENT
100
AcDbLine
10
3.6191147369354493
20
15.700000000000006
30
-8.8438331816232069e-15
11
3.6191147369354448
21
12.350000000000003
31
-7.7336101569980504e-15
0
LINE
5
139
100
AcDbEntity
8
BEND_EXTENT
100
AcDbLine
10
3.6191147369354448
20
3.3500000000000019
30
-1.106427923087352e-14
11
3.6191147369354448
21
-2.2204460492503131e-15
31
-4.4029410831225808e-15
0
LINE
5
140
100
AcDbEntity
8
BEND_EXTENT
100
AcDbLine
10
0
20
0
30
0
11
-4.4408920985006262e-15
21
3.3500000000000041
31
-1.5777218104420236e-29
0
LINE
5
141
100
AcDbEntity
8
BEND_EXTENT
100
AcDbLine
10
4.4408920985006262e-15
20
12.350000000000003
30
-4.7331654313260708e-29
11
-4.4408920985006262e-15
21
15.700000000000006
31
-8.6774699574311299e-29
0
ENDSEC
0
SECTION
2
OBJECTS
0
DICTIONARY
5
C
100
AcDbDictionary
3
ACAD_GROUP
350
D
3
ACAD_MLINESTYLE
350
17
0
DICTIONARY
5
D
100
AcDbDictionary
0
DICTIONARY
5
1A
330
C
100
AcDbDictionary
0
DICTIONARY
5
17
100
AcDbDictionary
0
ENDSEC
0
EOF
