ISO-10303-21;
HEADER;
/* Generated by software containing ST-Developer
 * from STEP Tools, Inc. (www.steptools.com) 
 */

FILE_DESCRIPTION(
/* description */ (''),
/* implementation_level */ '2;1');

FILE_NAME(
/* name */ 'counterweight-lid-steel_v1.0.step',
/* time_stamp */ '2026-08-29T10:50:22-05:00',
/* author */ (''),
/* organization */ (''),
/* preprocessor_version */ 'ST-DEVELOPER v20.1',
/* originating_system */ 'Autodesk Translation Framework v15.8.0.0',
/* authorisation */ '');

FILE_SCHEMA (('AUTOMOTIVE_DESIGN { 1 0 10303 214 3 1 1 }'));
ENDSEC;

DATA;
#10=MECHANICAL_DESIGN_GEOMETRIC_PRESENTATION_REPRESENTATION('',(#13),#604);
#11=SHAPE_REPRESENTATION_RELATIONSHIP('SRR','None',#611,#12);
#12=ADVANCED_BREP_SHAPE_REPRESENTATION('',(#14),#603);
#13=STYLED_ITEM('',(#620),#14);
#14=MANIFOLD_SOLID_BREP('Body1',#351);
#15=CONICAL_SURFACE('',#376,1.575,0.74176493209759);
#16=CYLINDRICAL_SURFACE('',#374,2.);
#17=CYLINDRICAL_SURFACE('',#380,1.1);
#18=CYLINDRICAL_SURFACE('',#381,2.05);
#19=CYLINDRICAL_SURFACE('',#389,2.);
#20=CYLINDRICAL_SURFACE('',#393,2.);
#21=CYLINDRICAL_SURFACE('',#396,2.);
#22=FACE_BOUND('',#58,.T.);
#23=FACE_BOUND('',#76,.T.);
#24=CIRCLE('',#369,2.);
#25=CIRCLE('',#370,2.);
#26=CIRCLE('',#371,2.);
#27=CIRCLE('',#372,2.);
#28=CIRCLE('',#373,1.1);
#29=CIRCLE('',#375,2.);
#30=CIRCLE('',#377,2.05);
#31=CIRCLE('',#378,2.05);
#32=CIRCLE('',#379,1.1);
#33=CIRCLE('',#382,2.05);
#34=CIRCLE('',#390,2.);
#35=CIRCLE('',#394,2.);
#36=CIRCLE('',#397,2.);
#37=FACE_OUTER_BOUND('',#56,.T.);
#38=FACE_OUTER_BOUND('',#57,.T.);
#39=FACE_OUTER_BOUND('',#59,.T.);
#40=FACE_OUTER_BOUND('',#60,.T.);
#41=FACE_OUTER_BOUND('',#61,.T.);
#42=FACE_OUTER_BOUND('',#62,.T.);
#43=FACE_OUTER_BOUND('',#63,.T.);
#44=FACE_OUTER_BOUND('',#64,.T.);
#45=FACE_OUTER_BOUND('',#65,.T.);
#46=FACE_OUTER_BOUND('',#66,.T.);
#47=FACE_OUTER_BOUND('',#67,.T.);
#48=FACE_OUTER_BOUND('',#68,.T.);
#49=FACE_OUTER_BOUND('',#69,.T.);
#50=FACE_OUTER_BOUND('',#70,.T.);
#51=FACE_OUTER_BOUND('',#71,.T.);
#52=FACE_OUTER_BOUND('',#72,.T.);
#53=FACE_OUTER_BOUND('',#73,.T.);
#54=FACE_OUTER_BOUND('',#74,.T.);
#55=FACE_OUTER_BOUND('',#75,.T.);
#56=EDGE_LOOP('',(#224,#225,#226,#227));
#57=EDGE_LOOP('',(#228,#229,#230,#231,#232,#233,#234,#235,#236,#237));
#58=EDGE_LOOP('',(#238));
#59=EDGE_LOOP('',(#239,#240,#241,#242,#243));
#60=EDGE_LOOP('',(#244,#245,#246,#247,#248));
#61=EDGE_LOOP('',(#249,#250,#251,#252));
#62=EDGE_LOOP('',(#253,#254,#255,#256,#257));
#63=EDGE_LOOP('',(#258,#259,#260,#261));
#64=EDGE_LOOP('',(#262,#263,#264,#265,#266));
#65=EDGE_LOOP('',(#267,#268,#269,#270));
#66=EDGE_LOOP('',(#271,#272,#273,#274,#275));
#67=EDGE_LOOP('',(#276,#277,#278,#279));
#68=EDGE_LOOP('',(#280,#281,#282,#283));
#69=EDGE_LOOP('',(#284,#285,#286,#287,#288));
#70=EDGE_LOOP('',(#289,#290,#291,#292));
#71=EDGE_LOOP('',(#293,#294,#295,#296));
#72=EDGE_LOOP('',(#297,#298,#299,#300,#301));
#73=EDGE_LOOP('',(#302,#303,#304,#305));
#74=EDGE_LOOP('',(#306,#307,#308,#309,#310));
#75=EDGE_LOOP('',(#311,#312,#313,#314,#315,#316,#317,#318));
#76=EDGE_LOOP('',(#319));
#77=LINE('',#508,#110);
#78=LINE('',#511,#111);
#79=LINE('',#516,#112);
#80=LINE('',#520,#113);
#81=LINE('',#522,#114);
#82=LINE('',#524,#115);
#83=LINE('',#528,#116);
#84=LINE('',#534,#117);
#85=LINE('',#537,#118);
#86=LINE('',#544,#119);
#87=LINE('',#547,#120);
#88=LINE('',#551,#121);
#89=LINE('',#555,#122);
#90=LINE('',#557,#123);
#91=LINE('',#559,#124);
#92=LINE('',#560,#125);
#93=LINE('',#563,#126);
#94=LINE('',#564,#127);
#95=LINE('',#565,#128);
#96=LINE('',#568,#129);
#97=LINE('',#569,#130);
#98=LINE('',#571,#131);
#99=LINE('',#572,#132);
#100=LINE('',#576,#133);
#101=LINE('',#578,#134);
#102=LINE('',#579,#135);
#103=LINE('',#583,#136);
#104=LINE('',#585,#137);
#105=LINE('',#588,#138);
#106=LINE('',#589,#139);
#107=LINE('',#592,#140);
#108=LINE('',#596,#141);
#109=LINE('',#597,#142);
#110=VECTOR('',#405,10.);
#111=VECTOR('',#408,10.);
#112=VECTOR('',#413,10.);
#113=VECTOR('',#416,10.);
#114=VECTOR('',#417,10.);
#115=VECTOR('',#418,10.);
#116=VECTOR('',#421,10.);
#117=VECTOR('',#428,10.);
#118=VECTOR('',#431,10.);
#119=VECTOR('',#438,1.575);
#120=VECTOR('',#443,1.1);
#121=VECTOR('',#448,2.05);
#122=VECTOR('',#451,10.);
#123=VECTOR('',#452,10.);
#124=VECTOR('',#453,10.);
#125=VECTOR('',#454,10.);
#126=VECTOR('',#457,10.);
#127=VECTOR('',#458,10.);
#128=VECTOR('',#459,10.);
#129=VECTOR('',#462,10.);
#130=VECTOR('',#463,10.);
#131=VECTOR('',#466,10.);
#132=VECTOR('',#467,10.);
#133=VECTOR('',#472,10.);
#134=VECTOR('',#473,10.);
#135=VECTOR('',#474,10.);
#136=VECTOR('',#479,10.);
#137=VECTOR('',#482,10.);
#138=VECTOR('',#485,10.);
#139=VECTOR('',#486,10.);
#140=VECTOR('',#489,10.);
#141=VECTOR('',#494,10.);
#142=VECTOR('',#495,10.);
#143=ELLIPSE('',#366,2.82842712474619,2.);
#144=ELLIPSE('',#367,2.82842712474619,2.);
#145=VERTEX_POINT('',#504);
#146=VERTEX_POINT('',#505);
#147=VERTEX_POINT('',#507);
#148=VERTEX_POINT('',#509);
#149=VERTEX_POINT('',#513);
#150=VERTEX_POINT('',#515);
#151=VERTEX_POINT('',#517);
#152=VERTEX_POINT('',#519);
#153=VERTEX_POINT('',#521);
#154=VERTEX_POINT('',#523);
#155=VERTEX_POINT('',#525);
#156=VERTEX_POINT('',#527);
#157=VERTEX_POINT('',#530);
#158=VERTEX_POINT('',#533);
#159=VERTEX_POINT('',#535);
#160=VERTEX_POINT('',#539);
#161=VERTEX_POINT('',#540);
#162=VERTEX_POINT('',#543);
#163=VERTEX_POINT('',#549);
#164=VERTEX_POINT('',#553);
#165=VERTEX_POINT('',#554);
#166=VERTEX_POINT('',#556);
#167=VERTEX_POINT('',#558);
#168=VERTEX_POINT('',#562);
#169=VERTEX_POINT('',#567);
#170=VERTEX_POINT('',#575);
#171=VERTEX_POINT('',#577);
#172=VERTEX_POINT('',#581);
#173=VERTEX_POINT('',#587);
#174=VERTEX_POINT('',#591);
#175=VERTEX_POINT('',#595);
#176=EDGE_CURVE('',#145,#146,#143,.T.);
#177=EDGE_CURVE('',#146,#147,#77,.T.);
#178=EDGE_CURVE('',#147,#148,#144,.T.);
#179=EDGE_CURVE('',#148,#145,#78,.T.);
#180=EDGE_CURVE('',#146,#149,#24,.F.);
#181=EDGE_CURVE('',#149,#150,#79,.F.);
#182=EDGE_CURVE('',#150,#151,#25,.F.);
#183=EDGE_CURVE('',#151,#152,#80,.F.);
#184=EDGE_CURVE('',#153,#152,#81,.T.);
#185=EDGE_CURVE('',#154,#153,#82,.T.);
#186=EDGE_CURVE('',#154,#155,#26,.F.);
#187=EDGE_CURVE('',#155,#156,#83,.F.);
#188=EDGE_CURVE('',#156,#147,#27,.F.);
#189=EDGE_CURVE('',#157,#157,#28,.T.);
#190=EDGE_CURVE('',#158,#145,#84,.T.);
#191=EDGE_CURVE('',#159,#158,#29,.T.);
#192=EDGE_CURVE('',#159,#149,#85,.T.);
#193=EDGE_CURVE('',#160,#161,#30,.T.);
#194=EDGE_CURVE('',#161,#160,#31,.T.);
#195=EDGE_CURVE('',#161,#162,#86,.T.);
#196=EDGE_CURVE('',#162,#162,#32,.T.);
#197=EDGE_CURVE('',#162,#157,#87,.T.);
#198=EDGE_CURVE('',#163,#163,#33,.T.);
#199=EDGE_CURVE('',#163,#160,#88,.T.);
#200=EDGE_CURVE('',#164,#165,#89,.T.);
#201=EDGE_CURVE('',#165,#166,#90,.T.);
#202=EDGE_CURVE('',#166,#167,#91,.T.);
#203=EDGE_CURVE('',#167,#164,#92,.T.);
#204=EDGE_CURVE('',#168,#164,#93,.T.);
#205=EDGE_CURVE('',#168,#154,#94,.T.);
#206=EDGE_CURVE('',#165,#153,#95,.T.);
#207=EDGE_CURVE('',#169,#167,#96,.T.);
#208=EDGE_CURVE('',#168,#169,#97,.T.);
#209=EDGE_CURVE('',#152,#166,#98,.T.);
#210=EDGE_CURVE('',#169,#151,#99,.T.);
#211=EDGE_CURVE('',#170,#169,#100,.T.);
#212=EDGE_CURVE('',#170,#171,#101,.T.);
#213=EDGE_CURVE('',#171,#168,#102,.T.);
#214=EDGE_CURVE('',#170,#172,#34,.T.);
#215=EDGE_CURVE('',#172,#150,#103,.T.);
#216=EDGE_CURVE('',#159,#172,#104,.T.);
#217=EDGE_CURVE('',#173,#148,#105,.T.);
#218=EDGE_CURVE('',#173,#158,#106,.T.);
#219=EDGE_CURVE('',#174,#156,#107,.T.);
#220=EDGE_CURVE('',#173,#174,#35,.T.);
#221=EDGE_CURVE('',#175,#174,#108,.T.);
#222=EDGE_CURVE('',#175,#155,#109,.T.);
#223=EDGE_CURVE('',#175,#171,#36,.T.);
#224=ORIENTED_EDGE('',*,*,#176,.T.);
#225=ORIENTED_EDGE('',*,*,#177,.T.);
#226=ORIENTED_EDGE('',*,*,#178,.T.);
#227=ORIENTED_EDGE('',*,*,#179,.T.);
#228=ORIENTED_EDGE('',*,*,#177,.F.);
#229=ORIENTED_EDGE('',*,*,#180,.T.);
#230=ORIENTED_EDGE('',*,*,#181,.T.);
#231=ORIENTED_EDGE('',*,*,#182,.T.);
#232=ORIENTED_EDGE('',*,*,#183,.T.);
#233=ORIENTED_EDGE('',*,*,#184,.F.);
#234=ORIENTED_EDGE('',*,*,#185,.F.);
#235=ORIENTED_EDGE('',*,*,#186,.T.);
#236=ORIENTED_EDGE('',*,*,#187,.T.);
#237=ORIENTED_EDGE('',*,*,#188,.T.);
#238=ORIENTED_EDGE('',*,*,#189,.T.);
#239=ORIENTED_EDGE('',*,*,#176,.F.);
#240=ORIENTED_EDGE('',*,*,#190,.F.);
#241=ORIENTED_EDGE('',*,*,#191,.F.);
#242=ORIENTED_EDGE('',*,*,#192,.T.);
#243=ORIENTED_EDGE('',*,*,#180,.F.);
#244=ORIENTED_EDGE('',*,*,#193,.F.);
#245=ORIENTED_EDGE('',*,*,#194,.F.);
#246=ORIENTED_EDGE('',*,*,#195,.T.);
#247=ORIENTED_EDGE('',*,*,#196,.T.);
#248=ORIENTED_EDGE('',*,*,#195,.F.);
#249=ORIENTED_EDGE('',*,*,#196,.F.);
#250=ORIENTED_EDGE('',*,*,#197,.T.);
#251=ORIENTED_EDGE('',*,*,#189,.F.);
#252=ORIENTED_EDGE('',*,*,#197,.F.);
#253=ORIENTED_EDGE('',*,*,#198,.F.);
#254=ORIENTED_EDGE('',*,*,#199,.T.);
#255=ORIENTED_EDGE('',*,*,#193,.T.);
#256=ORIENTED_EDGE('',*,*,#194,.T.);
#257=ORIENTED_EDGE('',*,*,#199,.F.);
#258=ORIENTED_EDGE('',*,*,#200,.T.);
#259=ORIENTED_EDGE('',*,*,#201,.T.);
#260=ORIENTED_EDGE('',*,*,#202,.T.);
#261=ORIENTED_EDGE('',*,*,#203,.T.);
#262=ORIENTED_EDGE('',*,*,#200,.F.);
#263=ORIENTED_EDGE('',*,*,#204,.F.);
#264=ORIENTED_EDGE('',*,*,#205,.T.);
#265=ORIENTED_EDGE('',*,*,#185,.T.);
#266=ORIENTED_EDGE('',*,*,#206,.F.);
#267=ORIENTED_EDGE('',*,*,#203,.F.);
#268=ORIENTED_EDGE('',*,*,#207,.F.);
#269=ORIENTED_EDGE('',*,*,#208,.F.);
#270=ORIENTED_EDGE('',*,*,#204,.T.);
#271=ORIENTED_EDGE('',*,*,#202,.F.);
#272=ORIENTED_EDGE('',*,*,#209,.F.);
#273=ORIENTED_EDGE('',*,*,#183,.F.);
#274=ORIENTED_EDGE('',*,*,#210,.F.);
#275=ORIENTED_EDGE('',*,*,#207,.T.);
#276=ORIENTED_EDGE('',*,*,#201,.F.);
#277=ORIENTED_EDGE('',*,*,#206,.T.);
#278=ORIENTED_EDGE('',*,*,#184,.T.);
#279=ORIENTED_EDGE('',*,*,#209,.T.);
#280=ORIENTED_EDGE('',*,*,#208,.T.);
#281=ORIENTED_EDGE('',*,*,#211,.F.);
#282=ORIENTED_EDGE('',*,*,#212,.T.);
#283=ORIENTED_EDGE('',*,*,#213,.T.);
#284=ORIENTED_EDGE('',*,*,#214,.F.);
#285=ORIENTED_EDGE('',*,*,#211,.T.);
#286=ORIENTED_EDGE('',*,*,#210,.T.);
#287=ORIENTED_EDGE('',*,*,#182,.F.);
#288=ORIENTED_EDGE('',*,*,#215,.F.);
#289=ORIENTED_EDGE('',*,*,#216,.T.);
#290=ORIENTED_EDGE('',*,*,#215,.T.);
#291=ORIENTED_EDGE('',*,*,#181,.F.);
#292=ORIENTED_EDGE('',*,*,#192,.F.);
#293=ORIENTED_EDGE('',*,*,#179,.F.);
#294=ORIENTED_EDGE('',*,*,#217,.F.);
#295=ORIENTED_EDGE('',*,*,#218,.T.);
#296=ORIENTED_EDGE('',*,*,#190,.T.);
#297=ORIENTED_EDGE('',*,*,#178,.F.);
#298=ORIENTED_EDGE('',*,*,#188,.F.);
#299=ORIENTED_EDGE('',*,*,#219,.F.);
#300=ORIENTED_EDGE('',*,*,#220,.F.);
#301=ORIENTED_EDGE('',*,*,#217,.T.);
#302=ORIENTED_EDGE('',*,*,#221,.T.);
#303=ORIENTED_EDGE('',*,*,#219,.T.);
#304=ORIENTED_EDGE('',*,*,#187,.F.);
#305=ORIENTED_EDGE('',*,*,#222,.F.);
#306=ORIENTED_EDGE('',*,*,#223,.F.);
#307=ORIENTED_EDGE('',*,*,#222,.T.);
#308=ORIENTED_EDGE('',*,*,#186,.F.);
#309=ORIENTED_EDGE('',*,*,#205,.F.);
#310=ORIENTED_EDGE('',*,*,#213,.F.);
#311=ORIENTED_EDGE('',*,*,#223,.T.);
#312=ORIENTED_EDGE('',*,*,#212,.F.);
#313=ORIENTED_EDGE('',*,*,#214,.T.);
#314=ORIENTED_EDGE('',*,*,#216,.F.);
#315=ORIENTED_EDGE('',*,*,#191,.T.);
#316=ORIENTED_EDGE('',*,*,#218,.F.);
#317=ORIENTED_EDGE('',*,*,#220,.T.);
#318=ORIENTED_EDGE('',*,*,#221,.F.);
#319=ORIENTED_EDGE('',*,*,#198,.T.);
#320=PLANE('',#365);
#321=PLANE('',#368);
#322=PLANE('',#383);
#323=PLANE('',#384);
#324=PLANE('',#385);
#325=PLANE('',#386);
#326=PLANE('',#387);
#327=PLANE('',#388);
#328=PLANE('',#391);
#329=PLANE('',#392);
#330=PLANE('',#395);
#331=PLANE('',#398);
#332=ADVANCED_FACE('',(#37),#320,.T.);
#333=ADVANCED_FACE('',(#38,#22),#321,.F.);
#334=ADVANCED_FACE('',(#39),#16,.T.);
#335=ADVANCED_FACE('',(#40),#15,.F.);
#336=ADVANCED_FACE('',(#41),#17,.F.);
#337=ADVANCED_FACE('',(#42),#18,.F.);
#338=ADVANCED_FACE('',(#43),#322,.T.);
#339=ADVANCED_FACE('',(#44),#323,.T.);
#340=ADVANCED_FACE('',(#45),#324,.T.);
#341=ADVANCED_FACE('',(#46),#325,.T.);
#342=ADVANCED_FACE('',(#47),#326,.T.);
#343=ADVANCED_FACE('',(#48),#327,.T.);
#344=ADVANCED_FACE('',(#49),#19,.T.);
#345=ADVANCED_FACE('',(#50),#328,.T.);
#346=ADVANCED_FACE('',(#51),#329,.T.);
#347=ADVANCED_FACE('',(#52),#20,.T.);
#348=ADVANCED_FACE('',(#53),#330,.T.);
#349=ADVANCED_FACE('',(#54),#21,.T.);
#350=ADVANCED_FACE('',(#55,#23),#331,.T.);
#351=CLOSED_SHELL('',(#332,#333,#334,#335,#336,#337,#338,#339,#340,#341,
#342,#343,#344,#345,#346,#347,#348,#349,#350));
#352=DERIVED_UNIT_ELEMENT(#354,1.);
#353=DERIVED_UNIT_ELEMENT(#606,-3.);
#354=(
MASS_UNIT()
NAMED_UNIT(*)
SI_UNIT(.KILO.,.GRAM.)
);
#355=DERIVED_UNIT((#352,#353));
#356=MEASURE_REPRESENTATION_ITEM('density measure',
POSITIVE_RATIO_MEASURE(7850.),#355);
#357=PROPERTY_DEFINITION_REPRESENTATION(#362,#359);
#358=PROPERTY_DEFINITION_REPRESENTATION(#363,#360);
#359=REPRESENTATION('material name',(#361),#603);
#360=REPRESENTATION('density',(#356),#603);
#361=DESCRIPTIVE_REPRESENTATION_ITEM('Steel','Steel');
#362=PROPERTY_DEFINITION('material property','material name',#613);
#363=PROPERTY_DEFINITION('material property','density of part',#613);
#364=AXIS2_PLACEMENT_3D('',#502,#399,#400);
#365=AXIS2_PLACEMENT_3D('',#503,#401,#402);
#366=AXIS2_PLACEMENT_3D('',#506,#403,#404);
#367=AXIS2_PLACEMENT_3D('',#510,#406,#407);
#368=AXIS2_PLACEMENT_3D('',#512,#409,#410);
#369=AXIS2_PLACEMENT_3D('',#514,#411,#412);
#370=AXIS2_PLACEMENT_3D('',#518,#414,#415);
#371=AXIS2_PLACEMENT_3D('',#526,#419,#420);
#372=AXIS2_PLACEMENT_3D('',#529,#422,#423);
#373=AXIS2_PLACEMENT_3D('',#531,#424,#425);
#374=AXIS2_PLACEMENT_3D('',#532,#426,#427);
#375=AXIS2_PLACEMENT_3D('',#536,#429,#430);
#376=AXIS2_PLACEMENT_3D('',#538,#432,#433);
#377=AXIS2_PLACEMENT_3D('',#541,#434,#435);
#378=AXIS2_PLACEMENT_3D('',#542,#436,#437);
#379=AXIS2_PLACEMENT_3D('',#545,#439,#440);
#380=AXIS2_PLACEMENT_3D('',#546,#441,#442);
#381=AXIS2_PLACEMENT_3D('',#548,#444,#445);
#382=AXIS2_PLACEMENT_3D('',#550,#446,#447);
#383=AXIS2_PLACEMENT_3D('',#552,#449,#450);
#384=AXIS2_PLACEMENT_3D('',#561,#455,#456);
#385=AXIS2_PLACEMENT_3D('',#566,#460,#461);
#386=AXIS2_PLACEMENT_3D('',#570,#464,#465);
#387=AXIS2_PLACEMENT_3D('',#573,#468,#469);
#388=AXIS2_PLACEMENT_3D('',#574,#470,#471);
#389=AXIS2_PLACEMENT_3D('',#580,#475,#476);
#390=AXIS2_PLACEMENT_3D('',#582,#477,#478);
#391=AXIS2_PLACEMENT_3D('',#584,#480,#481);
#392=AXIS2_PLACEMENT_3D('',#586,#483,#484);
#393=AXIS2_PLACEMENT_3D('',#590,#487,#488);
#394=AXIS2_PLACEMENT_3D('',#593,#490,#491);
#395=AXIS2_PLACEMENT_3D('',#594,#492,#493);
#396=AXIS2_PLACEMENT_3D('',#598,#496,#497);
#397=AXIS2_PLACEMENT_3D('',#599,#498,#499);
#398=AXIS2_PLACEMENT_3D('',#600,#500,#501);
#399=DIRECTION('axis',(0.,0.,1.));
#400=DIRECTION('refdir',(1.,0.,0.));
#401=DIRECTION('center_axis',(0.707106781186546,-0.707106781186549,1.25607396694703E-15));
#402=DIRECTION('ref_axis',(1.77635683940027E-15,0.,-1.));
#403=DIRECTION('center_axis',(0.707106781186546,-0.707106781186549,1.25607396694703E-15));
#404=DIRECTION('ref_axis',(-0.707106781186549,-0.707106781186546,1.30841038223647E-15));
#405=DIRECTION('',(0.,-1.77635683940026E-15,-1.));
#406=DIRECTION('center_axis',(0.707106781186546,-0.707106781186549,1.25607396694703E-15));
#407=DIRECTION('ref_axis',(0.707106781186549,0.707106781186546,-1.30841038223647E-15));
#408=DIRECTION('',(0.,1.77635683940026E-15,1.));
#409=DIRECTION('center_axis',(0.,1.,-1.77635683940026E-15));
#410=DIRECTION('ref_axis',(-1.,0.,0.));
#411=DIRECTION('center_axis',(0.,1.,-1.77635683940026E-15));
#412=DIRECTION('ref_axis',(0.,1.85037170770859E-15,1.));
#413=DIRECTION('',(1.,0.,0.));
#414=DIRECTION('center_axis',(0.,1.,-1.77635683940026E-15));
#415=DIRECTION('ref_axis',(-1.,0.,0.));
#416=DIRECTION('',(1.,0.,0.));
#417=DIRECTION('',(0.,1.77635683940026E-15,1.));
#418=DIRECTION('',(-1.,0.,0.));
#419=DIRECTION('center_axis',(0.,1.,-1.77635683940026E-15));
#420=DIRECTION('ref_axis',(0.,-1.85037170770859E-15,-1.));
#421=DIRECTION('',(-1.,-1.97945653069348E-29,-1.1143349617534E-14));
#422=DIRECTION('center_axis',(0.,1.,-1.77635683940026E-15));
#423=DIRECTION('ref_axis',(1.,0.,0.));
#424=DIRECTION('center_axis',(0.,1.,-1.77635683940026E-15));
#425=DIRECTION('ref_axis',(0.,1.77635683940025E-15,1.));
#426=DIRECTION('center_axis',(0.,-1.,1.85037170770859E-15));
#427=DIRECTION('ref_axis',(0.,1.85037170770859E-15,1.));
#428=DIRECTION('',(0.,-1.,1.85037170770859E-15));
#429=DIRECTION('center_axis',(0.,1.,-1.77635683940026E-15));
#430=DIRECTION('ref_axis',(0.,1.77635683940026E-15,1.));
#431=DIRECTION('',(0.,-1.,1.85037170770859E-15));
#432=DIRECTION('center_axis',(0.,1.,-1.77635683940025E-15));
#433=DIRECTION('ref_axis',(0.,1.77635683940025E-15,1.));
#434=DIRECTION('center_axis',(0.,-1.,1.77635683940026E-15));
#435=DIRECTION('ref_axis',(-1.,0.,0.));
#436=DIRECTION('center_axis',(0.,-1.,1.77635683940026E-15));
#437=DIRECTION('ref_axis',(-1.,0.,0.));
#438=DIRECTION('',(-8.27359385291814E-17,-0.737277336810123,0.675590207615661));
#439=DIRECTION('center_axis',(0.,-1.,1.77635683940025E-15));
#440=DIRECTION('ref_axis',(0.,1.77635683940025E-15,1.));
#441=DIRECTION('center_axis',(0.,-1.,1.77635683940025E-15));
#442=DIRECTION('ref_axis',(0.,1.77635683940025E-15,1.));
#443=DIRECTION('',(0.,-1.,1.77635683940025E-15));
#444=DIRECTION('center_axis',(0.,-1.,1.77635683940025E-15));
#445=DIRECTION('ref_axis',(-1.,0.,0.));
#446=DIRECTION('center_axis',(0.,-1.,1.77635683940026E-15));
#447=DIRECTION('ref_axis',(-1.,0.,0.));
#448=DIRECTION('',(0.,-1.,1.77635683940025E-15));
#449=DIRECTION('center_axis',(-0.707106781186548,0.707106781186548,0.));
#450=DIRECTION('ref_axis',(0.,0.,1.));
#451=DIRECTION('',(-0.707106781186548,-0.707106781186548,1.02056009814445E-14));
#452=DIRECTION('',(0.,0.,1.));
#453=DIRECTION('',(0.707106781186548,0.707106781186548,0.));
#454=DIRECTION('',(0.,0.,-1.));
#455=DIRECTION('center_axis',(0.,-1.4432899320127E-14,-1.));
#456=DIRECTION('ref_axis',(0.,-1.,1.4432899320127E-14));
#457=DIRECTION('',(-1.,0.,0.));
#458=DIRECTION('',(0.,-1.,1.85037170770859E-15));
#459=DIRECTION('',(0.,-1.,1.4432899320127E-14));
#460=DIRECTION('center_axis',(0.,1.,0.));
#461=DIRECTION('ref_axis',(0.,0.,-1.));
#462=DIRECTION('',(-1.,0.,0.));
#463=DIRECTION('',(0.,0.,1.));
#464=DIRECTION('center_axis',(0.,0.,1.));
#465=DIRECTION('ref_axis',(0.,1.,0.));
#466=DIRECTION('',(0.,1.,0.));
#467=DIRECTION('',(0.,-1.,1.85037170770859E-15));
#468=DIRECTION('center_axis',(-1.,0.,0.));
#469=DIRECTION('ref_axis',(0.,0.,1.));
#470=DIRECTION('center_axis',(-1.,0.,0.));
#471=DIRECTION('ref_axis',(0.,-1.77635683940026E-15,-1.));
#472=DIRECTION('',(0.,-1.,1.85037170770859E-15));
#473=DIRECTION('',(0.,-1.77635683940026E-15,-1.));
#474=DIRECTION('',(0.,-1.,1.85037170770859E-15));
#475=DIRECTION('center_axis',(0.,-1.,1.85037170770859E-15));
#476=DIRECTION('ref_axis',(-1.,0.,0.));
#477=DIRECTION('center_axis',(0.,1.,-1.77635683940026E-15));
#478=DIRECTION('ref_axis',(-1.,0.,0.));
#479=DIRECTION('',(0.,-1.,1.85037170770859E-15));
#480=DIRECTION('center_axis',(0.,1.85037170770859E-15,1.));
#481=DIRECTION('ref_axis',(-1.,0.,0.));
#482=DIRECTION('',(-1.,0.,0.));
#483=DIRECTION('center_axis',(1.,0.,0.));
#484=DIRECTION('ref_axis',(0.,1.77635683940026E-15,1.));
#485=DIRECTION('',(0.,-1.,1.85037170770859E-15));
#486=DIRECTION('',(0.,1.77635683940026E-15,1.));
#487=DIRECTION('center_axis',(0.,-1.,1.85037170770859E-15));
#488=DIRECTION('ref_axis',(1.,0.,0.));
#489=DIRECTION('',(0.,-1.,1.85037170770859E-15));
#490=DIRECTION('center_axis',(0.,1.,-1.77635683940026E-15));
#491=DIRECTION('ref_axis',(1.,0.,0.));
#492=DIRECTION('center_axis',(1.1143349617534E-14,-1.85037170770859E-15,
-1.));
#493=DIRECTION('ref_axis',(1.,1.97945653069348E-29,1.1143349617534E-14));
#494=DIRECTION('',(1.,1.97945653069348E-29,1.1143349617534E-14));
#495=DIRECTION('',(0.,-1.,1.85037170770859E-15));
#496=DIRECTION('center_axis',(0.,-1.,1.85037170770859E-15));
#497=DIRECTION('ref_axis',(0.,-1.85037170770859E-15,-1.));
#498=DIRECTION('center_axis',(0.,1.,-1.77635683940026E-15));
#499=DIRECTION('ref_axis',(0.,-1.77635683940026E-15,-1.));
#500=DIRECTION('center_axis',(0.,1.,-1.77635683940026E-15));
#501=DIRECTION('ref_axis',(-1.,0.,0.));
#502=CARTESIAN_POINT('',(0.,0.,0.));
#503=CARTESIAN_POINT('Origin',(37.5,100.2,-2.00000000000018));
#504=CARTESIAN_POINT('',(38.,100.7,3.99999999999982));
#505=CARTESIAN_POINT('',(37.,99.6999999999997,5.7320508075687));
#506=CARTESIAN_POINT('Origin',(36.,98.6999999999997,3.99999999999982));
#507=CARTESIAN_POINT('',(37.,99.6999999999997,-5.73205080756906));
#508=CARTESIAN_POINT('',(37.,99.6999999999997,-2.00000000000018));
#509=CARTESIAN_POINT('',(38.,100.7,-4.00000000000018));
#510=CARTESIAN_POINT('Origin',(36.,98.6999999999997,-4.00000000000017));
#511=CARTESIAN_POINT('',(38.,100.7,-2.00000000000018));
#512=CARTESIAN_POINT('Origin',(22.5,99.6999999999997,-1.79101178332531E-13));
#513=CARTESIAN_POINT('',(36.,99.6999999999997,5.99999999999982));
#514=CARTESIAN_POINT('Origin',(36.,99.6999999999997,3.99999999999982));
#515=CARTESIAN_POINT('',(9.,99.6999999999997,5.99999999999982));
#516=CARTESIAN_POINT('',(29.25,99.6999999999997,5.99999999999982));
#517=CARTESIAN_POINT('',(7.,99.6999999999997,3.99999999999982));
#518=CARTESIAN_POINT('Origin',(9.,99.6999999999997,3.99999999999982));
#519=CARTESIAN_POINT('',(5.6,99.6999999999997,3.99999999999982));
#520=CARTESIAN_POINT('',(14.75,99.6999999999997,3.99999999999982));
#521=CARTESIAN_POINT('',(5.6,99.6999999999997,-4.00000000000018));
#522=CARTESIAN_POINT('',(5.6,99.6999999999997,-1.84263715397037E-13));
#523=CARTESIAN_POINT('',(7.,99.6999999999997,-4.00000000000018));
#524=CARTESIAN_POINT('',(14.75,99.6999999999997,-4.00000000000018));
#525=CARTESIAN_POINT('',(9.,99.6999999999996,-6.00000000000018));
#526=CARTESIAN_POINT('Origin',(9.,99.6999999999997,-4.00000000000018));
#527=CARTESIAN_POINT('',(36.,99.6999999999996,-6.00000000000018));
#528=CARTESIAN_POINT('',(15.75,99.6999999999997,-6.0000000000001));
#529=CARTESIAN_POINT('Origin',(36.,99.6999999999997,-4.00000000000018));
#530=CARTESIAN_POINT('',(34.,99.6999999999997,-1.10000000000019));
#531=CARTESIAN_POINT('Origin',(34.,99.6999999999997,-1.85871062860197E-13));
#532=CARTESIAN_POINT('Origin',(36.,102.5,3.99999999999981));
#533=CARTESIAN_POINT('',(38.,102.5,3.99999999999981));
#534=CARTESIAN_POINT('',(38.,102.5,3.99999999999981));
#535=CARTESIAN_POINT('',(36.,102.5,5.99999999999982));
#536=CARTESIAN_POINT('Origin',(36.,102.5,3.99999999999981));
#537=CARTESIAN_POINT('',(36.,102.5,5.99999999999982));
#538=CARTESIAN_POINT('Origin',(34.,101.681628461992,-1.89391142131807E-13));
#539=CARTESIAN_POINT('',(36.05,102.2,-1.90563007552523E-13));
#540=CARTESIAN_POINT('',(34.,102.2,-2.05000000000019));
#541=CARTESIAN_POINT('Origin',(34.,102.2,-1.90311954958698E-13));
#542=CARTESIAN_POINT('Origin',(34.,102.2,-1.90311954958698E-13));
#543=CARTESIAN_POINT('',(34.,101.163256923984,-1.10000000000019));
#544=CARTESIAN_POINT('',(34.,101.681628461992,-1.57500000000019));
#545=CARTESIAN_POINT('Origin',(34.,101.163256923984,-1.88470329304916E-13));
#546=CARTESIAN_POINT('Origin',(34.,99.0499999999997,-1.84716430914587E-13));
#547=CARTESIAN_POINT('',(34.,99.0499999999997,-1.10000000000018));
#548=CARTESIAN_POINT('Origin',(34.,102.5,-1.90844862010518E-13));
#549=CARTESIAN_POINT('',(36.05,102.5,-1.91095914604343E-13));
#550=CARTESIAN_POINT('Origin',(34.,102.5,-1.90844862010518E-13));
#551=CARTESIAN_POINT('',(36.05,102.5,-1.90593809416693E-13));
#552=CARTESIAN_POINT('Origin',(6.,100.6,1.99999999999981));
#553=CARTESIAN_POINT('',(6.4,101.,-4.0000000000002));
#554=CARTESIAN_POINT('',(5.6,100.2,-4.00000000000019));
#555=CARTESIAN_POINT('',(6.34999999999998,100.95,-4.0000000000002));
#556=CARTESIAN_POINT('',(5.6,100.2,3.99999999999982));
#557=CARTESIAN_POINT('',(5.6,100.2,1.99999999999981));
#558=CARTESIAN_POINT('',(6.4,101.,3.99999999999982));
#559=CARTESIAN_POINT('',(5.975,100.575,3.99999999999982));
#560=CARTESIAN_POINT('',(6.4,101.,1.99999999999981));
#561=CARTESIAN_POINT('Origin',(7.,101.,-4.0000000000002));
#562=CARTESIAN_POINT('',(7.,101.,-4.0000000000002));
#563=CARTESIAN_POINT('',(7.,101.,-4.0000000000002));
#564=CARTESIAN_POINT('',(7.,102.5,-4.00000000000018));
#565=CARTESIAN_POINT('',(5.6,101.,-4.0000000000002));
#566=CARTESIAN_POINT('Origin',(7.,101.,3.99999999999982));
#567=CARTESIAN_POINT('',(7.,101.,3.99999999999982));
#568=CARTESIAN_POINT('',(7.,101.,3.99999999999982));
#569=CARTESIAN_POINT('',(7.,101.,3.99999999999982));
#570=CARTESIAN_POINT('Origin',(7.,99.4999999999997,3.99999999999982));
#571=CARTESIAN_POINT('',(5.6,99.4999999999997,3.99999999999982));
#572=CARTESIAN_POINT('',(7.,102.5,3.99999999999981));
#573=CARTESIAN_POINT('Origin',(5.6,100.25,-1.90403248723214E-13));
#574=CARTESIAN_POINT('Origin',(7.,102.5,3.99999999999981));
#575=CARTESIAN_POINT('',(7.,102.5,3.99999999999981));
#576=CARTESIAN_POINT('',(7.,102.5,3.99999999999981));
#577=CARTESIAN_POINT('',(7.,102.5,-4.00000000000018));
#578=CARTESIAN_POINT('',(7.,102.5,3.99999999999981));
#579=CARTESIAN_POINT('',(7.,102.5,-4.00000000000018));
#580=CARTESIAN_POINT('Origin',(9.,102.5,3.99999999999981));
#581=CARTESIAN_POINT('',(9.,102.5,5.99999999999982));
#582=CARTESIAN_POINT('Origin',(9.,102.5,3.99999999999981));
#583=CARTESIAN_POINT('',(9.,102.5,5.99999999999982));
#584=CARTESIAN_POINT('Origin',(36.,102.5,5.99999999999982));
#585=CARTESIAN_POINT('',(36.,102.5,5.99999999999982));
#586=CARTESIAN_POINT('Origin',(38.,102.5,-4.00000000000018));
#587=CARTESIAN_POINT('',(38.,102.5,-4.00000000000018));
#588=CARTESIAN_POINT('',(38.,102.5,-4.00000000000018));
#589=CARTESIAN_POINT('',(38.,102.5,-4.00000000000018));
#590=CARTESIAN_POINT('Origin',(36.,102.5,-4.00000000000018));
#591=CARTESIAN_POINT('',(36.,102.5,-6.00000000000018));
#592=CARTESIAN_POINT('',(36.,102.5,-6.00000000000018));
#593=CARTESIAN_POINT('Origin',(36.,102.5,-4.00000000000018));
#594=CARTESIAN_POINT('Origin',(9.,102.5,-6.00000000000018));
#595=CARTESIAN_POINT('',(9.,102.5,-6.00000000000018));
#596=CARTESIAN_POINT('',(9.,102.5,-6.00000000000018));
#597=CARTESIAN_POINT('',(9.,102.5,-6.00000000000018));
#598=CARTESIAN_POINT('Origin',(9.,102.5,-4.00000000000018));
#599=CARTESIAN_POINT('Origin',(9.,102.5,-4.00000000000018));
#600=CARTESIAN_POINT('Origin',(22.5,102.5,-1.84297022087776E-13));
#601=UNCERTAINTY_MEASURE_WITH_UNIT(LENGTH_MEASURE(0.01),#605,
'DISTANCE_ACCURACY_VALUE',
'Maximum model space distance between geometric entities at asserted c
onnectivities');
#602=UNCERTAINTY_MEASURE_WITH_UNIT(LENGTH_MEASURE(0.01),#605,
'DISTANCE_ACCURACY_VALUE',
'Maximum model space distance between geometric entities at asserted c
onnectivities');
#603=(
GEOMETRIC_REPRESENTATION_CONTEXT(3)
GLOBAL_UNCERTAINTY_ASSIGNED_CONTEXT((#601))
GLOBAL_UNIT_ASSIGNED_CONTEXT((#605,#607,#608))
REPRESENTATION_CONTEXT('','3D')
);
#604=(
GEOMETRIC_REPRESENTATION_CONTEXT(3)
GLOBAL_UNCERTAINTY_ASSIGNED_CONTEXT((#602))
GLOBAL_UNIT_ASSIGNED_CONTEXT((#605,#607,#608))
REPRESENTATION_CONTEXT('','3D')
);
#605=(
LENGTH_UNIT()
NAMED_UNIT(*)
SI_UNIT(.MILLI.,.METRE.)
);
#606=(
LENGTH_UNIT()
NAMED_UNIT(*)
SI_UNIT($,.METRE.)
);
#607=(
NAMED_UNIT(*)
PLANE_ANGLE_UNIT()
SI_UNIT($,.RADIAN.)
);
#608=(
NAMED_UNIT(*)
SI_UNIT($,.STERADIAN.)
SOLID_ANGLE_UNIT()
);
#609=SHAPE_DEFINITION_REPRESENTATION(#610,#611);
#610=PRODUCT_DEFINITION_SHAPE('',$,#613);
#611=SHAPE_REPRESENTATION('',(#364),#603);
#612=PRODUCT_DEFINITION_CONTEXT('part definition',#617,'design');
#613=PRODUCT_DEFINITION('2026-08-29-10-50-22-601','(Unsaved)',#614,#612);
#614=PRODUCT_DEFINITION_FORMATION('',$,#619);
#615=PRODUCT_RELATED_PRODUCT_CATEGORY('(Unsaved)','(Unsaved)',(#619));
#616=APPLICATION_PROTOCOL_DEFINITION('international standard',
'automotive_design',2009,#617);
#617=APPLICATION_CONTEXT(
'Core Data for Automotive Mechanical Design Process');
#618=PRODUCT_CONTEXT('part definition',#617,'mechanical');
#619=PRODUCT('2026-08-29-10-50-22-601','(Unsaved)',$,(#618));
#620=PRESENTATION_STYLE_ASSIGNMENT((#621));
#621=SURFACE_STYLE_USAGE(.BOTH.,#622);
#622=SURFACE_SIDE_STYLE('',(#623));
#623=SURFACE_STYLE_FILL_AREA(#624);
#624=FILL_AREA_STYLE('Steel - Satin',(#625));
#625=FILL_AREA_STYLE_COLOUR('Steel - Satin',#626);
#626=COLOUR_RGB('Steel - Satin',0.627450980392157,0.627450980392157,0.627450980392157);
ENDSEC;
END-ISO-10303-21;
