ISO-10303-21;
HEADER;
/* Generated by software containing ST-Developer
 * from STEP Tools, Inc. (www.steptools.com) 
 */

FILE_DESCRIPTION(
/* description */ (''),
/* implementation_level */ '2;1');

FILE_NAME(
/* name */ 'counterweight-belt-clip_v1.0.step',
/* time_stamp */ '2026-08-29T11:09:37-05:00',
/* author */ (''),
/* organization */ (''),
/* preprocessor_version */ 'ST-DEVELOPER v20.1',
/* originating_system */ 'Autodesk Translation Framework v15.8.0.0',
/* authorisation */ '');

FILE_SCHEMA (('AUTOMOTIVE_DESIGN { 1 0 10303 214 3 1 1 }'));
ENDSEC;

DATA;
#10=MECHANICAL_DESIGN_GEOMETRIC_PRESENTATION_REPRESENTATION('',(#13),#729);
#11=SHAPE_REPRESENTATION_RELATIONSHIP('SRR','None',#736,#12);
#12=ADVANCED_BREP_SHAPE_REPRESENTATION('',(#14),#728);
#13=STYLED_ITEM('',(#745),#14);
#14=MANIFOLD_SOLID_BREP('Body1',#433);
#15=CONICAL_SURFACE('',#459,1.76213203435596,0.785398163397448);
#16=CONICAL_SURFACE('',#463,1.76213203435596,0.785398163397448);
#17=FACE_BOUND('',#58,.T.);
#18=FACE_BOUND('',#60,.T.);
#19=FACE_BOUND('',#71,.T.);
#20=FACE_BOUND('',#72,.T.);
#21=FACE_BOUND('',#73,.T.);
#22=PLANE('',#450);
#23=PLANE('',#451);
#24=PLANE('',#455);
#25=PLANE('',#467);
#26=PLANE('',#468);
#27=PLANE('',#469);
#28=PLANE('',#472);
#29=PLANE('',#473);
#30=PLANE('',#478);
#31=PLANE('',#481);
#32=PLANE('',#482);
#33=PLANE('',#483);
#34=FACE_OUTER_BOUND('',#55,.T.);
#35=FACE_OUTER_BOUND('',#56,.T.);
#36=FACE_OUTER_BOUND('',#57,.T.);
#37=FACE_OUTER_BOUND('',#59,.T.);
#38=FACE_OUTER_BOUND('',#61,.T.);
#39=FACE_OUTER_BOUND('',#62,.T.);
#40=FACE_OUTER_BOUND('',#63,.T.);
#41=FACE_OUTER_BOUND('',#64,.T.);
#42=FACE_OUTER_BOUND('',#65,.T.);
#43=FACE_OUTER_BOUND('',#66,.T.);
#44=FACE_OUTER_BOUND('',#67,.T.);
#45=FACE_OUTER_BOUND('',#68,.T.);
#46=FACE_OUTER_BOUND('',#69,.T.);
#47=FACE_OUTER_BOUND('',#70,.T.);
#48=FACE_OUTER_BOUND('',#74,.T.);
#49=FACE_OUTER_BOUND('',#75,.T.);
#50=FACE_OUTER_BOUND('',#76,.T.);
#51=FACE_OUTER_BOUND('',#77,.T.);
#52=FACE_OUTER_BOUND('',#78,.T.);
#53=FACE_OUTER_BOUND('',#79,.T.);
#54=FACE_OUTER_BOUND('',#80,.T.);
#55=EDGE_LOOP('',(#285,#286,#287,#288));
#56=EDGE_LOOP('',(#289,#290,#291,#292));
#57=EDGE_LOOP('',(#293,#294,#295,#296,#297,#298));
#58=EDGE_LOOP('',(#299));
#59=EDGE_LOOP('',(#300,#301,#302,#303,#304,#305));
#60=EDGE_LOOP('',(#306));
#61=EDGE_LOOP('',(#307,#308,#309,#310));
#62=EDGE_LOOP('',(#311,#312,#313,#314));
#63=EDGE_LOOP('',(#315,#316,#317,#318));
#64=EDGE_LOOP('',(#319,#320,#321,#322));
#65=EDGE_LOOP('',(#323,#324,#325,#326));
#66=EDGE_LOOP('',(#327,#328,#329,#330,#331,#332,#333,#334));
#67=EDGE_LOOP('',(#335,#336,#337,#338));
#68=EDGE_LOOP('',(#339,#340,#341,#342));
#69=EDGE_LOOP('',(#343,#344,#345,#346,#347,#348,#349,#350,#351));
#70=EDGE_LOOP('',(#352,#353,#354,#355,#356,#357,#358,#359,#360,#361));
#71=EDGE_LOOP('',(#362,#363,#364,#365));
#72=EDGE_LOOP('',(#366));
#73=EDGE_LOOP('',(#367));
#74=EDGE_LOOP('',(#368,#369,#370,#371));
#75=EDGE_LOOP('',(#372,#373,#374,#375,#376,#377,#378,#379,#380));
#76=EDGE_LOOP('',(#381,#382,#383,#384));
#77=EDGE_LOOP('',(#385,#386,#387,#388));
#78=EDGE_LOOP('',(#389,#390,#391,#392));
#79=EDGE_LOOP('',(#393,#394,#395,#396));
#80=EDGE_LOOP('',(#397,#398,#399,#400,#401,#402,#403,#404));
#81=LINE('',#610,#125);
#82=LINE('',#613,#126);
#83=LINE('',#617,#127);
#84=LINE('',#619,#128);
#85=LINE('',#621,#129);
#86=LINE('',#622,#130);
#87=LINE('',#625,#131);
#88=LINE('',#629,#132);
#89=LINE('',#632,#133);
#90=LINE('',#638,#134);
#91=LINE('',#642,#135);
#92=LINE('',#646,#136);
#93=LINE('',#647,#137);
#94=LINE('',#654,#138);
#95=LINE('',#657,#139);
#96=LINE('',#662,#140);
#97=LINE('',#665,#141);
#98=LINE('',#668,#142);
#99=LINE('',#670,#143);
#100=LINE('',#671,#144);
#101=LINE('',#674,#145);
#102=LINE('',#676,#146);
#103=LINE('',#678,#147);
#104=LINE('',#679,#148);
#105=LINE('',#681,#149);
#106=LINE('',#682,#150);
#107=LINE('',#684,#151);
#108=LINE('',#685,#152);
#109=LINE('',#688,#153);
#110=LINE('',#691,#154);
#111=LINE('',#694,#155);
#112=LINE('',#696,#156);
#113=LINE('',#697,#157);
#114=LINE('',#698,#158);
#115=LINE('',#701,#159);
#116=LINE('',#705,#160);
#117=LINE('',#707,#161);
#118=LINE('',#711,#162);
#119=LINE('',#714,#163);
#120=LINE('',#715,#164);
#121=LINE('',#717,#165);
#122=LINE('',#718,#166);
#123=LINE('',#720,#167);
#124=LINE('',#722,#168);
#125=VECTOR('',#490,10.);
#126=VECTOR('',#493,10.);
#127=VECTOR('',#496,10.);
#128=VECTOR('',#497,10.);
#129=VECTOR('',#498,10.);
#130=VECTOR('',#499,10.);
#131=VECTOR('',#502,10.);
#132=VECTOR('',#505,10.);
#133=VECTOR('',#508,10.);
#134=VECTOR('',#513,10.);
#135=VECTOR('',#516,10.);
#136=VECTOR('',#519,10.);
#137=VECTOR('',#520,10.);
#138=VECTOR('',#527,1.55);
#139=VECTOR('',#532,1.1);
#140=VECTOR('',#537,1.55);
#141=VECTOR('',#542,1.1);
#142=VECTOR('',#545,10.);
#143=VECTOR('',#546,10.);
#144=VECTOR('',#547,10.);
#145=VECTOR('',#550,10.);
#146=VECTOR('',#551,10.);
#147=VECTOR('',#552,10.);
#148=VECTOR('',#553,10.);
#149=VECTOR('',#554,10.);
#150=VECTOR('',#555,10.);
#151=VECTOR('',#558,10.);
#152=VECTOR('',#559,10.);
#153=VECTOR('',#562,10.);
#154=VECTOR('',#565,10.);
#155=VECTOR('',#568,10.);
#156=VECTOR('',#569,10.);
#157=VECTOR('',#570,10.);
#158=VECTOR('',#571,10.);
#159=VECTOR('',#574,10.);
#160=VECTOR('',#577,10.);
#161=VECTOR('',#578,10.);
#162=VECTOR('',#581,10.);
#163=VECTOR('',#586,10.);
#164=VECTOR('',#587,10.);
#165=VECTOR('',#590,10.);
#166=VECTOR('',#591,10.);
#167=VECTOR('',#594,10.);
#168=VECTOR('',#597,10.);
#169=CIRCLE('',#448,1.5);
#170=CIRCLE('',#449,1.5);
#171=CIRCLE('',#452,2.);
#172=CIRCLE('',#453,1.99999999999999);
#173=CIRCLE('',#454,1.2);
#174=CIRCLE('',#456,2.00000000000001);
#175=CIRCLE('',#457,2.00000000000001);
#176=CIRCLE('',#458,1.2);
#177=CIRCLE('',#460,2.42426406871193);
#178=CIRCLE('',#461,1.2);
#179=CIRCLE('',#464,2.42426406871193);
#180=CIRCLE('',#465,1.2);
#181=CIRCLE('',#471,2.);
#182=CIRCLE('',#474,2.);
#183=CIRCLE('',#475,2.);
#184=CIRCLE('',#476,2.);
#185=VERTEX_POINT('',#606);
#186=VERTEX_POINT('',#607);
#187=VERTEX_POINT('',#609);
#188=VERTEX_POINT('',#611);
#189=VERTEX_POINT('',#615);
#190=VERTEX_POINT('',#616);
#191=VERTEX_POINT('',#618);
#192=VERTEX_POINT('',#620);
#193=VERTEX_POINT('',#624);
#194=VERTEX_POINT('',#626);
#195=VERTEX_POINT('',#628);
#196=VERTEX_POINT('',#630);
#197=VERTEX_POINT('',#633);
#198=VERTEX_POINT('',#636);
#199=VERTEX_POINT('',#637);
#200=VERTEX_POINT('',#639);
#201=VERTEX_POINT('',#641);
#202=VERTEX_POINT('',#643);
#203=VERTEX_POINT('',#645);
#204=VERTEX_POINT('',#648);
#205=VERTEX_POINT('',#651);
#206=VERTEX_POINT('',#653);
#207=VERTEX_POINT('',#659);
#208=VERTEX_POINT('',#661);
#209=VERTEX_POINT('',#667);
#210=VERTEX_POINT('',#669);
#211=VERTEX_POINT('',#673);
#212=VERTEX_POINT('',#675);
#213=VERTEX_POINT('',#677);
#214=VERTEX_POINT('',#680);
#215=VERTEX_POINT('',#687);
#216=VERTEX_POINT('',#689);
#217=VERTEX_POINT('',#693);
#218=VERTEX_POINT('',#695);
#219=VERTEX_POINT('',#700);
#220=VERTEX_POINT('',#702);
#221=VERTEX_POINT('',#704);
#222=VERTEX_POINT('',#706);
#223=VERTEX_POINT('',#708);
#224=VERTEX_POINT('',#710);
#225=EDGE_CURVE('',#185,#186,#169,.F.);
#226=EDGE_CURVE('',#186,#187,#81,.T.);
#227=EDGE_CURVE('',#187,#188,#170,.F.);
#228=EDGE_CURVE('',#188,#185,#82,.T.);
#229=EDGE_CURVE('',#189,#190,#83,.T.);
#230=EDGE_CURVE('',#189,#191,#84,.T.);
#231=EDGE_CURVE('',#192,#191,#85,.T.);
#232=EDGE_CURVE('',#190,#192,#86,.T.);
#233=EDGE_CURVE('',#191,#193,#87,.T.);
#234=EDGE_CURVE('',#193,#194,#171,.T.);
#235=EDGE_CURVE('',#194,#195,#88,.T.);
#236=EDGE_CURVE('',#195,#196,#172,.T.);
#237=EDGE_CURVE('',#196,#192,#89,.T.);
#238=EDGE_CURVE('',#197,#197,#173,.T.);
#239=EDGE_CURVE('',#198,#199,#90,.T.);
#240=EDGE_CURVE('',#199,#200,#174,.T.);
#241=EDGE_CURVE('',#200,#201,#91,.T.);
#242=EDGE_CURVE('',#201,#202,#175,.T.);
#243=EDGE_CURVE('',#202,#203,#92,.T.);
#244=EDGE_CURVE('',#203,#198,#93,.T.);
#245=EDGE_CURVE('',#204,#204,#176,.T.);
#246=EDGE_CURVE('',#205,#205,#177,.T.);
#247=EDGE_CURVE('',#205,#206,#94,.T.);
#248=EDGE_CURVE('',#206,#206,#178,.F.);
#249=EDGE_CURVE('',#206,#197,#95,.T.);
#250=EDGE_CURVE('',#207,#207,#179,.T.);
#251=EDGE_CURVE('',#207,#208,#96,.T.);
#252=EDGE_CURVE('',#208,#208,#180,.F.);
#253=EDGE_CURVE('',#208,#204,#97,.T.);
#254=EDGE_CURVE('',#186,#209,#98,.T.);
#255=EDGE_CURVE('',#210,#185,#99,.T.);
#256=EDGE_CURVE('',#210,#209,#100,.T.);
#257=EDGE_CURVE('',#211,#210,#101,.T.);
#258=EDGE_CURVE('',#211,#212,#102,.T.);
#259=EDGE_CURVE('',#213,#212,#103,.T.);
#260=EDGE_CURVE('',#213,#198,#104,.T.);
#261=EDGE_CURVE('',#214,#203,#105,.T.);
#262=EDGE_CURVE('',#209,#214,#106,.T.);
#263=EDGE_CURVE('',#212,#187,#107,.T.);
#264=EDGE_CURVE('',#188,#211,#108,.T.);
#265=EDGE_CURVE('',#201,#215,#109,.T.);
#266=EDGE_CURVE('',#215,#216,#181,.T.);
#267=EDGE_CURVE('',#216,#202,#110,.T.);
#268=EDGE_CURVE('',#216,#217,#111,.T.);
#269=EDGE_CURVE('',#218,#217,#112,.T.);
#270=EDGE_CURVE('',#193,#218,#113,.T.);
#271=EDGE_CURVE('',#214,#189,#114,.T.);
#272=EDGE_CURVE('',#219,#215,#115,.T.);
#273=EDGE_CURVE('',#220,#219,#182,.T.);
#274=EDGE_CURVE('',#221,#220,#116,.T.);
#275=EDGE_CURVE('',#221,#222,#117,.T.);
#276=EDGE_CURVE('',#223,#222,#183,.T.);
#277=EDGE_CURVE('',#223,#224,#118,.T.);
#278=EDGE_CURVE('',#218,#224,#184,.T.);
#279=EDGE_CURVE('',#199,#220,#119,.T.);
#280=EDGE_CURVE('',#219,#200,#120,.T.);
#281=EDGE_CURVE('',#190,#213,#121,.T.);
#282=EDGE_CURVE('',#222,#196,#122,.T.);
#283=EDGE_CURVE('',#195,#223,#123,.T.);
#284=EDGE_CURVE('',#224,#194,#124,.T.);
#285=ORIENTED_EDGE('',*,*,#225,.T.);
#286=ORIENTED_EDGE('',*,*,#226,.T.);
#287=ORIENTED_EDGE('',*,*,#227,.T.);
#288=ORIENTED_EDGE('',*,*,#228,.T.);
#289=ORIENTED_EDGE('',*,*,#229,.F.);
#290=ORIENTED_EDGE('',*,*,#230,.T.);
#291=ORIENTED_EDGE('',*,*,#231,.F.);
#292=ORIENTED_EDGE('',*,*,#232,.F.);
#293=ORIENTED_EDGE('',*,*,#233,.T.);
#294=ORIENTED_EDGE('',*,*,#234,.T.);
#295=ORIENTED_EDGE('',*,*,#235,.T.);
#296=ORIENTED_EDGE('',*,*,#236,.T.);
#297=ORIENTED_EDGE('',*,*,#237,.T.);
#298=ORIENTED_EDGE('',*,*,#231,.T.);
#299=ORIENTED_EDGE('',*,*,#238,.T.);
#300=ORIENTED_EDGE('',*,*,#239,.T.);
#301=ORIENTED_EDGE('',*,*,#240,.T.);
#302=ORIENTED_EDGE('',*,*,#241,.T.);
#303=ORIENTED_EDGE('',*,*,#242,.T.);
#304=ORIENTED_EDGE('',*,*,#243,.T.);
#305=ORIENTED_EDGE('',*,*,#244,.T.);
#306=ORIENTED_EDGE('',*,*,#245,.T.);
#307=ORIENTED_EDGE('',*,*,#246,.F.);
#308=ORIENTED_EDGE('',*,*,#247,.T.);
#309=ORIENTED_EDGE('',*,*,#248,.T.);
#310=ORIENTED_EDGE('',*,*,#247,.F.);
#311=ORIENTED_EDGE('',*,*,#248,.F.);
#312=ORIENTED_EDGE('',*,*,#249,.T.);
#313=ORIENTED_EDGE('',*,*,#238,.F.);
#314=ORIENTED_EDGE('',*,*,#249,.F.);
#315=ORIENTED_EDGE('',*,*,#250,.F.);
#316=ORIENTED_EDGE('',*,*,#251,.T.);
#317=ORIENTED_EDGE('',*,*,#252,.T.);
#318=ORIENTED_EDGE('',*,*,#251,.F.);
#319=ORIENTED_EDGE('',*,*,#252,.F.);
#320=ORIENTED_EDGE('',*,*,#253,.T.);
#321=ORIENTED_EDGE('',*,*,#245,.F.);
#322=ORIENTED_EDGE('',*,*,#253,.F.);
#323=ORIENTED_EDGE('',*,*,#254,.F.);
#324=ORIENTED_EDGE('',*,*,#225,.F.);
#325=ORIENTED_EDGE('',*,*,#255,.F.);
#326=ORIENTED_EDGE('',*,*,#256,.T.);
#327=ORIENTED_EDGE('',*,*,#256,.F.);
#328=ORIENTED_EDGE('',*,*,#257,.F.);
#329=ORIENTED_EDGE('',*,*,#258,.T.);
#330=ORIENTED_EDGE('',*,*,#259,.F.);
#331=ORIENTED_EDGE('',*,*,#260,.T.);
#332=ORIENTED_EDGE('',*,*,#244,.F.);
#333=ORIENTED_EDGE('',*,*,#261,.F.);
#334=ORIENTED_EDGE('',*,*,#262,.F.);
#335=ORIENTED_EDGE('',*,*,#263,.F.);
#336=ORIENTED_EDGE('',*,*,#258,.F.);
#337=ORIENTED_EDGE('',*,*,#264,.F.);
#338=ORIENTED_EDGE('',*,*,#227,.F.);
#339=ORIENTED_EDGE('',*,*,#265,.T.);
#340=ORIENTED_EDGE('',*,*,#266,.T.);
#341=ORIENTED_EDGE('',*,*,#267,.T.);
#342=ORIENTED_EDGE('',*,*,#242,.F.);
#343=ORIENTED_EDGE('',*,*,#267,.F.);
#344=ORIENTED_EDGE('',*,*,#268,.T.);
#345=ORIENTED_EDGE('',*,*,#269,.F.);
#346=ORIENTED_EDGE('',*,*,#270,.F.);
#347=ORIENTED_EDGE('',*,*,#233,.F.);
#348=ORIENTED_EDGE('',*,*,#230,.F.);
#349=ORIENTED_EDGE('',*,*,#271,.F.);
#350=ORIENTED_EDGE('',*,*,#261,.T.);
#351=ORIENTED_EDGE('',*,*,#243,.F.);
#352=ORIENTED_EDGE('',*,*,#266,.F.);
#353=ORIENTED_EDGE('',*,*,#272,.F.);
#354=ORIENTED_EDGE('',*,*,#273,.F.);
#355=ORIENTED_EDGE('',*,*,#274,.F.);
#356=ORIENTED_EDGE('',*,*,#275,.T.);
#357=ORIENTED_EDGE('',*,*,#276,.F.);
#358=ORIENTED_EDGE('',*,*,#277,.T.);
#359=ORIENTED_EDGE('',*,*,#278,.F.);
#360=ORIENTED_EDGE('',*,*,#269,.T.);
#361=ORIENTED_EDGE('',*,*,#268,.F.);
#362=ORIENTED_EDGE('',*,*,#264,.T.);
#363=ORIENTED_EDGE('',*,*,#257,.T.);
#364=ORIENTED_EDGE('',*,*,#255,.T.);
#365=ORIENTED_EDGE('',*,*,#228,.F.);
#366=ORIENTED_EDGE('',*,*,#246,.T.);
#367=ORIENTED_EDGE('',*,*,#250,.T.);
#368=ORIENTED_EDGE('',*,*,#279,.T.);
#369=ORIENTED_EDGE('',*,*,#273,.T.);
#370=ORIENTED_EDGE('',*,*,#280,.T.);
#371=ORIENTED_EDGE('',*,*,#240,.F.);
#372=ORIENTED_EDGE('',*,*,#279,.F.);
#373=ORIENTED_EDGE('',*,*,#239,.F.);
#374=ORIENTED_EDGE('',*,*,#260,.F.);
#375=ORIENTED_EDGE('',*,*,#281,.F.);
#376=ORIENTED_EDGE('',*,*,#232,.T.);
#377=ORIENTED_EDGE('',*,*,#237,.F.);
#378=ORIENTED_EDGE('',*,*,#282,.F.);
#379=ORIENTED_EDGE('',*,*,#275,.F.);
#380=ORIENTED_EDGE('',*,*,#274,.T.);
#381=ORIENTED_EDGE('',*,*,#283,.T.);
#382=ORIENTED_EDGE('',*,*,#276,.T.);
#383=ORIENTED_EDGE('',*,*,#282,.T.);
#384=ORIENTED_EDGE('',*,*,#236,.F.);
#385=ORIENTED_EDGE('',*,*,#270,.T.);
#386=ORIENTED_EDGE('',*,*,#278,.T.);
#387=ORIENTED_EDGE('',*,*,#284,.T.);
#388=ORIENTED_EDGE('',*,*,#234,.F.);
#389=ORIENTED_EDGE('',*,*,#283,.F.);
#390=ORIENTED_EDGE('',*,*,#235,.F.);
#391=ORIENTED_EDGE('',*,*,#284,.F.);
#392=ORIENTED_EDGE('',*,*,#277,.F.);
#393=ORIENTED_EDGE('',*,*,#265,.F.);
#394=ORIENTED_EDGE('',*,*,#241,.F.);
#395=ORIENTED_EDGE('',*,*,#280,.F.);
#396=ORIENTED_EDGE('',*,*,#272,.T.);
#397=ORIENTED_EDGE('',*,*,#254,.T.);
#398=ORIENTED_EDGE('',*,*,#262,.T.);
#399=ORIENTED_EDGE('',*,*,#271,.T.);
#400=ORIENTED_EDGE('',*,*,#229,.T.);
#401=ORIENTED_EDGE('',*,*,#281,.T.);
#402=ORIENTED_EDGE('',*,*,#259,.T.);
#403=ORIENTED_EDGE('',*,*,#263,.T.);
#404=ORIENTED_EDGE('',*,*,#226,.F.);
#405=CYLINDRICAL_SURFACE('',#447,1.5);
#406=CYLINDRICAL_SURFACE('',#462,1.2);
#407=CYLINDRICAL_SURFACE('',#466,1.2);
#408=CYLINDRICAL_SURFACE('',#470,2.);
#409=CYLINDRICAL_SURFACE('',#477,2.);
#410=CYLINDRICAL_SURFACE('',#479,2.);
#411=CYLINDRICAL_SURFACE('',#480,2.);
#412=ADVANCED_FACE('',(#34),#405,.T.);
#413=ADVANCED_FACE('',(#35),#22,.T.);
#414=ADVANCED_FACE('',(#36,#17),#23,.T.);
#415=ADVANCED_FACE('',(#37,#18),#24,.T.);
#416=ADVANCED_FACE('',(#38),#15,.F.);
#417=ADVANCED_FACE('',(#39),#406,.F.);
#418=ADVANCED_FACE('',(#40),#16,.F.);
#419=ADVANCED_FACE('',(#41),#407,.F.);
#420=ADVANCED_FACE('',(#42),#25,.F.);
#421=ADVANCED_FACE('',(#43),#26,.F.);
#422=ADVANCED_FACE('',(#44),#27,.F.);
#423=ADVANCED_FACE('',(#45),#408,.T.);
#424=ADVANCED_FACE('',(#46),#28,.T.);
#425=ADVANCED_FACE('',(#47,#19,#20,#21),#29,.T.);
#426=ADVANCED_FACE('',(#48),#409,.T.);
#427=ADVANCED_FACE('',(#49),#30,.T.);
#428=ADVANCED_FACE('',(#50),#410,.T.);
#429=ADVANCED_FACE('',(#51),#411,.T.);
#430=ADVANCED_FACE('',(#52),#31,.T.);
#431=ADVANCED_FACE('',(#53),#32,.T.);
#432=ADVANCED_FACE('',(#54),#33,.T.);
#433=CLOSED_SHELL('',(#412,#413,#414,#415,#416,#417,#418,#419,#420,#421,
#422,#423,#424,#425,#426,#427,#428,#429,#430,#431,#432));
#434=DERIVED_UNIT_ELEMENT(#436,1.);
#435=DERIVED_UNIT_ELEMENT(#731,-3.);
#436=(
MASS_UNIT()
NAMED_UNIT(*)
SI_UNIT(.KILO.,.GRAM.)
);
#437=DERIVED_UNIT((#434,#435));
#438=MEASURE_REPRESENTATION_ITEM('density measure',
POSITIVE_RATIO_MEASURE(7850.),#437);
#439=PROPERTY_DEFINITION_REPRESENTATION(#444,#441);
#440=PROPERTY_DEFINITION_REPRESENTATION(#445,#442);
#441=REPRESENTATION('material name',(#443),#728);
#442=REPRESENTATION('density',(#438),#728);
#443=DESCRIPTIVE_REPRESENTATION_ITEM('Steel','Steel');
#444=PROPERTY_DEFINITION('material property','material name',#738);
#445=PROPERTY_DEFINITION('material property','density of part',#738);
#446=AXIS2_PLACEMENT_3D('',#604,#484,#485);
#447=AXIS2_PLACEMENT_3D('',#605,#486,#487);
#448=AXIS2_PLACEMENT_3D('',#608,#488,#489);
#449=AXIS2_PLACEMENT_3D('',#612,#491,#492);
#450=AXIS2_PLACEMENT_3D('',#614,#494,#495);
#451=AXIS2_PLACEMENT_3D('',#623,#500,#501);
#452=AXIS2_PLACEMENT_3D('',#627,#503,#504);
#453=AXIS2_PLACEMENT_3D('',#631,#506,#507);
#454=AXIS2_PLACEMENT_3D('',#634,#509,#510);
#455=AXIS2_PLACEMENT_3D('',#635,#511,#512);
#456=AXIS2_PLACEMENT_3D('',#640,#514,#515);
#457=AXIS2_PLACEMENT_3D('',#644,#517,#518);
#458=AXIS2_PLACEMENT_3D('',#649,#521,#522);
#459=AXIS2_PLACEMENT_3D('',#650,#523,#524);
#460=AXIS2_PLACEMENT_3D('',#652,#525,#526);
#461=AXIS2_PLACEMENT_3D('',#655,#528,#529);
#462=AXIS2_PLACEMENT_3D('',#656,#530,#531);
#463=AXIS2_PLACEMENT_3D('',#658,#533,#534);
#464=AXIS2_PLACEMENT_3D('',#660,#535,#536);
#465=AXIS2_PLACEMENT_3D('',#663,#538,#539);
#466=AXIS2_PLACEMENT_3D('',#664,#540,#541);
#467=AXIS2_PLACEMENT_3D('',#666,#543,#544);
#468=AXIS2_PLACEMENT_3D('',#672,#548,#549);
#469=AXIS2_PLACEMENT_3D('',#683,#556,#557);
#470=AXIS2_PLACEMENT_3D('',#686,#560,#561);
#471=AXIS2_PLACEMENT_3D('',#690,#563,#564);
#472=AXIS2_PLACEMENT_3D('',#692,#566,#567);
#473=AXIS2_PLACEMENT_3D('',#699,#572,#573);
#474=AXIS2_PLACEMENT_3D('',#703,#575,#576);
#475=AXIS2_PLACEMENT_3D('',#709,#579,#580);
#476=AXIS2_PLACEMENT_3D('',#712,#582,#583);
#477=AXIS2_PLACEMENT_3D('',#713,#584,#585);
#478=AXIS2_PLACEMENT_3D('',#716,#588,#589);
#479=AXIS2_PLACEMENT_3D('',#719,#592,#593);
#480=AXIS2_PLACEMENT_3D('',#721,#595,#596);
#481=AXIS2_PLACEMENT_3D('',#723,#598,#599);
#482=AXIS2_PLACEMENT_3D('',#724,#600,#601);
#483=AXIS2_PLACEMENT_3D('',#725,#602,#603);
#484=DIRECTION('axis',(0.,0.,1.));
#485=DIRECTION('refdir',(1.,0.,0.));
#486=DIRECTION('center_axis',(0.,0.,1.));
#487=DIRECTION('ref_axis',(-0.707106781186551,-0.707106781186544,0.));
#488=DIRECTION('center_axis',(0.,0.,-1.));
#489=DIRECTION('ref_axis',(-0.707106781186551,-0.707106781186544,0.));
#490=DIRECTION('',(0.,0.,1.));
#491=DIRECTION('center_axis',(0.,0.,1.));
#492=DIRECTION('ref_axis',(0.707106781186551,-0.707106781186544,0.));
#493=DIRECTION('',(0.,0.,-1.));
#494=DIRECTION('center_axis',(0.,-1.,0.));
#495=DIRECTION('ref_axis',(0.,0.,-1.));
#496=DIRECTION('',(0.,0.,1.));
#497=DIRECTION('',(1.,0.,0.));
#498=DIRECTION('',(0.,0.,-1.));
#499=DIRECTION('',(1.,0.,0.));
#500=DIRECTION('center_axis',(1.,0.,0.));
#501=DIRECTION('ref_axis',(0.,0.,-1.));
#502=DIRECTION('',(0.,1.,0.));
#503=DIRECTION('center_axis',(1.,0.,0.));
#504=DIRECTION('ref_axis',(0.,0.,-1.));
#505=DIRECTION('',(0.,0.,1.));
#506=DIRECTION('center_axis',(1.,0.,0.));
#507=DIRECTION('ref_axis',(0.,1.,-9.71445146547016E-16));
#508=DIRECTION('',(0.,-1.,3.7007560634696E-15));
#509=DIRECTION('center_axis',(-1.,0.,0.));
#510=DIRECTION('ref_axis',(0.,-1.,0.));
#511=DIRECTION('center_axis',(1.,0.,0.));
#512=DIRECTION('ref_axis',(0.,0.,-1.));
#513=DIRECTION('',(0.,-1.,0.));
#514=DIRECTION('center_axis',(1.,0.,0.));
#515=DIRECTION('ref_axis',(0.,-4.44089209850061E-15,1.));
#516=DIRECTION('',(0.,-2.96059473233375E-15,-1.));
#517=DIRECTION('center_axis',(1.,0.,0.));
#518=DIRECTION('ref_axis',(0.,-1.,-2.35922392732845E-15));
#519=DIRECTION('',(0.,1.,2.53765262771464E-16));
#520=DIRECTION('',(0.,0.,1.));
#521=DIRECTION('center_axis',(-1.,0.,0.));
#522=DIRECTION('ref_axis',(0.,-1.,0.));
#523=DIRECTION('center_axis',(-1.,0.,0.));
#524=DIRECTION('ref_axis',(0.,-1.,0.));
#525=DIRECTION('center_axis',(1.,0.,0.));
#526=DIRECTION('ref_axis',(0.,-1.,0.));
#527=DIRECTION('',(0.707106781186548,-0.707106781186548,-8.65956056235493E-17));
#528=DIRECTION('center_axis',(-1.,0.,0.));
#529=DIRECTION('ref_axis',(0.,-1.,0.));
#530=DIRECTION('center_axis',(1.,0.,0.));
#531=DIRECTION('ref_axis',(0.,-1.,0.));
#532=DIRECTION('',(1.,0.,0.));
#533=DIRECTION('center_axis',(-1.,0.,0.));
#534=DIRECTION('ref_axis',(0.,-1.,0.));
#535=DIRECTION('center_axis',(1.,0.,0.));
#536=DIRECTION('ref_axis',(0.,-1.,0.));
#537=DIRECTION('',(0.707106781186548,-0.707106781186548,-8.65956056235493E-17));
#538=DIRECTION('center_axis',(-1.,0.,0.));
#539=DIRECTION('ref_axis',(0.,-1.,0.));
#540=DIRECTION('center_axis',(1.,0.,0.));
#541=DIRECTION('ref_axis',(0.,-1.,0.));
#542=DIRECTION('',(1.,0.,0.));
#543=DIRECTION('center_axis',(0.,0.,-1.));
#544=DIRECTION('ref_axis',(0.,1.,0.));
#545=DIRECTION('',(0.,-1.,0.));
#546=DIRECTION('',(0.,1.,0.));
#547=DIRECTION('',(1.,0.,0.));
#548=DIRECTION('center_axis',(0.,-1.,0.));
#549=DIRECTION('ref_axis',(0.,0.,-1.));
#550=DIRECTION('',(0.,0.,-1.));
#551=DIRECTION('',(1.,0.,0.));
#552=DIRECTION('',(0.,0.,-1.));
#553=DIRECTION('',(1.,0.,0.));
#554=DIRECTION('',(1.,0.,0.));
#555=DIRECTION('',(0.,0.,-1.));
#556=DIRECTION('center_axis',(0.,0.,1.));
#557=DIRECTION('ref_axis',(0.,-1.,0.));
#558=DIRECTION('',(0.,1.,0.));
#559=DIRECTION('',(0.,-1.,0.));
#560=DIRECTION('center_axis',(1.,0.,0.));
#561=DIRECTION('ref_axis',(0.,-0.707106781186546,-0.707106781186549));
#562=DIRECTION('',(-1.,0.,0.));
#563=DIRECTION('center_axis',(1.,0.,0.));
#564=DIRECTION('ref_axis',(0.,-0.707106781186546,-0.707106781186549));
#565=DIRECTION('',(1.,0.,0.));
#566=DIRECTION('center_axis',(0.,0.,-1.));
#567=DIRECTION('ref_axis',(0.,1.,0.));
#568=DIRECTION('',(0.,1.,0.));
#569=DIRECTION('',(0.,-1.,0.));
#570=DIRECTION('',(-1.,0.,0.));
#571=DIRECTION('',(0.,1.,0.));
#572=DIRECTION('center_axis',(-1.,0.,0.));
#573=DIRECTION('ref_axis',(0.,0.,1.));
#574=DIRECTION('',(0.,0.,-1.));
#575=DIRECTION('center_axis',(1.,0.,0.));
#576=DIRECTION('ref_axis',(0.,-0.707106781186549,0.707106781186546));
#577=DIRECTION('',(0.,-1.,0.));
#578=DIRECTION('',(0.,1.,0.));
#579=DIRECTION('center_axis',(1.,0.,0.));
#580=DIRECTION('ref_axis',(0.,0.707106781186546,0.707106781186549));
#581=DIRECTION('',(0.,0.,-1.));
#582=DIRECTION('center_axis',(1.,0.,0.));
#583=DIRECTION('ref_axis',(0.,0.707106781186546,-0.707106781186549));
#584=DIRECTION('center_axis',(1.,0.,0.));
#585=DIRECTION('ref_axis',(0.,-0.707106781186549,0.707106781186546));
#586=DIRECTION('',(-1.,0.,0.));
#587=DIRECTION('',(1.,0.,0.));
#588=DIRECTION('center_axis',(0.,0.,1.));
#589=DIRECTION('ref_axis',(0.,-1.,0.));
#590=DIRECTION('',(0.,-1.,0.));
#591=DIRECTION('',(1.,0.,0.));
#592=DIRECTION('center_axis',(1.,0.,0.));
#593=DIRECTION('ref_axis',(0.,0.707106781186546,0.707106781186549));
#594=DIRECTION('',(-1.,0.,0.));
#595=DIRECTION('center_axis',(1.,0.,0.));
#596=DIRECTION('ref_axis',(0.,0.707106781186546,-0.707106781186549));
#597=DIRECTION('',(1.,0.,0.));
#598=DIRECTION('center_axis',(0.,1.,0.));
#599=DIRECTION('ref_axis',(0.,0.,1.));
#600=DIRECTION('center_axis',(0.,-1.,0.));
#601=DIRECTION('ref_axis',(0.,0.,-1.));
#602=DIRECTION('center_axis',(1.,0.,0.));
#603=DIRECTION('ref_axis',(0.,0.,-1.));
#604=CARTESIAN_POINT('',(0.,0.,0.));
#605=CARTESIAN_POINT('Origin',(1.5,87.0999999999997,-1.34999999999999));
#606=CARTESIAN_POINT('',(0.,87.0999999999997,-2.7));
#607=CARTESIAN_POINT('',(3.,87.0999999999997,-2.7));
#608=CARTESIAN_POINT('Origin',(1.5,87.0999999999997,-2.7));
#609=CARTESIAN_POINT('',(3.,87.0999999999997,2.7));
#610=CARTESIAN_POINT('',(3.,87.0999999999997,-1.34999999999999));
#611=CARTESIAN_POINT('',(0.,87.0999999999997,2.7));
#612=CARTESIAN_POINT('Origin',(1.5,87.0999999999997,2.7));
#613=CARTESIAN_POINT('',(0.,87.0999999999997,-1.34999999999999));
#614=CARTESIAN_POINT('Origin',(3.,93.5999999999997,3.5));
#615=CARTESIAN_POINT('',(3.,93.5999999999997,-3.5));
#616=CARTESIAN_POINT('',(3.,93.5999999999997,3.5));
#617=CARTESIAN_POINT('',(3.,93.5999999999997,1.75000000000001));
#618=CARTESIAN_POINT('',(3.4,93.5999999999997,-3.5));
#619=CARTESIAN_POINT('',(3.,93.5999999999997,-3.5));
#620=CARTESIAN_POINT('',(3.4,93.5999999999997,3.5));
#621=CARTESIAN_POINT('',(3.4,93.5999999999997,-3.5));
#622=CARTESIAN_POINT('',(3.,93.5999999999997,3.5));
#623=CARTESIAN_POINT('Origin',(3.4,97.0499999999997,0.));
#624=CARTESIAN_POINT('',(3.4,98.4999999999997,-3.5));
#625=CARTESIAN_POINT('',(3.4,96.9999999999997,-3.5));
#626=CARTESIAN_POINT('',(3.4,100.5,-1.5));
#627=CARTESIAN_POINT('Origin',(3.4,98.4999999999997,-1.5));
#628=CARTESIAN_POINT('',(3.4,100.5,1.5));
#629=CARTESIAN_POINT('',(3.4,100.5,-1.5));
#630=CARTESIAN_POINT('',(3.4,98.4999999999997,3.5));
#631=CARTESIAN_POINT('Origin',(3.4,98.4999999999997,1.5));
#632=CARTESIAN_POINT('',(3.4,98.4999999999997,3.5));
#633=CARTESIAN_POINT('',(3.4,98.1999999999997,-1.45923579301323E-16));
#634=CARTESIAN_POINT('Origin',(3.4,96.9999999999997,1.03403659635905E-18));
#635=CARTESIAN_POINT('Origin',(3.4,80.7499999999997,2.27595720048157E-14));
#636=CARTESIAN_POINT('',(3.4,83.9999999999997,3.5));
#637=CARTESIAN_POINT('',(3.4,79.4999999999997,3.5));
#638=CARTESIAN_POINT('',(3.4,97.0000051265409,3.5));
#639=CARTESIAN_POINT('',(3.4,77.4999999999997,1.5));
#640=CARTESIAN_POINT('Origin',(3.4,79.4999999999997,1.49999999999999));
#641=CARTESIAN_POINT('',(3.4,77.4999999999997,-1.5));
#642=CARTESIAN_POINT('',(3.4,77.4999999999997,1.5));
#643=CARTESIAN_POINT('',(3.4,79.4999999999997,-3.5));
#644=CARTESIAN_POINT('Origin',(3.4,79.4999999999997,-1.49999999999999));
#645=CARTESIAN_POINT('',(3.4,83.9999999999997,-3.5));
#646=CARTESIAN_POINT('',(3.4,79.4999999999997,-3.5));
#647=CARTESIAN_POINT('',(3.4,83.9999999999997,3.50000000000005));
#648=CARTESIAN_POINT('',(3.4,82.1999999999997,-2.44929359829469E-17));
#649=CARTESIAN_POINT('Origin',(3.4,80.9999999999997,1.22464679914736E-16));
#650=CARTESIAN_POINT('Origin',(0.662132034355964,96.9999999999997,1.03403659635905E-18));
#651=CARTESIAN_POINT('',(0.,99.4242640687116,2.97920759799959E-16));
#652=CARTESIAN_POINT('Origin',(0.,96.9999999999997,1.03403659635905E-18));
#653=CARTESIAN_POINT('',(1.22426406871193,98.1999999999997,-1.45923579301323E-16));
#654=CARTESIAN_POINT('',(0.662132034355964,98.7621320343557,2.16832972151264E-16));
#655=CARTESIAN_POINT('Origin',(1.22426406871193,96.9999999999997,1.03403659635905E-18));
#656=CARTESIAN_POINT('Origin',(3.25,96.9999999999997,1.03403659635905E-18));
#657=CARTESIAN_POINT('',(3.25,98.1999999999997,1.47991652494041E-16));
#658=CARTESIAN_POINT('Origin',(0.662132034355964,80.9999999999997,1.22464679914736E-16));
#659=CARTESIAN_POINT('',(0.,83.4242640687116,4.19351403118336E-16));
#660=CARTESIAN_POINT('Origin',(0.,80.9999999999997,1.22464679914736E-16));
#661=CARTESIAN_POINT('',(1.22426406871193,82.1999999999997,-2.44929359829469E-17));
#662=CARTESIAN_POINT('',(0.662132034355964,82.7621320343556,3.3826361546964E-16));
#663=CARTESIAN_POINT('Origin',(1.22426406871193,80.9999999999997,1.22464679914736E-16));
#664=CARTESIAN_POINT('Origin',(3.25,80.9999999999997,1.22464679914736E-16));
#665=CARTESIAN_POINT('',(3.25,82.1999999999997,2.69422295812418E-16));
#666=CARTESIAN_POINT('Origin',(0.,83.9999999999997,-2.7));
#667=CARTESIAN_POINT('',(3.,83.9999999999997,-2.7));
#668=CARTESIAN_POINT('',(3.,41.9999999999997,-2.7));
#669=CARTESIAN_POINT('',(0.,83.9999999999997,-2.7));
#670=CARTESIAN_POINT('',(0.,41.9999999999997,-2.7));
#671=CARTESIAN_POINT('',(0.,83.9999999999997,-2.7));
#672=CARTESIAN_POINT('Origin',(0.,83.9999999999997,2.7));
#673=CARTESIAN_POINT('',(0.,83.9999999999997,2.7));
#674=CARTESIAN_POINT('',(0.,83.9999999999997,1.35000000000001));
#675=CARTESIAN_POINT('',(3.,83.9999999999997,2.7));
#676=CARTESIAN_POINT('',(0.,83.9999999999997,2.7));
#677=CARTESIAN_POINT('',(3.,83.9999999999997,3.5));
#678=CARTESIAN_POINT('',(3.,83.9999999999997,-1.74999999999999));
#679=CARTESIAN_POINT('',(3.,83.9999999999997,3.5));
#680=CARTESIAN_POINT('',(3.,83.9999999999997,-3.5));
#681=CARTESIAN_POINT('',(3.,83.9999999999997,-3.5));
#682=CARTESIAN_POINT('',(3.,83.9999999999997,-1.74999999999999));
#683=CARTESIAN_POINT('Origin',(0.,85.5999999999997,2.7));
#684=CARTESIAN_POINT('',(3.,42.7999999999997,2.7));
#685=CARTESIAN_POINT('',(0.,42.7999999999997,2.7));
#686=CARTESIAN_POINT('Origin',(0.,79.4999999999997,-1.5));
#687=CARTESIAN_POINT('',(0.,77.4999999999997,-1.5));
#688=CARTESIAN_POINT('',(0.,77.4999999999997,-1.5));
#689=CARTESIAN_POINT('',(0.,79.4999999999997,-3.5));
#690=CARTESIAN_POINT('Origin',(0.,79.4999999999997,-1.5));
#691=CARTESIAN_POINT('',(0.,79.4999999999997,-3.5));
#692=CARTESIAN_POINT('Origin',(0.,77.4999999999997,-3.5));
#693=CARTESIAN_POINT('',(0.,97.0000051265409,-3.5));
#694=CARTESIAN_POINT('',(0.,77.4999999999997,-3.5));
#695=CARTESIAN_POINT('',(0.,98.4999999999997,-3.5));
#696=CARTESIAN_POINT('',(0.,100.5,-3.5));
#697=CARTESIAN_POINT('',(0.,98.4999999999997,-3.5));
#698=CARTESIAN_POINT('',(3.,77.4999999999997,-3.5));
#699=CARTESIAN_POINT('Origin',(0.,-3.19744231092045E-13,2.66453525910038E-14));
#700=CARTESIAN_POINT('',(0.,77.4999999999997,1.5));
#701=CARTESIAN_POINT('',(0.,77.4999999999997,3.5));
#702=CARTESIAN_POINT('',(0.,79.4999999999997,3.5));
#703=CARTESIAN_POINT('Origin',(0.,79.4999999999997,1.5));
#704=CARTESIAN_POINT('',(0.,97.0000051265409,3.5));
#705=CARTESIAN_POINT('',(0.,96.9999999999997,3.5));
#706=CARTESIAN_POINT('',(0.,98.4999999999997,3.5));
#707=CARTESIAN_POINT('',(0.,97.0000051265409,3.5));
#708=CARTESIAN_POINT('',(0.,100.5,1.5));
#709=CARTESIAN_POINT('Origin',(0.,98.4999999999997,1.5));
#710=CARTESIAN_POINT('',(0.,100.5,-1.5));
#711=CARTESIAN_POINT('',(0.,100.5,3.5));
#712=CARTESIAN_POINT('Origin',(0.,98.4999999999997,-1.5));
#713=CARTESIAN_POINT('Origin',(0.,79.4999999999997,1.5));
#714=CARTESIAN_POINT('',(0.,79.4999999999997,3.5));
#715=CARTESIAN_POINT('',(0.,77.4999999999997,1.5));
#716=CARTESIAN_POINT('Origin',(0.,100.5,3.5));
#717=CARTESIAN_POINT('',(3.,96.9999999999997,3.5));
#718=CARTESIAN_POINT('',(0.,98.4999999999997,3.5));
#719=CARTESIAN_POINT('Origin',(0.,98.4999999999997,1.5));
#720=CARTESIAN_POINT('',(0.,100.5,1.5));
#721=CARTESIAN_POINT('Origin',(0.,98.4999999999997,-1.5));
#722=CARTESIAN_POINT('',(0.,100.5,-1.5));
#723=CARTESIAN_POINT('Origin',(0.,100.5,-3.5));
#724=CARTESIAN_POINT('Origin',(0.,77.4999999999997,3.5));
#725=CARTESIAN_POINT('Origin',(3.,-3.19744231092045E-13,2.66453525910038E-14));
#726=UNCERTAINTY_MEASURE_WITH_UNIT(LENGTH_MEASURE(0.01),#730,
'DISTANCE_ACCURACY_VALUE',
'Maximum model space distance between geometric entities at asserted c
onnectivities');
#727=UNCERTAINTY_MEASURE_WITH_UNIT(LENGTH_MEASURE(0.01),#730,
'DISTANCE_ACCURACY_VALUE',
'Maximum model space distance between geometric entities at asserted c
onnectivities');
#728=(
GEOMETRIC_REPRESENTATION_CONTEXT(3)
GLOBAL_UNCERTAINTY_ASSIGNED_CONTEXT((#726))
GLOBAL_UNIT_ASSIGNED_CONTEXT((#730,#732,#733))
REPRESENTATION_CONTEXT('','3D')
);
#729=(
GEOMETRIC_REPRESENTATION_CONTEXT(3)
GLOBAL_UNCERTAINTY_ASSIGNED_CONTEXT((#727))
GLOBAL_UNIT_ASSIGNED_CONTEXT((#730,#732,#733))
REPRESENTATION_CONTEXT('','3D')
);
#730=(
LENGTH_UNIT()
NAMED_UNIT(*)
SI_UNIT(.MILLI.,.METRE.)
);
#731=(
LENGTH_UNIT()
NAMED_UNIT(*)
SI_UNIT($,.METRE.)
);
#732=(
NAMED_UNIT(*)
PLANE_ANGLE_UNIT()
SI_UNIT($,.RADIAN.)
);
#733=(
NAMED_UNIT(*)
SI_UNIT($,.STERADIAN.)
SOLID_ANGLE_UNIT()
);
#734=SHAPE_DEFINITION_REPRESENTATION(#735,#736);
#735=PRODUCT_DEFINITION_SHAPE('',$,#738);
#736=SHAPE_REPRESENTATION('',(#446),#728);
#737=PRODUCT_DEFINITION_CONTEXT('part definition',#742,'design');
#738=PRODUCT_DEFINITION('2026-08-29-11-09-36-784','(Unsaved)',#739,#737);
#739=PRODUCT_DEFINITION_FORMATION('',$,#744);
#740=PRODUCT_RELATED_PRODUCT_CATEGORY('(Unsaved)','(Unsaved)',(#744));
#741=APPLICATION_PROTOCOL_DEFINITION('international standard',
'automotive_design',2009,#742);
#742=APPLICATION_CONTEXT(
'Core Data for Automotive Mechanical Design Process');
#743=PRODUCT_CONTEXT('part definition',#742,'mechanical');
#744=PRODUCT('2026-08-29-11-09-36-784','(Unsaved)',$,(#743));
#745=PRESENTATION_STYLE_ASSIGNMENT((#746));
#746=SURFACE_STYLE_USAGE(.BOTH.,#747);
#747=SURFACE_SIDE_STYLE('',(#748));
#748=SURFACE_STYLE_FILL_AREA(#749);
#749=FILL_AREA_STYLE('Steel - Satin',(#750));
#750=FILL_AREA_STYLE_COLOUR('Steel - Satin',#751);
#751=COLOUR_RGB('Steel - Satin',0.627450980392157,0.627450980392157,0.627450980392157);
ENDSEC;
END-ISO-10303-21;
