ISO-10303-21;
HEADER;
/* Generated by software containing ST-Developer
 * from STEP Tools, Inc. (www.steptools.com) 
 */

FILE_DESCRIPTION(
/* description */ (''),
/* implementation_level */ '2;1');

FILE_NAME(
/* name */ 'freestanding-base-bracket-cover_v1.1.otl-export-tmp.step',
/* time_stamp */ '2026-09-16T11:41:31-05:00',
/* author */ (''),
/* organization */ (''),
/* preprocessor_version */ 'ST-DEVELOPER v20.2',
/* originating_system */ 'Autodesk Translation Framework v15.15.0.0',
/* authorisation */ '');

FILE_SCHEMA (('AUTOMOTIVE_DESIGN { 1 0 10303 214 3 1 1 }'));
ENDSEC;

DATA;
#10=MECHANICAL_DESIGN_GEOMETRIC_PRESENTATION_REPRESENTATION('',(#13),#1891);
#11=SHAPE_REPRESENTATION_RELATIONSHIP('SRR','None',#1898,#12);
#12=ADVANCED_BREP_SHAPE_REPRESENTATION('',(#14),#1890);
#13=STYLED_ITEM('',(#1907),#14);
#14=MANIFOLD_SOLID_BREP('Body1',#1162);
#15=FACE_BOUND('',#154,.T.);
#16=FACE_BOUND('',#155,.T.);
#17=FACE_BOUND('',#158,.T.);
#18=CYLINDRICAL_SURFACE('',#1185,0.600000000000001);
#19=CYLINDRICAL_SURFACE('',#1206,0.600000000000001);
#20=CYLINDRICAL_SURFACE('',#1213,0.600000000000002);
#21=CYLINDRICAL_SURFACE('',#1226,0.600000000000001);
#22=CYLINDRICAL_SURFACE('',#1233,2.325);
#23=CYLINDRICAL_SURFACE('',#1252,32.5);
#24=CIRCLE('',#1179,1.6);
#25=CIRCLE('',#1180,0.600000000000001);
#26=CIRCLE('',#1186,0.600000000000001);
#27=CIRCLE('',#1197,1.6);
#28=CIRCLE('',#1198,0.600000000000002);
#29=CIRCLE('',#1201,1.6);
#30=CIRCLE('',#1202,0.600000000000001);
#31=CIRCLE('',#1207,0.600000000000001);
#32=CIRCLE('',#1214,0.600000000000002);
#33=CIRCLE('',#1219,1.6);
#34=CIRCLE('',#1220,0.600000000000001);
#35=CIRCLE('',#1227,0.600000000000001);
#36=CIRCLE('',#1231,2.925);
#37=CIRCLE('',#1232,2.325);
#38=CIRCLE('',#1234,2.325);
#39=CIRCLE('',#1236,32.5);
#40=CIRCLE('',#1239,32.5);
#41=CONICAL_SURFACE('',#1178,1.1,0.785398163397447);
#42=CONICAL_SURFACE('',#1196,1.1,0.785398163397449);
#43=CONICAL_SURFACE('',#1200,1.1,0.785398163397447);
#44=CONICAL_SURFACE('',#1218,1.1,0.785398163397447);
#45=CONICAL_SURFACE('',#1230,2.625,0.785398163397448);
#46=FACE_OUTER_BOUND('',#109,.T.);
#47=FACE_OUTER_BOUND('',#110,.T.);
#48=FACE_OUTER_BOUND('',#111,.T.);
#49=FACE_OUTER_BOUND('',#112,.T.);
#50=FACE_OUTER_BOUND('',#113,.T.);
#51=FACE_OUTER_BOUND('',#114,.T.);
#52=FACE_OUTER_BOUND('',#115,.T.);
#53=FACE_OUTER_BOUND('',#116,.T.);
#54=FACE_OUTER_BOUND('',#117,.T.);
#55=FACE_OUTER_BOUND('',#118,.T.);
#56=FACE_OUTER_BOUND('',#119,.T.);
#57=FACE_OUTER_BOUND('',#120,.T.);
#58=FACE_OUTER_BOUND('',#121,.T.);
#59=FACE_OUTER_BOUND('',#122,.T.);
#60=FACE_OUTER_BOUND('',#123,.T.);
#61=FACE_OUTER_BOUND('',#124,.T.);
#62=FACE_OUTER_BOUND('',#125,.T.);
#63=FACE_OUTER_BOUND('',#126,.T.);
#64=FACE_OUTER_BOUND('',#127,.T.);
#65=FACE_OUTER_BOUND('',#128,.T.);
#66=FACE_OUTER_BOUND('',#129,.T.);
#67=FACE_OUTER_BOUND('',#130,.T.);
#68=FACE_OUTER_BOUND('',#131,.T.);
#69=FACE_OUTER_BOUND('',#132,.T.);
#70=FACE_OUTER_BOUND('',#133,.T.);
#71=FACE_OUTER_BOUND('',#134,.T.);
#72=FACE_OUTER_BOUND('',#135,.T.);
#73=FACE_OUTER_BOUND('',#136,.T.);
#74=FACE_OUTER_BOUND('',#137,.T.);
#75=FACE_OUTER_BOUND('',#138,.T.);
#76=FACE_OUTER_BOUND('',#139,.T.);
#77=FACE_OUTER_BOUND('',#140,.T.);
#78=FACE_OUTER_BOUND('',#141,.T.);
#79=FACE_OUTER_BOUND('',#142,.T.);
#80=FACE_OUTER_BOUND('',#143,.T.);
#81=FACE_OUTER_BOUND('',#144,.T.);
#82=FACE_OUTER_BOUND('',#145,.T.);
#83=FACE_OUTER_BOUND('',#146,.T.);
#84=FACE_OUTER_BOUND('',#147,.T.);
#85=FACE_OUTER_BOUND('',#148,.T.);
#86=FACE_OUTER_BOUND('',#149,.T.);
#87=FACE_OUTER_BOUND('',#150,.T.);
#88=FACE_OUTER_BOUND('',#151,.T.);
#89=FACE_OUTER_BOUND('',#152,.T.);
#90=FACE_OUTER_BOUND('',#153,.T.);
#91=FACE_OUTER_BOUND('',#156,.T.);
#92=FACE_OUTER_BOUND('',#157,.T.);
#93=FACE_OUTER_BOUND('',#159,.T.);
#94=FACE_OUTER_BOUND('',#160,.T.);
#95=FACE_OUTER_BOUND('',#161,.T.);
#96=FACE_OUTER_BOUND('',#162,.T.);
#97=FACE_OUTER_BOUND('',#163,.T.);
#98=FACE_OUTER_BOUND('',#164,.T.);
#99=FACE_OUTER_BOUND('',#165,.T.);
#100=FACE_OUTER_BOUND('',#166,.T.);
#101=FACE_OUTER_BOUND('',#167,.T.);
#102=FACE_OUTER_BOUND('',#168,.T.);
#103=FACE_OUTER_BOUND('',#169,.T.);
#104=FACE_OUTER_BOUND('',#170,.T.);
#105=FACE_OUTER_BOUND('',#171,.T.);
#106=FACE_OUTER_BOUND('',#172,.T.);
#107=FACE_OUTER_BOUND('',#173,.T.);
#108=FACE_OUTER_BOUND('',#174,.T.);
#109=EDGE_LOOP('',(#725,#726,#727,#728));
#110=EDGE_LOOP('',(#729,#730,#731,#732));
#111=EDGE_LOOP('',(#733,#734,#735,#736));
#112=EDGE_LOOP('',(#737,#738,#739,#740));
#113=EDGE_LOOP('',(#741,#742,#743,#744));
#114=EDGE_LOOP('',(#745,#746,#747,#748));
#115=EDGE_LOOP('',(#749,#750,#751,#752,#753,#754));
#116=EDGE_LOOP('',(#755,#756,#757,#758));
#117=EDGE_LOOP('',(#759,#760,#761,#762,#763,#764));
#118=EDGE_LOOP('',(#765,#766,#767,#768));
#119=EDGE_LOOP('',(#769,#770,#771,#772));
#120=EDGE_LOOP('',(#773,#774,#775,#776));
#121=EDGE_LOOP('',(#777,#778,#779,#780));
#122=EDGE_LOOP('',(#781,#782,#783,#784));
#123=EDGE_LOOP('',(#785,#786,#787,#788));
#124=EDGE_LOOP('',(#789,#790,#791,#792));
#125=EDGE_LOOP('',(#793,#794,#795,#796));
#126=EDGE_LOOP('',(#797,#798,#799,#800));
#127=EDGE_LOOP('',(#801,#802,#803,#804));
#128=EDGE_LOOP('',(#805,#806,#807,#808));
#129=EDGE_LOOP('',(#809,#810,#811,#812));
#130=EDGE_LOOP('',(#813,#814,#815,#816));
#131=EDGE_LOOP('',(#817,#818,#819,#820,#821,#822));
#132=EDGE_LOOP('',(#823,#824,#825,#826));
#133=EDGE_LOOP('',(#827,#828,#829,#830));
#134=EDGE_LOOP('',(#831,#832,#833,#834));
#135=EDGE_LOOP('',(#835,#836,#837,#838));
#136=EDGE_LOOP('',(#839,#840,#841,#842));
#137=EDGE_LOOP('',(#843,#844,#845,#846));
#138=EDGE_LOOP('',(#847,#848,#849,#850));
#139=EDGE_LOOP('',(#851,#852,#853,#854,#855,#856));
#140=EDGE_LOOP('',(#857,#858,#859,#860));
#141=EDGE_LOOP('',(#861,#862,#863,#864));
#142=EDGE_LOOP('',(#865,#866,#867,#868));
#143=EDGE_LOOP('',(#869,#870,#871,#872));
#144=EDGE_LOOP('',(#873,#874,#875,#876));
#145=EDGE_LOOP('',(#877,#878,#879,#880));
#146=EDGE_LOOP('',(#881,#882,#883,#884));
#147=EDGE_LOOP('',(#885,#886,#887,#888,#889,#890));
#148=EDGE_LOOP('',(#891,#892,#893,#894));
#149=EDGE_LOOP('',(#895,#896,#897,#898,#899,#900));
#150=EDGE_LOOP('',(#901,#902,#903,#904));
#151=EDGE_LOOP('',(#905,#906,#907,#908));
#152=EDGE_LOOP('',(#909,#910,#911,#912));
#153=EDGE_LOOP('',(#913));
#154=EDGE_LOOP('',(#914,#915,#916,#917,#918,#919,#920,#921,#922,#923,#924,
#925,#926,#927,#928,#929,#930,#931,#932,#933,#934,#935,#936,#937));
#155=EDGE_LOOP('',(#938));
#156=EDGE_LOOP('',(#939));
#157=EDGE_LOOP('',(#940));
#158=EDGE_LOOP('',(#941,#942,#943,#944,#945,#946,#947,#948,#949,#950,#951,
#952,#953,#954,#955,#956,#957,#958,#959,#960,#961,#962,#963,#964));
#159=EDGE_LOOP('',(#965,#966,#967,#968,#969,#970,#971,#972));
#160=EDGE_LOOP('',(#973,#974,#975,#976,#977,#978));
#161=EDGE_LOOP('',(#979,#980,#981,#982));
#162=EDGE_LOOP('',(#983,#984,#985,#986));
#163=EDGE_LOOP('',(#987,#988,#989,#990,#991,#992,#993,#994));
#164=EDGE_LOOP('',(#995,#996,#997,#998,#999,#1000));
#165=EDGE_LOOP('',(#1001,#1002,#1003,#1004));
#166=EDGE_LOOP('',(#1005,#1006,#1007,#1008));
#167=EDGE_LOOP('',(#1009,#1010,#1011,#1012));
#168=EDGE_LOOP('',(#1013,#1014,#1015,#1016,#1017,#1018));
#169=EDGE_LOOP('',(#1019,#1020,#1021,#1022,#1023,#1024,#1025,#1026));
#170=EDGE_LOOP('',(#1027,#1028,#1029,#1030));
#171=EDGE_LOOP('',(#1031,#1032,#1033,#1034));
#172=EDGE_LOOP('',(#1035,#1036,#1037,#1038));
#173=EDGE_LOOP('',(#1039,#1040,#1041,#1042));
#174=EDGE_LOOP('',(#1043,#1044,#1045,#1046));
#175=LINE('',#1566,#319);
#176=LINE('',#1568,#320);
#177=LINE('',#1570,#321);
#178=LINE('',#1571,#322);
#179=LINE('',#1575,#323);
#180=LINE('',#1577,#324);
#181=LINE('',#1579,#325);
#182=LINE('',#1580,#326);
#183=LINE('',#1584,#327);
#184=LINE('',#1588,#328);
#185=LINE('',#1589,#329);
#186=LINE('',#1592,#330);
#187=LINE('',#1594,#331);
#188=LINE('',#1595,#332);
#189=LINE('',#1598,#333);
#190=LINE('',#1600,#334);
#191=LINE('',#1601,#335);
#192=LINE('',#1604,#336);
#193=LINE('',#1606,#337);
#194=LINE('',#1608,#338);
#195=LINE('',#1609,#339);
#196=LINE('',#1612,#340);
#197=LINE('',#1616,#341);
#198=LINE('',#1618,#342);
#199=LINE('',#1620,#343);
#200=LINE('',#1621,#344);
#201=LINE('',#1624,#345);
#202=LINE('',#1625,#346);
#203=LINE('',#1629,#347);
#204=LINE('',#1631,#348);
#205=LINE('',#1633,#349);
#206=LINE('',#1634,#350);
#207=LINE('',#1638,#351);
#208=LINE('',#1640,#352);
#209=LINE('',#1642,#353);
#210=LINE('',#1643,#354);
#211=LINE('',#1646,#355);
#212=LINE('',#1648,#356);
#213=LINE('',#1649,#357);
#214=LINE('',#1652,#358);
#215=LINE('',#1654,#359);
#216=LINE('',#1655,#360);
#217=LINE('',#1658,#361);
#218=LINE('',#1660,#362);
#219=LINE('',#1661,#363);
#220=LINE('',#1665,#364);
#221=LINE('',#1667,#365);
#222=LINE('',#1669,#366);
#223=LINE('',#1670,#367);
#224=LINE('',#1673,#368);
#225=LINE('',#1675,#369);
#226=LINE('',#1676,#370);
#227=LINE('',#1680,#371);
#228=LINE('',#1684,#372);
#229=LINE('',#1685,#373);
#230=LINE('',#1689,#374);
#231=LINE('',#1693,#375);
#232=LINE('',#1694,#376);
#233=LINE('',#1697,#377);
#234=LINE('',#1699,#378);
#235=LINE('',#1700,#379);
#236=LINE('',#1703,#380);
#237=LINE('',#1705,#381);
#238=LINE('',#1707,#382);
#239=LINE('',#1708,#383);
#240=LINE('',#1711,#384);
#241=LINE('',#1715,#385);
#242=LINE('',#1716,#386);
#243=LINE('',#1719,#387);
#244=LINE('',#1720,#388);
#245=LINE('',#1723,#389);
#246=LINE('',#1724,#390);
#247=LINE('',#1727,#391);
#248=LINE('',#1728,#392);
#249=LINE('',#1731,#393);
#250=LINE('',#1732,#394);
#251=LINE('',#1735,#395);
#252=LINE('',#1739,#396);
#253=LINE('',#1741,#397);
#254=LINE('',#1743,#398);
#255=LINE('',#1744,#399);
#256=LINE('',#1747,#400);
#257=LINE('',#1748,#401);
#258=LINE('',#1752,#402);
#259=LINE('',#1754,#403);
#260=LINE('',#1756,#404);
#261=LINE('',#1757,#405);
#262=LINE('',#1761,#406);
#263=LINE('',#1766,#407);
#264=LINE('',#1768,#408);
#265=LINE('',#1769,#409);
#266=LINE('',#1772,#410);
#267=LINE('',#1774,#411);
#268=LINE('',#1775,#412);
#269=LINE('',#1778,#413);
#270=LINE('',#1780,#414);
#271=LINE('',#1781,#415);
#272=LINE('',#1784,#416);
#273=LINE('',#1786,#417);
#274=LINE('',#1787,#418);
#275=LINE('',#1790,#419);
#276=LINE('',#1792,#420);
#277=LINE('',#1794,#421);
#278=LINE('',#1795,#422);
#279=LINE('',#1798,#423);
#280=LINE('',#1802,#424);
#281=LINE('',#1804,#425);
#282=LINE('',#1806,#426);
#283=LINE('',#1807,#427);
#284=LINE('',#1810,#428);
#285=LINE('',#1811,#429);
#286=LINE('',#1816,#430);
#287=LINE('',#1820,#431);
#288=LINE('',#1825,#432);
#289=LINE('',#1826,#433);
#290=LINE('',#1827,#434);
#291=LINE('',#1833,#435);
#292=LINE('',#1835,#436);
#293=LINE('',#1836,#437);
#294=LINE('',#1838,#438);
#295=LINE('',#1840,#439);
#296=LINE('',#1841,#440);
#297=LINE('',#1843,#441);
#298=LINE('',#1845,#442);
#299=LINE('',#1846,#443);
#300=LINE('',#1848,#444);
#301=LINE('',#1850,#445);
#302=LINE('',#1852,#446);
#303=LINE('',#1853,#447);
#304=LINE('',#1856,#448);
#305=LINE('',#1858,#449);
#306=LINE('',#1860,#450);
#307=LINE('',#1862,#451);
#308=LINE('',#1864,#452);
#309=LINE('',#1865,#453);
#310=LINE('',#1869,#454);
#311=LINE('',#1871,#455);
#312=LINE('',#1873,#456);
#313=LINE('',#1876,#457);
#314=LINE('',#1878,#458);
#315=LINE('',#1879,#459);
#316=LINE('',#1882,#460);
#317=LINE('',#1884,#461);
#318=LINE('',#1886,#462);
#319=VECTOR('',#1260,10.);
#320=VECTOR('',#1261,10.);
#321=VECTOR('',#1262,10.);
#322=VECTOR('',#1263,10.);
#323=VECTOR('',#1266,10.);
#324=VECTOR('',#1267,10.);
#325=VECTOR('',#1268,10.);
#326=VECTOR('',#1269,10.);
#327=VECTOR('',#1272,10.);
#328=VECTOR('',#1279,10.);
#329=VECTOR('',#1280,10.);
#330=VECTOR('',#1283,10.);
#331=VECTOR('',#1284,10.);
#332=VECTOR('',#1285,10.);
#333=VECTOR('',#1288,10.);
#334=VECTOR('',#1289,10.);
#335=VECTOR('',#1290,10.);
#336=VECTOR('',#1293,10.);
#337=VECTOR('',#1294,10.);
#338=VECTOR('',#1295,10.);
#339=VECTOR('',#1296,10.);
#340=VECTOR('',#1299,10.);
#341=VECTOR('',#1304,10.);
#342=VECTOR('',#1305,10.);
#343=VECTOR('',#1306,10.);
#344=VECTOR('',#1307,10.);
#345=VECTOR('',#1310,10.);
#346=VECTOR('',#1311,10.);
#347=VECTOR('',#1314,10.);
#348=VECTOR('',#1315,10.);
#349=VECTOR('',#1316,10.);
#350=VECTOR('',#1317,10.);
#351=VECTOR('',#1320,10.);
#352=VECTOR('',#1321,10.);
#353=VECTOR('',#1322,10.);
#354=VECTOR('',#1323,10.);
#355=VECTOR('',#1326,10.);
#356=VECTOR('',#1327,10.);
#357=VECTOR('',#1328,10.);
#358=VECTOR('',#1331,10.);
#359=VECTOR('',#1332,10.);
#360=VECTOR('',#1333,10.);
#361=VECTOR('',#1336,10.);
#362=VECTOR('',#1337,10.);
#363=VECTOR('',#1338,10.);
#364=VECTOR('',#1341,10.);
#365=VECTOR('',#1342,10.);
#366=VECTOR('',#1343,10.);
#367=VECTOR('',#1344,10.);
#368=VECTOR('',#1347,10.);
#369=VECTOR('',#1348,10.);
#370=VECTOR('',#1349,10.);
#371=VECTOR('',#1352,10.);
#372=VECTOR('',#1359,10.);
#373=VECTOR('',#1360,10.);
#374=VECTOR('',#1363,10.);
#375=VECTOR('',#1370,10.);
#376=VECTOR('',#1371,10.);
#377=VECTOR('',#1374,10.);
#378=VECTOR('',#1375,10.);
#379=VECTOR('',#1376,10.);
#380=VECTOR('',#1379,10.);
#381=VECTOR('',#1380,10.);
#382=VECTOR('',#1381,10.);
#383=VECTOR('',#1382,10.);
#384=VECTOR('',#1385,10.);
#385=VECTOR('',#1390,10.);
#386=VECTOR('',#1391,10.);
#387=VECTOR('',#1394,10.);
#388=VECTOR('',#1395,10.);
#389=VECTOR('',#1398,10.);
#390=VECTOR('',#1399,10.);
#391=VECTOR('',#1402,10.);
#392=VECTOR('',#1403,10.);
#393=VECTOR('',#1406,10.);
#394=VECTOR('',#1407,10.);
#395=VECTOR('',#1410,10.);
#396=VECTOR('',#1415,10.);
#397=VECTOR('',#1416,10.);
#398=VECTOR('',#1417,10.);
#399=VECTOR('',#1418,10.);
#400=VECTOR('',#1421,10.);
#401=VECTOR('',#1422,10.);
#402=VECTOR('',#1425,10.);
#403=VECTOR('',#1426,10.);
#404=VECTOR('',#1427,10.);
#405=VECTOR('',#1428,10.);
#406=VECTOR('',#1431,10.);
#407=VECTOR('',#1438,10.);
#408=VECTOR('',#1439,10.);
#409=VECTOR('',#1440,10.);
#410=VECTOR('',#1443,10.);
#411=VECTOR('',#1444,10.);
#412=VECTOR('',#1445,10.);
#413=VECTOR('',#1448,10.);
#414=VECTOR('',#1449,10.);
#415=VECTOR('',#1450,10.);
#416=VECTOR('',#1453,10.);
#417=VECTOR('',#1454,10.);
#418=VECTOR('',#1455,10.);
#419=VECTOR('',#1458,10.);
#420=VECTOR('',#1459,10.);
#421=VECTOR('',#1460,10.);
#422=VECTOR('',#1461,10.);
#423=VECTOR('',#1464,10.);
#424=VECTOR('',#1469,10.);
#425=VECTOR('',#1470,10.);
#426=VECTOR('',#1471,10.);
#427=VECTOR('',#1472,10.);
#428=VECTOR('',#1475,10.);
#429=VECTOR('',#1476,10.);
#430=VECTOR('',#1481,2.625);
#431=VECTOR('',#1486,2.325);
#432=VECTOR('',#1493,10.);
#433=VECTOR('',#1494,10.);
#434=VECTOR('',#1495,10.);
#435=VECTOR('',#1502,10.);
#436=VECTOR('',#1503,10.);
#437=VECTOR('',#1504,10.);
#438=VECTOR('',#1505,10.);
#439=VECTOR('',#1506,10.);
#440=VECTOR('',#1507,10.);
#441=VECTOR('',#1508,10.);
#442=VECTOR('',#1509,10.);
#443=VECTOR('',#1510,10.);
#444=VECTOR('',#1513,10.);
#445=VECTOR('',#1514,10.);
#446=VECTOR('',#1515,10.);
#447=VECTOR('',#1516,10.);
#448=VECTOR('',#1521,10.);
#449=VECTOR('',#1524,10.);
#450=VECTOR('',#1527,10.);
#451=VECTOR('',#1528,10.);
#452=VECTOR('',#1529,10.);
#453=VECTOR('',#1530,10.);
#454=VECTOR('',#1537,10.);
#455=VECTOR('',#1540,10.);
#456=VECTOR('',#1543,10.);
#457=VECTOR('',#1546,10.);
#458=VECTOR('',#1547,10.);
#459=VECTOR('',#1548,10.);
#460=VECTOR('',#1553,32.5);
#461=VECTOR('',#1556,10.);
#462=VECTOR('',#1559,10.);
#463=VERTEX_POINT('',#1564);
#464=VERTEX_POINT('',#1565);
#465=VERTEX_POINT('',#1567);
#466=VERTEX_POINT('',#1569);
#467=VERTEX_POINT('',#1573);
#468=VERTEX_POINT('',#1574);
#469=VERTEX_POINT('',#1576);
#470=VERTEX_POINT('',#1578);
#471=VERTEX_POINT('',#1582);
#472=VERTEX_POINT('',#1583);
#473=VERTEX_POINT('',#1591);
#474=VERTEX_POINT('',#1593);
#475=VERTEX_POINT('',#1597);
#476=VERTEX_POINT('',#1599);
#477=VERTEX_POINT('',#1603);
#478=VERTEX_POINT('',#1605);
#479=VERTEX_POINT('',#1607);
#480=VERTEX_POINT('',#1611);
#481=VERTEX_POINT('',#1615);
#482=VERTEX_POINT('',#1617);
#483=VERTEX_POINT('',#1619);
#484=VERTEX_POINT('',#1623);
#485=VERTEX_POINT('',#1627);
#486=VERTEX_POINT('',#1628);
#487=VERTEX_POINT('',#1630);
#488=VERTEX_POINT('',#1632);
#489=VERTEX_POINT('',#1636);
#490=VERTEX_POINT('',#1637);
#491=VERTEX_POINT('',#1639);
#492=VERTEX_POINT('',#1641);
#493=VERTEX_POINT('',#1645);
#494=VERTEX_POINT('',#1647);
#495=VERTEX_POINT('',#1651);
#496=VERTEX_POINT('',#1653);
#497=VERTEX_POINT('',#1657);
#498=VERTEX_POINT('',#1659);
#499=VERTEX_POINT('',#1663);
#500=VERTEX_POINT('',#1664);
#501=VERTEX_POINT('',#1666);
#502=VERTEX_POINT('',#1668);
#503=VERTEX_POINT('',#1672);
#504=VERTEX_POINT('',#1674);
#505=VERTEX_POINT('',#1678);
#506=VERTEX_POINT('',#1679);
#507=VERTEX_POINT('',#1687);
#508=VERTEX_POINT('',#1688);
#509=VERTEX_POINT('',#1696);
#510=VERTEX_POINT('',#1698);
#511=VERTEX_POINT('',#1702);
#512=VERTEX_POINT('',#1704);
#513=VERTEX_POINT('',#1706);
#514=VERTEX_POINT('',#1710);
#515=VERTEX_POINT('',#1714);
#516=VERTEX_POINT('',#1718);
#517=VERTEX_POINT('',#1722);
#518=VERTEX_POINT('',#1726);
#519=VERTEX_POINT('',#1730);
#520=VERTEX_POINT('',#1734);
#521=VERTEX_POINT('',#1738);
#522=VERTEX_POINT('',#1740);
#523=VERTEX_POINT('',#1742);
#524=VERTEX_POINT('',#1746);
#525=VERTEX_POINT('',#1750);
#526=VERTEX_POINT('',#1751);
#527=VERTEX_POINT('',#1753);
#528=VERTEX_POINT('',#1755);
#529=VERTEX_POINT('',#1759);
#530=VERTEX_POINT('',#1760);
#531=VERTEX_POINT('',#1765);
#532=VERTEX_POINT('',#1767);
#533=VERTEX_POINT('',#1771);
#534=VERTEX_POINT('',#1773);
#535=VERTEX_POINT('',#1777);
#536=VERTEX_POINT('',#1779);
#537=VERTEX_POINT('',#1783);
#538=VERTEX_POINT('',#1785);
#539=VERTEX_POINT('',#1789);
#540=VERTEX_POINT('',#1791);
#541=VERTEX_POINT('',#1793);
#542=VERTEX_POINT('',#1797);
#543=VERTEX_POINT('',#1801);
#544=VERTEX_POINT('',#1803);
#545=VERTEX_POINT('',#1805);
#546=VERTEX_POINT('',#1809);
#547=VERTEX_POINT('',#1813);
#548=VERTEX_POINT('',#1815);
#549=VERTEX_POINT('',#1819);
#550=VERTEX_POINT('',#1823);
#551=VERTEX_POINT('',#1830);
#552=VERTEX_POINT('',#1832);
#553=VERTEX_POINT('',#1834);
#554=VERTEX_POINT('',#1837);
#555=VERTEX_POINT('',#1839);
#556=VERTEX_POINT('',#1842);
#557=VERTEX_POINT('',#1844);
#558=VERTEX_POINT('',#1849);
#559=VERTEX_POINT('',#1851);
#560=VERTEX_POINT('',#1861);
#561=VERTEX_POINT('',#1863);
#562=VERTEX_POINT('',#1875);
#563=VERTEX_POINT('',#1877);
#564=EDGE_CURVE('',#463,#464,#175,.T.);
#565=EDGE_CURVE('',#464,#465,#176,.F.);
#566=EDGE_CURVE('',#465,#466,#177,.T.);
#567=EDGE_CURVE('',#466,#463,#178,.T.);
#568=EDGE_CURVE('',#467,#468,#179,.T.);
#569=EDGE_CURVE('',#468,#469,#180,.T.);
#570=EDGE_CURVE('',#469,#470,#181,.T.);
#571=EDGE_CURVE('',#470,#467,#182,.T.);
#572=EDGE_CURVE('',#471,#472,#183,.T.);
#573=EDGE_CURVE('',#472,#469,#24,.T.);
#574=EDGE_CURVE('',#468,#471,#25,.T.);
#575=EDGE_CURVE('',#466,#472,#184,.T.);
#576=EDGE_CURVE('',#471,#463,#185,.T.);
#577=EDGE_CURVE('',#470,#473,#186,.T.);
#578=EDGE_CURVE('',#473,#474,#187,.F.);
#579=EDGE_CURVE('',#474,#467,#188,.T.);
#580=EDGE_CURVE('',#475,#463,#189,.T.);
#581=EDGE_CURVE('',#475,#476,#190,.T.);
#582=EDGE_CURVE('',#464,#476,#191,.T.);
#583=EDGE_CURVE('',#477,#471,#192,.T.);
#584=EDGE_CURVE('',#478,#477,#193,.F.);
#585=EDGE_CURVE('',#478,#479,#194,.F.);
#586=EDGE_CURVE('',#479,#475,#195,.T.);
#587=EDGE_CURVE('',#480,#468,#196,.T.);
#588=EDGE_CURVE('',#477,#480,#26,.F.);
#589=EDGE_CURVE('',#467,#481,#197,.T.);
#590=EDGE_CURVE('',#481,#482,#198,.T.);
#591=EDGE_CURVE('',#483,#482,#199,.T.);
#592=EDGE_CURVE('',#480,#483,#200,.F.);
#593=EDGE_CURVE('',#474,#484,#201,.T.);
#594=EDGE_CURVE('',#484,#481,#202,.T.);
#595=EDGE_CURVE('',#485,#486,#203,.T.);
#596=EDGE_CURVE('',#486,#487,#204,.F.);
#597=EDGE_CURVE('',#487,#488,#205,.T.);
#598=EDGE_CURVE('',#488,#485,#206,.T.);
#599=EDGE_CURVE('',#489,#490,#207,.T.);
#600=EDGE_CURVE('',#490,#491,#208,.T.);
#601=EDGE_CURVE('',#491,#492,#209,.T.);
#602=EDGE_CURVE('',#492,#489,#210,.T.);
#603=EDGE_CURVE('',#492,#493,#211,.T.);
#604=EDGE_CURVE('',#493,#494,#212,.T.);
#605=EDGE_CURVE('',#494,#489,#213,.T.);
#606=EDGE_CURVE('',#493,#495,#214,.T.);
#607=EDGE_CURVE('',#495,#496,#215,.T.);
#608=EDGE_CURVE('',#496,#494,#216,.T.);
#609=EDGE_CURVE('',#495,#497,#217,.T.);
#610=EDGE_CURVE('',#497,#498,#218,.T.);
#611=EDGE_CURVE('',#498,#496,#219,.T.);
#612=EDGE_CURVE('',#499,#500,#220,.T.);
#613=EDGE_CURVE('',#500,#501,#221,.T.);
#614=EDGE_CURVE('',#501,#502,#222,.T.);
#615=EDGE_CURVE('',#502,#499,#223,.T.);
#616=EDGE_CURVE('',#502,#503,#224,.T.);
#617=EDGE_CURVE('',#503,#504,#225,.F.);
#618=EDGE_CURVE('',#504,#499,#226,.T.);
#619=EDGE_CURVE('',#505,#506,#227,.T.);
#620=EDGE_CURVE('',#506,#501,#27,.T.);
#621=EDGE_CURVE('',#500,#505,#28,.T.);
#622=EDGE_CURVE('',#497,#506,#228,.T.);
#623=EDGE_CURVE('',#505,#498,#229,.T.);
#624=EDGE_CURVE('',#507,#508,#230,.T.);
#625=EDGE_CURVE('',#508,#491,#29,.T.);
#626=EDGE_CURVE('',#490,#507,#30,.T.);
#627=EDGE_CURVE('',#488,#508,#231,.T.);
#628=EDGE_CURVE('',#507,#485,#232,.T.);
#629=EDGE_CURVE('',#509,#485,#233,.T.);
#630=EDGE_CURVE('',#509,#510,#234,.T.);
#631=EDGE_CURVE('',#486,#510,#235,.T.);
#632=EDGE_CURVE('',#511,#507,#236,.T.);
#633=EDGE_CURVE('',#512,#511,#237,.F.);
#634=EDGE_CURVE('',#512,#513,#238,.F.);
#635=EDGE_CURVE('',#513,#509,#239,.T.);
#636=EDGE_CURVE('',#514,#490,#240,.T.);
#637=EDGE_CURVE('',#511,#514,#31,.F.);
#638=EDGE_CURVE('',#515,#489,#241,.F.);
#639=EDGE_CURVE('',#514,#515,#242,.F.);
#640=EDGE_CURVE('',#494,#516,#243,.T.);
#641=EDGE_CURVE('',#515,#516,#244,.F.);
#642=EDGE_CURVE('',#517,#496,#245,.T.);
#643=EDGE_CURVE('',#517,#516,#246,.T.);
#644=EDGE_CURVE('',#518,#498,#247,.F.);
#645=EDGE_CURVE('',#517,#518,#248,.F.);
#646=EDGE_CURVE('',#519,#505,#249,.T.);
#647=EDGE_CURVE('',#518,#519,#250,.F.);
#648=EDGE_CURVE('',#520,#500,#251,.T.);
#649=EDGE_CURVE('',#519,#520,#32,.F.);
#650=EDGE_CURVE('',#499,#521,#252,.T.);
#651=EDGE_CURVE('',#521,#522,#253,.T.);
#652=EDGE_CURVE('',#523,#522,#254,.F.);
#653=EDGE_CURVE('',#520,#523,#255,.F.);
#654=EDGE_CURVE('',#504,#524,#256,.T.);
#655=EDGE_CURVE('',#524,#521,#257,.T.);
#656=EDGE_CURVE('',#525,#526,#258,.T.);
#657=EDGE_CURVE('',#526,#527,#259,.T.);
#658=EDGE_CURVE('',#527,#528,#260,.T.);
#659=EDGE_CURVE('',#528,#525,#261,.T.);
#660=EDGE_CURVE('',#529,#530,#262,.T.);
#661=EDGE_CURVE('',#530,#527,#33,.T.);
#662=EDGE_CURVE('',#526,#529,#34,.T.);
#663=EDGE_CURVE('',#531,#530,#263,.T.);
#664=EDGE_CURVE('',#529,#532,#264,.T.);
#665=EDGE_CURVE('',#532,#531,#265,.T.);
#666=EDGE_CURVE('',#532,#533,#266,.T.);
#667=EDGE_CURVE('',#533,#534,#267,.F.);
#668=EDGE_CURVE('',#534,#531,#268,.T.);
#669=EDGE_CURVE('',#528,#535,#269,.T.);
#670=EDGE_CURVE('',#535,#536,#270,.F.);
#671=EDGE_CURVE('',#536,#525,#271,.T.);
#672=EDGE_CURVE('',#532,#537,#272,.T.);
#673=EDGE_CURVE('',#537,#538,#273,.T.);
#674=EDGE_CURVE('',#533,#538,#274,.T.);
#675=EDGE_CURVE('',#539,#529,#275,.T.);
#676=EDGE_CURVE('',#540,#539,#276,.F.);
#677=EDGE_CURVE('',#540,#541,#277,.F.);
#678=EDGE_CURVE('',#541,#537,#278,.T.);
#679=EDGE_CURVE('',#542,#526,#279,.T.);
#680=EDGE_CURVE('',#539,#542,#35,.F.);
#681=EDGE_CURVE('',#525,#543,#280,.T.);
#682=EDGE_CURVE('',#543,#544,#281,.T.);
#683=EDGE_CURVE('',#545,#544,#282,.F.);
#684=EDGE_CURVE('',#542,#545,#283,.F.);
#685=EDGE_CURVE('',#536,#546,#284,.T.);
#686=EDGE_CURVE('',#546,#543,#285,.T.);
#687=EDGE_CURVE('',#547,#547,#36,.T.);
#688=EDGE_CURVE('',#547,#548,#286,.T.);
#689=EDGE_CURVE('',#548,#548,#37,.T.);
#690=EDGE_CURVE('',#548,#549,#287,.T.);
#691=EDGE_CURVE('',#549,#549,#38,.T.);
#692=EDGE_CURVE('',#550,#550,#39,.F.);
#693=EDGE_CURVE('',#465,#535,#288,.T.);
#694=EDGE_CURVE('',#534,#503,#289,.T.);
#695=EDGE_CURVE('',#487,#473,#290,.T.);
#696=EDGE_CURVE('',#551,#551,#40,.F.);
#697=EDGE_CURVE('',#523,#552,#291,.F.);
#698=EDGE_CURVE('',#552,#553,#292,.F.);
#699=EDGE_CURVE('',#553,#540,#293,.F.);
#700=EDGE_CURVE('',#545,#554,#294,.F.);
#701=EDGE_CURVE('',#554,#555,#295,.F.);
#702=EDGE_CURVE('',#555,#478,#296,.F.);
#703=EDGE_CURVE('',#483,#556,#297,.F.);
#704=EDGE_CURVE('',#556,#557,#298,.F.);
#705=EDGE_CURVE('',#557,#512,#299,.F.);
#706=EDGE_CURVE('',#476,#546,#300,.T.);
#707=EDGE_CURVE('',#558,#479,#301,.T.);
#708=EDGE_CURVE('',#559,#558,#302,.T.);
#709=EDGE_CURVE('',#544,#559,#303,.T.);
#710=EDGE_CURVE('',#554,#559,#304,.T.);
#711=EDGE_CURVE('',#555,#558,#305,.F.);
#712=EDGE_CURVE('',#510,#484,#306,.T.);
#713=EDGE_CURVE('',#560,#513,#307,.T.);
#714=EDGE_CURVE('',#561,#560,#308,.T.);
#715=EDGE_CURVE('',#482,#561,#309,.T.);
#716=EDGE_CURVE('',#556,#561,#310,.T.);
#717=EDGE_CURVE('',#557,#560,#311,.F.);
#718=EDGE_CURVE('',#538,#524,#312,.T.);
#719=EDGE_CURVE('',#562,#541,#313,.T.);
#720=EDGE_CURVE('',#563,#562,#314,.T.);
#721=EDGE_CURVE('',#522,#563,#315,.T.);
#722=EDGE_CURVE('',#551,#550,#316,.T.);
#723=EDGE_CURVE('',#553,#562,#317,.F.);
#724=EDGE_CURVE('',#552,#563,#318,.T.);
#725=ORIENTED_EDGE('',*,*,#564,.T.);
#726=ORIENTED_EDGE('',*,*,#565,.T.);
#727=ORIENTED_EDGE('',*,*,#566,.T.);
#728=ORIENTED_EDGE('',*,*,#567,.T.);
#729=ORIENTED_EDGE('',*,*,#568,.T.);
#730=ORIENTED_EDGE('',*,*,#569,.T.);
#731=ORIENTED_EDGE('',*,*,#570,.T.);
#732=ORIENTED_EDGE('',*,*,#571,.T.);
#733=ORIENTED_EDGE('',*,*,#572,.T.);
#734=ORIENTED_EDGE('',*,*,#573,.T.);
#735=ORIENTED_EDGE('',*,*,#569,.F.);
#736=ORIENTED_EDGE('',*,*,#574,.T.);
#737=ORIENTED_EDGE('',*,*,#575,.T.);
#738=ORIENTED_EDGE('',*,*,#572,.F.);
#739=ORIENTED_EDGE('',*,*,#576,.T.);
#740=ORIENTED_EDGE('',*,*,#567,.F.);
#741=ORIENTED_EDGE('',*,*,#577,.T.);
#742=ORIENTED_EDGE('',*,*,#578,.T.);
#743=ORIENTED_EDGE('',*,*,#579,.T.);
#744=ORIENTED_EDGE('',*,*,#571,.F.);
#745=ORIENTED_EDGE('',*,*,#564,.F.);
#746=ORIENTED_EDGE('',*,*,#580,.F.);
#747=ORIENTED_EDGE('',*,*,#581,.T.);
#748=ORIENTED_EDGE('',*,*,#582,.F.);
#749=ORIENTED_EDGE('',*,*,#576,.F.);
#750=ORIENTED_EDGE('',*,*,#583,.F.);
#751=ORIENTED_EDGE('',*,*,#584,.F.);
#752=ORIENTED_EDGE('',*,*,#585,.T.);
#753=ORIENTED_EDGE('',*,*,#586,.T.);
#754=ORIENTED_EDGE('',*,*,#580,.T.);
#755=ORIENTED_EDGE('',*,*,#574,.F.);
#756=ORIENTED_EDGE('',*,*,#587,.F.);
#757=ORIENTED_EDGE('',*,*,#588,.F.);
#758=ORIENTED_EDGE('',*,*,#583,.T.);
#759=ORIENTED_EDGE('',*,*,#568,.F.);
#760=ORIENTED_EDGE('',*,*,#589,.T.);
#761=ORIENTED_EDGE('',*,*,#590,.T.);
#762=ORIENTED_EDGE('',*,*,#591,.F.);
#763=ORIENTED_EDGE('',*,*,#592,.F.);
#764=ORIENTED_EDGE('',*,*,#587,.T.);
#765=ORIENTED_EDGE('',*,*,#579,.F.);
#766=ORIENTED_EDGE('',*,*,#593,.T.);
#767=ORIENTED_EDGE('',*,*,#594,.T.);
#768=ORIENTED_EDGE('',*,*,#589,.F.);
#769=ORIENTED_EDGE('',*,*,#595,.T.);
#770=ORIENTED_EDGE('',*,*,#596,.T.);
#771=ORIENTED_EDGE('',*,*,#597,.T.);
#772=ORIENTED_EDGE('',*,*,#598,.T.);
#773=ORIENTED_EDGE('',*,*,#599,.T.);
#774=ORIENTED_EDGE('',*,*,#600,.T.);
#775=ORIENTED_EDGE('',*,*,#601,.T.);
#776=ORIENTED_EDGE('',*,*,#602,.T.);
#777=ORIENTED_EDGE('',*,*,#603,.T.);
#778=ORIENTED_EDGE('',*,*,#604,.T.);
#779=ORIENTED_EDGE('',*,*,#605,.T.);
#780=ORIENTED_EDGE('',*,*,#602,.F.);
#781=ORIENTED_EDGE('',*,*,#606,.T.);
#782=ORIENTED_EDGE('',*,*,#607,.T.);
#783=ORIENTED_EDGE('',*,*,#608,.T.);
#784=ORIENTED_EDGE('',*,*,#604,.F.);
#785=ORIENTED_EDGE('',*,*,#609,.T.);
#786=ORIENTED_EDGE('',*,*,#610,.T.);
#787=ORIENTED_EDGE('',*,*,#611,.T.);
#788=ORIENTED_EDGE('',*,*,#607,.F.);
#789=ORIENTED_EDGE('',*,*,#612,.T.);
#790=ORIENTED_EDGE('',*,*,#613,.T.);
#791=ORIENTED_EDGE('',*,*,#614,.T.);
#792=ORIENTED_EDGE('',*,*,#615,.T.);
#793=ORIENTED_EDGE('',*,*,#616,.T.);
#794=ORIENTED_EDGE('',*,*,#617,.T.);
#795=ORIENTED_EDGE('',*,*,#618,.T.);
#796=ORIENTED_EDGE('',*,*,#615,.F.);
#797=ORIENTED_EDGE('',*,*,#619,.T.);
#798=ORIENTED_EDGE('',*,*,#620,.T.);
#799=ORIENTED_EDGE('',*,*,#613,.F.);
#800=ORIENTED_EDGE('',*,*,#621,.T.);
#801=ORIENTED_EDGE('',*,*,#622,.T.);
#802=ORIENTED_EDGE('',*,*,#619,.F.);
#803=ORIENTED_EDGE('',*,*,#623,.T.);
#804=ORIENTED_EDGE('',*,*,#610,.F.);
#805=ORIENTED_EDGE('',*,*,#624,.T.);
#806=ORIENTED_EDGE('',*,*,#625,.T.);
#807=ORIENTED_EDGE('',*,*,#600,.F.);
#808=ORIENTED_EDGE('',*,*,#626,.T.);
#809=ORIENTED_EDGE('',*,*,#627,.T.);
#810=ORIENTED_EDGE('',*,*,#624,.F.);
#811=ORIENTED_EDGE('',*,*,#628,.T.);
#812=ORIENTED_EDGE('',*,*,#598,.F.);
#813=ORIENTED_EDGE('',*,*,#595,.F.);
#814=ORIENTED_EDGE('',*,*,#629,.F.);
#815=ORIENTED_EDGE('',*,*,#630,.T.);
#816=ORIENTED_EDGE('',*,*,#631,.F.);
#817=ORIENTED_EDGE('',*,*,#628,.F.);
#818=ORIENTED_EDGE('',*,*,#632,.F.);
#819=ORIENTED_EDGE('',*,*,#633,.F.);
#820=ORIENTED_EDGE('',*,*,#634,.T.);
#821=ORIENTED_EDGE('',*,*,#635,.T.);
#822=ORIENTED_EDGE('',*,*,#629,.T.);
#823=ORIENTED_EDGE('',*,*,#626,.F.);
#824=ORIENTED_EDGE('',*,*,#636,.F.);
#825=ORIENTED_EDGE('',*,*,#637,.F.);
#826=ORIENTED_EDGE('',*,*,#632,.T.);
#827=ORIENTED_EDGE('',*,*,#599,.F.);
#828=ORIENTED_EDGE('',*,*,#638,.F.);
#829=ORIENTED_EDGE('',*,*,#639,.F.);
#830=ORIENTED_EDGE('',*,*,#636,.T.);
#831=ORIENTED_EDGE('',*,*,#605,.F.);
#832=ORIENTED_EDGE('',*,*,#640,.T.);
#833=ORIENTED_EDGE('',*,*,#641,.F.);
#834=ORIENTED_EDGE('',*,*,#638,.T.);
#835=ORIENTED_EDGE('',*,*,#608,.F.);
#836=ORIENTED_EDGE('',*,*,#642,.F.);
#837=ORIENTED_EDGE('',*,*,#643,.T.);
#838=ORIENTED_EDGE('',*,*,#640,.F.);
#839=ORIENTED_EDGE('',*,*,#611,.F.);
#840=ORIENTED_EDGE('',*,*,#644,.F.);
#841=ORIENTED_EDGE('',*,*,#645,.F.);
#842=ORIENTED_EDGE('',*,*,#642,.T.);
#843=ORIENTED_EDGE('',*,*,#623,.F.);
#844=ORIENTED_EDGE('',*,*,#646,.F.);
#845=ORIENTED_EDGE('',*,*,#647,.F.);
#846=ORIENTED_EDGE('',*,*,#644,.T.);
#847=ORIENTED_EDGE('',*,*,#621,.F.);
#848=ORIENTED_EDGE('',*,*,#648,.F.);
#849=ORIENTED_EDGE('',*,*,#649,.F.);
#850=ORIENTED_EDGE('',*,*,#646,.T.);
#851=ORIENTED_EDGE('',*,*,#612,.F.);
#852=ORIENTED_EDGE('',*,*,#650,.T.);
#853=ORIENTED_EDGE('',*,*,#651,.T.);
#854=ORIENTED_EDGE('',*,*,#652,.F.);
#855=ORIENTED_EDGE('',*,*,#653,.F.);
#856=ORIENTED_EDGE('',*,*,#648,.T.);
#857=ORIENTED_EDGE('',*,*,#618,.F.);
#858=ORIENTED_EDGE('',*,*,#654,.T.);
#859=ORIENTED_EDGE('',*,*,#655,.T.);
#860=ORIENTED_EDGE('',*,*,#650,.F.);
#861=ORIENTED_EDGE('',*,*,#656,.T.);
#862=ORIENTED_EDGE('',*,*,#657,.T.);
#863=ORIENTED_EDGE('',*,*,#658,.T.);
#864=ORIENTED_EDGE('',*,*,#659,.T.);
#865=ORIENTED_EDGE('',*,*,#660,.T.);
#866=ORIENTED_EDGE('',*,*,#661,.T.);
#867=ORIENTED_EDGE('',*,*,#657,.F.);
#868=ORIENTED_EDGE('',*,*,#662,.T.);
#869=ORIENTED_EDGE('',*,*,#663,.T.);
#870=ORIENTED_EDGE('',*,*,#660,.F.);
#871=ORIENTED_EDGE('',*,*,#664,.T.);
#872=ORIENTED_EDGE('',*,*,#665,.T.);
#873=ORIENTED_EDGE('',*,*,#666,.T.);
#874=ORIENTED_EDGE('',*,*,#667,.T.);
#875=ORIENTED_EDGE('',*,*,#668,.T.);
#876=ORIENTED_EDGE('',*,*,#665,.F.);
#877=ORIENTED_EDGE('',*,*,#669,.T.);
#878=ORIENTED_EDGE('',*,*,#670,.T.);
#879=ORIENTED_EDGE('',*,*,#671,.T.);
#880=ORIENTED_EDGE('',*,*,#659,.F.);
#881=ORIENTED_EDGE('',*,*,#666,.F.);
#882=ORIENTED_EDGE('',*,*,#672,.T.);
#883=ORIENTED_EDGE('',*,*,#673,.T.);
#884=ORIENTED_EDGE('',*,*,#674,.F.);
#885=ORIENTED_EDGE('',*,*,#664,.F.);
#886=ORIENTED_EDGE('',*,*,#675,.F.);
#887=ORIENTED_EDGE('',*,*,#676,.F.);
#888=ORIENTED_EDGE('',*,*,#677,.T.);
#889=ORIENTED_EDGE('',*,*,#678,.T.);
#890=ORIENTED_EDGE('',*,*,#672,.F.);
#891=ORIENTED_EDGE('',*,*,#662,.F.);
#892=ORIENTED_EDGE('',*,*,#679,.F.);
#893=ORIENTED_EDGE('',*,*,#680,.F.);
#894=ORIENTED_EDGE('',*,*,#675,.T.);
#895=ORIENTED_EDGE('',*,*,#656,.F.);
#896=ORIENTED_EDGE('',*,*,#681,.T.);
#897=ORIENTED_EDGE('',*,*,#682,.T.);
#898=ORIENTED_EDGE('',*,*,#683,.F.);
#899=ORIENTED_EDGE('',*,*,#684,.F.);
#900=ORIENTED_EDGE('',*,*,#679,.T.);
#901=ORIENTED_EDGE('',*,*,#671,.F.);
#902=ORIENTED_EDGE('',*,*,#685,.T.);
#903=ORIENTED_EDGE('',*,*,#686,.T.);
#904=ORIENTED_EDGE('',*,*,#681,.F.);
#905=ORIENTED_EDGE('',*,*,#687,.T.);
#906=ORIENTED_EDGE('',*,*,#688,.T.);
#907=ORIENTED_EDGE('',*,*,#689,.T.);
#908=ORIENTED_EDGE('',*,*,#688,.F.);
#909=ORIENTED_EDGE('',*,*,#689,.F.);
#910=ORIENTED_EDGE('',*,*,#690,.T.);
#911=ORIENTED_EDGE('',*,*,#691,.T.);
#912=ORIENTED_EDGE('',*,*,#690,.F.);
#913=ORIENTED_EDGE('',*,*,#692,.T.);
#914=ORIENTED_EDGE('',*,*,#693,.T.);
#915=ORIENTED_EDGE('',*,*,#669,.F.);
#916=ORIENTED_EDGE('',*,*,#658,.F.);
#917=ORIENTED_EDGE('',*,*,#661,.F.);
#918=ORIENTED_EDGE('',*,*,#663,.F.);
#919=ORIENTED_EDGE('',*,*,#668,.F.);
#920=ORIENTED_EDGE('',*,*,#694,.T.);
#921=ORIENTED_EDGE('',*,*,#616,.F.);
#922=ORIENTED_EDGE('',*,*,#614,.F.);
#923=ORIENTED_EDGE('',*,*,#620,.F.);
#924=ORIENTED_EDGE('',*,*,#622,.F.);
#925=ORIENTED_EDGE('',*,*,#609,.F.);
#926=ORIENTED_EDGE('',*,*,#606,.F.);
#927=ORIENTED_EDGE('',*,*,#603,.F.);
#928=ORIENTED_EDGE('',*,*,#601,.F.);
#929=ORIENTED_EDGE('',*,*,#625,.F.);
#930=ORIENTED_EDGE('',*,*,#627,.F.);
#931=ORIENTED_EDGE('',*,*,#597,.F.);
#932=ORIENTED_EDGE('',*,*,#695,.T.);
#933=ORIENTED_EDGE('',*,*,#577,.F.);
#934=ORIENTED_EDGE('',*,*,#570,.F.);
#935=ORIENTED_EDGE('',*,*,#573,.F.);
#936=ORIENTED_EDGE('',*,*,#575,.F.);
#937=ORIENTED_EDGE('',*,*,#566,.F.);
#938=ORIENTED_EDGE('',*,*,#687,.F.);
#939=ORIENTED_EDGE('',*,*,#691,.F.);
#940=ORIENTED_EDGE('',*,*,#696,.F.);
#941=ORIENTED_EDGE('',*,*,#643,.F.);
#942=ORIENTED_EDGE('',*,*,#645,.T.);
#943=ORIENTED_EDGE('',*,*,#647,.T.);
#944=ORIENTED_EDGE('',*,*,#649,.T.);
#945=ORIENTED_EDGE('',*,*,#653,.T.);
#946=ORIENTED_EDGE('',*,*,#697,.T.);
#947=ORIENTED_EDGE('',*,*,#698,.T.);
#948=ORIENTED_EDGE('',*,*,#699,.T.);
#949=ORIENTED_EDGE('',*,*,#676,.T.);
#950=ORIENTED_EDGE('',*,*,#680,.T.);
#951=ORIENTED_EDGE('',*,*,#684,.T.);
#952=ORIENTED_EDGE('',*,*,#700,.T.);
#953=ORIENTED_EDGE('',*,*,#701,.T.);
#954=ORIENTED_EDGE('',*,*,#702,.T.);
#955=ORIENTED_EDGE('',*,*,#584,.T.);
#956=ORIENTED_EDGE('',*,*,#588,.T.);
#957=ORIENTED_EDGE('',*,*,#592,.T.);
#958=ORIENTED_EDGE('',*,*,#703,.T.);
#959=ORIENTED_EDGE('',*,*,#704,.T.);
#960=ORIENTED_EDGE('',*,*,#705,.T.);
#961=ORIENTED_EDGE('',*,*,#633,.T.);
#962=ORIENTED_EDGE('',*,*,#637,.T.);
#963=ORIENTED_EDGE('',*,*,#639,.T.);
#964=ORIENTED_EDGE('',*,*,#641,.T.);
#965=ORIENTED_EDGE('',*,*,#682,.F.);
#966=ORIENTED_EDGE('',*,*,#686,.F.);
#967=ORIENTED_EDGE('',*,*,#706,.F.);
#968=ORIENTED_EDGE('',*,*,#581,.F.);
#969=ORIENTED_EDGE('',*,*,#586,.F.);
#970=ORIENTED_EDGE('',*,*,#707,.F.);
#971=ORIENTED_EDGE('',*,*,#708,.F.);
#972=ORIENTED_EDGE('',*,*,#709,.F.);
#973=ORIENTED_EDGE('',*,*,#693,.F.);
#974=ORIENTED_EDGE('',*,*,#565,.F.);
#975=ORIENTED_EDGE('',*,*,#582,.T.);
#976=ORIENTED_EDGE('',*,*,#706,.T.);
#977=ORIENTED_EDGE('',*,*,#685,.F.);
#978=ORIENTED_EDGE('',*,*,#670,.F.);
#979=ORIENTED_EDGE('',*,*,#709,.T.);
#980=ORIENTED_EDGE('',*,*,#710,.F.);
#981=ORIENTED_EDGE('',*,*,#700,.F.);
#982=ORIENTED_EDGE('',*,*,#683,.T.);
#983=ORIENTED_EDGE('',*,*,#708,.T.);
#984=ORIENTED_EDGE('',*,*,#711,.F.);
#985=ORIENTED_EDGE('',*,*,#701,.F.);
#986=ORIENTED_EDGE('',*,*,#710,.T.);
#987=ORIENTED_EDGE('',*,*,#590,.F.);
#988=ORIENTED_EDGE('',*,*,#594,.F.);
#989=ORIENTED_EDGE('',*,*,#712,.F.);
#990=ORIENTED_EDGE('',*,*,#630,.F.);
#991=ORIENTED_EDGE('',*,*,#635,.F.);
#992=ORIENTED_EDGE('',*,*,#713,.F.);
#993=ORIENTED_EDGE('',*,*,#714,.F.);
#994=ORIENTED_EDGE('',*,*,#715,.F.);
#995=ORIENTED_EDGE('',*,*,#695,.F.);
#996=ORIENTED_EDGE('',*,*,#596,.F.);
#997=ORIENTED_EDGE('',*,*,#631,.T.);
#998=ORIENTED_EDGE('',*,*,#712,.T.);
#999=ORIENTED_EDGE('',*,*,#593,.F.);
#1000=ORIENTED_EDGE('',*,*,#578,.F.);
#1001=ORIENTED_EDGE('',*,*,#707,.T.);
#1002=ORIENTED_EDGE('',*,*,#585,.F.);
#1003=ORIENTED_EDGE('',*,*,#702,.F.);
#1004=ORIENTED_EDGE('',*,*,#711,.T.);
#1005=ORIENTED_EDGE('',*,*,#715,.T.);
#1006=ORIENTED_EDGE('',*,*,#716,.F.);
#1007=ORIENTED_EDGE('',*,*,#703,.F.);
#1008=ORIENTED_EDGE('',*,*,#591,.T.);
#1009=ORIENTED_EDGE('',*,*,#714,.T.);
#1010=ORIENTED_EDGE('',*,*,#717,.F.);
#1011=ORIENTED_EDGE('',*,*,#704,.F.);
#1012=ORIENTED_EDGE('',*,*,#716,.T.);
#1013=ORIENTED_EDGE('',*,*,#694,.F.);
#1014=ORIENTED_EDGE('',*,*,#667,.F.);
#1015=ORIENTED_EDGE('',*,*,#674,.T.);
#1016=ORIENTED_EDGE('',*,*,#718,.T.);
#1017=ORIENTED_EDGE('',*,*,#654,.F.);
#1018=ORIENTED_EDGE('',*,*,#617,.F.);
#1019=ORIENTED_EDGE('',*,*,#678,.F.);
#1020=ORIENTED_EDGE('',*,*,#719,.F.);
#1021=ORIENTED_EDGE('',*,*,#720,.F.);
#1022=ORIENTED_EDGE('',*,*,#721,.F.);
#1023=ORIENTED_EDGE('',*,*,#651,.F.);
#1024=ORIENTED_EDGE('',*,*,#655,.F.);
#1025=ORIENTED_EDGE('',*,*,#718,.F.);
#1026=ORIENTED_EDGE('',*,*,#673,.F.);
#1027=ORIENTED_EDGE('',*,*,#713,.T.);
#1028=ORIENTED_EDGE('',*,*,#634,.F.);
#1029=ORIENTED_EDGE('',*,*,#705,.F.);
#1030=ORIENTED_EDGE('',*,*,#717,.T.);
#1031=ORIENTED_EDGE('',*,*,#696,.T.);
#1032=ORIENTED_EDGE('',*,*,#722,.T.);
#1033=ORIENTED_EDGE('',*,*,#692,.F.);
#1034=ORIENTED_EDGE('',*,*,#722,.F.);
#1035=ORIENTED_EDGE('',*,*,#719,.T.);
#1036=ORIENTED_EDGE('',*,*,#677,.F.);
#1037=ORIENTED_EDGE('',*,*,#699,.F.);
#1038=ORIENTED_EDGE('',*,*,#723,.T.);
#1039=ORIENTED_EDGE('',*,*,#721,.T.);
#1040=ORIENTED_EDGE('',*,*,#724,.F.);
#1041=ORIENTED_EDGE('',*,*,#697,.F.);
#1042=ORIENTED_EDGE('',*,*,#652,.T.);
#1043=ORIENTED_EDGE('',*,*,#720,.T.);
#1044=ORIENTED_EDGE('',*,*,#723,.F.);
#1045=ORIENTED_EDGE('',*,*,#698,.F.);
#1046=ORIENTED_EDGE('',*,*,#724,.T.);
#1047=PLANE('',#1176);
#1048=PLANE('',#1177);
#1049=PLANE('',#1181);
#1050=PLANE('',#1182);
#1051=PLANE('',#1183);
#1052=PLANE('',#1184);
#1053=PLANE('',#1187);
#1054=PLANE('',#1188);
#1055=PLANE('',#1189);
#1056=PLANE('',#1190);
#1057=PLANE('',#1191);
#1058=PLANE('',#1192);
#1059=PLANE('',#1193);
#1060=PLANE('',#1194);
#1061=PLANE('',#1195);
#1062=PLANE('',#1199);
#1063=PLANE('',#1203);
#1064=PLANE('',#1204);
#1065=PLANE('',#1205);
#1066=PLANE('',#1208);
#1067=PLANE('',#1209);
#1068=PLANE('',#1210);
#1069=PLANE('',#1211);
#1070=PLANE('',#1212);
#1071=PLANE('',#1215);
#1072=PLANE('',#1216);
#1073=PLANE('',#1217);
#1074=PLANE('',#1221);
#1075=PLANE('',#1222);
#1076=PLANE('',#1223);
#1077=PLANE('',#1224);
#1078=PLANE('',#1225);
#1079=PLANE('',#1228);
#1080=PLANE('',#1229);
#1081=PLANE('',#1235);
#1082=PLANE('',#1237);
#1083=PLANE('',#1238);
#1084=PLANE('',#1240);
#1085=PLANE('',#1241);
#1086=PLANE('',#1242);
#1087=PLANE('',#1243);
#1088=PLANE('',#1244);
#1089=PLANE('',#1245);
#1090=PLANE('',#1246);
#1091=PLANE('',#1247);
#1092=PLANE('',#1248);
#1093=PLANE('',#1249);
#1094=PLANE('',#1250);
#1095=PLANE('',#1251);
#1096=PLANE('',#1253);
#1097=PLANE('',#1254);
#1098=PLANE('',#1255);
#1099=ADVANCED_FACE('',(#46),#1047,.T.);
#1100=ADVANCED_FACE('',(#47),#1048,.T.);
#1101=ADVANCED_FACE('',(#48),#41,.F.);
#1102=ADVANCED_FACE('',(#49),#1049,.T.);
#1103=ADVANCED_FACE('',(#50),#1050,.T.);
#1104=ADVANCED_FACE('',(#51),#1051,.F.);
#1105=ADVANCED_FACE('',(#52),#1052,.F.);
#1106=ADVANCED_FACE('',(#53),#18,.F.);
#1107=ADVANCED_FACE('',(#54),#1053,.F.);
#1108=ADVANCED_FACE('',(#55),#1054,.F.);
#1109=ADVANCED_FACE('',(#56),#1055,.T.);
#1110=ADVANCED_FACE('',(#57),#1056,.T.);
#1111=ADVANCED_FACE('',(#58),#1057,.T.);
#1112=ADVANCED_FACE('',(#59),#1058,.T.);
#1113=ADVANCED_FACE('',(#60),#1059,.T.);
#1114=ADVANCED_FACE('',(#61),#1060,.T.);
#1115=ADVANCED_FACE('',(#62),#1061,.T.);
#1116=ADVANCED_FACE('',(#63),#42,.F.);
#1117=ADVANCED_FACE('',(#64),#1062,.T.);
#1118=ADVANCED_FACE('',(#65),#43,.F.);
#1119=ADVANCED_FACE('',(#66),#1063,.T.);
#1120=ADVANCED_FACE('',(#67),#1064,.F.);
#1121=ADVANCED_FACE('',(#68),#1065,.F.);
#1122=ADVANCED_FACE('',(#69),#19,.F.);
#1123=ADVANCED_FACE('',(#70),#1066,.F.);
#1124=ADVANCED_FACE('',(#71),#1067,.F.);
#1125=ADVANCED_FACE('',(#72),#1068,.F.);
#1126=ADVANCED_FACE('',(#73),#1069,.F.);
#1127=ADVANCED_FACE('',(#74),#1070,.F.);
#1128=ADVANCED_FACE('',(#75),#20,.F.);
#1129=ADVANCED_FACE('',(#76),#1071,.F.);
#1130=ADVANCED_FACE('',(#77),#1072,.F.);
#1131=ADVANCED_FACE('',(#78),#1073,.T.);
#1132=ADVANCED_FACE('',(#79),#44,.F.);
#1133=ADVANCED_FACE('',(#80),#1074,.T.);
#1134=ADVANCED_FACE('',(#81),#1075,.T.);
#1135=ADVANCED_FACE('',(#82),#1076,.T.);
#1136=ADVANCED_FACE('',(#83),#1077,.F.);
#1137=ADVANCED_FACE('',(#84),#1078,.F.);
#1138=ADVANCED_FACE('',(#85),#21,.F.);
#1139=ADVANCED_FACE('',(#86),#1079,.F.);
#1140=ADVANCED_FACE('',(#87),#1080,.F.);
#1141=ADVANCED_FACE('',(#88),#45,.F.);
#1142=ADVANCED_FACE('',(#89),#22,.F.);
#1143=ADVANCED_FACE('',(#90,#15,#16),#1081,.F.);
#1144=ADVANCED_FACE('',(#91),#1082,.T.);
#1145=ADVANCED_FACE('',(#92,#17),#1083,.T.);
#1146=ADVANCED_FACE('',(#93),#1084,.T.);
#1147=ADVANCED_FACE('',(#94),#1085,.F.);
#1148=ADVANCED_FACE('',(#95),#1086,.F.);
#1149=ADVANCED_FACE('',(#96),#1087,.F.);
#1150=ADVANCED_FACE('',(#97),#1088,.T.);
#1151=ADVANCED_FACE('',(#98),#1089,.F.);
#1152=ADVANCED_FACE('',(#99),#1090,.F.);
#1153=ADVANCED_FACE('',(#100),#1091,.F.);
#1154=ADVANCED_FACE('',(#101),#1092,.F.);
#1155=ADVANCED_FACE('',(#102),#1093,.F.);
#1156=ADVANCED_FACE('',(#103),#1094,.T.);
#1157=ADVANCED_FACE('',(#104),#1095,.F.);
#1158=ADVANCED_FACE('',(#105),#23,.T.);
#1159=ADVANCED_FACE('',(#106),#1096,.F.);
#1160=ADVANCED_FACE('',(#107),#1097,.F.);
#1161=ADVANCED_FACE('',(#108),#1098,.F.);
#1162=CLOSED_SHELL('',(#1099,#1100,#1101,#1102,#1103,#1104,#1105,#1106,
#1107,#1108,#1109,#1110,#1111,#1112,#1113,#1114,#1115,#1116,#1117,#1118,
#1119,#1120,#1121,#1122,#1123,#1124,#1125,#1126,#1127,#1128,#1129,#1130,
#1131,#1132,#1133,#1134,#1135,#1136,#1137,#1138,#1139,#1140,#1141,#1142,
#1143,#1144,#1145,#1146,#1147,#1148,#1149,#1150,#1151,#1152,#1153,#1154,
#1155,#1156,#1157,#1158,#1159,#1160,#1161));
#1163=DERIVED_UNIT_ELEMENT(#1165,1.);
#1164=DERIVED_UNIT_ELEMENT(#1893,-3.);
#1165=(
MASS_UNIT()
NAMED_UNIT(*)
SI_UNIT(.KILO.,.GRAM.)
);
#1166=DERIVED_UNIT((#1163,#1164));
#1167=MEASURE_REPRESENTATION_ITEM('density measure',
POSITIVE_RATIO_MEASURE(7850.),#1166);
#1168=PROPERTY_DEFINITION_REPRESENTATION(#1173,#1170);
#1169=PROPERTY_DEFINITION_REPRESENTATION(#1174,#1171);
#1170=REPRESENTATION('material name',(#1172),#1890);
#1171=REPRESENTATION('density',(#1167),#1890);
#1172=DESCRIPTIVE_REPRESENTATION_ITEM('Steel','Steel');
#1173=PROPERTY_DEFINITION('material property','material name',#1900);
#1174=PROPERTY_DEFINITION('material property','density of part',#1900);
#1175=AXIS2_PLACEMENT_3D('',#1562,#1256,#1257);
#1176=AXIS2_PLACEMENT_3D('',#1563,#1258,#1259);
#1177=AXIS2_PLACEMENT_3D('',#1572,#1264,#1265);
#1178=AXIS2_PLACEMENT_3D('',#1581,#1270,#1271);
#1179=AXIS2_PLACEMENT_3D('',#1585,#1273,#1274);
#1180=AXIS2_PLACEMENT_3D('',#1586,#1275,#1276);
#1181=AXIS2_PLACEMENT_3D('',#1587,#1277,#1278);
#1182=AXIS2_PLACEMENT_3D('',#1590,#1281,#1282);
#1183=AXIS2_PLACEMENT_3D('',#1596,#1286,#1287);
#1184=AXIS2_PLACEMENT_3D('',#1602,#1291,#1292);
#1185=AXIS2_PLACEMENT_3D('',#1610,#1297,#1298);
#1186=AXIS2_PLACEMENT_3D('',#1613,#1300,#1301);
#1187=AXIS2_PLACEMENT_3D('',#1614,#1302,#1303);
#1188=AXIS2_PLACEMENT_3D('',#1622,#1308,#1309);
#1189=AXIS2_PLACEMENT_3D('',#1626,#1312,#1313);
#1190=AXIS2_PLACEMENT_3D('',#1635,#1318,#1319);
#1191=AXIS2_PLACEMENT_3D('',#1644,#1324,#1325);
#1192=AXIS2_PLACEMENT_3D('',#1650,#1329,#1330);
#1193=AXIS2_PLACEMENT_3D('',#1656,#1334,#1335);
#1194=AXIS2_PLACEMENT_3D('',#1662,#1339,#1340);
#1195=AXIS2_PLACEMENT_3D('',#1671,#1345,#1346);
#1196=AXIS2_PLACEMENT_3D('',#1677,#1350,#1351);
#1197=AXIS2_PLACEMENT_3D('',#1681,#1353,#1354);
#1198=AXIS2_PLACEMENT_3D('',#1682,#1355,#1356);
#1199=AXIS2_PLACEMENT_3D('',#1683,#1357,#1358);
#1200=AXIS2_PLACEMENT_3D('',#1686,#1361,#1362);
#1201=AXIS2_PLACEMENT_3D('',#1690,#1364,#1365);
#1202=AXIS2_PLACEMENT_3D('',#1691,#1366,#1367);
#1203=AXIS2_PLACEMENT_3D('',#1692,#1368,#1369);
#1204=AXIS2_PLACEMENT_3D('',#1695,#1372,#1373);
#1205=AXIS2_PLACEMENT_3D('',#1701,#1377,#1378);
#1206=AXIS2_PLACEMENT_3D('',#1709,#1383,#1384);
#1207=AXIS2_PLACEMENT_3D('',#1712,#1386,#1387);
#1208=AXIS2_PLACEMENT_3D('',#1713,#1388,#1389);
#1209=AXIS2_PLACEMENT_3D('',#1717,#1392,#1393);
#1210=AXIS2_PLACEMENT_3D('',#1721,#1396,#1397);
#1211=AXIS2_PLACEMENT_3D('',#1725,#1400,#1401);
#1212=AXIS2_PLACEMENT_3D('',#1729,#1404,#1405);
#1213=AXIS2_PLACEMENT_3D('',#1733,#1408,#1409);
#1214=AXIS2_PLACEMENT_3D('',#1736,#1411,#1412);
#1215=AXIS2_PLACEMENT_3D('',#1737,#1413,#1414);
#1216=AXIS2_PLACEMENT_3D('',#1745,#1419,#1420);
#1217=AXIS2_PLACEMENT_3D('',#1749,#1423,#1424);
#1218=AXIS2_PLACEMENT_3D('',#1758,#1429,#1430);
#1219=AXIS2_PLACEMENT_3D('',#1762,#1432,#1433);
#1220=AXIS2_PLACEMENT_3D('',#1763,#1434,#1435);
#1221=AXIS2_PLACEMENT_3D('',#1764,#1436,#1437);
#1222=AXIS2_PLACEMENT_3D('',#1770,#1441,#1442);
#1223=AXIS2_PLACEMENT_3D('',#1776,#1446,#1447);
#1224=AXIS2_PLACEMENT_3D('',#1782,#1451,#1452);
#1225=AXIS2_PLACEMENT_3D('',#1788,#1456,#1457);
#1226=AXIS2_PLACEMENT_3D('',#1796,#1462,#1463);
#1227=AXIS2_PLACEMENT_3D('',#1799,#1465,#1466);
#1228=AXIS2_PLACEMENT_3D('',#1800,#1467,#1468);
#1229=AXIS2_PLACEMENT_3D('',#1808,#1473,#1474);
#1230=AXIS2_PLACEMENT_3D('',#1812,#1477,#1478);
#1231=AXIS2_PLACEMENT_3D('',#1814,#1479,#1480);
#1232=AXIS2_PLACEMENT_3D('',#1817,#1482,#1483);
#1233=AXIS2_PLACEMENT_3D('',#1818,#1484,#1485);
#1234=AXIS2_PLACEMENT_3D('',#1821,#1487,#1488);
#1235=AXIS2_PLACEMENT_3D('',#1822,#1489,#1490);
#1236=AXIS2_PLACEMENT_3D('',#1824,#1491,#1492);
#1237=AXIS2_PLACEMENT_3D('',#1828,#1496,#1497);
#1238=AXIS2_PLACEMENT_3D('',#1829,#1498,#1499);
#1239=AXIS2_PLACEMENT_3D('',#1831,#1500,#1501);
#1240=AXIS2_PLACEMENT_3D('',#1847,#1511,#1512);
#1241=AXIS2_PLACEMENT_3D('',#1854,#1517,#1518);
#1242=AXIS2_PLACEMENT_3D('',#1855,#1519,#1520);
#1243=AXIS2_PLACEMENT_3D('',#1857,#1522,#1523);
#1244=AXIS2_PLACEMENT_3D('',#1859,#1525,#1526);
#1245=AXIS2_PLACEMENT_3D('',#1866,#1531,#1532);
#1246=AXIS2_PLACEMENT_3D('',#1867,#1533,#1534);
#1247=AXIS2_PLACEMENT_3D('',#1868,#1535,#1536);
#1248=AXIS2_PLACEMENT_3D('',#1870,#1538,#1539);
#1249=AXIS2_PLACEMENT_3D('',#1872,#1541,#1542);
#1250=AXIS2_PLACEMENT_3D('',#1874,#1544,#1545);
#1251=AXIS2_PLACEMENT_3D('',#1880,#1549,#1550);
#1252=AXIS2_PLACEMENT_3D('',#1881,#1551,#1552);
#1253=AXIS2_PLACEMENT_3D('',#1883,#1554,#1555);
#1254=AXIS2_PLACEMENT_3D('',#1885,#1557,#1558);
#1255=AXIS2_PLACEMENT_3D('',#1887,#1560,#1561);
#1256=DIRECTION('axis',(0.,0.,1.));
#1257=DIRECTION('refdir',(1.,0.,0.));
#1258=DIRECTION('center_axis',(1.29893408435324E-16,-0.707106781186547,
-0.707106781186548));
#1259=DIRECTION('ref_axis',(-1.,0.,-1.83697019872103E-16));
#1260=DIRECTION('',(1.,0.,1.83697019872103E-16));
#1261=DIRECTION('',(1.29893408435324E-16,0.707106781186548,-0.707106781186547));
#1262=DIRECTION('',(-1.,0.,-1.83697019872103E-16));
#1263=DIRECTION('',(-0.577350269189626,0.577350269189625,-0.577350269189626));
#1264=DIRECTION('center_axis',(0.,-0.707106781186548,-0.707106781186547));
#1265=DIRECTION('ref_axis',(-1.,0.,0.));
#1266=DIRECTION('',(1.,0.,0.));
#1267=DIRECTION('',(0.,-0.707106781186547,0.707106781186548));
#1268=DIRECTION('',(-1.,0.,0.));
#1269=DIRECTION('',(-0.577350269189626,0.577350269189625,-0.577350269189626));
#1270=DIRECTION('center_axis',(0.,-1.,0.));
#1271=DIRECTION('ref_axis',(-6.66133814775093E-15,0.,1.));
#1272=DIRECTION('',(0.707106781186547,-0.707106781186548,-2.35513868802566E-15));
#1273=DIRECTION('center_axis',(0.,-1.,0.));
#1274=DIRECTION('ref_axis',(-6.66133814775093E-15,0.,1.));
#1275=DIRECTION('center_axis',(0.,1.,0.));
#1276=DIRECTION('ref_axis',(-6.66133814775093E-15,0.,1.));
#1277=DIRECTION('center_axis',(-0.707106781186547,-0.707106781186548,-1.55103907398356E-16));
#1278=DIRECTION('ref_axis',(-2.19350049419816E-16,0.,1.));
#1279=DIRECTION('',(-2.19350049419816E-16,0.,1.));
#1280=DIRECTION('',(2.19350049419816E-16,0.,-1.));
#1281=DIRECTION('center_axis',(-0.707106781186548,-0.707106781186547,-8.65956056235494E-17));
#1282=DIRECTION('ref_axis',(-1.22464679914735E-16,0.,1.));
#1283=DIRECTION('',(-1.22464679914735E-16,0.,1.));
#1284=DIRECTION('',(0.707106781186547,-0.707106781186548,8.65956056235493E-17));
#1285=DIRECTION('',(1.22464679914735E-16,0.,-1.));
#1286=DIRECTION('center_axis',(-1.83697019872103E-16,0.,1.));
#1287=DIRECTION('ref_axis',(1.,0.,1.83697019872103E-16));
#1288=DIRECTION('',(0.,-1.,0.));
#1289=DIRECTION('',(1.,0.,1.83697019872103E-16));
#1290=DIRECTION('',(0.,1.,0.));
#1291=DIRECTION('center_axis',(1.,0.,2.19350049419816E-16));
#1292=DIRECTION('ref_axis',(-2.19350049419816E-16,0.,1.));
#1293=DIRECTION('',(0.,-1.,0.));
#1294=DIRECTION('',(2.19350049419816E-16,0.,-1.));
#1295=DIRECTION('',(0.,1.,0.));
#1296=DIRECTION('',(-2.19350049419816E-16,0.,1.));
#1297=DIRECTION('center_axis',(0.,-1.,0.));
#1298=DIRECTION('ref_axis',(-6.66133814775093E-15,0.,1.));
#1299=DIRECTION('',(0.,-1.,0.));
#1300=DIRECTION('center_axis',(0.,1.,0.));
#1301=DIRECTION('ref_axis',(-6.66133814775093E-15,0.,1.));
#1302=DIRECTION('center_axis',(0.,0.,1.));
#1303=DIRECTION('ref_axis',(-1.,0.,0.));
#1304=DIRECTION('',(0.,1.,0.));
#1305=DIRECTION('',(-1.,0.,0.));
#1306=DIRECTION('',(0.,-1.,0.));
#1307=DIRECTION('',(1.,0.,0.));
#1308=DIRECTION('center_axis',(1.,0.,1.22464679914735E-16));
#1309=DIRECTION('ref_axis',(1.22464679914735E-16,0.,-1.));
#1310=DIRECTION('',(0.,1.,0.));
#1311=DIRECTION('',(1.22464679914735E-16,0.,-1.));
#1312=DIRECTION('center_axis',(0.707106781186548,-0.707106781186548,8.65956056235493E-17));
#1313=DIRECTION('ref_axis',(1.22464679914735E-16,0.,-1.));
#1314=DIRECTION('',(-1.22464679914735E-16,0.,1.));
#1315=DIRECTION('',(0.707106781186548,0.707106781186548,8.65956056235493E-17));
#1316=DIRECTION('',(1.22464679914735E-16,0.,-1.));
#1317=DIRECTION('',(0.577350269189626,0.577350269189625,-0.577350269189626));
#1318=DIRECTION('center_axis',(0.707106781186547,-0.707106781186548,-1.55103907398356E-16));
#1319=DIRECTION('ref_axis',(-2.19350049419816E-16,0.,-1.));
#1320=DIRECTION('',(2.19350049419816E-16,0.,1.));
#1321=DIRECTION('',(-0.707106781186548,-0.707106781186547,0.));
#1322=DIRECTION('',(-2.19350049419816E-16,0.,-1.));
#1323=DIRECTION('',(0.678598344545849,0.678598344545847,0.281084637714816));
#1324=DIRECTION('center_axis',(0.500000000000004,-0.707106781186548,0.499999999999996));
#1325=DIRECTION('ref_axis',(0.707106781186541,0.,-0.707106781186554));
#1326=DIRECTION('',(0.707106781186541,0.,-0.707106781186554));
#1327=DIRECTION('',(0.678598344545849,0.678598344545847,0.281084637714816));
#1328=DIRECTION('',(-0.707106781186541,0.,0.707106781186554));
#1329=DIRECTION('center_axis',(0.707106781186548,-0.707106781186548,8.65956056235493E-17));
#1330=DIRECTION('ref_axis',(1.22464679914735E-16,0.,-1.));
#1331=DIRECTION('',(1.22464679914735E-16,0.,-1.));
#1332=DIRECTION('',(0.678598344545848,0.678598344545847,-0.281084637714819));
#1333=DIRECTION('',(-1.22464679914735E-16,0.,1.));
#1334=DIRECTION('center_axis',(0.500000000000001,-0.707106781186548,-0.499999999999998));
#1335=DIRECTION('ref_axis',(-0.707106781186546,0.,-0.707106781186549));
#1336=DIRECTION('',(-0.707106781186546,0.,-0.707106781186549));
#1337=DIRECTION('',(0.678598344545848,0.678598344545847,-0.281084637714819));
#1338=DIRECTION('',(0.707106781186546,0.,0.707106781186549));
#1339=DIRECTION('center_axis',(-3.1020781479671E-16,-0.707106781186548,
0.707106781186548));
#1340=DIRECTION('ref_axis',(1.,0.,4.38700098839628E-16));
#1341=DIRECTION('',(-1.,0.,-4.38700098839628E-16));
#1342=DIRECTION('',(0.,-0.707106781186548,-0.707106781186548));
#1343=DIRECTION('',(1.,0.,4.38700098839628E-16));
#1344=DIRECTION('',(0.577350269189627,0.577350269189625,0.577350269189625));
#1345=DIRECTION('center_axis',(0.707106781186548,-0.707106781186547,0.));
#1346=DIRECTION('ref_axis',(0.,0.,-1.));
#1347=DIRECTION('',(0.,0.,-1.));
#1348=DIRECTION('',(-0.707106781186547,-0.707106781186548,0.));
#1349=DIRECTION('',(0.,0.,1.));
#1350=DIRECTION('center_axis',(0.,-1.,0.));
#1351=DIRECTION('ref_axis',(6.66133814775092E-15,0.,-1.));
#1352=DIRECTION('',(-0.707106781186547,-0.707106781186547,3.92523114670943E-15));
#1353=DIRECTION('center_axis',(0.,-1.,0.));
#1354=DIRECTION('ref_axis',(6.66133814775092E-15,0.,-1.));
#1355=DIRECTION('center_axis',(0.,1.,0.));
#1356=DIRECTION('ref_axis',(6.66133814775092E-15,0.,-1.));
#1357=DIRECTION('center_axis',(0.707106781186547,-0.707106781186548,-1.55103907398353E-16));
#1358=DIRECTION('ref_axis',(-2.19350049419812E-16,0.,-1.));
#1359=DIRECTION('',(-2.19350049419812E-16,0.,-1.));
#1360=DIRECTION('',(2.19350049419812E-16,0.,1.));
#1361=DIRECTION('center_axis',(0.,-1.,0.));
#1362=DIRECTION('ref_axis',(-1.,0.,-8.88178419700125E-15));
#1363=DIRECTION('',(3.92523114670944E-15,-0.707106781186548,0.707106781186547));
#1364=DIRECTION('center_axis',(0.,-1.,0.));
#1365=DIRECTION('ref_axis',(-1.,0.,-8.88178419700124E-15));
#1366=DIRECTION('center_axis',(0.,1.,0.));
#1367=DIRECTION('ref_axis',(-1.,0.,-8.88178419700124E-15));
#1368=DIRECTION('center_axis',(-3.10207814796704E-16,-0.707106781186548,
-0.707106781186548));
#1369=DIRECTION('ref_axis',(-1.,0.,4.3870009883962E-16));
#1370=DIRECTION('',(-1.,0.,4.3870009883962E-16));
#1371=DIRECTION('',(1.,0.,-4.3870009883962E-16));
#1372=DIRECTION('center_axis',(-1.,0.,-1.22464679914735E-16));
#1373=DIRECTION('ref_axis',(-1.22464679914735E-16,0.,1.));
#1374=DIRECTION('',(0.,-1.,0.));
#1375=DIRECTION('',(-1.22464679914735E-16,0.,1.));
#1376=DIRECTION('',(0.,1.,0.));
#1377=DIRECTION('center_axis',(4.3870009883962E-16,0.,1.));
#1378=DIRECTION('ref_axis',(-1.,0.,4.3870009883962E-16));
#1379=DIRECTION('',(0.,-1.,0.));
#1380=DIRECTION('',(1.,0.,-4.3870009883962E-16));
#1381=DIRECTION('',(0.,1.,0.));
#1382=DIRECTION('',(-1.,0.,4.3870009883962E-16));
#1383=DIRECTION('center_axis',(0.,-1.,0.));
#1384=DIRECTION('ref_axis',(-1.,0.,-8.88178419700124E-15));
#1385=DIRECTION('',(0.,-1.,0.));
#1386=DIRECTION('center_axis',(0.,1.,0.));
#1387=DIRECTION('ref_axis',(-1.,0.,-8.88178419700124E-15));
#1388=DIRECTION('center_axis',(-1.,0.,2.19350049419816E-16));
#1389=DIRECTION('ref_axis',(-2.19350049419816E-16,0.,-1.));
#1390=DIRECTION('',(0.,1.,0.));
#1391=DIRECTION('',(2.19350049419816E-16,0.,1.));
#1392=DIRECTION('center_axis',(-0.707106781186554,0.,-0.707106781186541));
#1393=DIRECTION('ref_axis',(0.707106781186541,0.,-0.707106781186554));
#1394=DIRECTION('',(0.,1.,0.));
#1395=DIRECTION('',(-0.707106781186541,0.,0.707106781186554));
#1396=DIRECTION('center_axis',(-1.,0.,-1.22464679914735E-16));
#1397=DIRECTION('ref_axis',(-1.22464679914735E-16,0.,1.));
#1398=DIRECTION('',(0.,-1.,0.));
#1399=DIRECTION('',(-1.22464679914735E-16,0.,1.));
#1400=DIRECTION('center_axis',(-0.707106781186549,0.,0.707106781186546));
#1401=DIRECTION('ref_axis',(-0.707106781186546,0.,-0.707106781186549));
#1402=DIRECTION('',(0.,1.,0.));
#1403=DIRECTION('',(0.707106781186546,0.,0.707106781186549));
#1404=DIRECTION('center_axis',(-1.,0.,2.19350049419812E-16));
#1405=DIRECTION('ref_axis',(-2.19350049419812E-16,0.,-1.));
#1406=DIRECTION('',(0.,-1.,0.));
#1407=DIRECTION('',(2.19350049419812E-16,0.,1.));
#1408=DIRECTION('center_axis',(0.,-1.,0.));
#1409=DIRECTION('ref_axis',(6.66133814775092E-15,0.,-1.));
#1410=DIRECTION('',(0.,-1.,0.));
#1411=DIRECTION('center_axis',(0.,1.,0.));
#1412=DIRECTION('ref_axis',(6.66133814775092E-15,0.,-1.));
#1413=DIRECTION('center_axis',(4.38700098839628E-16,0.,-1.));
#1414=DIRECTION('ref_axis',(1.,0.,4.38700098839628E-16));
#1415=DIRECTION('',(0.,1.,0.));
#1416=DIRECTION('',(1.,0.,4.38700098839628E-16));
#1417=DIRECTION('',(0.,1.,0.));
#1418=DIRECTION('',(-1.,0.,-4.38700098839628E-16));
#1419=DIRECTION('center_axis',(-1.,0.,0.));
#1420=DIRECTION('ref_axis',(0.,0.,1.));
#1421=DIRECTION('',(0.,1.,0.));
#1422=DIRECTION('',(0.,0.,1.));
#1423=DIRECTION('center_axis',(-0.707106781186548,-0.707106781186548,-3.10207814796706E-16));
#1424=DIRECTION('ref_axis',(-4.38700098839624E-16,0.,1.));
#1425=DIRECTION('',(4.38700098839624E-16,0.,-1.));
#1426=DIRECTION('',(0.707106781186548,-0.707106781186548,7.85046229341889E-16));
#1427=DIRECTION('',(-4.38700098839624E-16,0.,1.));
#1428=DIRECTION('',(-0.577350269189626,0.577350269189626,0.577350269189626));
#1429=DIRECTION('center_axis',(0.,-1.,0.));
#1430=DIRECTION('ref_axis',(1.,0.,6.66133814775093E-15));
#1431=DIRECTION('',(-3.92523114670944E-15,-0.707106781186548,-0.707106781186547));
#1432=DIRECTION('center_axis',(0.,-1.,0.));
#1433=DIRECTION('ref_axis',(1.,0.,6.66133814775093E-15));
#1434=DIRECTION('center_axis',(0.,1.,0.));
#1435=DIRECTION('ref_axis',(1.,0.,6.66133814775093E-15));
#1436=DIRECTION('center_axis',(1.55103907398355E-16,-0.707106781186548,
0.707106781186547));
#1437=DIRECTION('ref_axis',(1.,0.,-2.19350049419814E-16));
#1438=DIRECTION('',(1.,0.,-2.19350049419814E-16));
#1439=DIRECTION('',(-1.,0.,2.19350049419814E-16));
#1440=DIRECTION('',(0.577350269189626,-0.577350269189625,-0.577350269189626));
#1441=DIRECTION('center_axis',(-0.707106781186548,-0.707106781186547,0.));
#1442=DIRECTION('ref_axis',(0.,0.,1.));
#1443=DIRECTION('',(0.,0.,-1.));
#1444=DIRECTION('',(-0.707106781186547,0.707106781186548,0.));
#1445=DIRECTION('',(0.,0.,1.));
#1446=DIRECTION('center_axis',(-1.29893408435324E-16,-0.707106781186547,
0.707106781186548));
#1447=DIRECTION('ref_axis',(1.,0.,1.83697019872103E-16));
#1448=DIRECTION('',(1.,0.,1.83697019872103E-16));
#1449=DIRECTION('',(1.29893408435324E-16,-0.707106781186548,-0.707106781186547));
#1450=DIRECTION('',(-1.,0.,-1.83697019872103E-16));
#1451=DIRECTION('center_axis',(1.,0.,0.));
#1452=DIRECTION('ref_axis',(0.,0.,-1.));
#1453=DIRECTION('',(0.,1.,0.));
#1454=DIRECTION('',(0.,0.,-1.));
#1455=DIRECTION('',(0.,1.,0.));
#1456=DIRECTION('center_axis',(-2.19350049419814E-16,0.,-1.));
#1457=DIRECTION('ref_axis',(1.,0.,-2.19350049419814E-16));
#1458=DIRECTION('',(0.,-1.,0.));
#1459=DIRECTION('',(-1.,0.,2.19350049419814E-16));
#1460=DIRECTION('',(0.,1.,0.));
#1461=DIRECTION('',(1.,0.,-2.19350049419814E-16));
#1462=DIRECTION('center_axis',(0.,-1.,0.));
#1463=DIRECTION('ref_axis',(1.,0.,6.66133814775093E-15));
#1464=DIRECTION('',(0.,-1.,0.));
#1465=DIRECTION('center_axis',(0.,1.,0.));
#1466=DIRECTION('ref_axis',(1.,0.,6.66133814775093E-15));
#1467=DIRECTION('center_axis',(1.,0.,4.38700098839624E-16));
#1468=DIRECTION('ref_axis',(-4.38700098839624E-16,0.,1.));
#1469=DIRECTION('',(0.,1.,0.));
#1470=DIRECTION('',(-4.38700098839624E-16,0.,1.));
#1471=DIRECTION('',(0.,1.,0.));
#1472=DIRECTION('',(4.38700098839624E-16,0.,-1.));
#1473=DIRECTION('center_axis',(1.83697019872103E-16,0.,-1.));
#1474=DIRECTION('ref_axis',(-1.,0.,-1.83697019872103E-16));
#1475=DIRECTION('',(0.,1.,0.));
#1476=DIRECTION('',(-1.,0.,-1.83697019872103E-16));
#1477=DIRECTION('center_axis',(0.,-1.,0.));
#1478=DIRECTION('ref_axis',(1.,0.,0.));
#1479=DIRECTION('center_axis',(0.,-1.,0.));
#1480=DIRECTION('ref_axis',(1.,0.,0.));
#1481=DIRECTION('',(0.707106781186547,0.707106781186547,8.65956056235493E-17));
#1482=DIRECTION('center_axis',(0.,1.,0.));
#1483=DIRECTION('ref_axis',(1.,0.,0.));
#1484=DIRECTION('center_axis',(0.,1.,0.));
#1485=DIRECTION('ref_axis',(1.,0.,0.));
#1486=DIRECTION('',(0.,1.,0.));
#1487=DIRECTION('center_axis',(0.,1.,0.));
#1488=DIRECTION('ref_axis',(1.,0.,0.));
#1489=DIRECTION('center_axis',(0.,1.,0.));
#1490=DIRECTION('ref_axis',(0.,0.,1.));
#1491=DIRECTION('center_axis',(0.,1.,0.));
#1492=DIRECTION('ref_axis',(-1.,0.,0.));
#1493=DIRECTION('',(1.83697019872103E-16,0.,-1.));
#1494=DIRECTION('',(-1.,0.,0.));
#1495=DIRECTION('',(1.,0.,1.22464679914735E-16));
#1496=DIRECTION('center_axis',(0.,-1.,0.));
#1497=DIRECTION('ref_axis',(1.,0.,0.));
#1498=DIRECTION('center_axis',(0.,1.,0.));
#1499=DIRECTION('ref_axis',(0.,0.,1.));
#1500=DIRECTION('center_axis',(0.,1.,0.));
#1501=DIRECTION('ref_axis',(-1.,0.,0.));
#1502=DIRECTION('',(-0.707106781186551,0.,-0.707106781186544));
#1503=DIRECTION('',(-1.,0.,0.));
#1504=DIRECTION('',(-0.707106781186551,0.,0.707106781186544));
#1505=DIRECTION('',(0.707106781186546,0.,-0.707106781186549));
#1506=DIRECTION('',(0.,0.,-1.));
#1507=DIRECTION('',(-0.707106781186541,0.,-0.707106781186554));
#1508=DIRECTION('',(0.707106781186556,0.,0.707106781186539));
#1509=DIRECTION('',(1.,0.,0.));
#1510=DIRECTION('',(0.707106781186546,0.,-0.707106781186549));
#1511=DIRECTION('center_axis',(0.,-1.,0.));
#1512=DIRECTION('ref_axis',(-1.83697019872103E-16,0.,1.));
#1513=DIRECTION('',(1.83697019872103E-16,0.,-1.));
#1514=DIRECTION('',(0.707106781186541,0.,0.707106781186554));
#1515=DIRECTION('',(0.,0.,1.));
#1516=DIRECTION('',(-0.707106781186546,0.,0.707106781186549));
#1517=DIRECTION('center_axis',(1.,0.,1.83697019872103E-16));
#1518=DIRECTION('ref_axis',(1.83697019872103E-16,0.,-1.));
#1519=DIRECTION('center_axis',(0.707106781186549,0.,0.707106781186546));
#1520=DIRECTION('ref_axis',(-0.707106781186546,0.,0.707106781186549));
#1521=DIRECTION('',(0.,-1.,0.));
#1522=DIRECTION('center_axis',(1.,0.,0.));
#1523=DIRECTION('ref_axis',(0.,0.,1.));
#1524=DIRECTION('',(0.,1.,0.));
#1525=DIRECTION('center_axis',(0.,-1.,0.));
#1526=DIRECTION('ref_axis',(-1.,0.,-1.22464679914735E-16));
#1527=DIRECTION('',(1.,0.,1.22464679914735E-16));
#1528=DIRECTION('',(-0.707106781186546,0.,0.707106781186549));
#1529=DIRECTION('',(-1.,0.,0.));
#1530=DIRECTION('',(-0.707106781186556,0.,-0.707106781186539));
#1531=DIRECTION('center_axis',(-1.22464679914735E-16,0.,1.));
#1532=DIRECTION('ref_axis',(1.,0.,1.22464679914735E-16));
#1533=DIRECTION('center_axis',(0.707106781186554,0.,-0.707106781186541));
#1534=DIRECTION('ref_axis',(0.707106781186541,0.,0.707106781186554));
#1535=DIRECTION('center_axis',(-0.707106781186539,0.,0.707106781186556));
#1536=DIRECTION('ref_axis',(-0.707106781186556,0.,-0.707106781186539));
#1537=DIRECTION('',(0.,-1.,0.));
#1538=DIRECTION('center_axis',(0.,0.,1.));
#1539=DIRECTION('ref_axis',(-1.,0.,0.));
#1540=DIRECTION('',(0.,1.,0.));
#1541=DIRECTION('center_axis',(0.,0.,-1.));
#1542=DIRECTION('ref_axis',(-1.,0.,0.));
#1543=DIRECTION('',(-1.,0.,0.));
#1544=DIRECTION('center_axis',(0.,-1.,0.));
#1545=DIRECTION('ref_axis',(1.,0.,0.));
#1546=DIRECTION('',(0.707106781186551,0.,-0.707106781186544));
#1547=DIRECTION('',(1.,0.,0.));
#1548=DIRECTION('',(0.707106781186551,0.,0.707106781186544));
#1549=DIRECTION('center_axis',(0.707106781186549,0.,0.707106781186546));
#1550=DIRECTION('ref_axis',(-0.707106781186546,0.,0.707106781186549));
#1551=DIRECTION('center_axis',(0.,1.,0.));
#1552=DIRECTION('ref_axis',(-1.,0.,0.));
#1553=DIRECTION('',(0.,-1.,0.));
#1554=DIRECTION('center_axis',(-0.707106781186544,0.,-0.707106781186551));
#1555=DIRECTION('ref_axis',(0.707106781186551,0.,-0.707106781186544));
#1556=DIRECTION('',(0.,1.,0.));
#1557=DIRECTION('center_axis',(0.707106781186544,0.,-0.707106781186551));
#1558=DIRECTION('ref_axis',(0.707106781186551,0.,0.707106781186544));
#1559=DIRECTION('',(0.,-1.,0.));
#1560=DIRECTION('center_axis',(0.,0.,-1.));
#1561=DIRECTION('ref_axis',(1.,0.,0.));
#1562=CARTESIAN_POINT('',(0.,0.,0.));
#1563=CARTESIAN_POINT('Origin',(5.04999999999999,13.3,5.3));
#1564=CARTESIAN_POINT('',(10.1,13.8,4.8));
#1565=CARTESIAN_POINT('',(31.5,13.8,4.80000000000001));
#1566=CARTESIAN_POINT('',(5.04999999999999,13.8,4.8));
#1567=CARTESIAN_POINT('',(31.5,12.8,5.8));
#1568=CARTESIAN_POINT('',(31.5,13.3,5.3));
#1569=CARTESIAN_POINT('',(11.1,12.8,5.8));
#1570=CARTESIAN_POINT('',(5.04999999999999,12.8,5.8));
#1571=CARTESIAN_POINT('',(11.1,12.8,5.8));
#1572=CARTESIAN_POINT('Origin',(4.75,13.3,10.6));
#1573=CARTESIAN_POINT('',(4.8,13.8,10.1));
#1574=CARTESIAN_POINT('',(9.49999999999999,13.8,10.1));
#1575=CARTESIAN_POINT('',(4.75,13.8,10.1));
#1576=CARTESIAN_POINT('',(9.49999999999999,12.8,11.1));
#1577=CARTESIAN_POINT('',(9.49999999999999,13.8,10.1));
#1578=CARTESIAN_POINT('',(5.8,12.8,11.1));
#1579=CARTESIAN_POINT('',(4.75,12.8,11.1));
#1580=CARTESIAN_POINT('',(5.8,12.8,11.1));
#1581=CARTESIAN_POINT('Origin',(9.5,13.3,9.50000000000004));
#1582=CARTESIAN_POINT('',(10.1,13.8,9.50000000000004));
#1583=CARTESIAN_POINT('',(11.1,12.8,9.50000000000003));
#1584=CARTESIAN_POINT('',(10.1,13.8,9.50000000000004));
#1585=CARTESIAN_POINT('Origin',(9.5,12.8,9.50000000000004));
#1586=CARTESIAN_POINT('Origin',(9.5,13.8,9.50000000000004));
#1587=CARTESIAN_POINT('Origin',(10.6,13.3,2.21928932188139));
#1588=CARTESIAN_POINT('',(11.1,12.8,2.21928932188139));
#1589=CARTESIAN_POINT('',(10.1,13.8,2.21928932188139));
#1590=CARTESIAN_POINT('Origin',(5.3,13.3,15.75));
#1591=CARTESIAN_POINT('',(5.8,12.8,31.5));
#1592=CARTESIAN_POINT('',(5.8,12.8,15.75));
#1593=CARTESIAN_POINT('',(4.8,13.8,31.5));
#1594=CARTESIAN_POINT('',(2.9,15.7,31.5));
#1595=CARTESIAN_POINT('',(4.8,13.8,15.75));
#1596=CARTESIAN_POINT('Origin',(10.1,12.8,4.8));
#1597=CARTESIAN_POINT('',(10.1,18.8,4.8));
#1598=CARTESIAN_POINT('',(10.1,18.9,4.8));
#1599=CARTESIAN_POINT('',(31.5,18.8,4.80000000000001));
#1600=CARTESIAN_POINT('',(3.99999999999998,18.8,4.8));
#1601=CARTESIAN_POINT('',(31.5,12.8,4.80000000000001));
#1602=CARTESIAN_POINT('Origin',(10.1,25.,4.43857864376277));
#1603=CARTESIAN_POINT('',(10.1,24.6,9.50000000000004));
#1604=CARTESIAN_POINT('',(10.1,25.,9.50000000000004));
#1605=CARTESIAN_POINT('',(10.1,24.6,4.39715728752546));
#1606=CARTESIAN_POINT('',(10.1,24.6,2.21928932188139));
#1607=CARTESIAN_POINT('',(10.1,18.8,4.39715728752546));
#1608=CARTESIAN_POINT('',(10.1,25.,4.39715728752546));
#1609=CARTESIAN_POINT('',(10.1,18.8,2.21928932188139));
#1610=CARTESIAN_POINT('Origin',(9.5,25.,9.50000000000004));
#1611=CARTESIAN_POINT('',(9.49999999999999,24.6,10.1));
#1612=CARTESIAN_POINT('',(9.49999999999999,25.,10.1));
#1613=CARTESIAN_POINT('Origin',(9.5,24.6,9.50000000000004));
#1614=CARTESIAN_POINT('Origin',(9.49999999999999,25.,10.1));
#1615=CARTESIAN_POINT('',(4.8,18.8,10.1));
#1616=CARTESIAN_POINT('',(4.8,18.9,10.1));
#1617=CARTESIAN_POINT('',(4.39715728752548,18.8,10.1));
#1618=CARTESIAN_POINT('',(4.75,18.8,10.1));
#1619=CARTESIAN_POINT('',(4.39715728752548,24.6,10.1));
#1620=CARTESIAN_POINT('',(4.39715728752548,25.,10.1));
#1621=CARTESIAN_POINT('',(4.75,24.6,10.1));
#1622=CARTESIAN_POINT('Origin',(4.8,12.8,31.5));
#1623=CARTESIAN_POINT('',(4.8,18.8,31.5));
#1624=CARTESIAN_POINT('',(4.8,12.8,31.5));
#1625=CARTESIAN_POINT('',(4.8,18.8,31.5));
#1626=CARTESIAN_POINT('Origin',(-5.3,13.3,5.04999999999999));
#1627=CARTESIAN_POINT('',(-4.8,13.8,10.1));
#1628=CARTESIAN_POINT('',(-4.8,13.8,31.5));
#1629=CARTESIAN_POINT('',(-4.8,13.8,5.04999999999999));
#1630=CARTESIAN_POINT('',(-5.8,12.8,31.5));
#1631=CARTESIAN_POINT('',(-5.3,13.3,31.5));
#1632=CARTESIAN_POINT('',(-5.8,12.8,11.1));
#1633=CARTESIAN_POINT('',(-5.8,12.8,5.04999999999999));
#1634=CARTESIAN_POINT('',(-5.8,12.8,11.1));
#1635=CARTESIAN_POINT('Origin',(-10.6,13.3,4.75000000000002));
#1636=CARTESIAN_POINT('',(-10.1,13.8,4.39715728752546));
#1637=CARTESIAN_POINT('',(-10.1,13.8,9.50000000000004));
#1638=CARTESIAN_POINT('',(-10.1,13.8,4.75000000000002));
#1639=CARTESIAN_POINT('',(-11.1,12.8,9.50000000000004));
#1640=CARTESIAN_POINT('',(-10.1,13.8,9.50000000000004));
#1641=CARTESIAN_POINT('',(-11.1,12.8,3.98294372515237));
#1642=CARTESIAN_POINT('',(-11.1,12.8,4.75000000000002));
#1643=CARTESIAN_POINT('',(-11.1,12.8,3.98294372515237));
#1644=CARTESIAN_POINT('Origin',(-6.81461940777128,13.3,0.404669914110135));
#1645=CARTESIAN_POINT('',(-10.1278427124746,12.8,3.01078643762699));
#1646=CARTESIAN_POINT('',(-7.16817279836456,12.8,0.0511165235168645));
#1647=CARTESIAN_POINT('',(-9.12784271247463,13.8,3.42500000000007));
#1648=CARTESIAN_POINT('',(-10.1278427124746,12.8,3.01078643762699));
#1649=CARTESIAN_POINT('',(-6.46106601717801,13.8,0.758223304703405));
#1650=CARTESIAN_POINT('Origin',(-9.62784271247463,13.3,-1.71250000000004));
#1651=CARTESIAN_POINT('',(-10.1278427124746,12.8,-3.01078643762684));
#1652=CARTESIAN_POINT('',(-10.1278427124746,12.8,-1.71250000000004));
#1653=CARTESIAN_POINT('',(-9.12784271247463,13.8,-3.42499999999993));
#1654=CARTESIAN_POINT('',(-10.1278427124746,12.8,-3.01078643762684));
#1655=CARTESIAN_POINT('',(-9.12784271247463,13.8,-1.71250000000004));
#1656=CARTESIAN_POINT('Origin',(-6.10783008588996,13.3,0.302119407771306));
#1657=CARTESIAN_POINT('',(-11.1,12.8,-3.98294372515221));
#1658=CARTESIAN_POINT('',(-6.46138347648323,12.8,0.655672798364579));
#1659=CARTESIAN_POINT('',(-10.1,13.8,-4.39715728752531));
#1660=CARTESIAN_POINT('',(-11.1,12.8,-3.98294372515221));
#1661=CARTESIAN_POINT('',(-5.75427669529668,13.8,-0.0514339828219666));
#1662=CARTESIAN_POINT('Origin',(-4.75,13.3,-10.6));
#1663=CARTESIAN_POINT('',(-4.8,13.8,-10.1));
#1664=CARTESIAN_POINT('',(-9.49999999999999,13.8,-10.1));
#1665=CARTESIAN_POINT('',(-4.75,13.8,-10.1));
#1666=CARTESIAN_POINT('',(-9.49999999999999,12.8,-11.1));
#1667=CARTESIAN_POINT('',(-9.49999999999999,13.8,-10.1));
#1668=CARTESIAN_POINT('',(-5.8,12.8,-11.1));
#1669=CARTESIAN_POINT('',(-4.75,12.8,-11.1));
#1670=CARTESIAN_POINT('',(-5.8,12.8,-11.1));
#1671=CARTESIAN_POINT('Origin',(-5.3,13.3,-15.75));
#1672=CARTESIAN_POINT('',(-5.8,12.8,-31.5));
#1673=CARTESIAN_POINT('',(-5.8,12.8,-15.75));
#1674=CARTESIAN_POINT('',(-4.8,13.8,-31.5));
#1675=CARTESIAN_POINT('',(-2.9,15.7,-31.5));
#1676=CARTESIAN_POINT('',(-4.8,13.8,-15.75));
#1677=CARTESIAN_POINT('Origin',(-9.5,13.3,-9.49999999999998));
#1678=CARTESIAN_POINT('',(-10.1,13.8,-9.49999999999998));
#1679=CARTESIAN_POINT('',(-11.1,12.8,-9.49999999999998));
#1680=CARTESIAN_POINT('',(-10.1,13.8,-9.49999999999998));
#1681=CARTESIAN_POINT('Origin',(-9.5,12.8,-9.49999999999998));
#1682=CARTESIAN_POINT('Origin',(-9.5,13.8,-9.49999999999998));
#1683=CARTESIAN_POINT('Origin',(-10.6,13.3,-2.21928932188131));
#1684=CARTESIAN_POINT('',(-11.1,12.8,-2.21928932188131));
#1685=CARTESIAN_POINT('',(-10.1,13.8,-2.21928932188131));
#1686=CARTESIAN_POINT('Origin',(-9.5,13.3,9.50000000000004));
#1687=CARTESIAN_POINT('',(-9.49999999999999,13.8,10.1));
#1688=CARTESIAN_POINT('',(-9.49999999999999,12.8,11.1));
#1689=CARTESIAN_POINT('',(-9.49999999999999,13.8,10.1));
#1690=CARTESIAN_POINT('Origin',(-9.5,12.8,9.50000000000004));
#1691=CARTESIAN_POINT('Origin',(-9.5,13.8,9.50000000000004));
#1692=CARTESIAN_POINT('Origin',(-2.21928932188129,13.3,10.6));
#1693=CARTESIAN_POINT('',(-2.21928932188129,12.8,11.1));
#1694=CARTESIAN_POINT('',(-2.21928932188129,13.8,10.1));
#1695=CARTESIAN_POINT('Origin',(-4.8,12.8,10.1));
#1696=CARTESIAN_POINT('',(-4.8,18.8,10.1));
#1697=CARTESIAN_POINT('',(-4.8,18.9,10.1));
#1698=CARTESIAN_POINT('',(-4.8,18.8,31.5));
#1699=CARTESIAN_POINT('',(-4.8,18.8,3.99999999999998));
#1700=CARTESIAN_POINT('',(-4.8,12.8,31.5));
#1701=CARTESIAN_POINT('Origin',(-4.43857864376259,25.,10.1));
#1702=CARTESIAN_POINT('',(-9.49999999999999,24.6,10.1));
#1703=CARTESIAN_POINT('',(-9.49999999999999,25.,10.1));
#1704=CARTESIAN_POINT('',(-4.39715728752528,24.6,10.1));
#1705=CARTESIAN_POINT('',(-2.21928932188129,24.6,10.1));
#1706=CARTESIAN_POINT('',(-4.39715728752528,18.8,10.1));
#1707=CARTESIAN_POINT('',(-4.39715728752528,25.,10.1));
#1708=CARTESIAN_POINT('',(-2.2192893218813,18.8,10.1));
#1709=CARTESIAN_POINT('Origin',(-9.5,25.,9.50000000000004));
#1710=CARTESIAN_POINT('',(-10.1,24.6,9.50000000000004));
#1711=CARTESIAN_POINT('',(-10.1,25.,9.50000000000004));
#1712=CARTESIAN_POINT('Origin',(-9.5,24.6,9.50000000000004));
#1713=CARTESIAN_POINT('Origin',(-10.1,25.,9.50000000000004));
#1714=CARTESIAN_POINT('',(-10.1,24.6,4.39715728752546));
#1715=CARTESIAN_POINT('',(-10.1,25.,4.39715728752546));
#1716=CARTESIAN_POINT('',(-10.1,24.6,4.75000000000002));
#1717=CARTESIAN_POINT('Origin',(-10.0707106781187,25.,4.36786796564412));
#1718=CARTESIAN_POINT('',(-9.12784271247463,24.6,3.42500000000007));
#1719=CARTESIAN_POINT('',(-9.12784271247463,18.9,3.42500000000007));
#1720=CARTESIAN_POINT('',(-6.46106601717801,24.6,0.758223304703405));
#1721=CARTESIAN_POINT('Origin',(-9.12784271247463,12.8,-3.42500000000007));
#1722=CARTESIAN_POINT('',(-9.12784271247463,24.6,-3.42499999999993));
#1723=CARTESIAN_POINT('',(-9.12784271247463,18.9,-3.42499999999993));
#1724=CARTESIAN_POINT('',(-9.12784271247463,24.6,-1.71250000000004));
#1725=CARTESIAN_POINT('Origin',(-8.65713203435599,25.,-2.95428932188129));
#1726=CARTESIAN_POINT('',(-10.1,24.6,-4.39715728752531));
#1727=CARTESIAN_POINT('',(-10.1,25.,-4.39715728752531));
#1728=CARTESIAN_POINT('',(-5.75427669529668,24.6,-0.0514339828219668));
#1729=CARTESIAN_POINT('Origin',(-10.1,25.,-4.43857864376262));
#1730=CARTESIAN_POINT('',(-10.1,24.6,-9.49999999999998));
#1731=CARTESIAN_POINT('',(-10.1,25.,-9.49999999999998));
#1732=CARTESIAN_POINT('',(-10.1,24.6,-2.21928932188131));
#1733=CARTESIAN_POINT('Origin',(-9.5,25.,-9.49999999999998));
#1734=CARTESIAN_POINT('',(-9.49999999999999,24.6,-10.1));
#1735=CARTESIAN_POINT('',(-9.49999999999999,25.,-10.1));
#1736=CARTESIAN_POINT('Origin',(-9.5,24.6,-9.49999999999998));
#1737=CARTESIAN_POINT('Origin',(-9.49999999999999,25.,-10.1));
#1738=CARTESIAN_POINT('',(-4.8,18.8,-10.1));
#1739=CARTESIAN_POINT('',(-4.8,18.9,-10.1));
#1740=CARTESIAN_POINT('',(-4.39715728752537,18.8,-10.1));
#1741=CARTESIAN_POINT('',(-4.75,18.8,-10.1));
#1742=CARTESIAN_POINT('',(-4.39715728752537,24.6,-10.1));
#1743=CARTESIAN_POINT('',(-4.39715728752537,25.,-10.1));
#1744=CARTESIAN_POINT('',(-4.75,24.6,-10.1));
#1745=CARTESIAN_POINT('Origin',(-4.8,12.8,-31.5));
#1746=CARTESIAN_POINT('',(-4.8,18.8,-31.5));
#1747=CARTESIAN_POINT('',(-4.8,12.8,-31.5));
#1748=CARTESIAN_POINT('',(-4.8,18.8,-31.5));
#1749=CARTESIAN_POINT('Origin',(10.6,13.3,-4.74999999999999));
#1750=CARTESIAN_POINT('',(10.1,13.8,-4.8));
#1751=CARTESIAN_POINT('',(10.1,13.8,-9.49999999999998));
#1752=CARTESIAN_POINT('',(10.1,13.8,-4.74999999999999));
#1753=CARTESIAN_POINT('',(11.1,12.8,-9.49999999999998));
#1754=CARTESIAN_POINT('',(10.1,13.8,-9.49999999999998));
#1755=CARTESIAN_POINT('',(11.1,12.8,-5.8));
#1756=CARTESIAN_POINT('',(11.1,12.8,-4.74999999999999));
#1757=CARTESIAN_POINT('',(11.1,12.8,-5.8));
#1758=CARTESIAN_POINT('Origin',(9.5,13.3,-9.49999999999998));
#1759=CARTESIAN_POINT('',(9.5,13.8,-10.1));
#1760=CARTESIAN_POINT('',(9.49999999999999,12.8,-11.1));
#1761=CARTESIAN_POINT('',(9.5,13.8,-10.1));
#1762=CARTESIAN_POINT('Origin',(9.5,12.8,-9.49999999999998));
#1763=CARTESIAN_POINT('Origin',(9.5,13.8,-9.49999999999998));
#1764=CARTESIAN_POINT('Origin',(2.21928932188134,13.3,-10.6));
#1765=CARTESIAN_POINT('',(5.8,12.8,-11.1));
#1766=CARTESIAN_POINT('',(2.21928932188134,12.8,-11.1));
#1767=CARTESIAN_POINT('',(4.8,13.8,-10.1));
#1768=CARTESIAN_POINT('',(2.21928932188134,13.8,-10.1));
#1769=CARTESIAN_POINT('',(4.8,13.8,-10.1));
#1770=CARTESIAN_POINT('Origin',(5.3,13.3,-5.04999999999999));
#1771=CARTESIAN_POINT('',(4.8,13.8,-31.5));
#1772=CARTESIAN_POINT('',(4.8,13.8,-5.04999999999999));
#1773=CARTESIAN_POINT('',(5.8,12.8,-31.5));
#1774=CARTESIAN_POINT('',(5.3,13.3,-31.5));
#1775=CARTESIAN_POINT('',(5.8,12.8,-5.04999999999999));
#1776=CARTESIAN_POINT('Origin',(15.75,13.3,-5.3));
#1777=CARTESIAN_POINT('',(31.5,12.8,-5.79999999999999));
#1778=CARTESIAN_POINT('',(15.75,12.8,-5.8));
#1779=CARTESIAN_POINT('',(31.5,13.8,-4.79999999999999));
#1780=CARTESIAN_POINT('',(31.5,15.7,-2.9));
#1781=CARTESIAN_POINT('',(15.75,13.8,-4.8));
#1782=CARTESIAN_POINT('Origin',(4.8,12.8,-10.1));
#1783=CARTESIAN_POINT('',(4.8,18.8,-10.1));
#1784=CARTESIAN_POINT('',(4.8,12.8,-10.1));
#1785=CARTESIAN_POINT('',(4.8,18.8,-31.5));
#1786=CARTESIAN_POINT('',(4.8,18.8,-3.99999999999998));
#1787=CARTESIAN_POINT('',(4.8,12.8,-31.5));
#1788=CARTESIAN_POINT('Origin',(4.43857864376269,25.,-10.1));
#1789=CARTESIAN_POINT('',(9.5,24.6,-10.1));
#1790=CARTESIAN_POINT('',(9.5,25.,-10.1));
#1791=CARTESIAN_POINT('',(4.39715728752538,24.6,-10.1));
#1792=CARTESIAN_POINT('',(2.21928932188134,24.6,-10.1));
#1793=CARTESIAN_POINT('',(4.39715728752538,18.8,-10.1));
#1794=CARTESIAN_POINT('',(4.39715728752538,25.,-10.1));
#1795=CARTESIAN_POINT('',(2.21928932188134,18.8,-10.1));
#1796=CARTESIAN_POINT('Origin',(9.5,25.,-9.49999999999998));
#1797=CARTESIAN_POINT('',(10.1,24.6,-9.49999999999998));
#1798=CARTESIAN_POINT('',(10.1,25.,-9.49999999999998));
#1799=CARTESIAN_POINT('Origin',(9.5,24.6,-9.49999999999998));
#1800=CARTESIAN_POINT('Origin',(10.1,25.,-9.49999999999998));
#1801=CARTESIAN_POINT('',(10.1,18.8,-4.8));
#1802=CARTESIAN_POINT('',(10.1,18.9,-4.8));
#1803=CARTESIAN_POINT('',(10.1,18.8,-4.3971572875253));
#1804=CARTESIAN_POINT('',(10.1,18.8,-4.74999999999999));
#1805=CARTESIAN_POINT('',(10.1,24.6,-4.3971572875253));
#1806=CARTESIAN_POINT('',(10.1,25.,-4.3971572875253));
#1807=CARTESIAN_POINT('',(10.1,24.6,-4.74999999999999));
#1808=CARTESIAN_POINT('Origin',(31.5,12.8,-4.79999999999999));
#1809=CARTESIAN_POINT('',(31.5,18.8,-4.79999999999999));
#1810=CARTESIAN_POINT('',(31.5,12.8,-4.79999999999999));
#1811=CARTESIAN_POINT('',(31.5,18.8,-4.79999999999999));
#1812=CARTESIAN_POINT('Origin',(-24.,13.1,3.70505994368319E-14));
#1813=CARTESIAN_POINT('',(-26.925,12.8,3.66923902480813E-14));
#1814=CARTESIAN_POINT('Origin',(-24.,12.8,3.70505994368319E-14));
#1815=CARTESIAN_POINT('',(-26.325,13.4,3.73353298176337E-14));
#1816=CARTESIAN_POINT('',(-26.625,13.1,3.67291296520557E-14));
#1817=CARTESIAN_POINT('Origin',(-24.,13.4,3.70505994368319E-14));
#1818=CARTESIAN_POINT('Origin',(-24.,12.8,3.70505994368319E-14));
#1819=CARTESIAN_POINT('',(-26.325,16.8,3.67658690560301E-14));
#1820=CARTESIAN_POINT('',(-26.325,12.8,3.73353298176337E-14));
#1821=CARTESIAN_POINT('Origin',(-24.,16.8,3.70505994368319E-14));
#1822=CARTESIAN_POINT('Origin',(0.,12.8,0.));
#1823=CARTESIAN_POINT('',(32.5,12.8,-3.9801020972289E-15));
#1824=CARTESIAN_POINT('Origin',(0.,12.8,0.));
#1825=CARTESIAN_POINT('',(31.5,12.8,2.40000000000001));
#1826=CARTESIAN_POINT('',(2.4,12.8,-31.5));
#1827=CARTESIAN_POINT('',(-2.4,12.8,31.5));
#1828=CARTESIAN_POINT('Origin',(-24.,16.8,3.69149155687865E-14));
#1829=CARTESIAN_POINT('Origin',(0.,24.6,0.));
#1830=CARTESIAN_POINT('',(32.5,24.6,-3.9801020972289E-15));
#1831=CARTESIAN_POINT('Origin',(0.,24.6,0.));
#1832=CARTESIAN_POINT('',(-3.42500000000001,24.6,-9.12784271247462));
#1833=CARTESIAN_POINT('',(-0.758223304703355,24.6,-6.46106601717799));
#1834=CARTESIAN_POINT('',(3.425,24.6,-9.12784271247462));
#1835=CARTESIAN_POINT('',(-2.65,24.6,-9.12784271247462));
#1836=CARTESIAN_POINT('',(0.0514339828220092,24.6,-5.75427669529666));
#1837=CARTESIAN_POINT('',(9.12784271247463,24.6,-3.42499999999993));
#1838=CARTESIAN_POINT('',(6.46106601717801,24.6,-0.758223304703303));
#1839=CARTESIAN_POINT('',(9.12784271247463,24.6,3.42500000000007));
#1840=CARTESIAN_POINT('',(9.12784271247463,24.6,-1.46249999999997));
#1841=CARTESIAN_POINT('',(5.75427669529667,24.6,0.0514339828220495));
#1842=CARTESIAN_POINT('',(3.42500000000007,24.6,9.12784271247465));
#1843=CARTESIAN_POINT('',(0.758223304703402,24.6,6.46106601717804));
#1844=CARTESIAN_POINT('',(-3.42499999999989,24.6,9.12784271247465));
#1845=CARTESIAN_POINT('',(1.46250000000003,24.6,9.12784271247465));
#1846=CARTESIAN_POINT('',(-0.0514339828219557,24.6,5.7542766952967));
#1847=CARTESIAN_POINT('Origin',(10.7,18.8,4.18600416188181E-15));
#1848=CARTESIAN_POINT('',(31.5,18.8,4.80000000000001));
#1849=CARTESIAN_POINT('',(9.12784271247463,18.8,3.42500000000007));
#1850=CARTESIAN_POINT('',(8.42927669529661,18.8,2.72643398282204));
#1851=CARTESIAN_POINT('',(9.12784271247463,18.8,-3.42499999999993));
#1852=CARTESIAN_POINT('',(9.12784271247463,18.8,-1.46249999999997));
#1853=CARTESIAN_POINT('',(9.13606601717799,18.8,-3.43322330470329));
#1854=CARTESIAN_POINT('Origin',(31.5,12.8,4.80000000000001));
#1855=CARTESIAN_POINT('Origin',(10.0707106781187,25.,-4.36786796564396));
#1856=CARTESIAN_POINT('',(9.12784271247463,25.,-3.42499999999993));
#1857=CARTESIAN_POINT('Origin',(9.12784271247463,25.,-2.92499999999995));
#1858=CARTESIAN_POINT('',(9.12784271247463,25.,3.42500000000007));
#1859=CARTESIAN_POINT('Origin',(-3.53081812433798E-15,18.8,10.7));
#1860=CARTESIAN_POINT('',(-4.8,18.8,31.5));
#1861=CARTESIAN_POINT('',(-3.42499999999989,18.8,9.12784271247465));
#1862=CARTESIAN_POINT('',(-2.72643398282195,18.8,8.42927669529671));
#1863=CARTESIAN_POINT('',(3.42500000000007,18.8,9.12784271247465));
#1864=CARTESIAN_POINT('',(1.46250000000003,18.8,9.12784271247465));
#1865=CARTESIAN_POINT('',(3.43322330470339,18.8,9.13606601717797));
#1866=CARTESIAN_POINT('Origin',(-4.8,12.8,31.5));
#1867=CARTESIAN_POINT('Origin',(8.65713203435597,25.,2.95428932188141));
#1868=CARTESIAN_POINT('Origin',(4.36786796564413,25.,10.0707106781187));
#1869=CARTESIAN_POINT('',(3.42500000000007,25.,9.12784271247465));
#1870=CARTESIAN_POINT('Origin',(2.92500000000006,25.,9.12784271247465));
#1871=CARTESIAN_POINT('',(-3.42499999999989,25.,9.12784271247465));
#1872=CARTESIAN_POINT('Origin',(4.8,12.8,-31.5));
#1873=CARTESIAN_POINT('',(4.8,18.8,-31.5));
#1874=CARTESIAN_POINT('Origin',(2.22044604925031E-15,18.8,-10.7));
#1875=CARTESIAN_POINT('',(3.425,18.8,-9.12784271247462));
#1876=CARTESIAN_POINT('',(2.726433982822,18.8,-8.42927669529663));
#1877=CARTESIAN_POINT('',(-3.42500000000001,18.8,-9.12784271247462));
#1878=CARTESIAN_POINT('',(-2.65,18.8,-9.12784271247462));
#1879=CARTESIAN_POINT('',(-3.43322330470335,18.8,-9.13606601717796));
#1880=CARTESIAN_POINT('Origin',(-2.95428932188128,25.,8.65713203435604));
#1881=CARTESIAN_POINT('Origin',(0.,13.,0.));
#1882=CARTESIAN_POINT('',(32.5,13.,-3.9801020972289E-15));
#1883=CARTESIAN_POINT('Origin',(2.95428932188134,25.,-8.65713203435597));
#1884=CARTESIAN_POINT('',(3.425,25.,-9.12784271247462));
#1885=CARTESIAN_POINT('Origin',(-4.36786796564403,25.,-10.0707106781186));
#1886=CARTESIAN_POINT('',(-3.42500000000001,25.,-9.12784271247462));
#1887=CARTESIAN_POINT('Origin',(-5.3,25.,-9.12784271247462));
#1888=UNCERTAINTY_MEASURE_WITH_UNIT(LENGTH_MEASURE(0.01),#1892,
'DISTANCE_ACCURACY_VALUE',
'Maximum model space distance between geometric entities at asserted c
onnectivities');
#1889=UNCERTAINTY_MEASURE_WITH_UNIT(LENGTH_MEASURE(0.01),#1892,
'DISTANCE_ACCURACY_VALUE',
'Maximum model space distance between geometric entities at asserted c
onnectivities');
#1890=(
GEOMETRIC_REPRESENTATION_CONTEXT(3)
GLOBAL_UNCERTAINTY_ASSIGNED_CONTEXT((#1888))
GLOBAL_UNIT_ASSIGNED_CONTEXT((#1892,#1894,#1895))
REPRESENTATION_CONTEXT('','3D')
);
#1891=(
GEOMETRIC_REPRESENTATION_CONTEXT(3)
GLOBAL_UNCERTAINTY_ASSIGNED_CONTEXT((#1889))
GLOBAL_UNIT_ASSIGNED_CONTEXT((#1892,#1894,#1895))
REPRESENTATION_CONTEXT('','3D')
);
#1892=(
LENGTH_UNIT()
NAMED_UNIT(*)
SI_UNIT(.MILLI.,.METRE.)
);
#1893=(
LENGTH_UNIT()
NAMED_UNIT(*)
SI_UNIT($,.METRE.)
);
#1894=(
NAMED_UNIT(*)
PLANE_ANGLE_UNIT()
SI_UNIT($,.RADIAN.)
);
#1895=(
NAMED_UNIT(*)
SI_UNIT($,.STERADIAN.)
SOLID_ANGLE_UNIT()
);
#1896=SHAPE_DEFINITION_REPRESENTATION(#1897,#1898);
#1897=PRODUCT_DEFINITION_SHAPE('',$,#1900);
#1898=SHAPE_REPRESENTATION('',(#1175),#1890);
#1899=PRODUCT_DEFINITION_CONTEXT('part definition',#1904,'design');
#1900=PRODUCT_DEFINITION('2026-09-16-11-41-31-774','(Unsaved)',#1901,#1899);
#1901=PRODUCT_DEFINITION_FORMATION('',$,#1906);
#1902=PRODUCT_RELATED_PRODUCT_CATEGORY('(Unsaved)','(Unsaved)',(#1906));
#1903=APPLICATION_PROTOCOL_DEFINITION('international standard',
'automotive_design',2009,#1904);
#1904=APPLICATION_CONTEXT(
'Core Data for Automotive Mechanical Design Process');
#1905=PRODUCT_CONTEXT('part definition',#1904,'mechanical');
#1906=PRODUCT('2026-09-16-11-41-31-774','(Unsaved)',$,(#1905));
#1907=PRESENTATION_STYLE_ASSIGNMENT((#1908));
#1908=SURFACE_STYLE_USAGE(.BOTH.,#1909);
#1909=SURFACE_SIDE_STYLE('',(#1910));
#1910=SURFACE_STYLE_FILL_AREA(#1911);
#1911=FILL_AREA_STYLE('Steel - Satin',(#1912));
#1912=FILL_AREA_STYLE_COLOUR('Steel - Satin',#1913);
#1913=COLOUR_RGB('Steel - Satin',0.627450980392157,0.627450980392157,0.627450980392157);
ENDSEC;
END-ISO-10303-21;
