ISO-10303-21;
HEADER;
/* Generated by software containing ST-Developer
 * from STEP Tools, Inc. (www.steptools.com) 
 */

FILE_DESCRIPTION(
/* description */ (''),
/* implementation_level */ '2;1');

FILE_NAME(
/* name */ 'freestanding-base-bracket-cover_v1.0.step',
/* time_stamp */ '2026-08-29T11:09:42-05:00',
/* author */ (''),
/* organization */ (''),
/* preprocessor_version */ 'ST-DEVELOPER v20.1',
/* originating_system */ 'Autodesk Translation Framework v15.8.0.0',
/* authorisation */ '');

FILE_SCHEMA (('AUTOMOTIVE_DESIGN { 1 0 10303 214 3 1 1 }'));
ENDSEC;

DATA;
#10=MECHANICAL_DESIGN_GEOMETRIC_PRESENTATION_REPRESENTATION('',(#13),#1356);
#11=SHAPE_REPRESENTATION_RELATIONSHIP('SRR','None',#1363,#12);
#12=ADVANCED_BREP_SHAPE_REPRESENTATION('',(#14),#1355);
#13=STYLED_ITEM('',(#1372),#14);
#14=MANIFOLD_SOLID_BREP('Body1',#833);
#15=FACE_BOUND('',#104,.T.);
#16=FACE_BOUND('',#105,.T.);
#17=FACE_BOUND('',#108,.T.);
#18=PLANE('',#852);
#19=PLANE('',#858);
#20=PLANE('',#859);
#21=PLANE('',#865);
#22=PLANE('',#866);
#23=PLANE('',#867);
#24=PLANE('',#868);
#25=PLANE('',#869);
#26=PLANE('',#870);
#27=PLANE('',#871);
#28=PLANE('',#872);
#29=PLANE('',#874);
#30=PLANE('',#875);
#31=PLANE('',#876);
#32=PLANE('',#877);
#33=PLANE('',#878);
#34=PLANE('',#879);
#35=PLANE('',#880);
#36=PLANE('',#881);
#37=PLANE('',#882);
#38=PLANE('',#884);
#39=PLANE('',#885);
#40=PLANE('',#886);
#41=PLANE('',#887);
#42=PLANE('',#888);
#43=PLANE('',#889);
#44=PLANE('',#890);
#45=PLANE('',#891);
#46=PLANE('',#892);
#47=PLANE('',#894);
#48=PLANE('',#895);
#49=PLANE('',#898);
#50=PLANE('',#899);
#51=PLANE('',#900);
#52=PLANE('',#901);
#53=CYLINDRICAL_SURFACE('',#850,2.325);
#54=CYLINDRICAL_SURFACE('',#873,0.600000000000001);
#55=CYLINDRICAL_SURFACE('',#883,0.600000000000001);
#56=CYLINDRICAL_SURFACE('',#893,0.600000000000001);
#57=CYLINDRICAL_SURFACE('',#896,0.600000000000002);
#58=CYLINDRICAL_SURFACE('',#897,32.5);
#59=FACE_OUTER_BOUND('',#101,.T.);
#60=FACE_OUTER_BOUND('',#102,.T.);
#61=FACE_OUTER_BOUND('',#103,.T.);
#62=FACE_OUTER_BOUND('',#106,.T.);
#63=FACE_OUTER_BOUND('',#107,.T.);
#64=FACE_OUTER_BOUND('',#109,.T.);
#65=FACE_OUTER_BOUND('',#110,.T.);
#66=FACE_OUTER_BOUND('',#111,.T.);
#67=FACE_OUTER_BOUND('',#112,.T.);
#68=FACE_OUTER_BOUND('',#113,.T.);
#69=FACE_OUTER_BOUND('',#114,.T.);
#70=FACE_OUTER_BOUND('',#115,.T.);
#71=FACE_OUTER_BOUND('',#116,.T.);
#72=FACE_OUTER_BOUND('',#117,.T.);
#73=FACE_OUTER_BOUND('',#118,.T.);
#74=FACE_OUTER_BOUND('',#119,.T.);
#75=FACE_OUTER_BOUND('',#120,.T.);
#76=FACE_OUTER_BOUND('',#121,.T.);
#77=FACE_OUTER_BOUND('',#122,.T.);
#78=FACE_OUTER_BOUND('',#123,.T.);
#79=FACE_OUTER_BOUND('',#124,.T.);
#80=FACE_OUTER_BOUND('',#125,.T.);
#81=FACE_OUTER_BOUND('',#126,.T.);
#82=FACE_OUTER_BOUND('',#127,.T.);
#83=FACE_OUTER_BOUND('',#128,.T.);
#84=FACE_OUTER_BOUND('',#129,.T.);
#85=FACE_OUTER_BOUND('',#130,.T.);
#86=FACE_OUTER_BOUND('',#131,.T.);
#87=FACE_OUTER_BOUND('',#132,.T.);
#88=FACE_OUTER_BOUND('',#133,.T.);
#89=FACE_OUTER_BOUND('',#134,.T.);
#90=FACE_OUTER_BOUND('',#135,.T.);
#91=FACE_OUTER_BOUND('',#136,.T.);
#92=FACE_OUTER_BOUND('',#137,.T.);
#93=FACE_OUTER_BOUND('',#138,.T.);
#94=FACE_OUTER_BOUND('',#139,.T.);
#95=FACE_OUTER_BOUND('',#140,.T.);
#96=FACE_OUTER_BOUND('',#141,.T.);
#97=FACE_OUTER_BOUND('',#142,.T.);
#98=FACE_OUTER_BOUND('',#143,.T.);
#99=FACE_OUTER_BOUND('',#144,.T.);
#100=FACE_OUTER_BOUND('',#145,.T.);
#101=EDGE_LOOP('',(#558,#559,#560,#561));
#102=EDGE_LOOP('',(#562,#563,#564,#565));
#103=EDGE_LOOP('',(#566));
#104=EDGE_LOOP('',(#567,#568,#569,#570,#571,#572,#573,#574,#575,#576,#577,
#578,#579,#580,#581,#582,#583,#584,#585,#586,#587,#588,#589,#590));
#105=EDGE_LOOP('',(#591));
#106=EDGE_LOOP('',(#592));
#107=EDGE_LOOP('',(#593));
#108=EDGE_LOOP('',(#594,#595,#596,#597,#598,#599,#600,#601,#602,#603,#604,
#605,#606,#607,#608,#609,#610,#611,#612,#613,#614,#615,#616,#617));
#109=EDGE_LOOP('',(#618,#619,#620,#621));
#110=EDGE_LOOP('',(#622,#623,#624,#625));
#111=EDGE_LOOP('',(#626,#627,#628,#629));
#112=EDGE_LOOP('',(#630,#631,#632,#633,#634,#635,#636,#637));
#113=EDGE_LOOP('',(#638,#639,#640,#641));
#114=EDGE_LOOP('',(#642,#643,#644,#645));
#115=EDGE_LOOP('',(#646,#647,#648,#649));
#116=EDGE_LOOP('',(#650,#651,#652,#653,#654,#655));
#117=EDGE_LOOP('',(#656,#657,#658,#659));
#118=EDGE_LOOP('',(#660,#661,#662,#663,#664,#665));
#119=EDGE_LOOP('',(#666,#667,#668,#669));
#120=EDGE_LOOP('',(#670,#671,#672,#673));
#121=EDGE_LOOP('',(#674,#675,#676,#677,#678,#679,#680,#681));
#122=EDGE_LOOP('',(#682,#683,#684,#685));
#123=EDGE_LOOP('',(#686,#687,#688,#689));
#124=EDGE_LOOP('',(#690,#691,#692,#693));
#125=EDGE_LOOP('',(#694,#695,#696,#697));
#126=EDGE_LOOP('',(#698,#699,#700,#701,#702,#703));
#127=EDGE_LOOP('',(#704,#705,#706,#707));
#128=EDGE_LOOP('',(#708,#709,#710,#711,#712,#713));
#129=EDGE_LOOP('',(#714,#715,#716,#717));
#130=EDGE_LOOP('',(#718,#719,#720,#721));
#131=EDGE_LOOP('',(#722,#723,#724,#725));
#132=EDGE_LOOP('',(#726,#727,#728,#729));
#133=EDGE_LOOP('',(#730,#731,#732,#733));
#134=EDGE_LOOP('',(#734,#735,#736,#737,#738,#739,#740,#741));
#135=EDGE_LOOP('',(#742,#743,#744,#745));
#136=EDGE_LOOP('',(#746,#747,#748,#749,#750,#751));
#137=EDGE_LOOP('',(#752,#753,#754,#755));
#138=EDGE_LOOP('',(#756,#757,#758,#759));
#139=EDGE_LOOP('',(#760,#761,#762,#763));
#140=EDGE_LOOP('',(#764,#765,#766,#767));
#141=EDGE_LOOP('',(#768,#769,#770,#771));
#142=EDGE_LOOP('',(#772,#773,#774,#775,#776,#777));
#143=EDGE_LOOP('',(#778,#779,#780,#781));
#144=EDGE_LOOP('',(#782,#783,#784,#785));
#145=EDGE_LOOP('',(#786,#787,#788,#789));
#146=LINE('',#1122,#249);
#147=LINE('',#1126,#250);
#148=LINE('',#1133,#251);
#149=LINE('',#1135,#252);
#150=LINE('',#1139,#253);
#151=LINE('',#1141,#254);
#152=LINE('',#1143,#255);
#153=LINE('',#1145,#256);
#154=LINE('',#1147,#257);
#155=LINE('',#1151,#258);
#156=LINE('',#1153,#259);
#157=LINE('',#1155,#260);
#158=LINE('',#1157,#261);
#159=LINE('',#1159,#262);
#160=LINE('',#1163,#263);
#161=LINE('',#1165,#264);
#162=LINE('',#1167,#265);
#163=LINE('',#1169,#266);
#164=LINE('',#1171,#267);
#165=LINE('',#1175,#268);
#166=LINE('',#1177,#269);
#167=LINE('',#1178,#270);
#168=LINE('',#1185,#271);
#169=LINE('',#1187,#272);
#170=LINE('',#1189,#273);
#171=LINE('',#1193,#274);
#172=LINE('',#1195,#275);
#173=LINE('',#1197,#276);
#174=LINE('',#1199,#277);
#175=LINE('',#1201,#278);
#176=LINE('',#1205,#279);
#177=LINE('',#1207,#280);
#178=LINE('',#1209,#281);
#179=LINE('',#1211,#282);
#180=LINE('',#1213,#283);
#181=LINE('',#1217,#284);
#182=LINE('',#1219,#285);
#183=LINE('',#1221,#286);
#184=LINE('',#1223,#287);
#185=LINE('',#1225,#288);
#186=LINE('',#1229,#289);
#187=LINE('',#1230,#290);
#188=LINE('',#1232,#291);
#189=LINE('',#1233,#292);
#190=LINE('',#1235,#293);
#191=LINE('',#1237,#294);
#192=LINE('',#1241,#295);
#193=LINE('',#1243,#296);
#194=LINE('',#1245,#297);
#195=LINE('',#1247,#298);
#196=LINE('',#1249,#299);
#197=LINE('',#1251,#300);
#198=LINE('',#1253,#301);
#199=LINE('',#1254,#302);
#200=LINE('',#1256,#303);
#201=LINE('',#1257,#304);
#202=LINE('',#1259,#305);
#203=LINE('',#1261,#306);
#204=LINE('',#1263,#307);
#205=LINE('',#1265,#308);
#206=LINE('',#1267,#309);
#207=LINE('',#1268,#310);
#208=LINE('',#1270,#311);
#209=LINE('',#1272,#312);
#210=LINE('',#1274,#313);
#211=LINE('',#1276,#314);
#212=LINE('',#1280,#315);
#213=LINE('',#1282,#316);
#214=LINE('',#1284,#317);
#215=LINE('',#1286,#318);
#216=LINE('',#1288,#319);
#217=LINE('',#1290,#320);
#218=LINE('',#1292,#321);
#219=LINE('',#1293,#322);
#220=LINE('',#1295,#323);
#221=LINE('',#1296,#324);
#222=LINE('',#1298,#325);
#223=LINE('',#1300,#326);
#224=LINE('',#1302,#327);
#225=LINE('',#1304,#328);
#226=LINE('',#1306,#329);
#227=LINE('',#1308,#330);
#228=LINE('',#1310,#331);
#229=LINE('',#1312,#332);
#230=LINE('',#1315,#333);
#231=LINE('',#1317,#334);
#232=LINE('',#1318,#335);
#233=LINE('',#1321,#336);
#234=LINE('',#1322,#337);
#235=LINE('',#1324,#338);
#236=LINE('',#1327,#339);
#237=LINE('',#1329,#340);
#238=LINE('',#1331,#341);
#239=LINE('',#1332,#342);
#240=LINE('',#1334,#343);
#241=LINE('',#1336,#344);
#242=LINE('',#1338,#345);
#243=LINE('',#1341,#346);
#244=LINE('',#1343,#347);
#245=LINE('',#1345,#348);
#246=LINE('',#1347,#349);
#247=LINE('',#1349,#350);
#248=LINE('',#1351,#351);
#249=VECTOR('',#908,2.625);
#250=VECTOR('',#913,2.325);
#251=VECTOR('',#920,10.);
#252=VECTOR('',#921,10.);
#253=VECTOR('',#924,10.);
#254=VECTOR('',#925,10.);
#255=VECTOR('',#926,10.);
#256=VECTOR('',#927,10.);
#257=VECTOR('',#928,10.);
#258=VECTOR('',#931,10.);
#259=VECTOR('',#932,10.);
#260=VECTOR('',#933,10.);
#261=VECTOR('',#934,10.);
#262=VECTOR('',#935,10.);
#263=VECTOR('',#938,10.);
#264=VECTOR('',#939,10.);
#265=VECTOR('',#940,10.);
#266=VECTOR('',#941,10.);
#267=VECTOR('',#942,10.);
#268=VECTOR('',#945,10.);
#269=VECTOR('',#946,10.);
#270=VECTOR('',#947,10.);
#271=VECTOR('',#954,10.);
#272=VECTOR('',#955,10.);
#273=VECTOR('',#956,10.);
#274=VECTOR('',#959,10.);
#275=VECTOR('',#960,10.);
#276=VECTOR('',#961,10.);
#277=VECTOR('',#962,10.);
#278=VECTOR('',#963,10.);
#279=VECTOR('',#966,10.);
#280=VECTOR('',#967,10.);
#281=VECTOR('',#968,10.);
#282=VECTOR('',#969,10.);
#283=VECTOR('',#970,10.);
#284=VECTOR('',#973,10.);
#285=VECTOR('',#974,10.);
#286=VECTOR('',#975,10.);
#287=VECTOR('',#976,10.);
#288=VECTOR('',#977,10.);
#289=VECTOR('',#980,10.);
#290=VECTOR('',#981,10.);
#291=VECTOR('',#984,10.);
#292=VECTOR('',#985,10.);
#293=VECTOR('',#988,10.);
#294=VECTOR('',#991,10.);
#295=VECTOR('',#994,10.);
#296=VECTOR('',#995,10.);
#297=VECTOR('',#996,10.);
#298=VECTOR('',#997,10.);
#299=VECTOR('',#998,10.);
#300=VECTOR('',#999,10.);
#301=VECTOR('',#1000,10.);
#302=VECTOR('',#1001,10.);
#303=VECTOR('',#1004,10.);
#304=VECTOR('',#1005,10.);
#305=VECTOR('',#1008,10.);
#306=VECTOR('',#1011,10.);
#307=VECTOR('',#1014,10.);
#308=VECTOR('',#1015,10.);
#309=VECTOR('',#1016,10.);
#310=VECTOR('',#1017,10.);
#311=VECTOR('',#1020,10.);
#312=VECTOR('',#1023,10.);
#313=VECTOR('',#1026,10.);
#314=VECTOR('',#1029,10.);
#315=VECTOR('',#1032,10.);
#316=VECTOR('',#1033,10.);
#317=VECTOR('',#1034,10.);
#318=VECTOR('',#1035,10.);
#319=VECTOR('',#1036,10.);
#320=VECTOR('',#1037,10.);
#321=VECTOR('',#1038,10.);
#322=VECTOR('',#1039,10.);
#323=VECTOR('',#1042,10.);
#324=VECTOR('',#1043,10.);
#325=VECTOR('',#1046,10.);
#326=VECTOR('',#1049,10.);
#327=VECTOR('',#1052,10.);
#328=VECTOR('',#1055,10.);
#329=VECTOR('',#1058,10.);
#330=VECTOR('',#1061,10.);
#331=VECTOR('',#1064,10.);
#332=VECTOR('',#1067,10.);
#333=VECTOR('',#1070,10.);
#334=VECTOR('',#1071,10.);
#335=VECTOR('',#1072,10.);
#336=VECTOR('',#1075,10.);
#337=VECTOR('',#1076,10.);
#338=VECTOR('',#1079,10.);
#339=VECTOR('',#1082,10.);
#340=VECTOR('',#1083,10.);
#341=VECTOR('',#1084,10.);
#342=VECTOR('',#1085,10.);
#343=VECTOR('',#1088,10.);
#344=VECTOR('',#1091,10.);
#345=VECTOR('',#1094,10.);
#346=VECTOR('',#1099,10.);
#347=VECTOR('',#1102,10.);
#348=VECTOR('',#1105,32.5);
#349=VECTOR('',#1108,10.);
#350=VECTOR('',#1111,10.);
#351=VECTOR('',#1114,10.);
#352=CIRCLE('',#848,2.925);
#353=CIRCLE('',#849,2.325);
#354=CIRCLE('',#851,2.325);
#355=CIRCLE('',#853,32.5);
#356=CIRCLE('',#854,0.600000000000001);
#357=CIRCLE('',#855,0.600000000000002);
#358=CIRCLE('',#856,0.600000000000001);
#359=CIRCLE('',#857,0.599999999999999);
#360=CIRCLE('',#860,32.5);
#361=CIRCLE('',#861,0.600000000000002);
#362=CIRCLE('',#862,0.600000000000001);
#363=CIRCLE('',#863,0.600000000000001);
#364=CIRCLE('',#864,0.600000000000001);
#365=VERTEX_POINT('',#1119);
#366=VERTEX_POINT('',#1121);
#367=VERTEX_POINT('',#1125);
#368=VERTEX_POINT('',#1129);
#369=VERTEX_POINT('',#1131);
#370=VERTEX_POINT('',#1132);
#371=VERTEX_POINT('',#1134);
#372=VERTEX_POINT('',#1136);
#373=VERTEX_POINT('',#1138);
#374=VERTEX_POINT('',#1140);
#375=VERTEX_POINT('',#1142);
#376=VERTEX_POINT('',#1144);
#377=VERTEX_POINT('',#1146);
#378=VERTEX_POINT('',#1148);
#379=VERTEX_POINT('',#1150);
#380=VERTEX_POINT('',#1152);
#381=VERTEX_POINT('',#1154);
#382=VERTEX_POINT('',#1156);
#383=VERTEX_POINT('',#1158);
#384=VERTEX_POINT('',#1160);
#385=VERTEX_POINT('',#1162);
#386=VERTEX_POINT('',#1164);
#387=VERTEX_POINT('',#1166);
#388=VERTEX_POINT('',#1168);
#389=VERTEX_POINT('',#1170);
#390=VERTEX_POINT('',#1172);
#391=VERTEX_POINT('',#1174);
#392=VERTEX_POINT('',#1176);
#393=VERTEX_POINT('',#1181);
#394=VERTEX_POINT('',#1183);
#395=VERTEX_POINT('',#1184);
#396=VERTEX_POINT('',#1186);
#397=VERTEX_POINT('',#1188);
#398=VERTEX_POINT('',#1190);
#399=VERTEX_POINT('',#1192);
#400=VERTEX_POINT('',#1194);
#401=VERTEX_POINT('',#1196);
#402=VERTEX_POINT('',#1198);
#403=VERTEX_POINT('',#1200);
#404=VERTEX_POINT('',#1202);
#405=VERTEX_POINT('',#1204);
#406=VERTEX_POINT('',#1206);
#407=VERTEX_POINT('',#1208);
#408=VERTEX_POINT('',#1210);
#409=VERTEX_POINT('',#1212);
#410=VERTEX_POINT('',#1214);
#411=VERTEX_POINT('',#1216);
#412=VERTEX_POINT('',#1218);
#413=VERTEX_POINT('',#1220);
#414=VERTEX_POINT('',#1222);
#415=VERTEX_POINT('',#1224);
#416=VERTEX_POINT('',#1226);
#417=VERTEX_POINT('',#1228);
#418=VERTEX_POINT('',#1239);
#419=VERTEX_POINT('',#1240);
#420=VERTEX_POINT('',#1242);
#421=VERTEX_POINT('',#1244);
#422=VERTEX_POINT('',#1246);
#423=VERTEX_POINT('',#1248);
#424=VERTEX_POINT('',#1250);
#425=VERTEX_POINT('',#1252);
#426=VERTEX_POINT('',#1264);
#427=VERTEX_POINT('',#1266);
#428=VERTEX_POINT('',#1278);
#429=VERTEX_POINT('',#1279);
#430=VERTEX_POINT('',#1281);
#431=VERTEX_POINT('',#1283);
#432=VERTEX_POINT('',#1285);
#433=VERTEX_POINT('',#1287);
#434=VERTEX_POINT('',#1289);
#435=VERTEX_POINT('',#1291);
#436=VERTEX_POINT('',#1314);
#437=VERTEX_POINT('',#1316);
#438=VERTEX_POINT('',#1320);
#439=VERTEX_POINT('',#1326);
#440=VERTEX_POINT('',#1328);
#441=VERTEX_POINT('',#1330);
#442=EDGE_CURVE('',#365,#365,#352,.T.);
#443=EDGE_CURVE('',#365,#366,#146,.T.);
#444=EDGE_CURVE('',#366,#366,#353,.T.);
#445=EDGE_CURVE('',#366,#367,#147,.T.);
#446=EDGE_CURVE('',#367,#367,#354,.T.);
#447=EDGE_CURVE('',#368,#368,#355,.F.);
#448=EDGE_CURVE('',#369,#370,#148,.T.);
#449=EDGE_CURVE('',#370,#371,#149,.T.);
#450=EDGE_CURVE('',#371,#372,#356,.T.);
#451=EDGE_CURVE('',#372,#373,#150,.T.);
#452=EDGE_CURVE('',#373,#374,#151,.T.);
#453=EDGE_CURVE('',#374,#375,#152,.T.);
#454=EDGE_CURVE('',#375,#376,#153,.T.);
#455=EDGE_CURVE('',#376,#377,#154,.T.);
#456=EDGE_CURVE('',#377,#378,#357,.T.);
#457=EDGE_CURVE('',#378,#379,#155,.T.);
#458=EDGE_CURVE('',#379,#380,#156,.T.);
#459=EDGE_CURVE('',#380,#381,#157,.T.);
#460=EDGE_CURVE('',#381,#382,#158,.T.);
#461=EDGE_CURVE('',#382,#383,#159,.T.);
#462=EDGE_CURVE('',#383,#384,#358,.T.);
#463=EDGE_CURVE('',#384,#385,#160,.T.);
#464=EDGE_CURVE('',#385,#386,#161,.T.);
#465=EDGE_CURVE('',#386,#387,#162,.T.);
#466=EDGE_CURVE('',#387,#388,#163,.T.);
#467=EDGE_CURVE('',#388,#389,#164,.T.);
#468=EDGE_CURVE('',#389,#390,#359,.T.);
#469=EDGE_CURVE('',#390,#391,#165,.T.);
#470=EDGE_CURVE('',#391,#392,#166,.T.);
#471=EDGE_CURVE('',#392,#369,#167,.T.);
#472=EDGE_CURVE('',#393,#393,#360,.F.);
#473=EDGE_CURVE('',#394,#395,#168,.T.);
#474=EDGE_CURVE('',#394,#396,#169,.F.);
#475=EDGE_CURVE('',#396,#397,#170,.F.);
#476=EDGE_CURVE('',#397,#398,#361,.F.);
#477=EDGE_CURVE('',#398,#399,#171,.F.);
#478=EDGE_CURVE('',#399,#400,#172,.F.);
#479=EDGE_CURVE('',#400,#401,#173,.F.);
#480=EDGE_CURVE('',#401,#402,#174,.F.);
#481=EDGE_CURVE('',#402,#403,#175,.F.);
#482=EDGE_CURVE('',#403,#404,#362,.F.);
#483=EDGE_CURVE('',#404,#405,#176,.F.);
#484=EDGE_CURVE('',#405,#406,#177,.F.);
#485=EDGE_CURVE('',#406,#407,#178,.F.);
#486=EDGE_CURVE('',#407,#408,#179,.F.);
#487=EDGE_CURVE('',#408,#409,#180,.F.);
#488=EDGE_CURVE('',#409,#410,#363,.F.);
#489=EDGE_CURVE('',#410,#411,#181,.F.);
#490=EDGE_CURVE('',#411,#412,#182,.F.);
#491=EDGE_CURVE('',#412,#413,#183,.F.);
#492=EDGE_CURVE('',#413,#414,#184,.F.);
#493=EDGE_CURVE('',#414,#415,#185,.F.);
#494=EDGE_CURVE('',#415,#416,#364,.F.);
#495=EDGE_CURVE('',#416,#417,#186,.F.);
#496=EDGE_CURVE('',#417,#395,#187,.F.);
#497=EDGE_CURVE('',#381,#395,#188,.T.);
#498=EDGE_CURVE('',#394,#380,#189,.T.);
#499=EDGE_CURVE('',#417,#382,#190,.F.);
#500=EDGE_CURVE('',#396,#379,#191,.F.);
#501=EDGE_CURVE('',#418,#419,#192,.T.);
#502=EDGE_CURVE('',#420,#418,#193,.T.);
#503=EDGE_CURVE('',#421,#420,#194,.T.);
#504=EDGE_CURVE('',#422,#421,#195,.T.);
#505=EDGE_CURVE('',#423,#422,#196,.T.);
#506=EDGE_CURVE('',#424,#423,#197,.T.);
#507=EDGE_CURVE('',#425,#424,#198,.T.);
#508=EDGE_CURVE('',#419,#425,#199,.T.);
#509=EDGE_CURVE('',#369,#420,#200,.T.);
#510=EDGE_CURVE('',#370,#418,#201,.T.);
#511=EDGE_CURVE('',#392,#421,#202,.T.);
#512=EDGE_CURVE('',#422,#391,#203,.T.);
#513=EDGE_CURVE('',#403,#372,#204,.T.);
#514=EDGE_CURVE('',#402,#426,#205,.F.);
#515=EDGE_CURVE('',#426,#427,#206,.T.);
#516=EDGE_CURVE('',#373,#427,#207,.T.);
#517=EDGE_CURVE('',#404,#371,#208,.T.);
#518=EDGE_CURVE('',#405,#419,#209,.F.);
#519=EDGE_CURVE('',#406,#425,#210,.T.);
#520=EDGE_CURVE('',#407,#424,#211,.F.);
#521=EDGE_CURVE('',#428,#429,#212,.T.);
#522=EDGE_CURVE('',#430,#428,#213,.T.);
#523=EDGE_CURVE('',#431,#430,#214,.T.);
#524=EDGE_CURVE('',#432,#431,#215,.T.);
#525=EDGE_CURVE('',#433,#432,#216,.T.);
#526=EDGE_CURVE('',#434,#433,#217,.T.);
#527=EDGE_CURVE('',#435,#434,#218,.T.);
#528=EDGE_CURVE('',#429,#435,#219,.T.);
#529=EDGE_CURVE('',#387,#430,#220,.T.);
#530=EDGE_CURVE('',#388,#428,#221,.T.);
#531=EDGE_CURVE('',#386,#431,#222,.T.);
#532=EDGE_CURVE('',#432,#385,#223,.T.);
#533=EDGE_CURVE('',#408,#423,#224,.F.);
#534=EDGE_CURVE('',#409,#390,#225,.T.);
#535=EDGE_CURVE('',#410,#389,#226,.T.);
#536=EDGE_CURVE('',#411,#429,#227,.T.);
#537=EDGE_CURVE('',#412,#435,#228,.T.);
#538=EDGE_CURVE('',#413,#434,#229,.F.);
#539=EDGE_CURVE('',#375,#436,#230,.T.);
#540=EDGE_CURVE('',#436,#437,#231,.T.);
#541=EDGE_CURVE('',#376,#437,#232,.T.);
#542=EDGE_CURVE('',#374,#438,#233,.T.);
#543=EDGE_CURVE('',#438,#436,#234,.T.);
#544=EDGE_CURVE('',#427,#438,#235,.T.);
#545=EDGE_CURVE('',#439,#426,#236,.T.);
#546=EDGE_CURVE('',#440,#439,#237,.T.);
#547=EDGE_CURVE('',#441,#440,#238,.T.);
#548=EDGE_CURVE('',#437,#441,#239,.T.);
#549=EDGE_CURVE('',#414,#433,#240,.F.);
#550=EDGE_CURVE('',#415,#384,#241,.T.);
#551=EDGE_CURVE('',#416,#383,#242,.T.);
#552=EDGE_CURVE('',#397,#378,#243,.T.);
#553=EDGE_CURVE('',#398,#377,#244,.T.);
#554=EDGE_CURVE('',#393,#368,#245,.T.);
#555=EDGE_CURVE('',#399,#441,#246,.F.);
#556=EDGE_CURVE('',#401,#439,#247,.F.);
#557=EDGE_CURVE('',#400,#440,#248,.T.);
#558=ORIENTED_EDGE('',*,*,#442,.T.);
#559=ORIENTED_EDGE('',*,*,#443,.T.);
#560=ORIENTED_EDGE('',*,*,#444,.T.);
#561=ORIENTED_EDGE('',*,*,#443,.F.);
#562=ORIENTED_EDGE('',*,*,#444,.F.);
#563=ORIENTED_EDGE('',*,*,#445,.T.);
#564=ORIENTED_EDGE('',*,*,#446,.T.);
#565=ORIENTED_EDGE('',*,*,#445,.F.);
#566=ORIENTED_EDGE('',*,*,#447,.T.);
#567=ORIENTED_EDGE('',*,*,#448,.T.);
#568=ORIENTED_EDGE('',*,*,#449,.T.);
#569=ORIENTED_EDGE('',*,*,#450,.T.);
#570=ORIENTED_EDGE('',*,*,#451,.T.);
#571=ORIENTED_EDGE('',*,*,#452,.T.);
#572=ORIENTED_EDGE('',*,*,#453,.T.);
#573=ORIENTED_EDGE('',*,*,#454,.T.);
#574=ORIENTED_EDGE('',*,*,#455,.T.);
#575=ORIENTED_EDGE('',*,*,#456,.T.);
#576=ORIENTED_EDGE('',*,*,#457,.T.);
#577=ORIENTED_EDGE('',*,*,#458,.T.);
#578=ORIENTED_EDGE('',*,*,#459,.T.);
#579=ORIENTED_EDGE('',*,*,#460,.T.);
#580=ORIENTED_EDGE('',*,*,#461,.T.);
#581=ORIENTED_EDGE('',*,*,#462,.T.);
#582=ORIENTED_EDGE('',*,*,#463,.T.);
#583=ORIENTED_EDGE('',*,*,#464,.T.);
#584=ORIENTED_EDGE('',*,*,#465,.T.);
#585=ORIENTED_EDGE('',*,*,#466,.T.);
#586=ORIENTED_EDGE('',*,*,#467,.T.);
#587=ORIENTED_EDGE('',*,*,#468,.T.);
#588=ORIENTED_EDGE('',*,*,#469,.T.);
#589=ORIENTED_EDGE('',*,*,#470,.T.);
#590=ORIENTED_EDGE('',*,*,#471,.T.);
#591=ORIENTED_EDGE('',*,*,#442,.F.);
#592=ORIENTED_EDGE('',*,*,#446,.F.);
#593=ORIENTED_EDGE('',*,*,#472,.F.);
#594=ORIENTED_EDGE('',*,*,#473,.F.);
#595=ORIENTED_EDGE('',*,*,#474,.T.);
#596=ORIENTED_EDGE('',*,*,#475,.T.);
#597=ORIENTED_EDGE('',*,*,#476,.T.);
#598=ORIENTED_EDGE('',*,*,#477,.T.);
#599=ORIENTED_EDGE('',*,*,#478,.T.);
#600=ORIENTED_EDGE('',*,*,#479,.T.);
#601=ORIENTED_EDGE('',*,*,#480,.T.);
#602=ORIENTED_EDGE('',*,*,#481,.T.);
#603=ORIENTED_EDGE('',*,*,#482,.T.);
#604=ORIENTED_EDGE('',*,*,#483,.T.);
#605=ORIENTED_EDGE('',*,*,#484,.T.);
#606=ORIENTED_EDGE('',*,*,#485,.T.);
#607=ORIENTED_EDGE('',*,*,#486,.T.);
#608=ORIENTED_EDGE('',*,*,#487,.T.);
#609=ORIENTED_EDGE('',*,*,#488,.T.);
#610=ORIENTED_EDGE('',*,*,#489,.T.);
#611=ORIENTED_EDGE('',*,*,#490,.T.);
#612=ORIENTED_EDGE('',*,*,#491,.T.);
#613=ORIENTED_EDGE('',*,*,#492,.T.);
#614=ORIENTED_EDGE('',*,*,#493,.T.);
#615=ORIENTED_EDGE('',*,*,#494,.T.);
#616=ORIENTED_EDGE('',*,*,#495,.T.);
#617=ORIENTED_EDGE('',*,*,#496,.T.);
#618=ORIENTED_EDGE('',*,*,#473,.T.);
#619=ORIENTED_EDGE('',*,*,#497,.F.);
#620=ORIENTED_EDGE('',*,*,#459,.F.);
#621=ORIENTED_EDGE('',*,*,#498,.F.);
#622=ORIENTED_EDGE('',*,*,#497,.T.);
#623=ORIENTED_EDGE('',*,*,#496,.F.);
#624=ORIENTED_EDGE('',*,*,#499,.T.);
#625=ORIENTED_EDGE('',*,*,#460,.F.);
#626=ORIENTED_EDGE('',*,*,#498,.T.);
#627=ORIENTED_EDGE('',*,*,#458,.F.);
#628=ORIENTED_EDGE('',*,*,#500,.F.);
#629=ORIENTED_EDGE('',*,*,#474,.F.);
#630=ORIENTED_EDGE('',*,*,#501,.F.);
#631=ORIENTED_EDGE('',*,*,#502,.F.);
#632=ORIENTED_EDGE('',*,*,#503,.F.);
#633=ORIENTED_EDGE('',*,*,#504,.F.);
#634=ORIENTED_EDGE('',*,*,#505,.F.);
#635=ORIENTED_EDGE('',*,*,#506,.F.);
#636=ORIENTED_EDGE('',*,*,#507,.F.);
#637=ORIENTED_EDGE('',*,*,#508,.F.);
#638=ORIENTED_EDGE('',*,*,#448,.F.);
#639=ORIENTED_EDGE('',*,*,#509,.T.);
#640=ORIENTED_EDGE('',*,*,#502,.T.);
#641=ORIENTED_EDGE('',*,*,#510,.F.);
#642=ORIENTED_EDGE('',*,*,#471,.F.);
#643=ORIENTED_EDGE('',*,*,#511,.T.);
#644=ORIENTED_EDGE('',*,*,#503,.T.);
#645=ORIENTED_EDGE('',*,*,#509,.F.);
#646=ORIENTED_EDGE('',*,*,#470,.F.);
#647=ORIENTED_EDGE('',*,*,#512,.F.);
#648=ORIENTED_EDGE('',*,*,#504,.T.);
#649=ORIENTED_EDGE('',*,*,#511,.F.);
#650=ORIENTED_EDGE('',*,*,#513,.F.);
#651=ORIENTED_EDGE('',*,*,#481,.F.);
#652=ORIENTED_EDGE('',*,*,#514,.T.);
#653=ORIENTED_EDGE('',*,*,#515,.T.);
#654=ORIENTED_EDGE('',*,*,#516,.F.);
#655=ORIENTED_EDGE('',*,*,#451,.F.);
#656=ORIENTED_EDGE('',*,*,#517,.F.);
#657=ORIENTED_EDGE('',*,*,#482,.F.);
#658=ORIENTED_EDGE('',*,*,#513,.T.);
#659=ORIENTED_EDGE('',*,*,#450,.F.);
#660=ORIENTED_EDGE('',*,*,#501,.T.);
#661=ORIENTED_EDGE('',*,*,#518,.F.);
#662=ORIENTED_EDGE('',*,*,#483,.F.);
#663=ORIENTED_EDGE('',*,*,#517,.T.);
#664=ORIENTED_EDGE('',*,*,#449,.F.);
#665=ORIENTED_EDGE('',*,*,#510,.T.);
#666=ORIENTED_EDGE('',*,*,#508,.T.);
#667=ORIENTED_EDGE('',*,*,#519,.F.);
#668=ORIENTED_EDGE('',*,*,#484,.F.);
#669=ORIENTED_EDGE('',*,*,#518,.T.);
#670=ORIENTED_EDGE('',*,*,#507,.T.);
#671=ORIENTED_EDGE('',*,*,#520,.F.);
#672=ORIENTED_EDGE('',*,*,#485,.F.);
#673=ORIENTED_EDGE('',*,*,#519,.T.);
#674=ORIENTED_EDGE('',*,*,#521,.F.);
#675=ORIENTED_EDGE('',*,*,#522,.F.);
#676=ORIENTED_EDGE('',*,*,#523,.F.);
#677=ORIENTED_EDGE('',*,*,#524,.F.);
#678=ORIENTED_EDGE('',*,*,#525,.F.);
#679=ORIENTED_EDGE('',*,*,#526,.F.);
#680=ORIENTED_EDGE('',*,*,#527,.F.);
#681=ORIENTED_EDGE('',*,*,#528,.F.);
#682=ORIENTED_EDGE('',*,*,#466,.F.);
#683=ORIENTED_EDGE('',*,*,#529,.T.);
#684=ORIENTED_EDGE('',*,*,#522,.T.);
#685=ORIENTED_EDGE('',*,*,#530,.F.);
#686=ORIENTED_EDGE('',*,*,#465,.F.);
#687=ORIENTED_EDGE('',*,*,#531,.T.);
#688=ORIENTED_EDGE('',*,*,#523,.T.);
#689=ORIENTED_EDGE('',*,*,#529,.F.);
#690=ORIENTED_EDGE('',*,*,#464,.F.);
#691=ORIENTED_EDGE('',*,*,#532,.F.);
#692=ORIENTED_EDGE('',*,*,#524,.T.);
#693=ORIENTED_EDGE('',*,*,#531,.F.);
#694=ORIENTED_EDGE('',*,*,#506,.T.);
#695=ORIENTED_EDGE('',*,*,#533,.F.);
#696=ORIENTED_EDGE('',*,*,#486,.F.);
#697=ORIENTED_EDGE('',*,*,#520,.T.);
#698=ORIENTED_EDGE('',*,*,#534,.F.);
#699=ORIENTED_EDGE('',*,*,#487,.F.);
#700=ORIENTED_EDGE('',*,*,#533,.T.);
#701=ORIENTED_EDGE('',*,*,#505,.T.);
#702=ORIENTED_EDGE('',*,*,#512,.T.);
#703=ORIENTED_EDGE('',*,*,#469,.F.);
#704=ORIENTED_EDGE('',*,*,#535,.F.);
#705=ORIENTED_EDGE('',*,*,#488,.F.);
#706=ORIENTED_EDGE('',*,*,#534,.T.);
#707=ORIENTED_EDGE('',*,*,#468,.F.);
#708=ORIENTED_EDGE('',*,*,#521,.T.);
#709=ORIENTED_EDGE('',*,*,#536,.F.);
#710=ORIENTED_EDGE('',*,*,#489,.F.);
#711=ORIENTED_EDGE('',*,*,#535,.T.);
#712=ORIENTED_EDGE('',*,*,#467,.F.);
#713=ORIENTED_EDGE('',*,*,#530,.T.);
#714=ORIENTED_EDGE('',*,*,#528,.T.);
#715=ORIENTED_EDGE('',*,*,#537,.F.);
#716=ORIENTED_EDGE('',*,*,#490,.F.);
#717=ORIENTED_EDGE('',*,*,#536,.T.);
#718=ORIENTED_EDGE('',*,*,#527,.T.);
#719=ORIENTED_EDGE('',*,*,#538,.F.);
#720=ORIENTED_EDGE('',*,*,#491,.F.);
#721=ORIENTED_EDGE('',*,*,#537,.T.);
#722=ORIENTED_EDGE('',*,*,#454,.F.);
#723=ORIENTED_EDGE('',*,*,#539,.T.);
#724=ORIENTED_EDGE('',*,*,#540,.T.);
#725=ORIENTED_EDGE('',*,*,#541,.F.);
#726=ORIENTED_EDGE('',*,*,#453,.F.);
#727=ORIENTED_EDGE('',*,*,#542,.T.);
#728=ORIENTED_EDGE('',*,*,#543,.T.);
#729=ORIENTED_EDGE('',*,*,#539,.F.);
#730=ORIENTED_EDGE('',*,*,#452,.F.);
#731=ORIENTED_EDGE('',*,*,#516,.T.);
#732=ORIENTED_EDGE('',*,*,#544,.T.);
#733=ORIENTED_EDGE('',*,*,#542,.F.);
#734=ORIENTED_EDGE('',*,*,#515,.F.);
#735=ORIENTED_EDGE('',*,*,#545,.F.);
#736=ORIENTED_EDGE('',*,*,#546,.F.);
#737=ORIENTED_EDGE('',*,*,#547,.F.);
#738=ORIENTED_EDGE('',*,*,#548,.F.);
#739=ORIENTED_EDGE('',*,*,#540,.F.);
#740=ORIENTED_EDGE('',*,*,#543,.F.);
#741=ORIENTED_EDGE('',*,*,#544,.F.);
#742=ORIENTED_EDGE('',*,*,#526,.T.);
#743=ORIENTED_EDGE('',*,*,#549,.F.);
#744=ORIENTED_EDGE('',*,*,#492,.F.);
#745=ORIENTED_EDGE('',*,*,#538,.T.);
#746=ORIENTED_EDGE('',*,*,#550,.F.);
#747=ORIENTED_EDGE('',*,*,#493,.F.);
#748=ORIENTED_EDGE('',*,*,#549,.T.);
#749=ORIENTED_EDGE('',*,*,#525,.T.);
#750=ORIENTED_EDGE('',*,*,#532,.T.);
#751=ORIENTED_EDGE('',*,*,#463,.F.);
#752=ORIENTED_EDGE('',*,*,#551,.F.);
#753=ORIENTED_EDGE('',*,*,#494,.F.);
#754=ORIENTED_EDGE('',*,*,#550,.T.);
#755=ORIENTED_EDGE('',*,*,#462,.F.);
#756=ORIENTED_EDGE('',*,*,#499,.F.);
#757=ORIENTED_EDGE('',*,*,#495,.F.);
#758=ORIENTED_EDGE('',*,*,#551,.T.);
#759=ORIENTED_EDGE('',*,*,#461,.F.);
#760=ORIENTED_EDGE('',*,*,#552,.F.);
#761=ORIENTED_EDGE('',*,*,#475,.F.);
#762=ORIENTED_EDGE('',*,*,#500,.T.);
#763=ORIENTED_EDGE('',*,*,#457,.F.);
#764=ORIENTED_EDGE('',*,*,#553,.F.);
#765=ORIENTED_EDGE('',*,*,#476,.F.);
#766=ORIENTED_EDGE('',*,*,#552,.T.);
#767=ORIENTED_EDGE('',*,*,#456,.F.);
#768=ORIENTED_EDGE('',*,*,#472,.T.);
#769=ORIENTED_EDGE('',*,*,#554,.T.);
#770=ORIENTED_EDGE('',*,*,#447,.F.);
#771=ORIENTED_EDGE('',*,*,#554,.F.);
#772=ORIENTED_EDGE('',*,*,#548,.T.);
#773=ORIENTED_EDGE('',*,*,#555,.F.);
#774=ORIENTED_EDGE('',*,*,#477,.F.);
#775=ORIENTED_EDGE('',*,*,#553,.T.);
#776=ORIENTED_EDGE('',*,*,#455,.F.);
#777=ORIENTED_EDGE('',*,*,#541,.T.);
#778=ORIENTED_EDGE('',*,*,#545,.T.);
#779=ORIENTED_EDGE('',*,*,#514,.F.);
#780=ORIENTED_EDGE('',*,*,#480,.F.);
#781=ORIENTED_EDGE('',*,*,#556,.T.);
#782=ORIENTED_EDGE('',*,*,#547,.T.);
#783=ORIENTED_EDGE('',*,*,#557,.F.);
#784=ORIENTED_EDGE('',*,*,#478,.F.);
#785=ORIENTED_EDGE('',*,*,#555,.T.);
#786=ORIENTED_EDGE('',*,*,#546,.T.);
#787=ORIENTED_EDGE('',*,*,#556,.F.);
#788=ORIENTED_EDGE('',*,*,#479,.F.);
#789=ORIENTED_EDGE('',*,*,#557,.T.);
#790=CONICAL_SURFACE('',#847,2.625,0.785398163397448);
#791=ADVANCED_FACE('',(#59),#790,.F.);
#792=ADVANCED_FACE('',(#60),#53,.F.);
#793=ADVANCED_FACE('',(#61,#15,#16),#18,.F.);
#794=ADVANCED_FACE('',(#62),#19,.T.);
#795=ADVANCED_FACE('',(#63,#17),#20,.T.);
#796=ADVANCED_FACE('',(#64),#21,.F.);
#797=ADVANCED_FACE('',(#65),#22,.F.);
#798=ADVANCED_FACE('',(#66),#23,.F.);
#799=ADVANCED_FACE('',(#67),#24,.T.);
#800=ADVANCED_FACE('',(#68),#25,.F.);
#801=ADVANCED_FACE('',(#69),#26,.F.);
#802=ADVANCED_FACE('',(#70),#27,.F.);
#803=ADVANCED_FACE('',(#71),#28,.F.);
#804=ADVANCED_FACE('',(#72),#54,.F.);
#805=ADVANCED_FACE('',(#73),#29,.F.);
#806=ADVANCED_FACE('',(#74),#30,.F.);
#807=ADVANCED_FACE('',(#75),#31,.F.);
#808=ADVANCED_FACE('',(#76),#32,.T.);
#809=ADVANCED_FACE('',(#77),#33,.F.);
#810=ADVANCED_FACE('',(#78),#34,.F.);
#811=ADVANCED_FACE('',(#79),#35,.F.);
#812=ADVANCED_FACE('',(#80),#36,.F.);
#813=ADVANCED_FACE('',(#81),#37,.F.);
#814=ADVANCED_FACE('',(#82),#55,.F.);
#815=ADVANCED_FACE('',(#83),#38,.F.);
#816=ADVANCED_FACE('',(#84),#39,.F.);
#817=ADVANCED_FACE('',(#85),#40,.F.);
#818=ADVANCED_FACE('',(#86),#41,.F.);
#819=ADVANCED_FACE('',(#87),#42,.F.);
#820=ADVANCED_FACE('',(#88),#43,.F.);
#821=ADVANCED_FACE('',(#89),#44,.T.);
#822=ADVANCED_FACE('',(#90),#45,.F.);
#823=ADVANCED_FACE('',(#91),#46,.F.);
#824=ADVANCED_FACE('',(#92),#56,.F.);
#825=ADVANCED_FACE('',(#93),#47,.F.);
#826=ADVANCED_FACE('',(#94),#48,.F.);
#827=ADVANCED_FACE('',(#95),#57,.F.);
#828=ADVANCED_FACE('',(#96),#58,.T.);
#829=ADVANCED_FACE('',(#97),#49,.F.);
#830=ADVANCED_FACE('',(#98),#50,.F.);
#831=ADVANCED_FACE('',(#99),#51,.F.);
#832=ADVANCED_FACE('',(#100),#52,.F.);
#833=CLOSED_SHELL('',(#791,#792,#793,#794,#795,#796,#797,#798,#799,#800,
#801,#802,#803,#804,#805,#806,#807,#808,#809,#810,#811,#812,#813,#814,#815,
#816,#817,#818,#819,#820,#821,#822,#823,#824,#825,#826,#827,#828,#829,#830,
#831,#832));
#834=DERIVED_UNIT_ELEMENT(#836,1.);
#835=DERIVED_UNIT_ELEMENT(#1358,-3.);
#836=(
MASS_UNIT()
NAMED_UNIT(*)
SI_UNIT(.KILO.,.GRAM.)
);
#837=DERIVED_UNIT((#834,#835));
#838=MEASURE_REPRESENTATION_ITEM('density measure',
POSITIVE_RATIO_MEASURE(7850.),#837);
#839=PROPERTY_DEFINITION_REPRESENTATION(#844,#841);
#840=PROPERTY_DEFINITION_REPRESENTATION(#845,#842);
#841=REPRESENTATION('material name',(#843),#1355);
#842=REPRESENTATION('density',(#838),#1355);
#843=DESCRIPTIVE_REPRESENTATION_ITEM('Steel','Steel');
#844=PROPERTY_DEFINITION('material property','material name',#1365);
#845=PROPERTY_DEFINITION('material property','density of part',#1365);
#846=AXIS2_PLACEMENT_3D('',#1117,#902,#903);
#847=AXIS2_PLACEMENT_3D('',#1118,#904,#905);
#848=AXIS2_PLACEMENT_3D('',#1120,#906,#907);
#849=AXIS2_PLACEMENT_3D('',#1123,#909,#910);
#850=AXIS2_PLACEMENT_3D('',#1124,#911,#912);
#851=AXIS2_PLACEMENT_3D('',#1127,#914,#915);
#852=AXIS2_PLACEMENT_3D('',#1128,#916,#917);
#853=AXIS2_PLACEMENT_3D('',#1130,#918,#919);
#854=AXIS2_PLACEMENT_3D('',#1137,#922,#923);
#855=AXIS2_PLACEMENT_3D('',#1149,#929,#930);
#856=AXIS2_PLACEMENT_3D('',#1161,#936,#937);
#857=AXIS2_PLACEMENT_3D('',#1173,#943,#944);
#858=AXIS2_PLACEMENT_3D('',#1179,#948,#949);
#859=AXIS2_PLACEMENT_3D('',#1180,#950,#951);
#860=AXIS2_PLACEMENT_3D('',#1182,#952,#953);
#861=AXIS2_PLACEMENT_3D('',#1191,#957,#958);
#862=AXIS2_PLACEMENT_3D('',#1203,#964,#965);
#863=AXIS2_PLACEMENT_3D('',#1215,#971,#972);
#864=AXIS2_PLACEMENT_3D('',#1227,#978,#979);
#865=AXIS2_PLACEMENT_3D('',#1231,#982,#983);
#866=AXIS2_PLACEMENT_3D('',#1234,#986,#987);
#867=AXIS2_PLACEMENT_3D('',#1236,#989,#990);
#868=AXIS2_PLACEMENT_3D('',#1238,#992,#993);
#869=AXIS2_PLACEMENT_3D('',#1255,#1002,#1003);
#870=AXIS2_PLACEMENT_3D('',#1258,#1006,#1007);
#871=AXIS2_PLACEMENT_3D('',#1260,#1009,#1010);
#872=AXIS2_PLACEMENT_3D('',#1262,#1012,#1013);
#873=AXIS2_PLACEMENT_3D('',#1269,#1018,#1019);
#874=AXIS2_PLACEMENT_3D('',#1271,#1021,#1022);
#875=AXIS2_PLACEMENT_3D('',#1273,#1024,#1025);
#876=AXIS2_PLACEMENT_3D('',#1275,#1027,#1028);
#877=AXIS2_PLACEMENT_3D('',#1277,#1030,#1031);
#878=AXIS2_PLACEMENT_3D('',#1294,#1040,#1041);
#879=AXIS2_PLACEMENT_3D('',#1297,#1044,#1045);
#880=AXIS2_PLACEMENT_3D('',#1299,#1047,#1048);
#881=AXIS2_PLACEMENT_3D('',#1301,#1050,#1051);
#882=AXIS2_PLACEMENT_3D('',#1303,#1053,#1054);
#883=AXIS2_PLACEMENT_3D('',#1305,#1056,#1057);
#884=AXIS2_PLACEMENT_3D('',#1307,#1059,#1060);
#885=AXIS2_PLACEMENT_3D('',#1309,#1062,#1063);
#886=AXIS2_PLACEMENT_3D('',#1311,#1065,#1066);
#887=AXIS2_PLACEMENT_3D('',#1313,#1068,#1069);
#888=AXIS2_PLACEMENT_3D('',#1319,#1073,#1074);
#889=AXIS2_PLACEMENT_3D('',#1323,#1077,#1078);
#890=AXIS2_PLACEMENT_3D('',#1325,#1080,#1081);
#891=AXIS2_PLACEMENT_3D('',#1333,#1086,#1087);
#892=AXIS2_PLACEMENT_3D('',#1335,#1089,#1090);
#893=AXIS2_PLACEMENT_3D('',#1337,#1092,#1093);
#894=AXIS2_PLACEMENT_3D('',#1339,#1095,#1096);
#895=AXIS2_PLACEMENT_3D('',#1340,#1097,#1098);
#896=AXIS2_PLACEMENT_3D('',#1342,#1100,#1101);
#897=AXIS2_PLACEMENT_3D('',#1344,#1103,#1104);
#898=AXIS2_PLACEMENT_3D('',#1346,#1106,#1107);
#899=AXIS2_PLACEMENT_3D('',#1348,#1109,#1110);
#900=AXIS2_PLACEMENT_3D('',#1350,#1112,#1113);
#901=AXIS2_PLACEMENT_3D('',#1352,#1115,#1116);
#902=DIRECTION('axis',(0.,0.,1.));
#903=DIRECTION('refdir',(1.,0.,0.));
#904=DIRECTION('center_axis',(0.,-1.,0.));
#905=DIRECTION('ref_axis',(1.,0.,0.));
#906=DIRECTION('center_axis',(0.,-1.,0.));
#907=DIRECTION('ref_axis',(1.,0.,0.));
#908=DIRECTION('',(0.707106781186547,0.707106781186547,8.65956056235493E-17));
#909=DIRECTION('center_axis',(0.,1.,0.));
#910=DIRECTION('ref_axis',(1.,0.,0.));
#911=DIRECTION('center_axis',(0.,1.,0.));
#912=DIRECTION('ref_axis',(1.,0.,0.));
#913=DIRECTION('',(0.,1.,0.));
#914=DIRECTION('center_axis',(0.,1.,0.));
#915=DIRECTION('ref_axis',(1.,0.,0.));
#916=DIRECTION('center_axis',(0.,1.,0.));
#917=DIRECTION('ref_axis',(0.,0.,1.));
#918=DIRECTION('center_axis',(0.,1.,0.));
#919=DIRECTION('ref_axis',(-1.,0.,0.));
#920=DIRECTION('',(-1.,0.,-1.83697019872103E-16));
#921=DIRECTION('',(4.35139034135247E-16,0.,-1.));
#922=DIRECTION('center_axis',(0.,1.,0.));
#923=DIRECTION('ref_axis',(-7.40148683083437E-15,0.,-1.));
#924=DIRECTION('',(-1.,0.,0.));
#925=DIRECTION('',(0.,0.,-1.));
#926=DIRECTION('',(-1.,0.,0.));
#927=DIRECTION('',(0.,0.,1.));
#928=DIRECTION('',(-1.,0.,-4.35139034135252E-16));
#929=DIRECTION('center_axis',(0.,1.,0.));
#930=DIRECTION('ref_axis',(-1.,0.,5.55111512312577E-15));
#931=DIRECTION('',(4.35139034135247E-16,0.,1.));
#932=DIRECTION('',(0.707106781186546,0.,0.707106781186549));
#933=DIRECTION('',(-1.22464679914735E-16,0.,1.));
#934=DIRECTION('',(-0.707106781186542,0.,0.707106781186553));
#935=DIRECTION('',(0.,0.,1.));
#936=DIRECTION('center_axis',(0.,1.,0.));
#937=DIRECTION('ref_axis',(5.55111512312578E-15,0.,1.));
#938=DIRECTION('',(1.,0.,-8.70278068270487E-16));
#939=DIRECTION('',(-1.22464679914735E-16,0.,1.));
#940=DIRECTION('',(1.,0.,1.22464679914735E-16));
#941=DIRECTION('',(1.22464679914735E-16,0.,-1.));
#942=DIRECTION('',(1.,0.,0.));
#943=DIRECTION('center_axis',(0.,1.,0.));
#944=DIRECTION('ref_axis',(1.,0.,-3.70074341541719E-15));
#945=DIRECTION('',(4.35139034135255E-16,0.,-1.));
#946=DIRECTION('',(1.,0.,1.83697019872103E-16));
#947=DIRECTION('',(1.83697019872103E-16,0.,-1.));
#948=DIRECTION('center_axis',(0.,-1.,0.));
#949=DIRECTION('ref_axis',(1.,0.,0.));
#950=DIRECTION('center_axis',(0.,1.,0.));
#951=DIRECTION('ref_axis',(0.,0.,1.));
#952=DIRECTION('center_axis',(0.,1.,0.));
#953=DIRECTION('ref_axis',(-1.,0.,0.));
#954=DIRECTION('',(-1.22464679914735E-16,0.,1.));
#955=DIRECTION('',(0.707106781186546,0.,0.707106781186549));
#956=DIRECTION('',(2.19350049419812E-16,0.,1.));
#957=DIRECTION('center_axis',(0.,1.,0.));
#958=DIRECTION('ref_axis',(6.66133814775092E-15,0.,-1.));
#959=DIRECTION('',(-1.,0.,-4.38700098839628E-16));
#960=DIRECTION('',(-0.707106781186551,0.,-0.707106781186544));
#961=DIRECTION('',(-1.,0.,0.));
#962=DIRECTION('',(-0.707106781186551,0.,0.707106781186544));
#963=DIRECTION('',(-1.,0.,2.19350049419814E-16));
#964=DIRECTION('center_axis',(0.,1.,0.));
#965=DIRECTION('ref_axis',(1.,0.,6.66133814775093E-15));
#966=DIRECTION('',(4.38700098839624E-16,0.,-1.));
#967=DIRECTION('',(0.707106781186546,0.,-0.707106781186549));
#968=DIRECTION('',(0.,0.,-1.));
#969=DIRECTION('',(-0.707106781186541,0.,-0.707106781186554));
#970=DIRECTION('',(2.19350049419816E-16,0.,-1.));
#971=DIRECTION('center_axis',(0.,1.,0.));
#972=DIRECTION('ref_axis',(-6.66133814775093E-15,0.,1.));
#973=DIRECTION('',(1.,0.,0.));
#974=DIRECTION('',(0.707106781186556,0.,0.707106781186539));
#975=DIRECTION('',(1.,0.,0.));
#976=DIRECTION('',(0.707106781186546,0.,-0.707106781186549));
#977=DIRECTION('',(1.,0.,-4.3870009883962E-16));
#978=DIRECTION('center_axis',(0.,1.,0.));
#979=DIRECTION('ref_axis',(-1.,0.,-8.88178419700124E-15));
#980=DIRECTION('',(2.19350049419816E-16,0.,1.));
#981=DIRECTION('',(-0.707106781186541,0.,0.707106781186554));
#982=DIRECTION('center_axis',(-1.,0.,-1.22464679914735E-16));
#983=DIRECTION('ref_axis',(-1.22464679914735E-16,0.,1.));
#984=DIRECTION('',(0.,1.,0.));
#985=DIRECTION('',(0.,-1.,0.));
#986=DIRECTION('center_axis',(-0.707106781186554,0.,-0.707106781186541));
#987=DIRECTION('ref_axis',(0.707106781186541,0.,-0.707106781186554));
#988=DIRECTION('',(0.,1.,0.));
#989=DIRECTION('center_axis',(-0.707106781186549,0.,0.707106781186546));
#990=DIRECTION('ref_axis',(-0.707106781186546,0.,-0.707106781186549));
#991=DIRECTION('',(0.,1.,0.));
#992=DIRECTION('center_axis',(0.,-1.,0.));
#993=DIRECTION('ref_axis',(-1.83697019872103E-16,0.,1.));
#994=DIRECTION('',(-4.38700098839624E-16,0.,1.));
#995=DIRECTION('',(-1.,0.,-1.83697019872103E-16));
#996=DIRECTION('',(1.83697019872103E-16,0.,-1.));
#997=DIRECTION('',(1.,0.,1.83697019872103E-16));
#998=DIRECTION('',(-2.19350049419816E-16,0.,1.));
#999=DIRECTION('',(0.707106781186541,0.,0.707106781186554));
#1000=DIRECTION('',(0.,0.,1.));
#1001=DIRECTION('',(-0.707106781186546,0.,0.707106781186549));
#1002=DIRECTION('center_axis',(1.83697019872103E-16,0.,-1.));
#1003=DIRECTION('ref_axis',(-1.,0.,-1.83697019872103E-16));
#1004=DIRECTION('',(0.,1.,0.));
#1005=DIRECTION('',(0.,1.,0.));
#1006=DIRECTION('center_axis',(1.,0.,1.83697019872103E-16));
#1007=DIRECTION('ref_axis',(1.83697019872103E-16,0.,-1.));
#1008=DIRECTION('',(0.,1.,0.));
#1009=DIRECTION('center_axis',(-1.83697019872103E-16,0.,1.));
#1010=DIRECTION('ref_axis',(1.,0.,1.83697019872103E-16));
#1011=DIRECTION('',(0.,-1.,0.));
#1012=DIRECTION('center_axis',(-2.19350049419814E-16,0.,-1.));
#1013=DIRECTION('ref_axis',(1.,0.,-2.19350049419814E-16));
#1014=DIRECTION('',(0.,-1.,0.));
#1015=DIRECTION('',(0.,1.,0.));
#1016=DIRECTION('',(1.,0.,-2.19350049419814E-16));
#1017=DIRECTION('',(0.,1.,0.));
#1018=DIRECTION('center_axis',(0.,-1.,0.));
#1019=DIRECTION('ref_axis',(1.,0.,6.66133814775093E-15));
#1020=DIRECTION('',(0.,-1.,0.));
#1021=DIRECTION('center_axis',(1.,0.,4.38700098839624E-16));
#1022=DIRECTION('ref_axis',(-4.38700098839624E-16,0.,1.));
#1023=DIRECTION('',(0.,1.,0.));
#1024=DIRECTION('center_axis',(0.707106781186549,0.,0.707106781186546));
#1025=DIRECTION('ref_axis',(-0.707106781186546,0.,0.707106781186549));
#1026=DIRECTION('',(0.,-1.,0.));
#1027=DIRECTION('center_axis',(1.,0.,0.));
#1028=DIRECTION('ref_axis',(0.,0.,1.));
#1029=DIRECTION('',(0.,1.,0.));
#1030=DIRECTION('center_axis',(0.,-1.,0.));
#1031=DIRECTION('ref_axis',(-1.,0.,-1.22464679914735E-16));
#1032=DIRECTION('',(-1.,0.,0.));
#1033=DIRECTION('',(1.22464679914735E-16,0.,-1.));
#1034=DIRECTION('',(1.,0.,1.22464679914735E-16));
#1035=DIRECTION('',(-1.22464679914735E-16,0.,1.));
#1036=DIRECTION('',(-1.,0.,4.3870009883962E-16));
#1037=DIRECTION('',(-0.707106781186546,0.,0.707106781186549));
#1038=DIRECTION('',(-1.,0.,0.));
#1039=DIRECTION('',(-0.707106781186556,0.,-0.707106781186539));
#1040=DIRECTION('center_axis',(1.,0.,1.22464679914735E-16));
#1041=DIRECTION('ref_axis',(1.22464679914735E-16,0.,-1.));
#1042=DIRECTION('',(0.,1.,0.));
#1043=DIRECTION('',(0.,1.,0.));
#1044=DIRECTION('center_axis',(-1.22464679914735E-16,0.,1.));
#1045=DIRECTION('ref_axis',(1.,0.,1.22464679914735E-16));
#1046=DIRECTION('',(0.,1.,0.));
#1047=DIRECTION('center_axis',(-1.,0.,-1.22464679914735E-16));
#1048=DIRECTION('ref_axis',(-1.22464679914735E-16,0.,1.));
#1049=DIRECTION('',(0.,-1.,0.));
#1050=DIRECTION('center_axis',(0.707106781186554,0.,-0.707106781186541));
#1051=DIRECTION('ref_axis',(0.707106781186541,0.,0.707106781186554));
#1052=DIRECTION('',(0.,1.,0.));
#1053=DIRECTION('center_axis',(1.,0.,2.19350049419816E-16));
#1054=DIRECTION('ref_axis',(-2.19350049419816E-16,0.,1.));
#1055=DIRECTION('',(0.,-1.,0.));
#1056=DIRECTION('center_axis',(0.,-1.,0.));
#1057=DIRECTION('ref_axis',(-6.66133814775093E-15,0.,1.));
#1058=DIRECTION('',(0.,-1.,0.));
#1059=DIRECTION('center_axis',(0.,0.,1.));
#1060=DIRECTION('ref_axis',(-1.,0.,0.));
#1061=DIRECTION('',(0.,-1.,0.));
#1062=DIRECTION('center_axis',(-0.707106781186539,0.,0.707106781186556));
#1063=DIRECTION('ref_axis',(-0.707106781186556,0.,-0.707106781186539));
#1064=DIRECTION('',(0.,-1.,0.));
#1065=DIRECTION('center_axis',(0.,0.,1.));
#1066=DIRECTION('ref_axis',(-1.,0.,0.));
#1067=DIRECTION('',(0.,1.,0.));
#1068=DIRECTION('center_axis',(-1.,0.,0.));
#1069=DIRECTION('ref_axis',(0.,0.,1.));
#1070=DIRECTION('',(0.,1.,0.));
#1071=DIRECTION('',(0.,0.,1.));
#1072=DIRECTION('',(0.,1.,0.));
#1073=DIRECTION('center_axis',(0.,0.,-1.));
#1074=DIRECTION('ref_axis',(-1.,0.,0.));
#1075=DIRECTION('',(0.,1.,0.));
#1076=DIRECTION('',(-1.,0.,0.));
#1077=DIRECTION('center_axis',(1.,0.,0.));
#1078=DIRECTION('ref_axis',(0.,0.,-1.));
#1079=DIRECTION('',(0.,0.,-1.));
#1080=DIRECTION('center_axis',(0.,-1.,0.));
#1081=DIRECTION('ref_axis',(1.,0.,0.));
#1082=DIRECTION('',(0.707106781186551,0.,-0.707106781186544));
#1083=DIRECTION('',(1.,0.,0.));
#1084=DIRECTION('',(0.707106781186551,0.,0.707106781186544));
#1085=DIRECTION('',(1.,0.,4.38700098839628E-16));
#1086=DIRECTION('center_axis',(0.707106781186549,0.,0.707106781186546));
#1087=DIRECTION('ref_axis',(-0.707106781186546,0.,0.707106781186549));
#1088=DIRECTION('',(0.,1.,0.));
#1089=DIRECTION('center_axis',(4.3870009883962E-16,0.,1.));
#1090=DIRECTION('ref_axis',(-1.,0.,4.3870009883962E-16));
#1091=DIRECTION('',(0.,-1.,0.));
#1092=DIRECTION('center_axis',(0.,-1.,0.));
#1093=DIRECTION('ref_axis',(-1.,0.,-8.88178419700124E-15));
#1094=DIRECTION('',(0.,-1.,0.));
#1095=DIRECTION('center_axis',(-1.,0.,2.19350049419816E-16));
#1096=DIRECTION('ref_axis',(-2.19350049419816E-16,0.,-1.));
#1097=DIRECTION('center_axis',(-1.,0.,2.19350049419812E-16));
#1098=DIRECTION('ref_axis',(-2.19350049419812E-16,0.,-1.));
#1099=DIRECTION('',(0.,-1.,0.));
#1100=DIRECTION('center_axis',(0.,-1.,0.));
#1101=DIRECTION('ref_axis',(6.66133814775092E-15,0.,-1.));
#1102=DIRECTION('',(0.,-1.,0.));
#1103=DIRECTION('center_axis',(0.,1.,0.));
#1104=DIRECTION('ref_axis',(-1.,0.,0.));
#1105=DIRECTION('',(0.,-1.,0.));
#1106=DIRECTION('center_axis',(4.38700098839628E-16,0.,-1.));
#1107=DIRECTION('ref_axis',(1.,0.,4.38700098839628E-16));
#1108=DIRECTION('',(0.,1.,0.));
#1109=DIRECTION('center_axis',(-0.707106781186544,0.,-0.707106781186551));
#1110=DIRECTION('ref_axis',(0.707106781186551,0.,-0.707106781186544));
#1111=DIRECTION('',(0.,1.,0.));
#1112=DIRECTION('center_axis',(0.707106781186544,0.,-0.707106781186551));
#1113=DIRECTION('ref_axis',(0.707106781186551,0.,0.707106781186544));
#1114=DIRECTION('',(0.,-1.,0.));
#1115=DIRECTION('center_axis',(0.,0.,-1.));
#1116=DIRECTION('ref_axis',(1.,0.,0.));
#1117=CARTESIAN_POINT('',(0.,0.,0.));
#1118=CARTESIAN_POINT('Origin',(-24.,13.1,3.70505994368319E-14));
#1119=CARTESIAN_POINT('',(-26.925,12.8,3.66923902480813E-14));
#1120=CARTESIAN_POINT('Origin',(-24.,12.8,3.70505994368319E-14));
#1121=CARTESIAN_POINT('',(-26.325,13.4,3.73353298176337E-14));
#1122=CARTESIAN_POINT('',(-26.625,13.1,3.67291296520557E-14));
#1123=CARTESIAN_POINT('Origin',(-24.,13.4,3.70505994368319E-14));
#1124=CARTESIAN_POINT('Origin',(-24.,12.8,3.70505994368319E-14));
#1125=CARTESIAN_POINT('',(-26.325,16.8,3.67658690560301E-14));
#1126=CARTESIAN_POINT('',(-26.325,12.8,3.73353298176337E-14));
#1127=CARTESIAN_POINT('Origin',(-24.,16.8,3.70505994368319E-14));
#1128=CARTESIAN_POINT('Origin',(0.,12.8,0.));
#1129=CARTESIAN_POINT('',(32.5,12.8,-3.9801020972289E-15));
#1130=CARTESIAN_POINT('Origin',(0.,12.8,0.));
#1131=CARTESIAN_POINT('',(31.5,12.8,-4.79999999999999));
#1132=CARTESIAN_POINT('',(10.1,12.8,-4.8));
#1133=CARTESIAN_POINT('',(15.75,12.8,-4.8));
#1134=CARTESIAN_POINT('',(10.1,12.8,-9.49999999999998));
#1135=CARTESIAN_POINT('',(10.1,12.8,-2.19857864376265));
#1136=CARTESIAN_POINT('',(9.5,12.8,-10.1));
#1137=CARTESIAN_POINT('Origin',(9.5,12.8,-9.49999999999998));
#1138=CARTESIAN_POINT('',(4.8,12.8,-10.1));
#1139=CARTESIAN_POINT('',(4.75,12.8,-10.1));
#1140=CARTESIAN_POINT('',(4.8,12.8,-31.5));
#1141=CARTESIAN_POINT('',(4.8,12.8,-5.04999999999999));
#1142=CARTESIAN_POINT('',(-4.8,12.8,-31.5));
#1143=CARTESIAN_POINT('',(2.4,12.8,-31.5));
#1144=CARTESIAN_POINT('',(-4.8,12.8,-10.1));
#1145=CARTESIAN_POINT('',(-4.8,12.8,-15.75));
#1146=CARTESIAN_POINT('',(-9.49999999999999,12.8,-10.1));
#1147=CARTESIAN_POINT('',(-2.4,12.8,-10.1));
#1148=CARTESIAN_POINT('',(-10.1,12.8,-9.49999999999998));
#1149=CARTESIAN_POINT('Origin',(-9.5,12.8,-9.49999999999998));
#1150=CARTESIAN_POINT('',(-10.1,12.8,-4.3971572875253));
#1151=CARTESIAN_POINT('',(-10.1,12.8,-4.74999999999999));
#1152=CARTESIAN_POINT('',(-9.12784271247463,12.8,-3.42500000000007));
#1153=CARTESIAN_POINT('',(-6.47571067811868,12.8,-0.772867965643974));
#1154=CARTESIAN_POINT('',(-9.12784271247463,12.8,3.42499999999993));
#1155=CARTESIAN_POINT('',(-9.12784271247463,12.8,-1.71250000000004));
#1156=CARTESIAN_POINT('',(-10.1,12.8,4.39715728752546));
#1157=CARTESIAN_POINT('',(-5.73963203435599,12.8,0.0367893218813778));
#1158=CARTESIAN_POINT('',(-10.1,12.8,9.50000000000004));
#1159=CARTESIAN_POINT('',(-10.1,12.8,2.19857864376273));
#1160=CARTESIAN_POINT('',(-9.49999999999999,12.8,10.1));
#1161=CARTESIAN_POINT('Origin',(-9.5,12.8,9.50000000000004));
#1162=CARTESIAN_POINT('',(-4.8,12.8,10.1));
#1163=CARTESIAN_POINT('',(-4.74999999999999,12.8,10.1));
#1164=CARTESIAN_POINT('',(-4.8,12.8,31.5));
#1165=CARTESIAN_POINT('',(-4.8,12.8,5.04999999999999));
#1166=CARTESIAN_POINT('',(4.8,12.8,31.5));
#1167=CARTESIAN_POINT('',(-2.4,12.8,31.5));
#1168=CARTESIAN_POINT('',(4.8,12.8,10.1));
#1169=CARTESIAN_POINT('',(4.8,12.8,15.75));
#1170=CARTESIAN_POINT('',(9.49999999999999,12.8,10.1));
#1171=CARTESIAN_POINT('',(2.19857864376274,12.8,10.1));
#1172=CARTESIAN_POINT('',(10.1,12.8,9.50000000000004));
#1173=CARTESIAN_POINT('Origin',(9.5,12.8,9.50000000000004));
#1174=CARTESIAN_POINT('',(10.1,12.8,4.8));
#1175=CARTESIAN_POINT('',(10.1,12.8,4.75000000000002));
#1176=CARTESIAN_POINT('',(31.5,12.8,4.80000000000001));
#1177=CARTESIAN_POINT('',(5.04999999999999,12.8,4.8));
#1178=CARTESIAN_POINT('',(31.5,12.8,2.40000000000001));
#1179=CARTESIAN_POINT('Origin',(-24.,16.8,3.69149155687865E-14));
#1180=CARTESIAN_POINT('Origin',(0.,24.6,0.));
#1181=CARTESIAN_POINT('',(32.5,24.6,-3.9801020972289E-15));
#1182=CARTESIAN_POINT('Origin',(0.,24.6,0.));
#1183=CARTESIAN_POINT('',(-9.12784271247463,24.6,-3.42499999999993));
#1184=CARTESIAN_POINT('',(-9.12784271247463,24.6,3.42500000000007));
#1185=CARTESIAN_POINT('',(-9.12784271247463,24.6,-1.71250000000004));
#1186=CARTESIAN_POINT('',(-10.1,24.6,-4.39715728752531));
#1187=CARTESIAN_POINT('',(-5.75427669529668,24.6,-0.0514339828219668));
#1188=CARTESIAN_POINT('',(-10.1,24.6,-9.49999999999998));
#1189=CARTESIAN_POINT('',(-10.1,24.6,-2.21928932188131));
#1190=CARTESIAN_POINT('',(-9.49999999999999,24.6,-10.1));
#1191=CARTESIAN_POINT('Origin',(-9.5,24.6,-9.49999999999998));
#1192=CARTESIAN_POINT('',(-4.39715728752537,24.6,-10.1));
#1193=CARTESIAN_POINT('',(-4.75,24.6,-10.1));
#1194=CARTESIAN_POINT('',(-3.42500000000001,24.6,-9.12784271247462));
#1195=CARTESIAN_POINT('',(-0.758223304703355,24.6,-6.46106601717799));
#1196=CARTESIAN_POINT('',(3.425,24.6,-9.12784271247462));
#1197=CARTESIAN_POINT('',(-2.65,24.6,-9.12784271247462));
#1198=CARTESIAN_POINT('',(4.39715728752538,24.6,-10.1));
#1199=CARTESIAN_POINT('',(0.0514339828220092,24.6,-5.75427669529666));
#1200=CARTESIAN_POINT('',(9.5,24.6,-10.1));
#1201=CARTESIAN_POINT('',(2.21928932188134,24.6,-10.1));
#1202=CARTESIAN_POINT('',(10.1,24.6,-9.49999999999998));
#1203=CARTESIAN_POINT('Origin',(9.5,24.6,-9.49999999999998));
#1204=CARTESIAN_POINT('',(10.1,24.6,-4.3971572875253));
#1205=CARTESIAN_POINT('',(10.1,24.6,-4.74999999999999));
#1206=CARTESIAN_POINT('',(9.12784271247463,24.6,-3.42499999999993));
#1207=CARTESIAN_POINT('',(6.46106601717801,24.6,-0.758223304703303));
#1208=CARTESIAN_POINT('',(9.12784271247463,24.6,3.42500000000007));
#1209=CARTESIAN_POINT('',(9.12784271247463,24.6,-1.46249999999997));
#1210=CARTESIAN_POINT('',(10.1,24.6,4.39715728752546));
#1211=CARTESIAN_POINT('',(5.75427669529667,24.6,0.0514339828220495));
#1212=CARTESIAN_POINT('',(10.1,24.6,9.50000000000004));
#1213=CARTESIAN_POINT('',(10.1,24.6,2.21928932188139));
#1214=CARTESIAN_POINT('',(9.49999999999999,24.6,10.1));
#1215=CARTESIAN_POINT('Origin',(9.5,24.6,9.50000000000004));
#1216=CARTESIAN_POINT('',(4.39715728752548,24.6,10.1));
#1217=CARTESIAN_POINT('',(4.75,24.6,10.1));
#1218=CARTESIAN_POINT('',(3.42500000000007,24.6,9.12784271247465));
#1219=CARTESIAN_POINT('',(0.758223304703402,24.6,6.46106601717804));
#1220=CARTESIAN_POINT('',(-3.42499999999989,24.6,9.12784271247465));
#1221=CARTESIAN_POINT('',(1.46250000000003,24.6,9.12784271247465));
#1222=CARTESIAN_POINT('',(-4.39715728752528,24.6,10.1));
#1223=CARTESIAN_POINT('',(-0.0514339828219557,24.6,5.7542766952967));
#1224=CARTESIAN_POINT('',(-9.49999999999999,24.6,10.1));
#1225=CARTESIAN_POINT('',(-2.21928932188129,24.6,10.1));
#1226=CARTESIAN_POINT('',(-10.1,24.6,9.50000000000004));
#1227=CARTESIAN_POINT('Origin',(-9.5,24.6,9.50000000000004));
#1228=CARTESIAN_POINT('',(-10.1,24.6,4.39715728752546));
#1229=CARTESIAN_POINT('',(-10.1,24.6,4.75000000000002));
#1230=CARTESIAN_POINT('',(-6.46106601717801,24.6,0.758223304703405));
#1231=CARTESIAN_POINT('Origin',(-9.12784271247463,12.8,-3.42500000000007));
#1232=CARTESIAN_POINT('',(-9.12784271247463,18.9,3.42500000000007));
#1233=CARTESIAN_POINT('',(-9.12784271247463,18.9,-3.42499999999993));
#1234=CARTESIAN_POINT('Origin',(-10.0707106781187,25.,4.36786796564412));
#1235=CARTESIAN_POINT('',(-10.1,25.,4.39715728752546));
#1236=CARTESIAN_POINT('Origin',(-8.65713203435599,25.,-2.95428932188129));
#1237=CARTESIAN_POINT('',(-10.1,25.,-4.39715728752531));
#1238=CARTESIAN_POINT('Origin',(10.7,18.8,4.18600416188181E-15));
#1239=CARTESIAN_POINT('',(10.1,18.8,-4.8));
#1240=CARTESIAN_POINT('',(10.1,18.8,-4.3971572875253));
#1241=CARTESIAN_POINT('',(10.1,18.8,-4.74999999999999));
#1242=CARTESIAN_POINT('',(31.5,18.8,-4.79999999999999));
#1243=CARTESIAN_POINT('',(31.5,18.8,-4.79999999999999));
#1244=CARTESIAN_POINT('',(31.5,18.8,4.80000000000001));
#1245=CARTESIAN_POINT('',(31.5,18.8,4.80000000000001));
#1246=CARTESIAN_POINT('',(10.1,18.8,4.8));
#1247=CARTESIAN_POINT('',(3.99999999999998,18.8,4.8));
#1248=CARTESIAN_POINT('',(10.1,18.8,4.39715728752546));
#1249=CARTESIAN_POINT('',(10.1,18.8,2.21928932188139));
#1250=CARTESIAN_POINT('',(9.12784271247463,18.8,3.42500000000007));
#1251=CARTESIAN_POINT('',(8.42927669529661,18.8,2.72643398282204));
#1252=CARTESIAN_POINT('',(9.12784271247463,18.8,-3.42499999999993));
#1253=CARTESIAN_POINT('',(9.12784271247463,18.8,-1.46249999999997));
#1254=CARTESIAN_POINT('',(9.13606601717799,18.8,-3.43322330470329));
#1255=CARTESIAN_POINT('Origin',(31.5,12.8,-4.79999999999999));
#1256=CARTESIAN_POINT('',(31.5,12.8,-4.79999999999999));
#1257=CARTESIAN_POINT('',(10.1,18.9,-4.8));
#1258=CARTESIAN_POINT('Origin',(31.5,12.8,4.80000000000001));
#1259=CARTESIAN_POINT('',(31.5,12.8,4.80000000000001));
#1260=CARTESIAN_POINT('Origin',(10.1,12.8,4.8));
#1261=CARTESIAN_POINT('',(10.1,18.9,4.8));
#1262=CARTESIAN_POINT('Origin',(4.43857864376269,25.,-10.1));
#1263=CARTESIAN_POINT('',(9.5,25.,-10.1));
#1264=CARTESIAN_POINT('',(4.39715728752538,18.8,-10.1));
#1265=CARTESIAN_POINT('',(4.39715728752538,25.,-10.1));
#1266=CARTESIAN_POINT('',(4.8,18.8,-10.1));
#1267=CARTESIAN_POINT('',(2.21928932188134,18.8,-10.1));
#1268=CARTESIAN_POINT('',(4.8,12.8,-10.1));
#1269=CARTESIAN_POINT('Origin',(9.5,25.,-9.49999999999998));
#1270=CARTESIAN_POINT('',(10.1,25.,-9.49999999999998));
#1271=CARTESIAN_POINT('Origin',(10.1,25.,-9.49999999999998));
#1272=CARTESIAN_POINT('',(10.1,25.,-4.3971572875253));
#1273=CARTESIAN_POINT('Origin',(10.0707106781187,25.,-4.36786796564396));
#1274=CARTESIAN_POINT('',(9.12784271247463,25.,-3.42499999999993));
#1275=CARTESIAN_POINT('Origin',(9.12784271247463,25.,-2.92499999999995));
#1276=CARTESIAN_POINT('',(9.12784271247463,25.,3.42500000000007));
#1277=CARTESIAN_POINT('Origin',(-3.53081812433798E-15,18.8,10.7));
#1278=CARTESIAN_POINT('',(4.8,18.8,10.1));
#1279=CARTESIAN_POINT('',(4.39715728752548,18.8,10.1));
#1280=CARTESIAN_POINT('',(4.75,18.8,10.1));
#1281=CARTESIAN_POINT('',(4.8,18.8,31.5));
#1282=CARTESIAN_POINT('',(4.8,18.8,31.5));
#1283=CARTESIAN_POINT('',(-4.8,18.8,31.5));
#1284=CARTESIAN_POINT('',(-4.8,18.8,31.5));
#1285=CARTESIAN_POINT('',(-4.8,18.8,10.1));
#1286=CARTESIAN_POINT('',(-4.8,18.8,3.99999999999998));
#1287=CARTESIAN_POINT('',(-4.39715728752528,18.8,10.1));
#1288=CARTESIAN_POINT('',(-2.2192893218813,18.8,10.1));
#1289=CARTESIAN_POINT('',(-3.42499999999989,18.8,9.12784271247465));
#1290=CARTESIAN_POINT('',(-2.72643398282195,18.8,8.42927669529671));
#1291=CARTESIAN_POINT('',(3.42500000000007,18.8,9.12784271247465));
#1292=CARTESIAN_POINT('',(1.46250000000003,18.8,9.12784271247465));
#1293=CARTESIAN_POINT('',(3.43322330470339,18.8,9.13606601717797));
#1294=CARTESIAN_POINT('Origin',(4.8,12.8,31.5));
#1295=CARTESIAN_POINT('',(4.8,12.8,31.5));
#1296=CARTESIAN_POINT('',(4.8,18.9,10.1));
#1297=CARTESIAN_POINT('Origin',(-4.8,12.8,31.5));
#1298=CARTESIAN_POINT('',(-4.8,12.8,31.5));
#1299=CARTESIAN_POINT('Origin',(-4.8,12.8,10.1));
#1300=CARTESIAN_POINT('',(-4.8,18.9,10.1));
#1301=CARTESIAN_POINT('Origin',(8.65713203435597,25.,2.95428932188141));
#1302=CARTESIAN_POINT('',(10.1,25.,4.39715728752546));
#1303=CARTESIAN_POINT('Origin',(10.1,25.,4.43857864376277));
#1304=CARTESIAN_POINT('',(10.1,25.,9.50000000000004));
#1305=CARTESIAN_POINT('Origin',(9.5,25.,9.50000000000004));
#1306=CARTESIAN_POINT('',(9.49999999999999,25.,10.1));
#1307=CARTESIAN_POINT('Origin',(9.49999999999999,25.,10.1));
#1308=CARTESIAN_POINT('',(4.39715728752548,25.,10.1));
#1309=CARTESIAN_POINT('Origin',(4.36786796564413,25.,10.0707106781187));
#1310=CARTESIAN_POINT('',(3.42500000000007,25.,9.12784271247465));
#1311=CARTESIAN_POINT('Origin',(2.92500000000006,25.,9.12784271247465));
#1312=CARTESIAN_POINT('',(-3.42499999999989,25.,9.12784271247465));
#1313=CARTESIAN_POINT('Origin',(-4.8,12.8,-31.5));
#1314=CARTESIAN_POINT('',(-4.8,18.8,-31.5));
#1315=CARTESIAN_POINT('',(-4.8,12.8,-31.5));
#1316=CARTESIAN_POINT('',(-4.8,18.8,-10.1));
#1317=CARTESIAN_POINT('',(-4.8,18.8,-31.5));
#1318=CARTESIAN_POINT('',(-4.8,18.9,-10.1));
#1319=CARTESIAN_POINT('Origin',(4.8,12.8,-31.5));
#1320=CARTESIAN_POINT('',(4.8,18.8,-31.5));
#1321=CARTESIAN_POINT('',(4.8,12.8,-31.5));
#1322=CARTESIAN_POINT('',(4.8,18.8,-31.5));
#1323=CARTESIAN_POINT('Origin',(4.8,12.8,-10.1));
#1324=CARTESIAN_POINT('',(4.8,18.8,-3.99999999999998));
#1325=CARTESIAN_POINT('Origin',(2.22044604925031E-15,18.8,-10.7));
#1326=CARTESIAN_POINT('',(3.425,18.8,-9.12784271247462));
#1327=CARTESIAN_POINT('',(2.726433982822,18.8,-8.42927669529663));
#1328=CARTESIAN_POINT('',(-3.42500000000001,18.8,-9.12784271247462));
#1329=CARTESIAN_POINT('',(-2.65,18.8,-9.12784271247462));
#1330=CARTESIAN_POINT('',(-4.39715728752537,18.8,-10.1));
#1331=CARTESIAN_POINT('',(-3.43322330470335,18.8,-9.13606601717796));
#1332=CARTESIAN_POINT('',(-4.75,18.8,-10.1));
#1333=CARTESIAN_POINT('Origin',(-2.95428932188128,25.,8.65713203435604));
#1334=CARTESIAN_POINT('',(-4.39715728752528,25.,10.1));
#1335=CARTESIAN_POINT('Origin',(-4.43857864376259,25.,10.1));
#1336=CARTESIAN_POINT('',(-9.49999999999999,25.,10.1));
#1337=CARTESIAN_POINT('Origin',(-9.5,25.,9.50000000000004));
#1338=CARTESIAN_POINT('',(-10.1,25.,9.50000000000004));
#1339=CARTESIAN_POINT('Origin',(-10.1,25.,9.50000000000004));
#1340=CARTESIAN_POINT('Origin',(-10.1,25.,-4.43857864376262));
#1341=CARTESIAN_POINT('',(-10.1,25.,-9.49999999999998));
#1342=CARTESIAN_POINT('Origin',(-9.5,25.,-9.49999999999998));
#1343=CARTESIAN_POINT('',(-9.49999999999999,25.,-10.1));
#1344=CARTESIAN_POINT('Origin',(0.,13.,0.));
#1345=CARTESIAN_POINT('',(32.5,13.,-3.9801020972289E-15));
#1346=CARTESIAN_POINT('Origin',(-9.49999999999999,25.,-10.1));
#1347=CARTESIAN_POINT('',(-4.39715728752537,25.,-10.1));
#1348=CARTESIAN_POINT('Origin',(2.95428932188134,25.,-8.65713203435597));
#1349=CARTESIAN_POINT('',(3.425,25.,-9.12784271247462));
#1350=CARTESIAN_POINT('Origin',(-4.36786796564403,25.,-10.0707106781186));
#1351=CARTESIAN_POINT('',(-3.42500000000001,25.,-9.12784271247462));
#1352=CARTESIAN_POINT('Origin',(-5.3,25.,-9.12784271247462));
#1353=UNCERTAINTY_MEASURE_WITH_UNIT(LENGTH_MEASURE(0.01),#1357,
'DISTANCE_ACCURACY_VALUE',
'Maximum model space distance between geometric entities at asserted c
onnectivities');
#1354=UNCERTAINTY_MEASURE_WITH_UNIT(LENGTH_MEASURE(0.01),#1357,
'DISTANCE_ACCURACY_VALUE',
'Maximum model space distance between geometric entities at asserted c
onnectivities');
#1355=(
GEOMETRIC_REPRESENTATION_CONTEXT(3)
GLOBAL_UNCERTAINTY_ASSIGNED_CONTEXT((#1353))
GLOBAL_UNIT_ASSIGNED_CONTEXT((#1357,#1359,#1360))
REPRESENTATION_CONTEXT('','3D')
);
#1356=(
GEOMETRIC_REPRESENTATION_CONTEXT(3)
GLOBAL_UNCERTAINTY_ASSIGNED_CONTEXT((#1354))
GLOBAL_UNIT_ASSIGNED_CONTEXT((#1357,#1359,#1360))
REPRESENTATION_CONTEXT('','3D')
);
#1357=(
LENGTH_UNIT()
NAMED_UNIT(*)
SI_UNIT(.MILLI.,.METRE.)
);
#1358=(
LENGTH_UNIT()
NAMED_UNIT(*)
SI_UNIT($,.METRE.)
);
#1359=(
NAMED_UNIT(*)
PLANE_ANGLE_UNIT()
SI_UNIT($,.RADIAN.)
);
#1360=(
NAMED_UNIT(*)
SI_UNIT($,.STERADIAN.)
SOLID_ANGLE_UNIT()
);
#1361=SHAPE_DEFINITION_REPRESENTATION(#1362,#1363);
#1362=PRODUCT_DEFINITION_SHAPE('',$,#1365);
#1363=SHAPE_REPRESENTATION('',(#846),#1355);
#1364=PRODUCT_DEFINITION_CONTEXT('part definition',#1369,'design');
#1365=PRODUCT_DEFINITION('2026-08-29-11-09-41-717','(Unsaved)',#1366,#1364);
#1366=PRODUCT_DEFINITION_FORMATION('',$,#1371);
#1367=PRODUCT_RELATED_PRODUCT_CATEGORY('(Unsaved)','(Unsaved)',(#1371));
#1368=APPLICATION_PROTOCOL_DEFINITION('international standard',
'automotive_design',2009,#1369);
#1369=APPLICATION_CONTEXT(
'Core Data for Automotive Mechanical Design Process');
#1370=PRODUCT_CONTEXT('part definition',#1369,'mechanical');
#1371=PRODUCT('2026-08-29-11-09-41-717','(Unsaved)',$,(#1370));
#1372=PRESENTATION_STYLE_ASSIGNMENT((#1373));
#1373=SURFACE_STYLE_USAGE(.BOTH.,#1374);
#1374=SURFACE_SIDE_STYLE('',(#1375));
#1375=SURFACE_STYLE_FILL_AREA(#1376);
#1376=FILL_AREA_STYLE('Steel - Satin',(#1377));
#1377=FILL_AREA_STYLE_COLOUR('Steel - Satin',#1378);
#1378=COLOUR_RGB('Steel - Satin',0.627450980392157,0.627450980392157,0.627450980392157);
ENDSEC;
END-ISO-10303-21;
