ISO-10303-21;
HEADER;
/* Generated by software containing ST-Developer
 * from STEP Tools, Inc. (www.steptools.com) 
 */

FILE_DESCRIPTION(
/* description */ (''),
/* implementation_level */ '2;1');

FILE_NAME(
/* name */ 'freestanding-base-bracket-plate_v1.0.step',
/* time_stamp */ '2026-08-29T11:09:42-05:00',
/* author */ (''),
/* organization */ (''),
/* preprocessor_version */ 'ST-DEVELOPER v20.1',
/* originating_system */ 'Autodesk Translation Framework v15.8.0.0',
/* authorisation */ '');

FILE_SCHEMA (('AUTOMOTIVE_DESIGN { 1 0 10303 214 3 1 1 }'));
ENDSEC;

DATA;
#10=MECHANICAL_DESIGN_GEOMETRIC_PRESENTATION_REPRESENTATION('',(#13),#1384);
#11=SHAPE_REPRESENTATION_RELATIONSHIP('SRR','None',#1391,#12);
#12=ADVANCED_BREP_SHAPE_REPRESENTATION('',(#14),#1383);
#13=STYLED_ITEM('',(#1400),#14);
#14=MANIFOLD_SOLID_BREP('Body1',#826);
#15=CYLINDRICAL_SURFACE('',#859,2.35);
#16=CYLINDRICAL_SURFACE('',#863,2.35);
#17=CYLINDRICAL_SURFACE('',#865,2.75);
#18=CYLINDRICAL_SURFACE('',#891,1.);
#19=CYLINDRICAL_SURFACE('',#894,1.);
#20=CYLINDRICAL_SURFACE('',#897,1.);
#21=CYLINDRICAL_SURFACE('',#899,1.);
#22=CYLINDRICAL_SURFACE('',#908,6.);
#23=CYLINDRICAL_SURFACE('',#909,2.75);
#24=CYLINDRICAL_SURFACE('',#910,2.75);
#25=CYLINDRICAL_SURFACE('',#911,2.75);
#26=CYLINDRICAL_SURFACE('',#912,2.8);
#27=CYLINDRICAL_SURFACE('',#913,2.8);
#28=CYLINDRICAL_SURFACE('',#914,2.8);
#29=CYLINDRICAL_SURFACE('',#917,46.45);
#30=CYLINDRICAL_SURFACE('',#918,2.75);
#31=FACE_BOUND('',#129,.T.);
#32=FACE_BOUND('',#130,.T.);
#33=FACE_BOUND('',#131,.T.);
#34=FACE_BOUND('',#132,.T.);
#35=FACE_BOUND('',#133,.T.);
#36=FACE_BOUND('',#134,.T.);
#37=FACE_BOUND('',#135,.T.);
#38=FACE_BOUND('',#136,.T.);
#39=FACE_BOUND('',#137,.T.);
#40=FACE_BOUND('',#138,.T.);
#41=FACE_BOUND('',#139,.T.);
#42=FACE_BOUND('',#149,.T.);
#43=FACE_BOUND('',#155,.T.);
#44=FACE_BOUND('',#161,.T.);
#45=FACE_BOUND('',#167,.T.);
#46=FACE_BOUND('',#176,.T.);
#47=FACE_BOUND('',#177,.T.);
#48=FACE_BOUND('',#178,.T.);
#49=FACE_BOUND('',#179,.T.);
#50=FACE_BOUND('',#180,.T.);
#51=FACE_BOUND('',#181,.T.);
#52=FACE_BOUND('',#182,.T.);
#53=FACE_BOUND('',#183,.T.);
#54=FACE_BOUND('',#184,.T.);
#55=PLANE('',#843);
#56=PLANE('',#867);
#57=PLANE('',#868);
#58=PLANE('',#869);
#59=PLANE('',#870);
#60=PLANE('',#871);
#61=PLANE('',#873);
#62=PLANE('',#874);
#63=PLANE('',#875);
#64=PLANE('',#876);
#65=PLANE('',#877);
#66=PLANE('',#879);
#67=PLANE('',#880);
#68=PLANE('',#881);
#69=PLANE('',#882);
#70=PLANE('',#883);
#71=PLANE('',#885);
#72=PLANE('',#886);
#73=PLANE('',#887);
#74=PLANE('',#888);
#75=PLANE('',#889);
#76=PLANE('',#893);
#77=PLANE('',#896);
#78=PLANE('',#901);
#79=PLANE('',#902);
#80=PLANE('',#915);
#81=PLANE('',#916);
#82=FACE_OUTER_BOUND('',#127,.T.);
#83=FACE_OUTER_BOUND('',#128,.T.);
#84=FACE_OUTER_BOUND('',#140,.T.);
#85=FACE_OUTER_BOUND('',#141,.T.);
#86=FACE_OUTER_BOUND('',#142,.T.);
#87=FACE_OUTER_BOUND('',#143,.T.);
#88=FACE_OUTER_BOUND('',#144,.T.);
#89=FACE_OUTER_BOUND('',#145,.T.);
#90=FACE_OUTER_BOUND('',#146,.T.);
#91=FACE_OUTER_BOUND('',#147,.T.);
#92=FACE_OUTER_BOUND('',#148,.T.);
#93=FACE_OUTER_BOUND('',#150,.T.);
#94=FACE_OUTER_BOUND('',#151,.T.);
#95=FACE_OUTER_BOUND('',#152,.T.);
#96=FACE_OUTER_BOUND('',#153,.T.);
#97=FACE_OUTER_BOUND('',#154,.T.);
#98=FACE_OUTER_BOUND('',#156,.T.);
#99=FACE_OUTER_BOUND('',#157,.T.);
#100=FACE_OUTER_BOUND('',#158,.T.);
#101=FACE_OUTER_BOUND('',#159,.T.);
#102=FACE_OUTER_BOUND('',#160,.T.);
#103=FACE_OUTER_BOUND('',#162,.T.);
#104=FACE_OUTER_BOUND('',#163,.T.);
#105=FACE_OUTER_BOUND('',#164,.T.);
#106=FACE_OUTER_BOUND('',#165,.T.);
#107=FACE_OUTER_BOUND('',#166,.T.);
#108=FACE_OUTER_BOUND('',#168,.T.);
#109=FACE_OUTER_BOUND('',#169,.T.);
#110=FACE_OUTER_BOUND('',#170,.T.);
#111=FACE_OUTER_BOUND('',#171,.T.);
#112=FACE_OUTER_BOUND('',#172,.T.);
#113=FACE_OUTER_BOUND('',#173,.T.);
#114=FACE_OUTER_BOUND('',#174,.T.);
#115=FACE_OUTER_BOUND('',#175,.T.);
#116=FACE_OUTER_BOUND('',#185,.T.);
#117=FACE_OUTER_BOUND('',#186,.T.);
#118=FACE_OUTER_BOUND('',#187,.T.);
#119=FACE_OUTER_BOUND('',#188,.T.);
#120=FACE_OUTER_BOUND('',#189,.T.);
#121=FACE_OUTER_BOUND('',#190,.T.);
#122=FACE_OUTER_BOUND('',#191,.T.);
#123=FACE_OUTER_BOUND('',#192,.T.);
#124=FACE_OUTER_BOUND('',#193,.T.);
#125=FACE_OUTER_BOUND('',#194,.T.);
#126=FACE_OUTER_BOUND('',#195,.T.);
#127=EDGE_LOOP('',(#561,#562,#563,#564));
#128=EDGE_LOOP('',(#565));
#129=EDGE_LOOP('',(#566));
#130=EDGE_LOOP('',(#567));
#131=EDGE_LOOP('',(#568));
#132=EDGE_LOOP('',(#569));
#133=EDGE_LOOP('',(#570));
#134=EDGE_LOOP('',(#571));
#135=EDGE_LOOP('',(#572));
#136=EDGE_LOOP('',(#573));
#137=EDGE_LOOP('',(#574));
#138=EDGE_LOOP('',(#575,#576,#577,#578,#579,#580,#581,#582));
#139=EDGE_LOOP('',(#583));
#140=EDGE_LOOP('',(#584,#585,#586,#587));
#141=EDGE_LOOP('',(#588,#589,#590,#591));
#142=EDGE_LOOP('',(#592,#593,#594,#595));
#143=EDGE_LOOP('',(#596,#597,#598,#599));
#144=EDGE_LOOP('',(#600,#601,#602,#603));
#145=EDGE_LOOP('',(#604,#605,#606,#607));
#146=EDGE_LOOP('',(#608,#609,#610,#611));
#147=EDGE_LOOP('',(#612,#613,#614,#615));
#148=EDGE_LOOP('',(#616,#617,#618,#619));
#149=EDGE_LOOP('',(#620));
#150=EDGE_LOOP('',(#621,#622,#623,#624));
#151=EDGE_LOOP('',(#625,#626,#627,#628));
#152=EDGE_LOOP('',(#629,#630,#631,#632));
#153=EDGE_LOOP('',(#633,#634,#635,#636));
#154=EDGE_LOOP('',(#637,#638,#639,#640));
#155=EDGE_LOOP('',(#641));
#156=EDGE_LOOP('',(#642,#643,#644,#645));
#157=EDGE_LOOP('',(#646,#647,#648,#649));
#158=EDGE_LOOP('',(#650,#651,#652,#653));
#159=EDGE_LOOP('',(#654,#655,#656,#657));
#160=EDGE_LOOP('',(#658,#659,#660,#661));
#161=EDGE_LOOP('',(#662));
#162=EDGE_LOOP('',(#663,#664,#665,#666));
#163=EDGE_LOOP('',(#667,#668,#669,#670));
#164=EDGE_LOOP('',(#671,#672,#673,#674));
#165=EDGE_LOOP('',(#675,#676,#677,#678));
#166=EDGE_LOOP('',(#679,#680,#681,#682));
#167=EDGE_LOOP('',(#683));
#168=EDGE_LOOP('',(#684,#685,#686,#687));
#169=EDGE_LOOP('',(#688,#689,#690,#691));
#170=EDGE_LOOP('',(#692,#693,#694,#695));
#171=EDGE_LOOP('',(#696,#697,#698,#699));
#172=EDGE_LOOP('',(#700,#701,#702,#703));
#173=EDGE_LOOP('',(#704,#705,#706,#707));
#174=EDGE_LOOP('',(#708,#709,#710,#711));
#175=EDGE_LOOP('',(#712));
#176=EDGE_LOOP('',(#713));
#177=EDGE_LOOP('',(#714,#715,#716,#717));
#178=EDGE_LOOP('',(#718,#719,#720,#721));
#179=EDGE_LOOP('',(#722,#723,#724,#725));
#180=EDGE_LOOP('',(#726,#727,#728,#729));
#181=EDGE_LOOP('',(#730,#731,#732,#733,#734,#735,#736,#737));
#182=EDGE_LOOP('',(#738));
#183=EDGE_LOOP('',(#739));
#184=EDGE_LOOP('',(#740));
#185=EDGE_LOOP('',(#741,#742,#743,#744));
#186=EDGE_LOOP('',(#745,#746,#747,#748));
#187=EDGE_LOOP('',(#749,#750,#751,#752));
#188=EDGE_LOOP('',(#753,#754,#755,#756));
#189=EDGE_LOOP('',(#757,#758,#759,#760));
#190=EDGE_LOOP('',(#761,#762,#763,#764));
#191=EDGE_LOOP('',(#765,#766,#767,#768));
#192=EDGE_LOOP('',(#769));
#193=EDGE_LOOP('',(#770));
#194=EDGE_LOOP('',(#771,#772,#773,#774));
#195=EDGE_LOOP('',(#775,#776,#777,#778));
#196=LINE('',#1159,#271);
#197=LINE('',#1190,#272);
#198=LINE('',#1194,#273);
#199=LINE('',#1197,#274);
#200=LINE('',#1200,#275);
#201=LINE('',#1204,#276);
#202=LINE('',#1208,#277);
#203=LINE('',#1212,#278);
#204=LINE('',#1217,#279);
#205=LINE('',#1219,#280);
#206=LINE('',#1221,#281);
#207=LINE('',#1222,#282);
#208=LINE('',#1225,#283);
#209=LINE('',#1227,#284);
#210=LINE('',#1228,#285);
#211=LINE('',#1231,#286);
#212=LINE('',#1233,#287);
#213=LINE('',#1234,#288);
#214=LINE('',#1236,#289);
#215=LINE('',#1237,#290);
#216=LINE('',#1244,#291);
#217=LINE('',#1246,#292);
#218=LINE('',#1248,#293);
#219=LINE('',#1249,#294);
#220=LINE('',#1252,#295);
#221=LINE('',#1254,#296);
#222=LINE('',#1255,#297);
#223=LINE('',#1258,#298);
#224=LINE('',#1260,#299);
#225=LINE('',#1261,#300);
#226=LINE('',#1263,#301);
#227=LINE('',#1264,#302);
#228=LINE('',#1271,#303);
#229=LINE('',#1273,#304);
#230=LINE('',#1275,#305);
#231=LINE('',#1276,#306);
#232=LINE('',#1279,#307);
#233=LINE('',#1281,#308);
#234=LINE('',#1282,#309);
#235=LINE('',#1285,#310);
#236=LINE('',#1287,#311);
#237=LINE('',#1288,#312);
#238=LINE('',#1290,#313);
#239=LINE('',#1291,#314);
#240=LINE('',#1298,#315);
#241=LINE('',#1300,#316);
#242=LINE('',#1302,#317);
#243=LINE('',#1303,#318);
#244=LINE('',#1306,#319);
#245=LINE('',#1308,#320);
#246=LINE('',#1309,#321);
#247=LINE('',#1312,#322);
#248=LINE('',#1314,#323);
#249=LINE('',#1315,#324);
#250=LINE('',#1317,#325);
#251=LINE('',#1318,#326);
#252=LINE('',#1326,#327);
#253=LINE('',#1327,#328);
#254=LINE('',#1330,#329);
#255=LINE('',#1331,#330);
#256=LINE('',#1335,#331);
#257=LINE('',#1338,#332);
#258=LINE('',#1339,#333);
#259=LINE('',#1343,#334);
#260=LINE('',#1346,#335);
#261=LINE('',#1349,#336);
#262=LINE('',#1351,#337);
#263=LINE('',#1364,#338);
#264=LINE('',#1366,#339);
#265=LINE('',#1368,#340);
#266=LINE('',#1370,#341);
#267=LINE('',#1372,#342);
#268=LINE('',#1374,#343);
#269=LINE('',#1378,#344);
#270=LINE('',#1380,#345);
#271=VECTOR('',#925,2.65);
#272=VECTOR('',#956,10.);
#273=VECTOR('',#959,10.);
#274=VECTOR('',#962,10.);
#275=VECTOR('',#965,2.6);
#276=VECTOR('',#970,2.65);
#277=VECTOR('',#975,2.6);
#278=VECTOR('',#980,2.75);
#279=VECTOR('',#985,10.);
#280=VECTOR('',#986,10.);
#281=VECTOR('',#987,10.);
#282=VECTOR('',#988,10.);
#283=VECTOR('',#991,10.);
#284=VECTOR('',#992,10.);
#285=VECTOR('',#993,10.);
#286=VECTOR('',#996,10.);
#287=VECTOR('',#997,10.);
#288=VECTOR('',#998,10.);
#289=VECTOR('',#1001,10.);
#290=VECTOR('',#1002,10.);
#291=VECTOR('',#1009,10.);
#292=VECTOR('',#1010,10.);
#293=VECTOR('',#1011,10.);
#294=VECTOR('',#1012,10.);
#295=VECTOR('',#1015,10.);
#296=VECTOR('',#1016,10.);
#297=VECTOR('',#1017,10.);
#298=VECTOR('',#1020,10.);
#299=VECTOR('',#1021,10.);
#300=VECTOR('',#1022,10.);
#301=VECTOR('',#1025,10.);
#302=VECTOR('',#1026,10.);
#303=VECTOR('',#1033,10.);
#304=VECTOR('',#1034,10.);
#305=VECTOR('',#1035,10.);
#306=VECTOR('',#1036,10.);
#307=VECTOR('',#1039,10.);
#308=VECTOR('',#1040,10.);
#309=VECTOR('',#1041,10.);
#310=VECTOR('',#1044,10.);
#311=VECTOR('',#1045,10.);
#312=VECTOR('',#1046,10.);
#313=VECTOR('',#1049,10.);
#314=VECTOR('',#1050,10.);
#315=VECTOR('',#1057,10.);
#316=VECTOR('',#1058,10.);
#317=VECTOR('',#1059,10.);
#318=VECTOR('',#1060,10.);
#319=VECTOR('',#1063,10.);
#320=VECTOR('',#1064,10.);
#321=VECTOR('',#1065,10.);
#322=VECTOR('',#1068,10.);
#323=VECTOR('',#1069,10.);
#324=VECTOR('',#1070,10.);
#325=VECTOR('',#1073,10.);
#326=VECTOR('',#1074,10.);
#327=VECTOR('',#1083,10.);
#328=VECTOR('',#1084,10.);
#329=VECTOR('',#1087,10.);
#330=VECTOR('',#1088,10.);
#331=VECTOR('',#1093,10.);
#332=VECTOR('',#1096,10.);
#333=VECTOR('',#1097,10.);
#334=VECTOR('',#1102,10.);
#335=VECTOR('',#1105,10.);
#336=VECTOR('',#1108,10.);
#337=VECTOR('',#1111,10.);
#338=VECTOR('',#1128,2.75);
#339=VECTOR('',#1131,2.75);
#340=VECTOR('',#1134,2.75);
#341=VECTOR('',#1137,2.8);
#342=VECTOR('',#1140,2.8);
#343=VECTOR('',#1143,2.8);
#344=VECTOR('',#1150,46.95);
#345=VECTOR('',#1153,2.75);
#346=CIRCLE('',#841,2.95);
#347=CIRCLE('',#842,2.35);
#348=CIRCLE('',#844,46.45);
#349=CIRCLE('',#845,2.95);
#350=CIRCLE('',#846,2.75);
#351=CIRCLE('',#847,2.75);
#352=CIRCLE('',#848,2.8);
#353=CIRCLE('',#849,2.8);
#354=CIRCLE('',#850,2.8);
#355=CIRCLE('',#851,2.75);
#356=CIRCLE('',#852,2.75);
#357=CIRCLE('',#853,2.75);
#358=CIRCLE('',#854,1.);
#359=CIRCLE('',#855,6.);
#360=CIRCLE('',#856,1.);
#361=CIRCLE('',#857,1.);
#362=CIRCLE('',#858,1.);
#363=CIRCLE('',#860,2.35);
#364=CIRCLE('',#862,2.35);
#365=CIRCLE('',#864,2.35);
#366=CIRCLE('',#866,2.75);
#367=CIRCLE('',#872,2.75);
#368=CIRCLE('',#878,2.75);
#369=CIRCLE('',#884,2.75);
#370=CIRCLE('',#890,2.75);
#371=CIRCLE('',#892,1.);
#372=CIRCLE('',#895,1.);
#373=CIRCLE('',#898,1.);
#374=CIRCLE('',#900,1.);
#375=CIRCLE('',#903,46.45);
#376=CIRCLE('',#904,6.);
#377=CIRCLE('',#905,2.8);
#378=CIRCLE('',#906,2.8);
#379=CIRCLE('',#907,2.8);
#380=VERTEX_POINT('',#1156);
#381=VERTEX_POINT('',#1158);
#382=VERTEX_POINT('',#1162);
#383=VERTEX_POINT('',#1164);
#384=VERTEX_POINT('',#1166);
#385=VERTEX_POINT('',#1168);
#386=VERTEX_POINT('',#1170);
#387=VERTEX_POINT('',#1172);
#388=VERTEX_POINT('',#1174);
#389=VERTEX_POINT('',#1176);
#390=VERTEX_POINT('',#1178);
#391=VERTEX_POINT('',#1180);
#392=VERTEX_POINT('',#1182);
#393=VERTEX_POINT('',#1183);
#394=VERTEX_POINT('',#1185);
#395=VERTEX_POINT('',#1187);
#396=VERTEX_POINT('',#1189);
#397=VERTEX_POINT('',#1191);
#398=VERTEX_POINT('',#1193);
#399=VERTEX_POINT('',#1195);
#400=VERTEX_POINT('',#1199);
#401=VERTEX_POINT('',#1203);
#402=VERTEX_POINT('',#1207);
#403=VERTEX_POINT('',#1211);
#404=VERTEX_POINT('',#1215);
#405=VERTEX_POINT('',#1216);
#406=VERTEX_POINT('',#1218);
#407=VERTEX_POINT('',#1220);
#408=VERTEX_POINT('',#1224);
#409=VERTEX_POINT('',#1226);
#410=VERTEX_POINT('',#1230);
#411=VERTEX_POINT('',#1232);
#412=VERTEX_POINT('',#1239);
#413=VERTEX_POINT('',#1242);
#414=VERTEX_POINT('',#1243);
#415=VERTEX_POINT('',#1245);
#416=VERTEX_POINT('',#1247);
#417=VERTEX_POINT('',#1251);
#418=VERTEX_POINT('',#1253);
#419=VERTEX_POINT('',#1257);
#420=VERTEX_POINT('',#1259);
#421=VERTEX_POINT('',#1266);
#422=VERTEX_POINT('',#1269);
#423=VERTEX_POINT('',#1270);
#424=VERTEX_POINT('',#1272);
#425=VERTEX_POINT('',#1274);
#426=VERTEX_POINT('',#1278);
#427=VERTEX_POINT('',#1280);
#428=VERTEX_POINT('',#1284);
#429=VERTEX_POINT('',#1286);
#430=VERTEX_POINT('',#1293);
#431=VERTEX_POINT('',#1296);
#432=VERTEX_POINT('',#1297);
#433=VERTEX_POINT('',#1299);
#434=VERTEX_POINT('',#1301);
#435=VERTEX_POINT('',#1305);
#436=VERTEX_POINT('',#1307);
#437=VERTEX_POINT('',#1311);
#438=VERTEX_POINT('',#1313);
#439=VERTEX_POINT('',#1320);
#440=VERTEX_POINT('',#1323);
#441=VERTEX_POINT('',#1324);
#442=VERTEX_POINT('',#1329);
#443=VERTEX_POINT('',#1333);
#444=VERTEX_POINT('',#1337);
#445=VERTEX_POINT('',#1341);
#446=VERTEX_POINT('',#1345);
#447=VERTEX_POINT('',#1347);
#448=VERTEX_POINT('',#1353);
#449=VERTEX_POINT('',#1356);
#450=VERTEX_POINT('',#1358);
#451=VERTEX_POINT('',#1360);
#452=EDGE_CURVE('',#380,#380,#346,.T.);
#453=EDGE_CURVE('',#380,#381,#196,.T.);
#454=EDGE_CURVE('',#381,#381,#347,.T.);
#455=EDGE_CURVE('',#382,#382,#348,.F.);
#456=EDGE_CURVE('',#383,#383,#349,.T.);
#457=EDGE_CURVE('',#384,#384,#350,.T.);
#458=EDGE_CURVE('',#385,#385,#351,.F.);
#459=EDGE_CURVE('',#386,#386,#352,.T.);
#460=EDGE_CURVE('',#387,#387,#353,.T.);
#461=EDGE_CURVE('',#388,#388,#354,.T.);
#462=EDGE_CURVE('',#389,#389,#355,.T.);
#463=EDGE_CURVE('',#390,#390,#356,.T.);
#464=EDGE_CURVE('',#391,#391,#357,.T.);
#465=EDGE_CURVE('',#392,#393,#358,.T.);
#466=EDGE_CURVE('',#392,#394,#359,.T.);
#467=EDGE_CURVE('',#395,#394,#360,.T.);
#468=EDGE_CURVE('',#395,#396,#197,.T.);
#469=EDGE_CURVE('',#397,#396,#361,.T.);
#470=EDGE_CURVE('',#397,#398,#198,.T.);
#471=EDGE_CURVE('',#399,#398,#362,.T.);
#472=EDGE_CURVE('',#399,#393,#199,.T.);
#473=EDGE_CURVE('',#381,#400,#200,.T.);
#474=EDGE_CURVE('',#400,#400,#363,.T.);
#475=EDGE_CURVE('',#383,#401,#201,.T.);
#476=EDGE_CURVE('',#401,#401,#364,.T.);
#477=EDGE_CURVE('',#401,#402,#202,.T.);
#478=EDGE_CURVE('',#402,#402,#365,.T.);
#479=EDGE_CURVE('',#384,#403,#203,.T.);
#480=EDGE_CURVE('',#403,#403,#366,.T.);
#481=EDGE_CURVE('',#404,#405,#204,.T.);
#482=EDGE_CURVE('',#404,#406,#205,.T.);
#483=EDGE_CURVE('',#406,#407,#206,.T.);
#484=EDGE_CURVE('',#405,#407,#207,.T.);
#485=EDGE_CURVE('',#408,#404,#208,.T.);
#486=EDGE_CURVE('',#408,#409,#209,.T.);
#487=EDGE_CURVE('',#409,#406,#210,.T.);
#488=EDGE_CURVE('',#410,#408,#211,.T.);
#489=EDGE_CURVE('',#410,#411,#212,.T.);
#490=EDGE_CURVE('',#411,#409,#213,.T.);
#491=EDGE_CURVE('',#405,#410,#214,.T.);
#492=EDGE_CURVE('',#407,#411,#215,.T.);
#493=EDGE_CURVE('',#412,#412,#367,.T.);
#494=EDGE_CURVE('',#413,#414,#216,.T.);
#495=EDGE_CURVE('',#413,#415,#217,.T.);
#496=EDGE_CURVE('',#415,#416,#218,.T.);
#497=EDGE_CURVE('',#414,#416,#219,.T.);
#498=EDGE_CURVE('',#417,#413,#220,.T.);
#499=EDGE_CURVE('',#417,#418,#221,.T.);
#500=EDGE_CURVE('',#418,#415,#222,.T.);
#501=EDGE_CURVE('',#419,#417,#223,.T.);
#502=EDGE_CURVE('',#419,#420,#224,.T.);
#503=EDGE_CURVE('',#420,#418,#225,.T.);
#504=EDGE_CURVE('',#414,#419,#226,.T.);
#505=EDGE_CURVE('',#416,#420,#227,.T.);
#506=EDGE_CURVE('',#421,#421,#368,.T.);
#507=EDGE_CURVE('',#422,#423,#228,.T.);
#508=EDGE_CURVE('',#422,#424,#229,.T.);
#509=EDGE_CURVE('',#424,#425,#230,.T.);
#510=EDGE_CURVE('',#423,#425,#231,.T.);
#511=EDGE_CURVE('',#426,#422,#232,.T.);
#512=EDGE_CURVE('',#426,#427,#233,.T.);
#513=EDGE_CURVE('',#427,#424,#234,.T.);
#514=EDGE_CURVE('',#428,#426,#235,.T.);
#515=EDGE_CURVE('',#428,#429,#236,.T.);
#516=EDGE_CURVE('',#429,#427,#237,.T.);
#517=EDGE_CURVE('',#423,#428,#238,.T.);
#518=EDGE_CURVE('',#425,#429,#239,.T.);
#519=EDGE_CURVE('',#430,#430,#369,.T.);
#520=EDGE_CURVE('',#431,#432,#240,.T.);
#521=EDGE_CURVE('',#431,#433,#241,.T.);
#522=EDGE_CURVE('',#433,#434,#242,.T.);
#523=EDGE_CURVE('',#432,#434,#243,.T.);
#524=EDGE_CURVE('',#435,#431,#244,.T.);
#525=EDGE_CURVE('',#435,#436,#245,.T.);
#526=EDGE_CURVE('',#436,#433,#246,.T.);
#527=EDGE_CURVE('',#437,#435,#247,.T.);
#528=EDGE_CURVE('',#437,#438,#248,.T.);
#529=EDGE_CURVE('',#438,#436,#249,.T.);
#530=EDGE_CURVE('',#432,#437,#250,.T.);
#531=EDGE_CURVE('',#434,#438,#251,.T.);
#532=EDGE_CURVE('',#439,#439,#370,.T.);
#533=EDGE_CURVE('',#440,#441,#371,.T.);
#534=EDGE_CURVE('',#441,#397,#252,.T.);
#535=EDGE_CURVE('',#396,#440,#253,.T.);
#536=EDGE_CURVE('',#442,#441,#254,.T.);
#537=EDGE_CURVE('',#398,#442,#255,.T.);
#538=EDGE_CURVE('',#442,#443,#372,.T.);
#539=EDGE_CURVE('',#443,#399,#256,.T.);
#540=EDGE_CURVE('',#444,#443,#257,.T.);
#541=EDGE_CURVE('',#393,#444,#258,.T.);
#542=EDGE_CURVE('',#444,#445,#373,.T.);
#543=EDGE_CURVE('',#445,#392,#259,.T.);
#544=EDGE_CURVE('',#394,#446,#260,.T.);
#545=EDGE_CURVE('',#446,#447,#374,.T.);
#546=EDGE_CURVE('',#447,#395,#261,.T.);
#547=EDGE_CURVE('',#440,#447,#262,.T.);
#548=EDGE_CURVE('',#448,#448,#375,.F.);
#549=EDGE_CURVE('',#446,#445,#376,.T.);
#550=EDGE_CURVE('',#449,#449,#377,.T.);
#551=EDGE_CURVE('',#450,#450,#378,.T.);
#552=EDGE_CURVE('',#451,#451,#379,.T.);
#553=EDGE_CURVE('',#391,#421,#263,.T.);
#554=EDGE_CURVE('',#390,#412,#264,.T.);
#555=EDGE_CURVE('',#389,#439,#265,.T.);
#556=EDGE_CURVE('',#386,#451,#266,.T.);
#557=EDGE_CURVE('',#387,#450,#267,.T.);
#558=EDGE_CURVE('',#388,#449,#268,.T.);
#559=EDGE_CURVE('',#448,#382,#269,.T.);
#560=EDGE_CURVE('',#385,#430,#270,.T.);
#561=ORIENTED_EDGE('',*,*,#452,.T.);
#562=ORIENTED_EDGE('',*,*,#453,.T.);
#563=ORIENTED_EDGE('',*,*,#454,.T.);
#564=ORIENTED_EDGE('',*,*,#453,.F.);
#565=ORIENTED_EDGE('',*,*,#455,.F.);
#566=ORIENTED_EDGE('',*,*,#456,.F.);
#567=ORIENTED_EDGE('',*,*,#457,.T.);
#568=ORIENTED_EDGE('',*,*,#458,.F.);
#569=ORIENTED_EDGE('',*,*,#459,.T.);
#570=ORIENTED_EDGE('',*,*,#460,.T.);
#571=ORIENTED_EDGE('',*,*,#461,.T.);
#572=ORIENTED_EDGE('',*,*,#462,.T.);
#573=ORIENTED_EDGE('',*,*,#463,.T.);
#574=ORIENTED_EDGE('',*,*,#464,.T.);
#575=ORIENTED_EDGE('',*,*,#465,.F.);
#576=ORIENTED_EDGE('',*,*,#466,.T.);
#577=ORIENTED_EDGE('',*,*,#467,.F.);
#578=ORIENTED_EDGE('',*,*,#468,.T.);
#579=ORIENTED_EDGE('',*,*,#469,.F.);
#580=ORIENTED_EDGE('',*,*,#470,.T.);
#581=ORIENTED_EDGE('',*,*,#471,.F.);
#582=ORIENTED_EDGE('',*,*,#472,.T.);
#583=ORIENTED_EDGE('',*,*,#452,.F.);
#584=ORIENTED_EDGE('',*,*,#454,.F.);
#585=ORIENTED_EDGE('',*,*,#473,.T.);
#586=ORIENTED_EDGE('',*,*,#474,.T.);
#587=ORIENTED_EDGE('',*,*,#473,.F.);
#588=ORIENTED_EDGE('',*,*,#456,.T.);
#589=ORIENTED_EDGE('',*,*,#475,.T.);
#590=ORIENTED_EDGE('',*,*,#476,.T.);
#591=ORIENTED_EDGE('',*,*,#475,.F.);
#592=ORIENTED_EDGE('',*,*,#476,.F.);
#593=ORIENTED_EDGE('',*,*,#477,.T.);
#594=ORIENTED_EDGE('',*,*,#478,.T.);
#595=ORIENTED_EDGE('',*,*,#477,.F.);
#596=ORIENTED_EDGE('',*,*,#457,.F.);
#597=ORIENTED_EDGE('',*,*,#479,.T.);
#598=ORIENTED_EDGE('',*,*,#480,.F.);
#599=ORIENTED_EDGE('',*,*,#479,.F.);
#600=ORIENTED_EDGE('',*,*,#481,.F.);
#601=ORIENTED_EDGE('',*,*,#482,.T.);
#602=ORIENTED_EDGE('',*,*,#483,.T.);
#603=ORIENTED_EDGE('',*,*,#484,.F.);
#604=ORIENTED_EDGE('',*,*,#485,.F.);
#605=ORIENTED_EDGE('',*,*,#486,.T.);
#606=ORIENTED_EDGE('',*,*,#487,.T.);
#607=ORIENTED_EDGE('',*,*,#482,.F.);
#608=ORIENTED_EDGE('',*,*,#488,.F.);
#609=ORIENTED_EDGE('',*,*,#489,.T.);
#610=ORIENTED_EDGE('',*,*,#490,.T.);
#611=ORIENTED_EDGE('',*,*,#486,.F.);
#612=ORIENTED_EDGE('',*,*,#491,.F.);
#613=ORIENTED_EDGE('',*,*,#484,.T.);
#614=ORIENTED_EDGE('',*,*,#492,.T.);
#615=ORIENTED_EDGE('',*,*,#489,.F.);
#616=ORIENTED_EDGE('',*,*,#492,.F.);
#617=ORIENTED_EDGE('',*,*,#483,.F.);
#618=ORIENTED_EDGE('',*,*,#487,.F.);
#619=ORIENTED_EDGE('',*,*,#490,.F.);
#620=ORIENTED_EDGE('',*,*,#493,.F.);
#621=ORIENTED_EDGE('',*,*,#494,.F.);
#622=ORIENTED_EDGE('',*,*,#495,.T.);
#623=ORIENTED_EDGE('',*,*,#496,.T.);
#624=ORIENTED_EDGE('',*,*,#497,.F.);
#625=ORIENTED_EDGE('',*,*,#498,.F.);
#626=ORIENTED_EDGE('',*,*,#499,.T.);
#627=ORIENTED_EDGE('',*,*,#500,.T.);
#628=ORIENTED_EDGE('',*,*,#495,.F.);
#629=ORIENTED_EDGE('',*,*,#501,.F.);
#630=ORIENTED_EDGE('',*,*,#502,.T.);
#631=ORIENTED_EDGE('',*,*,#503,.T.);
#632=ORIENTED_EDGE('',*,*,#499,.F.);
#633=ORIENTED_EDGE('',*,*,#504,.F.);
#634=ORIENTED_EDGE('',*,*,#497,.T.);
#635=ORIENTED_EDGE('',*,*,#505,.T.);
#636=ORIENTED_EDGE('',*,*,#502,.F.);
#637=ORIENTED_EDGE('',*,*,#505,.F.);
#638=ORIENTED_EDGE('',*,*,#496,.F.);
#639=ORIENTED_EDGE('',*,*,#500,.F.);
#640=ORIENTED_EDGE('',*,*,#503,.F.);
#641=ORIENTED_EDGE('',*,*,#506,.F.);
#642=ORIENTED_EDGE('',*,*,#507,.F.);
#643=ORIENTED_EDGE('',*,*,#508,.T.);
#644=ORIENTED_EDGE('',*,*,#509,.T.);
#645=ORIENTED_EDGE('',*,*,#510,.F.);
#646=ORIENTED_EDGE('',*,*,#511,.F.);
#647=ORIENTED_EDGE('',*,*,#512,.T.);
#648=ORIENTED_EDGE('',*,*,#513,.T.);
#649=ORIENTED_EDGE('',*,*,#508,.F.);
#650=ORIENTED_EDGE('',*,*,#514,.F.);
#651=ORIENTED_EDGE('',*,*,#515,.T.);
#652=ORIENTED_EDGE('',*,*,#516,.T.);
#653=ORIENTED_EDGE('',*,*,#512,.F.);
#654=ORIENTED_EDGE('',*,*,#517,.F.);
#655=ORIENTED_EDGE('',*,*,#510,.T.);
#656=ORIENTED_EDGE('',*,*,#518,.T.);
#657=ORIENTED_EDGE('',*,*,#515,.F.);
#658=ORIENTED_EDGE('',*,*,#518,.F.);
#659=ORIENTED_EDGE('',*,*,#509,.F.);
#660=ORIENTED_EDGE('',*,*,#513,.F.);
#661=ORIENTED_EDGE('',*,*,#516,.F.);
#662=ORIENTED_EDGE('',*,*,#519,.F.);
#663=ORIENTED_EDGE('',*,*,#520,.F.);
#664=ORIENTED_EDGE('',*,*,#521,.T.);
#665=ORIENTED_EDGE('',*,*,#522,.T.);
#666=ORIENTED_EDGE('',*,*,#523,.F.);
#667=ORIENTED_EDGE('',*,*,#524,.F.);
#668=ORIENTED_EDGE('',*,*,#525,.T.);
#669=ORIENTED_EDGE('',*,*,#526,.T.);
#670=ORIENTED_EDGE('',*,*,#521,.F.);
#671=ORIENTED_EDGE('',*,*,#527,.F.);
#672=ORIENTED_EDGE('',*,*,#528,.T.);
#673=ORIENTED_EDGE('',*,*,#529,.T.);
#674=ORIENTED_EDGE('',*,*,#525,.F.);
#675=ORIENTED_EDGE('',*,*,#530,.F.);
#676=ORIENTED_EDGE('',*,*,#523,.T.);
#677=ORIENTED_EDGE('',*,*,#531,.T.);
#678=ORIENTED_EDGE('',*,*,#528,.F.);
#679=ORIENTED_EDGE('',*,*,#531,.F.);
#680=ORIENTED_EDGE('',*,*,#522,.F.);
#681=ORIENTED_EDGE('',*,*,#526,.F.);
#682=ORIENTED_EDGE('',*,*,#529,.F.);
#683=ORIENTED_EDGE('',*,*,#532,.F.);
#684=ORIENTED_EDGE('',*,*,#533,.T.);
#685=ORIENTED_EDGE('',*,*,#534,.T.);
#686=ORIENTED_EDGE('',*,*,#469,.T.);
#687=ORIENTED_EDGE('',*,*,#535,.T.);
#688=ORIENTED_EDGE('',*,*,#534,.F.);
#689=ORIENTED_EDGE('',*,*,#536,.F.);
#690=ORIENTED_EDGE('',*,*,#537,.F.);
#691=ORIENTED_EDGE('',*,*,#470,.F.);
#692=ORIENTED_EDGE('',*,*,#538,.T.);
#693=ORIENTED_EDGE('',*,*,#539,.T.);
#694=ORIENTED_EDGE('',*,*,#471,.T.);
#695=ORIENTED_EDGE('',*,*,#537,.T.);
#696=ORIENTED_EDGE('',*,*,#539,.F.);
#697=ORIENTED_EDGE('',*,*,#540,.F.);
#698=ORIENTED_EDGE('',*,*,#541,.F.);
#699=ORIENTED_EDGE('',*,*,#472,.F.);
#700=ORIENTED_EDGE('',*,*,#542,.T.);
#701=ORIENTED_EDGE('',*,*,#543,.T.);
#702=ORIENTED_EDGE('',*,*,#465,.T.);
#703=ORIENTED_EDGE('',*,*,#541,.T.);
#704=ORIENTED_EDGE('',*,*,#467,.T.);
#705=ORIENTED_EDGE('',*,*,#544,.T.);
#706=ORIENTED_EDGE('',*,*,#545,.T.);
#707=ORIENTED_EDGE('',*,*,#546,.T.);
#708=ORIENTED_EDGE('',*,*,#535,.F.);
#709=ORIENTED_EDGE('',*,*,#468,.F.);
#710=ORIENTED_EDGE('',*,*,#546,.F.);
#711=ORIENTED_EDGE('',*,*,#547,.F.);
#712=ORIENTED_EDGE('',*,*,#548,.T.);
#713=ORIENTED_EDGE('',*,*,#480,.T.);
#714=ORIENTED_EDGE('',*,*,#481,.T.);
#715=ORIENTED_EDGE('',*,*,#491,.T.);
#716=ORIENTED_EDGE('',*,*,#488,.T.);
#717=ORIENTED_EDGE('',*,*,#485,.T.);
#718=ORIENTED_EDGE('',*,*,#494,.T.);
#719=ORIENTED_EDGE('',*,*,#504,.T.);
#720=ORIENTED_EDGE('',*,*,#501,.T.);
#721=ORIENTED_EDGE('',*,*,#498,.T.);
#722=ORIENTED_EDGE('',*,*,#507,.T.);
#723=ORIENTED_EDGE('',*,*,#517,.T.);
#724=ORIENTED_EDGE('',*,*,#514,.T.);
#725=ORIENTED_EDGE('',*,*,#511,.T.);
#726=ORIENTED_EDGE('',*,*,#520,.T.);
#727=ORIENTED_EDGE('',*,*,#530,.T.);
#728=ORIENTED_EDGE('',*,*,#527,.T.);
#729=ORIENTED_EDGE('',*,*,#524,.T.);
#730=ORIENTED_EDGE('',*,*,#542,.F.);
#731=ORIENTED_EDGE('',*,*,#540,.T.);
#732=ORIENTED_EDGE('',*,*,#538,.F.);
#733=ORIENTED_EDGE('',*,*,#536,.T.);
#734=ORIENTED_EDGE('',*,*,#533,.F.);
#735=ORIENTED_EDGE('',*,*,#547,.T.);
#736=ORIENTED_EDGE('',*,*,#545,.F.);
#737=ORIENTED_EDGE('',*,*,#549,.T.);
#738=ORIENTED_EDGE('',*,*,#550,.T.);
#739=ORIENTED_EDGE('',*,*,#551,.T.);
#740=ORIENTED_EDGE('',*,*,#552,.T.);
#741=ORIENTED_EDGE('',*,*,#543,.F.);
#742=ORIENTED_EDGE('',*,*,#549,.F.);
#743=ORIENTED_EDGE('',*,*,#544,.F.);
#744=ORIENTED_EDGE('',*,*,#466,.F.);
#745=ORIENTED_EDGE('',*,*,#464,.F.);
#746=ORIENTED_EDGE('',*,*,#553,.T.);
#747=ORIENTED_EDGE('',*,*,#506,.T.);
#748=ORIENTED_EDGE('',*,*,#553,.F.);
#749=ORIENTED_EDGE('',*,*,#463,.F.);
#750=ORIENTED_EDGE('',*,*,#554,.T.);
#751=ORIENTED_EDGE('',*,*,#493,.T.);
#752=ORIENTED_EDGE('',*,*,#554,.F.);
#753=ORIENTED_EDGE('',*,*,#462,.F.);
#754=ORIENTED_EDGE('',*,*,#555,.T.);
#755=ORIENTED_EDGE('',*,*,#532,.T.);
#756=ORIENTED_EDGE('',*,*,#555,.F.);
#757=ORIENTED_EDGE('',*,*,#459,.F.);
#758=ORIENTED_EDGE('',*,*,#556,.T.);
#759=ORIENTED_EDGE('',*,*,#552,.F.);
#760=ORIENTED_EDGE('',*,*,#556,.F.);
#761=ORIENTED_EDGE('',*,*,#460,.F.);
#762=ORIENTED_EDGE('',*,*,#557,.T.);
#763=ORIENTED_EDGE('',*,*,#551,.F.);
#764=ORIENTED_EDGE('',*,*,#557,.F.);
#765=ORIENTED_EDGE('',*,*,#461,.F.);
#766=ORIENTED_EDGE('',*,*,#558,.T.);
#767=ORIENTED_EDGE('',*,*,#550,.F.);
#768=ORIENTED_EDGE('',*,*,#558,.F.);
#769=ORIENTED_EDGE('',*,*,#478,.F.);
#770=ORIENTED_EDGE('',*,*,#474,.F.);
#771=ORIENTED_EDGE('',*,*,#548,.F.);
#772=ORIENTED_EDGE('',*,*,#559,.T.);
#773=ORIENTED_EDGE('',*,*,#455,.T.);
#774=ORIENTED_EDGE('',*,*,#559,.F.);
#775=ORIENTED_EDGE('',*,*,#458,.T.);
#776=ORIENTED_EDGE('',*,*,#560,.T.);
#777=ORIENTED_EDGE('',*,*,#519,.T.);
#778=ORIENTED_EDGE('',*,*,#560,.F.);
#779=CONICAL_SURFACE('',#840,2.65,0.785398163397448);
#780=CONICAL_SURFACE('',#861,2.65,0.785398163397448);
#781=ADVANCED_FACE('',(#82),#779,.F.);
#782=ADVANCED_FACE('',(#83,#31,#32,#33,#34,#35,#36,#37,#38,#39,#40,#41),
#55,.F.);
#783=ADVANCED_FACE('',(#84),#15,.F.);
#784=ADVANCED_FACE('',(#85),#780,.F.);
#785=ADVANCED_FACE('',(#86),#16,.F.);
#786=ADVANCED_FACE('',(#87),#17,.F.);
#787=ADVANCED_FACE('',(#88),#56,.F.);
#788=ADVANCED_FACE('',(#89),#57,.F.);
#789=ADVANCED_FACE('',(#90),#58,.F.);
#790=ADVANCED_FACE('',(#91),#59,.F.);
#791=ADVANCED_FACE('',(#92,#42),#60,.F.);
#792=ADVANCED_FACE('',(#93),#61,.F.);
#793=ADVANCED_FACE('',(#94),#62,.F.);
#794=ADVANCED_FACE('',(#95),#63,.F.);
#795=ADVANCED_FACE('',(#96),#64,.F.);
#796=ADVANCED_FACE('',(#97,#43),#65,.F.);
#797=ADVANCED_FACE('',(#98),#66,.F.);
#798=ADVANCED_FACE('',(#99),#67,.F.);
#799=ADVANCED_FACE('',(#100),#68,.F.);
#800=ADVANCED_FACE('',(#101),#69,.F.);
#801=ADVANCED_FACE('',(#102,#44),#70,.F.);
#802=ADVANCED_FACE('',(#103),#71,.F.);
#803=ADVANCED_FACE('',(#104),#72,.F.);
#804=ADVANCED_FACE('',(#105),#73,.F.);
#805=ADVANCED_FACE('',(#106),#74,.F.);
#806=ADVANCED_FACE('',(#107,#45),#75,.F.);
#807=ADVANCED_FACE('',(#108),#18,.F.);
#808=ADVANCED_FACE('',(#109),#76,.F.);
#809=ADVANCED_FACE('',(#110),#19,.F.);
#810=ADVANCED_FACE('',(#111),#77,.F.);
#811=ADVANCED_FACE('',(#112),#20,.T.);
#812=ADVANCED_FACE('',(#113),#21,.T.);
#813=ADVANCED_FACE('',(#114),#78,.F.);
#814=ADVANCED_FACE('',(#115,#46,#47,#48,#49,#50,#51,#52,#53,#54),#79,.T.);
#815=ADVANCED_FACE('',(#116),#22,.F.);
#816=ADVANCED_FACE('',(#117),#23,.F.);
#817=ADVANCED_FACE('',(#118),#24,.F.);
#818=ADVANCED_FACE('',(#119),#25,.F.);
#819=ADVANCED_FACE('',(#120),#26,.F.);
#820=ADVANCED_FACE('',(#121),#27,.F.);
#821=ADVANCED_FACE('',(#122),#28,.F.);
#822=ADVANCED_FACE('',(#123),#80,.T.);
#823=ADVANCED_FACE('',(#124),#81,.T.);
#824=ADVANCED_FACE('',(#125),#29,.T.);
#825=ADVANCED_FACE('',(#126),#30,.F.);
#826=CLOSED_SHELL('',(#781,#782,#783,#784,#785,#786,#787,#788,#789,#790,
#791,#792,#793,#794,#795,#796,#797,#798,#799,#800,#801,#802,#803,#804,#805,
#806,#807,#808,#809,#810,#811,#812,#813,#814,#815,#816,#817,#818,#819,#820,
#821,#822,#823,#824,#825));
#827=DERIVED_UNIT_ELEMENT(#829,1.);
#828=DERIVED_UNIT_ELEMENT(#1386,-3.);
#829=(
MASS_UNIT()
NAMED_UNIT(*)
SI_UNIT(.KILO.,.GRAM.)
);
#830=DERIVED_UNIT((#827,#828));
#831=MEASURE_REPRESENTATION_ITEM('density measure',
POSITIVE_RATIO_MEASURE(7850.),#830);
#832=PROPERTY_DEFINITION_REPRESENTATION(#837,#834);
#833=PROPERTY_DEFINITION_REPRESENTATION(#838,#835);
#834=REPRESENTATION('material name',(#836),#1383);
#835=REPRESENTATION('density',(#831),#1383);
#836=DESCRIPTIVE_REPRESENTATION_ITEM('Steel','Steel');
#837=PROPERTY_DEFINITION('material property','material name',#1393);
#838=PROPERTY_DEFINITION('material property','density of part',#1393);
#839=AXIS2_PLACEMENT_3D('',#1154,#919,#920);
#840=AXIS2_PLACEMENT_3D('',#1155,#921,#922);
#841=AXIS2_PLACEMENT_3D('',#1157,#923,#924);
#842=AXIS2_PLACEMENT_3D('',#1160,#926,#927);
#843=AXIS2_PLACEMENT_3D('',#1161,#928,#929);
#844=AXIS2_PLACEMENT_3D('',#1163,#930,#931);
#845=AXIS2_PLACEMENT_3D('',#1165,#932,#933);
#846=AXIS2_PLACEMENT_3D('',#1167,#934,#935);
#847=AXIS2_PLACEMENT_3D('',#1169,#936,#937);
#848=AXIS2_PLACEMENT_3D('',#1171,#938,#939);
#849=AXIS2_PLACEMENT_3D('',#1173,#940,#941);
#850=AXIS2_PLACEMENT_3D('',#1175,#942,#943);
#851=AXIS2_PLACEMENT_3D('',#1177,#944,#945);
#852=AXIS2_PLACEMENT_3D('',#1179,#946,#947);
#853=AXIS2_PLACEMENT_3D('',#1181,#948,#949);
#854=AXIS2_PLACEMENT_3D('',#1184,#950,#951);
#855=AXIS2_PLACEMENT_3D('',#1186,#952,#953);
#856=AXIS2_PLACEMENT_3D('',#1188,#954,#955);
#857=AXIS2_PLACEMENT_3D('',#1192,#957,#958);
#858=AXIS2_PLACEMENT_3D('',#1196,#960,#961);
#859=AXIS2_PLACEMENT_3D('',#1198,#963,#964);
#860=AXIS2_PLACEMENT_3D('',#1201,#966,#967);
#861=AXIS2_PLACEMENT_3D('',#1202,#968,#969);
#862=AXIS2_PLACEMENT_3D('',#1205,#971,#972);
#863=AXIS2_PLACEMENT_3D('',#1206,#973,#974);
#864=AXIS2_PLACEMENT_3D('',#1209,#976,#977);
#865=AXIS2_PLACEMENT_3D('',#1210,#978,#979);
#866=AXIS2_PLACEMENT_3D('',#1213,#981,#982);
#867=AXIS2_PLACEMENT_3D('',#1214,#983,#984);
#868=AXIS2_PLACEMENT_3D('',#1223,#989,#990);
#869=AXIS2_PLACEMENT_3D('',#1229,#994,#995);
#870=AXIS2_PLACEMENT_3D('',#1235,#999,#1000);
#871=AXIS2_PLACEMENT_3D('',#1238,#1003,#1004);
#872=AXIS2_PLACEMENT_3D('',#1240,#1005,#1006);
#873=AXIS2_PLACEMENT_3D('',#1241,#1007,#1008);
#874=AXIS2_PLACEMENT_3D('',#1250,#1013,#1014);
#875=AXIS2_PLACEMENT_3D('',#1256,#1018,#1019);
#876=AXIS2_PLACEMENT_3D('',#1262,#1023,#1024);
#877=AXIS2_PLACEMENT_3D('',#1265,#1027,#1028);
#878=AXIS2_PLACEMENT_3D('',#1267,#1029,#1030);
#879=AXIS2_PLACEMENT_3D('',#1268,#1031,#1032);
#880=AXIS2_PLACEMENT_3D('',#1277,#1037,#1038);
#881=AXIS2_PLACEMENT_3D('',#1283,#1042,#1043);
#882=AXIS2_PLACEMENT_3D('',#1289,#1047,#1048);
#883=AXIS2_PLACEMENT_3D('',#1292,#1051,#1052);
#884=AXIS2_PLACEMENT_3D('',#1294,#1053,#1054);
#885=AXIS2_PLACEMENT_3D('',#1295,#1055,#1056);
#886=AXIS2_PLACEMENT_3D('',#1304,#1061,#1062);
#887=AXIS2_PLACEMENT_3D('',#1310,#1066,#1067);
#888=AXIS2_PLACEMENT_3D('',#1316,#1071,#1072);
#889=AXIS2_PLACEMENT_3D('',#1319,#1075,#1076);
#890=AXIS2_PLACEMENT_3D('',#1321,#1077,#1078);
#891=AXIS2_PLACEMENT_3D('',#1322,#1079,#1080);
#892=AXIS2_PLACEMENT_3D('',#1325,#1081,#1082);
#893=AXIS2_PLACEMENT_3D('',#1328,#1085,#1086);
#894=AXIS2_PLACEMENT_3D('',#1332,#1089,#1090);
#895=AXIS2_PLACEMENT_3D('',#1334,#1091,#1092);
#896=AXIS2_PLACEMENT_3D('',#1336,#1094,#1095);
#897=AXIS2_PLACEMENT_3D('',#1340,#1098,#1099);
#898=AXIS2_PLACEMENT_3D('',#1342,#1100,#1101);
#899=AXIS2_PLACEMENT_3D('',#1344,#1103,#1104);
#900=AXIS2_PLACEMENT_3D('',#1348,#1106,#1107);
#901=AXIS2_PLACEMENT_3D('',#1350,#1109,#1110);
#902=AXIS2_PLACEMENT_3D('',#1352,#1112,#1113);
#903=AXIS2_PLACEMENT_3D('',#1354,#1114,#1115);
#904=AXIS2_PLACEMENT_3D('',#1355,#1116,#1117);
#905=AXIS2_PLACEMENT_3D('',#1357,#1118,#1119);
#906=AXIS2_PLACEMENT_3D('',#1359,#1120,#1121);
#907=AXIS2_PLACEMENT_3D('',#1361,#1122,#1123);
#908=AXIS2_PLACEMENT_3D('',#1362,#1124,#1125);
#909=AXIS2_PLACEMENT_3D('',#1363,#1126,#1127);
#910=AXIS2_PLACEMENT_3D('',#1365,#1129,#1130);
#911=AXIS2_PLACEMENT_3D('',#1367,#1132,#1133);
#912=AXIS2_PLACEMENT_3D('',#1369,#1135,#1136);
#913=AXIS2_PLACEMENT_3D('',#1371,#1138,#1139);
#914=AXIS2_PLACEMENT_3D('',#1373,#1141,#1142);
#915=AXIS2_PLACEMENT_3D('',#1375,#1144,#1145);
#916=AXIS2_PLACEMENT_3D('',#1376,#1146,#1147);
#917=AXIS2_PLACEMENT_3D('',#1377,#1148,#1149);
#918=AXIS2_PLACEMENT_3D('',#1379,#1151,#1152);
#919=DIRECTION('axis',(0.,0.,1.));
#920=DIRECTION('refdir',(1.,0.,0.));
#921=DIRECTION('center_axis',(0.,-1.,0.));
#922=DIRECTION('ref_axis',(1.,0.,0.));
#923=DIRECTION('center_axis',(0.,-1.,0.));
#924=DIRECTION('ref_axis',(1.,0.,0.));
#925=DIRECTION('',(0.707106781186547,0.707106781186548,8.65956056235493E-17));
#926=DIRECTION('center_axis',(0.,1.,0.));
#927=DIRECTION('ref_axis',(1.,0.,0.));
#928=DIRECTION('center_axis',(0.,1.,0.));
#929=DIRECTION('ref_axis',(-1.,0.,0.));
#930=DIRECTION('center_axis',(0.,-1.,0.));
#931=DIRECTION('ref_axis',(-1.,0.,0.));
#932=DIRECTION('center_axis',(0.,-1.,0.));
#933=DIRECTION('ref_axis',(1.,0.,0.));
#934=DIRECTION('center_axis',(0.,1.,0.));
#935=DIRECTION('ref_axis',(1.,0.,0.));
#936=DIRECTION('center_axis',(0.,1.,0.));
#937=DIRECTION('ref_axis',(1.,0.,0.));
#938=DIRECTION('center_axis',(0.,1.,0.));
#939=DIRECTION('ref_axis',(1.,0.,0.));
#940=DIRECTION('center_axis',(0.,1.,0.));
#941=DIRECTION('ref_axis',(1.,0.,0.));
#942=DIRECTION('center_axis',(0.,1.,0.));
#943=DIRECTION('ref_axis',(1.,0.,0.));
#944=DIRECTION('center_axis',(0.,1.,0.));
#945=DIRECTION('ref_axis',(1.,0.,0.));
#946=DIRECTION('center_axis',(0.,1.,0.));
#947=DIRECTION('ref_axis',(1.,0.,0.));
#948=DIRECTION('center_axis',(0.,1.,0.));
#949=DIRECTION('ref_axis',(1.,0.,0.));
#950=DIRECTION('center_axis',(0.,1.,0.));
#951=DIRECTION('ref_axis',(0.5,0.,-0.866025403784438));
#952=DIRECTION('center_axis',(0.,1.,0.));
#953=DIRECTION('ref_axis',(1.,0.,0.));
#954=DIRECTION('center_axis',(0.,1.,0.));
#955=DIRECTION('ref_axis',(0.500000000000001,0.,0.866025403784438));
#956=DIRECTION('',(-1.,0.,0.));
#957=DIRECTION('center_axis',(0.,-1.,0.));
#958=DIRECTION('ref_axis',(-0.707106781186548,0.,-0.707106781186547));
#959=DIRECTION('',(0.,0.,1.));
#960=DIRECTION('center_axis',(0.,-1.,0.));
#961=DIRECTION('ref_axis',(-0.707106781186548,0.,0.707106781186547));
#962=DIRECTION('',(1.,0.,0.));
#963=DIRECTION('center_axis',(0.,1.,0.));
#964=DIRECTION('ref_axis',(1.,0.,0.));
#965=DIRECTION('',(0.,1.,0.));
#966=DIRECTION('center_axis',(0.,1.,0.));
#967=DIRECTION('ref_axis',(1.,0.,0.));
#968=DIRECTION('center_axis',(0.,-1.,0.));
#969=DIRECTION('ref_axis',(1.,0.,0.));
#970=DIRECTION('',(0.707106781186547,0.707106781186548,8.65956056235493E-17));
#971=DIRECTION('center_axis',(0.,1.,0.));
#972=DIRECTION('ref_axis',(1.,0.,0.));
#973=DIRECTION('center_axis',(0.,1.,0.));
#974=DIRECTION('ref_axis',(1.,0.,0.));
#975=DIRECTION('',(0.,1.,0.));
#976=DIRECTION('center_axis',(0.,1.,0.));
#977=DIRECTION('ref_axis',(1.,0.,0.));
#978=DIRECTION('center_axis',(0.,1.,0.));
#979=DIRECTION('ref_axis',(1.,0.,0.));
#980=DIRECTION('',(0.,1.,0.));
#981=DIRECTION('center_axis',(0.,-1.,0.));
#982=DIRECTION('ref_axis',(1.,0.,0.));
#983=DIRECTION('center_axis',(1.,0.,-2.71048202465992E-17));
#984=DIRECTION('ref_axis',(2.71048202465992E-17,0.,1.));
#985=DIRECTION('',(2.71048202465992E-17,0.,1.));
#986=DIRECTION('',(0.,-1.,0.));
#987=DIRECTION('',(2.71048202465992E-17,0.,1.));
#988=DIRECTION('',(0.,-1.,0.));
#989=DIRECTION('center_axis',(6.92935590367052E-15,0.,-1.));
#990=DIRECTION('ref_axis',(1.,0.,6.92935590367052E-15));
#991=DIRECTION('',(1.,0.,6.92935590367052E-15));
#992=DIRECTION('',(0.,-1.,0.));
#993=DIRECTION('',(1.,0.,6.92935590367052E-15));
#994=DIRECTION('center_axis',(-1.,0.,-4.31624597929691E-17));
#995=DIRECTION('ref_axis',(4.31624597929691E-17,0.,-1.));
#996=DIRECTION('',(4.31624597929691E-17,0.,-1.));
#997=DIRECTION('',(0.,-1.,0.));
#998=DIRECTION('',(4.31624597929691E-17,0.,-1.));
#999=DIRECTION('center_axis',(-1.83697019872103E-16,0.,1.));
#1000=DIRECTION('ref_axis',(-1.,0.,-1.83697019872103E-16));
#1001=DIRECTION('',(-1.,0.,-1.83697019872103E-16));
#1002=DIRECTION('',(-1.,0.,-1.83697019872103E-16));
#1003=DIRECTION('center_axis',(0.,-1.,0.));
#1004=DIRECTION('ref_axis',(1.,0.,1.83697019872103E-16));
#1005=DIRECTION('center_axis',(0.,1.,0.));
#1006=DIRECTION('ref_axis',(1.,0.,0.));
#1007=DIRECTION('center_axis',(8.83371602039668E-17,0.,1.));
#1008=DIRECTION('ref_axis',(-1.,0.,8.83371602039668E-17));
#1009=DIRECTION('',(-1.,0.,8.83371602039668E-17));
#1010=DIRECTION('',(0.,-1.,0.));
#1011=DIRECTION('',(-1.,0.,8.83371602039668E-17));
#1012=DIRECTION('',(0.,-1.,0.));
#1013=DIRECTION('center_axis',(1.,0.,6.86812356371315E-15));
#1014=DIRECTION('ref_axis',(-6.86812356371315E-15,0.,1.));
#1015=DIRECTION('',(-6.86812356371315E-15,0.,1.));
#1016=DIRECTION('',(0.,-1.,0.));
#1017=DIRECTION('',(-6.86812356371315E-15,0.,1.));
#1018=DIRECTION('center_axis',(-1.80698801643985E-17,0.,-1.));
#1019=DIRECTION('ref_axis',(1.,0.,-1.80698801643985E-17));
#1020=DIRECTION('',(1.,0.,-1.80698801643985E-17));
#1021=DIRECTION('',(0.,-1.,0.));
#1022=DIRECTION('',(1.,0.,-1.80698801643985E-17));
#1023=DIRECTION('center_axis',(-1.,0.,-1.22464679914735E-16));
#1024=DIRECTION('ref_axis',(1.22464679914735E-16,0.,-1.));
#1025=DIRECTION('',(1.22464679914735E-16,0.,-1.));
#1026=DIRECTION('',(1.22464679914735E-16,0.,-1.));
#1027=DIRECTION('center_axis',(0.,-1.,0.));
#1028=DIRECTION('ref_axis',(-1.22464679914735E-16,0.,1.));
#1029=DIRECTION('center_axis',(0.,1.,0.));
#1030=DIRECTION('ref_axis',(1.,0.,0.));
#1031=DIRECTION('center_axis',(-1.,0.,1.49569500161335E-16));
#1032=DIRECTION('ref_axis',(-1.49569500161335E-16,0.,-1.));
#1033=DIRECTION('',(-1.49569500161335E-16,0.,-1.));
#1034=DIRECTION('',(0.,-1.,0.));
#1035=DIRECTION('',(-1.49569500161335E-16,0.,-1.));
#1036=DIRECTION('',(0.,-1.,0.));
#1037=DIRECTION('center_axis',(-6.80689122375579E-15,0.,1.));
#1038=DIRECTION('ref_axis',(-1.,0.,-6.80689122375579E-15));
#1039=DIRECTION('',(-1.,0.,-6.80689122375579E-15));
#1040=DIRECTION('',(0.,-1.,0.));
#1041=DIRECTION('',(-1.,0.,-6.80689122375579E-15));
#1042=DIRECTION('center_axis',(1.,0.,-7.93022201217662E-17));
#1043=DIRECTION('ref_axis',(7.93022201217662E-17,0.,1.));
#1044=DIRECTION('',(7.93022201217662E-17,0.,1.));
#1045=DIRECTION('',(0.,-1.,0.));
#1046=DIRECTION('',(7.93022201217662E-17,0.,1.));
#1047=DIRECTION('center_axis',(6.12323399573677E-17,0.,-1.));
#1048=DIRECTION('ref_axis',(1.,0.,6.12323399573677E-17));
#1049=DIRECTION('',(1.,0.,6.12323399573677E-17));
#1050=DIRECTION('',(1.,0.,6.12323399573677E-17));
#1051=DIRECTION('center_axis',(0.,-1.,0.));
#1052=DIRECTION('ref_axis',(-1.,0.,-6.12323399573677E-17));
#1053=DIRECTION('center_axis',(0.,1.,0.));
#1054=DIRECTION('ref_axis',(1.,0.,0.));
#1055=DIRECTION('center_axis',(-2.10801840118702E-16,0.,-1.));
#1056=DIRECTION('ref_axis',(1.,0.,-2.10801840118702E-16));
#1057=DIRECTION('',(1.,0.,-2.10801840118702E-16));
#1058=DIRECTION('',(0.,-1.,0.));
#1059=DIRECTION('',(1.,0.,-2.10801840118702E-16));
#1060=DIRECTION('',(0.,-1.,0.));
#1061=DIRECTION('center_axis',(-1.,0.,-6.74565888379842E-15));
#1062=DIRECTION('ref_axis',(6.74565888379842E-15,0.,-1.));
#1063=DIRECTION('',(6.74565888379842E-15,0.,-1.));
#1064=DIRECTION('',(0.,-1.,0.));
#1065=DIRECTION('',(6.74565888379842E-15,0.,-1.));
#1066=DIRECTION('center_axis',(1.40534560079134E-16,0.,1.));
#1067=DIRECTION('ref_axis',(-1.,0.,1.40534560079134E-16));
#1068=DIRECTION('',(-1.,0.,1.40534560079134E-16));
#1069=DIRECTION('',(0.,-1.,0.));
#1070=DIRECTION('',(-1.,0.,1.40534560079134E-16));
#1071=DIRECTION('center_axis',(1.,0.,0.));
#1072=DIRECTION('ref_axis',(0.,0.,1.));
#1073=DIRECTION('',(0.,0.,1.));
#1074=DIRECTION('',(0.,0.,1.));
#1075=DIRECTION('center_axis',(0.,-1.,0.));
#1076=DIRECTION('ref_axis',(0.,0.,-1.));
#1077=DIRECTION('center_axis',(0.,1.,0.));
#1078=DIRECTION('ref_axis',(1.,0.,0.));
#1079=DIRECTION('center_axis',(0.,-1.,0.));
#1080=DIRECTION('ref_axis',(-0.707106781186548,0.,-0.707106781186547));
#1081=DIRECTION('center_axis',(0.,1.,0.));
#1082=DIRECTION('ref_axis',(-0.707106781186548,0.,-0.707106781186547));
#1083=DIRECTION('',(0.,-1.,0.));
#1084=DIRECTION('',(0.,1.,0.));
#1085=DIRECTION('center_axis',(-1.,0.,0.));
#1086=DIRECTION('ref_axis',(0.,0.,-1.));
#1087=DIRECTION('',(0.,0.,-1.));
#1088=DIRECTION('',(0.,1.,0.));
#1089=DIRECTION('center_axis',(0.,-1.,0.));
#1090=DIRECTION('ref_axis',(-0.707106781186548,0.,0.707106781186547));
#1091=DIRECTION('center_axis',(0.,1.,0.));
#1092=DIRECTION('ref_axis',(-0.707106781186548,0.,0.707106781186547));
#1093=DIRECTION('',(0.,-1.,0.));
#1094=DIRECTION('center_axis',(0.,0.,1.));
#1095=DIRECTION('ref_axis',(-1.,0.,0.));
#1096=DIRECTION('',(-1.,0.,0.));
#1097=DIRECTION('',(0.,1.,0.));
#1098=DIRECTION('center_axis',(0.,1.,0.));
#1099=DIRECTION('ref_axis',(0.5,0.,-0.866025403784438));
#1100=DIRECTION('center_axis',(0.,-1.,0.));
#1101=DIRECTION('ref_axis',(0.5,0.,-0.866025403784438));
#1102=DIRECTION('',(0.,-1.,0.));
#1103=DIRECTION('center_axis',(0.,-1.,0.));
#1104=DIRECTION('ref_axis',(0.500000000000001,0.,0.866025403784438));
#1105=DIRECTION('',(0.,1.,0.));
#1106=DIRECTION('center_axis',(0.,-1.,0.));
#1107=DIRECTION('ref_axis',(0.500000000000001,0.,0.866025403784438));
#1108=DIRECTION('',(0.,-1.,0.));
#1109=DIRECTION('center_axis',(0.,0.,-1.));
#1110=DIRECTION('ref_axis',(1.,0.,0.));
#1111=DIRECTION('',(1.,0.,0.));
#1112=DIRECTION('center_axis',(0.,1.,0.));
#1113=DIRECTION('ref_axis',(-1.,0.,0.));
#1114=DIRECTION('center_axis',(0.,-1.,0.));
#1115=DIRECTION('ref_axis',(-1.,0.,0.));
#1116=DIRECTION('center_axis',(0.,-1.,0.));
#1117=DIRECTION('ref_axis',(1.,0.,0.));
#1118=DIRECTION('center_axis',(0.,-1.,0.));
#1119=DIRECTION('ref_axis',(1.,0.,0.));
#1120=DIRECTION('center_axis',(0.,-1.,0.));
#1121=DIRECTION('ref_axis',(1.,0.,0.));
#1122=DIRECTION('center_axis',(0.,-1.,0.));
#1123=DIRECTION('ref_axis',(1.,0.,0.));
#1124=DIRECTION('center_axis',(0.,1.,0.));
#1125=DIRECTION('ref_axis',(1.,0.,0.));
#1126=DIRECTION('center_axis',(0.,1.,0.));
#1127=DIRECTION('ref_axis',(1.,0.,0.));
#1128=DIRECTION('',(0.,1.,0.));
#1129=DIRECTION('center_axis',(0.,1.,0.));
#1130=DIRECTION('ref_axis',(1.,0.,0.));
#1131=DIRECTION('',(0.,1.,0.));
#1132=DIRECTION('center_axis',(0.,1.,0.));
#1133=DIRECTION('ref_axis',(1.,0.,0.));
#1134=DIRECTION('',(0.,1.,0.));
#1135=DIRECTION('center_axis',(0.,1.,0.));
#1136=DIRECTION('ref_axis',(1.,0.,0.));
#1137=DIRECTION('',(0.,1.,0.));
#1138=DIRECTION('center_axis',(0.,1.,0.));
#1139=DIRECTION('ref_axis',(1.,0.,0.));
#1140=DIRECTION('',(0.,1.,0.));
#1141=DIRECTION('center_axis',(0.,1.,0.));
#1142=DIRECTION('ref_axis',(1.,0.,0.));
#1143=DIRECTION('',(0.,1.,0.));
#1144=DIRECTION('center_axis',(0.,-1.,0.));
#1145=DIRECTION('ref_axis',(1.,0.,0.));
#1146=DIRECTION('center_axis',(0.,-1.,0.));
#1147=DIRECTION('ref_axis',(1.,0.,0.));
#1148=DIRECTION('center_axis',(0.,1.,0.));
#1149=DIRECTION('ref_axis',(-1.,0.,0.));
#1150=DIRECTION('',(0.,-1.,0.));
#1151=DIRECTION('center_axis',(0.,1.,0.));
#1152=DIRECTION('ref_axis',(1.,0.,0.));
#1153=DIRECTION('',(0.,1.,0.));
#1154=CARTESIAN_POINT('',(0.,0.,0.));
#1155=CARTESIAN_POINT('Origin',(-6.93166518566055E-16,6.75,13.));
#1156=CARTESIAN_POINT('',(-2.95,6.45,13.));
#1157=CARTESIAN_POINT('Origin',(-6.93166518566055E-16,6.45,13.));
#1158=CARTESIAN_POINT('',(-2.35,7.05,13.));
#1159=CARTESIAN_POINT('',(-2.65,6.75,13.));
#1160=CARTESIAN_POINT('Origin',(-6.93166518566055E-16,7.05,13.));
#1161=CARTESIAN_POINT('Origin',(0.,6.45,0.));
#1162=CARTESIAN_POINT('',(46.45,6.45,5.68848438203946E-15));
#1163=CARTESIAN_POINT('Origin',(0.,6.45,0.));
#1164=CARTESIAN_POINT('',(-2.95,6.45,-13.));
#1165=CARTESIAN_POINT('Origin',(7.9602041944578E-16,6.45,-13.));
#1166=CARTESIAN_POINT('',(-26.75,6.45,3.73873773065974E-14));
#1167=CARTESIAN_POINT('Origin',(-24.,6.45,3.70505994368319E-14));
#1168=CARTESIAN_POINT('',(-2.75,6.45,40.93));
#1169=CARTESIAN_POINT('Origin',(-2.50623967445506E-15,6.45,40.93));
#1170=CARTESIAN_POINT('',(-2.8,6.45,24.));
#1171=CARTESIAN_POINT('Origin',(-9.74344754656864E-16,6.45,24.));
#1172=CARTESIAN_POINT('',(21.2,6.45,-1.07267234182898E-15));
#1173=CARTESIAN_POINT('Origin',(24.,6.45,-1.41557344559024E-15));
#1174=CARTESIAN_POINT('',(-2.8,6.45,-24.));
#1175=CARTESIAN_POINT('Origin',(3.91349707261051E-15,6.45,-24.));
#1176=CARTESIAN_POINT('',(-43.68,6.45,-9.65511536447773E-15));
#1177=CARTESIAN_POINT('Origin',(-40.93,6.45,-9.99189323424325E-15));
#1178=CARTESIAN_POINT('',(-2.74999999999999,6.45,-40.93));
#1179=CARTESIAN_POINT('Origin',(7.49667538098052E-15,6.45,-40.93));
#1180=CARTESIAN_POINT('',(38.18,6.45,5.32721357629099E-15));
#1181=CARTESIAN_POINT('Origin',(40.93,6.45,4.99043570652546E-15));
#1182=CARTESIAN_POINT('',(-5.19615242270663,6.45,3.));
#1183=CARTESIAN_POINT('',(-6.06217782649107,6.45,2.5));
#1184=CARTESIAN_POINT('Origin',(-6.06217782649107,6.45,3.5));
#1185=CARTESIAN_POINT('',(-5.19615242270663,6.45,-3.));
#1186=CARTESIAN_POINT('Origin',(0.,6.45,0.));
#1187=CARTESIAN_POINT('',(-6.06217782649107,6.45,-2.5));
#1188=CARTESIAN_POINT('Origin',(-6.06217782649107,6.45,-3.5));
#1189=CARTESIAN_POINT('',(-10.,6.45,-2.5));
#1190=CARTESIAN_POINT('',(-5.5,6.45,-2.5));
#1191=CARTESIAN_POINT('',(-11.,6.45,-1.5));
#1192=CARTESIAN_POINT('Origin',(-10.,6.45,-1.5));
#1193=CARTESIAN_POINT('',(-11.,6.45,1.5));
#1194=CARTESIAN_POINT('',(-11.,6.45,1.25));
#1195=CARTESIAN_POINT('',(-10.,6.45,2.5));
#1196=CARTESIAN_POINT('Origin',(-10.,6.45,1.5));
#1197=CARTESIAN_POINT('',(-2.72717802865893,6.45,2.5));
#1198=CARTESIAN_POINT('Origin',(-6.93166518566055E-16,-1.,13.));
#1199=CARTESIAN_POINT('',(-2.35,12.,13.));
#1200=CARTESIAN_POINT('',(-2.35,-1.,13.));
#1201=CARTESIAN_POINT('Origin',(-6.93166518566055E-16,12.,13.));
#1202=CARTESIAN_POINT('Origin',(7.9602041944578E-16,6.75,-13.));
#1203=CARTESIAN_POINT('',(-2.35,7.05,-13.));
#1204=CARTESIAN_POINT('',(-2.65,6.75,-13.));
#1205=CARTESIAN_POINT('Origin',(7.9602041944578E-16,7.05,-13.));
#1206=CARTESIAN_POINT('Origin',(7.9602041944578E-16,-1.,-13.));
#1207=CARTESIAN_POINT('',(-2.35,12.,-13.));
#1208=CARTESIAN_POINT('',(-2.35,-1.,-13.));
#1209=CARTESIAN_POINT('Origin',(7.9602041944578E-16,12.,-13.));
#1210=CARTESIAN_POINT('Origin',(-24.,8.,3.70505994368319E-14));
#1211=CARTESIAN_POINT('',(-26.75,12.8,3.67138215670664E-14));
#1212=CARTESIAN_POINT('',(-26.75,8.,3.73873773065974E-14));
#1213=CARTESIAN_POINT('Origin',(-24.,12.8,3.70505994368319E-14));
#1214=CARTESIAN_POINT('Origin',(3.95,12.8,-44.88));
#1215=CARTESIAN_POINT('',(3.95,12.8,-44.88));
#1216=CARTESIAN_POINT('',(3.95,12.8,-36.9800000000001));
#1217=CARTESIAN_POINT('',(3.95,12.8,-22.44));
#1218=CARTESIAN_POINT('',(3.95,8.8,-44.88));
#1219=CARTESIAN_POINT('',(3.95,12.8,-44.88));
#1220=CARTESIAN_POINT('',(3.95,8.8,-36.9800000000001));
#1221=CARTESIAN_POINT('',(3.95,8.8,-36.9800000000001));
#1222=CARTESIAN_POINT('',(3.95,12.8,-36.9800000000001));
#1223=CARTESIAN_POINT('Origin',(-3.95,12.8,-44.8800000000001));
#1224=CARTESIAN_POINT('',(-3.95,12.8,-44.8800000000001));
#1225=CARTESIAN_POINT('',(-1.97499999999984,12.8,-44.8800000000001));
#1226=CARTESIAN_POINT('',(-3.95,8.8,-44.8800000000001));
#1227=CARTESIAN_POINT('',(-3.95,12.8,-44.8800000000001));
#1228=CARTESIAN_POINT('',(3.95,8.8,-44.88));
#1229=CARTESIAN_POINT('Origin',(-3.95,12.8,-36.9800000000001));
#1230=CARTESIAN_POINT('',(-3.95,12.8,-36.9800000000001));
#1231=CARTESIAN_POINT('',(-3.95,12.8,-18.49));
#1232=CARTESIAN_POINT('',(-3.95,8.8,-36.9800000000001));
#1233=CARTESIAN_POINT('',(-3.95,12.8,-36.9800000000001));
#1234=CARTESIAN_POINT('',(-3.95,8.8,-44.8800000000001));
#1235=CARTESIAN_POINT('Origin',(3.95,12.8,-36.9800000000001));
#1236=CARTESIAN_POINT('',(1.975,12.8,-36.9800000000001));
#1237=CARTESIAN_POINT('',(-3.95,8.8,-36.9800000000001));
#1238=CARTESIAN_POINT('Origin',(3.02269363301669E-16,8.8,-40.9300000000001));
#1239=CARTESIAN_POINT('',(-2.74999999999999,8.8,-40.93));
#1240=CARTESIAN_POINT('Origin',(7.49667538098052E-15,8.8,-40.93));
#1241=CARTESIAN_POINT('Origin',(44.88,12.8,3.95));
#1242=CARTESIAN_POINT('',(44.88,12.8,3.95));
#1243=CARTESIAN_POINT('',(36.9800000000001,12.8,3.95));
#1244=CARTESIAN_POINT('',(22.44,12.8,3.95));
#1245=CARTESIAN_POINT('',(44.88,8.8,3.95));
#1246=CARTESIAN_POINT('',(44.88,12.8,3.95));
#1247=CARTESIAN_POINT('',(36.9800000000001,8.8,3.95));
#1248=CARTESIAN_POINT('',(36.9800000000001,8.8,3.95));
#1249=CARTESIAN_POINT('',(36.9800000000001,12.8,3.95));
#1250=CARTESIAN_POINT('Origin',(44.8800000000001,12.8,-3.95));
#1251=CARTESIAN_POINT('',(44.8800000000001,12.8,-3.95));
#1252=CARTESIAN_POINT('',(44.8800000000001,12.8,-1.97499999999985));
#1253=CARTESIAN_POINT('',(44.8800000000001,8.8,-3.95));
#1254=CARTESIAN_POINT('',(44.8800000000001,12.8,-3.95));
#1255=CARTESIAN_POINT('',(44.88,8.8,3.95));
#1256=CARTESIAN_POINT('Origin',(36.9800000000001,12.8,-3.95));
#1257=CARTESIAN_POINT('',(36.9800000000001,12.8,-3.95));
#1258=CARTESIAN_POINT('',(18.49,12.8,-3.95));
#1259=CARTESIAN_POINT('',(36.9800000000001,8.8,-3.95));
#1260=CARTESIAN_POINT('',(36.9800000000001,12.8,-3.95));
#1261=CARTESIAN_POINT('',(44.8800000000001,8.8,-3.95));
#1262=CARTESIAN_POINT('Origin',(36.9800000000001,12.8,3.95));
#1263=CARTESIAN_POINT('',(36.9800000000001,12.8,1.975));
#1264=CARTESIAN_POINT('',(36.9800000000001,8.8,-3.95));
#1265=CARTESIAN_POINT('Origin',(40.9300000000001,8.8,-2.20397031115339E-15));
#1266=CARTESIAN_POINT('',(38.18,8.8,5.32721357629099E-15));
#1267=CARTESIAN_POINT('Origin',(40.93,8.8,4.99043570652546E-15));
#1268=CARTESIAN_POINT('Origin',(-3.95,12.8,44.88));
#1269=CARTESIAN_POINT('',(-3.95,12.8,44.88));
#1270=CARTESIAN_POINT('',(-3.95,12.8,36.9800000000001));
#1271=CARTESIAN_POINT('',(-3.95,12.8,22.44));
#1272=CARTESIAN_POINT('',(-3.95,8.8,44.88));
#1273=CARTESIAN_POINT('',(-3.95,12.8,44.88));
#1274=CARTESIAN_POINT('',(-3.95,8.8,36.9800000000001));
#1275=CARTESIAN_POINT('',(-3.95,8.8,36.9800000000001));
#1276=CARTESIAN_POINT('',(-3.95,12.8,36.9800000000001));
#1277=CARTESIAN_POINT('Origin',(3.95000000000001,12.8,44.8800000000001));
#1278=CARTESIAN_POINT('',(3.95000000000001,12.8,44.8800000000001));
#1279=CARTESIAN_POINT('',(1.97499999999985,12.8,44.8800000000001));
#1280=CARTESIAN_POINT('',(3.95000000000001,8.8,44.8800000000001));
#1281=CARTESIAN_POINT('',(3.95000000000001,12.8,44.8800000000001));
#1282=CARTESIAN_POINT('',(-3.95,8.8,44.88));
#1283=CARTESIAN_POINT('Origin',(3.95,12.8,36.9800000000001));
#1284=CARTESIAN_POINT('',(3.95,12.8,36.9800000000001));
#1285=CARTESIAN_POINT('',(3.95,12.8,18.49));
#1286=CARTESIAN_POINT('',(3.95,8.8,36.9800000000001));
#1287=CARTESIAN_POINT('',(3.95,12.8,36.9800000000001));
#1288=CARTESIAN_POINT('',(3.95000000000001,8.8,44.8800000000001));
#1289=CARTESIAN_POINT('Origin',(-3.95,12.8,36.9800000000001));
#1290=CARTESIAN_POINT('',(-1.975,12.8,36.9800000000001));
#1291=CARTESIAN_POINT('',(3.95,8.8,36.9800000000001));
#1292=CARTESIAN_POINT('Origin',(4.71020998560846E-15,8.8,40.9300000000001));
#1293=CARTESIAN_POINT('',(-2.75,8.8,40.93));
#1294=CARTESIAN_POINT('Origin',(-2.50623967445506E-15,8.8,40.93));
#1295=CARTESIAN_POINT('Origin',(-44.88,12.8,-3.94999999999999));
#1296=CARTESIAN_POINT('',(-44.88,12.8,-3.94999999999999));
#1297=CARTESIAN_POINT('',(-36.9800000000001,12.8,-3.94999999999999));
#1298=CARTESIAN_POINT('',(-22.44,12.8,-3.95));
#1299=CARTESIAN_POINT('',(-44.88,8.8,-3.94999999999999));
#1300=CARTESIAN_POINT('',(-44.88,12.8,-3.94999999999999));
#1301=CARTESIAN_POINT('',(-36.9800000000001,8.8,-3.94999999999999));
#1302=CARTESIAN_POINT('',(-36.9800000000001,8.8,-3.94999999999999));
#1303=CARTESIAN_POINT('',(-36.9800000000001,12.8,-3.94999999999999));
#1304=CARTESIAN_POINT('Origin',(-44.8800000000001,12.8,3.95000000000001));
#1305=CARTESIAN_POINT('',(-44.8800000000001,12.8,3.95000000000001));
#1306=CARTESIAN_POINT('',(-44.8800000000001,12.8,1.97499999999985));
#1307=CARTESIAN_POINT('',(-44.8800000000001,8.8,3.95000000000001));
#1308=CARTESIAN_POINT('',(-44.8800000000001,12.8,3.95000000000001));
#1309=CARTESIAN_POINT('',(-44.88,8.8,-3.94999999999999));
#1310=CARTESIAN_POINT('Origin',(-36.9800000000001,12.8,3.95000000000001));
#1311=CARTESIAN_POINT('',(-36.9800000000001,12.8,3.95000000000001));
#1312=CARTESIAN_POINT('',(-18.49,12.8,3.95));
#1313=CARTESIAN_POINT('',(-36.9800000000001,8.8,3.95000000000001));
#1314=CARTESIAN_POINT('',(-36.9800000000001,12.8,3.95000000000001));
#1315=CARTESIAN_POINT('',(-44.8800000000001,8.8,3.95000000000001));
#1316=CARTESIAN_POINT('Origin',(-36.9800000000001,12.8,-3.94999999999999));
#1317=CARTESIAN_POINT('',(-36.9800000000001,12.8,-1.975));
#1318=CARTESIAN_POINT('',(-36.9800000000001,8.8,3.95000000000001));
#1319=CARTESIAN_POINT('Origin',(-40.9300000000001,8.8,7.21644966006352E-15));
#1320=CARTESIAN_POINT('',(-43.68,8.8,-9.65511536447773E-15));
#1321=CARTESIAN_POINT('Origin',(-40.93,8.8,-9.99189323424325E-15));
#1322=CARTESIAN_POINT('Origin',(-10.,12.8,-1.5));
#1323=CARTESIAN_POINT('',(-10.,12.8,-2.5));
#1324=CARTESIAN_POINT('',(-11.,12.8,-1.5));
#1325=CARTESIAN_POINT('Origin',(-10.,12.8,-1.5));
#1326=CARTESIAN_POINT('',(-11.,12.8,-1.5));
#1327=CARTESIAN_POINT('',(-10.,12.8,-2.5));
#1328=CARTESIAN_POINT('Origin',(-11.,12.8,2.5));
#1329=CARTESIAN_POINT('',(-11.,12.8,1.5));
#1330=CARTESIAN_POINT('',(-11.,12.8,1.25));
#1331=CARTESIAN_POINT('',(-11.,12.8,1.5));
#1332=CARTESIAN_POINT('Origin',(-10.,12.8,1.5));
#1333=CARTESIAN_POINT('',(-10.,12.8,2.5));
#1334=CARTESIAN_POINT('Origin',(-10.,12.8,1.5));
#1335=CARTESIAN_POINT('',(-10.,12.8,2.5));
#1336=CARTESIAN_POINT('Origin',(-5.45435605731786,12.8,2.5));
#1337=CARTESIAN_POINT('',(-6.06217782649107,12.8,2.5));
#1338=CARTESIAN_POINT('',(-2.72717802865893,12.8,2.5));
#1339=CARTESIAN_POINT('',(-6.06217782649107,5.,2.5));
#1340=CARTESIAN_POINT('Origin',(-6.06217782649107,5.,3.5));
#1341=CARTESIAN_POINT('',(-5.19615242270663,12.8,3.));
#1342=CARTESIAN_POINT('Origin',(-6.06217782649107,12.8,3.5));
#1343=CARTESIAN_POINT('',(-5.19615242270663,5.,3.));
#1344=CARTESIAN_POINT('Origin',(-6.06217782649107,5.,-3.5));
#1345=CARTESIAN_POINT('',(-5.19615242270663,12.8,-3.));
#1346=CARTESIAN_POINT('',(-5.19615242270663,5.,-3.));
#1347=CARTESIAN_POINT('',(-6.06217782649107,12.8,-2.5));
#1348=CARTESIAN_POINT('Origin',(-6.06217782649107,12.8,-3.5));
#1349=CARTESIAN_POINT('',(-6.06217782649107,5.,-2.5));
#1350=CARTESIAN_POINT('Origin',(-11.,12.8,-2.5));
#1351=CARTESIAN_POINT('',(-5.5,12.8,-2.5));
#1352=CARTESIAN_POINT('Origin',(0.,12.8,0.));
#1353=CARTESIAN_POINT('',(46.45,12.8,5.68848438203946E-15));
#1354=CARTESIAN_POINT('Origin',(0.,12.8,0.));
#1355=CARTESIAN_POINT('Origin',(0.,12.8,0.));
#1356=CARTESIAN_POINT('',(-2.8,12.8,-24.));
#1357=CARTESIAN_POINT('Origin',(3.91349707261051E-15,12.8,-24.));
#1358=CARTESIAN_POINT('',(21.2,12.8,-1.7584745493515E-15));
#1359=CARTESIAN_POINT('Origin',(24.,12.8,-1.41557344559024E-15));
#1360=CARTESIAN_POINT('',(-2.8,12.8,24.));
#1361=CARTESIAN_POINT('Origin',(-9.74344754656864E-16,12.8,24.));
#1362=CARTESIAN_POINT('Origin',(0.,5.,0.));
#1363=CARTESIAN_POINT('Origin',(40.93,8.,4.99043570652546E-15));
#1364=CARTESIAN_POINT('',(38.18,8.,5.32721357629099E-15));
#1365=CARTESIAN_POINT('Origin',(7.49667538098052E-15,8.,-40.93));
#1366=CARTESIAN_POINT('',(-2.74999999999999,8.,-40.93));
#1367=CARTESIAN_POINT('Origin',(-40.93,8.,-9.99189323424325E-15));
#1368=CARTESIAN_POINT('',(-43.68,8.,-9.65511536447773E-15));
#1369=CARTESIAN_POINT('Origin',(-9.74344754656864E-16,8.,24.));
#1370=CARTESIAN_POINT('',(-2.8,8.,24.));
#1371=CARTESIAN_POINT('Origin',(24.,8.,-1.41557344559024E-15));
#1372=CARTESIAN_POINT('',(21.2,8.,-1.07267234182898E-15));
#1373=CARTESIAN_POINT('Origin',(3.91349707261051E-15,8.,-24.));
#1374=CARTESIAN_POINT('',(-2.8,8.,-24.));
#1375=CARTESIAN_POINT('Origin',(5.55111512312578E-16,12.,-13.));
#1376=CARTESIAN_POINT('Origin',(-5.55111512312578E-16,12.,13.));
#1377=CARTESIAN_POINT('Origin',(0.,8.,0.));
#1378=CARTESIAN_POINT('',(46.45,8.,-5.68848438203946E-15));
#1379=CARTESIAN_POINT('Origin',(-2.50623967445506E-15,8.,40.93));
#1380=CARTESIAN_POINT('',(-2.75,8.,40.93));
#1381=UNCERTAINTY_MEASURE_WITH_UNIT(LENGTH_MEASURE(0.01),#1385,
'DISTANCE_ACCURACY_VALUE',
'Maximum model space distance between geometric entities at asserted c
onnectivities');
#1382=UNCERTAINTY_MEASURE_WITH_UNIT(LENGTH_MEASURE(0.01),#1385,
'DISTANCE_ACCURACY_VALUE',
'Maximum model space distance between geometric entities at asserted c
onnectivities');
#1383=(
GEOMETRIC_REPRESENTATION_CONTEXT(3)
GLOBAL_UNCERTAINTY_ASSIGNED_CONTEXT((#1381))
GLOBAL_UNIT_ASSIGNED_CONTEXT((#1385,#1387,#1388))
REPRESENTATION_CONTEXT('','3D')
);
#1384=(
GEOMETRIC_REPRESENTATION_CONTEXT(3)
GLOBAL_UNCERTAINTY_ASSIGNED_CONTEXT((#1382))
GLOBAL_UNIT_ASSIGNED_CONTEXT((#1385,#1387,#1388))
REPRESENTATION_CONTEXT('','3D')
);
#1385=(
LENGTH_UNIT()
NAMED_UNIT(*)
SI_UNIT(.MILLI.,.METRE.)
);
#1386=(
LENGTH_UNIT()
NAMED_UNIT(*)
SI_UNIT($,.METRE.)
);
#1387=(
NAMED_UNIT(*)
PLANE_ANGLE_UNIT()
SI_UNIT($,.RADIAN.)
);
#1388=(
NAMED_UNIT(*)
SI_UNIT($,.STERADIAN.)
SOLID_ANGLE_UNIT()
);
#1389=SHAPE_DEFINITION_REPRESENTATION(#1390,#1391);
#1390=PRODUCT_DEFINITION_SHAPE('',$,#1393);
#1391=SHAPE_REPRESENTATION('',(#839),#1383);
#1392=PRODUCT_DEFINITION_CONTEXT('part definition',#1397,'design');
#1393=PRODUCT_DEFINITION('2026-08-29-11-09-42-380','(Unsaved)',#1394,#1392);
#1394=PRODUCT_DEFINITION_FORMATION('',$,#1399);
#1395=PRODUCT_RELATED_PRODUCT_CATEGORY('(Unsaved)','(Unsaved)',(#1399));
#1396=APPLICATION_PROTOCOL_DEFINITION('international standard',
'automotive_design',2009,#1397);
#1397=APPLICATION_CONTEXT(
'Core Data for Automotive Mechanical Design Process');
#1398=PRODUCT_CONTEXT('part definition',#1397,'mechanical');
#1399=PRODUCT('2026-08-29-11-09-42-380','(Unsaved)',$,(#1398));
#1400=PRESENTATION_STYLE_ASSIGNMENT((#1401));
#1401=SURFACE_STYLE_USAGE(.BOTH.,#1402);
#1402=SURFACE_SIDE_STYLE('',(#1403));
#1403=SURFACE_STYLE_FILL_AREA(#1404);
#1404=FILL_AREA_STYLE('Steel - Satin',(#1405));
#1405=FILL_AREA_STYLE_COLOUR('Steel - Satin',#1406);
#1406=COLOUR_RGB('Steel - Satin',0.627450980392157,0.627450980392157,0.627450980392157);
ENDSEC;
END-ISO-10303-21;
