ISO-10303-21;
HEADER;
/* Generated by software containing ST-Developer
 * from STEP Tools, Inc. (www.steptools.com) 
 */

FILE_DESCRIPTION(
/* description */ (''),
/* implementation_level */ '2;1');

FILE_NAME(
/* name */ 'freestanding-base-power-jack-plate_v1.0.step',
/* time_stamp */ '2026-08-29T11:09:44-05:00',
/* author */ (''),
/* organization */ (''),
/* preprocessor_version */ 'ST-DEVELOPER v20.1',
/* originating_system */ 'Autodesk Translation Framework v15.8.0.0',
/* authorisation */ '');

FILE_SCHEMA (('AUTOMOTIVE_DESIGN { 1 0 10303 214 3 1 1 }'));
ENDSEC;

DATA;
#10=MECHANICAL_DESIGN_GEOMETRIC_PRESENTATION_REPRESENTATION('',(#13),#596);
#11=SHAPE_REPRESENTATION_RELATIONSHIP('SRR','None',#603,#12);
#12=ADVANCED_BREP_SHAPE_REPRESENTATION('',(#14),#595);
#13=STYLED_ITEM('',(#612),#14);
#14=MANIFOLD_SOLID_BREP('Body1',#314);
#15=B_SPLINE_CURVE_WITH_KNOTS('',3,(#539,#540,#541,#542,#543,#544,#545,
#546),.UNSPECIFIED.,.F.,.F.,(4,2,2,4),(2.28847701324262,2.43963613597672,
2.56823385073175,2.63201303492477),.UNSPECIFIED.);
#16=B_SPLINE_CURVE_WITH_KNOTS('',3,(#549,#550,#551,#552,#553,#554,#555,
#556),.UNSPECIFIED.,.F.,.F.,(4,2,2,4),(2.7616500960488,2.82542928024182,
2.95402699499686,3.10518611773096),.UNSPECIFIED.);
#17=B_SPLINE_CURVE_WITH_KNOTS('',3,(#559,#560,#561,#562,#563,#564,#565,
#566),.UNSPECIFIED.,.F.,.F.,(4,2,2,4),(2.28847701324262,2.43963613597672,
2.56823385073175,2.63201303492477),.UNSPECIFIED.);
#18=B_SPLINE_CURVE_WITH_KNOTS('',3,(#569,#570,#571,#572,#573,#574,#575,
#576),.UNSPECIFIED.,.F.,.F.,(4,2,2,4),(2.7616500960488,2.82542928024182,
2.95402699499686,3.10518611773096),.UNSPECIFIED.);
#19=CONICAL_SURFACE('',#342,18.5,0.785398163397449);
#20=CONICAL_SURFACE('',#361,6.83578643762689,0.785398163397448);
#21=CONICAL_SURFACE('',#363,6.83578643762689,0.785398163397448);
#22=FACE_BOUND('',#82,.T.);
#23=FACE_BOUND('',#83,.T.);
#24=FACE_BOUND('',#87,.T.);
#25=FACE_BOUND('',#88,.T.);
#26=FACE_BOUND('',#89,.T.);
#27=FACE_BOUND('',#99,.T.);
#28=FACE_BOUND('',#102,.T.);
#29=CIRCLE('',#335,5.75);
#30=CIRCLE('',#336,5.75);
#31=CIRCLE('',#337,5.75);
#32=CIRCLE('',#339,19.);
#33=CIRCLE('',#340,2.6);
#34=CIRCLE('',#341,2.6);
#35=CIRCLE('',#343,18.);
#36=CIRCLE('',#344,19.);
#37=CIRCLE('',#347,10.3357864376269);
#38=CIRCLE('',#348,4.6);
#39=CIRCLE('',#349,10.3357864376269);
#40=CIRCLE('',#350,4.6);
#41=CIRCLE('',#351,2.6);
#42=CIRCLE('',#352,2.6);
#43=CIRCLE('',#354,10.3357864376269);
#44=CIRCLE('',#356,10.3357864376269);
#45=CIRCLE('',#358,4.6);
#46=CIRCLE('',#360,4.6);
#47=CIRCLE('',#362,8.4715728752538);
#48=CIRCLE('',#364,8.4715728752538);
#49=CIRCLE('',#368,4.125);
#50=CIRCLE('',#370,4.125);
#51=CYLINDRICAL_SURFACE('',#334,5.75);
#52=CYLINDRICAL_SURFACE('',#345,19.);
#53=CYLINDRICAL_SURFACE('',#353,10.3357864376269);
#54=CYLINDRICAL_SURFACE('',#355,10.3357864376269);
#55=CYLINDRICAL_SURFACE('',#357,4.6);
#56=CYLINDRICAL_SURFACE('',#359,4.6);
#57=CYLINDRICAL_SURFACE('',#365,2.6);
#58=CYLINDRICAL_SURFACE('',#366,2.6);
#59=CYLINDRICAL_SURFACE('',#369,4.125);
#60=FACE_OUTER_BOUND('',#78,.T.);
#61=FACE_OUTER_BOUND('',#79,.T.);
#62=FACE_OUTER_BOUND('',#80,.T.);
#63=FACE_OUTER_BOUND('',#81,.T.);
#64=FACE_OUTER_BOUND('',#84,.T.);
#65=FACE_OUTER_BOUND('',#85,.T.);
#66=FACE_OUTER_BOUND('',#86,.T.);
#67=FACE_OUTER_BOUND('',#90,.T.);
#68=FACE_OUTER_BOUND('',#91,.T.);
#69=FACE_OUTER_BOUND('',#92,.T.);
#70=FACE_OUTER_BOUND('',#93,.T.);
#71=FACE_OUTER_BOUND('',#94,.T.);
#72=FACE_OUTER_BOUND('',#95,.T.);
#73=FACE_OUTER_BOUND('',#96,.T.);
#74=FACE_OUTER_BOUND('',#97,.T.);
#75=FACE_OUTER_BOUND('',#98,.T.);
#76=FACE_OUTER_BOUND('',#100,.T.);
#77=FACE_OUTER_BOUND('',#101,.T.);
#78=EDGE_LOOP('',(#204,#205,#206,#207));
#79=EDGE_LOOP('',(#208,#209,#210,#211));
#80=EDGE_LOOP('',(#212,#213,#214,#215,#216,#217,#218));
#81=EDGE_LOOP('',(#219,#220,#221,#222,#223));
#82=EDGE_LOOP('',(#224));
#83=EDGE_LOOP('',(#225));
#84=EDGE_LOOP('',(#226,#227,#228,#229));
#85=EDGE_LOOP('',(#230,#231,#232,#233,#234,#235));
#86=EDGE_LOOP('',(#236));
#87=EDGE_LOOP('',(#237,#238,#239,#240));
#88=EDGE_LOOP('',(#241));
#89=EDGE_LOOP('',(#242));
#90=EDGE_LOOP('',(#243,#244,#245,#246));
#91=EDGE_LOOP('',(#247,#248,#249,#250));
#92=EDGE_LOOP('',(#251,#252,#253,#254,#255,#256));
#93=EDGE_LOOP('',(#257,#258,#259,#260,#261,#262));
#94=EDGE_LOOP('',(#263,#264,#265,#266));
#95=EDGE_LOOP('',(#267,#268,#269,#270));
#96=EDGE_LOOP('',(#271,#272,#273,#274));
#97=EDGE_LOOP('',(#275,#276,#277,#278));
#98=EDGE_LOOP('',(#279));
#99=EDGE_LOOP('',(#280));
#100=EDGE_LOOP('',(#281,#282,#283,#284));
#101=EDGE_LOOP('',(#285,#286,#287,#288));
#102=EDGE_LOOP('',(#289));
#103=LINE('',#481,#116);
#104=LINE('',#484,#117);
#105=LINE('',#490,#118);
#106=LINE('',#495,#119);
#107=LINE('',#508,#120);
#108=LINE('',#511,#121);
#109=LINE('',#529,#122);
#110=LINE('',#530,#123);
#111=LINE('',#535,#124);
#112=LINE('',#536,#125);
#113=LINE('',#582,#126);
#114=LINE('',#584,#127);
#115=LINE('',#590,#128);
#116=VECTOR('',#378,10.);
#117=VECTOR('',#381,10.);
#118=VECTOR('',#388,10.);
#119=VECTOR('',#393,5.75);
#120=VECTOR('',#410,18.5);
#121=VECTOR('',#415,19.);
#122=VECTOR('',#434,10.);
#123=VECTOR('',#435,10.);
#124=VECTOR('',#440,10.);
#125=VECTOR('',#441,10.);
#126=VECTOR('',#460,2.6);
#127=VECTOR('',#463,2.6);
#128=VECTOR('',#470,4.125);
#129=ELLIPSE('',#329,8.1317279836453,5.75);
#130=ELLIPSE('',#330,26.8700576850888,19.);
#131=ELLIPSE('',#332,8.1317279836453,5.75);
#132=ELLIPSE('',#333,26.8700576850888,19.);
#133=VERTEX_POINT('',#477);
#134=VERTEX_POINT('',#478);
#135=VERTEX_POINT('',#480);
#136=VERTEX_POINT('',#482);
#137=VERTEX_POINT('',#486);
#138=VERTEX_POINT('',#488);
#139=VERTEX_POINT('',#492);
#140=VERTEX_POINT('',#494);
#141=VERTEX_POINT('',#500);
#142=VERTEX_POINT('',#502);
#143=VERTEX_POINT('',#505);
#144=VERTEX_POINT('',#507);
#145=VERTEX_POINT('',#513);
#146=VERTEX_POINT('',#514);
#147=VERTEX_POINT('',#516);
#148=VERTEX_POINT('',#518);
#149=VERTEX_POINT('',#521);
#150=VERTEX_POINT('',#523);
#151=VERTEX_POINT('',#526);
#152=VERTEX_POINT('',#527);
#153=VERTEX_POINT('',#532);
#154=VERTEX_POINT('',#533);
#155=VERTEX_POINT('',#538);
#156=VERTEX_POINT('',#547);
#157=VERTEX_POINT('',#558);
#158=VERTEX_POINT('',#567);
#159=VERTEX_POINT('',#586);
#160=VERTEX_POINT('',#589);
#161=EDGE_CURVE('',#133,#134,#129,.T.);
#162=EDGE_CURVE('',#135,#134,#103,.T.);
#163=EDGE_CURVE('',#135,#136,#130,.T.);
#164=EDGE_CURVE('',#133,#136,#104,.T.);
#165=EDGE_CURVE('',#137,#133,#131,.T.);
#166=EDGE_CURVE('',#136,#138,#132,.T.);
#167=EDGE_CURVE('',#137,#138,#105,.T.);
#168=EDGE_CURVE('',#137,#139,#29,.F.);
#169=EDGE_CURVE('',#139,#140,#106,.T.);
#170=EDGE_CURVE('',#140,#140,#30,.F.);
#171=EDGE_CURVE('',#139,#134,#31,.F.);
#172=EDGE_CURVE('',#135,#138,#32,.T.);
#173=EDGE_CURVE('',#141,#141,#33,.T.);
#174=EDGE_CURVE('',#142,#142,#34,.T.);
#175=EDGE_CURVE('',#143,#143,#35,.T.);
#176=EDGE_CURVE('',#143,#144,#107,.T.);
#177=EDGE_CURVE('',#144,#144,#36,.T.);
#178=EDGE_CURVE('',#144,#136,#108,.T.);
#179=EDGE_CURVE('',#145,#146,#37,.T.);
#180=EDGE_CURVE('',#147,#145,#38,.T.);
#181=EDGE_CURVE('',#148,#147,#39,.T.);
#182=EDGE_CURVE('',#146,#148,#40,.T.);
#183=EDGE_CURVE('',#149,#149,#41,.T.);
#184=EDGE_CURVE('',#150,#150,#42,.T.);
#185=EDGE_CURVE('',#151,#152,#43,.F.);
#186=EDGE_CURVE('',#152,#148,#109,.T.);
#187=EDGE_CURVE('',#151,#147,#110,.T.);
#188=EDGE_CURVE('',#153,#154,#44,.F.);
#189=EDGE_CURVE('',#154,#145,#111,.T.);
#190=EDGE_CURVE('',#153,#146,#112,.T.);
#191=EDGE_CURVE('',#155,#152,#15,.F.);
#192=EDGE_CURVE('',#156,#155,#45,.T.);
#193=EDGE_CURVE('',#153,#156,#16,.F.);
#194=EDGE_CURVE('',#157,#154,#17,.F.);
#195=EDGE_CURVE('',#158,#157,#46,.T.);
#196=EDGE_CURVE('',#151,#158,#18,.F.);
#197=EDGE_CURVE('',#157,#156,#47,.T.);
#198=EDGE_CURVE('',#155,#158,#48,.T.);
#199=EDGE_CURVE('',#150,#142,#113,.T.);
#200=EDGE_CURVE('',#149,#141,#114,.T.);
#201=EDGE_CURVE('',#159,#159,#49,.T.);
#202=EDGE_CURVE('',#159,#160,#115,.T.);
#203=EDGE_CURVE('',#160,#160,#50,.T.);
#204=ORIENTED_EDGE('',*,*,#161,.T.);
#205=ORIENTED_EDGE('',*,*,#162,.F.);
#206=ORIENTED_EDGE('',*,*,#163,.T.);
#207=ORIENTED_EDGE('',*,*,#164,.F.);
#208=ORIENTED_EDGE('',*,*,#165,.T.);
#209=ORIENTED_EDGE('',*,*,#164,.T.);
#210=ORIENTED_EDGE('',*,*,#166,.T.);
#211=ORIENTED_EDGE('',*,*,#167,.F.);
#212=ORIENTED_EDGE('',*,*,#161,.F.);
#213=ORIENTED_EDGE('',*,*,#165,.F.);
#214=ORIENTED_EDGE('',*,*,#168,.T.);
#215=ORIENTED_EDGE('',*,*,#169,.T.);
#216=ORIENTED_EDGE('',*,*,#170,.F.);
#217=ORIENTED_EDGE('',*,*,#169,.F.);
#218=ORIENTED_EDGE('',*,*,#171,.T.);
#219=ORIENTED_EDGE('',*,*,#162,.T.);
#220=ORIENTED_EDGE('',*,*,#171,.F.);
#221=ORIENTED_EDGE('',*,*,#168,.F.);
#222=ORIENTED_EDGE('',*,*,#167,.T.);
#223=ORIENTED_EDGE('',*,*,#172,.F.);
#224=ORIENTED_EDGE('',*,*,#173,.T.);
#225=ORIENTED_EDGE('',*,*,#174,.T.);
#226=ORIENTED_EDGE('',*,*,#175,.T.);
#227=ORIENTED_EDGE('',*,*,#176,.T.);
#228=ORIENTED_EDGE('',*,*,#177,.T.);
#229=ORIENTED_EDGE('',*,*,#176,.F.);
#230=ORIENTED_EDGE('',*,*,#177,.F.);
#231=ORIENTED_EDGE('',*,*,#178,.T.);
#232=ORIENTED_EDGE('',*,*,#163,.F.);
#233=ORIENTED_EDGE('',*,*,#172,.T.);
#234=ORIENTED_EDGE('',*,*,#166,.F.);
#235=ORIENTED_EDGE('',*,*,#178,.F.);
#236=ORIENTED_EDGE('',*,*,#175,.F.);
#237=ORIENTED_EDGE('',*,*,#179,.F.);
#238=ORIENTED_EDGE('',*,*,#180,.F.);
#239=ORIENTED_EDGE('',*,*,#181,.F.);
#240=ORIENTED_EDGE('',*,*,#182,.F.);
#241=ORIENTED_EDGE('',*,*,#183,.F.);
#242=ORIENTED_EDGE('',*,*,#184,.F.);
#243=ORIENTED_EDGE('',*,*,#185,.T.);
#244=ORIENTED_EDGE('',*,*,#186,.T.);
#245=ORIENTED_EDGE('',*,*,#181,.T.);
#246=ORIENTED_EDGE('',*,*,#187,.F.);
#247=ORIENTED_EDGE('',*,*,#188,.T.);
#248=ORIENTED_EDGE('',*,*,#189,.T.);
#249=ORIENTED_EDGE('',*,*,#179,.T.);
#250=ORIENTED_EDGE('',*,*,#190,.F.);
#251=ORIENTED_EDGE('',*,*,#191,.F.);
#252=ORIENTED_EDGE('',*,*,#192,.F.);
#253=ORIENTED_EDGE('',*,*,#193,.F.);
#254=ORIENTED_EDGE('',*,*,#190,.T.);
#255=ORIENTED_EDGE('',*,*,#182,.T.);
#256=ORIENTED_EDGE('',*,*,#186,.F.);
#257=ORIENTED_EDGE('',*,*,#194,.F.);
#258=ORIENTED_EDGE('',*,*,#195,.F.);
#259=ORIENTED_EDGE('',*,*,#196,.F.);
#260=ORIENTED_EDGE('',*,*,#187,.T.);
#261=ORIENTED_EDGE('',*,*,#180,.T.);
#262=ORIENTED_EDGE('',*,*,#189,.F.);
#263=ORIENTED_EDGE('',*,*,#193,.T.);
#264=ORIENTED_EDGE('',*,*,#197,.F.);
#265=ORIENTED_EDGE('',*,*,#194,.T.);
#266=ORIENTED_EDGE('',*,*,#188,.F.);
#267=ORIENTED_EDGE('',*,*,#191,.T.);
#268=ORIENTED_EDGE('',*,*,#185,.F.);
#269=ORIENTED_EDGE('',*,*,#196,.T.);
#270=ORIENTED_EDGE('',*,*,#198,.F.);
#271=ORIENTED_EDGE('',*,*,#184,.T.);
#272=ORIENTED_EDGE('',*,*,#199,.T.);
#273=ORIENTED_EDGE('',*,*,#174,.F.);
#274=ORIENTED_EDGE('',*,*,#199,.F.);
#275=ORIENTED_EDGE('',*,*,#183,.T.);
#276=ORIENTED_EDGE('',*,*,#200,.T.);
#277=ORIENTED_EDGE('',*,*,#173,.F.);
#278=ORIENTED_EDGE('',*,*,#200,.F.);
#279=ORIENTED_EDGE('',*,*,#170,.T.);
#280=ORIENTED_EDGE('',*,*,#201,.T.);
#281=ORIENTED_EDGE('',*,*,#201,.F.);
#282=ORIENTED_EDGE('',*,*,#202,.T.);
#283=ORIENTED_EDGE('',*,*,#203,.F.);
#284=ORIENTED_EDGE('',*,*,#202,.F.);
#285=ORIENTED_EDGE('',*,*,#192,.T.);
#286=ORIENTED_EDGE('',*,*,#198,.T.);
#287=ORIENTED_EDGE('',*,*,#195,.T.);
#288=ORIENTED_EDGE('',*,*,#197,.T.);
#289=ORIENTED_EDGE('',*,*,#203,.T.);
#290=PLANE('',#328);
#291=PLANE('',#331);
#292=PLANE('',#338);
#293=PLANE('',#346);
#294=PLANE('',#367);
#295=PLANE('',#371);
#296=ADVANCED_FACE('',(#60),#290,.T.);
#297=ADVANCED_FACE('',(#61),#291,.T.);
#298=ADVANCED_FACE('',(#62),#51,.F.);
#299=ADVANCED_FACE('',(#63,#22,#23),#292,.F.);
#300=ADVANCED_FACE('',(#64),#19,.T.);
#301=ADVANCED_FACE('',(#65),#52,.T.);
#302=ADVANCED_FACE('',(#66,#24,#25,#26),#293,.T.);
#303=ADVANCED_FACE('',(#67),#53,.T.);
#304=ADVANCED_FACE('',(#68),#54,.T.);
#305=ADVANCED_FACE('',(#69),#55,.F.);
#306=ADVANCED_FACE('',(#70),#56,.F.);
#307=ADVANCED_FACE('',(#71),#20,.T.);
#308=ADVANCED_FACE('',(#72),#21,.T.);
#309=ADVANCED_FACE('',(#73),#57,.F.);
#310=ADVANCED_FACE('',(#74),#58,.F.);
#311=ADVANCED_FACE('',(#75,#27),#294,.F.);
#312=ADVANCED_FACE('',(#76),#59,.F.);
#313=ADVANCED_FACE('',(#77,#28),#295,.F.);
#314=CLOSED_SHELL('',(#296,#297,#298,#299,#300,#301,#302,#303,#304,#305,
#306,#307,#308,#309,#310,#311,#312,#313));
#315=DERIVED_UNIT_ELEMENT(#317,1.);
#316=DERIVED_UNIT_ELEMENT(#598,-3.);
#317=(
MASS_UNIT()
NAMED_UNIT(*)
SI_UNIT(.KILO.,.GRAM.)
);
#318=DERIVED_UNIT((#315,#316));
#319=MEASURE_REPRESENTATION_ITEM('density measure',
POSITIVE_RATIO_MEASURE(7850.),#318);
#320=PROPERTY_DEFINITION_REPRESENTATION(#325,#322);
#321=PROPERTY_DEFINITION_REPRESENTATION(#326,#323);
#322=REPRESENTATION('material name',(#324),#595);
#323=REPRESENTATION('density',(#319),#595);
#324=DESCRIPTIVE_REPRESENTATION_ITEM('Steel','Steel');
#325=PROPERTY_DEFINITION('material property','material name',#605);
#326=PROPERTY_DEFINITION('material property','density of part',#605);
#327=AXIS2_PLACEMENT_3D('',#475,#372,#373);
#328=AXIS2_PLACEMENT_3D('',#476,#374,#375);
#329=AXIS2_PLACEMENT_3D('',#479,#376,#377);
#330=AXIS2_PLACEMENT_3D('',#483,#379,#380);
#331=AXIS2_PLACEMENT_3D('',#485,#382,#383);
#332=AXIS2_PLACEMENT_3D('',#487,#384,#385);
#333=AXIS2_PLACEMENT_3D('',#489,#386,#387);
#334=AXIS2_PLACEMENT_3D('',#491,#389,#390);
#335=AXIS2_PLACEMENT_3D('',#493,#391,#392);
#336=AXIS2_PLACEMENT_3D('',#496,#394,#395);
#337=AXIS2_PLACEMENT_3D('',#497,#396,#397);
#338=AXIS2_PLACEMENT_3D('',#498,#398,#399);
#339=AXIS2_PLACEMENT_3D('',#499,#400,#401);
#340=AXIS2_PLACEMENT_3D('',#501,#402,#403);
#341=AXIS2_PLACEMENT_3D('',#503,#404,#405);
#342=AXIS2_PLACEMENT_3D('',#504,#406,#407);
#343=AXIS2_PLACEMENT_3D('',#506,#408,#409);
#344=AXIS2_PLACEMENT_3D('',#509,#411,#412);
#345=AXIS2_PLACEMENT_3D('',#510,#413,#414);
#346=AXIS2_PLACEMENT_3D('',#512,#416,#417);
#347=AXIS2_PLACEMENT_3D('',#515,#418,#419);
#348=AXIS2_PLACEMENT_3D('',#517,#420,#421);
#349=AXIS2_PLACEMENT_3D('',#519,#422,#423);
#350=AXIS2_PLACEMENT_3D('',#520,#424,#425);
#351=AXIS2_PLACEMENT_3D('',#522,#426,#427);
#352=AXIS2_PLACEMENT_3D('',#524,#428,#429);
#353=AXIS2_PLACEMENT_3D('',#525,#430,#431);
#354=AXIS2_PLACEMENT_3D('',#528,#432,#433);
#355=AXIS2_PLACEMENT_3D('',#531,#436,#437);
#356=AXIS2_PLACEMENT_3D('',#534,#438,#439);
#357=AXIS2_PLACEMENT_3D('',#537,#442,#443);
#358=AXIS2_PLACEMENT_3D('',#548,#444,#445);
#359=AXIS2_PLACEMENT_3D('',#557,#446,#447);
#360=AXIS2_PLACEMENT_3D('',#568,#448,#449);
#361=AXIS2_PLACEMENT_3D('',#577,#450,#451);
#362=AXIS2_PLACEMENT_3D('',#578,#452,#453);
#363=AXIS2_PLACEMENT_3D('',#579,#454,#455);
#364=AXIS2_PLACEMENT_3D('',#580,#456,#457);
#365=AXIS2_PLACEMENT_3D('',#581,#458,#459);
#366=AXIS2_PLACEMENT_3D('',#583,#461,#462);
#367=AXIS2_PLACEMENT_3D('',#585,#464,#465);
#368=AXIS2_PLACEMENT_3D('',#587,#466,#467);
#369=AXIS2_PLACEMENT_3D('',#588,#468,#469);
#370=AXIS2_PLACEMENT_3D('',#591,#471,#472);
#371=AXIS2_PLACEMENT_3D('',#592,#473,#474);
#372=DIRECTION('axis',(0.,0.,1.));
#373=DIRECTION('refdir',(1.,0.,0.));
#374=DIRECTION('center_axis',(-8.65956056235493E-17,0.707106781186548,0.707106781186548));
#375=DIRECTION('ref_axis',(1.,0.,1.22464679914735E-16));
#376=DIRECTION('center_axis',(8.65956056235493E-17,-0.707106781186548,-0.707106781186548));
#377=DIRECTION('ref_axis',(0.,0.707106781186547,-0.707106781186547));
#378=DIRECTION('',(1.,0.,1.22464679914735E-16));
#379=DIRECTION('center_axis',(-8.65956056235493E-17,0.707106781186548,0.707106781186548));
#380=DIRECTION('ref_axis',(0.,-0.707106781186547,0.707106781186547));
#381=DIRECTION('',(-1.,0.,-1.22464679914735E-16));
#382=DIRECTION('center_axis',(8.65956056235493E-17,0.707106781186548,-0.707106781186548));
#383=DIRECTION('ref_axis',(-1.,0.,-1.22464679914735E-16));
#384=DIRECTION('center_axis',(-8.65956056235493E-17,-0.707106781186548,
0.707106781186548));
#385=DIRECTION('ref_axis',(0.,-0.707106781186547,-0.707106781186547));
#386=DIRECTION('center_axis',(8.65956056235493E-17,0.707106781186548,-0.707106781186548));
#387=DIRECTION('ref_axis',(0.,0.707106781186547,0.707106781186547));
#388=DIRECTION('',(-1.,0.,-1.22464679914735E-16));
#389=DIRECTION('center_axis',(0.,-1.,0.));
#390=DIRECTION('ref_axis',(-1.,0.,0.));
#391=DIRECTION('center_axis',(0.,-1.,0.));
#392=DIRECTION('ref_axis',(-1.,0.,0.));
#393=DIRECTION('',(0.,-1.,0.));
#394=DIRECTION('center_axis',(0.,-1.,0.));
#395=DIRECTION('ref_axis',(-1.,0.,0.));
#396=DIRECTION('center_axis',(0.,-1.,0.));
#397=DIRECTION('ref_axis',(-1.,0.,0.));
#398=DIRECTION('center_axis',(0.,-1.,0.));
#399=DIRECTION('ref_axis',(0.,0.,-1.));
#400=DIRECTION('center_axis',(0.,-1.,0.));
#401=DIRECTION('ref_axis',(1.,0.,0.));
#402=DIRECTION('center_axis',(0.,-1.,0.));
#403=DIRECTION('ref_axis',(1.,0.,0.));
#404=DIRECTION('center_axis',(0.,-1.,0.));
#405=DIRECTION('ref_axis',(1.,0.,0.));
#406=DIRECTION('center_axis',(0.,1.,0.));
#407=DIRECTION('ref_axis',(1.,0.,0.));
#408=DIRECTION('center_axis',(0.,1.,0.));
#409=DIRECTION('ref_axis',(1.,0.,0.));
#410=DIRECTION('',(-0.707106781186548,0.707106781186547,-8.65956056235494E-17));
#411=DIRECTION('center_axis',(0.,-1.,0.));
#412=DIRECTION('ref_axis',(1.,0.,0.));
#413=DIRECTION('center_axis',(0.,-1.,0.));
#414=DIRECTION('ref_axis',(1.,0.,0.));
#415=DIRECTION('',(0.,1.,0.));
#416=DIRECTION('center_axis',(0.,-1.,0.));
#417=DIRECTION('ref_axis',(1.,0.,0.));
#418=DIRECTION('center_axis',(0.,-1.,0.));
#419=DIRECTION('ref_axis',(-1.,0.,0.));
#420=DIRECTION('center_axis',(0.,1.,0.));
#421=DIRECTION('ref_axis',(1.,0.,0.));
#422=DIRECTION('center_axis',(0.,-1.,0.));
#423=DIRECTION('ref_axis',(-1.,0.,0.));
#424=DIRECTION('center_axis',(0.,1.,0.));
#425=DIRECTION('ref_axis',(1.,0.,0.));
#426=DIRECTION('center_axis',(0.,-1.,0.));
#427=DIRECTION('ref_axis',(1.,0.,0.));
#428=DIRECTION('center_axis',(0.,-1.,0.));
#429=DIRECTION('ref_axis',(1.,0.,0.));
#430=DIRECTION('center_axis',(0.,1.,0.));
#431=DIRECTION('ref_axis',(-1.,0.,0.));
#432=DIRECTION('center_axis',(0.,-1.,0.));
#433=DIRECTION('ref_axis',(-1.,0.,0.));
#434=DIRECTION('',(0.,1.,0.));
#435=DIRECTION('',(0.,1.,0.));
#436=DIRECTION('center_axis',(0.,1.,0.));
#437=DIRECTION('ref_axis',(1.,0.,1.22464679914735E-16));
#438=DIRECTION('center_axis',(0.,-1.,0.));
#439=DIRECTION('ref_axis',(-1.,0.,0.));
#440=DIRECTION('',(0.,1.,0.));
#441=DIRECTION('',(0.,1.,0.));
#442=DIRECTION('center_axis',(0.,-1.,0.));
#443=DIRECTION('ref_axis',(1.,0.,0.));
#444=DIRECTION('center_axis',(0.,1.,0.));
#445=DIRECTION('ref_axis',(1.,0.,0.));
#446=DIRECTION('center_axis',(0.,-1.,0.));
#447=DIRECTION('ref_axis',(1.,0.,0.));
#448=DIRECTION('center_axis',(0.,1.,0.));
#449=DIRECTION('ref_axis',(1.,0.,0.));
#450=DIRECTION('center_axis',(0.,1.,0.));
#451=DIRECTION('ref_axis',(1.,0.,1.22464679914735E-16));
#452=DIRECTION('center_axis',(0.,-1.,0.));
#453=DIRECTION('ref_axis',(-1.,0.,0.));
#454=DIRECTION('center_axis',(0.,1.,0.));
#455=DIRECTION('ref_axis',(-1.,0.,0.));
#456=DIRECTION('center_axis',(0.,-1.,0.));
#457=DIRECTION('ref_axis',(-1.,0.,0.));
#458=DIRECTION('center_axis',(0.,1.,0.));
#459=DIRECTION('ref_axis',(1.,0.,0.));
#460=DIRECTION('',(0.,1.,0.));
#461=DIRECTION('center_axis',(0.,1.,0.));
#462=DIRECTION('ref_axis',(1.,0.,0.));
#463=DIRECTION('',(0.,1.,0.));
#464=DIRECTION('center_axis',(0.,-1.,0.));
#465=DIRECTION('ref_axis',(0.,0.,-1.));
#466=DIRECTION('center_axis',(0.,-1.,0.));
#467=DIRECTION('ref_axis',(-1.,0.,0.));
#468=DIRECTION('center_axis',(0.,-1.,0.));
#469=DIRECTION('ref_axis',(-1.,0.,0.));
#470=DIRECTION('',(0.,-1.,0.));
#471=DIRECTION('center_axis',(0.,1.,0.));
#472=DIRECTION('ref_axis',(-1.,0.,0.));
#473=DIRECTION('center_axis',(0.,1.,0.));
#474=DIRECTION('ref_axis',(1.,0.,0.));
#475=CARTESIAN_POINT('',(0.,0.,0.));
#476=CARTESIAN_POINT('Origin',(-4.75,1.25,-0.200000000000001));
#477=CARTESIAN_POINT('',(-5.75,1.05,-7.04171909509728E-16));
#478=CARTESIAN_POINT('',(-5.73607008325387,1.45,-0.400000000000001));
#479=CARTESIAN_POINT('Origin',(0.,1.05,0.));
#480=CARTESIAN_POINT('',(-18.9957890070405,1.45,-0.400000000000002));
#481=CARTESIAN_POINT('',(4.89858719658941E-17,1.45,-0.4));
#482=CARTESIAN_POINT('',(-19.,1.05,-2.32682891837997E-15));
#483=CARTESIAN_POINT('Origin',(0.,1.05,0.));
#484=CARTESIAN_POINT('',(-4.75,1.05,-5.81707229594993E-16));
#485=CARTESIAN_POINT('Origin',(-4.75,1.25,0.199999999999999));
#486=CARTESIAN_POINT('',(-5.73607008325387,1.45,0.399999999999999));
#487=CARTESIAN_POINT('Origin',(0.,1.05,0.));
#488=CARTESIAN_POINT('',(-18.9957890070405,1.45,0.399999999999998));
#489=CARTESIAN_POINT('Origin',(0.,1.05,0.));
#490=CARTESIAN_POINT('',(-4.89858719658941E-17,1.45,0.4));
#491=CARTESIAN_POINT('Origin',(0.,0.,0.));
#492=CARTESIAN_POINT('',(5.75,1.45,7.04171909509728E-16));
#493=CARTESIAN_POINT('Origin',(0.,1.45,0.));
#494=CARTESIAN_POINT('',(5.75,-5.4,7.04171909509728E-16));
#495=CARTESIAN_POINT('',(5.75,0.,7.04171909509728E-16));
#496=CARTESIAN_POINT('Origin',(0.,-5.4,0.));
#497=CARTESIAN_POINT('Origin',(0.,1.45,0.));
#498=CARTESIAN_POINT('Origin',(0.,1.45,0.));
#499=CARTESIAN_POINT('Origin',(0.,1.45,0.));
#500=CARTESIAN_POINT('',(-2.6,1.45,-13.));
#501=CARTESIAN_POINT('Origin',(7.9602041944578E-16,1.45,-13.));
#502=CARTESIAN_POINT('',(-2.6,1.45,13.));
#503=CARTESIAN_POINT('Origin',(-6.93166518566055E-16,1.45,13.));
#504=CARTESIAN_POINT('Origin',(0.,-4.55,0.));
#505=CARTESIAN_POINT('',(-18.,-5.05,2.20436423846524E-15));
#506=CARTESIAN_POINT('Origin',(0.,-5.05,0.));
#507=CARTESIAN_POINT('',(-19.,-4.05,-2.32682891837997E-15));
#508=CARTESIAN_POINT('',(-18.5,-4.55,-2.2655965784226E-15));
#509=CARTESIAN_POINT('Origin',(0.,-4.05,0.));
#510=CARTESIAN_POINT('Origin',(0.,0.,0.));
#511=CARTESIAN_POINT('',(-19.,0.,-2.32682891837997E-15));
#512=CARTESIAN_POINT('Origin',(0.,-5.05,0.));
#513=CARTESIAN_POINT('',(3.29963643069037,-5.05,-9.79494158785508));
#514=CARTESIAN_POINT('',(3.29963643069037,-5.05,9.79494158785508));
#515=CARTESIAN_POINT('Origin',(0.,-5.05,0.));
#516=CARTESIAN_POINT('',(-3.29963643069037,-5.05,-9.79494158785508));
#517=CARTESIAN_POINT('Origin',(7.9602041944578E-16,-5.05,-13.));
#518=CARTESIAN_POINT('',(-3.29963643069037,-5.05,9.79494158785508));
#519=CARTESIAN_POINT('Origin',(0.,-5.05,0.));
#520=CARTESIAN_POINT('Origin',(-6.93166518566055E-16,-5.05,13.));
#521=CARTESIAN_POINT('',(-2.6,-5.05,-13.));
#522=CARTESIAN_POINT('Origin',(7.9602041944578E-16,-5.05,-13.));
#523=CARTESIAN_POINT('',(-2.6,-5.05,13.));
#524=CARTESIAN_POINT('Origin',(-6.93166518566055E-16,-5.05,13.));
#525=CARTESIAN_POINT('Origin',(0.,-6.55,0.));
#526=CARTESIAN_POINT('',(-3.29963643069037,-5.1357864376269,-9.79494158785508));
#527=CARTESIAN_POINT('',(-3.29963643069037,-5.1357864376269,9.79494158785508));
#528=CARTESIAN_POINT('Origin',(0.,-5.1357864376269,0.));
#529=CARTESIAN_POINT('',(-3.29963643069037,-6.55,9.79494158785508));
#530=CARTESIAN_POINT('',(-3.29963643069037,-6.55,-9.79494158785508));
#531=CARTESIAN_POINT('Origin',(0.,-6.55,0.));
#532=CARTESIAN_POINT('',(3.29963643069037,-5.1357864376269,9.79494158785508));
#533=CARTESIAN_POINT('',(3.29963643069037,-5.1357864376269,-9.79494158785508));
#534=CARTESIAN_POINT('Origin',(0.,-5.1357864376269,0.));
#535=CARTESIAN_POINT('',(3.29963643069037,-6.55,-9.79494158785508));
#536=CARTESIAN_POINT('',(3.29963643069037,-6.55,9.79494158785508));
#537=CARTESIAN_POINT('Origin',(-6.93166518566055E-16,-6.,13.));
#538=CARTESIAN_POINT('',(-0.652019017315759,-7.,8.44644411464376));
#539=CARTESIAN_POINT('Ctrl Pts',(-3.29963643069037,-5.13578643762691,9.79494158785508));
#540=CARTESIAN_POINT('Ctrl Pts',(-3.01947382041961,-5.49856376852824,9.50651166350058));
#541=CARTESIAN_POINT('Ctrl Pts',(-2.69629680712302,-5.84052079447194,9.25047170765343));
#542=CARTESIAN_POINT('Ctrl Pts',(-2.04154721115584,-6.37978257219678,8.86304628440903));
#543=CARTESIAN_POINT('Ctrl Pts',(-1.6761952425558,-6.62389655046378,8.69581288602187));
#544=CARTESIAN_POINT('Ctrl Pts',(-1.0737189319587,-6.88404272063473,8.52223983865604));
#545=CARTESIAN_POINT('Ctrl Pts',(-0.864661145396058,-6.95327619496972,8.47689212382239));
#546=CARTESIAN_POINT('Ctrl Pts',(-0.652019017315544,-6.99999999999928,8.44644411464415));
#547=CARTESIAN_POINT('',(0.652019017315758,-7.,8.44644411464376));
#548=CARTESIAN_POINT('Origin',(-6.93166518566055E-16,-7.,13.));
#549=CARTESIAN_POINT('Ctrl Pts',(0.652019017315545,-6.99999999999929,8.44644411464416));
#550=CARTESIAN_POINT('Ctrl Pts',(0.864661145396058,-6.95327619496972,8.4768921238224));
#551=CARTESIAN_POINT('Ctrl Pts',(1.0737189319587,-6.88404272063473,8.52223983865604));
#552=CARTESIAN_POINT('Ctrl Pts',(1.6761952425558,-6.62389655046378,8.69581288602187));
#553=CARTESIAN_POINT('Ctrl Pts',(2.04154721115584,-6.37978257219678,8.86304628440903));
#554=CARTESIAN_POINT('Ctrl Pts',(2.69629680712301,-5.84052079447194,9.25047170765343));
#555=CARTESIAN_POINT('Ctrl Pts',(3.01947382041961,-5.49856376852824,9.50651166350058));
#556=CARTESIAN_POINT('Ctrl Pts',(3.29963643069037,-5.1357864376269,9.79494158785508));
#557=CARTESIAN_POINT('Origin',(7.9602041944578E-16,-6.,-13.));
#558=CARTESIAN_POINT('',(0.652019017315761,-7.,-8.44644411464376));
#559=CARTESIAN_POINT('Ctrl Pts',(3.29963643069037,-5.13578643762691,-9.79494158785508));
#560=CARTESIAN_POINT('Ctrl Pts',(3.01947382041961,-5.49856376852824,-9.50651166350058));
#561=CARTESIAN_POINT('Ctrl Pts',(2.69629680712302,-5.84052079447193,-9.25047170765343));
#562=CARTESIAN_POINT('Ctrl Pts',(2.04154721115585,-6.37978257219678,-8.86304628440904));
#563=CARTESIAN_POINT('Ctrl Pts',(1.6761952425558,-6.62389655046378,-8.69581288602187));
#564=CARTESIAN_POINT('Ctrl Pts',(1.0737189319587,-6.88404272063473,-8.52223983865604));
#565=CARTESIAN_POINT('Ctrl Pts',(0.864661145396063,-6.95327619496972,-8.47689212382239));
#566=CARTESIAN_POINT('Ctrl Pts',(0.65201901731555,-6.99999999999928,-8.44644411464415));
#567=CARTESIAN_POINT('',(-0.652019017315754,-7.,-8.44644411464376));
#568=CARTESIAN_POINT('Origin',(7.9602041944578E-16,-7.,-13.));
#569=CARTESIAN_POINT('Ctrl Pts',(-0.65201901731554,-6.99999999999929,-8.44644411464415));
#570=CARTESIAN_POINT('Ctrl Pts',(-0.864661145396053,-6.95327619496973,-8.47689212382239));
#571=CARTESIAN_POINT('Ctrl Pts',(-1.07371893195869,-6.88404272063473,-8.52223983865603));
#572=CARTESIAN_POINT('Ctrl Pts',(-1.6761952425558,-6.62389655046378,-8.69581288602187));
#573=CARTESIAN_POINT('Ctrl Pts',(-2.04154721115584,-6.37978257219678,-8.86304628440903));
#574=CARTESIAN_POINT('Ctrl Pts',(-2.69629680712301,-5.84052079447194,-9.25047170765343));
#575=CARTESIAN_POINT('Ctrl Pts',(-3.01947382041961,-5.49856376852824,-9.50651166350058));
#576=CARTESIAN_POINT('Ctrl Pts',(-3.29963643069037,-5.1357864376269,-9.79494158785508));
#577=CARTESIAN_POINT('Origin',(0.,-8.6357864376269,0.));
#578=CARTESIAN_POINT('Origin',(0.,-7.,0.));
#579=CARTESIAN_POINT('Origin',(0.,-8.6357864376269,0.));
#580=CARTESIAN_POINT('Origin',(0.,-7.,0.));
#581=CARTESIAN_POINT('Origin',(-6.93166518566055E-16,-6.,13.));
#582=CARTESIAN_POINT('',(-2.6,-6.,13.));
#583=CARTESIAN_POINT('Origin',(7.9602041944578E-16,-6.,-13.));
#584=CARTESIAN_POINT('',(-2.6,-6.,-13.));
#585=CARTESIAN_POINT('Origin',(0.,-5.4,0.));
#586=CARTESIAN_POINT('',(4.125,-5.4,5.05166804648283E-16));
#587=CARTESIAN_POINT('Origin',(0.,-5.4,0.));
#588=CARTESIAN_POINT('Origin',(0.,-5.,0.));
#589=CARTESIAN_POINT('',(4.125,-7.,-5.05166804648283E-16));
#590=CARTESIAN_POINT('',(4.125,-5.,5.05166804648283E-16));
#591=CARTESIAN_POINT('Origin',(0.,-7.,0.));
#592=CARTESIAN_POINT('Origin',(0.,-7.,0.));
#593=UNCERTAINTY_MEASURE_WITH_UNIT(LENGTH_MEASURE(0.01),#597,
'DISTANCE_ACCURACY_VALUE',
'Maximum model space distance between geometric entities at asserted c
onnectivities');
#594=UNCERTAINTY_MEASURE_WITH_UNIT(LENGTH_MEASURE(0.01),#597,
'DISTANCE_ACCURACY_VALUE',
'Maximum model space distance between geometric entities at asserted c
onnectivities');
#595=(
GEOMETRIC_REPRESENTATION_CONTEXT(3)
GLOBAL_UNCERTAINTY_ASSIGNED_CONTEXT((#593))
GLOBAL_UNIT_ASSIGNED_CONTEXT((#597,#599,#600))
REPRESENTATION_CONTEXT('','3D')
);
#596=(
GEOMETRIC_REPRESENTATION_CONTEXT(3)
GLOBAL_UNCERTAINTY_ASSIGNED_CONTEXT((#594))
GLOBAL_UNIT_ASSIGNED_CONTEXT((#597,#599,#600))
REPRESENTATION_CONTEXT('','3D')
);
#597=(
LENGTH_UNIT()
NAMED_UNIT(*)
SI_UNIT(.MILLI.,.METRE.)
);
#598=(
LENGTH_UNIT()
NAMED_UNIT(*)
SI_UNIT($,.METRE.)
);
#599=(
NAMED_UNIT(*)
PLANE_ANGLE_UNIT()
SI_UNIT($,.RADIAN.)
);
#600=(
NAMED_UNIT(*)
SI_UNIT($,.STERADIAN.)
SOLID_ANGLE_UNIT()
);
#601=SHAPE_DEFINITION_REPRESENTATION(#602,#603);
#602=PRODUCT_DEFINITION_SHAPE('',$,#605);
#603=SHAPE_REPRESENTATION('',(#327),#595);
#604=PRODUCT_DEFINITION_CONTEXT('part definition',#609,'design');
#605=PRODUCT_DEFINITION('2026-08-29-11-09-43-691','(Unsaved)',#606,#604);
#606=PRODUCT_DEFINITION_FORMATION('',$,#611);
#607=PRODUCT_RELATED_PRODUCT_CATEGORY('(Unsaved)','(Unsaved)',(#611));
#608=APPLICATION_PROTOCOL_DEFINITION('international standard',
'automotive_design',2009,#609);
#609=APPLICATION_CONTEXT(
'Core Data for Automotive Mechanical Design Process');
#610=PRODUCT_CONTEXT('part definition',#609,'mechanical');
#611=PRODUCT('2026-08-29-11-09-43-691','(Unsaved)',$,(#610));
#612=PRESENTATION_STYLE_ASSIGNMENT((#613));
#613=SURFACE_STYLE_USAGE(.BOTH.,#614);
#614=SURFACE_SIDE_STYLE('',(#615));
#615=SURFACE_STYLE_FILL_AREA(#616);
#616=FILL_AREA_STYLE('Steel - Satin',(#617));
#617=FILL_AREA_STYLE_COLOUR('Steel - Satin',#618);
#618=COLOUR_RGB('Steel - Satin',0.627450980392157,0.627450980392157,0.627450980392157);
ENDSEC;
END-ISO-10303-21;
