ISO-10303-21;
HEADER;
/* Generated by software containing ST-Developer
 * from STEP Tools, Inc. (www.steptools.com) 
 */

FILE_DESCRIPTION(
/* description */ (''),
/* implementation_level */ '2;1');

FILE_NAME(
/* name */ 'freestanding-base-outer-shell-lid_v1.1.otl-export-tmp.step',

/* time_stamp */ '2026-09-16T14:33:07-05:00',
/* author */ (''),
/* organization */ (''),
/* preprocessor_version */ 'ST-DEVELOPER v20.2',
/* originating_system */ 'Autodesk Translation Framework v15.15.0.0',
/* authorisation */ '');

FILE_SCHEMA (('AUTOMOTIVE_DESIGN { 1 0 10303 214 3 1 1 }'));
ENDSEC;

DATA;
#10=MECHANICAL_DESIGN_GEOMETRIC_PRESENTATION_REPRESENTATION('',(#13),#1071);
#11=SHAPE_REPRESENTATION_RELATIONSHIP('SRR','None',#1078,#12);
#12=ADVANCED_BREP_SHAPE_REPRESENTATION('',(#14),#1070);
#13=STYLED_ITEM('',(#1087),#14);
#14=MANIFOLD_SOLID_BREP('Body1',#623);
#15=FACE_BOUND('',#128,.T.);
#16=FACE_BOUND('',#136,.T.);
#17=FACE_BOUND('',#138,.T.);
#18=ELLIPSE('',#648,1.4142135623731,1.);
#19=ELLIPSE('',#651,1.4142135623731,1.);
#20=ELLIPSE('',#664,1.41421356237309,1.);
#21=ELLIPSE('',#667,1.41421356237309,1.);
#22=CYLINDRICAL_SURFACE('',#647,1.);
#23=CYLINDRICAL_SURFACE('',#650,1.);
#24=CYLINDRICAL_SURFACE('',#663,1.);
#25=CYLINDRICAL_SURFACE('',#666,1.);
#26=CYLINDRICAL_SURFACE('',#675,2.54999999999999);
#27=CYLINDRICAL_SURFACE('',#678,4.6);
#28=CYLINDRICAL_SURFACE('',#682,2.85000000000002);
#29=CYLINDRICAL_SURFACE('',#685,81.3500000000003);
#30=CYLINDRICAL_SURFACE('',#688,2.84999999999997);
#31=CYLINDRICAL_SURFACE('',#691,2.85);
#32=CYLINDRICAL_SURFACE('',#694,63.65);
#33=CYLINDRICAL_SURFACE('',#697,2.85000000000001);
#34=CIRCLE('',#639,1.);
#35=CIRCLE('',#640,0.400000000000002);
#36=CIRCLE('',#643,1.);
#37=CIRCLE('',#644,0.400000000000002);
#38=CIRCLE('',#655,1.);
#39=CIRCLE('',#656,0.400000000000003);
#40=CIRCLE('',#659,1.);
#41=CIRCLE('',#660,0.400000000000003);
#42=CIRCLE('',#676,2.54999999999999);
#43=CIRCLE('',#677,2.54999999999999);
#44=CIRCLE('',#679,4.6);
#45=CIRCLE('',#680,4.6);
#46=CIRCLE('',#683,2.85000000000002);
#47=CIRCLE('',#684,2.85000000000002);
#48=CIRCLE('',#686,81.3500000000003);
#49=CIRCLE('',#687,81.3500000000003);
#50=CIRCLE('',#689,2.84999999999997);
#51=CIRCLE('',#690,2.84999999999997);
#52=CIRCLE('',#692,2.85);
#53=CIRCLE('',#693,2.85);
#54=CIRCLE('',#695,63.65);
#55=CIRCLE('',#696,63.65);
#56=CIRCLE('',#698,2.85000000000001);
#57=CIRCLE('',#699,2.85000000000001);
#58=CONICAL_SURFACE('',#638,0.700000000000001,0.785398163397446);
#59=CONICAL_SURFACE('',#642,0.700000000000001,0.785398163397446);
#60=CONICAL_SURFACE('',#654,0.700000000000002,0.785398163397446);
#61=CONICAL_SURFACE('',#658,0.700000000000002,0.785398163397446);
#62=FACE_OUTER_BOUND('',#99,.T.);
#63=FACE_OUTER_BOUND('',#100,.T.);
#64=FACE_OUTER_BOUND('',#101,.T.);
#65=FACE_OUTER_BOUND('',#102,.T.);
#66=FACE_OUTER_BOUND('',#103,.T.);
#67=FACE_OUTER_BOUND('',#104,.T.);
#68=FACE_OUTER_BOUND('',#105,.T.);
#69=FACE_OUTER_BOUND('',#106,.T.);
#70=FACE_OUTER_BOUND('',#107,.T.);
#71=FACE_OUTER_BOUND('',#108,.T.);
#72=FACE_OUTER_BOUND('',#109,.T.);
#73=FACE_OUTER_BOUND('',#110,.T.);
#74=FACE_OUTER_BOUND('',#111,.T.);
#75=FACE_OUTER_BOUND('',#112,.T.);
#76=FACE_OUTER_BOUND('',#113,.T.);
#77=FACE_OUTER_BOUND('',#114,.T.);
#78=FACE_OUTER_BOUND('',#115,.T.);
#79=FACE_OUTER_BOUND('',#116,.T.);
#80=FACE_OUTER_BOUND('',#117,.T.);
#81=FACE_OUTER_BOUND('',#118,.T.);
#82=FACE_OUTER_BOUND('',#119,.T.);
#83=FACE_OUTER_BOUND('',#120,.T.);
#84=FACE_OUTER_BOUND('',#121,.T.);
#85=FACE_OUTER_BOUND('',#122,.T.);
#86=FACE_OUTER_BOUND('',#123,.T.);
#87=FACE_OUTER_BOUND('',#124,.T.);
#88=FACE_OUTER_BOUND('',#125,.T.);
#89=FACE_OUTER_BOUND('',#126,.T.);
#90=FACE_OUTER_BOUND('',#127,.T.);
#91=FACE_OUTER_BOUND('',#129,.T.);
#92=FACE_OUTER_BOUND('',#130,.T.);
#93=FACE_OUTER_BOUND('',#131,.T.);
#94=FACE_OUTER_BOUND('',#132,.T.);
#95=FACE_OUTER_BOUND('',#133,.T.);
#96=FACE_OUTER_BOUND('',#134,.T.);
#97=FACE_OUTER_BOUND('',#135,.T.);
#98=FACE_OUTER_BOUND('',#137,.T.);
#99=EDGE_LOOP('',(#393,#394,#395,#396));
#100=EDGE_LOOP('',(#397,#398,#399,#400));
#101=EDGE_LOOP('',(#401,#402,#403,#404));
#102=EDGE_LOOP('',(#405,#406,#407,#408));
#103=EDGE_LOOP('',(#409,#410,#411,#412));
#104=EDGE_LOOP('',(#413,#414,#415,#416));
#105=EDGE_LOOP('',(#417,#418,#419,#420));
#106=EDGE_LOOP('',(#421,#422,#423,#424));
#107=EDGE_LOOP('',(#425,#426,#427,#428));
#108=EDGE_LOOP('',(#429,#430,#431,#432));
#109=EDGE_LOOP('',(#433,#434,#435,#436));
#110=EDGE_LOOP('',(#437,#438,#439,#440));
#111=EDGE_LOOP('',(#441,#442,#443,#444));
#112=EDGE_LOOP('',(#445,#446,#447,#448));
#113=EDGE_LOOP('',(#449,#450,#451,#452));
#114=EDGE_LOOP('',(#453,#454,#455,#456));
#115=EDGE_LOOP('',(#457,#458,#459,#460));
#116=EDGE_LOOP('',(#461,#462,#463,#464));
#117=EDGE_LOOP('',(#465,#466,#467,#468));
#118=EDGE_LOOP('',(#469,#470,#471,#472));
#119=EDGE_LOOP('',(#473,#474,#475,#476));
#120=EDGE_LOOP('',(#477,#478,#479,#480));
#121=EDGE_LOOP('',(#481,#482,#483,#484,#485,#486));
#122=EDGE_LOOP('',(#487,#488,#489,#490,#491,#492));
#123=EDGE_LOOP('',(#493,#494,#495,#496,#497,#498));
#124=EDGE_LOOP('',(#499,#500,#501,#502,#503,#504));
#125=EDGE_LOOP('',(#505,#506,#507,#508));
#126=EDGE_LOOP('',(#509,#510,#511,#512));
#127=EDGE_LOOP('',(#513));
#128=EDGE_LOOP('',(#514));
#129=EDGE_LOOP('',(#515,#516,#517,#518,#519));
#130=EDGE_LOOP('',(#520,#521,#522,#523));
#131=EDGE_LOOP('',(#524,#525,#526,#527,#528));
#132=EDGE_LOOP('',(#529,#530,#531,#532,#533));
#133=EDGE_LOOP('',(#534,#535,#536,#537));
#134=EDGE_LOOP('',(#538,#539,#540,#541,#542));
#135=EDGE_LOOP('',(#543,#544,#545,#546,#547,#548,#549,#550));
#136=EDGE_LOOP('',(#551));
#137=EDGE_LOOP('',(#552,#553,#554,#555,#556,#557,#558,#559,#560,#561,#562,
#563));
#138=EDGE_LOOP('',(#564));
#139=LINE('',#896,#197);
#140=LINE('',#898,#198);
#141=LINE('',#900,#199);
#142=LINE('',#901,#200);
#143=LINE('',#906,#201);
#144=LINE('',#911,#202);
#145=LINE('',#912,#203);
#146=LINE('',#913,#204);
#147=LINE('',#918,#205);
#148=LINE('',#923,#206);
#149=LINE('',#924,#207);
#150=LINE('',#925,#208);
#151=LINE('',#928,#209);
#152=LINE('',#930,#210);
#153=LINE('',#931,#211);
#154=LINE('',#934,#212);
#155=LINE('',#938,#213);
#156=LINE('',#939,#214);
#157=LINE('',#942,#215);
#158=LINE('',#946,#216);
#159=LINE('',#947,#217);
#160=LINE('',#951,#218);
#161=LINE('',#953,#219);
#162=LINE('',#955,#220);
#163=LINE('',#956,#221);
#164=LINE('',#961,#222);
#165=LINE('',#966,#223);
#166=LINE('',#967,#224);
#167=LINE('',#968,#225);
#168=LINE('',#973,#226);
#169=LINE('',#978,#227);
#170=LINE('',#979,#228);
#171=LINE('',#980,#229);
#172=LINE('',#983,#230);
#173=LINE('',#985,#231);
#174=LINE('',#986,#232);
#175=LINE('',#989,#233);
#176=LINE('',#993,#234);
#177=LINE('',#994,#235);
#178=LINE('',#997,#236);
#179=LINE('',#1001,#237);
#180=LINE('',#1002,#238);
#181=LINE('',#1004,#239);
#182=LINE('',#1006,#240);
#183=LINE('',#1008,#241);
#184=LINE('',#1011,#242);
#185=LINE('',#1013,#243);
#186=LINE('',#1014,#244);
#187=LINE('',#1016,#245);
#188=LINE('',#1019,#246);
#189=LINE('',#1021,#247);
#190=LINE('',#1022,#248);
#191=LINE('',#1027,#249);
#192=LINE('',#1033,#250);
#193=LINE('',#1041,#251);
#194=LINE('',#1047,#252);
#195=LINE('',#1056,#253);
#196=LINE('',#1062,#254);
#197=VECTOR('',#706,10.);
#198=VECTOR('',#707,10.);
#199=VECTOR('',#708,10.);
#200=VECTOR('',#709,10.);
#201=VECTOR('',#714,10.);
#202=VECTOR('',#719,10.);
#203=VECTOR('',#720,10.);
#204=VECTOR('',#721,10.);
#205=VECTOR('',#726,10.);
#206=VECTOR('',#731,10.);
#207=VECTOR('',#732,10.);
#208=VECTOR('',#733,10.);
#209=VECTOR('',#736,10.);
#210=VECTOR('',#737,10.);
#211=VECTOR('',#738,10.);
#212=VECTOR('',#741,10.);
#213=VECTOR('',#746,10.);
#214=VECTOR('',#747,10.);
#215=VECTOR('',#750,10.);
#216=VECTOR('',#755,10.);
#217=VECTOR('',#756,10.);
#218=VECTOR('',#759,10.);
#219=VECTOR('',#760,10.);
#220=VECTOR('',#761,10.);
#221=VECTOR('',#762,10.);
#222=VECTOR('',#767,10.);
#223=VECTOR('',#772,10.);
#224=VECTOR('',#773,10.);
#225=VECTOR('',#774,10.);
#226=VECTOR('',#779,10.);
#227=VECTOR('',#784,10.);
#228=VECTOR('',#785,10.);
#229=VECTOR('',#786,10.);
#230=VECTOR('',#789,10.);
#231=VECTOR('',#790,10.);
#232=VECTOR('',#791,10.);
#233=VECTOR('',#794,10.);
#234=VECTOR('',#799,10.);
#235=VECTOR('',#800,10.);
#236=VECTOR('',#803,10.);
#237=VECTOR('',#808,10.);
#238=VECTOR('',#809,10.);
#239=VECTOR('',#812,10.);
#240=VECTOR('',#815,10.);
#241=VECTOR('',#818,10.);
#242=VECTOR('',#821,10.);
#243=VECTOR('',#822,10.);
#244=VECTOR('',#823,10.);
#245=VECTOR('',#826,10.);
#246=VECTOR('',#829,10.);
#247=VECTOR('',#830,10.);
#248=VECTOR('',#831,10.);
#249=VECTOR('',#836,2.54999999999999);
#250=VECTOR('',#843,4.6);
#251=VECTOR('',#854,10.);
#252=VECTOR('',#861,10.);
#253=VECTOR('',#874,10.);
#254=VECTOR('',#881,10.);
#255=VERTEX_POINT('',#894);
#256=VERTEX_POINT('',#895);
#257=VERTEX_POINT('',#897);
#258=VERTEX_POINT('',#899);
#259=VERTEX_POINT('',#903);
#260=VERTEX_POINT('',#905);
#261=VERTEX_POINT('',#909);
#262=VERTEX_POINT('',#910);
#263=VERTEX_POINT('',#915);
#264=VERTEX_POINT('',#917);
#265=VERTEX_POINT('',#921);
#266=VERTEX_POINT('',#922);
#267=VERTEX_POINT('',#927);
#268=VERTEX_POINT('',#929);
#269=VERTEX_POINT('',#933);
#270=VERTEX_POINT('',#937);
#271=VERTEX_POINT('',#941);
#272=VERTEX_POINT('',#945);
#273=VERTEX_POINT('',#949);
#274=VERTEX_POINT('',#950);
#275=VERTEX_POINT('',#952);
#276=VERTEX_POINT('',#954);
#277=VERTEX_POINT('',#958);
#278=VERTEX_POINT('',#960);
#279=VERTEX_POINT('',#964);
#280=VERTEX_POINT('',#965);
#281=VERTEX_POINT('',#970);
#282=VERTEX_POINT('',#972);
#283=VERTEX_POINT('',#976);
#284=VERTEX_POINT('',#977);
#285=VERTEX_POINT('',#982);
#286=VERTEX_POINT('',#984);
#287=VERTEX_POINT('',#988);
#288=VERTEX_POINT('',#992);
#289=VERTEX_POINT('',#996);
#290=VERTEX_POINT('',#1000);
#291=VERTEX_POINT('',#1010);
#292=VERTEX_POINT('',#1012);
#293=VERTEX_POINT('',#1018);
#294=VERTEX_POINT('',#1020);
#295=VERTEX_POINT('',#1024);
#296=VERTEX_POINT('',#1026);
#297=VERTEX_POINT('',#1030);
#298=VERTEX_POINT('',#1032);
#299=VERTEX_POINT('',#1037);
#300=VERTEX_POINT('',#1039);
#301=VERTEX_POINT('',#1043);
#302=VERTEX_POINT('',#1045);
#303=VERTEX_POINT('',#1052);
#304=VERTEX_POINT('',#1054);
#305=VERTEX_POINT('',#1058);
#306=VERTEX_POINT('',#1060);
#307=EDGE_CURVE('',#255,#256,#139,.T.);
#308=EDGE_CURVE('',#255,#257,#140,.T.);
#309=EDGE_CURVE('',#257,#258,#141,.T.);
#310=EDGE_CURVE('',#258,#256,#142,.T.);
#311=EDGE_CURVE('',#257,#259,#34,.T.);
#312=EDGE_CURVE('',#259,#260,#143,.T.);
#313=EDGE_CURVE('',#260,#258,#35,.T.);
#314=EDGE_CURVE('',#261,#262,#144,.T.);
#315=EDGE_CURVE('',#262,#260,#145,.T.);
#316=EDGE_CURVE('',#259,#261,#146,.T.);
#317=EDGE_CURVE('',#261,#263,#36,.T.);
#318=EDGE_CURVE('',#263,#264,#147,.T.);
#319=EDGE_CURVE('',#264,#262,#37,.T.);
#320=EDGE_CURVE('',#265,#266,#148,.F.);
#321=EDGE_CURVE('',#266,#264,#149,.T.);
#322=EDGE_CURVE('',#263,#265,#150,.T.);
#323=EDGE_CURVE('',#267,#263,#151,.T.);
#324=EDGE_CURVE('',#267,#268,#152,.T.);
#325=EDGE_CURVE('',#265,#268,#153,.T.);
#326=EDGE_CURVE('',#261,#269,#154,.T.);
#327=EDGE_CURVE('',#269,#267,#18,.T.);
#328=EDGE_CURVE('',#270,#259,#155,.T.);
#329=EDGE_CURVE('',#269,#270,#156,.T.);
#330=EDGE_CURVE('',#257,#271,#157,.T.);
#331=EDGE_CURVE('',#271,#270,#19,.T.);
#332=EDGE_CURVE('',#255,#272,#158,.T.);
#333=EDGE_CURVE('',#272,#271,#159,.T.);
#334=EDGE_CURVE('',#273,#274,#160,.F.);
#335=EDGE_CURVE('',#274,#275,#161,.T.);
#336=EDGE_CURVE('',#275,#276,#162,.T.);
#337=EDGE_CURVE('',#276,#273,#163,.T.);
#338=EDGE_CURVE('',#275,#277,#38,.T.);
#339=EDGE_CURVE('',#277,#278,#164,.T.);
#340=EDGE_CURVE('',#278,#276,#39,.T.);
#341=EDGE_CURVE('',#279,#280,#165,.T.);
#342=EDGE_CURVE('',#280,#278,#166,.T.);
#343=EDGE_CURVE('',#277,#279,#167,.T.);
#344=EDGE_CURVE('',#279,#281,#40,.T.);
#345=EDGE_CURVE('',#281,#282,#168,.T.);
#346=EDGE_CURVE('',#282,#280,#41,.T.);
#347=EDGE_CURVE('',#283,#284,#169,.F.);
#348=EDGE_CURVE('',#284,#282,#170,.T.);
#349=EDGE_CURVE('',#281,#283,#171,.T.);
#350=EDGE_CURVE('',#285,#281,#172,.T.);
#351=EDGE_CURVE('',#285,#286,#173,.T.);
#352=EDGE_CURVE('',#283,#286,#174,.T.);
#353=EDGE_CURVE('',#279,#287,#175,.T.);
#354=EDGE_CURVE('',#287,#285,#20,.T.);
#355=EDGE_CURVE('',#288,#277,#176,.T.);
#356=EDGE_CURVE('',#287,#288,#177,.T.);
#357=EDGE_CURVE('',#275,#289,#178,.T.);
#358=EDGE_CURVE('',#289,#288,#21,.T.);
#359=EDGE_CURVE('',#274,#290,#179,.T.);
#360=EDGE_CURVE('',#290,#289,#180,.T.);
#361=EDGE_CURVE('',#271,#267,#181,.T.);
#362=EDGE_CURVE('',#289,#285,#182,.T.);
#363=EDGE_CURVE('',#256,#266,#183,.T.);
#364=EDGE_CURVE('',#291,#265,#184,.T.);
#365=EDGE_CURVE('',#291,#292,#185,.F.);
#366=EDGE_CURVE('',#292,#255,#186,.T.);
#367=EDGE_CURVE('',#273,#284,#187,.T.);
#368=EDGE_CURVE('',#293,#283,#188,.T.);
#369=EDGE_CURVE('',#294,#293,#189,.T.);
#370=EDGE_CURVE('',#294,#274,#190,.T.);
#371=EDGE_CURVE('',#295,#295,#42,.T.);
#372=EDGE_CURVE('',#295,#296,#191,.T.);
#373=EDGE_CURVE('',#296,#296,#43,.T.);
#374=EDGE_CURVE('',#297,#297,#44,.F.);
#375=EDGE_CURVE('',#297,#298,#192,.T.);
#376=EDGE_CURVE('',#298,#298,#45,.T.);
#377=EDGE_CURVE('',#293,#299,#46,.T.);
#378=EDGE_CURVE('',#300,#286,#47,.T.);
#379=EDGE_CURVE('',#299,#300,#193,.T.);
#380=EDGE_CURVE('',#299,#301,#48,.T.);
#381=EDGE_CURVE('',#302,#300,#49,.T.);
#382=EDGE_CURVE('',#301,#302,#194,.T.);
#383=EDGE_CURVE('',#301,#292,#50,.T.);
#384=EDGE_CURVE('',#272,#302,#51,.T.);
#385=EDGE_CURVE('',#291,#303,#52,.T.);
#386=EDGE_CURVE('',#304,#268,#53,.T.);
#387=EDGE_CURVE('',#303,#304,#195,.T.);
#388=EDGE_CURVE('',#305,#303,#54,.F.);
#389=EDGE_CURVE('',#306,#304,#55,.T.);
#390=EDGE_CURVE('',#305,#306,#196,.T.);
#391=EDGE_CURVE('',#305,#294,#56,.T.);
#392=EDGE_CURVE('',#290,#306,#57,.T.);
#393=ORIENTED_EDGE('',*,*,#307,.F.);
#394=ORIENTED_EDGE('',*,*,#308,.T.);
#395=ORIENTED_EDGE('',*,*,#309,.T.);
#396=ORIENTED_EDGE('',*,*,#310,.T.);
#397=ORIENTED_EDGE('',*,*,#309,.F.);
#398=ORIENTED_EDGE('',*,*,#311,.T.);
#399=ORIENTED_EDGE('',*,*,#312,.T.);
#400=ORIENTED_EDGE('',*,*,#313,.T.);
#401=ORIENTED_EDGE('',*,*,#314,.T.);
#402=ORIENTED_EDGE('',*,*,#315,.T.);
#403=ORIENTED_EDGE('',*,*,#312,.F.);
#404=ORIENTED_EDGE('',*,*,#316,.T.);
#405=ORIENTED_EDGE('',*,*,#314,.F.);
#406=ORIENTED_EDGE('',*,*,#317,.T.);
#407=ORIENTED_EDGE('',*,*,#318,.T.);
#408=ORIENTED_EDGE('',*,*,#319,.T.);
#409=ORIENTED_EDGE('',*,*,#320,.T.);
#410=ORIENTED_EDGE('',*,*,#321,.T.);
#411=ORIENTED_EDGE('',*,*,#318,.F.);
#412=ORIENTED_EDGE('',*,*,#322,.T.);
#413=ORIENTED_EDGE('',*,*,#322,.F.);
#414=ORIENTED_EDGE('',*,*,#323,.F.);
#415=ORIENTED_EDGE('',*,*,#324,.T.);
#416=ORIENTED_EDGE('',*,*,#325,.F.);
#417=ORIENTED_EDGE('',*,*,#317,.F.);
#418=ORIENTED_EDGE('',*,*,#326,.T.);
#419=ORIENTED_EDGE('',*,*,#327,.T.);
#420=ORIENTED_EDGE('',*,*,#323,.T.);
#421=ORIENTED_EDGE('',*,*,#316,.F.);
#422=ORIENTED_EDGE('',*,*,#328,.F.);
#423=ORIENTED_EDGE('',*,*,#329,.F.);
#424=ORIENTED_EDGE('',*,*,#326,.F.);
#425=ORIENTED_EDGE('',*,*,#311,.F.);
#426=ORIENTED_EDGE('',*,*,#330,.T.);
#427=ORIENTED_EDGE('',*,*,#331,.T.);
#428=ORIENTED_EDGE('',*,*,#328,.T.);
#429=ORIENTED_EDGE('',*,*,#308,.F.);
#430=ORIENTED_EDGE('',*,*,#332,.T.);
#431=ORIENTED_EDGE('',*,*,#333,.T.);
#432=ORIENTED_EDGE('',*,*,#330,.F.);
#433=ORIENTED_EDGE('',*,*,#334,.T.);
#434=ORIENTED_EDGE('',*,*,#335,.T.);
#435=ORIENTED_EDGE('',*,*,#336,.T.);
#436=ORIENTED_EDGE('',*,*,#337,.T.);
#437=ORIENTED_EDGE('',*,*,#336,.F.);
#438=ORIENTED_EDGE('',*,*,#338,.T.);
#439=ORIENTED_EDGE('',*,*,#339,.T.);
#440=ORIENTED_EDGE('',*,*,#340,.T.);
#441=ORIENTED_EDGE('',*,*,#341,.T.);
#442=ORIENTED_EDGE('',*,*,#342,.T.);
#443=ORIENTED_EDGE('',*,*,#339,.F.);
#444=ORIENTED_EDGE('',*,*,#343,.T.);
#445=ORIENTED_EDGE('',*,*,#341,.F.);
#446=ORIENTED_EDGE('',*,*,#344,.T.);
#447=ORIENTED_EDGE('',*,*,#345,.T.);
#448=ORIENTED_EDGE('',*,*,#346,.T.);
#449=ORIENTED_EDGE('',*,*,#347,.T.);
#450=ORIENTED_EDGE('',*,*,#348,.T.);
#451=ORIENTED_EDGE('',*,*,#345,.F.);
#452=ORIENTED_EDGE('',*,*,#349,.T.);
#453=ORIENTED_EDGE('',*,*,#349,.F.);
#454=ORIENTED_EDGE('',*,*,#350,.F.);
#455=ORIENTED_EDGE('',*,*,#351,.T.);
#456=ORIENTED_EDGE('',*,*,#352,.F.);
#457=ORIENTED_EDGE('',*,*,#344,.F.);
#458=ORIENTED_EDGE('',*,*,#353,.T.);
#459=ORIENTED_EDGE('',*,*,#354,.T.);
#460=ORIENTED_EDGE('',*,*,#350,.T.);
#461=ORIENTED_EDGE('',*,*,#343,.F.);
#462=ORIENTED_EDGE('',*,*,#355,.F.);
#463=ORIENTED_EDGE('',*,*,#356,.F.);
#464=ORIENTED_EDGE('',*,*,#353,.F.);
#465=ORIENTED_EDGE('',*,*,#338,.F.);
#466=ORIENTED_EDGE('',*,*,#357,.T.);
#467=ORIENTED_EDGE('',*,*,#358,.T.);
#468=ORIENTED_EDGE('',*,*,#355,.T.);
#469=ORIENTED_EDGE('',*,*,#335,.F.);
#470=ORIENTED_EDGE('',*,*,#359,.T.);
#471=ORIENTED_EDGE('',*,*,#360,.T.);
#472=ORIENTED_EDGE('',*,*,#357,.F.);
#473=ORIENTED_EDGE('',*,*,#327,.F.);
#474=ORIENTED_EDGE('',*,*,#329,.T.);
#475=ORIENTED_EDGE('',*,*,#331,.F.);
#476=ORIENTED_EDGE('',*,*,#361,.T.);
#477=ORIENTED_EDGE('',*,*,#358,.F.);
#478=ORIENTED_EDGE('',*,*,#362,.T.);
#479=ORIENTED_EDGE('',*,*,#354,.F.);
#480=ORIENTED_EDGE('',*,*,#356,.T.);
#481=ORIENTED_EDGE('',*,*,#321,.F.);
#482=ORIENTED_EDGE('',*,*,#363,.F.);
#483=ORIENTED_EDGE('',*,*,#310,.F.);
#484=ORIENTED_EDGE('',*,*,#313,.F.);
#485=ORIENTED_EDGE('',*,*,#315,.F.);
#486=ORIENTED_EDGE('',*,*,#319,.F.);
#487=ORIENTED_EDGE('',*,*,#363,.T.);
#488=ORIENTED_EDGE('',*,*,#320,.F.);
#489=ORIENTED_EDGE('',*,*,#364,.F.);
#490=ORIENTED_EDGE('',*,*,#365,.T.);
#491=ORIENTED_EDGE('',*,*,#366,.T.);
#492=ORIENTED_EDGE('',*,*,#307,.T.);
#493=ORIENTED_EDGE('',*,*,#348,.F.);
#494=ORIENTED_EDGE('',*,*,#367,.F.);
#495=ORIENTED_EDGE('',*,*,#337,.F.);
#496=ORIENTED_EDGE('',*,*,#340,.F.);
#497=ORIENTED_EDGE('',*,*,#342,.F.);
#498=ORIENTED_EDGE('',*,*,#346,.F.);
#499=ORIENTED_EDGE('',*,*,#367,.T.);
#500=ORIENTED_EDGE('',*,*,#347,.F.);
#501=ORIENTED_EDGE('',*,*,#368,.F.);
#502=ORIENTED_EDGE('',*,*,#369,.F.);
#503=ORIENTED_EDGE('',*,*,#370,.T.);
#504=ORIENTED_EDGE('',*,*,#334,.F.);
#505=ORIENTED_EDGE('',*,*,#371,.F.);
#506=ORIENTED_EDGE('',*,*,#372,.T.);
#507=ORIENTED_EDGE('',*,*,#373,.F.);
#508=ORIENTED_EDGE('',*,*,#372,.F.);
#509=ORIENTED_EDGE('',*,*,#374,.F.);
#510=ORIENTED_EDGE('',*,*,#375,.T.);
#511=ORIENTED_EDGE('',*,*,#376,.T.);
#512=ORIENTED_EDGE('',*,*,#375,.F.);
#513=ORIENTED_EDGE('',*,*,#376,.F.);
#514=ORIENTED_EDGE('',*,*,#371,.T.);
#515=ORIENTED_EDGE('',*,*,#377,.F.);
#516=ORIENTED_EDGE('',*,*,#368,.T.);
#517=ORIENTED_EDGE('',*,*,#352,.T.);
#518=ORIENTED_EDGE('',*,*,#378,.F.);
#519=ORIENTED_EDGE('',*,*,#379,.F.);
#520=ORIENTED_EDGE('',*,*,#380,.F.);
#521=ORIENTED_EDGE('',*,*,#379,.T.);
#522=ORIENTED_EDGE('',*,*,#381,.F.);
#523=ORIENTED_EDGE('',*,*,#382,.F.);
#524=ORIENTED_EDGE('',*,*,#383,.F.);
#525=ORIENTED_EDGE('',*,*,#382,.T.);
#526=ORIENTED_EDGE('',*,*,#384,.F.);
#527=ORIENTED_EDGE('',*,*,#332,.F.);
#528=ORIENTED_EDGE('',*,*,#366,.F.);
#529=ORIENTED_EDGE('',*,*,#385,.F.);
#530=ORIENTED_EDGE('',*,*,#364,.T.);
#531=ORIENTED_EDGE('',*,*,#325,.T.);
#532=ORIENTED_EDGE('',*,*,#386,.F.);
#533=ORIENTED_EDGE('',*,*,#387,.F.);
#534=ORIENTED_EDGE('',*,*,#388,.T.);
#535=ORIENTED_EDGE('',*,*,#387,.T.);
#536=ORIENTED_EDGE('',*,*,#389,.F.);
#537=ORIENTED_EDGE('',*,*,#390,.F.);
#538=ORIENTED_EDGE('',*,*,#391,.F.);
#539=ORIENTED_EDGE('',*,*,#390,.T.);
#540=ORIENTED_EDGE('',*,*,#392,.F.);
#541=ORIENTED_EDGE('',*,*,#359,.F.);
#542=ORIENTED_EDGE('',*,*,#370,.F.);
#543=ORIENTED_EDGE('',*,*,#391,.T.);
#544=ORIENTED_EDGE('',*,*,#369,.T.);
#545=ORIENTED_EDGE('',*,*,#377,.T.);
#546=ORIENTED_EDGE('',*,*,#380,.T.);
#547=ORIENTED_EDGE('',*,*,#383,.T.);
#548=ORIENTED_EDGE('',*,*,#365,.F.);
#549=ORIENTED_EDGE('',*,*,#385,.T.);
#550=ORIENTED_EDGE('',*,*,#388,.F.);
#551=ORIENTED_EDGE('',*,*,#374,.T.);
#552=ORIENTED_EDGE('',*,*,#361,.F.);
#553=ORIENTED_EDGE('',*,*,#333,.F.);
#554=ORIENTED_EDGE('',*,*,#384,.T.);
#555=ORIENTED_EDGE('',*,*,#381,.T.);
#556=ORIENTED_EDGE('',*,*,#378,.T.);
#557=ORIENTED_EDGE('',*,*,#351,.F.);
#558=ORIENTED_EDGE('',*,*,#362,.F.);
#559=ORIENTED_EDGE('',*,*,#360,.F.);
#560=ORIENTED_EDGE('',*,*,#392,.T.);
#561=ORIENTED_EDGE('',*,*,#389,.T.);
#562=ORIENTED_EDGE('',*,*,#386,.T.);
#563=ORIENTED_EDGE('',*,*,#324,.F.);
#564=ORIENTED_EDGE('',*,*,#373,.T.);
#565=PLANE('',#637);
#566=PLANE('',#641);
#567=PLANE('',#645);
#568=PLANE('',#646);
#569=PLANE('',#649);
#570=PLANE('',#652);
#571=PLANE('',#653);
#572=PLANE('',#657);
#573=PLANE('',#661);
#574=PLANE('',#662);
#575=PLANE('',#665);
#576=PLANE('',#668);
#577=PLANE('',#669);
#578=PLANE('',#670);
#579=PLANE('',#671);
#580=PLANE('',#672);
#581=PLANE('',#673);
#582=PLANE('',#674);
#583=PLANE('',#681);
#584=PLANE('',#700);
#585=PLANE('',#701);
#586=ADVANCED_FACE('',(#62),#565,.T.);
#587=ADVANCED_FACE('',(#63),#58,.T.);
#588=ADVANCED_FACE('',(#64),#566,.T.);
#589=ADVANCED_FACE('',(#65),#59,.T.);
#590=ADVANCED_FACE('',(#66),#567,.T.);
#591=ADVANCED_FACE('',(#67),#568,.T.);
#592=ADVANCED_FACE('',(#68),#22,.T.);
#593=ADVANCED_FACE('',(#69),#569,.T.);
#594=ADVANCED_FACE('',(#70),#23,.T.);
#595=ADVANCED_FACE('',(#71),#570,.T.);
#596=ADVANCED_FACE('',(#72),#571,.T.);
#597=ADVANCED_FACE('',(#73),#60,.T.);
#598=ADVANCED_FACE('',(#74),#572,.T.);
#599=ADVANCED_FACE('',(#75),#61,.T.);
#600=ADVANCED_FACE('',(#76),#573,.T.);
#601=ADVANCED_FACE('',(#77),#574,.T.);
#602=ADVANCED_FACE('',(#78),#24,.T.);
#603=ADVANCED_FACE('',(#79),#575,.T.);
#604=ADVANCED_FACE('',(#80),#25,.T.);
#605=ADVANCED_FACE('',(#81),#576,.T.);
#606=ADVANCED_FACE('',(#82),#577,.T.);
#607=ADVANCED_FACE('',(#83),#578,.T.);
#608=ADVANCED_FACE('',(#84),#579,.T.);
#609=ADVANCED_FACE('',(#85),#580,.T.);
#610=ADVANCED_FACE('',(#86),#581,.T.);
#611=ADVANCED_FACE('',(#87),#582,.T.);
#612=ADVANCED_FACE('',(#88),#26,.F.);
#613=ADVANCED_FACE('',(#89),#27,.F.);
#614=ADVANCED_FACE('',(#90,#15),#583,.T.);
#615=ADVANCED_FACE('',(#91),#28,.T.);
#616=ADVANCED_FACE('',(#92),#29,.T.);
#617=ADVANCED_FACE('',(#93),#30,.T.);
#618=ADVANCED_FACE('',(#94),#31,.T.);
#619=ADVANCED_FACE('',(#95),#32,.F.);
#620=ADVANCED_FACE('',(#96),#33,.T.);
#621=ADVANCED_FACE('',(#97,#16),#584,.T.);
#622=ADVANCED_FACE('',(#98,#17),#585,.F.);
#623=CLOSED_SHELL('',(#586,#587,#588,#589,#590,#591,#592,#593,#594,#595,
#596,#597,#598,#599,#600,#601,#602,#603,#604,#605,#606,#607,#608,#609,#610,
#611,#612,#613,#614,#615,#616,#617,#618,#619,#620,#621,#622));
#624=DERIVED_UNIT_ELEMENT(#626,1.);
#625=DERIVED_UNIT_ELEMENT(#1073,-3.);
#626=(
MASS_UNIT()
NAMED_UNIT(*)
SI_UNIT(.KILO.,.GRAM.)
);
#627=DERIVED_UNIT((#624,#625));
#628=MEASURE_REPRESENTATION_ITEM('density measure',
POSITIVE_RATIO_MEASURE(7850.),#627);
#629=PROPERTY_DEFINITION_REPRESENTATION(#634,#631);
#630=PROPERTY_DEFINITION_REPRESENTATION(#635,#632);
#631=REPRESENTATION('material name',(#633),#1070);
#632=REPRESENTATION('density',(#628),#1070);
#633=DESCRIPTIVE_REPRESENTATION_ITEM('Steel','Steel');
#634=PROPERTY_DEFINITION('material property','material name',#1080);
#635=PROPERTY_DEFINITION('material property','density of part',#1080);
#636=AXIS2_PLACEMENT_3D('',#892,#702,#703);
#637=AXIS2_PLACEMENT_3D('',#893,#704,#705);
#638=AXIS2_PLACEMENT_3D('',#902,#710,#711);
#639=AXIS2_PLACEMENT_3D('',#904,#712,#713);
#640=AXIS2_PLACEMENT_3D('',#907,#715,#716);
#641=AXIS2_PLACEMENT_3D('',#908,#717,#718);
#642=AXIS2_PLACEMENT_3D('',#914,#722,#723);
#643=AXIS2_PLACEMENT_3D('',#916,#724,#725);
#644=AXIS2_PLACEMENT_3D('',#919,#727,#728);
#645=AXIS2_PLACEMENT_3D('',#920,#729,#730);
#646=AXIS2_PLACEMENT_3D('',#926,#734,#735);
#647=AXIS2_PLACEMENT_3D('',#932,#739,#740);
#648=AXIS2_PLACEMENT_3D('',#935,#742,#743);
#649=AXIS2_PLACEMENT_3D('',#936,#744,#745);
#650=AXIS2_PLACEMENT_3D('',#940,#748,#749);
#651=AXIS2_PLACEMENT_3D('',#943,#751,#752);
#652=AXIS2_PLACEMENT_3D('',#944,#753,#754);
#653=AXIS2_PLACEMENT_3D('',#948,#757,#758);
#654=AXIS2_PLACEMENT_3D('',#957,#763,#764);
#655=AXIS2_PLACEMENT_3D('',#959,#765,#766);
#656=AXIS2_PLACEMENT_3D('',#962,#768,#769);
#657=AXIS2_PLACEMENT_3D('',#963,#770,#771);
#658=AXIS2_PLACEMENT_3D('',#969,#775,#776);
#659=AXIS2_PLACEMENT_3D('',#971,#777,#778);
#660=AXIS2_PLACEMENT_3D('',#974,#780,#781);
#661=AXIS2_PLACEMENT_3D('',#975,#782,#783);
#662=AXIS2_PLACEMENT_3D('',#981,#787,#788);
#663=AXIS2_PLACEMENT_3D('',#987,#792,#793);
#664=AXIS2_PLACEMENT_3D('',#990,#795,#796);
#665=AXIS2_PLACEMENT_3D('',#991,#797,#798);
#666=AXIS2_PLACEMENT_3D('',#995,#801,#802);
#667=AXIS2_PLACEMENT_3D('',#998,#804,#805);
#668=AXIS2_PLACEMENT_3D('',#999,#806,#807);
#669=AXIS2_PLACEMENT_3D('',#1003,#810,#811);
#670=AXIS2_PLACEMENT_3D('',#1005,#813,#814);
#671=AXIS2_PLACEMENT_3D('',#1007,#816,#817);
#672=AXIS2_PLACEMENT_3D('',#1009,#819,#820);
#673=AXIS2_PLACEMENT_3D('',#1015,#824,#825);
#674=AXIS2_PLACEMENT_3D('',#1017,#827,#828);
#675=AXIS2_PLACEMENT_3D('',#1023,#832,#833);
#676=AXIS2_PLACEMENT_3D('',#1025,#834,#835);
#677=AXIS2_PLACEMENT_3D('',#1028,#837,#838);
#678=AXIS2_PLACEMENT_3D('',#1029,#839,#840);
#679=AXIS2_PLACEMENT_3D('',#1031,#841,#842);
#680=AXIS2_PLACEMENT_3D('',#1034,#844,#845);
#681=AXIS2_PLACEMENT_3D('',#1035,#846,#847);
#682=AXIS2_PLACEMENT_3D('',#1036,#848,#849);
#683=AXIS2_PLACEMENT_3D('',#1038,#850,#851);
#684=AXIS2_PLACEMENT_3D('',#1040,#852,#853);
#685=AXIS2_PLACEMENT_3D('',#1042,#855,#856);
#686=AXIS2_PLACEMENT_3D('',#1044,#857,#858);
#687=AXIS2_PLACEMENT_3D('',#1046,#859,#860);
#688=AXIS2_PLACEMENT_3D('',#1048,#862,#863);
#689=AXIS2_PLACEMENT_3D('',#1049,#864,#865);
#690=AXIS2_PLACEMENT_3D('',#1050,#866,#867);
#691=AXIS2_PLACEMENT_3D('',#1051,#868,#869);
#692=AXIS2_PLACEMENT_3D('',#1053,#870,#871);
#693=AXIS2_PLACEMENT_3D('',#1055,#872,#873);
#694=AXIS2_PLACEMENT_3D('',#1057,#875,#876);
#695=AXIS2_PLACEMENT_3D('',#1059,#877,#878);
#696=AXIS2_PLACEMENT_3D('',#1061,#879,#880);
#697=AXIS2_PLACEMENT_3D('',#1063,#882,#883);
#698=AXIS2_PLACEMENT_3D('',#1064,#884,#885);
#699=AXIS2_PLACEMENT_3D('',#1065,#886,#887);
#700=AXIS2_PLACEMENT_3D('',#1066,#888,#889);
#701=AXIS2_PLACEMENT_3D('',#1067,#890,#891);
#702=DIRECTION('axis',(0.,0.,1.));
#703=DIRECTION('refdir',(1.,0.,0.));
#704=DIRECTION('center_axis',(0.70710678118655,-0.707106781186545,0.));
#705=DIRECTION('ref_axis',(0.,0.,-1.));
#706=DIRECTION('',(-0.707106781186545,-0.70710678118655,0.));
#707=DIRECTION('',(0.,0.,1.));
#708=DIRECTION('',(-0.707106781186545,-0.70710678118655,0.));
#709=DIRECTION('',(0.,0.,-1.));
#710=DIRECTION('center_axis',(0.,1.,0.));
#711=DIRECTION('ref_axis',(0.707106781186546,0.,0.707106781186549));
#712=DIRECTION('center_axis',(0.,-1.,0.));
#713=DIRECTION('ref_axis',(0.707106781186546,0.,0.707106781186549));
#714=DIRECTION('',(0.,-0.707106781186549,-0.707106781186546));
#715=DIRECTION('center_axis',(0.,1.,0.));
#716=DIRECTION('ref_axis',(0.707106781186546,0.,0.707106781186549));
#717=DIRECTION('center_axis',(-2.43818331421877E-17,-0.707106781186547,
0.707106781186548));
#718=DIRECTION('ref_axis',(1.,0.,3.44811191051997E-17));
#719=DIRECTION('',(0.,-0.707106781186548,-0.707106781186547));
#720=DIRECTION('',(1.,0.,3.44811191051997E-17));
#721=DIRECTION('',(-1.,0.,-3.44811191051997E-17));
#722=DIRECTION('center_axis',(0.,1.,0.));
#723=DIRECTION('ref_axis',(-0.707106781186546,0.,0.707106781186549));
#724=DIRECTION('center_axis',(0.,-1.,0.));
#725=DIRECTION('ref_axis',(-0.707106781186546,0.,0.707106781186549));
#726=DIRECTION('',(0.70710678118654,-0.707106781186555,0.));
#727=DIRECTION('center_axis',(0.,1.,0.));
#728=DIRECTION('ref_axis',(-0.707106781186546,0.,0.707106781186549));
#729=DIRECTION('center_axis',(-0.70710678118655,-0.707106781186545,0.));
#730=DIRECTION('ref_axis',(0.,0.,1.));
#731=DIRECTION('',(-0.707106781186545,0.70710678118655,0.));
#732=DIRECTION('',(0.,0.,1.));
#733=DIRECTION('',(0.,0.,-1.));
#734=DIRECTION('center_axis',(-1.,0.,0.));
#735=DIRECTION('ref_axis',(0.,0.,-1.));
#736=DIRECTION('',(0.,-1.,0.));
#737=DIRECTION('',(0.,0.,-1.));
#738=DIRECTION('',(0.,1.,0.));
#739=DIRECTION('center_axis',(0.,-1.,0.));
#740=DIRECTION('ref_axis',(-0.707106781186546,0.,0.707106781186549));
#741=DIRECTION('',(0.,1.,0.));
#742=DIRECTION('center_axis',(2.43818331421877E-17,-0.707106781186546,-0.707106781186549));
#743=DIRECTION('ref_axis',(0.,-0.707106781186549,0.707106781186546));
#744=DIRECTION('center_axis',(-3.44811191051997E-17,0.,1.));
#745=DIRECTION('ref_axis',(-1.,0.,-3.44811191051997E-17));
#746=DIRECTION('',(0.,-1.,0.));
#747=DIRECTION('',(1.,0.,3.44811191051997E-17));
#748=DIRECTION('center_axis',(0.,-1.,0.));
#749=DIRECTION('ref_axis',(0.707106781186546,0.,0.707106781186549));
#750=DIRECTION('',(0.,1.,0.));
#751=DIRECTION('center_axis',(2.43818331421877E-17,-0.707106781186546,-0.707106781186549));
#752=DIRECTION('ref_axis',(0.,-0.707106781186549,0.707106781186546));
#753=DIRECTION('center_axis',(1.,0.,0.));
#754=DIRECTION('ref_axis',(0.,0.,1.));
#755=DIRECTION('',(0.,1.,0.));
#756=DIRECTION('',(0.,0.,1.));
#757=DIRECTION('center_axis',(0.70710678118655,-0.707106781186545,0.));
#758=DIRECTION('ref_axis',(0.,0.,-1.));
#759=DIRECTION('',(-0.707106781141306,-0.707106781141312,-1.13116844986865E-5));
#760=DIRECTION('',(0.,0.,1.));
#761=DIRECTION('',(-0.707106781186545,-0.70710678118655,0.));
#762=DIRECTION('',(0.,0.,-1.));
#763=DIRECTION('center_axis',(0.,1.,0.));
#764=DIRECTION('ref_axis',(0.707106781186546,0.,0.707106781186549));
#765=DIRECTION('center_axis',(0.,-1.,0.));
#766=DIRECTION('ref_axis',(0.707106781186546,0.,0.707106781186549));
#767=DIRECTION('',(0.,-0.707106781186549,-0.707106781186546));
#768=DIRECTION('center_axis',(0.,1.,0.));
#769=DIRECTION('ref_axis',(0.707106781186546,0.,0.707106781186549));
#770=DIRECTION('center_axis',(0.,-0.707106781186547,0.707106781186548));
#771=DIRECTION('ref_axis',(1.,0.,0.));
#772=DIRECTION('',(0.,-0.707106781186548,-0.707106781186547));
#773=DIRECTION('',(1.,0.,0.));
#774=DIRECTION('',(-1.,0.,0.));
#775=DIRECTION('center_axis',(0.,1.,0.));
#776=DIRECTION('ref_axis',(-0.707106781186546,0.,0.707106781186549));
#777=DIRECTION('center_axis',(0.,-1.,0.));
#778=DIRECTION('ref_axis',(-0.707106781186546,0.,0.707106781186549));
#779=DIRECTION('',(0.70710678118654,-0.707106781186555,0.));
#780=DIRECTION('center_axis',(0.,1.,0.));
#781=DIRECTION('ref_axis',(-0.707106781186546,0.,0.707106781186549));
#782=DIRECTION('center_axis',(-0.70710678118655,-0.707106781186545,0.));
#783=DIRECTION('ref_axis',(0.,0.,1.));
#784=DIRECTION('',(-0.707106781141306,0.707106781141312,-1.13116844986865E-5));
#785=DIRECTION('',(0.,0.,1.));
#786=DIRECTION('',(0.,0.,-1.));
#787=DIRECTION('center_axis',(-1.,0.,0.));
#788=DIRECTION('ref_axis',(0.,0.,-1.));
#789=DIRECTION('',(0.,-1.,0.));
#790=DIRECTION('',(0.,0.,-1.));
#791=DIRECTION('',(0.,1.,0.));
#792=DIRECTION('center_axis',(0.,-1.,0.));
#793=DIRECTION('ref_axis',(-0.707106781186546,0.,0.707106781186549));
#794=DIRECTION('',(0.,1.,0.));
#795=DIRECTION('center_axis',(0.,-0.707106781186549,-0.707106781186546));
#796=DIRECTION('ref_axis',(-1.47196168001604E-16,-0.707106781186546,0.707106781186549));
#797=DIRECTION('center_axis',(0.,0.,1.));
#798=DIRECTION('ref_axis',(-1.,0.,0.));
#799=DIRECTION('',(0.,-1.,0.));
#800=DIRECTION('',(1.,0.,0.));
#801=DIRECTION('center_axis',(0.,-1.,0.));
#802=DIRECTION('ref_axis',(0.707106781186546,0.,0.707106781186549));
#803=DIRECTION('',(0.,1.,0.));
#804=DIRECTION('center_axis',(0.,-0.707106781186549,-0.707106781186546));
#805=DIRECTION('ref_axis',(1.47196168001604E-16,-0.707106781186546,0.707106781186549));
#806=DIRECTION('center_axis',(1.,0.,0.));
#807=DIRECTION('ref_axis',(0.,0.,1.));
#808=DIRECTION('',(0.,1.,0.));
#809=DIRECTION('',(0.,0.,1.));
#810=DIRECTION('center_axis',(-2.43818331421877E-17,0.707106781186546,0.707106781186549));
#811=DIRECTION('ref_axis',(1.,0.,3.44811191051997E-17));
#812=DIRECTION('',(-1.,0.,-3.44811191051997E-17));
#813=DIRECTION('center_axis',(0.,0.707106781186549,0.707106781186546));
#814=DIRECTION('ref_axis',(1.,0.,0.));
#815=DIRECTION('',(-1.,0.,0.));
#816=DIRECTION('center_axis',(0.,-1.,0.));
#817=DIRECTION('ref_axis',(0.,0.,-1.));
#818=DIRECTION('',(-1.,0.,0.));
#819=DIRECTION('center_axis',(0.,0.,1.));
#820=DIRECTION('ref_axis',(1.,0.,0.));
#821=DIRECTION('',(0.,1.,0.));
#822=DIRECTION('',(-1.,0.,0.));
#823=DIRECTION('',(0.,1.,0.));
#824=DIRECTION('center_axis',(0.,-1.,0.));
#825=DIRECTION('ref_axis',(0.,0.,-1.));
#826=DIRECTION('',(-0.999999999872046,0.,-1.59971376303045E-5));
#827=DIRECTION('center_axis',(-1.59971376303045E-5,0.,0.999999999872046));
#828=DIRECTION('ref_axis',(0.999999999872046,0.,1.59971376303045E-5));
#829=DIRECTION('',(0.,1.,0.));
#830=DIRECTION('',(-0.999999999872046,0.,-1.59971376303045E-5));
#831=DIRECTION('',(0.,1.,0.));
#832=DIRECTION('center_axis',(0.,1.,0.));
#833=DIRECTION('ref_axis',(1.,0.,0.));
#834=DIRECTION('center_axis',(0.,1.,0.));
#835=DIRECTION('ref_axis',(1.,0.,0.));
#836=DIRECTION('',(0.,1.,0.));
#837=DIRECTION('center_axis',(0.,-1.,0.));
#838=DIRECTION('ref_axis',(1.,0.,0.));
#839=DIRECTION('center_axis',(0.,1.,0.));
#840=DIRECTION('ref_axis',(1.,0.,0.));
#841=DIRECTION('center_axis',(0.,-1.,0.));
#842=DIRECTION('ref_axis',(1.,0.,0.));
#843=DIRECTION('',(0.,1.,0.));
#844=DIRECTION('center_axis',(0.,1.,0.));
#845=DIRECTION('ref_axis',(1.,0.,0.));
#846=DIRECTION('center_axis',(0.,-1.,0.));
#847=DIRECTION('ref_axis',(1.,0.,0.));
#848=DIRECTION('center_axis',(0.,1.,0.));
#849=DIRECTION('ref_axis',(-1.59971376323397E-5,0.,0.999999999872046));
#850=DIRECTION('center_axis',(0.,-1.,0.));
#851=DIRECTION('ref_axis',(-1.59971376323397E-5,0.,0.999999999872046));
#852=DIRECTION('center_axis',(0.,1.,0.));
#853=DIRECTION('ref_axis',(-1.59971376323397E-5,0.,0.999999999872046));
#854=DIRECTION('',(0.,1.,0.));
#855=DIRECTION('center_axis',(0.,1.,0.));
#856=DIRECTION('ref_axis',(-0.99479190753317,0.,-0.101926741861578));
#857=DIRECTION('center_axis',(0.,-1.,0.));
#858=DIRECTION('ref_axis',(-0.99479190753317,0.,-0.101926741861578));
#859=DIRECTION('center_axis',(0.,1.,0.));
#860=DIRECTION('ref_axis',(-0.99479190753317,0.,-0.101926741861578));
#861=DIRECTION('',(0.,1.,0.));
#862=DIRECTION('center_axis',(0.,1.,0.));
#863=DIRECTION('ref_axis',(0.994793537942,0.,-0.101910828025478));
#864=DIRECTION('center_axis',(0.,-1.,0.));
#865=DIRECTION('ref_axis',(0.994793537942,0.,-0.101910828025478));
#866=DIRECTION('center_axis',(0.,1.,0.));
#867=DIRECTION('ref_axis',(0.994793537942,0.,-0.101910828025478));
#868=DIRECTION('center_axis',(0.,1.,0.));
#869=DIRECTION('ref_axis',(0.,0.,1.));
#870=DIRECTION('center_axis',(0.,-1.,0.));
#871=DIRECTION('ref_axis',(0.,0.,1.));
#872=DIRECTION('center_axis',(0.,1.,0.));
#873=DIRECTION('ref_axis',(0.,0.,1.));
#874=DIRECTION('',(0.,1.,0.));
#875=DIRECTION('center_axis',(0.,1.,0.));
#876=DIRECTION('ref_axis',(-0.992735567946586,0.,-0.120316632822605));
#877=DIRECTION('center_axis',(0.,1.,0.));
#878=DIRECTION('ref_axis',(-0.992735567946586,0.,-0.120316632822605));
#879=DIRECTION('center_axis',(0.,-1.,0.));
#880=DIRECTION('ref_axis',(-0.992735567946586,0.,-0.120316632822605));
#881=DIRECTION('',(0.,1.,0.));
#882=DIRECTION('center_axis',(0.,1.,0.));
#883=DIRECTION('ref_axis',(0.992735567946586,0.,0.120316632822604));
#884=DIRECTION('center_axis',(0.,-1.,0.));
#885=DIRECTION('ref_axis',(0.992735567946586,0.,0.120316632822604));
#886=DIRECTION('center_axis',(0.,1.,0.));
#887=DIRECTION('ref_axis',(0.992735567946586,0.,0.120316632822604));
#888=DIRECTION('center_axis',(0.,-1.,0.));
#889=DIRECTION('ref_axis',(1.,0.,0.));
#890=DIRECTION('center_axis',(0.,-1.,0.));
#891=DIRECTION('ref_axis',(1.,0.,0.));
#892=CARTESIAN_POINT('',(0.,0.,0.));
#893=CARTESIAN_POINT('Origin',(77.791292728447,-11.1,-4.15));
#894=CARTESIAN_POINT('',(78.091292728447,-10.8,-5.15000000000002));
#895=CARTESIAN_POINT('',(77.491292728447,-11.4,-5.15));
#896=CARTESIAN_POINT('',(74.2727303598343,-14.6185623686127,-5.15));
#897=CARTESIAN_POINT('',(78.091292728447,-10.8,-2.15));
#898=CARTESIAN_POINT('',(78.091292728447,-10.8,-4.15));
#899=CARTESIAN_POINT('',(77.491292728447,-11.4,-2.15));
#900=CARTESIAN_POINT('',(78.091292728447,-10.8,-2.15));
#901=CARTESIAN_POINT('',(77.491292728447,-11.4,-4.15));
#902=CARTESIAN_POINT('Origin',(77.091292728447,-11.1,-2.15));
#903=CARTESIAN_POINT('',(77.091292728447,-10.8,-1.15));
#904=CARTESIAN_POINT('Origin',(77.091292728447,-10.8,-2.15));
#905=CARTESIAN_POINT('',(77.091292728447,-11.4,-1.75));
#906=CARTESIAN_POINT('',(77.091292728447,-10.8,-1.15));
#907=CARTESIAN_POINT('Origin',(77.091292728447,-11.4,-2.15));
#908=CARTESIAN_POINT('Origin',(75.0727303598343,-11.1,-1.45));
#909=CARTESIAN_POINT('',(67.0170432539961,-10.8,-1.15));
#910=CARTESIAN_POINT('',(67.0170432539961,-11.4,-1.75));
#911=CARTESIAN_POINT('',(67.0170432539961,-10.8,-1.15));
#912=CARTESIAN_POINT('',(75.0727303598343,-11.4,-1.75));
#913=CARTESIAN_POINT('',(75.0727303598343,-10.8,-1.15));
#914=CARTESIAN_POINT('Origin',(67.0170432539961,-11.1,-2.15));
#915=CARTESIAN_POINT('',(66.0170432539961,-10.8,-2.15));
#916=CARTESIAN_POINT('Origin',(67.0170432539961,-10.8,-2.15));
#917=CARTESIAN_POINT('',(66.6170432539961,-11.4,-2.15));
#918=CARTESIAN_POINT('',(66.0170432539961,-10.8,-2.15));
#919=CARTESIAN_POINT('Origin',(67.0170432539961,-11.4,-2.15));
#920=CARTESIAN_POINT('Origin',(66.3170432539962,-11.1,-2.15));
#921=CARTESIAN_POINT('',(66.0170432539961,-10.8,-5.15));
#922=CARTESIAN_POINT('',(66.6170432539961,-11.4,-5.15));
#923=CARTESIAN_POINT('',(66.8170432539962,-11.6,-5.15));
#924=CARTESIAN_POINT('',(66.6170432539961,-11.4,-2.15));
#925=CARTESIAN_POINT('',(66.0170432539961,-10.8,-2.15));
#926=CARTESIAN_POINT('Origin',(66.0170432539961,-9.4,-1.15));
#927=CARTESIAN_POINT('',(66.0170432539961,-9.4,-2.15));
#928=CARTESIAN_POINT('',(66.0170432539961,-9.4,-2.15));
#929=CARTESIAN_POINT('',(66.0170432539961,-9.4,-5.15));
#930=CARTESIAN_POINT('',(66.0170432539961,-9.4,-1.15));
#931=CARTESIAN_POINT('',(66.0170432539961,-13.4,-5.15));
#932=CARTESIAN_POINT('Origin',(67.0170432539961,-9.4,-2.15));
#933=CARTESIAN_POINT('',(67.0170432539961,-10.4,-1.15));
#934=CARTESIAN_POINT('',(67.0170432539961,-9.4,-1.15));
#935=CARTESIAN_POINT('Origin',(67.0170432539961,-9.4,-2.15));
#936=CARTESIAN_POINT('Origin',(78.091292728447,-9.4,-1.15));
#937=CARTESIAN_POINT('',(77.091292728447,-10.4,-1.15));
#938=CARTESIAN_POINT('',(77.091292728447,-9.4,-1.15));
#939=CARTESIAN_POINT('',(39.0456783609967,-10.4,-1.15));
#940=CARTESIAN_POINT('Origin',(77.091292728447,-9.4,-2.15));
#941=CARTESIAN_POINT('',(78.091292728447,-9.4,-2.15));
#942=CARTESIAN_POINT('',(78.091292728447,-9.4,-2.15));
#943=CARTESIAN_POINT('Origin',(77.091292728447,-9.4,-2.15));
#944=CARTESIAN_POINT('Origin',(78.091292728447,-9.4,-5.15));
#945=CARTESIAN_POINT('',(78.091292728447,-9.4,-5.15000000000002));
#946=CARTESIAN_POINT('',(78.091292728447,-13.4,-5.15000000000002));
#947=CARTESIAN_POINT('',(78.091292728447,-9.4,-5.15));
#948=CARTESIAN_POINT('Origin',(-66.3169608602902,-11.1,-4.15124923649851));
#949=CARTESIAN_POINT('',(-66.6169608602902,-11.4,-5.15106568135046));
#950=CARTESIAN_POINT('',(-66.0169608602902,-10.8,-5.15105608306789));
#951=CARTESIAN_POINT('',(-69.8355192302887,-14.6185583699985,-5.15111716907169));
#952=CARTESIAN_POINT('',(-66.0169608602902,-10.8,-2.15124923649851));
#953=CARTESIAN_POINT('',(-66.0169608602902,-10.8,-4.15124923649851));
#954=CARTESIAN_POINT('',(-66.6169608602902,-11.4,-2.15124923649851));
#955=CARTESIAN_POINT('',(-66.0169608602902,-10.8,-2.15124923649851));
#956=CARTESIAN_POINT('',(-66.6169608602902,-11.4,-4.15124923649851));
#957=CARTESIAN_POINT('Origin',(-67.0169608602902,-11.1,-2.15124923649851));
#958=CARTESIAN_POINT('',(-67.0169608602902,-10.8,-1.15124923649851));
#959=CARTESIAN_POINT('Origin',(-67.0169608602902,-10.8,-2.15124923649851));
#960=CARTESIAN_POINT('',(-67.0169608602902,-11.4,-1.7512492364985));
#961=CARTESIAN_POINT('',(-67.0169608602902,-10.8,-1.15124923649851));
#962=CARTESIAN_POINT('Origin',(-67.0169608602902,-11.4,-2.15124923649851));
#963=CARTESIAN_POINT('Origin',(-69.0355232285168,-11.1,-1.45124923649851));
#964=CARTESIAN_POINT('',(-77.0912103331964,-10.8,-1.15124923649851));
#965=CARTESIAN_POINT('',(-77.0912103331964,-11.4,-1.75124923649851));
#966=CARTESIAN_POINT('',(-77.0912103331964,-10.8,-1.15124923649851));
#967=CARTESIAN_POINT('',(-69.0355232285168,-11.4,-1.75124923649851));
#968=CARTESIAN_POINT('',(-69.0355232285168,-10.8,-1.15124923649851));
#969=CARTESIAN_POINT('Origin',(-77.0912103331964,-11.1,-2.15124923649851));
#970=CARTESIAN_POINT('',(-78.0912103331964,-10.8,-2.15124923649851));
#971=CARTESIAN_POINT('Origin',(-77.0912103331964,-10.8,-2.15124923649851));
#972=CARTESIAN_POINT('',(-77.4912103331964,-11.4,-2.15124923649851));
#973=CARTESIAN_POINT('',(-78.0912103331964,-10.8,-2.15124923649851));
#974=CARTESIAN_POINT('Origin',(-77.0912103331964,-11.4,-2.15124923649851));
#975=CARTESIAN_POINT('Origin',(-77.7912103331963,-11.1,-2.15124923649851));
#976=CARTESIAN_POINT('',(-78.0912103331964,-10.8,-5.15124923649851));
#977=CARTESIAN_POINT('',(-77.4912103331964,-11.4,-5.15123963821593));
#978=CARTESIAN_POINT('',(-77.2911983354455,-11.6000119977509,-5.15123643859647));
#979=CARTESIAN_POINT('',(-77.4912103331964,-11.4,-2.15124923649851));
#980=CARTESIAN_POINT('',(-78.0912103331964,-10.8,-2.15124923649851));
#981=CARTESIAN_POINT('Origin',(-78.0912103331964,-9.4,-1.15124923649851));
#982=CARTESIAN_POINT('',(-78.0912103331964,-9.4,-2.15124923649851));
#983=CARTESIAN_POINT('',(-78.0912103331964,-9.4,-2.15124923649851));
#984=CARTESIAN_POINT('',(-78.0912103331964,-9.4,-5.15124923649851));
#985=CARTESIAN_POINT('',(-78.0912103331964,-9.4,-1.15124923649851));
#986=CARTESIAN_POINT('',(-78.0912103331964,-13.4,-5.15124923649851));
#987=CARTESIAN_POINT('Origin',(-77.0912103331964,-9.4,-2.15124923649851));
#988=CARTESIAN_POINT('',(-77.0912103331964,-10.4,-1.15124923649851));
#989=CARTESIAN_POINT('',(-77.0912103331964,-9.4,-1.15124923649851));
#990=CARTESIAN_POINT('Origin',(-77.0912103331964,-9.4,-2.15124923649851));
#991=CARTESIAN_POINT('Origin',(-66.0169608602902,-9.4,-1.15124923649851));
#992=CARTESIAN_POINT('',(-67.0169608602902,-10.4,-1.15124923649851));
#993=CARTESIAN_POINT('',(-67.0169608602902,-9.4,-1.15124923649851));
#994=CARTESIAN_POINT('',(-33.0084484333719,-10.4,-1.15124923649851));
#995=CARTESIAN_POINT('Origin',(-67.0169608602902,-9.4,-2.15124923649851));
#996=CARTESIAN_POINT('',(-66.0169608602902,-9.4,-2.15124923649851));
#997=CARTESIAN_POINT('',(-66.0169608602902,-9.4,-2.15124923649851));
#998=CARTESIAN_POINT('Origin',(-67.0169608602902,-9.4,-2.15124923649851));
#999=CARTESIAN_POINT('Origin',(-66.0169608602902,-9.4,-5.15124923649851));
#1000=CARTESIAN_POINT('',(-66.0169608602902,-9.4,-5.15105608306789));
#1001=CARTESIAN_POINT('',(-66.0169608602902,-13.4,-5.15105608306789));
#1002=CARTESIAN_POINT('',(-66.0169608602902,-9.4,-5.15124923649851));
#1003=CARTESIAN_POINT('Origin',(39.0456783609967,-9.9,-1.65));
#1004=CARTESIAN_POINT('',(39.0456783609967,-9.4,-2.15));
#1005=CARTESIAN_POINT('Origin',(-33.0084484333719,-9.9,-1.65124923649851));
#1006=CARTESIAN_POINT('',(-33.0084484333719,-9.4,-2.15124923649851));
#1007=CARTESIAN_POINT('Origin',(72.0541679912216,-11.4,-3.15));
#1008=CARTESIAN_POINT('',(69.0356056226089,-11.4,-5.15));
#1009=CARTESIAN_POINT('Origin',(66.0170432539961,-13.4,-5.15));
#1010=CARTESIAN_POINT('',(66.0170432539961,-13.3,-5.15));
#1011=CARTESIAN_POINT('',(66.0170432539961,-13.4,-5.15));
#1012=CARTESIAN_POINT('',(78.091292728447,-13.3,-5.15000000000002));
#1013=CARTESIAN_POINT('',(33.0085536237713,-13.3,-5.15));
#1014=CARTESIAN_POINT('',(78.091292728447,-13.4,-5.15000000000002));
#1015=CARTESIAN_POINT('Origin',(-72.0540855967433,-11.4,-3.15124923649851));
#1016=CARTESIAN_POINT('',(-75.0726319686047,-11.4,-5.15120094788496));
#1017=CARTESIAN_POINT('Origin',(-78.0912103331964,-13.4,-5.15124923649851));
#1018=CARTESIAN_POINT('',(-78.0912103331964,-13.3,-5.15124923649851));
#1019=CARTESIAN_POINT('',(-78.0912103331964,-13.4,-5.15124923649851));
#1020=CARTESIAN_POINT('',(-66.0169608602902,-13.3,-5.15105608306789));
#1021=CARTESIAN_POINT('',(-39.0458779152968,-13.3,-5.15062462294192));
#1022=CARTESIAN_POINT('',(-66.0169608602902,-13.4,-5.15105608306789));
#1023=CARTESIAN_POINT('Origin',(0.,-11.4,-72.728826566614));
#1024=CARTESIAN_POINT('',(-2.54999999999999,-11.4,-72.728826566614));
#1025=CARTESIAN_POINT('Origin',(0.,-11.4,-72.728826566614));
#1026=CARTESIAN_POINT('',(-2.54999999999999,-9.4,-72.728826566614));
#1027=CARTESIAN_POINT('',(-2.54999999999999,-11.4,-72.728826566614));
#1028=CARTESIAN_POINT('Origin',(0.,-9.4,-72.728826566614));
#1029=CARTESIAN_POINT('Origin',(0.,-13.4,-72.728826566614));
#1030=CARTESIAN_POINT('',(-4.6,-13.3,-72.728826566614));
#1031=CARTESIAN_POINT('Origin',(0.,-13.3,-72.728826566614));
#1032=CARTESIAN_POINT('',(-4.6,-11.4,-72.728826566614));
#1033=CARTESIAN_POINT('',(-4.6,-13.4,-72.728826566614));
#1034=CARTESIAN_POINT('Origin',(0.,-11.4,-72.728826566614));
#1035=CARTESIAN_POINT('Origin',(0.,-11.4,-72.728826566614));
#1036=CARTESIAN_POINT('Origin',(-78.0911647413541,-13.4,-8.00124923613386));
#1037=CARTESIAN_POINT('',(-80.9263216778237,-13.3,-8.29174045043937));
#1038=CARTESIAN_POINT('Origin',(-78.0911647413541,-13.3,-8.00124923613386));
#1039=CARTESIAN_POINT('',(-80.9263216778237,-9.4,-8.29174045043937));
#1040=CARTESIAN_POINT('Origin',(-78.0911647413541,-9.4,-8.00124923613386));
#1041=CARTESIAN_POINT('',(-80.9263216778237,-13.4,-8.29174045043937));
#1042=CARTESIAN_POINT('Origin',(0.,-13.4,0.));
#1043=CARTESIAN_POINT('',(80.9264543115817,-13.3,-8.29044585987259));
#1044=CARTESIAN_POINT('Origin',(0.,-13.3,0.));
#1045=CARTESIAN_POINT('',(80.9264543115817,-9.4,-8.29044585987259));
#1046=CARTESIAN_POINT('Origin',(0.,-9.4,0.));
#1047=CARTESIAN_POINT('',(80.9264543115817,-13.4,-8.29044585987259));
#1048=CARTESIAN_POINT('Origin',(78.091292728447,-13.4,-7.99999999999998));
#1049=CARTESIAN_POINT('Origin',(78.091292728447,-13.3,-7.99999999999998));
#1050=CARTESIAN_POINT('Origin',(78.091292728447,-9.4,-7.99999999999998));
#1051=CARTESIAN_POINT('Origin',(66.0170432539961,-13.4,-8.));
#1052=CARTESIAN_POINT('',(63.1877414002535,-13.3,-7.65714285714286));
#1053=CARTESIAN_POINT('Origin',(66.0170432539961,-13.3,-8.));
#1054=CARTESIAN_POINT('',(63.1877414002535,-9.4,-7.65714285714286));
#1055=CARTESIAN_POINT('Origin',(66.0170432539961,-9.4,-8.));
#1056=CARTESIAN_POINT('',(63.1877414002535,-13.4,-7.65714285714285));
#1057=CARTESIAN_POINT('Origin',(0.,-13.4,0.));
#1058=CARTESIAN_POINT('',(-63.1876188998002,-13.3,-7.6581536791588));
#1059=CARTESIAN_POINT('Origin',(0.,-13.3,0.));
#1060=CARTESIAN_POINT('',(-63.1876188998002,-9.4,-7.6581536791588));
#1061=CARTESIAN_POINT('Origin',(0.,-9.4,0.));
#1062=CARTESIAN_POINT('',(-63.1876188998002,-13.4,-7.6581536791588));
#1063=CARTESIAN_POINT('Origin',(-66.016915268448,-13.4,-8.00105608270322));
#1064=CARTESIAN_POINT('Origin',(-66.016915268448,-13.3,-8.00105608270322));
#1065=CARTESIAN_POINT('Origin',(-66.016915268448,-9.4,-8.00105608270322));
#1066=CARTESIAN_POINT('Origin',(6.39935464263885E-5,-13.3,-43.2500000000001));
#1067=CARTESIAN_POINT('Origin',(6.39935464263885E-5,-9.4,-43.2500000000001));
#1068=UNCERTAINTY_MEASURE_WITH_UNIT(LENGTH_MEASURE(0.01),#1072,
'DISTANCE_ACCURACY_VALUE',
'Maximum model space distance between geometric entities at asserted c
onnectivities');
#1069=UNCERTAINTY_MEASURE_WITH_UNIT(LENGTH_MEASURE(0.01),#1072,
'DISTANCE_ACCURACY_VALUE',
'Maximum model space distance between geometric entities at asserted c
onnectivities');
#1070=(
GEOMETRIC_REPRESENTATION_CONTEXT(3)
GLOBAL_UNCERTAINTY_ASSIGNED_CONTEXT((#1068))
GLOBAL_UNIT_ASSIGNED_CONTEXT((#1072,#1074,#1075))
REPRESENTATION_CONTEXT('','3D')
);
#1071=(
GEOMETRIC_REPRESENTATION_CONTEXT(3)
GLOBAL_UNCERTAINTY_ASSIGNED_CONTEXT((#1069))
GLOBAL_UNIT_ASSIGNED_CONTEXT((#1072,#1074,#1075))
REPRESENTATION_CONTEXT('','3D')
);
#1072=(
LENGTH_UNIT()
NAMED_UNIT(*)
SI_UNIT(.MILLI.,.METRE.)
);
#1073=(
LENGTH_UNIT()
NAMED_UNIT(*)
SI_UNIT($,.METRE.)
);
#1074=(
NAMED_UNIT(*)
PLANE_ANGLE_UNIT()
SI_UNIT($,.RADIAN.)
);
#1075=(
NAMED_UNIT(*)
SI_UNIT($,.STERADIAN.)
SOLID_ANGLE_UNIT()
);
#1076=SHAPE_DEFINITION_REPRESENTATION(#1077,#1078);
#1077=PRODUCT_DEFINITION_SHAPE('',$,#1080);
#1078=SHAPE_REPRESENTATION('',(#636),#1070);
#1079=PRODUCT_DEFINITION_CONTEXT('part definition',#1084,'design');
#1080=PRODUCT_DEFINITION('2026-09-16-14-33-06-942','(Unsaved)',#1081,#1079);
#1081=PRODUCT_DEFINITION_FORMATION('',$,#1086);
#1082=PRODUCT_RELATED_PRODUCT_CATEGORY('(Unsaved)','(Unsaved)',(#1086));
#1083=APPLICATION_PROTOCOL_DEFINITION('international standard',
'automotive_design',2009,#1084);
#1084=APPLICATION_CONTEXT(
'Core Data for Automotive Mechanical Design Process');
#1085=PRODUCT_CONTEXT('part definition',#1084,'mechanical');
#1086=PRODUCT('2026-09-16-14-33-06-942','(Unsaved)',$,(#1085));
#1087=PRESENTATION_STYLE_ASSIGNMENT((#1088));
#1088=SURFACE_STYLE_USAGE(.BOTH.,#1089);
#1089=SURFACE_SIDE_STYLE('',(#1090));
#1090=SURFACE_STYLE_FILL_AREA(#1091);
#1091=FILL_AREA_STYLE('Steel - Satin',(#1092));
#1092=FILL_AREA_STYLE_COLOUR('Steel - Satin',#1093);
#1093=COLOUR_RGB('Steel - Satin',0.627450980392157,0.627450980392157,0.627450980392157);
ENDSEC;
END-ISO-10303-21;
