ISO-10303-21;
HEADER;
/* Generated by software containing ST-Developer
 * from STEP Tools, Inc. (www.steptools.com) 
 */

FILE_DESCRIPTION(
/* description */ (''),
/* implementation_level */ '2;1');

FILE_NAME(
/* name */ 'freestanding-base-bottom-shell-lid_v1.0.step',
/* time_stamp */ '2026-08-29T11:09:40-05:00',
/* author */ (''),
/* organization */ (''),
/* preprocessor_version */ 'ST-DEVELOPER v20.1',
/* originating_system */ 'Autodesk Translation Framework v15.8.0.0',
/* authorisation */ '');

FILE_SCHEMA (('AUTOMOTIVE_DESIGN { 1 0 10303 214 3 1 1 }'));
ENDSEC;

DATA;
#10=MECHANICAL_DESIGN_GEOMETRIC_PRESENTATION_REPRESENTATION('',(#13),#1559);
#11=SHAPE_REPRESENTATION_RELATIONSHIP('SRR','None',#1566,#12);
#12=ADVANCED_BREP_SHAPE_REPRESENTATION('',(#14),#1558);
#13=STYLED_ITEM('',(#1575),#14);
#14=MANIFOLD_SOLID_BREP('Body1',#799);
#15=CYLINDRICAL_SURFACE('',#855,56.9999999999999);
#16=CYLINDRICAL_SURFACE('',#857,56.9999999999999);
#17=CYLINDRICAL_SURFACE('',#859,3.);
#18=CYLINDRICAL_SURFACE('',#862,2.99999999999999);
#19=CYLINDRICAL_SURFACE('',#865,2.6);
#20=CYLINDRICAL_SURFACE('',#868,2.60000000000001);
#21=CYLINDRICAL_SURFACE('',#871,2.59999999999999);
#22=CYLINDRICAL_SURFACE('',#874,2.59999999999999);
#23=CYLINDRICAL_SURFACE('',#879,4.6);
#24=CYLINDRICAL_SURFACE('',#882,4.6);
#25=CYLINDRICAL_SURFACE('',#885,4.6);
#26=CYLINDRICAL_SURFACE('',#888,4.6);
#27=CYLINDRICAL_SURFACE('',#891,12.1);
#28=CYLINDRICAL_SURFACE('',#894,3.1);
#29=CYLINDRICAL_SURFACE('',#896,47.4999999999999);
#30=CYLINDRICAL_SURFACE('',#898,3.1);
#31=CYLINDRICAL_SURFACE('',#901,2.89999999999999);
#32=CYLINDRICAL_SURFACE('',#903,3.1);
#33=CYLINDRICAL_SURFACE('',#905,47.5000000000001);
#34=CYLINDRICAL_SURFACE('',#907,3.1);
#35=CYLINDRICAL_SURFACE('',#910,2.89999999999999);
#36=CONICAL_SURFACE('',#834,46.15,0.261799387799149);
#37=CONICAL_SURFACE('',#837,46.15,0.261799387799149);
#38=CONICAL_SURFACE('',#877,35.35,0.261799387799149);
#39=FACE_BOUND('',#257,.T.);
#40=FACE_BOUND('',#258,.T.);
#41=FACE_BOUND('',#266,.T.);
#42=FACE_BOUND('',#267,.T.);
#43=FACE_BOUND('',#269,.T.);
#44=FACE_BOUND('',#283,.T.);
#45=FACE_BOUND('',#286,.T.);
#46=FACE_BOUND('',#289,.T.);
#47=FACE_BOUND('',#292,.T.);
#48=FACE_BOUND('',#305,.T.);
#49=FACE_BOUND('',#307,.T.);
#50=FACE_BOUND('',#308,.T.);
#51=FACE_BOUND('',#309,.T.);
#52=FACE_BOUND('',#310,.T.);
#53=FACE_BOUND('',#311,.T.);
#54=CIRCLE('',#820,46.15);
#55=CIRCLE('',#821,56.9999999999999);
#56=CIRCLE('',#822,2.89999999999999);
#57=CIRCLE('',#823,3.1);
#58=CIRCLE('',#824,47.4999999999999);
#59=CIRCLE('',#825,3.1);
#60=CIRCLE('',#826,2.99999999999999);
#61=CIRCLE('',#827,56.9999999999999);
#62=CIRCLE('',#828,4.6);
#63=CIRCLE('',#829,4.6);
#64=CIRCLE('',#835,46.15);
#65=CIRCLE('',#836,45.7212812921102);
#66=CIRCLE('',#838,45.7212812921102);
#67=CIRCLE('',#842,56.9999999999999);
#68=CIRCLE('',#843,2.89999999999999);
#69=CIRCLE('',#844,3.1);
#70=CIRCLE('',#845,47.5000000000001);
#71=CIRCLE('',#846,3.1);
#72=CIRCLE('',#847,3.);
#73=CIRCLE('',#848,56.9999999999999);
#74=CIRCLE('',#849,4.6);
#75=CIRCLE('',#850,4.6);
#76=CIRCLE('',#852,56.9999999999999);
#77=CIRCLE('',#853,56.9999999999999);
#78=CIRCLE('',#854,35.7787187078898);
#79=CIRCLE('',#856,56.9999999999999);
#80=CIRCLE('',#858,56.9999999999999);
#81=CIRCLE('',#860,3.);
#82=CIRCLE('',#863,2.99999999999999);
#83=CIRCLE('',#866,2.6);
#84=CIRCLE('',#867,2.6);
#85=CIRCLE('',#869,2.60000000000001);
#86=CIRCLE('',#870,2.60000000000001);
#87=CIRCLE('',#872,2.59999999999999);
#88=CIRCLE('',#873,2.59999999999999);
#89=CIRCLE('',#875,2.59999999999999);
#90=CIRCLE('',#876,2.59999999999999);
#91=CIRCLE('',#878,35.35);
#92=CIRCLE('',#880,4.6);
#93=CIRCLE('',#883,4.6);
#94=CIRCLE('',#886,4.6);
#95=CIRCLE('',#889,4.6);
#96=CIRCLE('',#892,12.1);
#97=CIRCLE('',#893,12.1);
#98=CIRCLE('',#895,3.1);
#99=CIRCLE('',#897,47.4999999999999);
#100=CIRCLE('',#899,3.1);
#101=CIRCLE('',#902,2.89999999999999);
#102=CIRCLE('',#904,3.1);
#103=CIRCLE('',#906,47.5000000000001);
#104=CIRCLE('',#908,3.1);
#105=CIRCLE('',#911,2.89999999999999);
#106=LINE('',#1212,#148);
#107=LINE('',#1215,#149);
#108=LINE('',#1267,#150);
#109=LINE('',#1270,#151);
#110=LINE('',#1286,#152);
#111=LINE('',#1292,#153);
#112=LINE('',#1300,#154);
#113=LINE('',#1347,#155);
#114=LINE('',#1405,#156);
#115=LINE('',#1408,#157);
#116=LINE('',#1415,#158);
#117=LINE('',#1423,#159);
#118=LINE('',#1438,#160);
#119=LINE('',#1441,#161);
#120=LINE('',#1444,#162);
#121=LINE('',#1447,#163);
#122=LINE('',#1451,#164);
#123=LINE('',#1454,#165);
#124=LINE('',#1455,#166);
#125=LINE('',#1459,#167);
#126=LINE('',#1462,#168);
#127=LINE('',#1463,#169);
#128=LINE('',#1468,#170);
#129=LINE('',#1474,#171);
#130=LINE('',#1480,#172);
#131=LINE('',#1486,#173);
#132=LINE('',#1490,#174);
#133=LINE('',#1494,#175);
#134=LINE('',#1499,#176);
#135=LINE('',#1504,#177);
#136=LINE('',#1509,#178);
#137=LINE('',#1516,#179);
#138=LINE('',#1521,#180);
#139=LINE('',#1525,#181);
#140=LINE('',#1529,#182);
#141=LINE('',#1532,#183);
#142=LINE('',#1533,#184);
#143=LINE('',#1539,#185);
#144=LINE('',#1543,#186);
#145=LINE('',#1547,#187);
#146=LINE('',#1550,#188);
#147=LINE('',#1551,#189);
#148=VECTOR('',#920,10.);
#149=VECTOR('',#923,10.);
#150=VECTOR('',#928,10.);
#151=VECTOR('',#931,10.);
#152=VECTOR('',#936,10.);
#153=VECTOR('',#941,10.);
#154=VECTOR('',#948,10.);
#155=VECTOR('',#961,10.);
#156=VECTOR('',#978,10.);
#157=VECTOR('',#981,10.);
#158=VECTOR('',#988,10.);
#159=VECTOR('',#995,10.);
#160=VECTOR('',#1014,10.);
#161=VECTOR('',#1017,10.);
#162=VECTOR('',#1020,10.);
#163=VECTOR('',#1023,10.);
#164=VECTOR('',#1028,10.);
#165=VECTOR('',#1031,10.);
#166=VECTOR('',#1032,10.);
#167=VECTOR('',#1037,10.);
#168=VECTOR('',#1040,10.);
#169=VECTOR('',#1041,10.);
#170=VECTOR('',#1046,2.6);
#171=VECTOR('',#1053,2.60000000000001);
#172=VECTOR('',#1060,2.59999999999999);
#173=VECTOR('',#1067,2.59999999999999);
#174=VECTOR('',#1072,35.35);
#175=VECTOR('',#1077,4.6);
#176=VECTOR('',#1084,4.6);
#177=VECTOR('',#1091,4.6);
#178=VECTOR('',#1098,4.6);
#179=VECTOR('',#1107,12.);
#180=VECTOR('',#1114,10.);
#181=VECTOR('',#1119,10.);
#182=VECTOR('',#1124,10.);
#183=VECTOR('',#1127,10.);
#184=VECTOR('',#1128,10.);
#185=VECTOR('',#1137,10.);
#186=VECTOR('',#1142,10.);
#187=VECTOR('',#1147,10.);
#188=VECTOR('',#1150,10.);
#189=VECTOR('',#1151,10.);
#190=PLANE('',#814);
#191=PLANE('',#817);
#192=PLANE('',#819);
#193=PLANE('',#831);
#194=PLANE('',#839);
#195=PLANE('',#841);
#196=PLANE('',#851);
#197=PLANE('',#861);
#198=PLANE('',#864);
#199=PLANE('',#881);
#200=PLANE('',#884);
#201=PLANE('',#887);
#202=PLANE('',#890);
#203=PLANE('',#900);
#204=PLANE('',#909);
#205=PLANE('',#912);
#206=PLANE('',#913);
#207=FACE_OUTER_BOUND('',#252,.T.);
#208=FACE_OUTER_BOUND('',#253,.T.);
#209=FACE_OUTER_BOUND('',#254,.T.);
#210=FACE_OUTER_BOUND('',#255,.T.);
#211=FACE_OUTER_BOUND('',#256,.T.);
#212=FACE_OUTER_BOUND('',#259,.T.);
#213=FACE_OUTER_BOUND('',#260,.T.);
#214=FACE_OUTER_BOUND('',#261,.T.);
#215=FACE_OUTER_BOUND('',#262,.T.);
#216=FACE_OUTER_BOUND('',#263,.T.);
#217=FACE_OUTER_BOUND('',#264,.T.);
#218=FACE_OUTER_BOUND('',#265,.T.);
#219=FACE_OUTER_BOUND('',#268,.T.);
#220=FACE_OUTER_BOUND('',#270,.T.);
#221=FACE_OUTER_BOUND('',#271,.T.);
#222=FACE_OUTER_BOUND('',#272,.T.);
#223=FACE_OUTER_BOUND('',#273,.T.);
#224=FACE_OUTER_BOUND('',#274,.T.);
#225=FACE_OUTER_BOUND('',#275,.T.);
#226=FACE_OUTER_BOUND('',#276,.T.);
#227=FACE_OUTER_BOUND('',#277,.T.);
#228=FACE_OUTER_BOUND('',#278,.T.);
#229=FACE_OUTER_BOUND('',#279,.T.);
#230=FACE_OUTER_BOUND('',#280,.T.);
#231=FACE_OUTER_BOUND('',#281,.T.);
#232=FACE_OUTER_BOUND('',#282,.T.);
#233=FACE_OUTER_BOUND('',#284,.T.);
#234=FACE_OUTER_BOUND('',#285,.T.);
#235=FACE_OUTER_BOUND('',#287,.T.);
#236=FACE_OUTER_BOUND('',#288,.T.);
#237=FACE_OUTER_BOUND('',#290,.T.);
#238=FACE_OUTER_BOUND('',#291,.T.);
#239=FACE_OUTER_BOUND('',#293,.T.);
#240=FACE_OUTER_BOUND('',#294,.T.);
#241=FACE_OUTER_BOUND('',#295,.T.);
#242=FACE_OUTER_BOUND('',#296,.T.);
#243=FACE_OUTER_BOUND('',#297,.T.);
#244=FACE_OUTER_BOUND('',#298,.T.);
#245=FACE_OUTER_BOUND('',#299,.T.);
#246=FACE_OUTER_BOUND('',#300,.T.);
#247=FACE_OUTER_BOUND('',#301,.T.);
#248=FACE_OUTER_BOUND('',#302,.T.);
#249=FACE_OUTER_BOUND('',#303,.T.);
#250=FACE_OUTER_BOUND('',#304,.T.);
#251=FACE_OUTER_BOUND('',#306,.T.);
#252=EDGE_LOOP('',(#522,#523,#524,#525));
#253=EDGE_LOOP('',(#526,#527,#528,#529));
#254=EDGE_LOOP('',(#530,#531,#532,#533));
#255=EDGE_LOOP('',(#534,#535,#536,#537));
#256=EDGE_LOOP('',(#538,#539,#540,#541,#542,#543,#544,#545,#546,#547,#548,
#549,#550,#551));
#257=EDGE_LOOP('',(#552));
#258=EDGE_LOOP('',(#553));
#259=EDGE_LOOP('',(#554,#555,#556,#557));
#260=EDGE_LOOP('',(#558,#559,#560,#561));
#261=EDGE_LOOP('',(#562,#563,#564,#565));
#262=EDGE_LOOP('',(#566,#567,#568,#569));
#263=EDGE_LOOP('',(#570,#571,#572,#573));
#264=EDGE_LOOP('',(#574,#575,#576,#577));
#265=EDGE_LOOP('',(#578,#579,#580,#581,#582,#583,#584,#585,#586,#587,#588,
#589,#590,#591));
#266=EDGE_LOOP('',(#592));
#267=EDGE_LOOP('',(#593));
#268=EDGE_LOOP('',(#594,#595,#596,#597,#598,#599,#600,#601,#602,#603,#604,
#605));
#269=EDGE_LOOP('',(#606));
#270=EDGE_LOOP('',(#607,#608,#609,#610,#611,#612,#613,#614));
#271=EDGE_LOOP('',(#615,#616,#617,#618,#619,#620,#621,#622));
#272=EDGE_LOOP('',(#623,#624,#625,#626));
#273=EDGE_LOOP('',(#627,#628,#629,#630));
#274=EDGE_LOOP('',(#631,#632,#633,#634));
#275=EDGE_LOOP('',(#635,#636,#637,#638));
#276=EDGE_LOOP('',(#639,#640,#641,#642));
#277=EDGE_LOOP('',(#643,#644,#645,#646));
#278=EDGE_LOOP('',(#647,#648,#649,#650));
#279=EDGE_LOOP('',(#651,#652,#653,#654));
#280=EDGE_LOOP('',(#655,#656,#657,#658));
#281=EDGE_LOOP('',(#659,#660,#661,#662));
#282=EDGE_LOOP('',(#663));
#283=EDGE_LOOP('',(#664));
#284=EDGE_LOOP('',(#665,#666,#667,#668));
#285=EDGE_LOOP('',(#669));
#286=EDGE_LOOP('',(#670));
#287=EDGE_LOOP('',(#671,#672,#673,#674));
#288=EDGE_LOOP('',(#675));
#289=EDGE_LOOP('',(#676));
#290=EDGE_LOOP('',(#677,#678,#679,#680));
#291=EDGE_LOOP('',(#681));
#292=EDGE_LOOP('',(#682));
#293=EDGE_LOOP('',(#683,#684,#685,#686));
#294=EDGE_LOOP('',(#687,#688,#689,#690));
#295=EDGE_LOOP('',(#691,#692,#693,#694));
#296=EDGE_LOOP('',(#695,#696,#697,#698));
#297=EDGE_LOOP('',(#699,#700,#701,#702));
#298=EDGE_LOOP('',(#703,#704,#705,#706));
#299=EDGE_LOOP('',(#707,#708,#709,#710));
#300=EDGE_LOOP('',(#711,#712,#713,#714));
#301=EDGE_LOOP('',(#715,#716,#717,#718));
#302=EDGE_LOOP('',(#719,#720,#721,#722));
#303=EDGE_LOOP('',(#723,#724,#725,#726));
#304=EDGE_LOOP('',(#727));
#305=EDGE_LOOP('',(#728));
#306=EDGE_LOOP('',(#729,#730,#731,#732,#733,#734,#735,#736,#737,#738,#739,
#740,#741,#742,#743,#744));
#307=EDGE_LOOP('',(#745));
#308=EDGE_LOOP('',(#746));
#309=EDGE_LOOP('',(#747));
#310=EDGE_LOOP('',(#748));
#311=EDGE_LOOP('',(#749));
#312=ELLIPSE('',#813,70.2116081540484,47.8316607674455);
#313=ELLIPSE('',#815,80.6101730552663,56.9999999999999);
#314=ELLIPSE('',#816,70.2116081540484,47.8316607674455);
#315=ELLIPSE('',#818,80.6101730552663,56.9999999999999);
#316=ELLIPSE('',#830,70.2116081540483,47.8316607674455);
#317=ELLIPSE('',#832,80.6101730552663,56.9999999999999);
#318=ELLIPSE('',#833,70.2116081540483,47.8316607674455);
#319=ELLIPSE('',#840,80.6101730552662,56.9999999999999);
#320=B_SPLINE_CURVE_WITH_KNOTS('',3,(#1183,#1184,#1185,#1186,#1187,#1188,
#1189,#1190,#1191,#1192),.UNSPECIFIED.,.F.,.F.,(4,2,2,2,4),(0.,0.0838512530631875,
0.176250148398506,0.297252877191394,0.423056482552765),.UNSPECIFIED.);
#321=B_SPLINE_CURVE_WITH_KNOTS('',3,(#1194,#1195,#1196,#1197),
 .UNSPECIFIED.,.F.,.F.,(4,4),(-1.52572873801922,-1.49343940228573),
 .UNSPECIFIED.);
#322=B_SPLINE_CURVE_WITH_KNOTS('',3,(#1199,#1200,#1201,#1202,#1203,#1204,
#1205,#1206,#1207,#1208),.UNSPECIFIED.,.F.,.F.,(4,2,2,2,4),(0.,0.0838603820184426,
0.17482086991273,0.292751334720297,0.430001721777347),.UNSPECIFIED.);
#323=B_SPLINE_CURVE_WITH_KNOTS('',3,(#1238,#1239,#1240,#1241,#1242,#1243,
#1244,#1245,#1246,#1247),.UNSPECIFIED.,.F.,.F.,(4,2,2,2,4),(0.,0.188774023654643,
0.334573753948932,0.418340762647439,0.49991788917725),.UNSPECIFIED.);
#324=B_SPLINE_CURVE_WITH_KNOTS('',3,(#1251,#1252,#1253,#1254,#1255,#1256,
#1257,#1258,#1259,#1260),.UNSPECIFIED.,.F.,.F.,(4,2,2,2,4),(0.,0.189101514600391,
0.324470620567675,0.402617828755649,0.478744038482068),.UNSPECIFIED.);
#325=B_SPLINE_CURVE_WITH_KNOTS('',3,(#1261,#1262,#1263,#1264),
 .UNSPECIFIED.,.F.,.F.,(4,4),(1.49343940229949,1.52572873801922),
 .UNSPECIFIED.);
#326=B_SPLINE_CURVE_WITH_KNOTS('',3,(#1275,#1276,#1277,#1278,#1279,#1280,
#1281,#1282,#1283,#1284),.UNSPECIFIED.,.F.,.F.,(4,2,2,2,4),(0.,0.0838512530632041,
0.176250148398574,0.297252877191525,0.423056482552981),.UNSPECIFIED.);
#327=B_SPLINE_CURVE_WITH_KNOTS('',3,(#1329,#1330,#1331,#1332),
 .UNSPECIFIED.,.F.,.F.,(4,4),(-1.52572873801922,-1.49343940228573),
 .UNSPECIFIED.);
#328=B_SPLINE_CURVE_WITH_KNOTS('',3,(#1334,#1335,#1336,#1337,#1338,#1339,
#1340,#1341,#1342,#1343),.UNSPECIFIED.,.F.,.F.,(4,2,2,2,4),(0.,0.0838603820184613,
0.174820869912803,0.292751334720405,0.430001721777494),.UNSPECIFIED.);
#329=B_SPLINE_CURVE_WITH_KNOTS('',3,(#1371,#1372,#1373,#1374,#1375,#1376,
#1377,#1378,#1379,#1380),.UNSPECIFIED.,.F.,.F.,(4,2,2,2,4),(0.,0.188774023654518,
0.334573753948113,0.41834076264597,0.499917889175097),.UNSPECIFIED.);
#330=B_SPLINE_CURVE_WITH_KNOTS('',3,(#1384,#1385,#1386,#1387,#1388,#1389,
#1390,#1391,#1392,#1393),.UNSPECIFIED.,.F.,.F.,(4,2,2,2,4),(0.,0.189101514600322,
0.324470620567517,0.402617828755416,0.478744038481722),.UNSPECIFIED.);
#331=B_SPLINE_CURVE_WITH_KNOTS('',3,(#1394,#1395,#1396,#1397),
 .UNSPECIFIED.,.F.,.F.,(4,4),(1.49343940229949,1.52572873801922),
 .UNSPECIFIED.);
#332=VERTEX_POINT('',#1181);
#333=VERTEX_POINT('',#1182);
#334=VERTEX_POINT('',#1193);
#335=VERTEX_POINT('',#1198);
#336=VERTEX_POINT('',#1211);
#337=VERTEX_POINT('',#1213);
#338=VERTEX_POINT('',#1236);
#339=VERTEX_POINT('',#1237);
#340=VERTEX_POINT('',#1248);
#341=VERTEX_POINT('',#1250);
#342=VERTEX_POINT('',#1266);
#343=VERTEX_POINT('',#1268);
#344=VERTEX_POINT('',#1272);
#345=VERTEX_POINT('',#1274);
#346=VERTEX_POINT('',#1285);
#347=VERTEX_POINT('',#1287);
#348=VERTEX_POINT('',#1289);
#349=VERTEX_POINT('',#1291);
#350=VERTEX_POINT('',#1293);
#351=VERTEX_POINT('',#1295);
#352=VERTEX_POINT('',#1297);
#353=VERTEX_POINT('',#1299);
#354=VERTEX_POINT('',#1301);
#355=VERTEX_POINT('',#1304);
#356=VERTEX_POINT('',#1306);
#357=VERTEX_POINT('',#1328);
#358=VERTEX_POINT('',#1333);
#359=VERTEX_POINT('',#1346);
#360=VERTEX_POINT('',#1369);
#361=VERTEX_POINT('',#1370);
#362=VERTEX_POINT('',#1381);
#363=VERTEX_POINT('',#1383);
#364=VERTEX_POINT('',#1404);
#365=VERTEX_POINT('',#1406);
#366=VERTEX_POINT('',#1410);
#367=VERTEX_POINT('',#1412);
#368=VERTEX_POINT('',#1414);
#369=VERTEX_POINT('',#1416);
#370=VERTEX_POINT('',#1418);
#371=VERTEX_POINT('',#1420);
#372=VERTEX_POINT('',#1422);
#373=VERTEX_POINT('',#1424);
#374=VERTEX_POINT('',#1427);
#375=VERTEX_POINT('',#1429);
#376=VERTEX_POINT('',#1434);
#377=VERTEX_POINT('',#1437);
#378=VERTEX_POINT('',#1439);
#379=VERTEX_POINT('',#1443);
#380=VERTEX_POINT('',#1445);
#381=VERTEX_POINT('',#1449);
#382=VERTEX_POINT('',#1453);
#383=VERTEX_POINT('',#1457);
#384=VERTEX_POINT('',#1461);
#385=VERTEX_POINT('',#1465);
#386=VERTEX_POINT('',#1467);
#387=VERTEX_POINT('',#1471);
#388=VERTEX_POINT('',#1473);
#389=VERTEX_POINT('',#1477);
#390=VERTEX_POINT('',#1479);
#391=VERTEX_POINT('',#1483);
#392=VERTEX_POINT('',#1485);
#393=VERTEX_POINT('',#1489);
#394=VERTEX_POINT('',#1493);
#395=VERTEX_POINT('',#1498);
#396=VERTEX_POINT('',#1503);
#397=VERTEX_POINT('',#1508);
#398=VERTEX_POINT('',#1513);
#399=VERTEX_POINT('',#1515);
#400=VERTEX_POINT('',#1519);
#401=VERTEX_POINT('',#1523);
#402=VERTEX_POINT('',#1527);
#403=VERTEX_POINT('',#1531);
#404=VERTEX_POINT('',#1537);
#405=VERTEX_POINT('',#1541);
#406=VERTEX_POINT('',#1545);
#407=VERTEX_POINT('',#1549);
#408=EDGE_CURVE('',#332,#333,#320,.T.);
#409=EDGE_CURVE('',#333,#334,#321,.T.);
#410=EDGE_CURVE('',#334,#335,#322,.F.);
#411=EDGE_CURVE('',#335,#332,#312,.T.);
#412=EDGE_CURVE('',#335,#336,#106,.T.);
#413=EDGE_CURVE('',#336,#337,#313,.T.);
#414=EDGE_CURVE('',#337,#332,#107,.T.);
#415=EDGE_CURVE('',#338,#339,#323,.T.);
#416=EDGE_CURVE('',#339,#340,#314,.T.);
#417=EDGE_CURVE('',#340,#341,#324,.F.);
#418=EDGE_CURVE('',#341,#338,#325,.T.);
#419=EDGE_CURVE('',#339,#342,#108,.T.);
#420=EDGE_CURVE('',#342,#343,#315,.T.);
#421=EDGE_CURVE('',#343,#340,#109,.T.);
#422=EDGE_CURVE('',#338,#344,#54,.T.);
#423=EDGE_CURVE('',#345,#344,#326,.T.);
#424=EDGE_CURVE('',#346,#345,#110,.T.);
#425=EDGE_CURVE('',#347,#346,#55,.T.);
#426=EDGE_CURVE('',#347,#348,#56,.F.);
#427=EDGE_CURVE('',#348,#349,#111,.F.);
#428=EDGE_CURVE('',#349,#350,#57,.F.);
#429=EDGE_CURVE('',#350,#351,#58,.F.);
#430=EDGE_CURVE('',#351,#352,#59,.F.);
#431=EDGE_CURVE('',#352,#353,#112,.F.);
#432=EDGE_CURVE('',#354,#353,#60,.T.);
#433=EDGE_CURVE('',#342,#354,#61,.T.);
#434=EDGE_CURVE('',#355,#355,#62,.T.);
#435=EDGE_CURVE('',#356,#356,#63,.T.);
#436=EDGE_CURVE('',#344,#357,#327,.T.);
#437=EDGE_CURVE('',#357,#358,#328,.F.);
#438=EDGE_CURVE('',#358,#345,#316,.T.);
#439=EDGE_CURVE('',#358,#359,#113,.T.);
#440=EDGE_CURVE('',#359,#346,#317,.T.);
#441=EDGE_CURVE('',#360,#361,#329,.T.);
#442=EDGE_CURVE('',#361,#362,#318,.T.);
#443=EDGE_CURVE('',#362,#363,#330,.F.);
#444=EDGE_CURVE('',#363,#360,#331,.T.);
#445=EDGE_CURVE('',#360,#333,#64,.T.);
#446=EDGE_CURVE('',#334,#363,#65,.T.);
#447=EDGE_CURVE('',#357,#341,#66,.T.);
#448=EDGE_CURVE('',#361,#364,#114,.T.);
#449=EDGE_CURVE('',#364,#365,#319,.T.);
#450=EDGE_CURVE('',#365,#362,#115,.T.);
#451=EDGE_CURVE('',#366,#337,#67,.T.);
#452=EDGE_CURVE('',#366,#367,#68,.F.);
#453=EDGE_CURVE('',#367,#368,#116,.F.);
#454=EDGE_CURVE('',#368,#369,#69,.F.);
#455=EDGE_CURVE('',#369,#370,#70,.F.);
#456=EDGE_CURVE('',#370,#371,#71,.F.);
#457=EDGE_CURVE('',#371,#372,#117,.F.);
#458=EDGE_CURVE('',#373,#372,#72,.T.);
#459=EDGE_CURVE('',#364,#373,#73,.T.);
#460=EDGE_CURVE('',#374,#374,#74,.T.);
#461=EDGE_CURVE('',#375,#375,#75,.T.);
#462=EDGE_CURVE('',#336,#343,#76,.T.);
#463=EDGE_CURVE('',#359,#365,#77,.T.);
#464=EDGE_CURVE('',#376,#376,#78,.T.);
#465=EDGE_CURVE('',#377,#354,#118,.T.);
#466=EDGE_CURVE('',#377,#378,#79,.F.);
#467=EDGE_CURVE('',#378,#366,#119,.T.);
#468=EDGE_CURVE('',#379,#373,#120,.T.);
#469=EDGE_CURVE('',#379,#380,#80,.F.);
#470=EDGE_CURVE('',#380,#347,#121,.T.);
#471=EDGE_CURVE('',#381,#379,#81,.T.);
#472=EDGE_CURVE('',#372,#381,#122,.T.);
#473=EDGE_CURVE('',#382,#371,#123,.T.);
#474=EDGE_CURVE('',#382,#381,#124,.F.);
#475=EDGE_CURVE('',#383,#377,#82,.T.);
#476=EDGE_CURVE('',#353,#383,#125,.T.);
#477=EDGE_CURVE('',#384,#352,#126,.T.);
#478=EDGE_CURVE('',#384,#383,#127,.F.);
#479=EDGE_CURVE('',#385,#385,#83,.T.);
#480=EDGE_CURVE('',#385,#386,#128,.T.);
#481=EDGE_CURVE('',#386,#386,#84,.T.);
#482=EDGE_CURVE('',#387,#387,#85,.T.);
#483=EDGE_CURVE('',#387,#388,#129,.T.);
#484=EDGE_CURVE('',#388,#388,#86,.T.);
#485=EDGE_CURVE('',#389,#389,#87,.T.);
#486=EDGE_CURVE('',#389,#390,#130,.T.);
#487=EDGE_CURVE('',#390,#390,#88,.T.);
#488=EDGE_CURVE('',#391,#391,#89,.T.);
#489=EDGE_CURVE('',#391,#392,#131,.T.);
#490=EDGE_CURVE('',#392,#392,#90,.T.);
#491=EDGE_CURVE('',#376,#393,#132,.T.);
#492=EDGE_CURVE('',#393,#393,#91,.T.);
#493=EDGE_CURVE('',#375,#394,#133,.T.);
#494=EDGE_CURVE('',#394,#394,#92,.T.);
#495=EDGE_CURVE('',#356,#395,#134,.T.);
#496=EDGE_CURVE('',#395,#395,#93,.T.);
#497=EDGE_CURVE('',#374,#396,#135,.T.);
#498=EDGE_CURVE('',#396,#396,#94,.T.);
#499=EDGE_CURVE('',#355,#397,#136,.T.);
#500=EDGE_CURVE('',#397,#397,#95,.T.);
#501=EDGE_CURVE('',#398,#398,#96,.F.);
#502=EDGE_CURVE('',#398,#399,#137,.T.);
#503=EDGE_CURVE('',#399,#399,#97,.F.);
#504=EDGE_CURVE('',#384,#400,#98,.T.);
#505=EDGE_CURVE('',#400,#351,#138,.T.);
#506=EDGE_CURVE('',#401,#400,#99,.F.);
#507=EDGE_CURVE('',#401,#350,#139,.T.);
#508=EDGE_CURVE('',#401,#402,#100,.T.);
#509=EDGE_CURVE('',#402,#349,#140,.T.);
#510=EDGE_CURVE('',#403,#402,#141,.F.);
#511=EDGE_CURVE('',#403,#348,#142,.T.);
#512=EDGE_CURVE('',#380,#403,#101,.F.);
#513=EDGE_CURVE('',#382,#404,#102,.T.);
#514=EDGE_CURVE('',#404,#370,#143,.T.);
#515=EDGE_CURVE('',#405,#404,#103,.F.);
#516=EDGE_CURVE('',#405,#369,#144,.T.);
#517=EDGE_CURVE('',#405,#406,#104,.T.);
#518=EDGE_CURVE('',#406,#368,#145,.T.);
#519=EDGE_CURVE('',#407,#406,#146,.F.);
#520=EDGE_CURVE('',#407,#367,#147,.T.);
#521=EDGE_CURVE('',#378,#407,#105,.F.);
#522=ORIENTED_EDGE('',*,*,#408,.T.);
#523=ORIENTED_EDGE('',*,*,#409,.T.);
#524=ORIENTED_EDGE('',*,*,#410,.T.);
#525=ORIENTED_EDGE('',*,*,#411,.T.);
#526=ORIENTED_EDGE('',*,*,#411,.F.);
#527=ORIENTED_EDGE('',*,*,#412,.T.);
#528=ORIENTED_EDGE('',*,*,#413,.T.);
#529=ORIENTED_EDGE('',*,*,#414,.T.);
#530=ORIENTED_EDGE('',*,*,#415,.T.);
#531=ORIENTED_EDGE('',*,*,#416,.T.);
#532=ORIENTED_EDGE('',*,*,#417,.T.);
#533=ORIENTED_EDGE('',*,*,#418,.T.);
#534=ORIENTED_EDGE('',*,*,#416,.F.);
#535=ORIENTED_EDGE('',*,*,#419,.T.);
#536=ORIENTED_EDGE('',*,*,#420,.T.);
#537=ORIENTED_EDGE('',*,*,#421,.T.);
#538=ORIENTED_EDGE('',*,*,#415,.F.);
#539=ORIENTED_EDGE('',*,*,#422,.T.);
#540=ORIENTED_EDGE('',*,*,#423,.F.);
#541=ORIENTED_EDGE('',*,*,#424,.F.);
#542=ORIENTED_EDGE('',*,*,#425,.F.);
#543=ORIENTED_EDGE('',*,*,#426,.T.);
#544=ORIENTED_EDGE('',*,*,#427,.T.);
#545=ORIENTED_EDGE('',*,*,#428,.T.);
#546=ORIENTED_EDGE('',*,*,#429,.T.);
#547=ORIENTED_EDGE('',*,*,#430,.T.);
#548=ORIENTED_EDGE('',*,*,#431,.T.);
#549=ORIENTED_EDGE('',*,*,#432,.F.);
#550=ORIENTED_EDGE('',*,*,#433,.F.);
#551=ORIENTED_EDGE('',*,*,#419,.F.);
#552=ORIENTED_EDGE('',*,*,#434,.T.);
#553=ORIENTED_EDGE('',*,*,#435,.T.);
#554=ORIENTED_EDGE('',*,*,#423,.T.);
#555=ORIENTED_EDGE('',*,*,#436,.T.);
#556=ORIENTED_EDGE('',*,*,#437,.T.);
#557=ORIENTED_EDGE('',*,*,#438,.T.);
#558=ORIENTED_EDGE('',*,*,#438,.F.);
#559=ORIENTED_EDGE('',*,*,#439,.T.);
#560=ORIENTED_EDGE('',*,*,#440,.T.);
#561=ORIENTED_EDGE('',*,*,#424,.T.);
#562=ORIENTED_EDGE('',*,*,#441,.T.);
#563=ORIENTED_EDGE('',*,*,#442,.T.);
#564=ORIENTED_EDGE('',*,*,#443,.T.);
#565=ORIENTED_EDGE('',*,*,#444,.T.);
#566=ORIENTED_EDGE('',*,*,#409,.F.);
#567=ORIENTED_EDGE('',*,*,#445,.F.);
#568=ORIENTED_EDGE('',*,*,#444,.F.);
#569=ORIENTED_EDGE('',*,*,#446,.F.);
#570=ORIENTED_EDGE('',*,*,#418,.F.);
#571=ORIENTED_EDGE('',*,*,#447,.F.);
#572=ORIENTED_EDGE('',*,*,#436,.F.);
#573=ORIENTED_EDGE('',*,*,#422,.F.);
#574=ORIENTED_EDGE('',*,*,#442,.F.);
#575=ORIENTED_EDGE('',*,*,#448,.T.);
#576=ORIENTED_EDGE('',*,*,#449,.T.);
#577=ORIENTED_EDGE('',*,*,#450,.T.);
#578=ORIENTED_EDGE('',*,*,#408,.F.);
#579=ORIENTED_EDGE('',*,*,#414,.F.);
#580=ORIENTED_EDGE('',*,*,#451,.F.);
#581=ORIENTED_EDGE('',*,*,#452,.T.);
#582=ORIENTED_EDGE('',*,*,#453,.T.);
#583=ORIENTED_EDGE('',*,*,#454,.T.);
#584=ORIENTED_EDGE('',*,*,#455,.T.);
#585=ORIENTED_EDGE('',*,*,#456,.T.);
#586=ORIENTED_EDGE('',*,*,#457,.T.);
#587=ORIENTED_EDGE('',*,*,#458,.F.);
#588=ORIENTED_EDGE('',*,*,#459,.F.);
#589=ORIENTED_EDGE('',*,*,#448,.F.);
#590=ORIENTED_EDGE('',*,*,#441,.F.);
#591=ORIENTED_EDGE('',*,*,#445,.T.);
#592=ORIENTED_EDGE('',*,*,#460,.T.);
#593=ORIENTED_EDGE('',*,*,#461,.T.);
#594=ORIENTED_EDGE('',*,*,#421,.F.);
#595=ORIENTED_EDGE('',*,*,#462,.F.);
#596=ORIENTED_EDGE('',*,*,#412,.F.);
#597=ORIENTED_EDGE('',*,*,#410,.F.);
#598=ORIENTED_EDGE('',*,*,#446,.T.);
#599=ORIENTED_EDGE('',*,*,#443,.F.);
#600=ORIENTED_EDGE('',*,*,#450,.F.);
#601=ORIENTED_EDGE('',*,*,#463,.F.);
#602=ORIENTED_EDGE('',*,*,#439,.F.);
#603=ORIENTED_EDGE('',*,*,#437,.F.);
#604=ORIENTED_EDGE('',*,*,#447,.T.);
#605=ORIENTED_EDGE('',*,*,#417,.F.);
#606=ORIENTED_EDGE('',*,*,#464,.F.);
#607=ORIENTED_EDGE('',*,*,#413,.F.);
#608=ORIENTED_EDGE('',*,*,#462,.T.);
#609=ORIENTED_EDGE('',*,*,#420,.F.);
#610=ORIENTED_EDGE('',*,*,#433,.T.);
#611=ORIENTED_EDGE('',*,*,#465,.F.);
#612=ORIENTED_EDGE('',*,*,#466,.T.);
#613=ORIENTED_EDGE('',*,*,#467,.T.);
#614=ORIENTED_EDGE('',*,*,#451,.T.);
#615=ORIENTED_EDGE('',*,*,#440,.F.);
#616=ORIENTED_EDGE('',*,*,#463,.T.);
#617=ORIENTED_EDGE('',*,*,#449,.F.);
#618=ORIENTED_EDGE('',*,*,#459,.T.);
#619=ORIENTED_EDGE('',*,*,#468,.F.);
#620=ORIENTED_EDGE('',*,*,#469,.T.);
#621=ORIENTED_EDGE('',*,*,#470,.T.);
#622=ORIENTED_EDGE('',*,*,#425,.T.);
#623=ORIENTED_EDGE('',*,*,#471,.T.);
#624=ORIENTED_EDGE('',*,*,#468,.T.);
#625=ORIENTED_EDGE('',*,*,#458,.T.);
#626=ORIENTED_EDGE('',*,*,#472,.T.);
#627=ORIENTED_EDGE('',*,*,#472,.F.);
#628=ORIENTED_EDGE('',*,*,#457,.F.);
#629=ORIENTED_EDGE('',*,*,#473,.F.);
#630=ORIENTED_EDGE('',*,*,#474,.T.);
#631=ORIENTED_EDGE('',*,*,#475,.T.);
#632=ORIENTED_EDGE('',*,*,#465,.T.);
#633=ORIENTED_EDGE('',*,*,#432,.T.);
#634=ORIENTED_EDGE('',*,*,#476,.T.);
#635=ORIENTED_EDGE('',*,*,#476,.F.);
#636=ORIENTED_EDGE('',*,*,#431,.F.);
#637=ORIENTED_EDGE('',*,*,#477,.F.);
#638=ORIENTED_EDGE('',*,*,#478,.T.);
#639=ORIENTED_EDGE('',*,*,#479,.F.);
#640=ORIENTED_EDGE('',*,*,#480,.T.);
#641=ORIENTED_EDGE('',*,*,#481,.F.);
#642=ORIENTED_EDGE('',*,*,#480,.F.);
#643=ORIENTED_EDGE('',*,*,#482,.F.);
#644=ORIENTED_EDGE('',*,*,#483,.T.);
#645=ORIENTED_EDGE('',*,*,#484,.F.);
#646=ORIENTED_EDGE('',*,*,#483,.F.);
#647=ORIENTED_EDGE('',*,*,#485,.F.);
#648=ORIENTED_EDGE('',*,*,#486,.T.);
#649=ORIENTED_EDGE('',*,*,#487,.F.);
#650=ORIENTED_EDGE('',*,*,#486,.F.);
#651=ORIENTED_EDGE('',*,*,#488,.F.);
#652=ORIENTED_EDGE('',*,*,#489,.T.);
#653=ORIENTED_EDGE('',*,*,#490,.F.);
#654=ORIENTED_EDGE('',*,*,#489,.F.);
#655=ORIENTED_EDGE('',*,*,#464,.T.);
#656=ORIENTED_EDGE('',*,*,#491,.T.);
#657=ORIENTED_EDGE('',*,*,#492,.F.);
#658=ORIENTED_EDGE('',*,*,#491,.F.);
#659=ORIENTED_EDGE('',*,*,#461,.F.);
#660=ORIENTED_EDGE('',*,*,#493,.T.);
#661=ORIENTED_EDGE('',*,*,#494,.T.);
#662=ORIENTED_EDGE('',*,*,#493,.F.);
#663=ORIENTED_EDGE('',*,*,#494,.F.);
#664=ORIENTED_EDGE('',*,*,#482,.T.);
#665=ORIENTED_EDGE('',*,*,#435,.F.);
#666=ORIENTED_EDGE('',*,*,#495,.T.);
#667=ORIENTED_EDGE('',*,*,#496,.T.);
#668=ORIENTED_EDGE('',*,*,#495,.F.);
#669=ORIENTED_EDGE('',*,*,#496,.F.);
#670=ORIENTED_EDGE('',*,*,#479,.T.);
#671=ORIENTED_EDGE('',*,*,#460,.F.);
#672=ORIENTED_EDGE('',*,*,#497,.T.);
#673=ORIENTED_EDGE('',*,*,#498,.T.);
#674=ORIENTED_EDGE('',*,*,#497,.F.);
#675=ORIENTED_EDGE('',*,*,#498,.F.);
#676=ORIENTED_EDGE('',*,*,#488,.T.);
#677=ORIENTED_EDGE('',*,*,#434,.F.);
#678=ORIENTED_EDGE('',*,*,#499,.T.);
#679=ORIENTED_EDGE('',*,*,#500,.T.);
#680=ORIENTED_EDGE('',*,*,#499,.F.);
#681=ORIENTED_EDGE('',*,*,#500,.F.);
#682=ORIENTED_EDGE('',*,*,#485,.T.);
#683=ORIENTED_EDGE('',*,*,#501,.F.);
#684=ORIENTED_EDGE('',*,*,#502,.T.);
#685=ORIENTED_EDGE('',*,*,#503,.T.);
#686=ORIENTED_EDGE('',*,*,#502,.F.);
#687=ORIENTED_EDGE('',*,*,#504,.F.);
#688=ORIENTED_EDGE('',*,*,#477,.T.);
#689=ORIENTED_EDGE('',*,*,#430,.F.);
#690=ORIENTED_EDGE('',*,*,#505,.F.);
#691=ORIENTED_EDGE('',*,*,#506,.T.);
#692=ORIENTED_EDGE('',*,*,#505,.T.);
#693=ORIENTED_EDGE('',*,*,#429,.F.);
#694=ORIENTED_EDGE('',*,*,#507,.F.);
#695=ORIENTED_EDGE('',*,*,#508,.F.);
#696=ORIENTED_EDGE('',*,*,#507,.T.);
#697=ORIENTED_EDGE('',*,*,#428,.F.);
#698=ORIENTED_EDGE('',*,*,#509,.F.);
#699=ORIENTED_EDGE('',*,*,#510,.T.);
#700=ORIENTED_EDGE('',*,*,#509,.T.);
#701=ORIENTED_EDGE('',*,*,#427,.F.);
#702=ORIENTED_EDGE('',*,*,#511,.F.);
#703=ORIENTED_EDGE('',*,*,#512,.T.);
#704=ORIENTED_EDGE('',*,*,#511,.T.);
#705=ORIENTED_EDGE('',*,*,#426,.F.);
#706=ORIENTED_EDGE('',*,*,#470,.F.);
#707=ORIENTED_EDGE('',*,*,#513,.F.);
#708=ORIENTED_EDGE('',*,*,#473,.T.);
#709=ORIENTED_EDGE('',*,*,#456,.F.);
#710=ORIENTED_EDGE('',*,*,#514,.F.);
#711=ORIENTED_EDGE('',*,*,#515,.T.);
#712=ORIENTED_EDGE('',*,*,#514,.T.);
#713=ORIENTED_EDGE('',*,*,#455,.F.);
#714=ORIENTED_EDGE('',*,*,#516,.F.);
#715=ORIENTED_EDGE('',*,*,#517,.F.);
#716=ORIENTED_EDGE('',*,*,#516,.T.);
#717=ORIENTED_EDGE('',*,*,#454,.F.);
#718=ORIENTED_EDGE('',*,*,#518,.F.);
#719=ORIENTED_EDGE('',*,*,#519,.T.);
#720=ORIENTED_EDGE('',*,*,#518,.T.);
#721=ORIENTED_EDGE('',*,*,#453,.F.);
#722=ORIENTED_EDGE('',*,*,#520,.F.);
#723=ORIENTED_EDGE('',*,*,#521,.T.);
#724=ORIENTED_EDGE('',*,*,#520,.T.);
#725=ORIENTED_EDGE('',*,*,#452,.F.);
#726=ORIENTED_EDGE('',*,*,#467,.F.);
#727=ORIENTED_EDGE('',*,*,#492,.T.);
#728=ORIENTED_EDGE('',*,*,#501,.T.);
#729=ORIENTED_EDGE('',*,*,#471,.F.);
#730=ORIENTED_EDGE('',*,*,#474,.F.);
#731=ORIENTED_EDGE('',*,*,#513,.T.);
#732=ORIENTED_EDGE('',*,*,#515,.F.);
#733=ORIENTED_EDGE('',*,*,#517,.T.);
#734=ORIENTED_EDGE('',*,*,#519,.F.);
#735=ORIENTED_EDGE('',*,*,#521,.F.);
#736=ORIENTED_EDGE('',*,*,#466,.F.);
#737=ORIENTED_EDGE('',*,*,#475,.F.);
#738=ORIENTED_EDGE('',*,*,#478,.F.);
#739=ORIENTED_EDGE('',*,*,#504,.T.);
#740=ORIENTED_EDGE('',*,*,#506,.F.);
#741=ORIENTED_EDGE('',*,*,#508,.T.);
#742=ORIENTED_EDGE('',*,*,#510,.F.);
#743=ORIENTED_EDGE('',*,*,#512,.F.);
#744=ORIENTED_EDGE('',*,*,#469,.F.);
#745=ORIENTED_EDGE('',*,*,#481,.T.);
#746=ORIENTED_EDGE('',*,*,#484,.T.);
#747=ORIENTED_EDGE('',*,*,#487,.T.);
#748=ORIENTED_EDGE('',*,*,#490,.T.);
#749=ORIENTED_EDGE('',*,*,#503,.F.);
#750=B_SPLINE_SURFACE_WITH_KNOTS('',3,3,((#1161,#1162,#1163,#1164),(#1165,
#1166,#1167,#1168),(#1169,#1170,#1171,#1172),(#1173,#1174,#1175,#1176),
(#1177,#1178,#1179,#1180)),.UNSPECIFIED.,.F.,.F.,.F.,(4,1,4),(4,4),(0.,
0.571428571428571,1.),(-1.52572873801922,-1.46595293382127),
 .UNSPECIFIED.);
#751=B_SPLINE_SURFACE_WITH_KNOTS('',3,3,((#1216,#1217,#1218,#1219),(#1220,
#1221,#1222,#1223),(#1224,#1225,#1226,#1227),(#1228,#1229,#1230,#1231),
(#1232,#1233,#1234,#1235)),.UNSPECIFIED.,.F.,.F.,.F.,(4,1,4),(4,4),(0.,
0.571428571428571,1.),(1.46601127689606,1.52572873801922),.UNSPECIFIED.);
#752=B_SPLINE_SURFACE_WITH_KNOTS('',3,3,((#1308,#1309,#1310,#1311),(#1312,
#1313,#1314,#1315),(#1316,#1317,#1318,#1319),(#1320,#1321,#1322,#1323),
(#1324,#1325,#1326,#1327)),.UNSPECIFIED.,.F.,.F.,.F.,(4,1,4),(4,4),(0.,
0.571428571428571,1.),(-1.52572873801922,-1.46595293382126),
 .UNSPECIFIED.);
#753=B_SPLINE_SURFACE_WITH_KNOTS('',3,3,((#1349,#1350,#1351,#1352),(#1353,
#1354,#1355,#1356),(#1357,#1358,#1359,#1360),(#1361,#1362,#1363,#1364),
(#1365,#1366,#1367,#1368)),.UNSPECIFIED.,.F.,.F.,.F.,(4,1,4),(4,4),(0.,
0.571428571428571,1.),(1.46601127689606,1.52572873801922),.UNSPECIFIED.);
#754=ADVANCED_FACE('',(#207),#750,.F.);
#755=ADVANCED_FACE('',(#208),#190,.T.);
#756=ADVANCED_FACE('',(#209),#751,.F.);
#757=ADVANCED_FACE('',(#210),#191,.T.);
#758=ADVANCED_FACE('',(#211,#39,#40),#192,.T.);
#759=ADVANCED_FACE('',(#212),#752,.F.);
#760=ADVANCED_FACE('',(#213),#193,.T.);
#761=ADVANCED_FACE('',(#214),#753,.F.);
#762=ADVANCED_FACE('',(#215),#36,.F.);
#763=ADVANCED_FACE('',(#216),#37,.F.);
#764=ADVANCED_FACE('',(#217),#194,.T.);
#765=ADVANCED_FACE('',(#218,#41,#42),#195,.T.);
#766=ADVANCED_FACE('',(#219,#43),#196,.T.);
#767=ADVANCED_FACE('',(#220),#15,.T.);
#768=ADVANCED_FACE('',(#221),#16,.T.);
#769=ADVANCED_FACE('',(#222),#17,.T.);
#770=ADVANCED_FACE('',(#223),#197,.T.);
#771=ADVANCED_FACE('',(#224),#18,.T.);
#772=ADVANCED_FACE('',(#225),#198,.T.);
#773=ADVANCED_FACE('',(#226),#19,.F.);
#774=ADVANCED_FACE('',(#227),#20,.F.);
#775=ADVANCED_FACE('',(#228),#21,.F.);
#776=ADVANCED_FACE('',(#229),#22,.F.);
#777=ADVANCED_FACE('',(#230),#38,.T.);
#778=ADVANCED_FACE('',(#231),#23,.F.);
#779=ADVANCED_FACE('',(#232,#44),#199,.T.);
#780=ADVANCED_FACE('',(#233),#24,.F.);
#781=ADVANCED_FACE('',(#234,#45),#200,.T.);
#782=ADVANCED_FACE('',(#235),#25,.F.);
#783=ADVANCED_FACE('',(#236,#46),#201,.T.);
#784=ADVANCED_FACE('',(#237),#26,.F.);
#785=ADVANCED_FACE('',(#238,#47),#202,.T.);
#786=ADVANCED_FACE('',(#239),#27,.F.);
#787=ADVANCED_FACE('',(#240),#28,.F.);
#788=ADVANCED_FACE('',(#241),#29,.T.);
#789=ADVANCED_FACE('',(#242),#30,.F.);
#790=ADVANCED_FACE('',(#243),#203,.T.);
#791=ADVANCED_FACE('',(#244),#31,.T.);
#792=ADVANCED_FACE('',(#245),#32,.F.);
#793=ADVANCED_FACE('',(#246),#33,.T.);
#794=ADVANCED_FACE('',(#247),#34,.F.);
#795=ADVANCED_FACE('',(#248),#204,.T.);
#796=ADVANCED_FACE('',(#249),#35,.T.);
#797=ADVANCED_FACE('',(#250,#48),#205,.T.);
#798=ADVANCED_FACE('',(#251,#49,#50,#51,#52,#53),#206,.F.);
#799=CLOSED_SHELL('',(#754,#755,#756,#757,#758,#759,#760,#761,#762,#763,
#764,#765,#766,#767,#768,#769,#770,#771,#772,#773,#774,#775,#776,#777,#778,
#779,#780,#781,#782,#783,#784,#785,#786,#787,#788,#789,#790,#791,#792,#793,
#794,#795,#796,#797,#798));
#800=DERIVED_UNIT_ELEMENT(#802,1.);
#801=DERIVED_UNIT_ELEMENT(#1561,-3.);
#802=(
MASS_UNIT()
NAMED_UNIT(*)
SI_UNIT(.KILO.,.GRAM.)
);
#803=DERIVED_UNIT((#800,#801));
#804=MEASURE_REPRESENTATION_ITEM('density measure',
POSITIVE_RATIO_MEASURE(7850.),#803);
#805=PROPERTY_DEFINITION_REPRESENTATION(#810,#807);
#806=PROPERTY_DEFINITION_REPRESENTATION(#811,#808);
#807=REPRESENTATION('material name',(#809),#1558);
#808=REPRESENTATION('density',(#804),#1558);
#809=DESCRIPTIVE_REPRESENTATION_ITEM('Steel','Steel');
#810=PROPERTY_DEFINITION('material property','material name',#1568);
#811=PROPERTY_DEFINITION('material property','density of part',#1568);
#812=AXIS2_PLACEMENT_3D('',#1160,#914,#915);
#813=AXIS2_PLACEMENT_3D('',#1209,#916,#917);
#814=AXIS2_PLACEMENT_3D('',#1210,#918,#919);
#815=AXIS2_PLACEMENT_3D('',#1214,#921,#922);
#816=AXIS2_PLACEMENT_3D('',#1249,#924,#925);
#817=AXIS2_PLACEMENT_3D('',#1265,#926,#927);
#818=AXIS2_PLACEMENT_3D('',#1269,#929,#930);
#819=AXIS2_PLACEMENT_3D('',#1271,#932,#933);
#820=AXIS2_PLACEMENT_3D('',#1273,#934,#935);
#821=AXIS2_PLACEMENT_3D('',#1288,#937,#938);
#822=AXIS2_PLACEMENT_3D('',#1290,#939,#940);
#823=AXIS2_PLACEMENT_3D('',#1294,#942,#943);
#824=AXIS2_PLACEMENT_3D('',#1296,#944,#945);
#825=AXIS2_PLACEMENT_3D('',#1298,#946,#947);
#826=AXIS2_PLACEMENT_3D('',#1302,#949,#950);
#827=AXIS2_PLACEMENT_3D('',#1303,#951,#952);
#828=AXIS2_PLACEMENT_3D('',#1305,#953,#954);
#829=AXIS2_PLACEMENT_3D('',#1307,#955,#956);
#830=AXIS2_PLACEMENT_3D('',#1344,#957,#958);
#831=AXIS2_PLACEMENT_3D('',#1345,#959,#960);
#832=AXIS2_PLACEMENT_3D('',#1348,#962,#963);
#833=AXIS2_PLACEMENT_3D('',#1382,#964,#965);
#834=AXIS2_PLACEMENT_3D('',#1398,#966,#967);
#835=AXIS2_PLACEMENT_3D('',#1399,#968,#969);
#836=AXIS2_PLACEMENT_3D('',#1400,#970,#971);
#837=AXIS2_PLACEMENT_3D('',#1401,#972,#973);
#838=AXIS2_PLACEMENT_3D('',#1402,#974,#975);
#839=AXIS2_PLACEMENT_3D('',#1403,#976,#977);
#840=AXIS2_PLACEMENT_3D('',#1407,#979,#980);
#841=AXIS2_PLACEMENT_3D('',#1409,#982,#983);
#842=AXIS2_PLACEMENT_3D('',#1411,#984,#985);
#843=AXIS2_PLACEMENT_3D('',#1413,#986,#987);
#844=AXIS2_PLACEMENT_3D('',#1417,#989,#990);
#845=AXIS2_PLACEMENT_3D('',#1419,#991,#992);
#846=AXIS2_PLACEMENT_3D('',#1421,#993,#994);
#847=AXIS2_PLACEMENT_3D('',#1425,#996,#997);
#848=AXIS2_PLACEMENT_3D('',#1426,#998,#999);
#849=AXIS2_PLACEMENT_3D('',#1428,#1000,#1001);
#850=AXIS2_PLACEMENT_3D('',#1430,#1002,#1003);
#851=AXIS2_PLACEMENT_3D('',#1431,#1004,#1005);
#852=AXIS2_PLACEMENT_3D('',#1432,#1006,#1007);
#853=AXIS2_PLACEMENT_3D('',#1433,#1008,#1009);
#854=AXIS2_PLACEMENT_3D('',#1435,#1010,#1011);
#855=AXIS2_PLACEMENT_3D('',#1436,#1012,#1013);
#856=AXIS2_PLACEMENT_3D('',#1440,#1015,#1016);
#857=AXIS2_PLACEMENT_3D('',#1442,#1018,#1019);
#858=AXIS2_PLACEMENT_3D('',#1446,#1021,#1022);
#859=AXIS2_PLACEMENT_3D('',#1448,#1024,#1025);
#860=AXIS2_PLACEMENT_3D('',#1450,#1026,#1027);
#861=AXIS2_PLACEMENT_3D('',#1452,#1029,#1030);
#862=AXIS2_PLACEMENT_3D('',#1456,#1033,#1034);
#863=AXIS2_PLACEMENT_3D('',#1458,#1035,#1036);
#864=AXIS2_PLACEMENT_3D('',#1460,#1038,#1039);
#865=AXIS2_PLACEMENT_3D('',#1464,#1042,#1043);
#866=AXIS2_PLACEMENT_3D('',#1466,#1044,#1045);
#867=AXIS2_PLACEMENT_3D('',#1469,#1047,#1048);
#868=AXIS2_PLACEMENT_3D('',#1470,#1049,#1050);
#869=AXIS2_PLACEMENT_3D('',#1472,#1051,#1052);
#870=AXIS2_PLACEMENT_3D('',#1475,#1054,#1055);
#871=AXIS2_PLACEMENT_3D('',#1476,#1056,#1057);
#872=AXIS2_PLACEMENT_3D('',#1478,#1058,#1059);
#873=AXIS2_PLACEMENT_3D('',#1481,#1061,#1062);
#874=AXIS2_PLACEMENT_3D('',#1482,#1063,#1064);
#875=AXIS2_PLACEMENT_3D('',#1484,#1065,#1066);
#876=AXIS2_PLACEMENT_3D('',#1487,#1068,#1069);
#877=AXIS2_PLACEMENT_3D('',#1488,#1070,#1071);
#878=AXIS2_PLACEMENT_3D('',#1491,#1073,#1074);
#879=AXIS2_PLACEMENT_3D('',#1492,#1075,#1076);
#880=AXIS2_PLACEMENT_3D('',#1495,#1078,#1079);
#881=AXIS2_PLACEMENT_3D('',#1496,#1080,#1081);
#882=AXIS2_PLACEMENT_3D('',#1497,#1082,#1083);
#883=AXIS2_PLACEMENT_3D('',#1500,#1085,#1086);
#884=AXIS2_PLACEMENT_3D('',#1501,#1087,#1088);
#885=AXIS2_PLACEMENT_3D('',#1502,#1089,#1090);
#886=AXIS2_PLACEMENT_3D('',#1505,#1092,#1093);
#887=AXIS2_PLACEMENT_3D('',#1506,#1094,#1095);
#888=AXIS2_PLACEMENT_3D('',#1507,#1096,#1097);
#889=AXIS2_PLACEMENT_3D('',#1510,#1099,#1100);
#890=AXIS2_PLACEMENT_3D('',#1511,#1101,#1102);
#891=AXIS2_PLACEMENT_3D('',#1512,#1103,#1104);
#892=AXIS2_PLACEMENT_3D('',#1514,#1105,#1106);
#893=AXIS2_PLACEMENT_3D('',#1517,#1108,#1109);
#894=AXIS2_PLACEMENT_3D('',#1518,#1110,#1111);
#895=AXIS2_PLACEMENT_3D('',#1520,#1112,#1113);
#896=AXIS2_PLACEMENT_3D('',#1522,#1115,#1116);
#897=AXIS2_PLACEMENT_3D('',#1524,#1117,#1118);
#898=AXIS2_PLACEMENT_3D('',#1526,#1120,#1121);
#899=AXIS2_PLACEMENT_3D('',#1528,#1122,#1123);
#900=AXIS2_PLACEMENT_3D('',#1530,#1125,#1126);
#901=AXIS2_PLACEMENT_3D('',#1534,#1129,#1130);
#902=AXIS2_PLACEMENT_3D('',#1535,#1131,#1132);
#903=AXIS2_PLACEMENT_3D('',#1536,#1133,#1134);
#904=AXIS2_PLACEMENT_3D('',#1538,#1135,#1136);
#905=AXIS2_PLACEMENT_3D('',#1540,#1138,#1139);
#906=AXIS2_PLACEMENT_3D('',#1542,#1140,#1141);
#907=AXIS2_PLACEMENT_3D('',#1544,#1143,#1144);
#908=AXIS2_PLACEMENT_3D('',#1546,#1145,#1146);
#909=AXIS2_PLACEMENT_3D('',#1548,#1148,#1149);
#910=AXIS2_PLACEMENT_3D('',#1552,#1152,#1153);
#911=AXIS2_PLACEMENT_3D('',#1553,#1154,#1155);
#912=AXIS2_PLACEMENT_3D('',#1554,#1156,#1157);
#913=AXIS2_PLACEMENT_3D('',#1555,#1158,#1159);
#914=DIRECTION('axis',(0.,0.,1.));
#915=DIRECTION('refdir',(1.,0.,0.));
#916=DIRECTION('center_axis',(-1.57800229443051E-16,0.707106781186547,0.707106781186548));
#917=DIRECTION('ref_axis',(-8.04227934997321E-16,-0.707106781186548,0.707106781186547));
#918=DIRECTION('center_axis',(-1.57800229443051E-16,0.707106781186547,0.707106781186548));
#919=DIRECTION('ref_axis',(1.,0.,2.23163224623948E-16));
#920=DIRECTION('',(1.,0.,2.23163224623948E-16));
#921=DIRECTION('center_axis',(-1.57800229443051E-16,0.707106781186547,0.707106781186548));
#922=DIRECTION('ref_axis',(-1.65272890387766E-16,-0.707106781186548,0.707106781186547));
#923=DIRECTION('',(-1.,0.,-2.23163224623948E-16));
#924=DIRECTION('center_axis',(1.77525258123432E-16,0.707106781186547,-0.707106781186548));
#925=DIRECTION('ref_axis',(4.46193112904179E-16,-0.707106781186548,-0.707106781186547));
#926=DIRECTION('center_axis',(1.77525258123432E-16,0.707106781186547,-0.707106781186548));
#927=DIRECTION('ref_axis',(-1.,0.,-2.51058627701942E-16));
#928=DIRECTION('',(1.,0.,2.51058627701942E-16));
#929=DIRECTION('center_axis',(1.77525258123432E-16,0.707106781186547,-0.707106781186548));
#930=DIRECTION('ref_axis',(-1.9281837211906E-16,0.707106781186548,0.707106781186547));
#931=DIRECTION('',(-1.,0.,-2.51058627701942E-16));
#932=DIRECTION('center_axis',(0.,1.,0.));
#933=DIRECTION('ref_axis',(-1.,0.,0.));
#934=DIRECTION('center_axis',(0.,-1.,0.));
#935=DIRECTION('ref_axis',(-1.,0.,0.));
#936=DIRECTION('',(1.,0.,2.51058627701942E-16));
#937=DIRECTION('center_axis',(0.,-1.,0.));
#938=DIRECTION('ref_axis',(0.203306451728955,0.,0.979115154966658));
#939=DIRECTION('center_axis',(0.,-1.,0.));
#940=DIRECTION('ref_axis',(-0.203306451728948,0.,0.979115154966659));
#941=DIRECTION('',(-0.148698884758363,0.,0.988882521673641));
#942=DIRECTION('center_axis',(0.,1.,0.));
#943=DIRECTION('ref_axis',(0.0898079081612193,0.,-0.995959105401274));
#944=DIRECTION('center_axis',(0.,-1.,0.));
#945=DIRECTION('ref_axis',(-0.08980790816122,0.,0.995959105401274));
#946=DIRECTION('center_axis',(0.,1.,0.));
#947=DIRECTION('ref_axis',(0.988882521673641,0.,-0.148698884758363));
#948=DIRECTION('',(-0.148698884758361,0.,-0.988882521673641));
#949=DIRECTION('center_axis',(0.,-1.,0.));
#950=DIRECTION('ref_axis',(-0.570756013199214,0.,0.821119707105449));
#951=DIRECTION('center_axis',(0.,-1.,0.));
#952=DIRECTION('ref_axis',(0.203306451728955,0.,0.979115154966658));
#953=DIRECTION('center_axis',(0.,-1.,0.));
#954=DIRECTION('ref_axis',(-1.,0.,0.));
#955=DIRECTION('center_axis',(0.,-1.,0.));
#956=DIRECTION('ref_axis',(-1.,0.,0.));
#957=DIRECTION('center_axis',(1.77525258123432E-16,0.707106781186548,-0.707106781186548));
#958=DIRECTION('ref_axis',(-1.07180958160994E-15,-0.707106781186548,-0.707106781186547));
#959=DIRECTION('center_axis',(1.77525258123432E-16,0.707106781186548,-0.707106781186548));
#960=DIRECTION('ref_axis',(-1.,0.,-2.51058627701942E-16));
#961=DIRECTION('',(-1.,0.,-2.51058627701942E-16));
#962=DIRECTION('center_axis',(1.77525258123432E-16,0.707106781186548,-0.707106781186548));
#963=DIRECTION('ref_axis',(-2.20363853850355E-16,0.707106781186547,0.707106781186547));
#964=DIRECTION('center_axis',(-1.5780022944305E-16,0.707106781186548,0.707106781186547));
#965=DIRECTION('ref_axis',(2.07773861345426E-16,-0.707106781186547,0.707106781186548));
#966=DIRECTION('center_axis',(0.,1.,0.));
#967=DIRECTION('ref_axis',(-1.,0.,0.));
#968=DIRECTION('center_axis',(0.,-1.,0.));
#969=DIRECTION('ref_axis',(-1.,0.,0.));
#970=DIRECTION('center_axis',(0.,1.,0.));
#971=DIRECTION('ref_axis',(-1.,0.,0.));
#972=DIRECTION('center_axis',(0.,1.,0.));
#973=DIRECTION('ref_axis',(-1.,0.,0.));
#974=DIRECTION('center_axis',(0.,1.,0.));
#975=DIRECTION('ref_axis',(-1.,0.,0.));
#976=DIRECTION('center_axis',(-1.5780022944305E-16,0.707106781186548,0.707106781186547));
#977=DIRECTION('ref_axis',(1.,0.,2.23163224623948E-16));
#978=DIRECTION('',(-1.,0.,-2.23163224623948E-16));
#979=DIRECTION('center_axis',(-1.5780022944305E-16,0.707106781186548,0.707106781186547));
#980=DIRECTION('ref_axis',(-1.65272890387766E-16,-0.707106781186547,0.707106781186548));
#981=DIRECTION('',(1.,0.,2.23163224623948E-16));
#982=DIRECTION('center_axis',(0.,1.,0.));
#983=DIRECTION('ref_axis',(-1.,0.,0.));
#984=DIRECTION('center_axis',(0.,-1.,0.));
#985=DIRECTION('ref_axis',(0.203306451728955,0.,0.979115154966658));
#986=DIRECTION('center_axis',(0.,-1.,0.));
#987=DIRECTION('ref_axis',(0.203306451728957,0.,-0.979115154966657));
#988=DIRECTION('',(0.148698884758361,0.,-0.988882521673641));
#989=DIRECTION('center_axis',(0.,1.,0.));
#990=DIRECTION('ref_axis',(-0.0898079081612195,0.,0.995959105401274));
#991=DIRECTION('center_axis',(0.,-1.,0.));
#992=DIRECTION('ref_axis',(0.0898079081612173,0.,-0.995959105401274));
#993=DIRECTION('center_axis',(0.,1.,0.));
#994=DIRECTION('ref_axis',(-0.988882521673641,0.,0.148698884758363));
#995=DIRECTION('',(0.148698884758362,0.,0.988882521673641));
#996=DIRECTION('center_axis',(0.,-1.,0.));
#997=DIRECTION('ref_axis',(0.570756013199214,0.,-0.821119707105449));
#998=DIRECTION('center_axis',(0.,-1.,0.));
#999=DIRECTION('ref_axis',(0.203306451728955,0.,0.979115154966658));
#1000=DIRECTION('center_axis',(0.,-1.,0.));
#1001=DIRECTION('ref_axis',(-1.,0.,0.));
#1002=DIRECTION('center_axis',(0.,-1.,0.));
#1003=DIRECTION('ref_axis',(-1.,0.,0.));
#1004=DIRECTION('center_axis',(0.,1.,0.));
#1005=DIRECTION('ref_axis',(0.,0.,1.));
#1006=DIRECTION('center_axis',(0.,-1.,0.));
#1007=DIRECTION('ref_axis',(0.203306451728955,0.,0.979115154966658));
#1008=DIRECTION('center_axis',(0.,-1.,0.));
#1009=DIRECTION('ref_axis',(0.203306451728955,0.,0.979115154966658));
#1010=DIRECTION('center_axis',(0.,1.,0.));
#1011=DIRECTION('ref_axis',(-1.,0.,0.));
#1012=DIRECTION('center_axis',(0.,1.,0.));
#1013=DIRECTION('ref_axis',(0.203306451728955,0.,0.979115154966658));
#1014=DIRECTION('',(0.,1.,0.));
#1015=DIRECTION('center_axis',(0.,-1.,0.));
#1016=DIRECTION('ref_axis',(0.203306451728955,0.,0.979115154966658));
#1017=DIRECTION('',(0.,1.,0.));
#1018=DIRECTION('center_axis',(0.,1.,0.));
#1019=DIRECTION('ref_axis',(0.203306451728955,0.,0.979115154966658));
#1020=DIRECTION('',(0.,1.,0.));
#1021=DIRECTION('center_axis',(0.,-1.,0.));
#1022=DIRECTION('ref_axis',(0.203306451728955,0.,0.979115154966658));
#1023=DIRECTION('',(0.,1.,0.));
#1024=DIRECTION('center_axis',(0.,-1.,0.));
#1025=DIRECTION('ref_axis',(0.570756013199214,0.,-0.821119707105449));
#1026=DIRECTION('center_axis',(0.,1.,0.));
#1027=DIRECTION('ref_axis',(0.570756013199214,0.,-0.821119707105449));
#1028=DIRECTION('',(0.,-1.,0.));
#1029=DIRECTION('center_axis',(0.988882521673641,0.,-0.148698884758362));
#1030=DIRECTION('ref_axis',(-0.148698884758362,0.,-0.988882521673641));
#1031=DIRECTION('',(0.,1.,0.));
#1032=DIRECTION('',(0.148698884758362,0.,0.988882521673641));
#1033=DIRECTION('center_axis',(0.,-1.,0.));
#1034=DIRECTION('ref_axis',(-0.570756013199214,0.,0.821119707105449));
#1035=DIRECTION('center_axis',(0.,1.,0.));
#1036=DIRECTION('ref_axis',(-0.570756013199214,0.,0.821119707105449));
#1037=DIRECTION('',(0.,-1.,0.));
#1038=DIRECTION('center_axis',(-0.988882521673641,0.,0.148698884758361));
#1039=DIRECTION('ref_axis',(0.148698884758361,0.,0.988882521673641));
#1040=DIRECTION('',(0.,1.,0.));
#1041=DIRECTION('',(-0.148698884758361,0.,-0.988882521673641));
#1042=DIRECTION('center_axis',(0.,-1.,0.));
#1043=DIRECTION('ref_axis',(-1.,0.,0.));
#1044=DIRECTION('center_axis',(0.,-1.,0.));
#1045=DIRECTION('ref_axis',(-1.,0.,0.));
#1046=DIRECTION('',(0.,-1.,0.));
#1047=DIRECTION('center_axis',(0.,1.,0.));
#1048=DIRECTION('ref_axis',(-1.,0.,0.));
#1049=DIRECTION('center_axis',(0.,-1.,0.));
#1050=DIRECTION('ref_axis',(-1.,0.,0.));
#1051=DIRECTION('center_axis',(0.,-1.,0.));
#1052=DIRECTION('ref_axis',(-1.,0.,0.));
#1053=DIRECTION('',(0.,-1.,0.));
#1054=DIRECTION('center_axis',(0.,1.,0.));
#1055=DIRECTION('ref_axis',(-1.,0.,0.));
#1056=DIRECTION('center_axis',(0.,-1.,0.));
#1057=DIRECTION('ref_axis',(-1.,0.,0.));
#1058=DIRECTION('center_axis',(0.,-1.,0.));
#1059=DIRECTION('ref_axis',(-1.,0.,0.));
#1060=DIRECTION('',(0.,-1.,0.));
#1061=DIRECTION('center_axis',(0.,1.,0.));
#1062=DIRECTION('ref_axis',(-1.,0.,0.));
#1063=DIRECTION('center_axis',(0.,-1.,0.));
#1064=DIRECTION('ref_axis',(-1.,0.,0.));
#1065=DIRECTION('center_axis',(0.,-1.,0.));
#1066=DIRECTION('ref_axis',(-1.,0.,0.));
#1067=DIRECTION('',(0.,-1.,0.));
#1068=DIRECTION('center_axis',(0.,1.,0.));
#1069=DIRECTION('ref_axis',(-1.,0.,0.));
#1070=DIRECTION('center_axis',(0.,-1.,0.));
#1071=DIRECTION('ref_axis',(-1.,0.,0.));
#1072=DIRECTION('',(-0.258819045102521,0.965925826289068,-3.16961915143176E-17));
#1073=DIRECTION('center_axis',(0.,1.,0.));
#1074=DIRECTION('ref_axis',(-1.,0.,0.));
#1075=DIRECTION('center_axis',(0.,-1.,0.));
#1076=DIRECTION('ref_axis',(-1.,0.,0.));
#1077=DIRECTION('',(0.,-1.,0.));
#1078=DIRECTION('center_axis',(0.,-1.,0.));
#1079=DIRECTION('ref_axis',(-1.,0.,0.));
#1080=DIRECTION('center_axis',(0.,1.,0.));
#1081=DIRECTION('ref_axis',(-1.,0.,0.));
#1082=DIRECTION('center_axis',(0.,-1.,0.));
#1083=DIRECTION('ref_axis',(-1.,0.,0.));
#1084=DIRECTION('',(0.,-1.,0.));
#1085=DIRECTION('center_axis',(0.,-1.,0.));
#1086=DIRECTION('ref_axis',(-1.,0.,0.));
#1087=DIRECTION('center_axis',(0.,1.,0.));
#1088=DIRECTION('ref_axis',(-1.,0.,0.));
#1089=DIRECTION('center_axis',(0.,-1.,0.));
#1090=DIRECTION('ref_axis',(-1.,0.,0.));
#1091=DIRECTION('',(0.,-1.,0.));
#1092=DIRECTION('center_axis',(0.,-1.,0.));
#1093=DIRECTION('ref_axis',(-1.,0.,0.));
#1094=DIRECTION('center_axis',(0.,1.,0.));
#1095=DIRECTION('ref_axis',(-1.,0.,0.));
#1096=DIRECTION('center_axis',(0.,-1.,0.));
#1097=DIRECTION('ref_axis',(-1.,0.,0.));
#1098=DIRECTION('',(0.,-1.,0.));
#1099=DIRECTION('center_axis',(0.,-1.,0.));
#1100=DIRECTION('ref_axis',(-1.,0.,0.));
#1101=DIRECTION('center_axis',(0.,1.,0.));
#1102=DIRECTION('ref_axis',(-1.,0.,0.));
#1103=DIRECTION('center_axis',(0.,1.,0.));
#1104=DIRECTION('ref_axis',(-1.,0.,0.));
#1105=DIRECTION('center_axis',(0.,1.,0.));
#1106=DIRECTION('ref_axis',(-1.,0.,0.));
#1107=DIRECTION('',(0.,-1.,0.));
#1108=DIRECTION('center_axis',(0.,1.,0.));
#1109=DIRECTION('ref_axis',(-1.,0.,0.));
#1110=DIRECTION('center_axis',(0.,1.,0.));
#1111=DIRECTION('ref_axis',(0.988882521673641,0.,-0.148698884758363));
#1112=DIRECTION('center_axis',(0.,1.,0.));
#1113=DIRECTION('ref_axis',(0.988882521673641,0.,-0.148698884758363));
#1114=DIRECTION('',(0.,1.,0.));
#1115=DIRECTION('center_axis',(0.,1.,0.));
#1116=DIRECTION('ref_axis',(-0.08980790816122,0.,0.995959105401274));
#1117=DIRECTION('center_axis',(0.,-1.,0.));
#1118=DIRECTION('ref_axis',(-0.08980790816122,0.,0.995959105401274));
#1119=DIRECTION('',(0.,1.,0.));
#1120=DIRECTION('center_axis',(0.,1.,0.));
#1121=DIRECTION('ref_axis',(0.0898079081612193,0.,-0.995959105401274));
#1122=DIRECTION('center_axis',(0.,1.,0.));
#1123=DIRECTION('ref_axis',(0.0898079081612193,0.,-0.995959105401274));
#1124=DIRECTION('',(0.,1.,0.));
#1125=DIRECTION('center_axis',(0.988882521673641,0.,0.148698884758363));
#1126=DIRECTION('ref_axis',(0.148698884758363,0.,-0.988882521673641));
#1127=DIRECTION('',(-0.148698884758363,0.,0.988882521673641));
#1128=DIRECTION('',(0.,1.,0.));
#1129=DIRECTION('center_axis',(0.,1.,0.));
#1130=DIRECTION('ref_axis',(-0.203306451728948,0.,0.979115154966659));
#1131=DIRECTION('center_axis',(0.,-1.,0.));
#1132=DIRECTION('ref_axis',(-0.203306451728948,0.,0.979115154966659));
#1133=DIRECTION('center_axis',(0.,1.,0.));
#1134=DIRECTION('ref_axis',(-0.988882521673641,0.,0.148698884758363));
#1135=DIRECTION('center_axis',(0.,1.,0.));
#1136=DIRECTION('ref_axis',(-0.988882521673641,0.,0.148698884758363));
#1137=DIRECTION('',(0.,1.,0.));
#1138=DIRECTION('center_axis',(0.,1.,0.));
#1139=DIRECTION('ref_axis',(0.0898079081612173,0.,-0.995959105401274));
#1140=DIRECTION('center_axis',(0.,-1.,0.));
#1141=DIRECTION('ref_axis',(0.0898079081612173,0.,-0.995959105401274));
#1142=DIRECTION('',(0.,1.,0.));
#1143=DIRECTION('center_axis',(0.,1.,0.));
#1144=DIRECTION('ref_axis',(-0.0898079081612195,0.,0.995959105401274));
#1145=DIRECTION('center_axis',(0.,1.,0.));
#1146=DIRECTION('ref_axis',(-0.0898079081612195,0.,0.995959105401274));
#1147=DIRECTION('',(0.,1.,0.));
#1148=DIRECTION('center_axis',(-0.988882521673641,0.,-0.148698884758361));
#1149=DIRECTION('ref_axis',(-0.148698884758361,0.,0.988882521673641));
#1150=DIRECTION('',(0.148698884758361,0.,-0.988882521673641));
#1151=DIRECTION('',(0.,1.,0.));
#1152=DIRECTION('center_axis',(0.,1.,0.));
#1153=DIRECTION('ref_axis',(0.203306451728957,0.,-0.979115154966657));
#1154=DIRECTION('center_axis',(0.,-1.,0.));
#1155=DIRECTION('ref_axis',(0.203306451728957,0.,-0.979115154966657));
#1156=DIRECTION('center_axis',(0.,1.,0.));
#1157=DIRECTION('ref_axis',(-1.,0.,0.));
#1158=DIRECTION('center_axis',(0.,1.,0.));
#1159=DIRECTION('ref_axis',(-1.,0.,0.));
#1160=CARTESIAN_POINT('',(0.,0.,0.));
#1161=CARTESIAN_POINT('Ctrl Pts',(44.9600347703229,-2.6,-10.4123855792682));
#1162=CARTESIAN_POINT('Ctrl Pts',(44.9043931538352,-3.58822742252,-9.47901366790997));
#1163=CARTESIAN_POINT('Ctrl Pts',(44.8217829903918,-4.57512221806332,-8.54778978116069));
#1164=CARTESIAN_POINT('Ctrl Pts',(44.7124284683009,-5.55892217115115,-7.62040882081692));
#1165=CARTESIAN_POINT('Ctrl Pts',(45.196278258263,-2.13839117441791,-9.94051220459495));
#1166=CARTESIAN_POINT('Ctrl Pts',(45.133961256023,-3.12114598632457,-8.99747244149502));
#1167=CARTESIAN_POINT('Ctrl Pts',(45.0446996245917,-4.10263789863417,-8.05681472715602));
#1168=CARTESIAN_POINT('Ctrl Pts',(44.9277038436712,-5.0805538689091,-7.1202156152309));
#1169=CARTESIAN_POINT('Ctrl Pts',(46.030213912967,-1.44996721765116,-9.21585455715091));
#1170=CARTESIAN_POINT('Ctrl Pts',(45.9683975503086,-2.42628867226814,-8.25024348298464));
#1171=CARTESIAN_POINT('Ctrl Pts',(45.8783439903664,-3.40075071202514,-7.28666412321991));
#1172=CARTESIAN_POINT('Ctrl Pts',(45.7605264298395,-4.3717285752021,-6.32695766212409));
#1173=CARTESIAN_POINT('Ctrl Pts',(47.2575077630778,-1.24371869051988,-8.95628130948008));
#1174=CARTESIAN_POINT('Ctrl Pts',(47.2089301060758,-2.22674532104003,-7.97319929762006));
#1175=CARTESIAN_POINT('Ctrl Pts',(47.1319239721743,-3.20833570757414,-6.99172843231428));
#1176=CARTESIAN_POINT('Ctrl Pts',(47.026787273609,-4.1865730592223,-6.01342694077767));
#1177=CARTESIAN_POINT('Ctrl Pts',(47.7830938430538,-1.2551367917479,-8.94486320825205));
#1178=CARTESIAN_POINT('Ctrl Pts',(47.7401563255794,-2.24336421426791,-7.95663578573205));
#1179=CARTESIAN_POINT('Ctrl Pts',(47.668754345927,-3.23025900981123,-6.96974099018874));
#1180=CARTESIAN_POINT('Ctrl Pts',(47.5690154006389,-4.21405896289906,-5.98594103710091));
#1181=CARTESIAN_POINT('',(47.7070334162923,-2.6,-7.59999999999999));
#1182=CARTESIAN_POINT('',(44.9600347703229,-2.6,-10.4123855792682));
#1183=CARTESIAN_POINT('Ctrl Pts',(47.7070334162923,-2.6,-7.59999999999996));
#1184=CARTESIAN_POINT('Ctrl Pts',(47.427529239415,-2.6,-7.59999999999996));
#1185=CARTESIAN_POINT('Ctrl Pts',(47.1546482417729,-2.6,-7.65506434594267));
#1186=CARTESIAN_POINT('Ctrl Pts',(46.6097695877026,-2.6,-7.87569073445306));
#1187=CARTESIAN_POINT('Ctrl Pts',(46.351692518199,-2.59999999999865,-8.04733429598167));
#1188=CARTESIAN_POINT('Ctrl Pts',(45.826738113805,-2.59999999999865,-8.5299270888329));
#1189=CARTESIAN_POINT('Ctrl Pts',(45.5850105568129,-2.59999999993533,-8.86419153687313));
#1190=CARTESIAN_POINT('Ctrl Pts',(45.1986959121942,-2.59999999993533,-9.59593398955375));
#1191=CARTESIAN_POINT('Ctrl Pts',(45.0553985311717,-2.6,-10.0006107779079));
#1192=CARTESIAN_POINT('Ctrl Pts',(44.9600347703229,-2.6,-10.4123855792682));
#1193=CARTESIAN_POINT('',(44.8462959394745,-4.19999999152349,-8.90198314516045));
#1194=CARTESIAN_POINT('Ctrl Pts',(44.9600347703229,-2.6,-10.4123855792682));
#1195=CARTESIAN_POINT('Ctrl Pts',(44.9299786153346,-3.13381476761266,-9.90820233297925));
#1196=CARTESIAN_POINT('Ctrl Pts',(44.8920533630758,-3.66724069071983,-9.40464585440663));
#1197=CARTESIAN_POINT('Ctrl Pts',(44.8462943492717,-4.20000001548863,-8.90198328765157));
#1198=CARTESIAN_POINT('',(47.5704387672737,-4.2,-5.99999999999999));
#1199=CARTESIAN_POINT('Ctrl Pts',(47.5704387672737,-4.2,-5.99999999999997));
#1200=CARTESIAN_POINT('Ctrl Pts',(47.2909041605456,-4.2,-5.99999999999997));
#1201=CARTESIAN_POINT('Ctrl Pts',(47.0180725524968,-4.20000000000003,-6.05493711592564));
#1202=CARTESIAN_POINT('Ctrl Pts',(46.4781824569912,-4.20000000000003,-6.27500770664786));
#1203=CARTESIAN_POINT('Ctrl Pts',(46.224788233306,-4.19999999999904,-6.44435638465822));
#1204=CARTESIAN_POINT('Ctrl Pts',(45.7129081338181,-4.19999999999904,-6.91867647142118));
#1205=CARTESIAN_POINT('Ctrl Pts',(45.4789617630138,-4.19999999994991,-7.24503315708568));
#1206=CARTESIAN_POINT('Ctrl Pts',(45.0832255565705,-4.19999999994991,-8.00320687212843));
#1207=CARTESIAN_POINT('Ctrl Pts',(44.9361117531798,-4.2,-8.44951017249943));
#1208=CARTESIAN_POINT('Ctrl Pts',(44.8462959380184,-4.2,-8.90198312916515));
#1209=CARTESIAN_POINT('Origin',(8.4083835086721E-15,0.981581145094333,-11.1815811450943));
#1210=CARTESIAN_POINT('Origin',(22.8791526285394,-3.4,-6.8));
#1211=CARTESIAN_POINT('',(56.6833308830735,-4.2,-5.99999999999999));
#1212=CARTESIAN_POINT('',(22.8791526285394,-4.2,-6.));
#1213=CARTESIAN_POINT('',(56.4910612398102,-2.6,-7.59999999999999));
#1214=CARTESIAN_POINT('Origin',(5.77315972805081E-14,-10.2000000000001,
1.15463194561016E-13));
#1215=CARTESIAN_POINT('',(22.8791526285394,-2.6,-7.6));
#1216=CARTESIAN_POINT('Ctrl Pts',(44.7127485923048,-5.55604150273476,7.62312429120671));
#1217=CARTESIAN_POINT('Ctrl Pts',(44.8219442415313,-4.57319573713435,8.54960758797083));
#1218=CARTESIAN_POINT('Ctrl Pts',(44.9044474618121,-3.58726288131143,9.47992466840532));
#1219=CARTESIAN_POINT('Ctrl Pts',(44.9600347703229,-2.6,10.4123855792682));
#1220=CARTESIAN_POINT('Ctrl Pts',(44.928045812009,-5.07769014818094,7.12295805441212));
#1221=CARTESIAN_POINT('Ctrl Pts',(45.0448743293838,-4.10072220841265,8.0586510032818));
#1222=CARTESIAN_POINT('Ctrl Pts',(45.1340220793874,-3.12018678655699,8.99839287811933));
#1223=CARTESIAN_POINT('Ctrl Pts',(45.196278258263,-2.13839117441791,9.94051220459496));
#1224=CARTESIAN_POINT('Ctrl Pts',(45.7608714726726,-4.36888553721125,6.32976780325892));
#1225=CARTESIAN_POINT('Ctrl Pts',(45.878519646509,-3.39884842359881,7.28854506648904));
#1226=CARTESIAN_POINT('Ctrl Pts',(45.968457885033,-2.42533575166068,8.25118594992218));
#1227=CARTESIAN_POINT('Ctrl Pts',(46.030213912967,-1.44996721765116,9.21585455715092));
#1228=CARTESIAN_POINT('Ctrl Pts',(47.0270951199487,-4.18370860331218,6.01629139668782));
#1229=CARTESIAN_POINT('Ctrl Pts',(47.1320742144327,-3.20641964747066,6.99364442073949));
#1230=CARTESIAN_POINT('Ctrl Pts',(47.2089775194049,-2.2257858559689,7.97415881674517));
#1231=CARTESIAN_POINT('Ctrl Pts',(47.2575077630778,-1.24371869051989,8.9562813094801));
#1232=CARTESIAN_POINT('Ctrl Pts',(47.5693073647702,-4.21117829448268,5.98882170551732));
#1233=CARTESIAN_POINT('Ctrl Pts',(47.6688937164512,-3.22833252888227,6.97166747111773));
#1234=CARTESIAN_POINT('Ctrl Pts',(47.7401982339539,-2.24239967305935,7.95760032694063));
#1235=CARTESIAN_POINT('Ctrl Pts',(47.7830938430538,-1.25513679174791,8.94486320825207));
#1236=CARTESIAN_POINT('',(44.9600347703229,-2.6,10.4123855792682));
#1237=CARTESIAN_POINT('',(47.7070334162923,-2.6,7.60000000000001));
#1238=CARTESIAN_POINT('Ctrl Pts',(44.9600347703229,-2.6,10.4123855792682));
#1239=CARTESIAN_POINT('Ctrl Pts',(45.1020057289103,-2.6,9.79936379037351));
#1240=CARTESIAN_POINT('Ctrl Pts',(45.3396436125287,-2.59999999903014,9.24591357245054));
#1241=CARTESIAN_POINT('Ctrl Pts',(45.903665439016,-2.59999999903014,8.44275303054065));
#1242=CARTESIAN_POINT('Ctrl Pts',(46.1905406659898,-2.59999999993298,8.1624485419174));
#1243=CARTESIAN_POINT('Ctrl Pts',(46.6886407313382,-2.59999999993298,7.84536219878349));
#1244=CARTESIAN_POINT('Ctrl Pts',(46.8836001885672,-2.60000000000009,7.75362349037182));
#1245=CARTESIAN_POINT('Ctrl Pts',(47.2905582973754,-2.60000000000009,7.63100048584328));
#1246=CARTESIAN_POINT('Ctrl Pts',(47.4973709521528,-2.6,7.59999999999999));
#1247=CARTESIAN_POINT('Ctrl Pts',(47.7070334162923,-2.6,7.59999999999999));
#1248=CARTESIAN_POINT('',(47.5704387672737,-4.2,6.00000000000001));
#1249=CARTESIAN_POINT('Origin',(-3.90831632413033E-15,0.981581145094352,
11.1815811450944));
#1250=CARTESIAN_POINT('',(44.8462959394745,-4.19999999152349,8.90198314516047));
#1251=CARTESIAN_POINT('Ctrl Pts',(44.8462959380184,-4.2,8.90198312916515));
#1252=CARTESIAN_POINT('Ctrl Pts',(44.9690235056557,-4.2,8.28370776982608));
#1253=CARTESIAN_POINT('Ctrl Pts',(45.1893760496168,-4.19999999901324,7.72200804399305));
#1254=CARTESIAN_POINT('Ctrl Pts',(45.7112909104624,-4.19999999901324,6.92631168721173));
#1255=CARTESIAN_POINT('Ctrl Pts',(45.9824770865315,-4.19999999957963,6.62896970590115));
#1256=CARTESIAN_POINT('Ctrl Pts',(46.49663297749,-4.19999999957963,6.27553482406419));
#1257=CARTESIAN_POINT('Ctrl Pts',(46.7004400183813,-4.20000000000015,6.17257309183514));
#1258=CARTESIAN_POINT('Ctrl Pts',(47.1293314762219,-4.20000000000015,6.03474439359617));
#1259=CARTESIAN_POINT('Ctrl Pts',(47.348181222874,-4.2,5.99999999999999));
#1260=CARTESIAN_POINT('Ctrl Pts',(47.5704387672737,-4.2,5.99999999999999));
#1261=CARTESIAN_POINT('Ctrl Pts',(44.8462943560083,-4.20000001536595,8.90198328702579));
#1262=CARTESIAN_POINT('Ctrl Pts',(44.8920533679519,-3.66724069067024,9.4046458539158));
#1263=CARTESIAN_POINT('Ctrl Pts',(44.9299786153474,-3.13381476738516,9.90820233319413));
#1264=CARTESIAN_POINT('Ctrl Pts',(44.9600347703229,-2.6,10.4123855792682));
#1265=CARTESIAN_POINT('Origin',(28.3416654415367,-3.4,6.80000000000001));
#1266=CARTESIAN_POINT('',(56.4910612398103,-2.6,7.60000000000002));
#1267=CARTESIAN_POINT('',(28.3416654415367,-2.6,7.60000000000001));
#1268=CARTESIAN_POINT('',(56.6833308830735,-4.2,6.00000000000002));
#1269=CARTESIAN_POINT('Origin',(5.77315972805081E-14,-10.1999999999999,
1.15463194561016E-13));
#1270=CARTESIAN_POINT('',(28.3416654415368,-4.2,6.00000000000001));
#1271=CARTESIAN_POINT('Origin',(-7.105427357601E-14,-2.6,0.));
#1272=CARTESIAN_POINT('',(-44.9600347703229,-2.6,10.4123855792682));
#1273=CARTESIAN_POINT('Origin',(0.,-2.6,0.));
#1274=CARTESIAN_POINT('',(-47.7070334162922,-2.6,7.59999999999999));
#1275=CARTESIAN_POINT('Ctrl Pts',(-47.7070334162923,-2.6,7.6));
#1276=CARTESIAN_POINT('Ctrl Pts',(-47.4275292394149,-2.6,7.6));
#1277=CARTESIAN_POINT('Ctrl Pts',(-47.1546482417727,-2.60000000000001,7.65506434594274));
#1278=CARTESIAN_POINT('Ctrl Pts',(-46.6097695877026,-2.60000000000001,7.87569073445308));
#1279=CARTESIAN_POINT('Ctrl Pts',(-46.351692518199,-2.59999999999865,8.04733429598167));
#1280=CARTESIAN_POINT('Ctrl Pts',(-45.8267381138049,-2.59999999999865,8.52992708883294));
#1281=CARTESIAN_POINT('Ctrl Pts',(-45.5850105568129,-2.59999999993534,8.86419153687321));
#1282=CARTESIAN_POINT('Ctrl Pts',(-45.1986959121942,-2.59999999993534,9.59593398955379));
#1283=CARTESIAN_POINT('Ctrl Pts',(-45.0553985311717,-2.6,10.000610777908));
#1284=CARTESIAN_POINT('Ctrl Pts',(-44.9600347703229,-2.6,10.4123855792682));
#1285=CARTESIAN_POINT('',(-56.4910612398102,-2.6,7.59999999999999));
#1286=CARTESIAN_POINT('',(-22.8791526285394,-2.6,7.6));
#1287=CARTESIAN_POINT('',(-11.5884677485504,-2.6,55.8095638330995));
#1288=CARTESIAN_POINT('Origin',(5.77315972805081E-14,-2.6,1.15463194561016E-13));
#1289=CARTESIAN_POINT('',(-8.13111972568294,-2.6,53.4013566494954));
#1290=CARTESIAN_POINT('Origin',(-10.9988790385365,-2.6,52.9701298836962));
#1291=CARTESIAN_POINT('',(-7.60981597014595,-2.6,49.9345641905536));
#1292=CARTESIAN_POINT('',(-4.11500398892518,-2.6,26.6932433805098));
#1293=CARTESIAN_POINT('',(-4.26587563765788,-2.6,47.3080575065605));
#1294=CARTESIAN_POINT('Origin',(-4.54428015295766,-2.6,50.3955307333045));
#1295=CARTESIAN_POINT('',(4.26587563765786,-2.6,47.3080575065605));
#1296=CARTESIAN_POINT('Origin',(5.77315972805081E-14,-2.6,1.15463194561016E-13));
#1297=CARTESIAN_POINT('',(7.60981597014594,-2.6,49.9345641905535));
#1298=CARTESIAN_POINT('Origin',(4.54428015295766,-2.6,50.3955307333045));
#1299=CARTESIAN_POINT('',(8.11538566263436,-2.6,53.2967214333744));
#1300=CARTESIAN_POINT('',(3.85435211115672,-2.6,24.9598471510388));
#1301=CARTESIAN_POINT('',(11.6977017403028,-2.6,55.7867706001604));
#1302=CARTESIAN_POINT('Origin',(11.0820332276553,-2.6,52.8506247790993));
#1303=CARTESIAN_POINT('Origin',(5.77315972805081E-14,-2.6,1.15463194561016E-13));
#1304=CARTESIAN_POINT('',(-31.886709909226,-2.6,36.4867099092257));
#1305=CARTESIAN_POINT('Origin',(-36.486709909226,-2.6,36.4867099092257));
#1306=CARTESIAN_POINT('',(41.0867099092257,-2.6,36.486709909226));
#1307=CARTESIAN_POINT('Origin',(36.4867099092257,-2.6,36.486709909226));
#1308=CARTESIAN_POINT('Ctrl Pts',(-44.9600347703229,-2.6,10.4123855792682));
#1309=CARTESIAN_POINT('Ctrl Pts',(-44.9043931538352,-3.58822742252002,9.47901366790998));
#1310=CARTESIAN_POINT('Ctrl Pts',(-44.8217829903918,-4.57512221806334,8.54778978116068));
#1311=CARTESIAN_POINT('Ctrl Pts',(-44.7124284683009,-5.55892217115118,7.6204088208169));
#1312=CARTESIAN_POINT('Ctrl Pts',(-45.196278258263,-2.13839117441792,9.94051220459498));
#1313=CARTESIAN_POINT('Ctrl Pts',(-45.133961256023,-3.12114598632459,8.99747244149504));
#1314=CARTESIAN_POINT('Ctrl Pts',(-45.0446996245917,-4.1026378986342,8.05681472715602));
#1315=CARTESIAN_POINT('Ctrl Pts',(-44.9277038436712,-5.08055386890914,7.12021561523088));
#1316=CARTESIAN_POINT('Ctrl Pts',(-46.030213912967,-1.44996721765117,9.21585455715094));
#1317=CARTESIAN_POINT('Ctrl Pts',(-45.9683975503086,-2.42628867226817,8.25024348298467));
#1318=CARTESIAN_POINT('Ctrl Pts',(-45.8783439903664,-3.40075071202518,7.28666412321992));
#1319=CARTESIAN_POINT('Ctrl Pts',(-45.7605264298395,-4.37172857520215,6.32695766212409));
#1320=CARTESIAN_POINT('Ctrl Pts',(-47.2575077630778,-1.2437186905199,8.95628130948012));
#1321=CARTESIAN_POINT('Ctrl Pts',(-47.2089301060758,-2.22674532104007,7.97319929762009));
#1322=CARTESIAN_POINT('Ctrl Pts',(-47.1319239721743,-3.20833570757417,6.9917284323143));
#1323=CARTESIAN_POINT('Ctrl Pts',(-47.026787273609,-4.18657305922234,6.01342694077767));
#1324=CARTESIAN_POINT('Ctrl Pts',(-47.7830938430538,-1.25513679174792,8.94486320825209));
#1325=CARTESIAN_POINT('Ctrl Pts',(-47.7401563255793,-2.24336421426794,7.95663578573207));
#1326=CARTESIAN_POINT('Ctrl Pts',(-47.668754345927,-3.23025900981126,6.96974099018876));
#1327=CARTESIAN_POINT('Ctrl Pts',(-47.5690154006388,-4.21405896289911,5.98594103710091));
#1328=CARTESIAN_POINT('',(-44.8462959394745,-4.1999999915235,8.90198314516047));
#1329=CARTESIAN_POINT('Ctrl Pts',(-44.9600347703229,-2.6,10.4123855792682));
#1330=CARTESIAN_POINT('Ctrl Pts',(-44.9299786153346,-3.13381476761267,9.90820233297926));
#1331=CARTESIAN_POINT('Ctrl Pts',(-44.8920533630758,-3.66724069071984,9.40464585440663));
#1332=CARTESIAN_POINT('Ctrl Pts',(-44.8462943492717,-4.20000001548865,8.90198328765156));
#1333=CARTESIAN_POINT('',(-47.5704387672737,-4.2,5.99999999999999));
#1334=CARTESIAN_POINT('Ctrl Pts',(-47.5704387672737,-4.2,6.));
#1335=CARTESIAN_POINT('Ctrl Pts',(-47.2909041605455,-4.2,6.));
#1336=CARTESIAN_POINT('Ctrl Pts',(-47.0180725524966,-4.20000000000002,6.05493711592572));
#1337=CARTESIAN_POINT('Ctrl Pts',(-46.4781824569912,-4.20000000000002,6.27500770664788));
#1338=CARTESIAN_POINT('Ctrl Pts',(-46.224788233306,-4.19999999999906,6.44435638465818));
#1339=CARTESIAN_POINT('Ctrl Pts',(-45.712908133818,-4.19999999999906,6.9186764714212));
#1340=CARTESIAN_POINT('Ctrl Pts',(-45.4789617630137,-4.19999999994991,7.24503315708569));
#1341=CARTESIAN_POINT('Ctrl Pts',(-45.0832255565705,-4.19999999994991,8.00320687212846));
#1342=CARTESIAN_POINT('Ctrl Pts',(-44.9361117531798,-4.2,8.44951017249949));
#1343=CARTESIAN_POINT('Ctrl Pts',(-44.8462959380184,-4.2,8.90198312916517));
#1344=CARTESIAN_POINT('Origin',(-3.90831632413033E-15,0.981581145094319,
11.1815811450943));
#1345=CARTESIAN_POINT('Origin',(-22.8791526285394,-3.4,6.8));
#1346=CARTESIAN_POINT('',(-56.6833308830734,-4.2,5.99999999999999));
#1347=CARTESIAN_POINT('',(-22.8791526285393,-4.2,6.));
#1348=CARTESIAN_POINT('Origin',(5.77315972805081E-14,-10.1999999999999,
1.15463194561016E-13));
#1349=CARTESIAN_POINT('Ctrl Pts',(-44.7127485923048,-5.55604150273478,-7.62312429120672));
#1350=CARTESIAN_POINT('Ctrl Pts',(-44.8219442415313,-4.57319573713436,-8.54960758797085));
#1351=CARTESIAN_POINT('Ctrl Pts',(-44.9044474618121,-3.58726288131145,-9.47992466840534));
#1352=CARTESIAN_POINT('Ctrl Pts',(-44.9600347703229,-2.6,-10.4123855792682));
#1353=CARTESIAN_POINT('Ctrl Pts',(-44.928045812009,-5.07769014818095,-7.12295805441213));
#1354=CARTESIAN_POINT('Ctrl Pts',(-45.0448743293838,-4.10072220841266,-8.05865100328181));
#1355=CARTESIAN_POINT('Ctrl Pts',(-45.1340220793874,-3.12018678655701,-8.99839287811936));
#1356=CARTESIAN_POINT('Ctrl Pts',(-45.196278258263,-2.13839117441792,-9.940512204595));
#1357=CARTESIAN_POINT('Ctrl Pts',(-45.7608714726726,-4.36888553721126,-6.32976780325893));
#1358=CARTESIAN_POINT('Ctrl Pts',(-45.8785196465089,-3.39884842359881,-7.28854506648904));
#1359=CARTESIAN_POINT('Ctrl Pts',(-45.968457885033,-2.4253357516607,-8.25118594992222));
#1360=CARTESIAN_POINT('Ctrl Pts',(-46.030213912967,-1.44996721765118,-9.21585455715096));
#1361=CARTESIAN_POINT('Ctrl Pts',(-47.0270951199487,-4.18370860331219,-6.01629139668782));
#1362=CARTESIAN_POINT('Ctrl Pts',(-47.1320742144327,-3.20641964747066,-6.99364442073951));
#1363=CARTESIAN_POINT('Ctrl Pts',(-47.2089775194048,-2.22578585596892,-7.9741588167452));
#1364=CARTESIAN_POINT('Ctrl Pts',(-47.2575077630778,-1.2437186905199,-8.95628130948014));
#1365=CARTESIAN_POINT('Ctrl Pts',(-47.5693073647702,-4.21117829448269,-5.98882170551732));
#1366=CARTESIAN_POINT('Ctrl Pts',(-47.6688937164512,-3.22833252888227,-6.97166747111774));
#1367=CARTESIAN_POINT('Ctrl Pts',(-47.7401982339539,-2.24239967305937,-7.95760032694067));
#1368=CARTESIAN_POINT('Ctrl Pts',(-47.7830938430538,-1.25513679174793,-8.94486320825212));
#1369=CARTESIAN_POINT('',(-44.9600347703229,-2.6,-10.4123855792682));
#1370=CARTESIAN_POINT('',(-47.7070334162923,-2.6,-7.60000000000002));
#1371=CARTESIAN_POINT('Ctrl Pts',(-44.9600347703229,-2.6,-10.4123855792682));
#1372=CARTESIAN_POINT('Ctrl Pts',(-45.1020057289102,-2.6,-9.79936379037395));
#1373=CARTESIAN_POINT('Ctrl Pts',(-45.3396436125285,-2.59999999903015,-9.24591357245086));
#1374=CARTESIAN_POINT('Ctrl Pts',(-45.9036654390151,-2.59999999903015,-8.44275303054191));
#1375=CARTESIAN_POINT('Ctrl Pts',(-46.1905406659887,-2.59999999993298,-8.1624485419181));
#1376=CARTESIAN_POINT('Ctrl Pts',(-46.6886407313383,-2.59999999993298,-7.84536219878349));
#1377=CARTESIAN_POINT('Ctrl Pts',(-46.8836001885672,-2.60000000000009,-7.75362349037185));
#1378=CARTESIAN_POINT('Ctrl Pts',(-47.2905582973752,-2.60000000000009,-7.63100048584337));
#1379=CARTESIAN_POINT('Ctrl Pts',(-47.4973709521528,-2.6,-7.60000000000003));
#1380=CARTESIAN_POINT('Ctrl Pts',(-47.7070334162923,-2.6,-7.60000000000003));
#1381=CARTESIAN_POINT('',(-47.5704387672737,-4.2,-6.00000000000001));
#1382=CARTESIAN_POINT('Origin',(-4.73400688329152E-16,0.981581145094303,
-11.1815811450943));
#1383=CARTESIAN_POINT('',(-44.8462959394745,-4.19999999152349,-8.9019831451605));
#1384=CARTESIAN_POINT('Ctrl Pts',(-44.8462959380184,-4.2,-8.90198312916519));
#1385=CARTESIAN_POINT('Ctrl Pts',(-44.9690235056556,-4.2,-8.28370776982635));
#1386=CARTESIAN_POINT('Ctrl Pts',(-45.1893760496167,-4.19999999901324,-7.72200804399325));
#1387=CARTESIAN_POINT('Ctrl Pts',(-45.7112909104624,-4.19999999901324,-6.92631168721176));
#1388=CARTESIAN_POINT('Ctrl Pts',(-45.9824770865315,-4.19999999957964,-6.6289697059012));
#1389=CARTESIAN_POINT('Ctrl Pts',(-46.4966329774899,-4.19999999957964,-6.27553482406429));
#1390=CARTESIAN_POINT('Ctrl Pts',(-46.7004400183812,-4.20000000000014,-6.17257309183519));
#1391=CARTESIAN_POINT('Ctrl Pts',(-47.1293314762218,-4.20000000000014,-6.03474439359623));
#1392=CARTESIAN_POINT('Ctrl Pts',(-47.348181222874,-4.2,-6.00000000000003));
#1393=CARTESIAN_POINT('Ctrl Pts',(-47.5704387672737,-4.2,-6.00000000000003));
#1394=CARTESIAN_POINT('Ctrl Pts',(-44.8462943560083,-4.20000001536595,-8.90198328702582));
#1395=CARTESIAN_POINT('Ctrl Pts',(-44.8920533679519,-3.66724069067024,-9.40464585391583));
#1396=CARTESIAN_POINT('Ctrl Pts',(-44.9299786153474,-3.13381476738516,-9.90820233319416));
#1397=CARTESIAN_POINT('Ctrl Pts',(-44.9600347703229,-2.6,-10.4123855792682));
#1398=CARTESIAN_POINT('Origin',(0.,-2.6,0.));
#1399=CARTESIAN_POINT('Origin',(0.,-2.6,0.));
#1400=CARTESIAN_POINT('Origin',(0.,-4.2,0.));
#1401=CARTESIAN_POINT('Origin',(0.,-2.6,0.));
#1402=CARTESIAN_POINT('Origin',(0.,-4.2,0.));
#1403=CARTESIAN_POINT('Origin',(-28.3416654415367,-3.4,-6.80000000000001));
#1404=CARTESIAN_POINT('',(-56.4910612398101,-2.6,-7.60000000000002));
#1405=CARTESIAN_POINT('',(-28.3416654415367,-2.6,-7.60000000000001));
#1406=CARTESIAN_POINT('',(-56.6833308830733,-4.2,-6.00000000000002));
#1407=CARTESIAN_POINT('Origin',(5.77315972805081E-14,-10.2000000000001,
1.15463194561016E-13));
#1408=CARTESIAN_POINT('',(-28.3416654415366,-4.2,-6.00000000000001));
#1409=CARTESIAN_POINT('Origin',(-7.105427357601E-14,-2.6,0.));
#1410=CARTESIAN_POINT('',(11.5884677485505,-2.6,-55.8095638330995));
#1411=CARTESIAN_POINT('Origin',(5.77315972805081E-14,-2.6,1.15463194561016E-13));
#1412=CARTESIAN_POINT('',(8.13111972568294,-2.6,-53.4013566494954));
#1413=CARTESIAN_POINT('Origin',(10.9988790385365,-2.6,-52.9701298836962));
#1414=CARTESIAN_POINT('',(7.60981597014595,-2.6,-49.9345641905535));
#1415=CARTESIAN_POINT('',(4.11500398892523,-2.6,-26.6932433805098));
#1416=CARTESIAN_POINT('',(4.26587563765789,-2.6,-47.3080575065605));
#1417=CARTESIAN_POINT('Origin',(4.54428015295767,-2.6,-50.3955307333045));
#1418=CARTESIAN_POINT('',(-4.26587563765786,-2.6,-47.3080575065605));
#1419=CARTESIAN_POINT('Origin',(5.77315972805081E-14,-2.6,1.15463194561016E-13));
#1420=CARTESIAN_POINT('',(-7.60981597014594,-2.6,-49.9345641905535));
#1421=CARTESIAN_POINT('Origin',(-4.54428015295765,-2.6,-50.3955307333045));
#1422=CARTESIAN_POINT('',(-8.11538566263432,-2.6,-53.2967214333741));
#1423=CARTESIAN_POINT('',(-3.8543521111567,-2.6,-24.9598471510389));
#1424=CARTESIAN_POINT('',(-11.6977017403028,-2.6,-55.7867706001601));
#1425=CARTESIAN_POINT('Origin',(-11.0820332276552,-2.6,-52.850624779099));
#1426=CARTESIAN_POINT('Origin',(5.77315972805081E-14,-2.6,1.15463194561016E-13));
#1427=CARTESIAN_POINT('',(-31.8867099092257,-2.6,-36.486709909226));
#1428=CARTESIAN_POINT('Origin',(-36.4867099092257,-2.6,-36.486709909226));
#1429=CARTESIAN_POINT('',(41.086709909226,-2.6,-36.4867099092257));
#1430=CARTESIAN_POINT('Origin',(36.486709909226,-2.6,-36.4867099092257));
#1431=CARTESIAN_POINT('Origin',(7.54951656745106E-14,-4.2,5.55111512312578E-16));
#1432=CARTESIAN_POINT('Origin',(5.77315972805081E-14,-4.2,1.15463194561016E-13));
#1433=CARTESIAN_POINT('Origin',(5.77315972805081E-14,-4.2,1.15463194561016E-13));
#1434=CARTESIAN_POINT('',(35.7787187078898,-4.2,4.38162933432108E-15));
#1435=CARTESIAN_POINT('Origin',(0.,-4.2,0.));
#1436=CARTESIAN_POINT('Origin',(5.77315972805081E-14,-5.6,1.15463194561016E-13));
#1437=CARTESIAN_POINT('',(11.6977017403028,-5.4,55.7867706001604));
#1438=CARTESIAN_POINT('',(11.6977017403028,-5.6,55.7867706001604));
#1439=CARTESIAN_POINT('',(11.5884677485505,-5.4,-55.8095638330995));
#1440=CARTESIAN_POINT('Origin',(5.77315972805081E-14,-5.4,1.15463194561016E-13));
#1441=CARTESIAN_POINT('',(11.5884677485505,-5.6,-55.8095638330995));
#1442=CARTESIAN_POINT('Origin',(5.77315972805081E-14,-5.6,1.15463194561016E-13));
#1443=CARTESIAN_POINT('',(-11.6977017403028,-5.4,-55.7867706001601));
#1444=CARTESIAN_POINT('',(-11.6977017403028,-5.6,-55.7867706001601));
#1445=CARTESIAN_POINT('',(-11.5884677485504,-5.4,55.8095638330995));
#1446=CARTESIAN_POINT('Origin',(5.77315972805081E-14,-5.4,1.15463194561016E-13));
#1447=CARTESIAN_POINT('',(-11.5884677485504,-5.6,55.8095638330995));
#1448=CARTESIAN_POINT('Origin',(-11.0820332276552,-5.6,-52.850624779099));
#1449=CARTESIAN_POINT('',(-8.11538566263432,-5.4,-53.2967214333741));
#1450=CARTESIAN_POINT('Origin',(-11.0820332276552,-5.4,-52.850624779099));
#1451=CARTESIAN_POINT('',(-8.11538566263432,-5.6,-53.2967214333741));
#1452=CARTESIAN_POINT('Origin',(-7.60981597014594,-5.6,-49.9345641905535));
#1453=CARTESIAN_POINT('',(-7.60981597014594,-5.4,-49.9345641905535));
#1454=CARTESIAN_POINT('',(-7.60981597014594,-5.6,-49.9345641905535));
#1455=CARTESIAN_POINT('',(-3.8543521111567,-5.4,-24.9598471510389));
#1456=CARTESIAN_POINT('Origin',(11.0820332276553,-5.6,52.8506247790993));
#1457=CARTESIAN_POINT('',(8.11538566263436,-5.4,53.2967214333744));
#1458=CARTESIAN_POINT('Origin',(11.0820332276553,-5.4,52.8506247790993));
#1459=CARTESIAN_POINT('',(8.11538566263436,-5.6,53.2967214333744));
#1460=CARTESIAN_POINT('Origin',(7.60981597014594,-5.6,49.9345641905535));
#1461=CARTESIAN_POINT('',(7.60981597014594,-5.4,49.9345641905535));
#1462=CARTESIAN_POINT('',(7.60981597014594,-5.6,49.9345641905535));
#1463=CARTESIAN_POINT('',(3.85435211115672,-5.4,24.9598471510388));
#1464=CARTESIAN_POINT('Origin',(36.4867099092257,-4.4,36.486709909226));
#1465=CARTESIAN_POINT('',(39.0867099092257,-4.4,36.486709909226));
#1466=CARTESIAN_POINT('Origin',(36.4867099092257,-4.4,36.486709909226));
#1467=CARTESIAN_POINT('',(39.0867099092257,-5.4,36.486709909226));
#1468=CARTESIAN_POINT('',(39.0867099092257,-4.4,36.486709909226));
#1469=CARTESIAN_POINT('Origin',(36.4867099092257,-5.4,36.486709909226));
#1470=CARTESIAN_POINT('Origin',(36.486709909226,-4.4,-36.4867099092257));
#1471=CARTESIAN_POINT('',(39.086709909226,-4.4,-36.4867099092257));
#1472=CARTESIAN_POINT('Origin',(36.486709909226,-4.4,-36.4867099092257));
#1473=CARTESIAN_POINT('',(39.086709909226,-5.4,-36.4867099092257));
#1474=CARTESIAN_POINT('',(39.086709909226,-4.4,-36.4867099092257));
#1475=CARTESIAN_POINT('Origin',(36.486709909226,-5.4,-36.4867099092257));
#1476=CARTESIAN_POINT('Origin',(-36.486709909226,-4.4,36.4867099092257));
#1477=CARTESIAN_POINT('',(-33.886709909226,-4.4,36.4867099092257));
#1478=CARTESIAN_POINT('Origin',(-36.486709909226,-4.4,36.4867099092257));
#1479=CARTESIAN_POINT('',(-33.886709909226,-5.4,36.4867099092257));
#1480=CARTESIAN_POINT('',(-33.886709909226,-4.4,36.4867099092257));
#1481=CARTESIAN_POINT('Origin',(-36.486709909226,-5.4,36.4867099092257));
#1482=CARTESIAN_POINT('Origin',(-36.4867099092257,-4.4,-36.486709909226));
#1483=CARTESIAN_POINT('',(-33.8867099092257,-4.4,-36.486709909226));
#1484=CARTESIAN_POINT('Origin',(-36.4867099092257,-4.4,-36.486709909226));
#1485=CARTESIAN_POINT('',(-33.8867099092257,-5.4,-36.486709909226));
#1486=CARTESIAN_POINT('',(-33.8867099092257,-4.4,-36.486709909226));
#1487=CARTESIAN_POINT('Origin',(-36.4867099092257,-5.4,-36.486709909226));
#1488=CARTESIAN_POINT('Origin',(0.,-2.6,0.));
#1489=CARTESIAN_POINT('',(35.35,-2.6,-4.32912643498589E-15));
#1490=CARTESIAN_POINT('',(35.35,-2.6,4.32912643498589E-15));
#1491=CARTESIAN_POINT('Origin',(0.,-2.6,0.));
#1492=CARTESIAN_POINT('Origin',(36.486709909226,-2.6,-36.4867099092257));
#1493=CARTESIAN_POINT('',(41.086709909226,-4.4,-36.4867099092257));
#1494=CARTESIAN_POINT('',(41.086709909226,-2.6,-36.4867099092257));
#1495=CARTESIAN_POINT('Origin',(36.486709909226,-4.4,-36.4867099092257));
#1496=CARTESIAN_POINT('Origin',(36.486709909226,-4.4,-36.4867099092257));
#1497=CARTESIAN_POINT('Origin',(36.4867099092257,-2.6,36.486709909226));
#1498=CARTESIAN_POINT('',(41.0867099092257,-4.4,36.486709909226));
#1499=CARTESIAN_POINT('',(41.0867099092257,-2.6,36.486709909226));
#1500=CARTESIAN_POINT('Origin',(36.4867099092257,-4.4,36.486709909226));
#1501=CARTESIAN_POINT('Origin',(36.4867099092257,-4.4,36.486709909226));
#1502=CARTESIAN_POINT('Origin',(-36.4867099092257,-2.6,-36.486709909226));
#1503=CARTESIAN_POINT('',(-31.8867099092257,-4.4,-36.486709909226));
#1504=CARTESIAN_POINT('',(-31.8867099092257,-2.6,-36.486709909226));
#1505=CARTESIAN_POINT('Origin',(-36.4867099092257,-4.4,-36.486709909226));
#1506=CARTESIAN_POINT('Origin',(-36.4867099092257,-4.4,-36.486709909226));
#1507=CARTESIAN_POINT('Origin',(-36.486709909226,-2.6,36.4867099092257));
#1508=CARTESIAN_POINT('',(-31.886709909226,-4.4,36.4867099092257));
#1509=CARTESIAN_POINT('',(-31.886709909226,-2.6,36.4867099092257));
#1510=CARTESIAN_POINT('Origin',(-36.486709909226,-4.4,36.4867099092257));
#1511=CARTESIAN_POINT('Origin',(-36.486709909226,-4.4,36.4867099092257));
#1512=CARTESIAN_POINT('Origin',(5.77315972805081E-14,-5.6,1.15463194561016E-13));
#1513=CARTESIAN_POINT('',(12.1000000000001,-2.6,1.13981371934048E-13));
#1514=CARTESIAN_POINT('Origin',(5.77315972805081E-14,-2.6,1.15463194561016E-13));
#1515=CARTESIAN_POINT('',(12.1000000000001,-5.4,1.13981371934048E-13));
#1516=CARTESIAN_POINT('',(12.1000000000001,-5.6,1.13981371934048E-13));
#1517=CARTESIAN_POINT('Origin',(5.77315972805081E-14,-5.4,1.15463194561016E-13));
#1518=CARTESIAN_POINT('Origin',(4.54428015295766,-5.6,50.3955307333045));
#1519=CARTESIAN_POINT('',(4.26587563765786,-5.4,47.3080575065605));
#1520=CARTESIAN_POINT('Origin',(4.54428015295766,-5.4,50.3955307333045));
#1521=CARTESIAN_POINT('',(4.26587563765786,-5.6,47.3080575065605));
#1522=CARTESIAN_POINT('Origin',(5.77315972805081E-14,-5.6,1.15463194561016E-13));
#1523=CARTESIAN_POINT('',(-4.26587563765788,-5.4,47.3080575065605));
#1524=CARTESIAN_POINT('Origin',(5.77315972805081E-14,-5.4,1.15463194561016E-13));
#1525=CARTESIAN_POINT('',(-4.26587563765788,-5.6,47.3080575065605));
#1526=CARTESIAN_POINT('Origin',(-4.54428015295766,-5.6,50.3955307333045));
#1527=CARTESIAN_POINT('',(-7.60981597014595,-5.4,49.9345641905536));
#1528=CARTESIAN_POINT('Origin',(-4.54428015295766,-5.4,50.3955307333045));
#1529=CARTESIAN_POINT('',(-7.60981597014595,-5.6,49.9345641905536));
#1530=CARTESIAN_POINT('Origin',(-8.13111972568294,-5.6,53.4013566494954));
#1531=CARTESIAN_POINT('',(-8.13111972568294,-5.4,53.4013566494954));
#1532=CARTESIAN_POINT('',(-4.11500398892518,-5.4,26.6932433805098));
#1533=CARTESIAN_POINT('',(-8.13111972568294,-5.6,53.4013566494954));
#1534=CARTESIAN_POINT('Origin',(-10.9988790385365,-5.6,52.9701298836962));
#1535=CARTESIAN_POINT('Origin',(-10.9988790385365,-5.4,52.9701298836962));
#1536=CARTESIAN_POINT('Origin',(-4.54428015295765,-5.6,-50.3955307333045));
#1537=CARTESIAN_POINT('',(-4.26587563765786,-5.4,-47.3080575065605));
#1538=CARTESIAN_POINT('Origin',(-4.54428015295765,-5.4,-50.3955307333045));
#1539=CARTESIAN_POINT('',(-4.26587563765786,-5.6,-47.3080575065605));
#1540=CARTESIAN_POINT('Origin',(5.77315972805081E-14,-5.6,1.15463194561016E-13));
#1541=CARTESIAN_POINT('',(4.26587563765789,-5.4,-47.3080575065605));
#1542=CARTESIAN_POINT('Origin',(5.77315972805081E-14,-5.4,1.15463194561016E-13));
#1543=CARTESIAN_POINT('',(4.26587563765789,-5.6,-47.3080575065605));
#1544=CARTESIAN_POINT('Origin',(4.54428015295767,-5.6,-50.3955307333045));
#1545=CARTESIAN_POINT('',(7.60981597014595,-5.4,-49.9345641905535));
#1546=CARTESIAN_POINT('Origin',(4.54428015295767,-5.4,-50.3955307333045));
#1547=CARTESIAN_POINT('',(7.60981597014595,-5.6,-49.9345641905535));
#1548=CARTESIAN_POINT('Origin',(8.13111972568294,-5.6,-53.4013566494954));
#1549=CARTESIAN_POINT('',(8.13111972568294,-5.4,-53.4013566494954));
#1550=CARTESIAN_POINT('',(4.11500398892523,-5.4,-26.6932433805098));
#1551=CARTESIAN_POINT('',(8.13111972568294,-5.6,-53.4013566494954));
#1552=CARTESIAN_POINT('Origin',(10.9988790385365,-5.6,-52.9701298836962));
#1553=CARTESIAN_POINT('Origin',(10.9988790385365,-5.4,-52.9701298836962));
#1554=CARTESIAN_POINT('Origin',(-7.105427357601E-14,-2.6,0.));
#1555=CARTESIAN_POINT('Origin',(-7.105427357601E-14,-5.4,0.));
#1556=UNCERTAINTY_MEASURE_WITH_UNIT(LENGTH_MEASURE(0.01),#1560,
'DISTANCE_ACCURACY_VALUE',
'Maximum model space distance between geometric entities at asserted c
onnectivities');
#1557=UNCERTAINTY_MEASURE_WITH_UNIT(LENGTH_MEASURE(0.01),#1560,
'DISTANCE_ACCURACY_VALUE',
'Maximum model space distance between geometric entities at asserted c
onnectivities');
#1558=(
GEOMETRIC_REPRESENTATION_CONTEXT(3)
GLOBAL_UNCERTAINTY_ASSIGNED_CONTEXT((#1556))
GLOBAL_UNIT_ASSIGNED_CONTEXT((#1560,#1562,#1563))
REPRESENTATION_CONTEXT('','3D')
);
#1559=(
GEOMETRIC_REPRESENTATION_CONTEXT(3)
GLOBAL_UNCERTAINTY_ASSIGNED_CONTEXT((#1557))
GLOBAL_UNIT_ASSIGNED_CONTEXT((#1560,#1562,#1563))
REPRESENTATION_CONTEXT('','3D')
);
#1560=(
LENGTH_UNIT()
NAMED_UNIT(*)
SI_UNIT(.MILLI.,.METRE.)
);
#1561=(
LENGTH_UNIT()
NAMED_UNIT(*)
SI_UNIT($,.METRE.)
);
#1562=(
NAMED_UNIT(*)
PLANE_ANGLE_UNIT()
SI_UNIT($,.RADIAN.)
);
#1563=(
NAMED_UNIT(*)
SI_UNIT($,.STERADIAN.)
SOLID_ANGLE_UNIT()
);
#1564=SHAPE_DEFINITION_REPRESENTATION(#1565,#1566);
#1565=PRODUCT_DEFINITION_SHAPE('',$,#1568);
#1566=SHAPE_REPRESENTATION('',(#812),#1558);
#1567=PRODUCT_DEFINITION_CONTEXT('part definition',#1572,'design');
#1568=PRODUCT_DEFINITION('2026-08-29-11-09-39-890','(Unsaved)',#1569,#1567);
#1569=PRODUCT_DEFINITION_FORMATION('',$,#1574);
#1570=PRODUCT_RELATED_PRODUCT_CATEGORY('(Unsaved)','(Unsaved)',(#1574));
#1571=APPLICATION_PROTOCOL_DEFINITION('international standard',
'automotive_design',2009,#1572);
#1572=APPLICATION_CONTEXT(
'Core Data for Automotive Mechanical Design Process');
#1573=PRODUCT_CONTEXT('part definition',#1572,'mechanical');
#1574=PRODUCT('2026-08-29-11-09-39-890','(Unsaved)',$,(#1573));
#1575=PRESENTATION_STYLE_ASSIGNMENT((#1576));
#1576=SURFACE_STYLE_USAGE(.BOTH.,#1577);
#1577=SURFACE_SIDE_STYLE('',(#1578));
#1578=SURFACE_STYLE_FILL_AREA(#1579);
#1579=FILL_AREA_STYLE('Steel - Satin',(#1580));
#1580=FILL_AREA_STYLE_COLOUR('Steel - Satin',#1581);
#1581=COLOUR_RGB('Steel - Satin',0.627450980392157,0.627450980392157,0.627450980392157);
ENDSEC;
END-ISO-10303-21;
