ISO-10303-21;
HEADER;
/* Generated by software containing ST-Developer
 * from STEP Tools, Inc. (www.steptools.com) 
 */

FILE_DESCRIPTION(
/* description */ (''),
/* implementation_level */ '2;1');

FILE_NAME(
/* name */ 'freestanding-base-outer-shell-lid_v1.0.step',
/* time_stamp */ '2026-08-29T11:09:43-05:00',
/* author */ (''),
/* organization */ (''),
/* preprocessor_version */ 'ST-DEVELOPER v20.1',
/* originating_system */ 'Autodesk Translation Framework v15.8.0.0',
/* authorisation */ '');

FILE_SCHEMA (('AUTOMOTIVE_DESIGN { 1 0 10303 214 3 1 1 }'));
ENDSEC;

DATA;
#10=MECHANICAL_DESIGN_GEOMETRIC_PRESENTATION_REPRESENTATION('',(#13,#14),
#855);
#11=SHAPE_REPRESENTATION_RELATIONSHIP('SRR','None',#862,#12);
#12=ADVANCED_BREP_SHAPE_REPRESENTATION('',(#15,#16),#854);
#13=STYLED_ITEM('',(#871),#15);
#14=STYLED_ITEM('',(#871),#16);
#15=MANIFOLD_SOLID_BREP('Body1',#493);
#16=MANIFOLD_SOLID_BREP('Body1',#494);
#17=FACE_BOUND('',#77,.T.);
#18=FACE_BOUND('',#86,.T.);
#19=FACE_BOUND('',#88,.T.);
#20=PLANE('',#511);
#21=PLANE('',#513);
#22=PLANE('',#516);
#23=PLANE('',#517);
#24=PLANE('',#518);
#25=PLANE('',#519);
#26=PLANE('',#526);
#27=PLANE('',#542);
#28=PLANE('',#546);
#29=PLANE('',#547);
#30=PLANE('',#548);
#31=PLANE('',#551);
#32=PLANE('',#552);
#33=PLANE('',#553);
#34=PLANE('',#554);
#35=PLANE('',#557);
#36=PLANE('',#559);
#37=FACE_OUTER_BOUND('',#66,.T.);
#38=FACE_OUTER_BOUND('',#67,.T.);
#39=FACE_OUTER_BOUND('',#68,.T.);
#40=FACE_OUTER_BOUND('',#69,.T.);
#41=FACE_OUTER_BOUND('',#70,.T.);
#42=FACE_OUTER_BOUND('',#71,.T.);
#43=FACE_OUTER_BOUND('',#72,.T.);
#44=FACE_OUTER_BOUND('',#73,.T.);
#45=FACE_OUTER_BOUND('',#74,.T.);
#46=FACE_OUTER_BOUND('',#75,.T.);
#47=FACE_OUTER_BOUND('',#76,.T.);
#48=FACE_OUTER_BOUND('',#78,.T.);
#49=FACE_OUTER_BOUND('',#79,.T.);
#50=FACE_OUTER_BOUND('',#80,.T.);
#51=FACE_OUTER_BOUND('',#81,.T.);
#52=FACE_OUTER_BOUND('',#82,.T.);
#53=FACE_OUTER_BOUND('',#83,.T.);
#54=FACE_OUTER_BOUND('',#84,.T.);
#55=FACE_OUTER_BOUND('',#85,.T.);
#56=FACE_OUTER_BOUND('',#87,.T.);
#57=FACE_OUTER_BOUND('',#89,.T.);
#58=FACE_OUTER_BOUND('',#90,.T.);
#59=FACE_OUTER_BOUND('',#91,.T.);
#60=FACE_OUTER_BOUND('',#92,.T.);
#61=FACE_OUTER_BOUND('',#93,.T.);
#62=FACE_OUTER_BOUND('',#94,.T.);
#63=FACE_OUTER_BOUND('',#95,.T.);
#64=FACE_OUTER_BOUND('',#96,.T.);
#65=FACE_OUTER_BOUND('',#97,.T.);
#66=EDGE_LOOP('',(#318,#319,#320,#321));
#67=EDGE_LOOP('',(#322,#323,#324,#325));
#68=EDGE_LOOP('',(#326,#327,#328,#329));
#69=EDGE_LOOP('',(#330,#331,#332,#333));
#70=EDGE_LOOP('',(#334,#335,#336,#337));
#71=EDGE_LOOP('',(#338,#339,#340,#341));
#72=EDGE_LOOP('',(#342,#343,#344,#345,#346,#347));
#73=EDGE_LOOP('',(#348,#349,#350,#351));
#74=EDGE_LOOP('',(#352,#353,#354,#355));
#75=EDGE_LOOP('',(#356,#357,#358,#359));
#76=EDGE_LOOP('',(#360));
#77=EDGE_LOOP('',(#361));
#78=EDGE_LOOP('',(#362,#363,#364,#365));
#79=EDGE_LOOP('',(#366,#367,#368,#369,#370));
#80=EDGE_LOOP('',(#371,#372,#373,#374,#375));
#81=EDGE_LOOP('',(#376,#377,#378,#379));
#82=EDGE_LOOP('',(#380,#381,#382,#383,#384));
#83=EDGE_LOOP('',(#385,#386,#387,#388,#389));
#84=EDGE_LOOP('',(#390,#391,#392,#393));
#85=EDGE_LOOP('',(#394,#395,#396,#397,#398,#399,#400,#401));
#86=EDGE_LOOP('',(#402));
#87=EDGE_LOOP('',(#403,#404,#405,#406,#407,#408,#409,#410,#411,#412));
#88=EDGE_LOOP('',(#413));
#89=EDGE_LOOP('',(#414,#415,#416,#417,#418,#419));
#90=EDGE_LOOP('',(#420,#421,#422,#423));
#91=EDGE_LOOP('',(#424,#425,#426,#427));
#92=EDGE_LOOP('',(#428,#429,#430,#431));
#93=EDGE_LOOP('',(#432,#433,#434,#435));
#94=EDGE_LOOP('',(#436,#437,#438,#439));
#95=EDGE_LOOP('',(#440,#441,#442,#443));
#96=EDGE_LOOP('',(#444,#445,#446,#447));
#97=EDGE_LOOP('',(#448,#449,#450,#451));
#98=ELLIPSE('',#510,1.41421356237309,1.);
#99=ELLIPSE('',#512,1.41421356237309,1.);
#100=ELLIPSE('',#556,1.41421356237309,1.);
#101=ELLIPSE('',#558,1.41421356237309,1.);
#102=LINE('',#718,#145);
#103=LINE('',#721,#146);
#104=LINE('',#724,#147);
#105=LINE('',#727,#148);
#106=LINE('',#730,#149);
#107=LINE('',#731,#150);
#108=LINE('',#735,#151);
#109=LINE('',#738,#152);
#110=LINE('',#740,#153);
#111=LINE('',#741,#154);
#112=LINE('',#744,#155);
#113=LINE('',#746,#156);
#114=LINE('',#747,#157);
#115=LINE('',#749,#158);
#116=LINE('',#752,#159);
#117=LINE('',#754,#160);
#118=LINE('',#755,#161);
#119=LINE('',#760,#162);
#120=LINE('',#766,#163);
#121=LINE('',#774,#164);
#122=LINE('',#777,#165);
#123=LINE('',#786,#166);
#124=LINE('',#792,#167);
#125=LINE('',#799,#168);
#126=LINE('',#800,#169);
#127=LINE('',#803,#170);
#128=LINE('',#805,#171);
#129=LINE('',#806,#172);
#130=LINE('',#817,#173);
#131=LINE('',#821,#174);
#132=LINE('',#823,#175);
#133=LINE('',#824,#176);
#134=LINE('',#828,#177);
#135=LINE('',#830,#178);
#136=LINE('',#832,#179);
#137=LINE('',#833,#180);
#138=LINE('',#835,#181);
#139=LINE('',#836,#182);
#140=LINE('',#838,#183);
#141=LINE('',#840,#184);
#142=LINE('',#843,#185);
#143=LINE('',#848,#186);
#144=LINE('',#850,#187);
#145=VECTOR('',#567,10.);
#146=VECTOR('',#570,10.);
#147=VECTOR('',#573,10.);
#148=VECTOR('',#576,10.);
#149=VECTOR('',#579,10.);
#150=VECTOR('',#580,10.);
#151=VECTOR('',#585,10.);
#152=VECTOR('',#588,10.);
#153=VECTOR('',#589,10.);
#154=VECTOR('',#590,10.);
#155=VECTOR('',#593,10.);
#156=VECTOR('',#594,10.);
#157=VECTOR('',#595,10.);
#158=VECTOR('',#598,10.);
#159=VECTOR('',#601,10.);
#160=VECTOR('',#602,10.);
#161=VECTOR('',#603,10.);
#162=VECTOR('',#608,2.55);
#163=VECTOR('',#615,4.6);
#164=VECTOR('',#624,10.);
#165=VECTOR('',#627,10.);
#166=VECTOR('',#640,10.);
#167=VECTOR('',#647,10.);
#168=VECTOR('',#654,10.);
#169=VECTOR('',#655,10.);
#170=VECTOR('',#658,10.);
#171=VECTOR('',#659,10.);
#172=VECTOR('',#660,10.);
#173=VECTOR('',#675,10.);
#174=VECTOR('',#678,10.);
#175=VECTOR('',#679,10.);
#176=VECTOR('',#680,10.);
#177=VECTOR('',#683,10.);
#178=VECTOR('',#684,10.);
#179=VECTOR('',#685,10.);
#180=VECTOR('',#686,10.);
#181=VECTOR('',#689,10.);
#182=VECTOR('',#690,10.);
#183=VECTOR('',#693,10.);
#184=VECTOR('',#696,10.);
#185=VECTOR('',#699,10.);
#186=VECTOR('',#706,10.);
#187=VECTOR('',#709,10.);
#188=CIRCLE('',#509,1.);
#189=CIRCLE('',#515,1.);
#190=CIRCLE('',#521,2.55);
#191=CIRCLE('',#522,2.55);
#192=CIRCLE('',#524,4.6);
#193=CIRCLE('',#525,4.6);
#194=CIRCLE('',#528,63.65);
#195=CIRCLE('',#529,63.65);
#196=CIRCLE('',#531,2.84999999999999);
#197=CIRCLE('',#532,2.84999999999999);
#198=CIRCLE('',#534,2.85);
#199=CIRCLE('',#535,2.85);
#200=CIRCLE('',#537,81.35);
#201=CIRCLE('',#538,81.35);
#202=CIRCLE('',#540,2.85000000000018);
#203=CIRCLE('',#541,2.85000000000018);
#204=CIRCLE('',#544,2.85);
#205=CIRCLE('',#545,2.85);
#206=CIRCLE('',#549,1.);
#207=CIRCLE('',#550,1.);
#208=VERTEX_POINT('',#714);
#209=VERTEX_POINT('',#715);
#210=VERTEX_POINT('',#717);
#211=VERTEX_POINT('',#719);
#212=VERTEX_POINT('',#723);
#213=VERTEX_POINT('',#725);
#214=VERTEX_POINT('',#729);
#215=VERTEX_POINT('',#733);
#216=VERTEX_POINT('',#737);
#217=VERTEX_POINT('',#739);
#218=VERTEX_POINT('',#743);
#219=VERTEX_POINT('',#745);
#220=VERTEX_POINT('',#751);
#221=VERTEX_POINT('',#753);
#222=VERTEX_POINT('',#757);
#223=VERTEX_POINT('',#759);
#224=VERTEX_POINT('',#763);
#225=VERTEX_POINT('',#765);
#226=VERTEX_POINT('',#770);
#227=VERTEX_POINT('',#771);
#228=VERTEX_POINT('',#773);
#229=VERTEX_POINT('',#775);
#230=VERTEX_POINT('',#782);
#231=VERTEX_POINT('',#784);
#232=VERTEX_POINT('',#788);
#233=VERTEX_POINT('',#790);
#234=VERTEX_POINT('',#794);
#235=VERTEX_POINT('',#796);
#236=VERTEX_POINT('',#798);
#237=VERTEX_POINT('',#802);
#238=VERTEX_POINT('',#804);
#239=VERTEX_POINT('',#813);
#240=VERTEX_POINT('',#814);
#241=VERTEX_POINT('',#816);
#242=VERTEX_POINT('',#818);
#243=VERTEX_POINT('',#820);
#244=VERTEX_POINT('',#822);
#245=VERTEX_POINT('',#826);
#246=VERTEX_POINT('',#827);
#247=VERTEX_POINT('',#829);
#248=VERTEX_POINT('',#831);
#249=VERTEX_POINT('',#842);
#250=VERTEX_POINT('',#846);
#251=EDGE_CURVE('',#208,#209,#188,.T.);
#252=EDGE_CURVE('',#209,#210,#102,.T.);
#253=EDGE_CURVE('',#210,#211,#98,.T.);
#254=EDGE_CURVE('',#211,#208,#103,.T.);
#255=EDGE_CURVE('',#210,#212,#104,.T.);
#256=EDGE_CURVE('',#213,#212,#99,.T.);
#257=EDGE_CURVE('',#213,#211,#105,.T.);
#258=EDGE_CURVE('',#214,#209,#106,.T.);
#259=EDGE_CURVE('',#212,#214,#107,.T.);
#260=EDGE_CURVE('',#214,#215,#189,.T.);
#261=EDGE_CURVE('',#215,#213,#108,.T.);
#262=EDGE_CURVE('',#216,#211,#109,.T.);
#263=EDGE_CURVE('',#217,#216,#110,.T.);
#264=EDGE_CURVE('',#208,#217,#111,.T.);
#265=EDGE_CURVE('',#218,#215,#112,.T.);
#266=EDGE_CURVE('',#218,#219,#113,.T.);
#267=EDGE_CURVE('',#213,#219,#114,.T.);
#268=EDGE_CURVE('',#218,#217,#115,.T.);
#269=EDGE_CURVE('',#220,#217,#116,.T.);
#270=EDGE_CURVE('',#221,#220,#117,.T.);
#271=EDGE_CURVE('',#221,#218,#118,.T.);
#272=EDGE_CURVE('',#222,#222,#190,.T.);
#273=EDGE_CURVE('',#222,#223,#119,.T.);
#274=EDGE_CURVE('',#223,#223,#191,.T.);
#275=EDGE_CURVE('',#224,#224,#192,.F.);
#276=EDGE_CURVE('',#224,#225,#120,.T.);
#277=EDGE_CURVE('',#225,#225,#193,.T.);
#278=EDGE_CURVE('',#226,#227,#194,.F.);
#279=EDGE_CURVE('',#227,#228,#121,.T.);
#280=EDGE_CURVE('',#229,#228,#195,.T.);
#281=EDGE_CURVE('',#226,#229,#122,.T.);
#282=EDGE_CURVE('',#226,#221,#196,.T.);
#283=EDGE_CURVE('',#219,#229,#197,.T.);
#284=EDGE_CURVE('',#220,#230,#198,.T.);
#285=EDGE_CURVE('',#231,#216,#199,.T.);
#286=EDGE_CURVE('',#230,#231,#123,.T.);
#287=EDGE_CURVE('',#230,#232,#200,.T.);
#288=EDGE_CURVE('',#233,#231,#201,.T.);
#289=EDGE_CURVE('',#232,#233,#124,.T.);
#290=EDGE_CURVE('',#232,#234,#202,.T.);
#291=EDGE_CURVE('',#235,#233,#203,.T.);
#292=EDGE_CURVE('',#236,#235,#125,.T.);
#293=EDGE_CURVE('',#234,#236,#126,.T.);
#294=EDGE_CURVE('',#237,#234,#127,.F.);
#295=EDGE_CURVE('',#238,#235,#128,.T.);
#296=EDGE_CURVE('',#237,#238,#129,.T.);
#297=EDGE_CURVE('',#237,#227,#204,.T.);
#298=EDGE_CURVE('',#228,#238,#205,.T.);
#299=EDGE_CURVE('',#239,#240,#206,.T.);
#300=EDGE_CURVE('',#239,#241,#130,.T.);
#301=EDGE_CURVE('',#242,#241,#207,.T.);
#302=EDGE_CURVE('',#242,#243,#131,.T.);
#303=EDGE_CURVE('',#243,#244,#132,.T.);
#304=EDGE_CURVE('',#244,#240,#133,.T.);
#305=EDGE_CURVE('',#245,#246,#134,.T.);
#306=EDGE_CURVE('',#245,#247,#135,.T.);
#307=EDGE_CURVE('',#247,#248,#136,.T.);
#308=EDGE_CURVE('',#248,#246,#137,.T.);
#309=EDGE_CURVE('',#240,#245,#138,.T.);
#310=EDGE_CURVE('',#244,#247,#139,.T.);
#311=EDGE_CURVE('',#248,#243,#140,.T.);
#312=EDGE_CURVE('',#246,#242,#141,.T.);
#313=EDGE_CURVE('',#241,#249,#142,.T.);
#314=EDGE_CURVE('',#249,#246,#100,.T.);
#315=EDGE_CURVE('',#245,#250,#101,.T.);
#316=EDGE_CURVE('',#249,#250,#143,.T.);
#317=EDGE_CURVE('',#250,#239,#144,.T.);
#318=ORIENTED_EDGE('',*,*,#251,.T.);
#319=ORIENTED_EDGE('',*,*,#252,.T.);
#320=ORIENTED_EDGE('',*,*,#253,.T.);
#321=ORIENTED_EDGE('',*,*,#254,.T.);
#322=ORIENTED_EDGE('',*,*,#253,.F.);
#323=ORIENTED_EDGE('',*,*,#255,.T.);
#324=ORIENTED_EDGE('',*,*,#256,.F.);
#325=ORIENTED_EDGE('',*,*,#257,.T.);
#326=ORIENTED_EDGE('',*,*,#252,.F.);
#327=ORIENTED_EDGE('',*,*,#258,.F.);
#328=ORIENTED_EDGE('',*,*,#259,.F.);
#329=ORIENTED_EDGE('',*,*,#255,.F.);
#330=ORIENTED_EDGE('',*,*,#260,.T.);
#331=ORIENTED_EDGE('',*,*,#261,.T.);
#332=ORIENTED_EDGE('',*,*,#256,.T.);
#333=ORIENTED_EDGE('',*,*,#259,.T.);
#334=ORIENTED_EDGE('',*,*,#254,.F.);
#335=ORIENTED_EDGE('',*,*,#262,.F.);
#336=ORIENTED_EDGE('',*,*,#263,.F.);
#337=ORIENTED_EDGE('',*,*,#264,.F.);
#338=ORIENTED_EDGE('',*,*,#261,.F.);
#339=ORIENTED_EDGE('',*,*,#265,.F.);
#340=ORIENTED_EDGE('',*,*,#266,.T.);
#341=ORIENTED_EDGE('',*,*,#267,.F.);
#342=ORIENTED_EDGE('',*,*,#251,.F.);
#343=ORIENTED_EDGE('',*,*,#264,.T.);
#344=ORIENTED_EDGE('',*,*,#268,.F.);
#345=ORIENTED_EDGE('',*,*,#265,.T.);
#346=ORIENTED_EDGE('',*,*,#260,.F.);
#347=ORIENTED_EDGE('',*,*,#258,.T.);
#348=ORIENTED_EDGE('',*,*,#268,.T.);
#349=ORIENTED_EDGE('',*,*,#269,.F.);
#350=ORIENTED_EDGE('',*,*,#270,.F.);
#351=ORIENTED_EDGE('',*,*,#271,.T.);
#352=ORIENTED_EDGE('',*,*,#272,.F.);
#353=ORIENTED_EDGE('',*,*,#273,.T.);
#354=ORIENTED_EDGE('',*,*,#274,.F.);
#355=ORIENTED_EDGE('',*,*,#273,.F.);
#356=ORIENTED_EDGE('',*,*,#275,.F.);
#357=ORIENTED_EDGE('',*,*,#276,.T.);
#358=ORIENTED_EDGE('',*,*,#277,.T.);
#359=ORIENTED_EDGE('',*,*,#276,.F.);
#360=ORIENTED_EDGE('',*,*,#277,.F.);
#361=ORIENTED_EDGE('',*,*,#272,.T.);
#362=ORIENTED_EDGE('',*,*,#278,.T.);
#363=ORIENTED_EDGE('',*,*,#279,.T.);
#364=ORIENTED_EDGE('',*,*,#280,.F.);
#365=ORIENTED_EDGE('',*,*,#281,.F.);
#366=ORIENTED_EDGE('',*,*,#282,.F.);
#367=ORIENTED_EDGE('',*,*,#281,.T.);
#368=ORIENTED_EDGE('',*,*,#283,.F.);
#369=ORIENTED_EDGE('',*,*,#266,.F.);
#370=ORIENTED_EDGE('',*,*,#271,.F.);
#371=ORIENTED_EDGE('',*,*,#284,.F.);
#372=ORIENTED_EDGE('',*,*,#269,.T.);
#373=ORIENTED_EDGE('',*,*,#263,.T.);
#374=ORIENTED_EDGE('',*,*,#285,.F.);
#375=ORIENTED_EDGE('',*,*,#286,.F.);
#376=ORIENTED_EDGE('',*,*,#287,.F.);
#377=ORIENTED_EDGE('',*,*,#286,.T.);
#378=ORIENTED_EDGE('',*,*,#288,.F.);
#379=ORIENTED_EDGE('',*,*,#289,.F.);
#380=ORIENTED_EDGE('',*,*,#290,.F.);
#381=ORIENTED_EDGE('',*,*,#289,.T.);
#382=ORIENTED_EDGE('',*,*,#291,.F.);
#383=ORIENTED_EDGE('',*,*,#292,.F.);
#384=ORIENTED_EDGE('',*,*,#293,.F.);
#385=ORIENTED_EDGE('',*,*,#294,.T.);
#386=ORIENTED_EDGE('',*,*,#293,.T.);
#387=ORIENTED_EDGE('',*,*,#292,.T.);
#388=ORIENTED_EDGE('',*,*,#295,.F.);
#389=ORIENTED_EDGE('',*,*,#296,.F.);
#390=ORIENTED_EDGE('',*,*,#297,.F.);
#391=ORIENTED_EDGE('',*,*,#296,.T.);
#392=ORIENTED_EDGE('',*,*,#298,.F.);
#393=ORIENTED_EDGE('',*,*,#279,.F.);
#394=ORIENTED_EDGE('',*,*,#297,.T.);
#395=ORIENTED_EDGE('',*,*,#278,.F.);
#396=ORIENTED_EDGE('',*,*,#282,.T.);
#397=ORIENTED_EDGE('',*,*,#270,.T.);
#398=ORIENTED_EDGE('',*,*,#284,.T.);
#399=ORIENTED_EDGE('',*,*,#287,.T.);
#400=ORIENTED_EDGE('',*,*,#290,.T.);
#401=ORIENTED_EDGE('',*,*,#294,.F.);
#402=ORIENTED_EDGE('',*,*,#275,.T.);
#403=ORIENTED_EDGE('',*,*,#257,.F.);
#404=ORIENTED_EDGE('',*,*,#267,.T.);
#405=ORIENTED_EDGE('',*,*,#283,.T.);
#406=ORIENTED_EDGE('',*,*,#280,.T.);
#407=ORIENTED_EDGE('',*,*,#298,.T.);
#408=ORIENTED_EDGE('',*,*,#295,.T.);
#409=ORIENTED_EDGE('',*,*,#291,.T.);
#410=ORIENTED_EDGE('',*,*,#288,.T.);
#411=ORIENTED_EDGE('',*,*,#285,.T.);
#412=ORIENTED_EDGE('',*,*,#262,.T.);
#413=ORIENTED_EDGE('',*,*,#274,.T.);
#414=ORIENTED_EDGE('',*,*,#299,.F.);
#415=ORIENTED_EDGE('',*,*,#300,.T.);
#416=ORIENTED_EDGE('',*,*,#301,.F.);
#417=ORIENTED_EDGE('',*,*,#302,.T.);
#418=ORIENTED_EDGE('',*,*,#303,.T.);
#419=ORIENTED_EDGE('',*,*,#304,.T.);
#420=ORIENTED_EDGE('',*,*,#305,.F.);
#421=ORIENTED_EDGE('',*,*,#306,.T.);
#422=ORIENTED_EDGE('',*,*,#307,.T.);
#423=ORIENTED_EDGE('',*,*,#308,.T.);
#424=ORIENTED_EDGE('',*,*,#309,.F.);
#425=ORIENTED_EDGE('',*,*,#304,.F.);
#426=ORIENTED_EDGE('',*,*,#310,.T.);
#427=ORIENTED_EDGE('',*,*,#306,.F.);
#428=ORIENTED_EDGE('',*,*,#307,.F.);
#429=ORIENTED_EDGE('',*,*,#310,.F.);
#430=ORIENTED_EDGE('',*,*,#303,.F.);
#431=ORIENTED_EDGE('',*,*,#311,.F.);
#432=ORIENTED_EDGE('',*,*,#312,.F.);
#433=ORIENTED_EDGE('',*,*,#308,.F.);
#434=ORIENTED_EDGE('',*,*,#311,.T.);
#435=ORIENTED_EDGE('',*,*,#302,.F.);
#436=ORIENTED_EDGE('',*,*,#301,.T.);
#437=ORIENTED_EDGE('',*,*,#313,.T.);
#438=ORIENTED_EDGE('',*,*,#314,.T.);
#439=ORIENTED_EDGE('',*,*,#312,.T.);
#440=ORIENTED_EDGE('',*,*,#315,.F.);
#441=ORIENTED_EDGE('',*,*,#305,.T.);
#442=ORIENTED_EDGE('',*,*,#314,.F.);
#443=ORIENTED_EDGE('',*,*,#316,.T.);
#444=ORIENTED_EDGE('',*,*,#317,.F.);
#445=ORIENTED_EDGE('',*,*,#316,.F.);
#446=ORIENTED_EDGE('',*,*,#313,.F.);
#447=ORIENTED_EDGE('',*,*,#300,.F.);
#448=ORIENTED_EDGE('',*,*,#299,.T.);
#449=ORIENTED_EDGE('',*,*,#309,.T.);
#450=ORIENTED_EDGE('',*,*,#315,.T.);
#451=ORIENTED_EDGE('',*,*,#317,.T.);
#452=CYLINDRICAL_SURFACE('',#508,1.);
#453=CYLINDRICAL_SURFACE('',#514,1.);
#454=CYLINDRICAL_SURFACE('',#520,2.55);
#455=CYLINDRICAL_SURFACE('',#523,4.6);
#456=CYLINDRICAL_SURFACE('',#527,63.65);
#457=CYLINDRICAL_SURFACE('',#530,2.84999999999999);
#458=CYLINDRICAL_SURFACE('',#533,2.85);
#459=CYLINDRICAL_SURFACE('',#536,81.35);
#460=CYLINDRICAL_SURFACE('',#539,2.85000000000018);
#461=CYLINDRICAL_SURFACE('',#543,2.85);
#462=CYLINDRICAL_SURFACE('',#555,1.);
#463=CYLINDRICAL_SURFACE('',#560,1.);
#464=ADVANCED_FACE('',(#37),#452,.T.);
#465=ADVANCED_FACE('',(#38),#20,.T.);
#466=ADVANCED_FACE('',(#39),#21,.T.);
#467=ADVANCED_FACE('',(#40),#453,.T.);
#468=ADVANCED_FACE('',(#41),#22,.T.);
#469=ADVANCED_FACE('',(#42),#23,.T.);
#470=ADVANCED_FACE('',(#43),#24,.T.);
#471=ADVANCED_FACE('',(#44),#25,.T.);
#472=ADVANCED_FACE('',(#45),#454,.F.);
#473=ADVANCED_FACE('',(#46),#455,.F.);
#474=ADVANCED_FACE('',(#47,#17),#26,.T.);
#475=ADVANCED_FACE('',(#48),#456,.F.);
#476=ADVANCED_FACE('',(#49),#457,.T.);
#477=ADVANCED_FACE('',(#50),#458,.T.);
#478=ADVANCED_FACE('',(#51),#459,.T.);
#479=ADVANCED_FACE('',(#52),#460,.T.);
#480=ADVANCED_FACE('',(#53),#27,.T.);
#481=ADVANCED_FACE('',(#54),#461,.T.);
#482=ADVANCED_FACE('',(#55,#18),#28,.T.);
#483=ADVANCED_FACE('',(#56,#19),#29,.F.);
#484=ADVANCED_FACE('',(#57),#30,.T.);
#485=ADVANCED_FACE('',(#58),#31,.T.);
#486=ADVANCED_FACE('',(#59),#32,.T.);
#487=ADVANCED_FACE('',(#60),#33,.T.);
#488=ADVANCED_FACE('',(#61),#34,.T.);
#489=ADVANCED_FACE('',(#62),#462,.T.);
#490=ADVANCED_FACE('',(#63),#35,.T.);
#491=ADVANCED_FACE('',(#64),#36,.T.);
#492=ADVANCED_FACE('',(#65),#463,.T.);
#493=CLOSED_SHELL('',(#464,#465,#466,#467,#468,#469,#470,#471,#472,#473,
#474,#475,#476,#477,#478,#479,#480,#481,#482,#483));
#494=CLOSED_SHELL('',(#484,#485,#486,#487,#488,#489,#490,#491,#492));
#495=DERIVED_UNIT_ELEMENT(#497,1.);
#496=DERIVED_UNIT_ELEMENT(#857,-3.);
#497=(
MASS_UNIT()
NAMED_UNIT(*)
SI_UNIT(.KILO.,.GRAM.)
);
#498=DERIVED_UNIT((#495,#496));
#499=MEASURE_REPRESENTATION_ITEM('density measure',
POSITIVE_RATIO_MEASURE(7850.),#498);
#500=PROPERTY_DEFINITION_REPRESENTATION(#505,#502);
#501=PROPERTY_DEFINITION_REPRESENTATION(#506,#503);
#502=REPRESENTATION('material name',(#504),#854);
#503=REPRESENTATION('density',(#499),#854);
#504=DESCRIPTIVE_REPRESENTATION_ITEM('Steel','Steel');
#505=PROPERTY_DEFINITION('material property','material name',#864);
#506=PROPERTY_DEFINITION('material property','density of part',#864);
#507=AXIS2_PLACEMENT_3D('',#712,#561,#562);
#508=AXIS2_PLACEMENT_3D('',#713,#563,#564);
#509=AXIS2_PLACEMENT_3D('',#716,#565,#566);
#510=AXIS2_PLACEMENT_3D('',#720,#568,#569);
#511=AXIS2_PLACEMENT_3D('',#722,#571,#572);
#512=AXIS2_PLACEMENT_3D('',#726,#574,#575);
#513=AXIS2_PLACEMENT_3D('',#728,#577,#578);
#514=AXIS2_PLACEMENT_3D('',#732,#581,#582);
#515=AXIS2_PLACEMENT_3D('',#734,#583,#584);
#516=AXIS2_PLACEMENT_3D('',#736,#586,#587);
#517=AXIS2_PLACEMENT_3D('',#742,#591,#592);
#518=AXIS2_PLACEMENT_3D('',#748,#596,#597);
#519=AXIS2_PLACEMENT_3D('',#750,#599,#600);
#520=AXIS2_PLACEMENT_3D('',#756,#604,#605);
#521=AXIS2_PLACEMENT_3D('',#758,#606,#607);
#522=AXIS2_PLACEMENT_3D('',#761,#609,#610);
#523=AXIS2_PLACEMENT_3D('',#762,#611,#612);
#524=AXIS2_PLACEMENT_3D('',#764,#613,#614);
#525=AXIS2_PLACEMENT_3D('',#767,#616,#617);
#526=AXIS2_PLACEMENT_3D('',#768,#618,#619);
#527=AXIS2_PLACEMENT_3D('',#769,#620,#621);
#528=AXIS2_PLACEMENT_3D('',#772,#622,#623);
#529=AXIS2_PLACEMENT_3D('',#776,#625,#626);
#530=AXIS2_PLACEMENT_3D('',#778,#628,#629);
#531=AXIS2_PLACEMENT_3D('',#779,#630,#631);
#532=AXIS2_PLACEMENT_3D('',#780,#632,#633);
#533=AXIS2_PLACEMENT_3D('',#781,#634,#635);
#534=AXIS2_PLACEMENT_3D('',#783,#636,#637);
#535=AXIS2_PLACEMENT_3D('',#785,#638,#639);
#536=AXIS2_PLACEMENT_3D('',#787,#641,#642);
#537=AXIS2_PLACEMENT_3D('',#789,#643,#644);
#538=AXIS2_PLACEMENT_3D('',#791,#645,#646);
#539=AXIS2_PLACEMENT_3D('',#793,#648,#649);
#540=AXIS2_PLACEMENT_3D('',#795,#650,#651);
#541=AXIS2_PLACEMENT_3D('',#797,#652,#653);
#542=AXIS2_PLACEMENT_3D('',#801,#656,#657);
#543=AXIS2_PLACEMENT_3D('',#807,#661,#662);
#544=AXIS2_PLACEMENT_3D('',#808,#663,#664);
#545=AXIS2_PLACEMENT_3D('',#809,#665,#666);
#546=AXIS2_PLACEMENT_3D('',#810,#667,#668);
#547=AXIS2_PLACEMENT_3D('',#811,#669,#670);
#548=AXIS2_PLACEMENT_3D('',#812,#671,#672);
#549=AXIS2_PLACEMENT_3D('',#815,#673,#674);
#550=AXIS2_PLACEMENT_3D('',#819,#676,#677);
#551=AXIS2_PLACEMENT_3D('',#825,#681,#682);
#552=AXIS2_PLACEMENT_3D('',#834,#687,#688);
#553=AXIS2_PLACEMENT_3D('',#837,#691,#692);
#554=AXIS2_PLACEMENT_3D('',#839,#694,#695);
#555=AXIS2_PLACEMENT_3D('',#841,#697,#698);
#556=AXIS2_PLACEMENT_3D('',#844,#700,#701);
#557=AXIS2_PLACEMENT_3D('',#845,#702,#703);
#558=AXIS2_PLACEMENT_3D('',#847,#704,#705);
#559=AXIS2_PLACEMENT_3D('',#849,#707,#708);
#560=AXIS2_PLACEMENT_3D('',#851,#710,#711);
#561=DIRECTION('axis',(0.,0.,1.));
#562=DIRECTION('refdir',(1.,0.,0.));
#563=DIRECTION('center_axis',(0.,-1.,0.));
#564=DIRECTION('ref_axis',(0.707106781186546,0.,-0.707106781186549));
#565=DIRECTION('center_axis',(0.,1.,0.));
#566=DIRECTION('ref_axis',(0.707106781186546,0.,-0.707106781186549));
#567=DIRECTION('',(0.,1.,0.));
#568=DIRECTION('center_axis',(-2.43818331421877E-17,-0.707106781186549,
0.707106781186546));
#569=DIRECTION('ref_axis',(0.,-0.707106781186546,-0.707106781186549));
#570=DIRECTION('',(0.,-1.,0.));
#571=DIRECTION('center_axis',(2.43818331421877E-17,0.707106781186549,-0.707106781186546));
#572=DIRECTION('ref_axis',(-1.,0.,-3.44811191051997E-17));
#573=DIRECTION('',(-1.,0.,-3.44811191051997E-17));
#574=DIRECTION('center_axis',(-2.43818331421877E-17,-0.707106781186549,
0.707106781186546));
#575=DIRECTION('ref_axis',(0.,-0.707106781186546,-0.707106781186549));
#576=DIRECTION('',(1.,0.,3.44811191051997E-17));
#577=DIRECTION('center_axis',(3.44811191051997E-17,0.,-1.));
#578=DIRECTION('ref_axis',(1.,0.,3.44811191051997E-17));
#579=DIRECTION('',(1.,0.,3.44811191051997E-17));
#580=DIRECTION('',(0.,-1.,0.));
#581=DIRECTION('center_axis',(0.,-1.,0.));
#582=DIRECTION('ref_axis',(-0.707106781186546,0.,-0.707106781186549));
#583=DIRECTION('center_axis',(0.,1.,0.));
#584=DIRECTION('ref_axis',(-0.707106781186546,0.,-0.707106781186549));
#585=DIRECTION('',(0.,1.,0.));
#586=DIRECTION('center_axis',(1.,0.,0.));
#587=DIRECTION('ref_axis',(0.,0.,1.));
#588=DIRECTION('',(0.,0.,-1.));
#589=DIRECTION('',(0.,1.,0.));
#590=DIRECTION('',(0.,0.,1.));
#591=DIRECTION('center_axis',(-1.,0.,0.));
#592=DIRECTION('ref_axis',(0.,0.,-1.));
#593=DIRECTION('',(0.,0.,-1.));
#594=DIRECTION('',(0.,1.,0.));
#595=DIRECTION('',(0.,0.,1.));
#596=DIRECTION('center_axis',(0.,-1.,0.));
#597=DIRECTION('ref_axis',(0.,0.,-1.));
#598=DIRECTION('',(1.,0.,0.));
#599=DIRECTION('center_axis',(0.,0.,-1.));
#600=DIRECTION('ref_axis',(-1.,0.,0.));
#601=DIRECTION('',(0.,1.,0.));
#602=DIRECTION('',(1.,0.,0.));
#603=DIRECTION('',(0.,1.,0.));
#604=DIRECTION('center_axis',(0.,1.,0.));
#605=DIRECTION('ref_axis',(1.,0.,0.));
#606=DIRECTION('center_axis',(0.,1.,0.));
#607=DIRECTION('ref_axis',(1.,0.,0.));
#608=DIRECTION('',(0.,1.,0.));
#609=DIRECTION('center_axis',(0.,-1.,0.));
#610=DIRECTION('ref_axis',(1.,0.,0.));
#611=DIRECTION('center_axis',(0.,1.,0.));
#612=DIRECTION('ref_axis',(1.,0.,0.));
#613=DIRECTION('center_axis',(0.,-1.,0.));
#614=DIRECTION('ref_axis',(1.,0.,0.));
#615=DIRECTION('',(0.,1.,0.));
#616=DIRECTION('center_axis',(0.,1.,0.));
#617=DIRECTION('ref_axis',(1.,0.,0.));
#618=DIRECTION('center_axis',(0.,-1.,0.));
#619=DIRECTION('ref_axis',(1.,0.,0.));
#620=DIRECTION('center_axis',(0.,1.,0.));
#621=DIRECTION('ref_axis',(0.992737492541296,0.,0.120300751879699));
#622=DIRECTION('center_axis',(0.,1.,0.));
#623=DIRECTION('ref_axis',(0.992737492541296,0.,0.120300751879699));
#624=DIRECTION('',(0.,1.,0.));
#625=DIRECTION('center_axis',(0.,-1.,0.));
#626=DIRECTION('ref_axis',(0.992737492541296,0.,0.120300751879699));
#627=DIRECTION('',(0.,1.,0.));
#628=DIRECTION('center_axis',(0.,1.,0.));
#629=DIRECTION('ref_axis',(-0.992737492541296,0.,-0.1203007518797));
#630=DIRECTION('center_axis',(0.,-1.,0.));
#631=DIRECTION('ref_axis',(-0.992737492541296,0.,-0.1203007518797));
#632=DIRECTION('center_axis',(0.,1.,0.));
#633=DIRECTION('ref_axis',(-0.992737492541296,0.,-0.1203007518797));
#634=DIRECTION('center_axis',(0.,1.,0.));
#635=DIRECTION('ref_axis',(0.,0.,-1.));
#636=DIRECTION('center_axis',(0.,-1.,0.));
#637=DIRECTION('ref_axis',(0.,0.,-1.));
#638=DIRECTION('center_axis',(0.,1.,0.));
#639=DIRECTION('ref_axis',(0.,0.,-1.));
#640=DIRECTION('',(0.,1.,0.));
#641=DIRECTION('center_axis',(0.,1.,0.));
#642=DIRECTION('ref_axis',(0.994793537942,0.,0.101910828025478));
#643=DIRECTION('center_axis',(0.,-1.,0.));
#644=DIRECTION('ref_axis',(0.994793537942,0.,0.101910828025478));
#645=DIRECTION('center_axis',(0.,1.,0.));
#646=DIRECTION('ref_axis',(0.994793537942,0.,0.101910828025478));
#647=DIRECTION('',(0.,1.,0.));
#648=DIRECTION('center_axis',(0.,1.,0.));
#649=DIRECTION('ref_axis',(-0.994795168096254,0.,0.101894914163299));
#650=DIRECTION('center_axis',(0.,-1.,0.));
#651=DIRECTION('ref_axis',(-0.994795168096254,0.,0.101894914163299));
#652=DIRECTION('center_axis',(0.,1.,0.));
#653=DIRECTION('ref_axis',(-0.994795168096254,0.,0.101894914163299));
#654=DIRECTION('',(0.,1.,0.));
#655=DIRECTION('',(0.,1.,0.));
#656=DIRECTION('center_axis',(1.59971376303507E-5,0.,-0.999999999872046));
#657=DIRECTION('ref_axis',(-0.999999999872046,0.,-1.59971376303507E-5));
#658=DIRECTION('',(0.999999999872046,0.,1.59971376303507E-5));
#659=DIRECTION('',(-0.999999999872046,0.,-1.59971376303507E-5));
#660=DIRECTION('',(0.,1.,0.));
#661=DIRECTION('center_axis',(0.,1.,0.));
#662=DIRECTION('ref_axis',(1.59971376293792E-5,0.,-0.999999999872046));
#663=DIRECTION('center_axis',(0.,-1.,0.));
#664=DIRECTION('ref_axis',(1.59971376293792E-5,0.,-0.999999999872046));
#665=DIRECTION('center_axis',(0.,1.,0.));
#666=DIRECTION('ref_axis',(1.59971376293792E-5,0.,-0.999999999872046));
#667=DIRECTION('center_axis',(0.,-1.,0.));
#668=DIRECTION('ref_axis',(1.,0.,0.));
#669=DIRECTION('center_axis',(0.,-1.,0.));
#670=DIRECTION('ref_axis',(1.,0.,0.));
#671=DIRECTION('center_axis',(0.,-1.,0.));
#672=DIRECTION('ref_axis',(0.,0.,-1.));
#673=DIRECTION('center_axis',(0.,1.,0.));
#674=DIRECTION('ref_axis',(-0.707106781186546,0.,-0.707106781186549));
#675=DIRECTION('',(1.,0.,0.));
#676=DIRECTION('center_axis',(0.,1.,0.));
#677=DIRECTION('ref_axis',(0.707106781186546,0.,-0.707106781186549));
#678=DIRECTION('',(0.,0.,1.));
#679=DIRECTION('',(-1.,0.,-1.83899301917928E-16));
#680=DIRECTION('',(0.,0.,-1.));
#681=DIRECTION('center_axis',(0.,1.,0.));
#682=DIRECTION('ref_axis',(-1.,0.,0.));
#683=DIRECTION('',(1.,0.,0.));
#684=DIRECTION('',(0.,0.,1.));
#685=DIRECTION('',(1.,0.,1.83899301917928E-16));
#686=DIRECTION('',(0.,0.,-1.));
#687=DIRECTION('center_axis',(-1.,0.,0.));
#688=DIRECTION('ref_axis',(0.,0.,-1.));
#689=DIRECTION('',(0.,1.,0.));
#690=DIRECTION('',(0.,1.,0.));
#691=DIRECTION('center_axis',(-1.83899301917928E-16,0.,1.));
#692=DIRECTION('ref_axis',(-1.,0.,-1.83899301917928E-16));
#693=DIRECTION('',(0.,-1.,0.));
#694=DIRECTION('center_axis',(1.,0.,0.));
#695=DIRECTION('ref_axis',(0.,0.,1.));
#696=DIRECTION('',(0.,-1.,0.));
#697=DIRECTION('center_axis',(0.,-1.,0.));
#698=DIRECTION('ref_axis',(0.707106781186546,0.,-0.707106781186549));
#699=DIRECTION('',(0.,1.,0.));
#700=DIRECTION('center_axis',(0.,-0.707106781186548,0.707106781186547));
#701=DIRECTION('ref_axis',(0.,-0.707106781186547,-0.707106781186548));
#702=DIRECTION('center_axis',(0.,0.707106781186548,-0.707106781186547));
#703=DIRECTION('ref_axis',(-1.,0.,0.));
#704=DIRECTION('center_axis',(0.,-0.707106781186548,0.707106781186547));
#705=DIRECTION('ref_axis',(0.,-0.707106781186547,-0.707106781186548));
#706=DIRECTION('',(-1.,0.,0.));
#707=DIRECTION('center_axis',(0.,0.,-1.));
#708=DIRECTION('ref_axis',(1.,0.,0.));
#709=DIRECTION('',(0.,-1.,0.));
#710=DIRECTION('center_axis',(0.,-1.,0.));
#711=DIRECTION('ref_axis',(-0.707106781186546,0.,-0.707106781186549));
#712=CARTESIAN_POINT('',(0.,0.,0.));
#713=CARTESIAN_POINT('Origin',(77.091292728447,-9.4,2.15000000000002));
#714=CARTESIAN_POINT('',(78.091292728447,-11.4,2.15000000000002));
#715=CARTESIAN_POINT('',(77.091292728447,-11.4,1.15000000000001));
#716=CARTESIAN_POINT('Origin',(77.091292728447,-11.4,2.15000000000002));
#717=CARTESIAN_POINT('',(77.091292728447,-10.4,1.15000000000001));
#718=CARTESIAN_POINT('',(77.091292728447,-9.4,1.15000000000001));
#719=CARTESIAN_POINT('',(78.091292728447,-9.4,2.15000000000002));
#720=CARTESIAN_POINT('Origin',(77.091292728447,-9.4,2.15000000000002));
#721=CARTESIAN_POINT('',(78.091292728447,-9.4,2.15000000000002));
#722=CARTESIAN_POINT('Origin',(33.0084896352208,-9.9,1.65000000000001));
#723=CARTESIAN_POINT('',(67.0170432539961,-10.4,1.15000000000001));
#724=CARTESIAN_POINT('',(33.0084896352208,-10.4,1.15000000000001));
#725=CARTESIAN_POINT('',(66.0170432539961,-9.4,2.15000000000002));
#726=CARTESIAN_POINT('Origin',(67.0170432539961,-9.4,2.15000000000001));
#727=CARTESIAN_POINT('',(33.0084896352208,-9.4,2.15000000000002));
#728=CARTESIAN_POINT('Origin',(66.0170432539961,-9.4,1.15000000000001));
#729=CARTESIAN_POINT('',(67.0170432539961,-11.4,1.15000000000001));
#730=CARTESIAN_POINT('',(78.091292728447,-11.4,1.15000000000001));
#731=CARTESIAN_POINT('',(67.0170432539961,-9.4,1.15000000000001));
#732=CARTESIAN_POINT('Origin',(67.0170432539961,-9.4,2.15000000000001));
#733=CARTESIAN_POINT('',(66.0170432539961,-11.4,2.15000000000001));
#734=CARTESIAN_POINT('Origin',(67.0170432539961,-11.4,2.15000000000001));
#735=CARTESIAN_POINT('',(66.0170432539961,-9.4,2.15000000000001));
#736=CARTESIAN_POINT('Origin',(78.091292728447,-9.4,1.15000000000002));
#737=CARTESIAN_POINT('',(78.091292728447,-9.4,5.15));
#738=CARTESIAN_POINT('',(78.091292728447,-9.4,5.15000000000001));
#739=CARTESIAN_POINT('',(78.091292728447,-11.4,5.15000000000001));
#740=CARTESIAN_POINT('',(78.091292728447,-13.4,5.15));
#741=CARTESIAN_POINT('',(78.091292728447,-11.4,5.15000000000001));
#742=CARTESIAN_POINT('Origin',(66.0170432539961,-9.4,5.15000000000001));
#743=CARTESIAN_POINT('',(66.0170432539961,-11.4,5.15000000000001));
#744=CARTESIAN_POINT('',(66.0170432539961,-11.4,1.15000000000001));
#745=CARTESIAN_POINT('',(66.0170432539961,-9.4,5.15000000000001));
#746=CARTESIAN_POINT('',(66.0170432539961,-13.4,5.15000000000001));
#747=CARTESIAN_POINT('',(66.0170432539961,-9.4,1.15000000000001));
#748=CARTESIAN_POINT('Origin',(72.0541679912216,-11.4,3.15000000000001));
#749=CARTESIAN_POINT('',(75.0727303598343,-11.4,5.15));
#750=CARTESIAN_POINT('Origin',(78.091292728447,-13.4,5.15));
#751=CARTESIAN_POINT('',(78.091292728447,-13.3,5.15));
#752=CARTESIAN_POINT('',(78.091292728447,-13.4,5.15));
#753=CARTESIAN_POINT('',(66.0170432539961,-13.3,5.15000000000001));
#754=CARTESIAN_POINT('',(39.0456143724462,-13.3,5.15));
#755=CARTESIAN_POINT('',(66.0170432539961,-13.4,5.15000000000001));
#756=CARTESIAN_POINT('Origin',(0.,-11.4,72.7288265666141));
#757=CARTESIAN_POINT('',(-2.55,-11.4,72.7288265666141));
#758=CARTESIAN_POINT('Origin',(0.,-11.4,72.7288265666141));
#759=CARTESIAN_POINT('',(-2.55,-9.4,72.7288265666141));
#760=CARTESIAN_POINT('',(-2.55,-11.4,72.7288265666141));
#761=CARTESIAN_POINT('Origin',(0.,-9.4,72.7288265666141));
#762=CARTESIAN_POINT('Origin',(0.,-13.4,72.7288265666141));
#763=CARTESIAN_POINT('',(-4.6,-13.3,72.7288265666141));
#764=CARTESIAN_POINT('Origin',(0.,-13.3,72.7288265666141));
#765=CARTESIAN_POINT('',(-4.6,-11.4,72.7288265666141));
#766=CARTESIAN_POINT('',(-4.6,-13.4,72.7288265666141));
#767=CARTESIAN_POINT('Origin',(0.,-11.4,72.7288265666141));
#768=CARTESIAN_POINT('Origin',(0.,-11.4,72.7288265666141));
#769=CARTESIAN_POINT('Origin',(0.,-13.4,0.));
#770=CARTESIAN_POINT('',(63.1877414002535,-13.3,7.65714285714286));
#771=CARTESIAN_POINT('',(-63.1878638845365,-13.3,7.65613203316739));
#772=CARTESIAN_POINT('Origin',(0.,-13.3,0.));
#773=CARTESIAN_POINT('',(-63.1878638845365,-9.4,7.65613203316739));
#774=CARTESIAN_POINT('',(-63.1878638845365,-13.4,7.65613203316739));
#775=CARTESIAN_POINT('',(63.1877414002535,-9.4,7.65714285714286));
#776=CARTESIAN_POINT('Origin',(0.,-9.4,0.));
#777=CARTESIAN_POINT('',(63.1877414002535,-13.4,7.65714285714286));
#778=CARTESIAN_POINT('Origin',(66.0170432539961,-13.4,8.));
#779=CARTESIAN_POINT('Origin',(66.0170432539961,-13.3,8.));
#780=CARTESIAN_POINT('Origin',(66.0170432539961,-9.4,8.));
#781=CARTESIAN_POINT('Origin',(78.091292728447,-13.4,8.));
#782=CARTESIAN_POINT('',(80.9264543115817,-13.3,8.29044585987261));
#783=CARTESIAN_POINT('Origin',(78.091292728447,-13.3,8.));
#784=CARTESIAN_POINT('',(80.9264543115817,-9.4,8.29044585987261));
#785=CARTESIAN_POINT('Origin',(78.091292728447,-9.4,8.));
#786=CARTESIAN_POINT('',(80.9264543115817,-13.4,8.29044585987261));
#787=CARTESIAN_POINT('Origin',(0.,-13.4,0.));
#788=CARTESIAN_POINT('',(-80.9265869246305,-13.3,8.28915126718446));
#789=CARTESIAN_POINT('Origin',(0.,-13.3,0.));
#790=CARTESIAN_POINT('',(-80.9265869246305,-9.4,8.28915126718446));
#791=CARTESIAN_POINT('Origin',(0.,-9.4,0.));
#792=CARTESIAN_POINT('',(-80.9265869246305,-13.4,8.28915126718446));
#793=CARTESIAN_POINT('Origin',(-78.091420695556,-13.4,7.99875076181904));
#794=CARTESIAN_POINT('',(-78.0913751037138,-13.3,5.14875076218353));
#795=CARTESIAN_POINT('Origin',(-78.091420695556,-13.3,7.99875076181904));
#796=CARTESIAN_POINT('',(-78.0913751037138,-9.4,5.14875076218353));
#797=CARTESIAN_POINT('Origin',(-78.091420695556,-9.4,7.99875076181904));
#798=CARTESIAN_POINT('',(-78.0913751037138,-11.4,5.14875076218353));
#799=CARTESIAN_POINT('',(-78.0913751037138,-13.4,5.14875076218354));
#800=CARTESIAN_POINT('',(-78.0913751037138,-13.4,5.14875076218354));
#801=CARTESIAN_POINT('Origin',(-66.0171256308078,-13.4,5.14894391561418));
#802=CARTESIAN_POINT('',(-66.0171256308078,-13.3,5.14894391561418));
#803=CARTESIAN_POINT('',(-33.0082900667055,-13.3,5.14947196249979));
#804=CARTESIAN_POINT('',(-66.0171256308078,-9.4,5.14894391561418));
#805=CARTESIAN_POINT('',(-33.0082900667055,-9.4,5.14947196249978));
#806=CARTESIAN_POINT('',(-66.0171256308078,-13.4,5.14894391561418));
#807=CARTESIAN_POINT('Origin',(-66.0171712226501,-13.4,7.99894391524951));
#808=CARTESIAN_POINT('Origin',(-66.0171712226501,-13.3,7.99894391524951));
#809=CARTESIAN_POINT('Origin',(-66.0171712226501,-9.4,7.99894391524951));
#810=CARTESIAN_POINT('Origin',(-6.39835546145662E-5,-13.3,43.2493753809094));
#811=CARTESIAN_POINT('Origin',(-6.39835546145662E-5,-9.4,43.2493753809094));
#812=CARTESIAN_POINT('Origin',(-72.0542503672608,-11.4,3.14875076218354));
#813=CARTESIAN_POINT('',(-77.0913751037138,-11.4,1.14875076218354));
#814=CARTESIAN_POINT('',(-78.0913751037138,-11.4,2.14875076218354));
#815=CARTESIAN_POINT('Origin',(-77.0913751037138,-11.4,2.14875076218354));
#816=CARTESIAN_POINT('',(-67.0171256308078,-11.4,1.14875076218354));
#817=CARTESIAN_POINT('',(-66.0171256308078,-11.4,1.14875076218354));
#818=CARTESIAN_POINT('',(-66.0171256308078,-11.4,2.14875076218354));
#819=CARTESIAN_POINT('Origin',(-67.0171256308078,-11.4,2.14875076218354));
#820=CARTESIAN_POINT('',(-66.0171256308078,-11.4,5.14875076218354));
#821=CARTESIAN_POINT('',(-66.0171256308078,-11.4,5.14875076218354));
#822=CARTESIAN_POINT('',(-78.0913751037138,-11.4,5.14875076218353));
#823=CARTESIAN_POINT('',(-78.0913751037138,-11.4,5.14875076218353));
#824=CARTESIAN_POINT('',(-78.0913751037138,-11.4,1.14875076218354));
#825=CARTESIAN_POINT('Origin',(-72.0542503672608,-9.4,3.14875076218354));
#826=CARTESIAN_POINT('',(-78.0913751037138,-9.4,2.14875076218354));
#827=CARTESIAN_POINT('',(-66.0171256308078,-9.4,2.14875076218354));
#828=CARTESIAN_POINT('',(-75.0728127354873,-9.4,2.14875076218354));
#829=CARTESIAN_POINT('',(-78.0913751037138,-9.4,5.14875076218353));
#830=CARTESIAN_POINT('',(-78.0913751037138,-9.4,1.14875076218354));
#831=CARTESIAN_POINT('',(-66.0171256308078,-9.4,5.14875076218354));
#832=CARTESIAN_POINT('',(-78.0913751037138,-9.4,5.14875076218353));
#833=CARTESIAN_POINT('',(-66.0171256308078,-9.4,5.14875076218354));
#834=CARTESIAN_POINT('Origin',(-78.0913751037138,-9.4,5.14875076218353));
#835=CARTESIAN_POINT('',(-78.0913751037138,-9.4,2.14875076218354));
#836=CARTESIAN_POINT('',(-78.0913751037138,-13.4,5.14875076218354));
#837=CARTESIAN_POINT('Origin',(-66.0171256308078,-9.4,5.14875076218354));
#838=CARTESIAN_POINT('',(-66.0171256308078,-9.4,5.14875076218354));
#839=CARTESIAN_POINT('Origin',(-66.0171256308078,-9.4,1.14875076218354));
#840=CARTESIAN_POINT('',(-66.0171256308078,-9.4,2.14875076218354));
#841=CARTESIAN_POINT('Origin',(-67.0171256308078,-9.4,2.14875076218354));
#842=CARTESIAN_POINT('',(-67.0171256308078,-10.4,1.14875076218354));
#843=CARTESIAN_POINT('',(-67.0171256308078,-9.4,1.14875076218354));
#844=CARTESIAN_POINT('Origin',(-67.0171256308078,-9.4,2.14875076218354));
#845=CARTESIAN_POINT('Origin',(-75.0728127354873,-9.9,1.64875076218354));
#846=CARTESIAN_POINT('',(-77.0913751037138,-10.4,1.14875076218354));
#847=CARTESIAN_POINT('Origin',(-77.0913751037138,-9.4,2.14875076218354));
#848=CARTESIAN_POINT('',(-75.0728127354873,-10.4,1.14875076218354));
#849=CARTESIAN_POINT('Origin',(-78.0913751037138,-9.4,1.14875076218354));
#850=CARTESIAN_POINT('',(-77.0913751037138,-9.4,1.14875076218354));
#851=CARTESIAN_POINT('Origin',(-77.0913751037138,-9.4,2.14875076218354));
#852=UNCERTAINTY_MEASURE_WITH_UNIT(LENGTH_MEASURE(0.01),#856,
'DISTANCE_ACCURACY_VALUE',
'Maximum model space distance between geometric entities at asserted c
onnectivities');
#853=UNCERTAINTY_MEASURE_WITH_UNIT(LENGTH_MEASURE(0.01),#856,
'DISTANCE_ACCURACY_VALUE',
'Maximum model space distance between geometric entities at asserted c
onnectivities');
#854=(
GEOMETRIC_REPRESENTATION_CONTEXT(3)
GLOBAL_UNCERTAINTY_ASSIGNED_CONTEXT((#852))
GLOBAL_UNIT_ASSIGNED_CONTEXT((#856,#858,#859))
REPRESENTATION_CONTEXT('','3D')
);
#855=(
GEOMETRIC_REPRESENTATION_CONTEXT(3)
GLOBAL_UNCERTAINTY_ASSIGNED_CONTEXT((#853))
GLOBAL_UNIT_ASSIGNED_CONTEXT((#856,#858,#859))
REPRESENTATION_CONTEXT('','3D')
);
#856=(
LENGTH_UNIT()
NAMED_UNIT(*)
SI_UNIT(.MILLI.,.METRE.)
);
#857=(
LENGTH_UNIT()
NAMED_UNIT(*)
SI_UNIT($,.METRE.)
);
#858=(
NAMED_UNIT(*)
PLANE_ANGLE_UNIT()
SI_UNIT($,.RADIAN.)
);
#859=(
NAMED_UNIT(*)
SI_UNIT($,.STERADIAN.)
SOLID_ANGLE_UNIT()
);
#860=SHAPE_DEFINITION_REPRESENTATION(#861,#862);
#861=PRODUCT_DEFINITION_SHAPE('',$,#864);
#862=SHAPE_REPRESENTATION('',(#507),#854);
#863=PRODUCT_DEFINITION_CONTEXT('part definition',#868,'design');
#864=PRODUCT_DEFINITION('2026-08-29-11-09-43-044','(Unsaved)',#865,#863);
#865=PRODUCT_DEFINITION_FORMATION('',$,#870);
#866=PRODUCT_RELATED_PRODUCT_CATEGORY('(Unsaved)','(Unsaved)',(#870));
#867=APPLICATION_PROTOCOL_DEFINITION('international standard',
'automotive_design',2009,#868);
#868=APPLICATION_CONTEXT(
'Core Data for Automotive Mechanical Design Process');
#869=PRODUCT_CONTEXT('part definition',#868,'mechanical');
#870=PRODUCT('2026-08-29-11-09-43-044','(Unsaved)',$,(#869));
#871=PRESENTATION_STYLE_ASSIGNMENT((#872));
#872=SURFACE_STYLE_USAGE(.BOTH.,#873);
#873=SURFACE_SIDE_STYLE('',(#874));
#874=SURFACE_STYLE_FILL_AREA(#875);
#875=FILL_AREA_STYLE('Steel - Satin',(#876));
#876=FILL_AREA_STYLE_COLOUR('Steel - Satin',#877);
#877=COLOUR_RGB('Steel - Satin',0.627450980392157,0.627450980392157,0.627450980392157);
ENDSEC;
END-ISO-10303-21;
