ISO-10303-21;
HEADER;
/* Generated by software containing ST-Developer
 * from STEP Tools, Inc. (www.steptools.com) 
 */

FILE_DESCRIPTION(
/* description */ (''),
/* implementation_level */ '2;1');

FILE_NAME(
/* name */ 'counterweight-flex-tab_v1.0.step',
/* time_stamp */ '2026-08-29T11:09:31-05:00',
/* author */ (''),
/* organization */ (''),
/* preprocessor_version */ 'ST-DEVELOPER v20.1',
/* originating_system */ 'Autodesk Translation Framework v15.8.0.0',
/* authorisation */ '');

FILE_SCHEMA (('AUTOMOTIVE_DESIGN { 1 0 10303 214 3 1 1 }'));
ENDSEC;

DATA;
#10=MECHANICAL_DESIGN_GEOMETRIC_PRESENTATION_REPRESENTATION('',(#13),#991);
#11=SHAPE_REPRESENTATION_RELATIONSHIP('SRR','None',#998,#12);
#12=ADVANCED_BREP_SHAPE_REPRESENTATION('',(#14),#990);
#13=STYLED_ITEM('',(#1007),#14);
#14=MANIFOLD_SOLID_BREP('Body1',#603);
#15=FACE_BOUND('',#79,.T.);
#16=FACE_BOUND('',#104,.T.);
#17=PLANE('',#624);
#18=PLANE('',#626);
#19=PLANE('',#627);
#20=PLANE('',#628);
#21=PLANE('',#629);
#22=PLANE('',#633);
#23=PLANE('',#634);
#24=PLANE('',#635);
#25=PLANE('',#636);
#26=PLANE('',#637);
#27=PLANE('',#638);
#28=PLANE('',#639);
#29=PLANE('',#640);
#30=PLANE('',#641);
#31=PLANE('',#647);
#32=PLANE('',#648);
#33=PLANE('',#649);
#34=PLANE('',#650);
#35=PLANE('',#651);
#36=PLANE('',#652);
#37=PLANE('',#653);
#38=PLANE('',#654);
#39=PLANE('',#655);
#40=PLANE('',#656);
#41=PLANE('',#657);
#42=PLANE('',#658);
#43=FACE_OUTER_BOUND('',#73,.T.);
#44=FACE_OUTER_BOUND('',#74,.T.);
#45=FACE_OUTER_BOUND('',#75,.T.);
#46=FACE_OUTER_BOUND('',#76,.T.);
#47=FACE_OUTER_BOUND('',#77,.T.);
#48=FACE_OUTER_BOUND('',#78,.T.);
#49=FACE_OUTER_BOUND('',#80,.T.);
#50=FACE_OUTER_BOUND('',#81,.T.);
#51=FACE_OUTER_BOUND('',#82,.T.);
#52=FACE_OUTER_BOUND('',#83,.T.);
#53=FACE_OUTER_BOUND('',#84,.T.);
#54=FACE_OUTER_BOUND('',#85,.T.);
#55=FACE_OUTER_BOUND('',#86,.T.);
#56=FACE_OUTER_BOUND('',#87,.T.);
#57=FACE_OUTER_BOUND('',#88,.T.);
#58=FACE_OUTER_BOUND('',#89,.T.);
#59=FACE_OUTER_BOUND('',#90,.T.);
#60=FACE_OUTER_BOUND('',#91,.T.);
#61=FACE_OUTER_BOUND('',#92,.T.);
#62=FACE_OUTER_BOUND('',#93,.T.);
#63=FACE_OUTER_BOUND('',#94,.T.);
#64=FACE_OUTER_BOUND('',#95,.T.);
#65=FACE_OUTER_BOUND('',#96,.T.);
#66=FACE_OUTER_BOUND('',#97,.T.);
#67=FACE_OUTER_BOUND('',#98,.T.);
#68=FACE_OUTER_BOUND('',#99,.T.);
#69=FACE_OUTER_BOUND('',#100,.T.);
#70=FACE_OUTER_BOUND('',#101,.T.);
#71=FACE_OUTER_BOUND('',#102,.T.);
#72=FACE_OUTER_BOUND('',#103,.T.);
#73=EDGE_LOOP('',(#401,#402,#403,#404,#405,#406,#407,#408,#409,#410,#411,
#412));
#74=EDGE_LOOP('',(#413,#414,#415,#416));
#75=EDGE_LOOP('',(#417,#418,#419,#420,#421,#422));
#76=EDGE_LOOP('',(#423,#424,#425,#426));
#77=EDGE_LOOP('',(#427,#428,#429,#430,#431,#432));
#78=EDGE_LOOP('',(#433));
#79=EDGE_LOOP('',(#434));
#80=EDGE_LOOP('',(#435,#436,#437,#438));
#81=EDGE_LOOP('',(#439,#440,#441,#442));
#82=EDGE_LOOP('',(#443,#444,#445,#446));
#83=EDGE_LOOP('',(#447,#448,#449,#450));
#84=EDGE_LOOP('',(#451,#452,#453,#454));
#85=EDGE_LOOP('',(#455,#456,#457,#458));
#86=EDGE_LOOP('',(#459,#460,#461,#462));
#87=EDGE_LOOP('',(#463,#464,#465,#466,#467,#468));
#88=EDGE_LOOP('',(#469,#470,#471,#472,#473,#474,#475,#476,#477,#478,#479,
#480,#481,#482,#483,#484,#485,#486));
#89=EDGE_LOOP('',(#487,#488,#489,#490,#491));
#90=EDGE_LOOP('',(#492,#493,#494,#495));
#91=EDGE_LOOP('',(#496,#497,#498,#499));
#92=EDGE_LOOP('',(#500,#501,#502,#503,#504,#505));
#93=EDGE_LOOP('',(#506,#507,#508,#509));
#94=EDGE_LOOP('',(#510,#511,#512,#513,#514,#515));
#95=EDGE_LOOP('',(#516,#517,#518,#519));
#96=EDGE_LOOP('',(#520,#521,#522,#523));
#97=EDGE_LOOP('',(#524,#525,#526,#527));
#98=EDGE_LOOP('',(#528,#529,#530,#531,#532,#533,#534,#535,#536,#537,#538,
#539,#540,#541,#542,#543,#544,#545));
#99=EDGE_LOOP('',(#546,#547,#548,#549,#550,#551));
#100=EDGE_LOOP('',(#552,#553,#554,#555));
#101=EDGE_LOOP('',(#556,#557,#558,#559));
#102=EDGE_LOOP('',(#560,#561,#562,#563));
#103=EDGE_LOOP('',(#564,#565,#566,#567));
#104=EDGE_LOOP('',(#568));
#105=CIRCLE('',#618,1.55);
#106=CIRCLE('',#619,1.55);
#107=CIRCLE('',#620,1.55);
#108=CIRCLE('',#621,1.55);
#109=CIRCLE('',#622,1.55);
#110=CIRCLE('',#623,1.55);
#111=CIRCLE('',#625,2.9);
#112=CIRCLE('',#630,2.5);
#113=CIRCLE('',#632,2.5);
#114=CIRCLE('',#642,2.9);
#115=CIRCLE('',#644,2.9);
#116=CIRCLE('',#646,2.9);
#117=LINE('',#821,#189);
#118=LINE('',#825,#190);
#119=LINE('',#829,#191);
#120=LINE('',#834,#192);
#121=LINE('',#838,#193);
#122=LINE('',#842,#194);
#123=LINE('',#845,#195);
#124=LINE('',#848,#196);
#125=LINE('',#850,#197);
#126=LINE('',#852,#198);
#127=LINE('',#853,#199);
#128=LINE('',#856,#200);
#129=LINE('',#857,#201);
#130=LINE('',#860,#202);
#131=LINE('',#862,#203);
#132=LINE('',#864,#204);
#133=LINE('',#865,#205);
#134=LINE('',#871,#206);
#135=LINE('',#876,#207);
#136=LINE('',#878,#208);
#137=LINE('',#880,#209);
#138=LINE('',#881,#210);
#139=LINE('',#885,#211);
#140=LINE('',#887,#212);
#141=LINE('',#889,#213);
#142=LINE('',#890,#214);
#143=LINE('',#893,#215);
#144=LINE('',#895,#216);
#145=LINE('',#896,#217);
#146=LINE('',#899,#218);
#147=LINE('',#901,#219);
#148=LINE('',#902,#220);
#149=LINE('',#905,#221);
#150=LINE('',#907,#222);
#151=LINE('',#908,#223);
#152=LINE('',#911,#224);
#153=LINE('',#913,#225);
#154=LINE('',#914,#226);
#155=LINE('',#917,#227);
#156=LINE('',#919,#228);
#157=LINE('',#920,#229);
#158=LINE('',#923,#230);
#159=LINE('',#925,#231);
#160=LINE('',#927,#232);
#161=LINE('',#929,#233);
#162=LINE('',#930,#234);
#163=LINE('',#932,#235);
#164=LINE('',#934,#236);
#165=LINE('',#936,#237);
#166=LINE('',#938,#238);
#167=LINE('',#939,#239);
#168=LINE('',#940,#240);
#169=LINE('',#943,#241);
#170=LINE('',#949,#242);
#171=LINE('',#952,#243);
#172=LINE('',#955,#244);
#173=LINE('',#957,#245);
#174=LINE('',#958,#246);
#175=LINE('',#960,#247);
#176=LINE('',#963,#248);
#177=LINE('',#964,#249);
#178=LINE('',#966,#250);
#179=LINE('',#969,#251);
#180=LINE('',#971,#252);
#181=LINE('',#972,#253);
#182=LINE('',#974,#254);
#183=LINE('',#976,#255);
#184=LINE('',#978,#256);
#185=LINE('',#979,#257);
#186=LINE('',#980,#258);
#187=LINE('',#983,#259);
#188=LINE('',#985,#260);
#189=VECTOR('',#663,10.);
#190=VECTOR('',#666,10.);
#191=VECTOR('',#669,1.55);
#192=VECTOR('',#674,10.);
#193=VECTOR('',#677,10.);
#194=VECTOR('',#682,10.);
#195=VECTOR('',#685,10.);
#196=VECTOR('',#688,10.);
#197=VECTOR('',#689,10.);
#198=VECTOR('',#690,10.);
#199=VECTOR('',#691,10.);
#200=VECTOR('',#694,10.);
#201=VECTOR('',#695,10.);
#202=VECTOR('',#698,10.);
#203=VECTOR('',#699,10.);
#204=VECTOR('',#700,10.);
#205=VECTOR('',#701,10.);
#206=VECTOR('',#708,2.5);
#207=VECTOR('',#713,10.);
#208=VECTOR('',#714,10.);
#209=VECTOR('',#715,10.);
#210=VECTOR('',#716,10.);
#211=VECTOR('',#719,10.);
#212=VECTOR('',#720,10.);
#213=VECTOR('',#721,10.);
#214=VECTOR('',#722,10.);
#215=VECTOR('',#725,10.);
#216=VECTOR('',#726,10.);
#217=VECTOR('',#727,10.);
#218=VECTOR('',#730,10.);
#219=VECTOR('',#731,10.);
#220=VECTOR('',#732,10.);
#221=VECTOR('',#735,10.);
#222=VECTOR('',#736,10.);
#223=VECTOR('',#737,10.);
#224=VECTOR('',#740,10.);
#225=VECTOR('',#741,10.);
#226=VECTOR('',#742,10.);
#227=VECTOR('',#745,10.);
#228=VECTOR('',#746,10.);
#229=VECTOR('',#747,10.);
#230=VECTOR('',#750,10.);
#231=VECTOR('',#751,10.);
#232=VECTOR('',#752,10.);
#233=VECTOR('',#753,10.);
#234=VECTOR('',#754,10.);
#235=VECTOR('',#755,10.);
#236=VECTOR('',#756,10.);
#237=VECTOR('',#757,10.);
#238=VECTOR('',#758,10.);
#239=VECTOR('',#759,10.);
#240=VECTOR('',#760,10.);
#241=VECTOR('',#763,10.);
#242=VECTOR('',#772,10.);
#243=VECTOR('',#777,10.);
#244=VECTOR('',#780,10.);
#245=VECTOR('',#781,10.);
#246=VECTOR('',#782,10.);
#247=VECTOR('',#785,10.);
#248=VECTOR('',#788,10.);
#249=VECTOR('',#789,10.);
#250=VECTOR('',#792,10.);
#251=VECTOR('',#795,10.);
#252=VECTOR('',#796,10.);
#253=VECTOR('',#797,10.);
#254=VECTOR('',#800,10.);
#255=VECTOR('',#801,10.);
#256=VECTOR('',#802,10.);
#257=VECTOR('',#803,10.);
#258=VECTOR('',#804,10.);
#259=VECTOR('',#809,10.);
#260=VECTOR('',#812,10.);
#261=VERTEX_POINT('',#819);
#262=VERTEX_POINT('',#820);
#263=VERTEX_POINT('',#822);
#264=VERTEX_POINT('',#824);
#265=VERTEX_POINT('',#826);
#266=VERTEX_POINT('',#828);
#267=VERTEX_POINT('',#831);
#268=VERTEX_POINT('',#833);
#269=VERTEX_POINT('',#835);
#270=VERTEX_POINT('',#837);
#271=VERTEX_POINT('',#841);
#272=VERTEX_POINT('',#843);
#273=VERTEX_POINT('',#847);
#274=VERTEX_POINT('',#849);
#275=VERTEX_POINT('',#851);
#276=VERTEX_POINT('',#855);
#277=VERTEX_POINT('',#859);
#278=VERTEX_POINT('',#861);
#279=VERTEX_POINT('',#863);
#280=VERTEX_POINT('',#867);
#281=VERTEX_POINT('',#870);
#282=VERTEX_POINT('',#874);
#283=VERTEX_POINT('',#875);
#284=VERTEX_POINT('',#877);
#285=VERTEX_POINT('',#879);
#286=VERTEX_POINT('',#883);
#287=VERTEX_POINT('',#884);
#288=VERTEX_POINT('',#886);
#289=VERTEX_POINT('',#888);
#290=VERTEX_POINT('',#892);
#291=VERTEX_POINT('',#894);
#292=VERTEX_POINT('',#898);
#293=VERTEX_POINT('',#900);
#294=VERTEX_POINT('',#904);
#295=VERTEX_POINT('',#906);
#296=VERTEX_POINT('',#910);
#297=VERTEX_POINT('',#912);
#298=VERTEX_POINT('',#916);
#299=VERTEX_POINT('',#918);
#300=VERTEX_POINT('',#922);
#301=VERTEX_POINT('',#924);
#302=VERTEX_POINT('',#926);
#303=VERTEX_POINT('',#928);
#304=VERTEX_POINT('',#931);
#305=VERTEX_POINT('',#933);
#306=VERTEX_POINT('',#935);
#307=VERTEX_POINT('',#937);
#308=VERTEX_POINT('',#942);
#309=VERTEX_POINT('',#948);
#310=VERTEX_POINT('',#954);
#311=VERTEX_POINT('',#956);
#312=VERTEX_POINT('',#962);
#313=VERTEX_POINT('',#968);
#314=VERTEX_POINT('',#970);
#315=VERTEX_POINT('',#975);
#316=VERTEX_POINT('',#977);
#317=EDGE_CURVE('',#261,#262,#117,.T.);
#318=EDGE_CURVE('',#263,#261,#105,.F.);
#319=EDGE_CURVE('',#264,#263,#118,.T.);
#320=EDGE_CURVE('',#265,#264,#106,.T.);
#321=EDGE_CURVE('',#265,#266,#119,.T.);
#322=EDGE_CURVE('',#266,#266,#107,.T.);
#323=EDGE_CURVE('',#267,#265,#108,.T.);
#324=EDGE_CURVE('',#268,#267,#120,.T.);
#325=EDGE_CURVE('',#269,#268,#109,.F.);
#326=EDGE_CURVE('',#270,#269,#121,.T.);
#327=EDGE_CURVE('',#262,#270,#110,.T.);
#328=EDGE_CURVE('',#271,#270,#122,.T.);
#329=EDGE_CURVE('',#272,#271,#111,.T.);
#330=EDGE_CURVE('',#262,#272,#123,.T.);
#331=EDGE_CURVE('',#269,#273,#124,.T.);
#332=EDGE_CURVE('',#274,#273,#125,.T.);
#333=EDGE_CURVE('',#275,#274,#126,.T.);
#334=EDGE_CURVE('',#275,#271,#127,.T.);
#335=EDGE_CURVE('',#276,#268,#128,.T.);
#336=EDGE_CURVE('',#273,#276,#129,.F.);
#337=EDGE_CURVE('',#267,#277,#130,.T.);
#338=EDGE_CURVE('',#277,#278,#131,.T.);
#339=EDGE_CURVE('',#278,#279,#132,.T.);
#340=EDGE_CURVE('',#276,#279,#133,.T.);
#341=EDGE_CURVE('',#280,#280,#112,.T.);
#342=EDGE_CURVE('',#280,#281,#134,.T.);
#343=EDGE_CURVE('',#281,#281,#113,.T.);
#344=EDGE_CURVE('',#282,#283,#135,.T.);
#345=EDGE_CURVE('',#284,#282,#136,.F.);
#346=EDGE_CURVE('',#285,#284,#137,.F.);
#347=EDGE_CURVE('',#283,#285,#138,.F.);
#348=EDGE_CURVE('',#286,#287,#139,.T.);
#349=EDGE_CURVE('',#288,#286,#140,.F.);
#350=EDGE_CURVE('',#289,#288,#141,.F.);
#351=EDGE_CURVE('',#287,#289,#142,.F.);
#352=EDGE_CURVE('',#290,#261,#143,.T.);
#353=EDGE_CURVE('',#291,#290,#144,.F.);
#354=EDGE_CURVE('',#263,#291,#145,.T.);
#355=EDGE_CURVE('',#292,#288,#146,.T.);
#356=EDGE_CURVE('',#292,#293,#147,.T.);
#357=EDGE_CURVE('',#293,#289,#148,.T.);
#358=EDGE_CURVE('',#294,#284,#149,.T.);
#359=EDGE_CURVE('',#294,#295,#150,.T.);
#360=EDGE_CURVE('',#295,#285,#151,.T.);
#361=EDGE_CURVE('',#287,#296,#152,.T.);
#362=EDGE_CURVE('',#296,#297,#153,.T.);
#363=EDGE_CURVE('',#286,#297,#154,.T.);
#364=EDGE_CURVE('',#272,#298,#155,.T.);
#365=EDGE_CURVE('',#299,#298,#156,.T.);
#366=EDGE_CURVE('',#290,#299,#157,.T.);
#367=EDGE_CURVE('',#297,#300,#158,.T.);
#368=EDGE_CURVE('',#300,#301,#159,.T.);
#369=EDGE_CURVE('',#302,#301,#160,.T.);
#370=EDGE_CURVE('',#302,#303,#161,.T.);
#371=EDGE_CURVE('',#303,#291,#162,.T.);
#372=EDGE_CURVE('',#304,#299,#163,.T.);
#373=EDGE_CURVE('',#305,#304,#164,.T.);
#374=EDGE_CURVE('',#306,#305,#165,.T.);
#375=EDGE_CURVE('',#307,#306,#166,.T.);
#376=EDGE_CURVE('',#283,#307,#167,.T.);
#377=EDGE_CURVE('',#295,#292,#168,.T.);
#378=EDGE_CURVE('',#308,#264,#169,.T.);
#379=EDGE_CURVE('',#277,#308,#114,.T.);
#380=EDGE_CURVE('',#298,#275,#115,.T.);
#381=EDGE_CURVE('',#309,#308,#170,.T.);
#382=EDGE_CURVE('',#278,#309,#116,.T.);
#383=EDGE_CURVE('',#303,#309,#171,.T.);
#384=EDGE_CURVE('',#301,#310,#172,.T.);
#385=EDGE_CURVE('',#310,#311,#173,.T.);
#386=EDGE_CURVE('',#311,#302,#174,.T.);
#387=EDGE_CURVE('',#279,#311,#175,.T.);
#388=EDGE_CURVE('',#300,#312,#176,.T.);
#389=EDGE_CURVE('',#312,#310,#177,.T.);
#390=EDGE_CURVE('',#312,#296,#178,.T.);
#391=EDGE_CURVE('',#304,#313,#179,.T.);
#392=EDGE_CURVE('',#313,#314,#180,.T.);
#393=EDGE_CURVE('',#314,#305,#181,.T.);
#394=EDGE_CURVE('',#294,#293,#182,.T.);
#395=EDGE_CURVE('',#282,#315,#183,.T.);
#396=EDGE_CURVE('',#316,#315,#184,.T.);
#397=EDGE_CURVE('',#316,#314,#185,.T.);
#398=EDGE_CURVE('',#274,#313,#186,.T.);
#399=EDGE_CURVE('',#306,#316,#187,.T.);
#400=EDGE_CURVE('',#315,#307,#188,.T.);
#401=ORIENTED_EDGE('',*,*,#317,.F.);
#402=ORIENTED_EDGE('',*,*,#318,.F.);
#403=ORIENTED_EDGE('',*,*,#319,.F.);
#404=ORIENTED_EDGE('',*,*,#320,.F.);
#405=ORIENTED_EDGE('',*,*,#321,.T.);
#406=ORIENTED_EDGE('',*,*,#322,.F.);
#407=ORIENTED_EDGE('',*,*,#321,.F.);
#408=ORIENTED_EDGE('',*,*,#323,.F.);
#409=ORIENTED_EDGE('',*,*,#324,.F.);
#410=ORIENTED_EDGE('',*,*,#325,.F.);
#411=ORIENTED_EDGE('',*,*,#326,.F.);
#412=ORIENTED_EDGE('',*,*,#327,.F.);
#413=ORIENTED_EDGE('',*,*,#327,.T.);
#414=ORIENTED_EDGE('',*,*,#328,.F.);
#415=ORIENTED_EDGE('',*,*,#329,.F.);
#416=ORIENTED_EDGE('',*,*,#330,.F.);
#417=ORIENTED_EDGE('',*,*,#326,.T.);
#418=ORIENTED_EDGE('',*,*,#331,.T.);
#419=ORIENTED_EDGE('',*,*,#332,.F.);
#420=ORIENTED_EDGE('',*,*,#333,.F.);
#421=ORIENTED_EDGE('',*,*,#334,.T.);
#422=ORIENTED_EDGE('',*,*,#328,.T.);
#423=ORIENTED_EDGE('',*,*,#325,.T.);
#424=ORIENTED_EDGE('',*,*,#335,.F.);
#425=ORIENTED_EDGE('',*,*,#336,.F.);
#426=ORIENTED_EDGE('',*,*,#331,.F.);
#427=ORIENTED_EDGE('',*,*,#324,.T.);
#428=ORIENTED_EDGE('',*,*,#337,.T.);
#429=ORIENTED_EDGE('',*,*,#338,.T.);
#430=ORIENTED_EDGE('',*,*,#339,.T.);
#431=ORIENTED_EDGE('',*,*,#340,.F.);
#432=ORIENTED_EDGE('',*,*,#335,.T.);
#433=ORIENTED_EDGE('',*,*,#341,.F.);
#434=ORIENTED_EDGE('',*,*,#322,.T.);
#435=ORIENTED_EDGE('',*,*,#341,.T.);
#436=ORIENTED_EDGE('',*,*,#342,.T.);
#437=ORIENTED_EDGE('',*,*,#343,.F.);
#438=ORIENTED_EDGE('',*,*,#342,.F.);
#439=ORIENTED_EDGE('',*,*,#344,.F.);
#440=ORIENTED_EDGE('',*,*,#345,.F.);
#441=ORIENTED_EDGE('',*,*,#346,.F.);
#442=ORIENTED_EDGE('',*,*,#347,.F.);
#443=ORIENTED_EDGE('',*,*,#348,.F.);
#444=ORIENTED_EDGE('',*,*,#349,.F.);
#445=ORIENTED_EDGE('',*,*,#350,.F.);
#446=ORIENTED_EDGE('',*,*,#351,.F.);
#447=ORIENTED_EDGE('',*,*,#318,.T.);
#448=ORIENTED_EDGE('',*,*,#352,.F.);
#449=ORIENTED_EDGE('',*,*,#353,.F.);
#450=ORIENTED_EDGE('',*,*,#354,.F.);
#451=ORIENTED_EDGE('',*,*,#350,.T.);
#452=ORIENTED_EDGE('',*,*,#355,.F.);
#453=ORIENTED_EDGE('',*,*,#356,.T.);
#454=ORIENTED_EDGE('',*,*,#357,.T.);
#455=ORIENTED_EDGE('',*,*,#346,.T.);
#456=ORIENTED_EDGE('',*,*,#358,.F.);
#457=ORIENTED_EDGE('',*,*,#359,.T.);
#458=ORIENTED_EDGE('',*,*,#360,.T.);
#459=ORIENTED_EDGE('',*,*,#348,.T.);
#460=ORIENTED_EDGE('',*,*,#361,.T.);
#461=ORIENTED_EDGE('',*,*,#362,.T.);
#462=ORIENTED_EDGE('',*,*,#363,.F.);
#463=ORIENTED_EDGE('',*,*,#317,.T.);
#464=ORIENTED_EDGE('',*,*,#330,.T.);
#465=ORIENTED_EDGE('',*,*,#364,.T.);
#466=ORIENTED_EDGE('',*,*,#365,.F.);
#467=ORIENTED_EDGE('',*,*,#366,.F.);
#468=ORIENTED_EDGE('',*,*,#352,.T.);
#469=ORIENTED_EDGE('',*,*,#363,.T.);
#470=ORIENTED_EDGE('',*,*,#367,.T.);
#471=ORIENTED_EDGE('',*,*,#368,.T.);
#472=ORIENTED_EDGE('',*,*,#369,.F.);
#473=ORIENTED_EDGE('',*,*,#370,.T.);
#474=ORIENTED_EDGE('',*,*,#371,.T.);
#475=ORIENTED_EDGE('',*,*,#353,.T.);
#476=ORIENTED_EDGE('',*,*,#366,.T.);
#477=ORIENTED_EDGE('',*,*,#372,.F.);
#478=ORIENTED_EDGE('',*,*,#373,.F.);
#479=ORIENTED_EDGE('',*,*,#374,.F.);
#480=ORIENTED_EDGE('',*,*,#375,.F.);
#481=ORIENTED_EDGE('',*,*,#376,.F.);
#482=ORIENTED_EDGE('',*,*,#347,.T.);
#483=ORIENTED_EDGE('',*,*,#360,.F.);
#484=ORIENTED_EDGE('',*,*,#377,.T.);
#485=ORIENTED_EDGE('',*,*,#355,.T.);
#486=ORIENTED_EDGE('',*,*,#349,.T.);
#487=ORIENTED_EDGE('',*,*,#323,.T.);
#488=ORIENTED_EDGE('',*,*,#320,.T.);
#489=ORIENTED_EDGE('',*,*,#378,.F.);
#490=ORIENTED_EDGE('',*,*,#379,.F.);
#491=ORIENTED_EDGE('',*,*,#337,.F.);
#492=ORIENTED_EDGE('',*,*,#334,.F.);
#493=ORIENTED_EDGE('',*,*,#380,.F.);
#494=ORIENTED_EDGE('',*,*,#364,.F.);
#495=ORIENTED_EDGE('',*,*,#329,.T.);
#496=ORIENTED_EDGE('',*,*,#381,.F.);
#497=ORIENTED_EDGE('',*,*,#382,.F.);
#498=ORIENTED_EDGE('',*,*,#338,.F.);
#499=ORIENTED_EDGE('',*,*,#379,.T.);
#500=ORIENTED_EDGE('',*,*,#319,.T.);
#501=ORIENTED_EDGE('',*,*,#354,.T.);
#502=ORIENTED_EDGE('',*,*,#371,.F.);
#503=ORIENTED_EDGE('',*,*,#383,.T.);
#504=ORIENTED_EDGE('',*,*,#381,.T.);
#505=ORIENTED_EDGE('',*,*,#378,.T.);
#506=ORIENTED_EDGE('',*,*,#369,.T.);
#507=ORIENTED_EDGE('',*,*,#384,.T.);
#508=ORIENTED_EDGE('',*,*,#385,.T.);
#509=ORIENTED_EDGE('',*,*,#386,.T.);
#510=ORIENTED_EDGE('',*,*,#382,.T.);
#511=ORIENTED_EDGE('',*,*,#383,.F.);
#512=ORIENTED_EDGE('',*,*,#370,.F.);
#513=ORIENTED_EDGE('',*,*,#386,.F.);
#514=ORIENTED_EDGE('',*,*,#387,.F.);
#515=ORIENTED_EDGE('',*,*,#339,.F.);
#516=ORIENTED_EDGE('',*,*,#384,.F.);
#517=ORIENTED_EDGE('',*,*,#368,.F.);
#518=ORIENTED_EDGE('',*,*,#388,.T.);
#519=ORIENTED_EDGE('',*,*,#389,.T.);
#520=ORIENTED_EDGE('',*,*,#362,.F.);
#521=ORIENTED_EDGE('',*,*,#390,.F.);
#522=ORIENTED_EDGE('',*,*,#388,.F.);
#523=ORIENTED_EDGE('',*,*,#367,.F.);
#524=ORIENTED_EDGE('',*,*,#373,.T.);
#525=ORIENTED_EDGE('',*,*,#391,.T.);
#526=ORIENTED_EDGE('',*,*,#392,.T.);
#527=ORIENTED_EDGE('',*,*,#393,.T.);
#528=ORIENTED_EDGE('',*,*,#340,.T.);
#529=ORIENTED_EDGE('',*,*,#387,.T.);
#530=ORIENTED_EDGE('',*,*,#385,.F.);
#531=ORIENTED_EDGE('',*,*,#389,.F.);
#532=ORIENTED_EDGE('',*,*,#390,.T.);
#533=ORIENTED_EDGE('',*,*,#361,.F.);
#534=ORIENTED_EDGE('',*,*,#351,.T.);
#535=ORIENTED_EDGE('',*,*,#357,.F.);
#536=ORIENTED_EDGE('',*,*,#394,.F.);
#537=ORIENTED_EDGE('',*,*,#358,.T.);
#538=ORIENTED_EDGE('',*,*,#345,.T.);
#539=ORIENTED_EDGE('',*,*,#395,.T.);
#540=ORIENTED_EDGE('',*,*,#396,.F.);
#541=ORIENTED_EDGE('',*,*,#397,.T.);
#542=ORIENTED_EDGE('',*,*,#392,.F.);
#543=ORIENTED_EDGE('',*,*,#398,.F.);
#544=ORIENTED_EDGE('',*,*,#332,.T.);
#545=ORIENTED_EDGE('',*,*,#336,.T.);
#546=ORIENTED_EDGE('',*,*,#380,.T.);
#547=ORIENTED_EDGE('',*,*,#333,.T.);
#548=ORIENTED_EDGE('',*,*,#398,.T.);
#549=ORIENTED_EDGE('',*,*,#391,.F.);
#550=ORIENTED_EDGE('',*,*,#372,.T.);
#551=ORIENTED_EDGE('',*,*,#365,.T.);
#552=ORIENTED_EDGE('',*,*,#393,.F.);
#553=ORIENTED_EDGE('',*,*,#397,.F.);
#554=ORIENTED_EDGE('',*,*,#399,.F.);
#555=ORIENTED_EDGE('',*,*,#374,.T.);
#556=ORIENTED_EDGE('',*,*,#400,.T.);
#557=ORIENTED_EDGE('',*,*,#375,.T.);
#558=ORIENTED_EDGE('',*,*,#399,.T.);
#559=ORIENTED_EDGE('',*,*,#396,.T.);
#560=ORIENTED_EDGE('',*,*,#344,.T.);
#561=ORIENTED_EDGE('',*,*,#376,.T.);
#562=ORIENTED_EDGE('',*,*,#400,.F.);
#563=ORIENTED_EDGE('',*,*,#395,.F.);
#564=ORIENTED_EDGE('',*,*,#394,.T.);
#565=ORIENTED_EDGE('',*,*,#356,.F.);
#566=ORIENTED_EDGE('',*,*,#377,.F.);
#567=ORIENTED_EDGE('',*,*,#359,.F.);
#568=ORIENTED_EDGE('',*,*,#343,.T.);
#569=CYLINDRICAL_SURFACE('',#617,1.55);
#570=CYLINDRICAL_SURFACE('',#631,2.5);
#571=CYLINDRICAL_SURFACE('',#643,2.9);
#572=CYLINDRICAL_SURFACE('',#645,2.9);
#573=ADVANCED_FACE('',(#43),#569,.F.);
#574=ADVANCED_FACE('',(#44),#17,.T.);
#575=ADVANCED_FACE('',(#45),#18,.T.);
#576=ADVANCED_FACE('',(#46),#19,.T.);
#577=ADVANCED_FACE('',(#47),#20,.F.);
#578=ADVANCED_FACE('',(#48,#15),#21,.F.);
#579=ADVANCED_FACE('',(#49),#570,.F.);
#580=ADVANCED_FACE('',(#50),#22,.T.);
#581=ADVANCED_FACE('',(#51),#23,.T.);
#582=ADVANCED_FACE('',(#52),#24,.T.);
#583=ADVANCED_FACE('',(#53),#25,.T.);
#584=ADVANCED_FACE('',(#54),#26,.T.);
#585=ADVANCED_FACE('',(#55),#27,.T.);
#586=ADVANCED_FACE('',(#56),#28,.T.);
#587=ADVANCED_FACE('',(#57),#29,.T.);
#588=ADVANCED_FACE('',(#58),#30,.T.);
#589=ADVANCED_FACE('',(#59),#571,.F.);
#590=ADVANCED_FACE('',(#60),#572,.F.);
#591=ADVANCED_FACE('',(#61),#31,.F.);
#592=ADVANCED_FACE('',(#62),#32,.T.);
#593=ADVANCED_FACE('',(#63),#33,.F.);
#594=ADVANCED_FACE('',(#64),#34,.F.);
#595=ADVANCED_FACE('',(#65),#35,.T.);
#596=ADVANCED_FACE('',(#66),#36,.T.);
#597=ADVANCED_FACE('',(#67),#37,.T.);
#598=ADVANCED_FACE('',(#68),#38,.T.);
#599=ADVANCED_FACE('',(#69),#39,.T.);
#600=ADVANCED_FACE('',(#70),#40,.F.);
#601=ADVANCED_FACE('',(#71),#41,.T.);
#602=ADVANCED_FACE('',(#72,#16),#42,.T.);
#603=CLOSED_SHELL('',(#573,#574,#575,#576,#577,#578,#579,#580,#581,#582,
#583,#584,#585,#586,#587,#588,#589,#590,#591,#592,#593,#594,#595,#596,#597,
#598,#599,#600,#601,#602));
#604=DERIVED_UNIT_ELEMENT(#606,1.);
#605=DERIVED_UNIT_ELEMENT(#993,-3.);
#606=(
MASS_UNIT()
NAMED_UNIT(*)
SI_UNIT(.KILO.,.GRAM.)
);
#607=DERIVED_UNIT((#604,#605));
#608=MEASURE_REPRESENTATION_ITEM('density measure',
POSITIVE_RATIO_MEASURE(7850.),#607);
#609=PROPERTY_DEFINITION_REPRESENTATION(#614,#611);
#610=PROPERTY_DEFINITION_REPRESENTATION(#615,#612);
#611=REPRESENTATION('material name',(#613),#990);
#612=REPRESENTATION('density',(#608),#990);
#613=DESCRIPTIVE_REPRESENTATION_ITEM('Steel','Steel');
#614=PROPERTY_DEFINITION('material property','material name',#1000);
#615=PROPERTY_DEFINITION('material property','density of part',#1000);
#616=AXIS2_PLACEMENT_3D('',#817,#659,#660);
#617=AXIS2_PLACEMENT_3D('',#818,#661,#662);
#618=AXIS2_PLACEMENT_3D('',#823,#664,#665);
#619=AXIS2_PLACEMENT_3D('',#827,#667,#668);
#620=AXIS2_PLACEMENT_3D('',#830,#670,#671);
#621=AXIS2_PLACEMENT_3D('',#832,#672,#673);
#622=AXIS2_PLACEMENT_3D('',#836,#675,#676);
#623=AXIS2_PLACEMENT_3D('',#839,#678,#679);
#624=AXIS2_PLACEMENT_3D('',#840,#680,#681);
#625=AXIS2_PLACEMENT_3D('',#844,#683,#684);
#626=AXIS2_PLACEMENT_3D('',#846,#686,#687);
#627=AXIS2_PLACEMENT_3D('',#854,#692,#693);
#628=AXIS2_PLACEMENT_3D('',#858,#696,#697);
#629=AXIS2_PLACEMENT_3D('',#866,#702,#703);
#630=AXIS2_PLACEMENT_3D('',#868,#704,#705);
#631=AXIS2_PLACEMENT_3D('',#869,#706,#707);
#632=AXIS2_PLACEMENT_3D('',#872,#709,#710);
#633=AXIS2_PLACEMENT_3D('',#873,#711,#712);
#634=AXIS2_PLACEMENT_3D('',#882,#717,#718);
#635=AXIS2_PLACEMENT_3D('',#891,#723,#724);
#636=AXIS2_PLACEMENT_3D('',#897,#728,#729);
#637=AXIS2_PLACEMENT_3D('',#903,#733,#734);
#638=AXIS2_PLACEMENT_3D('',#909,#738,#739);
#639=AXIS2_PLACEMENT_3D('',#915,#743,#744);
#640=AXIS2_PLACEMENT_3D('',#921,#748,#749);
#641=AXIS2_PLACEMENT_3D('',#941,#761,#762);
#642=AXIS2_PLACEMENT_3D('',#944,#764,#765);
#643=AXIS2_PLACEMENT_3D('',#945,#766,#767);
#644=AXIS2_PLACEMENT_3D('',#946,#768,#769);
#645=AXIS2_PLACEMENT_3D('',#947,#770,#771);
#646=AXIS2_PLACEMENT_3D('',#950,#773,#774);
#647=AXIS2_PLACEMENT_3D('',#951,#775,#776);
#648=AXIS2_PLACEMENT_3D('',#953,#778,#779);
#649=AXIS2_PLACEMENT_3D('',#959,#783,#784);
#650=AXIS2_PLACEMENT_3D('',#961,#786,#787);
#651=AXIS2_PLACEMENT_3D('',#965,#790,#791);
#652=AXIS2_PLACEMENT_3D('',#967,#793,#794);
#653=AXIS2_PLACEMENT_3D('',#973,#798,#799);
#654=AXIS2_PLACEMENT_3D('',#981,#805,#806);
#655=AXIS2_PLACEMENT_3D('',#982,#807,#808);
#656=AXIS2_PLACEMENT_3D('',#984,#810,#811);
#657=AXIS2_PLACEMENT_3D('',#986,#813,#814);
#658=AXIS2_PLACEMENT_3D('',#987,#815,#816);
#659=DIRECTION('axis',(0.,0.,1.));
#660=DIRECTION('refdir',(1.,0.,0.));
#661=DIRECTION('center_axis',(1.,0.,0.));
#662=DIRECTION('ref_axis',(0.,-6.53675915885197E-34,1.));
#663=DIRECTION('',(-1.,0.,0.));
#664=DIRECTION('center_axis',(-1.,0.,0.));
#665=DIRECTION('ref_axis',(0.,-6.53675915885197E-34,1.));
#666=DIRECTION('',(1.,0.,0.));
#667=DIRECTION('center_axis',(1.,0.,0.));
#668=DIRECTION('ref_axis',(0.,-6.53675915885197E-34,1.));
#669=DIRECTION('',(1.,0.,0.));
#670=DIRECTION('center_axis',(-1.,0.,0.));
#671=DIRECTION('ref_axis',(0.,-6.53675915885197E-34,1.));
#672=DIRECTION('center_axis',(1.,0.,0.));
#673=DIRECTION('ref_axis',(0.,-6.53675915885197E-34,1.));
#674=DIRECTION('',(-1.,0.,0.));
#675=DIRECTION('center_axis',(-1.,0.,0.));
#676=DIRECTION('ref_axis',(0.,-6.53675915885197E-34,1.));
#677=DIRECTION('',(1.,0.,0.));
#678=DIRECTION('center_axis',(1.,0.,0.));
#679=DIRECTION('ref_axis',(0.,-6.53675915885197E-34,1.));
#680=DIRECTION('center_axis',(-1.,0.,0.));
#681=DIRECTION('ref_axis',(0.,-6.53675915885197E-34,1.));
#682=DIRECTION('',(0.,1.,0.));
#683=DIRECTION('center_axis',(1.,0.,0.));
#684=DIRECTION('ref_axis',(0.,-6.53675915885197E-34,1.));
#685=DIRECTION('',(0.,1.,0.));
#686=DIRECTION('center_axis',(0.,0.,-1.));
#687=DIRECTION('ref_axis',(0.,-1.,0.));
#688=DIRECTION('',(0.,-1.,0.));
#689=DIRECTION('',(1.,0.,0.));
#690=DIRECTION('',(0.,-1.,0.));
#691=DIRECTION('',(1.,0.,0.));
#692=DIRECTION('center_axis',(-1.,0.,0.));
#693=DIRECTION('ref_axis',(0.,0.,1.));
#694=DIRECTION('',(0.,1.,0.));
#695=DIRECTION('',(0.,2.22044604925028E-15,1.));
#696=DIRECTION('center_axis',(0.,0.,-1.));
#697=DIRECTION('ref_axis',(0.,-1.,0.));
#698=DIRECTION('',(0.,-1.,0.));
#699=DIRECTION('',(-1.,0.,0.));
#700=DIRECTION('',(0.,-1.,0.));
#701=DIRECTION('',(-1.,0.,0.));
#702=DIRECTION('center_axis',(-1.,0.,0.));
#703=DIRECTION('ref_axis',(0.,-6.53675915885197E-34,1.));
#704=DIRECTION('center_axis',(-1.,0.,0.));
#705=DIRECTION('ref_axis',(0.,-6.53675915885197E-34,1.));
#706=DIRECTION('center_axis',(1.,0.,0.));
#707=DIRECTION('ref_axis',(0.,-6.53675915885197E-34,1.));
#708=DIRECTION('',(1.,0.,0.));
#709=DIRECTION('center_axis',(-1.,0.,0.));
#710=DIRECTION('ref_axis',(0.,-6.53675915885197E-34,1.));
#711=DIRECTION('center_axis',(-1.,0.,0.));
#712=DIRECTION('ref_axis',(0.,0.,1.));
#713=DIRECTION('',(0.,1.,-2.44249065417535E-15));
#714=DIRECTION('',(0.,2.22044604925028E-15,1.));
#715=DIRECTION('',(0.,1.,5.55111512312579E-17));
#716=DIRECTION('',(0.,0.,-1.));
#717=DIRECTION('center_axis',(-1.,0.,0.));
#718=DIRECTION('ref_axis',(0.,0.,1.));
#719=DIRECTION('',(0.,-1.,1.4432899320127E-15));
#720=DIRECTION('',(0.,0.,-1.));
#721=DIRECTION('',(0.,-1.,-6.53675915885197E-34));
#722=DIRECTION('',(0.,2.22044604925028E-15,1.));
#723=DIRECTION('center_axis',(-1.,0.,0.));
#724=DIRECTION('ref_axis',(0.,0.,1.));
#725=DIRECTION('',(0.,-1.,0.));
#726=DIRECTION('',(0.,0.,-1.));
#727=DIRECTION('',(0.,1.,0.));
#728=DIRECTION('center_axis',(0.,6.53675915885197E-34,-1.));
#729=DIRECTION('ref_axis',(0.,-1.,-6.53675915885197E-34));
#730=DIRECTION('',(-1.,0.,0.));
#731=DIRECTION('',(0.,-1.,-6.53675915885197E-34));
#732=DIRECTION('',(-1.,0.,0.));
#733=DIRECTION('center_axis',(0.,-5.55111512312579E-17,1.));
#734=DIRECTION('ref_axis',(0.,1.,5.55111512312579E-17));
#735=DIRECTION('',(-1.,0.,0.));
#736=DIRECTION('',(0.,1.,5.55111512312579E-17));
#737=DIRECTION('',(-1.,0.,0.));
#738=DIRECTION('center_axis',(0.,-1.4432899320127E-15,-1.));
#739=DIRECTION('ref_axis',(0.,-1.,1.4432899320127E-15));
#740=DIRECTION('',(-1.,0.,0.));
#741=DIRECTION('',(0.,1.,0.));
#742=DIRECTION('',(-1.,0.,0.));
#743=DIRECTION('center_axis',(0.,0.,-1.));
#744=DIRECTION('ref_axis',(0.,-1.,0.));
#745=DIRECTION('',(-1.,0.,0.));
#746=DIRECTION('',(0.,-1.,0.));
#747=DIRECTION('',(-1.,0.,0.));
#748=DIRECTION('center_axis',(0.,1.,0.));
#749=DIRECTION('ref_axis',(0.,0.,-1.));
#750=DIRECTION('',(0.,0.,-1.));
#751=DIRECTION('',(-1.,0.,0.));
#752=DIRECTION('',(0.707106781186548,0.,-0.707106781186547));
#753=DIRECTION('',(0.,0.,1.));
#754=DIRECTION('',(1.,0.,0.));
#755=DIRECTION('',(0.,0.,-1.));
#756=DIRECTION('',(-0.707106781186548,0.,-0.707106781186547));
#757=DIRECTION('',(-1.,0.,0.));
#758=DIRECTION('',(0.,0.,1.));
#759=DIRECTION('',(-1.,0.,0.));
#760=DIRECTION('',(0.,6.53675915885197E-34,-1.));
#761=DIRECTION('center_axis',(-1.,0.,0.));
#762=DIRECTION('ref_axis',(0.,-6.53675915885197E-34,1.));
#763=DIRECTION('',(0.,-1.,0.));
#764=DIRECTION('center_axis',(1.,0.,0.));
#765=DIRECTION('ref_axis',(0.,-6.53675915885197E-34,1.));
#766=DIRECTION('center_axis',(1.,0.,0.));
#767=DIRECTION('ref_axis',(0.,-6.53675915885197E-34,1.));
#768=DIRECTION('center_axis',(1.,0.,0.));
#769=DIRECTION('ref_axis',(0.,-6.53675915885197E-34,1.));
#770=DIRECTION('center_axis',(1.,0.,0.));
#771=DIRECTION('ref_axis',(0.,1.22464679914735E-16,-1.));
#772=DIRECTION('',(1.,0.,0.));
#773=DIRECTION('center_axis',(1.,0.,0.));
#774=DIRECTION('ref_axis',(0.,-6.53675915885197E-34,1.));
#775=DIRECTION('center_axis',(0.,0.,-1.));
#776=DIRECTION('ref_axis',(0.,-1.,0.));
#777=DIRECTION('',(0.,-1.,0.));
#778=DIRECTION('center_axis',(-0.707106781186547,0.,-0.707106781186548));
#779=DIRECTION('ref_axis',(-0.707106781186548,0.,0.707106781186547));
#780=DIRECTION('',(0.,-1.,0.));
#781=DIRECTION('',(-0.707106781186548,1.57009245868375E-15,0.707106781186547));
#782=DIRECTION('',(0.,1.,0.));
#783=DIRECTION('center_axis',(1.,0.,0.));
#784=DIRECTION('ref_axis',(0.,0.,-1.));
#785=DIRECTION('',(0.,0.,-1.));
#786=DIRECTION('center_axis',(0.,0.,1.));
#787=DIRECTION('ref_axis',(0.,1.,0.));
#788=DIRECTION('',(0.,-1.,0.));
#789=DIRECTION('',(-1.,0.,0.));
#790=DIRECTION('center_axis',(1.,0.,0.));
#791=DIRECTION('ref_axis',(0.,0.,-1.));
#792=DIRECTION('',(0.,0.,1.));
#793=DIRECTION('center_axis',(-0.707106781186547,0.,0.707106781186548));
#794=DIRECTION('ref_axis',(0.707106781186548,0.,0.707106781186547));
#795=DIRECTION('',(0.,-1.,0.));
#796=DIRECTION('',(0.707106781186548,1.57009245868375E-15,0.707106781186547));
#797=DIRECTION('',(0.,1.,0.));
#798=DIRECTION('center_axis',(0.,-1.,2.22044604925028E-15));
#799=DIRECTION('ref_axis',(0.,2.22044604925028E-15,1.));
#800=DIRECTION('',(0.,-2.22044604925028E-15,-1.));
#801=DIRECTION('',(-1.,0.,0.));
#802=DIRECTION('',(0.,0.,-1.));
#803=DIRECTION('',(-1.,0.,0.));
#804=DIRECTION('',(0.,0.,1.));
#805=DIRECTION('center_axis',(-1.,0.,0.));
#806=DIRECTION('ref_axis',(0.,0.,1.));
#807=DIRECTION('center_axis',(0.,0.,1.));
#808=DIRECTION('ref_axis',(0.,1.,0.));
#809=DIRECTION('',(0.,-1.,0.));
#810=DIRECTION('center_axis',(-1.,0.,0.));
#811=DIRECTION('ref_axis',(0.,0.,1.));
#812=DIRECTION('',(0.,1.,0.));
#813=DIRECTION('center_axis',(0.,2.44249065417535E-15,1.));
#814=DIRECTION('ref_axis',(0.,1.,-2.44249065417535E-15));
#815=DIRECTION('center_axis',(1.,0.,0.));
#816=DIRECTION('ref_axis',(0.,0.,-1.));
#817=CARTESIAN_POINT('',(0.,0.,0.));
#818=CARTESIAN_POINT('Origin',(-9.,-10.,-3.13638004456607E-14));
#819=CARTESIAN_POINT('',(-7.5,-8.57083940720436,0.599999999999986));
#820=CARTESIAN_POINT('',(-9.,-8.57083940720436,0.599999999999986));
#821=CARTESIAN_POINT('',(-9.,-8.57083940720436,0.599999999999986));
#822=CARTESIAN_POINT('',(-7.5,-8.57083940720434,-0.599999999999986));
#823=CARTESIAN_POINT('Origin',(-7.5,-10.,-3.13638004456607E-14));
#824=CARTESIAN_POINT('',(-9.,-8.57083940720434,-0.599999999999986));
#825=CARTESIAN_POINT('',(-9.,-8.57083940720434,-0.599999999999986));
#826=CARTESIAN_POINT('',(-9.,-10.,-1.55000000000003));
#827=CARTESIAN_POINT('Origin',(-9.,-10.,-3.13638004456607E-14));
#828=CARTESIAN_POINT('',(-6.15,-10.,-1.55000000000003));
#829=CARTESIAN_POINT('',(-9.,-10.,-1.55000000000003));
#830=CARTESIAN_POINT('Origin',(-6.15,-10.,-3.13638004456607E-14));
#831=CARTESIAN_POINT('',(-9.,-11.4291605927957,-0.599999999999986));
#832=CARTESIAN_POINT('Origin',(-9.,-10.,-3.13638004456607E-14));
#833=CARTESIAN_POINT('',(-7.5,-11.4291605927957,-0.599999999999986));
#834=CARTESIAN_POINT('',(-9.,-11.4291605927957,-0.599999999999986));
#835=CARTESIAN_POINT('',(-7.5,-11.4291605927956,0.599999999999986));
#836=CARTESIAN_POINT('Origin',(-7.5,-10.,-3.13638004456607E-14));
#837=CARTESIAN_POINT('',(-9.,-11.4291605927956,0.599999999999986));
#838=CARTESIAN_POINT('',(-9.,-11.4291605927956,0.599999999999986));
#839=CARTESIAN_POINT('Origin',(-9.,-10.,-3.13638004456607E-14));
#840=CARTESIAN_POINT('Origin',(-9.,-10.,0.));
#841=CARTESIAN_POINT('',(-9.,-12.8372521918222,0.599999999999986));
#842=CARTESIAN_POINT('',(-9.,-5.,0.599999999999986));
#843=CARTESIAN_POINT('',(-9.,-7.16274780817778,0.599999999999986));
#844=CARTESIAN_POINT('Origin',(-9.,-10.,0.));
#845=CARTESIAN_POINT('',(-9.,-5.,0.599999999999986));
#846=CARTESIAN_POINT('Origin',(-8.,0.,0.599999999999986));
#847=CARTESIAN_POINT('',(-7.5,-20.,0.599999999999986));
#848=CARTESIAN_POINT('',(-7.5,-5.,0.599999999999986));
#849=CARTESIAN_POINT('',(-12.2,-20.,0.599999999999986));
#850=CARTESIAN_POINT('',(-6.5,-20.,0.599999999999986));
#851=CARTESIAN_POINT('',(-12.2,-12.8372521918222,0.599999999999986));
#852=CARTESIAN_POINT('',(-12.2,-20.,0.599999999999986));
#853=CARTESIAN_POINT('',(-12.2,-12.8372521918222,0.599999999999986));
#854=CARTESIAN_POINT('Origin',(-7.5,-10.,1.49880108324396E-14));
#855=CARTESIAN_POINT('',(-7.5,-20.,-0.599999999999986));
#856=CARTESIAN_POINT('',(-7.5,-5.,-0.599999999999986));
#857=CARTESIAN_POINT('',(-7.5,-20.,-1.49999999999998));
#858=CARTESIAN_POINT('Origin',(-8.,0.,-0.599999999999986));
#859=CARTESIAN_POINT('',(-9.,-12.8372521918222,-0.599999999999986));
#860=CARTESIAN_POINT('',(-9.,-5.,-0.599999999999986));
#861=CARTESIAN_POINT('',(-12.2,-12.8372521918222,-0.599999999999986));
#862=CARTESIAN_POINT('',(-12.2,-12.8372521918222,-0.599999999999986));
#863=CARTESIAN_POINT('',(-12.2,-20.,-0.599999999999986));
#864=CARTESIAN_POINT('',(-12.2,-20.,-0.599999999999986));
#865=CARTESIAN_POINT('',(-6.5,-20.,-0.599999999999986));
#866=CARTESIAN_POINT('Origin',(-6.15,-10.,0.));
#867=CARTESIAN_POINT('',(-6.15,-10.,-2.5));
#868=CARTESIAN_POINT('Origin',(-6.15,-10.,0.));
#869=CARTESIAN_POINT('Origin',(-4.75,-10.,0.));
#870=CARTESIAN_POINT('',(-5.,-10.,-2.5));
#871=CARTESIAN_POINT('',(-4.75,-10.,-2.5));
#872=CARTESIAN_POINT('Origin',(-5.,-10.,0.));
#873=CARTESIAN_POINT('Origin',(-7.5,-10.,1.49880108324396E-14));
#874=CARTESIAN_POINT('',(-7.5,-20.,3.00000000000003));
#875=CARTESIAN_POINT('',(-7.5,0.,2.99999999999999));
#876=CARTESIAN_POINT('',(-7.5,-15.,3.00000000000002));
#877=CARTESIAN_POINT('',(-7.5,-20.,6.50000000000006));
#878=CARTESIAN_POINT('',(-7.5,-20.,-1.49999999999998));
#879=CARTESIAN_POINT('',(-7.5,-8.88178419700125E-15,6.50000000000006));
#880=CARTESIAN_POINT('',(-7.5,-15.,6.50000000000006));
#881=CARTESIAN_POINT('',(-7.5,0.,1.5));
#882=CARTESIAN_POINT('Origin',(-7.5,-10.,1.49880108324396E-14));
#883=CARTESIAN_POINT('',(-7.5,-2.22044604925031E-15,-3.00000000000004));
#884=CARTESIAN_POINT('',(-7.5,-20.,-3.00000000000001));
#885=CARTESIAN_POINT('',(-7.5,-5.00000000000001,-3.00000000000003));
#886=CARTESIAN_POINT('',(-7.5,-8.88178419700125E-15,-6.50000000000003));
#887=CARTESIAN_POINT('',(-7.5,0.,1.5));
#888=CARTESIAN_POINT('',(-7.5,-20.,-6.50000000000003));
#889=CARTESIAN_POINT('',(-7.5,-5.00000000000001,-6.50000000000002));
#890=CARTESIAN_POINT('',(-7.5,-20.,-1.49999999999998));
#891=CARTESIAN_POINT('Origin',(-7.5,-10.,1.49880108324396E-14));
#892=CARTESIAN_POINT('',(-7.5,0.,0.599999999999986));
#893=CARTESIAN_POINT('',(-7.5,-5.,0.599999999999986));
#894=CARTESIAN_POINT('',(-7.5,0.,-0.599999999999986));
#895=CARTESIAN_POINT('',(-7.5,0.,1.5));
#896=CARTESIAN_POINT('',(-7.5,-5.,-0.599999999999986));
#897=CARTESIAN_POINT('Origin',(-5.,-8.88178419700125E-15,-6.50000000000002));
#898=CARTESIAN_POINT('',(-5.,-8.88178419700125E-15,-6.50000000000002));
#899=CARTESIAN_POINT('',(-5.,-8.88178419700125E-15,-6.50000000000002));
#900=CARTESIAN_POINT('',(-5.,-20.,-6.50000000000002));
#901=CARTESIAN_POINT('',(-5.,-8.88178419700125E-15,-6.50000000000002));
#902=CARTESIAN_POINT('',(-5.,-20.,-6.50000000000002));
#903=CARTESIAN_POINT('Origin',(-5.,-20.,6.50000000000006));
#904=CARTESIAN_POINT('',(-5.,-20.,6.50000000000006));
#905=CARTESIAN_POINT('',(-5.,-20.,6.50000000000006));
#906=CARTESIAN_POINT('',(-5.,-8.88178419700125E-15,6.50000000000006));
#907=CARTESIAN_POINT('',(-5.,-20.,6.50000000000006));
#908=CARTESIAN_POINT('',(-5.,-8.88178419700125E-15,6.50000000000006));
#909=CARTESIAN_POINT('Origin',(-5.,-2.22044604925031E-15,-3.00000000000004));
#910=CARTESIAN_POINT('',(-10.2,-20.,-2.99999999999999));
#911=CARTESIAN_POINT('',(-5.,-20.,-3.00000000000001));
#912=CARTESIAN_POINT('',(-10.2,0.,-2.99999999999999));
#913=CARTESIAN_POINT('',(-10.2,-20.,-2.99999999999999));
#914=CARTESIAN_POINT('',(-5.,-2.22044604925031E-15,-3.00000000000004));
#915=CARTESIAN_POINT('Origin',(-8.,0.,0.599999999999986));
#916=CARTESIAN_POINT('',(-12.2,-7.16274780817778,0.599999999999986));
#917=CARTESIAN_POINT('',(-12.2,-7.16274780817778,0.599999999999986));
#918=CARTESIAN_POINT('',(-12.2,0.,0.599999999999986));
#919=CARTESIAN_POINT('',(-12.2,-20.,0.599999999999986));
#920=CARTESIAN_POINT('',(-6.5,0.,0.599999999999986));
#921=CARTESIAN_POINT('Origin',(-5.,0.,2.99999999999999));
#922=CARTESIAN_POINT('',(-10.2,0.,-4.59999999999999));
#923=CARTESIAN_POINT('',(-10.2,0.,-0.599999999999986));
#924=CARTESIAN_POINT('',(-11.2,0.,-4.59999999999999));
#925=CARTESIAN_POINT('',(-10.2,0.,-4.59999999999999));
#926=CARTESIAN_POINT('',(-12.2,0.,-3.59999999999999));
#927=CARTESIAN_POINT('',(-11.8,0.,-3.99999999999999));
#928=CARTESIAN_POINT('',(-12.2,0.,-0.599999999999986));
#929=CARTESIAN_POINT('',(-12.2,0.,-0.599999999999986));
#930=CARTESIAN_POINT('',(-6.5,0.,-0.599999999999986));
#931=CARTESIAN_POINT('',(-12.2,0.,3.59999999999999));
#932=CARTESIAN_POINT('',(-12.2,0.,0.599999999999986));
#933=CARTESIAN_POINT('',(-11.2,0.,4.59999999999999));
#934=CARTESIAN_POINT('',(-10.3,0.,5.49999999999999));
#935=CARTESIAN_POINT('',(-10.2,0.,4.59999999999999));
#936=CARTESIAN_POINT('',(-10.2,0.,4.59999999999999));
#937=CARTESIAN_POINT('',(-10.2,0.,2.99999999999999));
#938=CARTESIAN_POINT('',(-10.2,0.,0.599999999999986));
#939=CARTESIAN_POINT('',(-5.,0.,2.99999999999999));
#940=CARTESIAN_POINT('',(-5.,-8.88178419700125E-15,6.50000000000006));
#941=CARTESIAN_POINT('Origin',(-9.,-10.,0.));
#942=CARTESIAN_POINT('',(-9.,-7.16274780817778,-0.599999999999986));
#943=CARTESIAN_POINT('',(-9.,-5.,-0.599999999999986));
#944=CARTESIAN_POINT('Origin',(-9.,-10.,0.));
#945=CARTESIAN_POINT('Origin',(-12.2,-10.,0.));
#946=CARTESIAN_POINT('Origin',(-12.2,-10.,0.));
#947=CARTESIAN_POINT('Origin',(-12.2,-10.,0.));
#948=CARTESIAN_POINT('',(-12.2,-7.16274780817778,-0.599999999999986));
#949=CARTESIAN_POINT('',(-12.2,-7.16274780817778,-0.599999999999986));
#950=CARTESIAN_POINT('Origin',(-12.2,-10.,0.));
#951=CARTESIAN_POINT('Origin',(-8.,0.,-0.599999999999986));
#952=CARTESIAN_POINT('',(-12.2,-20.,-0.599999999999986));
#953=CARTESIAN_POINT('Origin',(-11.7,-15.,-4.09999999999999));
#954=CARTESIAN_POINT('',(-11.2,-20.,-4.59999999999999));
#955=CARTESIAN_POINT('',(-11.2,-15.,-4.59999999999999));
#956=CARTESIAN_POINT('',(-12.2,-20.,-3.59999999999999));
#957=CARTESIAN_POINT('',(-10.3,-20.,-5.49999999999999));
#958=CARTESIAN_POINT('',(-12.2,-15.,-3.59999999999999));
#959=CARTESIAN_POINT('Origin',(-12.2,-10.,-2.59999999999999));
#960=CARTESIAN_POINT('',(-12.2,-20.,-4.59999999999999));
#961=CARTESIAN_POINT('Origin',(-10.2,-20.,-4.59999999999999));
#962=CARTESIAN_POINT('',(-10.2,-20.,-4.59999999999999));
#963=CARTESIAN_POINT('',(-10.2,0.,-4.59999999999999));
#964=CARTESIAN_POINT('',(-10.2,-20.,-4.59999999999999));
#965=CARTESIAN_POINT('Origin',(-10.2,-10.,-2.59999999999999));
#966=CARTESIAN_POINT('',(-10.2,-20.,-4.59999999999999));
#967=CARTESIAN_POINT('Origin',(-11.7,-15.,4.09999999999999));
#968=CARTESIAN_POINT('',(-12.2,-20.,3.59999999999999));
#969=CARTESIAN_POINT('',(-12.2,-15.,3.59999999999999));
#970=CARTESIAN_POINT('',(-11.2,-20.,4.59999999999999));
#971=CARTESIAN_POINT('',(-11.8,-20.,4.));
#972=CARTESIAN_POINT('',(-11.2,-15.,4.59999999999999));
#973=CARTESIAN_POINT('Origin',(-5.,-20.,-3.00000000000001));
#974=CARTESIAN_POINT('',(-5.,-20.,-1.62492563072388E-14));
#975=CARTESIAN_POINT('',(-10.2,-20.,2.99999999999999));
#976=CARTESIAN_POINT('',(-5.,-20.,3.00000000000003));
#977=CARTESIAN_POINT('',(-10.2,-20.,4.59999999999999));
#978=CARTESIAN_POINT('',(-10.2,-20.,4.59999999999999));
#979=CARTESIAN_POINT('',(-10.2,-20.,4.59999999999999));
#980=CARTESIAN_POINT('',(-12.2,-20.,4.59999999999999));
#981=CARTESIAN_POINT('Origin',(-12.2,-10.,2.59999999999999));
#982=CARTESIAN_POINT('Origin',(-10.2,-20.,4.59999999999999));
#983=CARTESIAN_POINT('',(-10.2,0.,4.59999999999999));
#984=CARTESIAN_POINT('Origin',(-10.2,-10.,2.59999999999999));
#985=CARTESIAN_POINT('',(-10.2,-20.,2.99999999999999));
#986=CARTESIAN_POINT('Origin',(-5.,-20.,3.00000000000003));
#987=CARTESIAN_POINT('Origin',(-5.,-10.,-5.55111512312578E-16));
#988=UNCERTAINTY_MEASURE_WITH_UNIT(LENGTH_MEASURE(0.01),#992,
'DISTANCE_ACCURACY_VALUE',
'Maximum model space distance between geometric entities at asserted c
onnectivities');
#989=UNCERTAINTY_MEASURE_WITH_UNIT(LENGTH_MEASURE(0.01),#992,
'DISTANCE_ACCURACY_VALUE',
'Maximum model space distance between geometric entities at asserted c
onnectivities');
#990=(
GEOMETRIC_REPRESENTATION_CONTEXT(3)
GLOBAL_UNCERTAINTY_ASSIGNED_CONTEXT((#988))
GLOBAL_UNIT_ASSIGNED_CONTEXT((#992,#994,#995))
REPRESENTATION_CONTEXT('','3D')
);
#991=(
GEOMETRIC_REPRESENTATION_CONTEXT(3)
GLOBAL_UNCERTAINTY_ASSIGNED_CONTEXT((#989))
GLOBAL_UNIT_ASSIGNED_CONTEXT((#992,#994,#995))
REPRESENTATION_CONTEXT('','3D')
);
#992=(
LENGTH_UNIT()
NAMED_UNIT(*)
SI_UNIT(.MILLI.,.METRE.)
);
#993=(
LENGTH_UNIT()
NAMED_UNIT(*)
SI_UNIT($,.METRE.)
);
#994=(
NAMED_UNIT(*)
PLANE_ANGLE_UNIT()
SI_UNIT($,.RADIAN.)
);
#995=(
NAMED_UNIT(*)
SI_UNIT($,.STERADIAN.)
SOLID_ANGLE_UNIT()
);
#996=SHAPE_DEFINITION_REPRESENTATION(#997,#998);
#997=PRODUCT_DEFINITION_SHAPE('',$,#1000);
#998=SHAPE_REPRESENTATION('',(#616),#990);
#999=PRODUCT_DEFINITION_CONTEXT('part definition',#1004,'design');
#1000=PRODUCT_DEFINITION('2026-08-29-11-09-31-045','(Unsaved)',#1001,#999);
#1001=PRODUCT_DEFINITION_FORMATION('',$,#1006);
#1002=PRODUCT_RELATED_PRODUCT_CATEGORY('(Unsaved)','(Unsaved)',(#1006));
#1003=APPLICATION_PROTOCOL_DEFINITION('international standard',
'automotive_design',2009,#1004);
#1004=APPLICATION_CONTEXT(
'Core Data for Automotive Mechanical Design Process');
#1005=PRODUCT_CONTEXT('part definition',#1004,'mechanical');
#1006=PRODUCT('2026-08-29-11-09-31-045','(Unsaved)',$,(#1005));
#1007=PRESENTATION_STYLE_ASSIGNMENT((#1008));
#1008=SURFACE_STYLE_USAGE(.BOTH.,#1009);
#1009=SURFACE_SIDE_STYLE('',(#1010));
#1010=SURFACE_STYLE_FILL_AREA(#1011);
#1011=FILL_AREA_STYLE('Steel - Satin',(#1012));
#1012=FILL_AREA_STYLE_COLOUR('Steel - Satin',#1013);
#1013=COLOUR_RGB('Steel - Satin',0.627450980392157,0.627450980392157,0.627450980392157);
ENDSEC;
END-ISO-10303-21;
