ISO-10303-21;
HEADER;
/* Generated by software containing ST-Developer
 * from STEP Tools, Inc. (www.steptools.com) 
 */

FILE_DESCRIPTION(
/* description */ (''),
/* implementation_level */ '2;1');

FILE_NAME(
/* name */ 'electronics-housing-pcb-clip_v1.0.step',
/* time_stamp */ '2026-08-29T11:09:32-05:00',
/* author */ (''),
/* organization */ (''),
/* preprocessor_version */ 'ST-DEVELOPER v20.1',
/* originating_system */ 'Autodesk Translation Framework v15.8.0.0',
/* authorisation */ '');

FILE_SCHEMA (('AUTOMOTIVE_DESIGN { 1 0 10303 214 3 1 1 }'));
ENDSEC;

DATA;
#10=MECHANICAL_DESIGN_GEOMETRIC_PRESENTATION_REPRESENTATION('',(#13),#981);
#11=SHAPE_REPRESENTATION_RELATIONSHIP('SRR','None',#988,#12);
#12=ADVANCED_BREP_SHAPE_REPRESENTATION('',(#14),#980);
#13=STYLED_ITEM('',(#997),#14);
#14=MANIFOLD_SOLID_BREP('Body1',#572);
#15=FACE_BOUND('',#95,.T.);
#16=FACE_BOUND('',#96,.T.);
#17=CONICAL_SURFACE('',#614,1.67071067811866,0.785398163397448);
#18=(
BOUNDED_CURVE()
B_SPLINE_CURVE(2,(#912,#913,#914),.UNSPECIFIED.,.F.,.F.)
B_SPLINE_CURVE_WITH_KNOTS((3,3),(2.26905710476574,2.27647024391832),
 .UNSPECIFIED.)
CURVE()
GEOMETRIC_REPRESENTATION_ITEM()
RATIONAL_B_SPLINE_CURVE((3.40635789661181,3.38934926637774,3.37220381515964))
REPRESENTATION_ITEM('')
);
#19=(
BOUNDED_CURVE()
B_SPLINE_CURVE(2,(#923,#924,#925),.UNSPECIFIED.,.F.,.F.)
B_SPLINE_CURVE_WITH_KNOTS((3,3),(0.378108775025191,0.42596417762914),
 .UNSPECIFIED.)
CURVE()
GEOMETRIC_REPRESENTATION_ITEM()
RATIONAL_B_SPLINE_CURVE((3.18105154496994,3.29654943086633,3.40634563230928))
REPRESENTATION_ITEM('')
);
#20=PLANE('',#590);
#21=PLANE('',#599);
#22=PLANE('',#600);
#23=PLANE('',#601);
#24=PLANE('',#602);
#25=PLANE('',#603);
#26=PLANE('',#604);
#27=PLANE('',#606);
#28=PLANE('',#607);
#29=PLANE('',#609);
#30=PLANE('',#610);
#31=PLANE('',#611);
#32=PLANE('',#612);
#33=PLANE('',#613);
#34=PLANE('',#619);
#35=PLANE('',#623);
#36=PLANE('',#626);
#37=PLANE('',#627);
#38=PLANE('',#632);
#39=PLANE('',#634);
#40=PLANE('',#636);
#41=FACE_OUTER_BOUND('',#71,.T.);
#42=FACE_OUTER_BOUND('',#72,.T.);
#43=FACE_OUTER_BOUND('',#73,.T.);
#44=FACE_OUTER_BOUND('',#74,.T.);
#45=FACE_OUTER_BOUND('',#75,.T.);
#46=FACE_OUTER_BOUND('',#76,.T.);
#47=FACE_OUTER_BOUND('',#77,.T.);
#48=FACE_OUTER_BOUND('',#78,.T.);
#49=FACE_OUTER_BOUND('',#79,.T.);
#50=FACE_OUTER_BOUND('',#80,.T.);
#51=FACE_OUTER_BOUND('',#81,.T.);
#52=FACE_OUTER_BOUND('',#82,.T.);
#53=FACE_OUTER_BOUND('',#83,.T.);
#54=FACE_OUTER_BOUND('',#84,.T.);
#55=FACE_OUTER_BOUND('',#85,.T.);
#56=FACE_OUTER_BOUND('',#86,.T.);
#57=FACE_OUTER_BOUND('',#87,.T.);
#58=FACE_OUTER_BOUND('',#88,.T.);
#59=FACE_OUTER_BOUND('',#89,.T.);
#60=FACE_OUTER_BOUND('',#90,.T.);
#61=FACE_OUTER_BOUND('',#91,.T.);
#62=FACE_OUTER_BOUND('',#92,.T.);
#63=FACE_OUTER_BOUND('',#93,.T.);
#64=FACE_OUTER_BOUND('',#94,.T.);
#65=FACE_OUTER_BOUND('',#97,.T.);
#66=FACE_OUTER_BOUND('',#98,.T.);
#67=FACE_OUTER_BOUND('',#99,.T.);
#68=FACE_OUTER_BOUND('',#100,.T.);
#69=FACE_OUTER_BOUND('',#101,.T.);
#70=FACE_OUTER_BOUND('',#102,.T.);
#71=EDGE_LOOP('',(#372,#373,#374,#375,#376,#377,#378));
#72=EDGE_LOOP('',(#379,#380,#381,#382,#383,#384,#385,#386,#387,#388,#389));
#73=EDGE_LOOP('',(#390,#391,#392,#393,#394));
#74=EDGE_LOOP('',(#395,#396,#397,#398));
#75=EDGE_LOOP('',(#399,#400,#401,#402));
#76=EDGE_LOOP('',(#403,#404,#405,#406,#407,#408));
#77=EDGE_LOOP('',(#409,#410,#411,#412));
#78=EDGE_LOOP('',(#413,#414,#415,#416));
#79=EDGE_LOOP('',(#417,#418,#419,#420,#421));
#80=EDGE_LOOP('',(#422,#423,#424,#425));
#81=EDGE_LOOP('',(#426,#427,#428,#429,#430));
#82=EDGE_LOOP('',(#431,#432,#433,#434));
#83=EDGE_LOOP('',(#435,#436,#437,#438,#439,#440));
#84=EDGE_LOOP('',(#441,#442,#443,#444,#445));
#85=EDGE_LOOP('',(#446,#447,#448,#449));
#86=EDGE_LOOP('',(#450,#451,#452,#453,#454));
#87=EDGE_LOOP('',(#455,#456,#457,#458,#459,#460,#461,#462,#463,#464));
#88=EDGE_LOOP('',(#465,#466,#467,#468));
#89=EDGE_LOOP('',(#469,#470,#471,#472));
#90=EDGE_LOOP('',(#473,#474,#475,#476));
#91=EDGE_LOOP('',(#477));
#92=EDGE_LOOP('',(#478,#479,#480,#481));
#93=EDGE_LOOP('',(#482,#483,#484,#485));
#94=EDGE_LOOP('',(#486,#487,#488,#489,#490,#491,#492,#493));
#95=EDGE_LOOP('',(#494));
#96=EDGE_LOOP('',(#495));
#97=EDGE_LOOP('',(#496,#497,#498,#499));
#98=EDGE_LOOP('',(#500,#501,#502,#503,#504,#505));
#99=EDGE_LOOP('',(#506,#507,#508,#509));
#100=EDGE_LOOP('',(#510,#511,#512,#513,#514,#515,#516,#517,#518,#519,#520,
#521,#522,#523));
#101=EDGE_LOOP('',(#524,#525,#526,#527,#528,#529));
#102=EDGE_LOOP('',(#530,#531,#532,#533));
#103=B_SPLINE_CURVE_WITH_KNOTS('',3,(#805,#806,#807,#808,#809,#810,#811,
#812),.UNSPECIFIED.,.F.,.F.,(4,2,2,4),(0.379383325687372,0.392117454805822,
0.520873720757641,0.529241487585954),.UNSPECIFIED.);
#104=B_SPLINE_CURVE_WITH_KNOTS('',3,(#844,#845,#846,#847,#848,#849),
 .UNSPECIFIED.,.F.,.F.,(4,2,4),(0.721303904728838,0.721442528493799,0.790400148300327),
 .UNSPECIFIED.);
#105=CIRCLE('',#587,3.);
#106=CIRCLE('',#588,3.);
#107=CIRCLE('',#589,3.);
#108=CIRCLE('',#591,2.24142135623731);
#109=CIRCLE('',#592,2.24142135623731);
#110=CIRCLE('',#593,1.);
#111=CIRCLE('',#594,1.);
#112=CIRCLE('',#595,1.);
#113=CIRCLE('',#597,3.);
#114=CIRCLE('',#598,3.);
#115=CIRCLE('',#605,1.00000000000001);
#116=CIRCLE('',#608,1.00000000000002);
#117=CIRCLE('',#615,1.1);
#118=CIRCLE('',#616,2.24142135623731);
#119=CIRCLE('',#618,1.1);
#120=CIRCLE('',#621,1.125);
#121=CIRCLE('',#622,1.125);
#122=CIRCLE('',#625,1.);
#123=CIRCLE('',#628,1.);
#124=CIRCLE('',#629,1.);
#125=CIRCLE('',#630,1.);
#126=LINE('',#801,#182);
#127=LINE('',#814,#183);
#128=LINE('',#818,#184);
#129=LINE('',#826,#185);
#130=LINE('',#828,#186);
#131=LINE('',#832,#187);
#132=LINE('',#836,#188);
#133=LINE('',#839,#189);
#134=LINE('',#852,#190);
#135=LINE('',#856,#191);
#136=LINE('',#858,#192);
#137=LINE('',#860,#193);
#138=LINE('',#861,#194);
#139=LINE('',#864,#195);
#140=LINE('',#866,#196);
#141=LINE('',#867,#197);
#142=LINE('',#871,#198);
#143=LINE('',#872,#199);
#144=LINE('',#874,#200);
#145=LINE('',#875,#201);
#146=LINE('',#878,#202);
#147=LINE('',#880,#203);
#148=LINE('',#881,#204);
#149=LINE('',#883,#205);
#150=LINE('',#886,#206);
#151=LINE('',#888,#207);
#152=LINE('',#892,#208);
#153=LINE('',#894,#209);
#154=LINE('',#895,#210);
#155=LINE('',#898,#211);
#156=LINE('',#901,#212);
#157=LINE('',#904,#213);
#158=LINE('',#905,#214);
#159=LINE('',#909,#215);
#160=LINE('',#910,#216);
#161=LINE('',#911,#217);
#162=LINE('',#916,#218);
#163=LINE('',#917,#219);
#164=LINE('',#922,#220);
#165=LINE('',#926,#221);
#166=LINE('',#929,#222);
#167=LINE('',#934,#223);
#168=LINE('',#937,#224);
#169=LINE('',#942,#225);
#170=LINE('',#947,#226);
#171=LINE('',#950,#227);
#172=LINE('',#953,#228);
#173=LINE('',#954,#229);
#174=LINE('',#957,#230);
#175=LINE('',#961,#231);
#176=LINE('',#965,#232);
#177=LINE('',#968,#233);
#178=LINE('',#970,#234);
#179=LINE('',#972,#235);
#180=LINE('',#974,#236);
#181=LINE('',#976,#237);
#182=VECTOR('',#641,10.);
#183=VECTOR('',#644,3.);
#184=VECTOR('',#647,10.);
#185=VECTOR('',#656,3.);
#186=VECTOR('',#657,10.);
#187=VECTOR('',#660,10.);
#188=VECTOR('',#663,10.);
#189=VECTOR('',#666,10.);
#190=VECTOR('',#673,10.);
#191=VECTOR('',#676,10.);
#192=VECTOR('',#677,10.);
#193=VECTOR('',#678,10.);
#194=VECTOR('',#679,10.);
#195=VECTOR('',#682,10.);
#196=VECTOR('',#683,10.);
#197=VECTOR('',#684,10.);
#198=VECTOR('',#687,10.);
#199=VECTOR('',#688,10.);
#200=VECTOR('',#689,10.);
#201=VECTOR('',#690,10.);
#202=VECTOR('',#693,10.);
#203=VECTOR('',#694,10.);
#204=VECTOR('',#695,10.);
#205=VECTOR('',#698,10.);
#206=VECTOR('',#701,10.);
#207=VECTOR('',#702,10.);
#208=VECTOR('',#707,10.);
#209=VECTOR('',#708,10.);
#210=VECTOR('',#709,10.);
#211=VECTOR('',#712,10.);
#212=VECTOR('',#715,10.);
#213=VECTOR('',#718,10.);
#214=VECTOR('',#719,10.);
#215=VECTOR('',#722,10.);
#216=VECTOR('',#723,10.);
#217=VECTOR('',#724,10.);
#218=VECTOR('',#727,10.);
#219=VECTOR('',#728,10.);
#220=VECTOR('',#733,10.);
#221=VECTOR('',#734,10.);
#222=VECTOR('',#737,1.6);
#223=VECTOR('',#744,1.1);
#224=VECTOR('',#749,10.);
#225=VECTOR('',#754,1.2);
#226=VECTOR('',#761,10.);
#227=VECTOR('',#764,10.);
#228=VECTOR('',#767,10.);
#229=VECTOR('',#768,10.);
#230=VECTOR('',#771,10.);
#231=VECTOR('',#774,10.);
#232=VECTOR('',#777,10.);
#233=VECTOR('',#782,10.);
#234=VECTOR('',#785,10.);
#235=VECTOR('',#788,10.);
#236=VECTOR('',#791,10.);
#237=VECTOR('',#794,10.);
#238=VERTEX_POINT('',#799);
#239=VERTEX_POINT('',#800);
#240=VERTEX_POINT('',#802);
#241=VERTEX_POINT('',#804);
#242=VERTEX_POINT('',#813);
#243=VERTEX_POINT('',#815);
#244=VERTEX_POINT('',#817);
#245=VERTEX_POINT('',#821);
#246=VERTEX_POINT('',#823);
#247=VERTEX_POINT('',#825);
#248=VERTEX_POINT('',#827);
#249=VERTEX_POINT('',#829);
#250=VERTEX_POINT('',#831);
#251=VERTEX_POINT('',#833);
#252=VERTEX_POINT('',#835);
#253=VERTEX_POINT('',#837);
#254=VERTEX_POINT('',#841);
#255=VERTEX_POINT('',#843);
#256=VERTEX_POINT('',#850);
#257=VERTEX_POINT('',#854);
#258=VERTEX_POINT('',#855);
#259=VERTEX_POINT('',#857);
#260=VERTEX_POINT('',#859);
#261=VERTEX_POINT('',#863);
#262=VERTEX_POINT('',#865);
#263=VERTEX_POINT('',#869);
#264=VERTEX_POINT('',#870);
#265=VERTEX_POINT('',#873);
#266=VERTEX_POINT('',#877);
#267=VERTEX_POINT('',#879);
#268=VERTEX_POINT('',#885);
#269=VERTEX_POINT('',#887);
#270=VERTEX_POINT('',#891);
#271=VERTEX_POINT('',#893);
#272=VERTEX_POINT('',#897);
#273=VERTEX_POINT('',#899);
#274=VERTEX_POINT('',#903);
#275=VERTEX_POINT('',#907);
#276=VERTEX_POINT('',#908);
#277=VERTEX_POINT('',#920);
#278=VERTEX_POINT('',#921);
#279=VERTEX_POINT('',#928);
#280=VERTEX_POINT('',#933);
#281=VERTEX_POINT('',#939);
#282=VERTEX_POINT('',#941);
#283=VERTEX_POINT('',#946);
#284=VERTEX_POINT('',#948);
#285=VERTEX_POINT('',#952);
#286=VERTEX_POINT('',#956);
#287=VERTEX_POINT('',#958);
#288=VERTEX_POINT('',#960);
#289=VERTEX_POINT('',#962);
#290=VERTEX_POINT('',#964);
#291=EDGE_CURVE('',#238,#239,#126,.F.);
#292=EDGE_CURVE('',#238,#240,#105,.T.);
#293=EDGE_CURVE('',#241,#240,#103,.T.);
#294=EDGE_CURVE('',#241,#242,#127,.T.);
#295=EDGE_CURVE('',#243,#242,#106,.F.);
#296=EDGE_CURVE('',#244,#243,#128,.T.);
#297=EDGE_CURVE('',#244,#239,#107,.T.);
#298=EDGE_CURVE('',#245,#241,#108,.T.);
#299=EDGE_CURVE('',#246,#245,#109,.T.);
#300=EDGE_CURVE('',#247,#246,#129,.T.);
#301=EDGE_CURVE('',#247,#248,#130,.T.);
#302=EDGE_CURVE('',#249,#248,#110,.T.);
#303=EDGE_CURVE('',#249,#250,#131,.T.);
#304=EDGE_CURVE('',#251,#250,#111,.T.);
#305=EDGE_CURVE('',#251,#252,#132,.T.);
#306=EDGE_CURVE('',#253,#252,#112,.T.);
#307=EDGE_CURVE('',#253,#242,#133,.T.);
#308=EDGE_CURVE('',#247,#254,#113,.F.);
#309=EDGE_CURVE('',#246,#255,#104,.F.);
#310=EDGE_CURVE('',#256,#255,#114,.F.);
#311=EDGE_CURVE('',#254,#256,#134,.T.);
#312=EDGE_CURVE('',#257,#258,#135,.T.);
#313=EDGE_CURVE('',#259,#258,#136,.T.);
#314=EDGE_CURVE('',#260,#259,#137,.T.);
#315=EDGE_CURVE('',#257,#260,#138,.T.);
#316=EDGE_CURVE('',#259,#261,#139,.T.);
#317=EDGE_CURVE('',#262,#261,#140,.T.);
#318=EDGE_CURVE('',#260,#262,#141,.T.);
#319=EDGE_CURVE('',#263,#264,#142,.T.);
#320=EDGE_CURVE('',#257,#264,#143,.T.);
#321=EDGE_CURVE('',#265,#262,#144,.T.);
#322=EDGE_CURVE('',#263,#265,#145,.T.);
#323=EDGE_CURVE('',#266,#263,#146,.T.);
#324=EDGE_CURVE('',#267,#265,#147,.T.);
#325=EDGE_CURVE('',#266,#267,#148,.T.);
#326=EDGE_CURVE('',#261,#267,#149,.T.);
#327=EDGE_CURVE('',#268,#264,#150,.T.);
#328=EDGE_CURVE('',#269,#266,#151,.T.);
#329=EDGE_CURVE('',#269,#268,#115,.T.);
#330=EDGE_CURVE('',#239,#270,#152,.T.);
#331=EDGE_CURVE('',#271,#244,#153,.T.);
#332=EDGE_CURVE('',#270,#271,#154,.T.);
#333=EDGE_CURVE('',#243,#272,#155,.T.);
#334=EDGE_CURVE('',#272,#273,#116,.T.);
#335=EDGE_CURVE('',#273,#271,#156,.T.);
#336=EDGE_CURVE('',#274,#238,#157,.T.);
#337=EDGE_CURVE('',#270,#274,#158,.T.);
#338=EDGE_CURVE('',#275,#276,#159,.T.);
#339=EDGE_CURVE('',#275,#258,#160,.T.);
#340=EDGE_CURVE('',#256,#257,#161,.T.);
#341=EDGE_CURVE('',#255,#276,#18,.F.);
#342=EDGE_CURVE('',#264,#254,#162,.T.);
#343=EDGE_CURVE('',#248,#268,#163,.T.);
#344=EDGE_CURVE('',#277,#278,#164,.T.);
#345=EDGE_CURVE('',#240,#277,#19,.T.);
#346=EDGE_CURVE('',#278,#274,#165,.T.);
#347=EDGE_CURVE('',#245,#279,#166,.T.);
#348=EDGE_CURVE('',#279,#279,#117,.F.);
#349=EDGE_CURVE('',#277,#276,#118,.T.);
#350=EDGE_CURVE('',#279,#280,#167,.T.);
#351=EDGE_CURVE('',#280,#280,#119,.T.);
#352=EDGE_CURVE('',#278,#275,#168,.T.);
#353=EDGE_CURVE('',#281,#281,#120,.T.);
#354=EDGE_CURVE('',#281,#282,#169,.T.);
#355=EDGE_CURVE('',#282,#282,#121,.F.);
#356=EDGE_CURVE('',#250,#283,#170,.T.);
#357=EDGE_CURVE('',#283,#284,#122,.T.);
#358=EDGE_CURVE('',#284,#251,#171,.T.);
#359=EDGE_CURVE('',#285,#284,#172,.T.);
#360=EDGE_CURVE('',#252,#285,#173,.T.);
#361=EDGE_CURVE('',#283,#286,#174,.T.);
#362=EDGE_CURVE('',#287,#286,#123,.T.);
#363=EDGE_CURVE('',#288,#287,#175,.T.);
#364=EDGE_CURVE('',#289,#288,#124,.T.);
#365=EDGE_CURVE('',#290,#289,#176,.T.);
#366=EDGE_CURVE('',#285,#290,#125,.T.);
#367=EDGE_CURVE('',#290,#253,#177,.T.);
#368=EDGE_CURVE('',#272,#289,#178,.T.);
#369=EDGE_CURVE('',#288,#273,#179,.T.);
#370=EDGE_CURVE('',#269,#287,#180,.T.);
#371=EDGE_CURVE('',#286,#249,#181,.T.);
#372=ORIENTED_EDGE('',*,*,#291,.F.);
#373=ORIENTED_EDGE('',*,*,#292,.T.);
#374=ORIENTED_EDGE('',*,*,#293,.F.);
#375=ORIENTED_EDGE('',*,*,#294,.T.);
#376=ORIENTED_EDGE('',*,*,#295,.F.);
#377=ORIENTED_EDGE('',*,*,#296,.F.);
#378=ORIENTED_EDGE('',*,*,#297,.T.);
#379=ORIENTED_EDGE('',*,*,#294,.F.);
#380=ORIENTED_EDGE('',*,*,#298,.F.);
#381=ORIENTED_EDGE('',*,*,#299,.F.);
#382=ORIENTED_EDGE('',*,*,#300,.F.);
#383=ORIENTED_EDGE('',*,*,#301,.T.);
#384=ORIENTED_EDGE('',*,*,#302,.F.);
#385=ORIENTED_EDGE('',*,*,#303,.T.);
#386=ORIENTED_EDGE('',*,*,#304,.F.);
#387=ORIENTED_EDGE('',*,*,#305,.T.);
#388=ORIENTED_EDGE('',*,*,#306,.F.);
#389=ORIENTED_EDGE('',*,*,#307,.T.);
#390=ORIENTED_EDGE('',*,*,#308,.F.);
#391=ORIENTED_EDGE('',*,*,#300,.T.);
#392=ORIENTED_EDGE('',*,*,#309,.T.);
#393=ORIENTED_EDGE('',*,*,#310,.F.);
#394=ORIENTED_EDGE('',*,*,#311,.F.);
#395=ORIENTED_EDGE('',*,*,#312,.T.);
#396=ORIENTED_EDGE('',*,*,#313,.F.);
#397=ORIENTED_EDGE('',*,*,#314,.F.);
#398=ORIENTED_EDGE('',*,*,#315,.F.);
#399=ORIENTED_EDGE('',*,*,#314,.T.);
#400=ORIENTED_EDGE('',*,*,#316,.T.);
#401=ORIENTED_EDGE('',*,*,#317,.F.);
#402=ORIENTED_EDGE('',*,*,#318,.F.);
#403=ORIENTED_EDGE('',*,*,#319,.T.);
#404=ORIENTED_EDGE('',*,*,#320,.F.);
#405=ORIENTED_EDGE('',*,*,#315,.T.);
#406=ORIENTED_EDGE('',*,*,#318,.T.);
#407=ORIENTED_EDGE('',*,*,#321,.F.);
#408=ORIENTED_EDGE('',*,*,#322,.F.);
#409=ORIENTED_EDGE('',*,*,#323,.T.);
#410=ORIENTED_EDGE('',*,*,#322,.T.);
#411=ORIENTED_EDGE('',*,*,#324,.F.);
#412=ORIENTED_EDGE('',*,*,#325,.F.);
#413=ORIENTED_EDGE('',*,*,#326,.T.);
#414=ORIENTED_EDGE('',*,*,#324,.T.);
#415=ORIENTED_EDGE('',*,*,#321,.T.);
#416=ORIENTED_EDGE('',*,*,#317,.T.);
#417=ORIENTED_EDGE('',*,*,#327,.T.);
#418=ORIENTED_EDGE('',*,*,#319,.F.);
#419=ORIENTED_EDGE('',*,*,#323,.F.);
#420=ORIENTED_EDGE('',*,*,#328,.F.);
#421=ORIENTED_EDGE('',*,*,#329,.T.);
#422=ORIENTED_EDGE('',*,*,#330,.F.);
#423=ORIENTED_EDGE('',*,*,#297,.F.);
#424=ORIENTED_EDGE('',*,*,#331,.F.);
#425=ORIENTED_EDGE('',*,*,#332,.F.);
#426=ORIENTED_EDGE('',*,*,#333,.T.);
#427=ORIENTED_EDGE('',*,*,#334,.T.);
#428=ORIENTED_EDGE('',*,*,#335,.T.);
#429=ORIENTED_EDGE('',*,*,#331,.T.);
#430=ORIENTED_EDGE('',*,*,#296,.T.);
#431=ORIENTED_EDGE('',*,*,#336,.T.);
#432=ORIENTED_EDGE('',*,*,#291,.T.);
#433=ORIENTED_EDGE('',*,*,#330,.T.);
#434=ORIENTED_EDGE('',*,*,#337,.T.);
#435=ORIENTED_EDGE('',*,*,#338,.F.);
#436=ORIENTED_EDGE('',*,*,#339,.T.);
#437=ORIENTED_EDGE('',*,*,#312,.F.);
#438=ORIENTED_EDGE('',*,*,#340,.F.);
#439=ORIENTED_EDGE('',*,*,#310,.T.);
#440=ORIENTED_EDGE('',*,*,#341,.T.);
#441=ORIENTED_EDGE('',*,*,#301,.F.);
#442=ORIENTED_EDGE('',*,*,#308,.T.);
#443=ORIENTED_EDGE('',*,*,#342,.F.);
#444=ORIENTED_EDGE('',*,*,#327,.F.);
#445=ORIENTED_EDGE('',*,*,#343,.F.);
#446=ORIENTED_EDGE('',*,*,#320,.T.);
#447=ORIENTED_EDGE('',*,*,#342,.T.);
#448=ORIENTED_EDGE('',*,*,#311,.T.);
#449=ORIENTED_EDGE('',*,*,#340,.T.);
#450=ORIENTED_EDGE('',*,*,#344,.F.);
#451=ORIENTED_EDGE('',*,*,#345,.F.);
#452=ORIENTED_EDGE('',*,*,#292,.F.);
#453=ORIENTED_EDGE('',*,*,#336,.F.);
#454=ORIENTED_EDGE('',*,*,#346,.F.);
#455=ORIENTED_EDGE('',*,*,#299,.T.);
#456=ORIENTED_EDGE('',*,*,#347,.T.);
#457=ORIENTED_EDGE('',*,*,#348,.T.);
#458=ORIENTED_EDGE('',*,*,#347,.F.);
#459=ORIENTED_EDGE('',*,*,#298,.T.);
#460=ORIENTED_EDGE('',*,*,#293,.T.);
#461=ORIENTED_EDGE('',*,*,#345,.T.);
#462=ORIENTED_EDGE('',*,*,#349,.T.);
#463=ORIENTED_EDGE('',*,*,#341,.F.);
#464=ORIENTED_EDGE('',*,*,#309,.F.);
#465=ORIENTED_EDGE('',*,*,#348,.F.);
#466=ORIENTED_EDGE('',*,*,#350,.T.);
#467=ORIENTED_EDGE('',*,*,#351,.F.);
#468=ORIENTED_EDGE('',*,*,#350,.F.);
#469=ORIENTED_EDGE('',*,*,#344,.T.);
#470=ORIENTED_EDGE('',*,*,#352,.T.);
#471=ORIENTED_EDGE('',*,*,#338,.T.);
#472=ORIENTED_EDGE('',*,*,#349,.F.);
#473=ORIENTED_EDGE('',*,*,#353,.F.);
#474=ORIENTED_EDGE('',*,*,#354,.T.);
#475=ORIENTED_EDGE('',*,*,#355,.F.);
#476=ORIENTED_EDGE('',*,*,#354,.F.);
#477=ORIENTED_EDGE('',*,*,#353,.T.);
#478=ORIENTED_EDGE('',*,*,#304,.T.);
#479=ORIENTED_EDGE('',*,*,#356,.T.);
#480=ORIENTED_EDGE('',*,*,#357,.T.);
#481=ORIENTED_EDGE('',*,*,#358,.T.);
#482=ORIENTED_EDGE('',*,*,#358,.F.);
#483=ORIENTED_EDGE('',*,*,#359,.F.);
#484=ORIENTED_EDGE('',*,*,#360,.F.);
#485=ORIENTED_EDGE('',*,*,#305,.F.);
#486=ORIENTED_EDGE('',*,*,#357,.F.);
#487=ORIENTED_EDGE('',*,*,#361,.T.);
#488=ORIENTED_EDGE('',*,*,#362,.F.);
#489=ORIENTED_EDGE('',*,*,#363,.F.);
#490=ORIENTED_EDGE('',*,*,#364,.F.);
#491=ORIENTED_EDGE('',*,*,#365,.F.);
#492=ORIENTED_EDGE('',*,*,#366,.F.);
#493=ORIENTED_EDGE('',*,*,#359,.T.);
#494=ORIENTED_EDGE('',*,*,#355,.T.);
#495=ORIENTED_EDGE('',*,*,#351,.T.);
#496=ORIENTED_EDGE('',*,*,#306,.T.);
#497=ORIENTED_EDGE('',*,*,#360,.T.);
#498=ORIENTED_EDGE('',*,*,#366,.T.);
#499=ORIENTED_EDGE('',*,*,#367,.T.);
#500=ORIENTED_EDGE('',*,*,#367,.F.);
#501=ORIENTED_EDGE('',*,*,#365,.T.);
#502=ORIENTED_EDGE('',*,*,#368,.F.);
#503=ORIENTED_EDGE('',*,*,#333,.F.);
#504=ORIENTED_EDGE('',*,*,#295,.T.);
#505=ORIENTED_EDGE('',*,*,#307,.F.);
#506=ORIENTED_EDGE('',*,*,#368,.T.);
#507=ORIENTED_EDGE('',*,*,#364,.T.);
#508=ORIENTED_EDGE('',*,*,#369,.T.);
#509=ORIENTED_EDGE('',*,*,#334,.F.);
#510=ORIENTED_EDGE('',*,*,#369,.F.);
#511=ORIENTED_EDGE('',*,*,#363,.T.);
#512=ORIENTED_EDGE('',*,*,#370,.F.);
#513=ORIENTED_EDGE('',*,*,#328,.T.);
#514=ORIENTED_EDGE('',*,*,#325,.T.);
#515=ORIENTED_EDGE('',*,*,#326,.F.);
#516=ORIENTED_EDGE('',*,*,#316,.F.);
#517=ORIENTED_EDGE('',*,*,#313,.T.);
#518=ORIENTED_EDGE('',*,*,#339,.F.);
#519=ORIENTED_EDGE('',*,*,#352,.F.);
#520=ORIENTED_EDGE('',*,*,#346,.T.);
#521=ORIENTED_EDGE('',*,*,#337,.F.);
#522=ORIENTED_EDGE('',*,*,#332,.T.);
#523=ORIENTED_EDGE('',*,*,#335,.F.);
#524=ORIENTED_EDGE('',*,*,#302,.T.);
#525=ORIENTED_EDGE('',*,*,#343,.T.);
#526=ORIENTED_EDGE('',*,*,#329,.F.);
#527=ORIENTED_EDGE('',*,*,#370,.T.);
#528=ORIENTED_EDGE('',*,*,#362,.T.);
#529=ORIENTED_EDGE('',*,*,#371,.T.);
#530=ORIENTED_EDGE('',*,*,#356,.F.);
#531=ORIENTED_EDGE('',*,*,#303,.F.);
#532=ORIENTED_EDGE('',*,*,#371,.F.);
#533=ORIENTED_EDGE('',*,*,#361,.F.);
#534=CYLINDRICAL_SURFACE('',#586,3.);
#535=CYLINDRICAL_SURFACE('',#596,3.);
#536=CYLINDRICAL_SURFACE('',#617,1.1);
#537=CYLINDRICAL_SURFACE('',#620,1.125);
#538=CYLINDRICAL_SURFACE('',#624,1.);
#539=CYLINDRICAL_SURFACE('',#631,1.);
#540=CYLINDRICAL_SURFACE('',#633,1.);
#541=CYLINDRICAL_SURFACE('',#635,1.);
#542=ADVANCED_FACE('',(#41),#534,.F.);
#543=ADVANCED_FACE('',(#42),#20,.T.);
#544=ADVANCED_FACE('',(#43),#535,.F.);
#545=ADVANCED_FACE('',(#44),#21,.F.);
#546=ADVANCED_FACE('',(#45),#22,.T.);
#547=ADVANCED_FACE('',(#46),#23,.T.);
#548=ADVANCED_FACE('',(#47),#24,.T.);
#549=ADVANCED_FACE('',(#48),#25,.T.);
#550=ADVANCED_FACE('',(#49),#26,.F.);
#551=ADVANCED_FACE('',(#50),#27,.T.);
#552=ADVANCED_FACE('',(#51),#28,.T.);
#553=ADVANCED_FACE('',(#52),#29,.F.);
#554=ADVANCED_FACE('',(#53),#30,.T.);
#555=ADVANCED_FACE('',(#54),#31,.T.);
#556=ADVANCED_FACE('',(#55),#32,.T.);
#557=ADVANCED_FACE('',(#56),#33,.T.);
#558=ADVANCED_FACE('',(#57),#17,.F.);
#559=ADVANCED_FACE('',(#58),#536,.F.);
#560=ADVANCED_FACE('',(#59),#34,.T.);
#561=ADVANCED_FACE('',(#60),#537,.T.);
#562=ADVANCED_FACE('',(#61),#35,.F.);
#563=ADVANCED_FACE('',(#62),#538,.T.);
#564=ADVANCED_FACE('',(#63),#36,.T.);
#565=ADVANCED_FACE('',(#64,#15,#16),#37,.F.);
#566=ADVANCED_FACE('',(#65),#539,.T.);
#567=ADVANCED_FACE('',(#66),#38,.T.);
#568=ADVANCED_FACE('',(#67),#540,.T.);
#569=ADVANCED_FACE('',(#68),#39,.T.);
#570=ADVANCED_FACE('',(#69),#541,.T.);
#571=ADVANCED_FACE('',(#70),#40,.T.);
#572=CLOSED_SHELL('',(#542,#543,#544,#545,#546,#547,#548,#549,#550,#551,
#552,#553,#554,#555,#556,#557,#558,#559,#560,#561,#562,#563,#564,#565,#566,
#567,#568,#569,#570,#571));
#573=DERIVED_UNIT_ELEMENT(#575,1.);
#574=DERIVED_UNIT_ELEMENT(#983,-3.);
#575=(
MASS_UNIT()
NAMED_UNIT(*)
SI_UNIT(.KILO.,.GRAM.)
);
#576=DERIVED_UNIT((#573,#574));
#577=MEASURE_REPRESENTATION_ITEM('density measure',
POSITIVE_RATIO_MEASURE(7850.),#576);
#578=PROPERTY_DEFINITION_REPRESENTATION(#583,#580);
#579=PROPERTY_DEFINITION_REPRESENTATION(#584,#581);
#580=REPRESENTATION('material name',(#582),#980);
#581=REPRESENTATION('density',(#577),#980);
#582=DESCRIPTIVE_REPRESENTATION_ITEM('Steel','Steel');
#583=PROPERTY_DEFINITION('material property','material name',#990);
#584=PROPERTY_DEFINITION('material property','density of part',#990);
#585=AXIS2_PLACEMENT_3D('',#797,#637,#638);
#586=AXIS2_PLACEMENT_3D('',#798,#639,#640);
#587=AXIS2_PLACEMENT_3D('',#803,#642,#643);
#588=AXIS2_PLACEMENT_3D('',#816,#645,#646);
#589=AXIS2_PLACEMENT_3D('',#819,#648,#649);
#590=AXIS2_PLACEMENT_3D('',#820,#650,#651);
#591=AXIS2_PLACEMENT_3D('',#822,#652,#653);
#592=AXIS2_PLACEMENT_3D('',#824,#654,#655);
#593=AXIS2_PLACEMENT_3D('',#830,#658,#659);
#594=AXIS2_PLACEMENT_3D('',#834,#661,#662);
#595=AXIS2_PLACEMENT_3D('',#838,#664,#665);
#596=AXIS2_PLACEMENT_3D('',#840,#667,#668);
#597=AXIS2_PLACEMENT_3D('',#842,#669,#670);
#598=AXIS2_PLACEMENT_3D('',#851,#671,#672);
#599=AXIS2_PLACEMENT_3D('',#853,#674,#675);
#600=AXIS2_PLACEMENT_3D('',#862,#680,#681);
#601=AXIS2_PLACEMENT_3D('',#868,#685,#686);
#602=AXIS2_PLACEMENT_3D('',#876,#691,#692);
#603=AXIS2_PLACEMENT_3D('',#882,#696,#697);
#604=AXIS2_PLACEMENT_3D('',#884,#699,#700);
#605=AXIS2_PLACEMENT_3D('',#889,#703,#704);
#606=AXIS2_PLACEMENT_3D('',#890,#705,#706);
#607=AXIS2_PLACEMENT_3D('',#896,#710,#711);
#608=AXIS2_PLACEMENT_3D('',#900,#713,#714);
#609=AXIS2_PLACEMENT_3D('',#902,#716,#717);
#610=AXIS2_PLACEMENT_3D('',#906,#720,#721);
#611=AXIS2_PLACEMENT_3D('',#915,#725,#726);
#612=AXIS2_PLACEMENT_3D('',#918,#729,#730);
#613=AXIS2_PLACEMENT_3D('',#919,#731,#732);
#614=AXIS2_PLACEMENT_3D('',#927,#735,#736);
#615=AXIS2_PLACEMENT_3D('',#930,#738,#739);
#616=AXIS2_PLACEMENT_3D('',#931,#740,#741);
#617=AXIS2_PLACEMENT_3D('',#932,#742,#743);
#618=AXIS2_PLACEMENT_3D('',#935,#745,#746);
#619=AXIS2_PLACEMENT_3D('',#936,#747,#748);
#620=AXIS2_PLACEMENT_3D('',#938,#750,#751);
#621=AXIS2_PLACEMENT_3D('',#940,#752,#753);
#622=AXIS2_PLACEMENT_3D('',#943,#755,#756);
#623=AXIS2_PLACEMENT_3D('',#944,#757,#758);
#624=AXIS2_PLACEMENT_3D('',#945,#759,#760);
#625=AXIS2_PLACEMENT_3D('',#949,#762,#763);
#626=AXIS2_PLACEMENT_3D('',#951,#765,#766);
#627=AXIS2_PLACEMENT_3D('',#955,#769,#770);
#628=AXIS2_PLACEMENT_3D('',#959,#772,#773);
#629=AXIS2_PLACEMENT_3D('',#963,#775,#776);
#630=AXIS2_PLACEMENT_3D('',#966,#778,#779);
#631=AXIS2_PLACEMENT_3D('',#967,#780,#781);
#632=AXIS2_PLACEMENT_3D('',#969,#783,#784);
#633=AXIS2_PLACEMENT_3D('',#971,#786,#787);
#634=AXIS2_PLACEMENT_3D('',#973,#789,#790);
#635=AXIS2_PLACEMENT_3D('',#975,#792,#793);
#636=AXIS2_PLACEMENT_3D('',#977,#795,#796);
#637=DIRECTION('axis',(0.,0.,1.));
#638=DIRECTION('refdir',(1.,0.,0.));
#639=DIRECTION('center_axis',(1.,0.,0.));
#640=DIRECTION('ref_axis',(0.,0.266666666666667,-0.963788819653397));
#641=DIRECTION('',(-1.,0.,0.));
#642=DIRECTION('center_axis',(1.,0.,4.61436444609835E-15));
#643=DIRECTION('ref_axis',(0.,0.266666666666667,-0.963788819653397));
#644=DIRECTION('',(-1.,0.,0.));
#645=DIRECTION('center_axis',(-1.,0.,0.));
#646=DIRECTION('ref_axis',(0.,0.266666666666667,-0.963788819653397));
#647=DIRECTION('',(-1.,0.,0.));
#648=DIRECTION('center_axis',(1.,0.,0.));
#649=DIRECTION('ref_axis',(0.,0.266666666666667,-0.963788819653397));
#650=DIRECTION('center_axis',(0.,-1.,0.));
#651=DIRECTION('ref_axis',(0.,0.,-1.));
#652=DIRECTION('center_axis',(0.,-1.,0.));
#653=DIRECTION('ref_axis',(1.,0.,0.));
#654=DIRECTION('center_axis',(0.,-1.,0.));
#655=DIRECTION('ref_axis',(1.,0.,0.));
#656=DIRECTION('',(-1.,0.,1.84557346682658E-14));
#657=DIRECTION('',(2.4980018054066E-14,0.,-1.));
#658=DIRECTION('center_axis',(0.,1.,0.));
#659=DIRECTION('ref_axis',(0.707106781186543,0.,-0.707106781186553));
#660=DIRECTION('',(2.97741629331294E-14,-1.45175152752769E-44,1.));
#661=DIRECTION('center_axis',(0.,1.,0.));
#662=DIRECTION('ref_axis',(0.707106781186558,0.,0.707106781186537));
#663=DIRECTION('',(-1.,0.,9.10952225333435E-15));
#664=DIRECTION('center_axis',(0.,1.,0.));
#665=DIRECTION('ref_axis',(-0.707106781186546,0.,0.707106781186549));
#666=DIRECTION('',(0.,0.,-1.));
#667=DIRECTION('center_axis',(1.,0.,-1.84557346682659E-14));
#668=DIRECTION('ref_axis',(-1.48029736616687E-14,0.6,-0.8));
#669=DIRECTION('center_axis',(1.,0.,2.4980018054066E-14));
#670=DIRECTION('ref_axis',(-1.48029736616687E-14,0.6,-0.8));
#671=DIRECTION('center_axis',(-1.,0.,-1.04083408558609E-16));
#672=DIRECTION('ref_axis',(-1.48029736616687E-14,0.6,-0.8));
#673=DIRECTION('',(-1.,0.,1.84557346682659E-14));
#674=DIRECTION('center_axis',(0.,-1.,0.));
#675=DIRECTION('ref_axis',(1.,0.,0.));
#676=DIRECTION('',(1.04083408558609E-16,0.,-1.));
#677=DIRECTION('',(1.,0.,0.));
#678=DIRECTION('',(0.,0.,-1.));
#679=DIRECTION('',(-1.,0.,0.));
#680=DIRECTION('center_axis',(-1.,0.,0.));
#681=DIRECTION('ref_axis',(0.,0.,-1.));
#682=DIRECTION('',(0.,-1.,0.));
#683=DIRECTION('',(0.,0.,-1.));
#684=DIRECTION('',(0.,-1.,0.));
#685=DIRECTION('center_axis',(0.,0.,1.));
#686=DIRECTION('ref_axis',(-1.,0.,0.));
#687=DIRECTION('',(-1.,0.,0.));
#688=DIRECTION('',(1.,0.,0.));
#689=DIRECTION('',(-1.,0.,0.));
#690=DIRECTION('',(0.,-1.,0.));
#691=DIRECTION('center_axis',(1.,0.,2.39006345579027E-14));
#692=DIRECTION('ref_axis',(-2.39006345579027E-14,0.,1.));
#693=DIRECTION('',(-2.39006345579027E-14,0.,1.));
#694=DIRECTION('',(-2.39006345579027E-14,0.,1.));
#695=DIRECTION('',(0.,-1.,0.));
#696=DIRECTION('center_axis',(0.,-1.,0.));
#697=DIRECTION('ref_axis',(0.,0.,-1.));
#698=DIRECTION('',(1.,0.,0.));
#699=DIRECTION('center_axis',(0.,-1.,0.));
#700=DIRECTION('ref_axis',(1.,0.,0.));
#701=DIRECTION('',(-2.4980018054066E-14,0.,1.));
#702=DIRECTION('',(1.,0.,0.));
#703=DIRECTION('center_axis',(0.,-1.,0.));
#704=DIRECTION('ref_axis',(2.2204460492503E-15,0.,-1.));
#705=DIRECTION('center_axis',(1.,0.,0.));
#706=DIRECTION('ref_axis',(0.,0.,1.));
#707=DIRECTION('',(0.,0.,-1.));
#708=DIRECTION('',(0.,0.,1.));
#709=DIRECTION('',(0.,-1.,0.));
#710=DIRECTION('center_axis',(0.,-1.,0.));
#711=DIRECTION('ref_axis',(1.,0.,0.));
#712=DIRECTION('',(1.01307850997047E-14,0.,-1.));
#713=DIRECTION('center_axis',(0.,-1.,0.));
#714=DIRECTION('ref_axis',(-1.,0.,0.));
#715=DIRECTION('',(1.,0.,0.));
#716=DIRECTION('center_axis',(0.,-1.,0.));
#717=DIRECTION('ref_axis',(1.,0.,0.));
#718=DIRECTION('',(-4.61436444609835E-15,0.,1.));
#719=DIRECTION('',(-1.,0.,0.));
#720=DIRECTION('center_axis',(-1.,0.,-1.04083408558609E-16));
#721=DIRECTION('ref_axis',(1.04083408558609E-16,0.,-1.));
#722=DIRECTION('',(-1.04083408558609E-16,0.,1.));
#723=DIRECTION('',(0.,-1.,0.));
#724=DIRECTION('',(1.04083408558609E-16,0.,-1.));
#725=DIRECTION('center_axis',(1.,0.,2.4980018054066E-14));
#726=DIRECTION('ref_axis',(-2.4980018054066E-14,0.,1.));
#727=DIRECTION('',(-2.4980018054066E-14,0.,1.));
#728=DIRECTION('',(0.,-1.,0.));
#729=DIRECTION('center_axis',(0.,-1.,0.));
#730=DIRECTION('ref_axis',(1.,0.,0.));
#731=DIRECTION('center_axis',(1.,0.,4.61436444609835E-15));
#732=DIRECTION('ref_axis',(-4.61436444609835E-15,0.,1.));
#733=DIRECTION('',(4.61436444609835E-15,0.,-1.));
#734=DIRECTION('',(0.,-1.,0.));
#735=DIRECTION('center_axis',(0.,-1.,0.));
#736=DIRECTION('ref_axis',(1.,0.,0.));
#737=DIRECTION('',(0.707106781186548,0.707106781186547,8.65956056235494E-17));
#738=DIRECTION('center_axis',(0.,-1.,0.));
#739=DIRECTION('ref_axis',(1.,0.,0.));
#740=DIRECTION('center_axis',(0.,-1.,0.));
#741=DIRECTION('ref_axis',(1.,0.,0.));
#742=DIRECTION('center_axis',(0.,1.,0.));
#743=DIRECTION('ref_axis',(1.,0.,0.));
#744=DIRECTION('',(0.,1.,0.));
#745=DIRECTION('center_axis',(2.72978919706066E-44,-1.,-1.45175152752777E-44));
#746=DIRECTION('ref_axis',(1.,0.,0.));
#747=DIRECTION('center_axis',(0.,-1.,0.));
#748=DIRECTION('ref_axis',(0.,0.,-1.));
#749=DIRECTION('',(1.,2.72978919706066E-44,0.));
#750=DIRECTION('center_axis',(-3.37031989618351E-15,1.,0.));
#751=DIRECTION('ref_axis',(1.,3.37031989618351E-15,0.));
#752=DIRECTION('center_axis',(-3.33066907387547E-15,1.,0.));
#753=DIRECTION('ref_axis',(1.,3.37031989618351E-15,0.));
#754=DIRECTION('',(3.37031989618351E-15,-1.,0.));
#755=DIRECTION('center_axis',(-2.72978919706066E-44,1.,1.45175152752777E-44));
#756=DIRECTION('ref_axis',(1.,3.37031989618351E-15,0.));
#757=DIRECTION('center_axis',(3.33066907387547E-15,-1.,0.));
#758=DIRECTION('ref_axis',(1.,3.33066907387547E-15,0.));
#759=DIRECTION('center_axis',(0.,-1.,0.));
#760=DIRECTION('ref_axis',(0.707106781186558,0.,0.707106781186537));
#761=DIRECTION('',(0.,1.,0.));
#762=DIRECTION('center_axis',(2.72978919706066E-44,-1.,-1.45175152752777E-44));
#763=DIRECTION('ref_axis',(0.707106781186558,0.,0.707106781186537));
#764=DIRECTION('',(0.,-1.,0.));
#765=DIRECTION('center_axis',(9.10952225333435E-15,0.,1.));
#766=DIRECTION('ref_axis',(-1.,0.,9.10952225333435E-15));
#767=DIRECTION('',(1.,0.,-9.10952225333435E-15));
#768=DIRECTION('',(0.,1.,0.));
#769=DIRECTION('center_axis',(2.72978919706066E-44,-1.,-1.45175152752777E-44));
#770=DIRECTION('ref_axis',(1.,2.72978919706066E-44,0.));
#771=DIRECTION('',(-2.97741629331294E-14,1.45175152752769E-44,-1.));
#772=DIRECTION('center_axis',(2.72978919706066E-44,-1.,-1.45175152752777E-44));
#773=DIRECTION('ref_axis',(0.707106781186543,0.,-0.707106781186553));
#774=DIRECTION('',(1.,2.72978919706066E-44,0.));
#775=DIRECTION('center_axis',(2.72978919706066E-44,-1.,-1.45175152752777E-44));
#776=DIRECTION('ref_axis',(-0.707106781186549,0.,-0.707106781186546));
#777=DIRECTION('',(0.,0.,-1.));
#778=DIRECTION('center_axis',(2.72978919706066E-44,-1.,-1.45175152752777E-44));
#779=DIRECTION('ref_axis',(-0.707106781186546,0.,0.707106781186549));
#780=DIRECTION('center_axis',(0.,-1.,0.));
#781=DIRECTION('ref_axis',(-0.707106781186546,0.,0.707106781186549));
#782=DIRECTION('',(0.,-1.,0.));
#783=DIRECTION('center_axis',(-1.,0.,0.));
#784=DIRECTION('ref_axis',(0.,0.,-1.));
#785=DIRECTION('',(0.,1.,0.));
#786=DIRECTION('center_axis',(0.,-1.,0.));
#787=DIRECTION('ref_axis',(-0.707106781186549,0.,-0.707106781186546));
#788=DIRECTION('',(0.,-1.,0.));
#789=DIRECTION('center_axis',(0.,0.,-1.));
#790=DIRECTION('ref_axis',(1.,2.72978919706066E-44,0.));
#791=DIRECTION('',(0.,1.,0.));
#792=DIRECTION('center_axis',(0.,-1.,0.));
#793=DIRECTION('ref_axis',(0.707106781186543,0.,-0.707106781186553));
#794=DIRECTION('',(0.,-1.,0.));
#795=DIRECTION('center_axis',(1.,0.,-2.97741629331294E-14));
#796=DIRECTION('ref_axis',(2.97741629331294E-14,-1.45175152752769E-44,1.));
#797=CARTESIAN_POINT('',(0.,0.,0.));
#798=CARTESIAN_POINT('Origin',(-2.92500000000011,5.00000000000028,65.5913664589601));
#799=CARTESIAN_POINT('',(-1.00000826021893,6.80000000000028,63.1913664589601));
#800=CARTESIAN_POINT('',(-0.62500000000011,6.80000000000028,63.1913664589601));
#801=CARTESIAN_POINT('',(-2.92500000000011,6.80000000000028,63.1913664589601));
#802=CARTESIAN_POINT('',(-1.00000826021891,7.7704297095497,64.4404019832069));
#803=CARTESIAN_POINT('Origin',(-1.00000826021891,5.00000000000028,65.5913664589601));
#804=CARTESIAN_POINT('',(-1.94805065844825,8.00000000000028,65.5913664589603));
#805=CARTESIAN_POINT('Ctrl Pts',(-1.94805065844789,8.00000000000028,65.5913664589605));
#806=CARTESIAN_POINT('Ctrl Pts',(-1.9256730337228,8.00000000000029,65.5520453082227));
#807=CARTESIAN_POINT('Ctrl Pts',(-1.90327002639055,7.99921977988423,65.5139017432738));
#808=CARTESIAN_POINT('Ctrl Pts',(-1.65941054637532,7.98391003747961,65.1104944935921));
#809=CARTESIAN_POINT('Ctrl Pts',(-1.3769583637128,7.8972407074037,64.7609760157699));
#810=CARTESIAN_POINT('Ctrl Pts',(-1.0412922858937,7.78434967489676,64.4743353410297));
#811=CARTESIAN_POINT('Ctrl Pts',(-1.02070626122386,7.77740354574333,64.4571883596654));
#812=CARTESIAN_POINT('Ctrl Pts',(-1.00000826021891,7.7704297095497,64.4404019832069));
#813=CARTESIAN_POINT('',(-2.92499999999997,8.00000000000028,65.5913664589601));
#814=CARTESIAN_POINT('',(-2.92500000000011,8.00000000000028,65.5913664589601));
#815=CARTESIAN_POINT('',(-2.92500000000011,5.80000000000028,62.6999999999999));
#816=CARTESIAN_POINT('Origin',(-2.92499999999997,5.00000000000028,65.5913664589601));
#817=CARTESIAN_POINT('',(-0.62500000000011,5.80000000000028,62.6999999999999));
#818=CARTESIAN_POINT('',(-2.92500000000011,5.80000000000028,62.6999999999999));
#819=CARTESIAN_POINT('Origin',(-0.62500000000011,5.00000000000028,65.5913664589601));
#820=CARTESIAN_POINT('Origin',(1.16018306073329E-13,8.00000000000028,64.2));
#821=CARTESIAN_POINT('',(-2.2414213562374,8.00000000000028,66.7));
#822=CARTESIAN_POINT('Origin',(-8.43769498715119E-14,8.00000000000028,66.7));
#823=CARTESIAN_POINT('',(1.56970369694292,8.00000000000028,65.0999999999999));
#824=CARTESIAN_POINT('Origin',(-8.43769498715119E-14,8.00000000000028,66.7));
#825=CARTESIAN_POINT('',(2.9249834795622,8.00000000000028,65.0999999999999));
#826=CARTESIAN_POINT('',(2.92498347956231,8.00000000000028,65.0999999999999));
#827=CARTESIAN_POINT('',(2.92498347956234,8.00000000000028,59.6942519044705));
#828=CARTESIAN_POINT('',(2.92498347956228,8.00000000000028,61.9471259522353));
#829=CARTESIAN_POINT('',(2.9249999999999,8.00000000000028,59.7));
#830=CARTESIAN_POINT('Origin',(1.9249999999999,8.00000000000028,59.7));
#831=CARTESIAN_POINT('',(2.92500000000017,8.00000000000028,68.6999999999999));
#832=CARTESIAN_POINT('',(2.9250000000002,8.00000000000028,69.6999999999999));
#833=CARTESIAN_POINT('',(1.92500000000018,8.00000000000028,69.6999999999999));
#834=CARTESIAN_POINT('Origin',(1.92500000000017,8.00000000000028,68.6999999999999));
#835=CARTESIAN_POINT('',(-1.92499999999996,8.00000000000028,69.7));
#836=CARTESIAN_POINT('',(-2.92499999999997,8.00000000000028,69.7));
#837=CARTESIAN_POINT('',(-2.92499999999997,8.00000000000028,68.7));
#838=CARTESIAN_POINT('Origin',(-1.92499999999997,8.00000000000028,68.7));
#839=CARTESIAN_POINT('',(-2.92499999999997,8.00000000000028,69.7));
#840=CARTESIAN_POINT('Origin',(2.92498347956231,5.00000000000028,65.0999999999999));
#841=CARTESIAN_POINT('',(2.92498347956226,6.80000000000028,62.6999999999999));
#842=CARTESIAN_POINT('Origin',(2.92498347956244,5.00000000000028,65.0999999999999));
#843=CARTESIAN_POINT('',(0.999991739771364,7.96717058247669,64.6573955100574));
#844=CARTESIAN_POINT('Ctrl Pts',(0.999991739775699,7.96717058247055,64.6573955100509));
#845=CARTESIAN_POINT('Ctrl Pts',(1.00040704894971,7.96720695173889,64.657639325524));
#846=CARTESIAN_POINT('Ctrl Pts',(1.0008222959629,7.96724331028581,64.6578832684033));
#847=CARTESIAN_POINT('Ctrl Pts',(1.20777015180843,7.98535885672587,64.7795367076219));
#848=CARTESIAN_POINT('Ctrl Pts',(1.39942620013029,8.00000000000028,64.9329467398418));
#849=CARTESIAN_POINT('Ctrl Pts',(1.56970369694292,8.00000000000028,65.0999999999999));
#850=CARTESIAN_POINT('',(0.999991739781076,6.80000000000028,62.6999999999999));
#851=CARTESIAN_POINT('Origin',(0.999991739781121,5.00000000000028,65.0999999999999));
#852=CARTESIAN_POINT('',(2.92498347956226,6.80000000000028,62.6999999999999));
#853=CARTESIAN_POINT('Origin',(1.77500000000002,6.80000000000028,60.4999999999999));
#854=CARTESIAN_POINT('',(0.999991739781076,6.80000000000028,62.2999999999999));
#855=CARTESIAN_POINT('',(0.999991739781077,6.80000000000028,58.7));
#856=CARTESIAN_POINT('',(0.999991739781076,6.80000000000028,62.6999999999999));
#857=CARTESIAN_POINT('',(0.624999999999973,6.80000000000028,58.6999999999999));
#858=CARTESIAN_POINT('',(0.624999999999973,6.80000000000028,58.6999999999999));
#859=CARTESIAN_POINT('',(0.624999999999973,6.80000000000028,62.2999999999999));
#860=CARTESIAN_POINT('',(0.624999999999973,6.80000000000028,62.2999999999999));
#861=CARTESIAN_POINT('',(2.92499999999997,6.80000000000028,62.2999999999999));
#862=CARTESIAN_POINT('Origin',(0.624999999999973,6.80000000000028,62.2999999999999));
#863=CARTESIAN_POINT('',(0.624999999999973,5.80000000000028,58.6999999999999));
#864=CARTESIAN_POINT('',(0.624999999999973,6.80000000000028,58.6999999999999));
#865=CARTESIAN_POINT('',(0.624999999999973,5.80000000000028,62.2999999999999));
#866=CARTESIAN_POINT('',(0.624999999999973,5.80000000000028,62.2999999999999));
#867=CARTESIAN_POINT('',(0.624999999999973,6.80000000000028,62.2999999999999));
#868=CARTESIAN_POINT('Origin',(2.92499999999997,6.80000000000028,62.2999999999999));
#869=CARTESIAN_POINT('',(2.92499999999997,6.80000000000028,62.2999999999999));
#870=CARTESIAN_POINT('',(2.92498347956227,6.80000000000028,62.2999999999999));
#871=CARTESIAN_POINT('',(2.92499999999997,6.80000000000028,62.2999999999999));
#872=CARTESIAN_POINT('',(2.44374380483584,6.80000000000028,62.2999999999999));
#873=CARTESIAN_POINT('',(2.92499999999997,5.80000000000028,62.2999999999999));
#874=CARTESIAN_POINT('',(2.92499999999997,5.80000000000028,62.2999999999999));
#875=CARTESIAN_POINT('',(2.92499999999997,6.80000000000028,62.2999999999999));
#876=CARTESIAN_POINT('Origin',(2.92500000000006,6.80000000000028,58.6999999999999));
#877=CARTESIAN_POINT('',(2.92500000000006,6.80000000000028,58.6999999999999));
#878=CARTESIAN_POINT('',(2.92500000000006,6.80000000000028,58.6999999999999));
#879=CARTESIAN_POINT('',(2.92500000000006,5.80000000000028,58.6999999999999));
#880=CARTESIAN_POINT('',(2.92500000000006,5.80000000000028,58.6999999999999));
#881=CARTESIAN_POINT('',(2.92500000000006,6.80000000000028,58.6999999999999));
#882=CARTESIAN_POINT('Origin',(1.77500000000002,5.80000000000028,60.4999999999999));
#883=CARTESIAN_POINT('',(0.624999999999973,5.80000000000028,58.6999999999999));
#884=CARTESIAN_POINT('Origin',(1.77500000000002,6.80000000000028,60.4999999999999));
#885=CARTESIAN_POINT('',(2.92498347956234,6.80000000000028,59.6942519044705));
#886=CARTESIAN_POINT('',(2.92498347956236,6.80000000000028,58.6999999999999));
#887=CARTESIAN_POINT('',(1.9249999999999,6.80000000000028,58.6999999999999));
#888=CARTESIAN_POINT('',(0.624999999999973,6.80000000000028,58.6999999999999));
#889=CARTESIAN_POINT('Origin',(1.9249999999999,6.80000000000028,59.7));
#890=CARTESIAN_POINT('Origin',(-0.62500000000011,6.80000000000028,58.7));
#891=CARTESIAN_POINT('',(-0.62500000000011,6.80000000000028,58.7));
#892=CARTESIAN_POINT('',(-0.62500000000011,6.80000000000028,62.6999999999999));
#893=CARTESIAN_POINT('',(-0.62500000000011,5.80000000000028,58.7));
#894=CARTESIAN_POINT('',(-0.62500000000011,5.80000000000028,62.6999999999999));
#895=CARTESIAN_POINT('',(-0.62500000000011,6.80000000000028,58.7));
#896=CARTESIAN_POINT('Origin',(-1.77500000000011,5.80000000000028,60.6999999999999));
#897=CARTESIAN_POINT('',(-2.92499999999999,5.80000000000028,59.7));
#898=CARTESIAN_POINT('',(-2.92500000000007,5.80000000000028,58.7));
#899=CARTESIAN_POINT('',(-1.92499999999997,5.80000000000028,58.7));
#900=CARTESIAN_POINT('Origin',(-1.92499999999997,5.80000000000028,59.7));
#901=CARTESIAN_POINT('',(-0.62500000000011,5.80000000000028,58.7));
#902=CARTESIAN_POINT('Origin',(-1.77500000000011,6.80000000000028,60.6999999999999));
#903=CARTESIAN_POINT('',(-1.00000826021891,6.80000000000028,58.7));
#904=CARTESIAN_POINT('',(-1.00000826021892,6.80000000000028,62.6999999999999));
#905=CARTESIAN_POINT('',(-0.62500000000011,6.80000000000028,58.7));
#906=CARTESIAN_POINT('Origin',(0.999991739781076,8.00000000000028,62.6999999999999));
#907=CARTESIAN_POINT('',(0.999991739781077,8.00000000000028,58.7));
#908=CARTESIAN_POINT('',(0.999991739781014,8.00000000000028,64.6940124086707));
#909=CARTESIAN_POINT('',(0.999991739781076,8.00000000000028,63.45));
#910=CARTESIAN_POINT('',(0.999991739781077,8.00000000000028,58.7));
#911=CARTESIAN_POINT('',(0.999991739781076,6.80000000000028,62.6999999999999));
#912=CARTESIAN_POINT('Ctrl Pts',(0.999991739781076,7.99999999993717,64.6940124086004));
#913=CARTESIAN_POINT('Ctrl Pts',(0.999991739781076,7.98373375162394,64.6758370636918));
#914=CARTESIAN_POINT('Ctrl Pts',(0.999991739781076,7.96717058244881,64.6573955100293));
#915=CARTESIAN_POINT('Origin',(2.92498347956234,8.00000000000028,59.6942519044705));
#916=CARTESIAN_POINT('',(2.92498347956236,6.80000000000028,58.6999999999999));
#917=CARTESIAN_POINT('',(2.92498347956234,8.00000000000028,59.6942519044705));
#918=CARTESIAN_POINT('Origin',(1.96248760967171,6.80000000000028,60.6999999999999));
#919=CARTESIAN_POINT('Origin',(-1.00000826021891,8.00000000000028,58.7));
#920=CARTESIAN_POINT('',(-1.00000826021887,8.00000000000028,64.6940206442509));
#921=CARTESIAN_POINT('',(-1.00000826021891,8.00000000000028,58.7));
#922=CARTESIAN_POINT('',(-1.00000826021892,8.00000000000028,61.45));
#923=CARTESIAN_POINT('Ctrl Pts',(-1.00000826021893,7.77042970954968,64.4404019832069));
#924=CARTESIAN_POINT('Ctrl Pts',(-1.00000826021893,7.89203964126817,64.5733889672622));
#925=CARTESIAN_POINT('Ctrl Pts',(-1.00000826021893,7.99999999999943,64.6940206442502));
#926=CARTESIAN_POINT('',(-1.00000826021891,8.00000000000028,58.7));
#927=CARTESIAN_POINT('Origin',(-8.43769498715119E-14,8.57071067811894,66.7));
#928=CARTESIAN_POINT('',(-1.10000000000008,9.14142135623759,66.7));
#929=CARTESIAN_POINT('',(-1.67071067811874,8.57071067811894,66.7));
#930=CARTESIAN_POINT('Origin',(-8.43769498715119E-14,9.14142135623759,66.7));
#931=CARTESIAN_POINT('Origin',(-8.43769498715119E-14,8.00000000000028,66.7));
#932=CARTESIAN_POINT('Origin',(-8.43769498715119E-14,8.00000000000028,66.7));
#933=CARTESIAN_POINT('',(-1.10000000000008,10.0000000000003,66.7));
#934=CARTESIAN_POINT('',(-1.10000000000008,8.00000000000028,66.7));
#935=CARTESIAN_POINT('Origin',(-8.43769498715119E-14,10.0000000000003,66.7));
#936=CARTESIAN_POINT('Origin',(1.16018306073329E-13,8.00000000000028,64.2));
#937=CARTESIAN_POINT('',(-2.92499999999997,8.00000000000028,58.7));
#938=CARTESIAN_POINT('Origin',(-1.10498264853453E-14,10.0000000000003,61.15));
#939=CARTESIAN_POINT('',(-1.12500000000002,11.4000000000003,61.15));
#940=CARTESIAN_POINT('Origin',(-1.57682743400022E-14,11.4000000000003,61.15));
#941=CARTESIAN_POINT('',(-1.12500000000001,10.0000000000003,61.15));
#942=CARTESIAN_POINT('',(-1.12500000000001,10.0000000000003,61.15));
#943=CARTESIAN_POINT('Origin',(-1.10498264853452E-14,10.0000000000003,61.15));
#944=CARTESIAN_POINT('Origin',(-1.58206781009096E-14,11.4000000000003,61.15));
#945=CARTESIAN_POINT('Origin',(1.92500000000017,10.0000000000003,68.6999999999999));
#946=CARTESIAN_POINT('',(2.92500000000017,10.0000000000003,68.6999999999999));
#947=CARTESIAN_POINT('',(2.92500000000017,10.0000000000003,68.6999999999999));
#948=CARTESIAN_POINT('',(1.92500000000018,10.0000000000003,69.6999999999999));
#949=CARTESIAN_POINT('Origin',(1.92500000000017,10.0000000000003,68.6999999999999));
#950=CARTESIAN_POINT('',(1.92500000000018,10.0000000000003,69.6999999999999));
#951=CARTESIAN_POINT('Origin',(2.9250000000002,10.0000000000003,69.6999999999999));
#952=CARTESIAN_POINT('',(-1.92499999999996,10.0000000000003,69.7));
#953=CARTESIAN_POINT('',(-2.92499999999997,10.0000000000003,69.7));
#954=CARTESIAN_POINT('',(-1.92499999999996,10.0000000000003,69.7));
#955=CARTESIAN_POINT('Origin',(1.16018306073329E-13,10.0000000000003,64.2));
#956=CARTESIAN_POINT('',(2.9249999999999,10.0000000000003,59.7));
#957=CARTESIAN_POINT('',(2.9250000000002,10.0000000000003,69.6999999999999));
#958=CARTESIAN_POINT('',(1.9249999999999,10.0000000000003,58.7));
#959=CARTESIAN_POINT('Origin',(1.9249999999999,10.0000000000003,59.7));
#960=CARTESIAN_POINT('',(-1.92499999999997,10.0000000000003,58.7));
#961=CARTESIAN_POINT('',(-2.92499999999997,10.0000000000003,58.7));
#962=CARTESIAN_POINT('',(-2.92499999999997,10.0000000000003,59.7));
#963=CARTESIAN_POINT('Origin',(-1.92499999999997,10.0000000000003,59.7));
#964=CARTESIAN_POINT('',(-2.92499999999997,10.0000000000003,68.7));
#965=CARTESIAN_POINT('',(-2.92499999999997,10.0000000000003,69.7));
#966=CARTESIAN_POINT('Origin',(-1.92499999999997,10.0000000000003,68.7));
#967=CARTESIAN_POINT('Origin',(-1.92499999999997,10.0000000000003,68.7));
#968=CARTESIAN_POINT('',(-2.92499999999997,10.0000000000003,68.7));
#969=CARTESIAN_POINT('Origin',(-2.92499999999997,10.0000000000003,69.7));
#970=CARTESIAN_POINT('',(-2.92499999999997,10.0000000000003,59.7));
#971=CARTESIAN_POINT('Origin',(-1.92499999999997,10.0000000000003,59.7));
#972=CARTESIAN_POINT('',(-1.92499999999997,10.0000000000003,58.7));
#973=CARTESIAN_POINT('Origin',(-2.92499999999997,10.0000000000003,58.7));
#974=CARTESIAN_POINT('',(1.9249999999999,10.0000000000003,58.7));
#975=CARTESIAN_POINT('Origin',(1.9249999999999,10.0000000000003,59.7));
#976=CARTESIAN_POINT('',(2.9249999999999,10.0000000000003,59.7));
#977=CARTESIAN_POINT('Origin',(2.92499999999987,10.0000000000003,58.7));
#978=UNCERTAINTY_MEASURE_WITH_UNIT(LENGTH_MEASURE(0.01),#982,
'DISTANCE_ACCURACY_VALUE',
'Maximum model space distance between geometric entities at asserted c
onnectivities');
#979=UNCERTAINTY_MEASURE_WITH_UNIT(LENGTH_MEASURE(0.01),#982,
'DISTANCE_ACCURACY_VALUE',
'Maximum model space distance between geometric entities at asserted c
onnectivities');
#980=(
GEOMETRIC_REPRESENTATION_CONTEXT(3)
GLOBAL_UNCERTAINTY_ASSIGNED_CONTEXT((#978))
GLOBAL_UNIT_ASSIGNED_CONTEXT((#982,#984,#985))
REPRESENTATION_CONTEXT('','3D')
);
#981=(
GEOMETRIC_REPRESENTATION_CONTEXT(3)
GLOBAL_UNCERTAINTY_ASSIGNED_CONTEXT((#979))
GLOBAL_UNIT_ASSIGNED_CONTEXT((#982,#984,#985))
REPRESENTATION_CONTEXT('','3D')
);
#982=(
LENGTH_UNIT()
NAMED_UNIT(*)
SI_UNIT(.MILLI.,.METRE.)
);
#983=(
LENGTH_UNIT()
NAMED_UNIT(*)
SI_UNIT($,.METRE.)
);
#984=(
NAMED_UNIT(*)
PLANE_ANGLE_UNIT()
SI_UNIT($,.RADIAN.)
);
#985=(
NAMED_UNIT(*)
SI_UNIT($,.STERADIAN.)
SOLID_ANGLE_UNIT()
);
#986=SHAPE_DEFINITION_REPRESENTATION(#987,#988);
#987=PRODUCT_DEFINITION_SHAPE('',$,#990);
#988=SHAPE_REPRESENTATION('',(#585),#980);
#989=PRODUCT_DEFINITION_CONTEXT('part definition',#994,'design');
#990=PRODUCT_DEFINITION('2026-08-29-11-09-31-682','(Unsaved)',#991,#989);
#991=PRODUCT_DEFINITION_FORMATION('',$,#996);
#992=PRODUCT_RELATED_PRODUCT_CATEGORY('(Unsaved)','(Unsaved)',(#996));
#993=APPLICATION_PROTOCOL_DEFINITION('international standard',
'automotive_design',2009,#994);
#994=APPLICATION_CONTEXT(
'Core Data for Automotive Mechanical Design Process');
#995=PRODUCT_CONTEXT('part definition',#994,'mechanical');
#996=PRODUCT('2026-08-29-11-09-31-682','(Unsaved)',$,(#995));
#997=PRESENTATION_STYLE_ASSIGNMENT((#998));
#998=SURFACE_STYLE_USAGE(.BOTH.,#999);
#999=SURFACE_SIDE_STYLE('',(#1000));
#1000=SURFACE_STYLE_FILL_AREA(#1001);
#1001=FILL_AREA_STYLE('Steel - Satin',(#1002));
#1002=FILL_AREA_STYLE_COLOUR('Steel - Satin',#1003);
#1003=COLOUR_RGB('Steel - Satin',0.627450980392157,0.627450980392157,0.627450980392157);
ENDSEC;
END-ISO-10303-21;
