ISO-10303-21;
HEADER;
/* Generated by software containing ST-Developer
 * from STEP Tools, Inc. (www.steptools.com) 
 */

FILE_DESCRIPTION(
/* description */ (''),
/* implementation_level */ '2;1');

FILE_NAME(
/* name */ 'electronics-housing-decrease-brightness-button_v1.0.step',
/* time_stamp */ '2026-08-29T11:09:29-05:00',
/* author */ (''),
/* organization */ (''),
/* preprocessor_version */ 'ST-DEVELOPER v20.1',
/* originating_system */ 'Autodesk Translation Framework v15.8.0.0',
/* authorisation */ '');

FILE_SCHEMA (('AUTOMOTIVE_DESIGN { 1 0 10303 214 3 1 1 }'));
ENDSEC;

DATA;
#10=MECHANICAL_DESIGN_GEOMETRIC_PRESENTATION_REPRESENTATION('',(#13),#510);
#11=SHAPE_REPRESENTATION_RELATIONSHIP('SRR','None',#517,#12);
#12=ADVANCED_BREP_SHAPE_REPRESENTATION('',(#14),#509);
#13=STYLED_ITEM('',(#526),#14);
#14=MANIFOLD_SOLID_BREP('Body1',#298);
#15=FACE_BOUND('',#62,.T.);
#16=FACE_BOUND('',#64,.T.);
#17=PLANE('',#315);
#18=PLANE('',#316);
#19=PLANE('',#317);
#20=PLANE('',#318);
#21=PLANE('',#319);
#22=PLANE('',#320);
#23=PLANE('',#321);
#24=PLANE('',#325);
#25=PLANE('',#329);
#26=PLANE('',#333);
#27=PLANE('',#337);
#28=PLANE('',#338);
#29=FACE_OUTER_BOUND('',#46,.T.);
#30=FACE_OUTER_BOUND('',#47,.T.);
#31=FACE_OUTER_BOUND('',#48,.T.);
#32=FACE_OUTER_BOUND('',#49,.T.);
#33=FACE_OUTER_BOUND('',#50,.T.);
#34=FACE_OUTER_BOUND('',#51,.T.);
#35=FACE_OUTER_BOUND('',#52,.T.);
#36=FACE_OUTER_BOUND('',#53,.T.);
#37=FACE_OUTER_BOUND('',#54,.T.);
#38=FACE_OUTER_BOUND('',#55,.T.);
#39=FACE_OUTER_BOUND('',#56,.T.);
#40=FACE_OUTER_BOUND('',#57,.T.);
#41=FACE_OUTER_BOUND('',#58,.T.);
#42=FACE_OUTER_BOUND('',#59,.T.);
#43=FACE_OUTER_BOUND('',#60,.T.);
#44=FACE_OUTER_BOUND('',#61,.T.);
#45=FACE_OUTER_BOUND('',#63,.T.);
#46=EDGE_LOOP('',(#198,#199,#200,#201));
#47=EDGE_LOOP('',(#202));
#48=EDGE_LOOP('',(#203,#204,#205,#206));
#49=EDGE_LOOP('',(#207,#208,#209,#210));
#50=EDGE_LOOP('',(#211,#212,#213,#214));
#51=EDGE_LOOP('',(#215,#216,#217,#218));
#52=EDGE_LOOP('',(#219,#220,#221,#222));
#53=EDGE_LOOP('',(#223,#224,#225,#226));
#54=EDGE_LOOP('',(#227,#228,#229,#230));
#55=EDGE_LOOP('',(#231,#232,#233,#234));
#56=EDGE_LOOP('',(#235,#236,#237,#238));
#57=EDGE_LOOP('',(#239,#240,#241,#242));
#58=EDGE_LOOP('',(#243,#244,#245,#246));
#59=EDGE_LOOP('',(#247,#248,#249,#250));
#60=EDGE_LOOP('',(#251,#252,#253,#254));
#61=EDGE_LOOP('',(#255,#256,#257,#258,#259,#260,#261,#262));
#62=EDGE_LOOP('',(#263,#264,#265,#266));
#63=EDGE_LOOP('',(#267,#268,#269,#270,#271,#272,#273,#274));
#64=EDGE_LOOP('',(#275));
#65=LINE('',#429,#94);
#66=LINE('',#435,#95);
#67=LINE('',#437,#96);
#68=LINE('',#439,#97);
#69=LINE('',#440,#98);
#70=LINE('',#443,#99);
#71=LINE('',#445,#100);
#72=LINE('',#446,#101);
#73=LINE('',#449,#102);
#74=LINE('',#451,#103);
#75=LINE('',#452,#104);
#76=LINE('',#454,#105);
#77=LINE('',#455,#106);
#78=LINE('',#460,#107);
#79=LINE('',#462,#108);
#80=LINE('',#464,#109);
#81=LINE('',#465,#110);
#82=LINE('',#471,#111);
#83=LINE('',#474,#112);
#84=LINE('',#476,#113);
#85=LINE('',#477,#114);
#86=LINE('',#483,#115);
#87=LINE('',#486,#116);
#88=LINE('',#488,#117);
#89=LINE('',#489,#118);
#90=LINE('',#495,#119);
#91=LINE('',#498,#120);
#92=LINE('',#500,#121);
#93=LINE('',#501,#122);
#94=VECTOR('',#345,2.);
#95=VECTOR('',#352,10.);
#96=VECTOR('',#353,10.);
#97=VECTOR('',#354,10.);
#98=VECTOR('',#355,10.);
#99=VECTOR('',#358,10.);
#100=VECTOR('',#359,10.);
#101=VECTOR('',#360,10.);
#102=VECTOR('',#363,10.);
#103=VECTOR('',#364,10.);
#104=VECTOR('',#365,10.);
#105=VECTOR('',#368,10.);
#106=VECTOR('',#369,10.);
#107=VECTOR('',#374,10.);
#108=VECTOR('',#375,10.);
#109=VECTOR('',#376,10.);
#110=VECTOR('',#377,10.);
#111=VECTOR('',#384,10.);
#112=VECTOR('',#387,10.);
#113=VECTOR('',#388,10.);
#114=VECTOR('',#389,10.);
#115=VECTOR('',#396,10.);
#116=VECTOR('',#399,10.);
#117=VECTOR('',#400,10.);
#118=VECTOR('',#401,10.);
#119=VECTOR('',#408,10.);
#120=VECTOR('',#411,10.);
#121=VECTOR('',#412,10.);
#122=VECTOR('',#413,10.);
#123=CIRCLE('',#313,2.);
#124=CIRCLE('',#314,2.);
#125=CIRCLE('',#323,2.2);
#126=CIRCLE('',#324,2.2);
#127=CIRCLE('',#327,2.2);
#128=CIRCLE('',#328,2.2);
#129=CIRCLE('',#331,2.2);
#130=CIRCLE('',#332,2.2);
#131=CIRCLE('',#335,2.2);
#132=CIRCLE('',#336,2.2);
#133=VERTEX_POINT('',#426);
#134=VERTEX_POINT('',#428);
#135=VERTEX_POINT('',#433);
#136=VERTEX_POINT('',#434);
#137=VERTEX_POINT('',#436);
#138=VERTEX_POINT('',#438);
#139=VERTEX_POINT('',#442);
#140=VERTEX_POINT('',#444);
#141=VERTEX_POINT('',#448);
#142=VERTEX_POINT('',#450);
#143=VERTEX_POINT('',#458);
#144=VERTEX_POINT('',#459);
#145=VERTEX_POINT('',#461);
#146=VERTEX_POINT('',#463);
#147=VERTEX_POINT('',#467);
#148=VERTEX_POINT('',#469);
#149=VERTEX_POINT('',#473);
#150=VERTEX_POINT('',#475);
#151=VERTEX_POINT('',#479);
#152=VERTEX_POINT('',#481);
#153=VERTEX_POINT('',#485);
#154=VERTEX_POINT('',#487);
#155=VERTEX_POINT('',#491);
#156=VERTEX_POINT('',#493);
#157=VERTEX_POINT('',#497);
#158=VERTEX_POINT('',#499);
#159=EDGE_CURVE('',#133,#133,#123,.T.);
#160=EDGE_CURVE('',#133,#134,#65,.T.);
#161=EDGE_CURVE('',#134,#134,#124,.T.);
#162=EDGE_CURVE('',#135,#136,#66,.T.);
#163=EDGE_CURVE('',#135,#137,#67,.T.);
#164=EDGE_CURVE('',#137,#138,#68,.T.);
#165=EDGE_CURVE('',#136,#138,#69,.T.);
#166=EDGE_CURVE('',#139,#135,#70,.T.);
#167=EDGE_CURVE('',#139,#140,#71,.T.);
#168=EDGE_CURVE('',#140,#137,#72,.T.);
#169=EDGE_CURVE('',#141,#139,#73,.T.);
#170=EDGE_CURVE('',#141,#142,#74,.T.);
#171=EDGE_CURVE('',#142,#140,#75,.T.);
#172=EDGE_CURVE('',#136,#141,#76,.T.);
#173=EDGE_CURVE('',#138,#142,#77,.T.);
#174=EDGE_CURVE('',#143,#144,#78,.T.);
#175=EDGE_CURVE('',#144,#145,#79,.T.);
#176=EDGE_CURVE('',#146,#145,#80,.T.);
#177=EDGE_CURVE('',#143,#146,#81,.T.);
#178=EDGE_CURVE('',#147,#143,#125,.T.);
#179=EDGE_CURVE('',#148,#146,#126,.T.);
#180=EDGE_CURVE('',#147,#148,#82,.T.);
#181=EDGE_CURVE('',#149,#147,#83,.T.);
#182=EDGE_CURVE('',#150,#148,#84,.T.);
#183=EDGE_CURVE('',#149,#150,#85,.T.);
#184=EDGE_CURVE('',#151,#149,#127,.T.);
#185=EDGE_CURVE('',#152,#150,#128,.T.);
#186=EDGE_CURVE('',#151,#152,#86,.T.);
#187=EDGE_CURVE('',#153,#151,#87,.T.);
#188=EDGE_CURVE('',#154,#152,#88,.T.);
#189=EDGE_CURVE('',#153,#154,#89,.T.);
#190=EDGE_CURVE('',#155,#153,#129,.T.);
#191=EDGE_CURVE('',#156,#154,#130,.T.);
#192=EDGE_CURVE('',#155,#156,#90,.T.);
#193=EDGE_CURVE('',#157,#155,#91,.T.);
#194=EDGE_CURVE('',#158,#156,#92,.T.);
#195=EDGE_CURVE('',#157,#158,#93,.T.);
#196=EDGE_CURVE('',#144,#157,#131,.T.);
#197=EDGE_CURVE('',#145,#158,#132,.T.);
#198=ORIENTED_EDGE('',*,*,#159,.F.);
#199=ORIENTED_EDGE('',*,*,#160,.T.);
#200=ORIENTED_EDGE('',*,*,#161,.T.);
#201=ORIENTED_EDGE('',*,*,#160,.F.);
#202=ORIENTED_EDGE('',*,*,#161,.F.);
#203=ORIENTED_EDGE('',*,*,#162,.F.);
#204=ORIENTED_EDGE('',*,*,#163,.T.);
#205=ORIENTED_EDGE('',*,*,#164,.T.);
#206=ORIENTED_EDGE('',*,*,#165,.F.);
#207=ORIENTED_EDGE('',*,*,#166,.F.);
#208=ORIENTED_EDGE('',*,*,#167,.T.);
#209=ORIENTED_EDGE('',*,*,#168,.T.);
#210=ORIENTED_EDGE('',*,*,#163,.F.);
#211=ORIENTED_EDGE('',*,*,#169,.F.);
#212=ORIENTED_EDGE('',*,*,#170,.T.);
#213=ORIENTED_EDGE('',*,*,#171,.T.);
#214=ORIENTED_EDGE('',*,*,#167,.F.);
#215=ORIENTED_EDGE('',*,*,#172,.F.);
#216=ORIENTED_EDGE('',*,*,#165,.T.);
#217=ORIENTED_EDGE('',*,*,#173,.T.);
#218=ORIENTED_EDGE('',*,*,#170,.F.);
#219=ORIENTED_EDGE('',*,*,#173,.F.);
#220=ORIENTED_EDGE('',*,*,#164,.F.);
#221=ORIENTED_EDGE('',*,*,#168,.F.);
#222=ORIENTED_EDGE('',*,*,#171,.F.);
#223=ORIENTED_EDGE('',*,*,#174,.T.);
#224=ORIENTED_EDGE('',*,*,#175,.T.);
#225=ORIENTED_EDGE('',*,*,#176,.F.);
#226=ORIENTED_EDGE('',*,*,#177,.F.);
#227=ORIENTED_EDGE('',*,*,#178,.T.);
#228=ORIENTED_EDGE('',*,*,#177,.T.);
#229=ORIENTED_EDGE('',*,*,#179,.F.);
#230=ORIENTED_EDGE('',*,*,#180,.F.);
#231=ORIENTED_EDGE('',*,*,#181,.T.);
#232=ORIENTED_EDGE('',*,*,#180,.T.);
#233=ORIENTED_EDGE('',*,*,#182,.F.);
#234=ORIENTED_EDGE('',*,*,#183,.F.);
#235=ORIENTED_EDGE('',*,*,#184,.T.);
#236=ORIENTED_EDGE('',*,*,#183,.T.);
#237=ORIENTED_EDGE('',*,*,#185,.F.);
#238=ORIENTED_EDGE('',*,*,#186,.F.);
#239=ORIENTED_EDGE('',*,*,#187,.T.);
#240=ORIENTED_EDGE('',*,*,#186,.T.);
#241=ORIENTED_EDGE('',*,*,#188,.F.);
#242=ORIENTED_EDGE('',*,*,#189,.F.);
#243=ORIENTED_EDGE('',*,*,#190,.T.);
#244=ORIENTED_EDGE('',*,*,#189,.T.);
#245=ORIENTED_EDGE('',*,*,#191,.F.);
#246=ORIENTED_EDGE('',*,*,#192,.F.);
#247=ORIENTED_EDGE('',*,*,#193,.T.);
#248=ORIENTED_EDGE('',*,*,#192,.T.);
#249=ORIENTED_EDGE('',*,*,#194,.F.);
#250=ORIENTED_EDGE('',*,*,#195,.F.);
#251=ORIENTED_EDGE('',*,*,#196,.T.);
#252=ORIENTED_EDGE('',*,*,#195,.T.);
#253=ORIENTED_EDGE('',*,*,#197,.F.);
#254=ORIENTED_EDGE('',*,*,#175,.F.);
#255=ORIENTED_EDGE('',*,*,#197,.T.);
#256=ORIENTED_EDGE('',*,*,#194,.T.);
#257=ORIENTED_EDGE('',*,*,#191,.T.);
#258=ORIENTED_EDGE('',*,*,#188,.T.);
#259=ORIENTED_EDGE('',*,*,#185,.T.);
#260=ORIENTED_EDGE('',*,*,#182,.T.);
#261=ORIENTED_EDGE('',*,*,#179,.T.);
#262=ORIENTED_EDGE('',*,*,#176,.T.);
#263=ORIENTED_EDGE('',*,*,#162,.T.);
#264=ORIENTED_EDGE('',*,*,#172,.T.);
#265=ORIENTED_EDGE('',*,*,#169,.T.);
#266=ORIENTED_EDGE('',*,*,#166,.T.);
#267=ORIENTED_EDGE('',*,*,#196,.F.);
#268=ORIENTED_EDGE('',*,*,#174,.F.);
#269=ORIENTED_EDGE('',*,*,#178,.F.);
#270=ORIENTED_EDGE('',*,*,#181,.F.);
#271=ORIENTED_EDGE('',*,*,#184,.F.);
#272=ORIENTED_EDGE('',*,*,#187,.F.);
#273=ORIENTED_EDGE('',*,*,#190,.F.);
#274=ORIENTED_EDGE('',*,*,#193,.F.);
#275=ORIENTED_EDGE('',*,*,#159,.T.);
#276=CYLINDRICAL_SURFACE('',#312,2.);
#277=CYLINDRICAL_SURFACE('',#322,2.2);
#278=CYLINDRICAL_SURFACE('',#326,2.2);
#279=CYLINDRICAL_SURFACE('',#330,2.2);
#280=CYLINDRICAL_SURFACE('',#334,2.2);
#281=ADVANCED_FACE('',(#29),#276,.F.);
#282=ADVANCED_FACE('',(#30),#17,.T.);
#283=ADVANCED_FACE('',(#31),#18,.F.);
#284=ADVANCED_FACE('',(#32),#19,.F.);
#285=ADVANCED_FACE('',(#33),#20,.F.);
#286=ADVANCED_FACE('',(#34),#21,.F.);
#287=ADVANCED_FACE('',(#35),#22,.F.);
#288=ADVANCED_FACE('',(#36),#23,.T.);
#289=ADVANCED_FACE('',(#37),#277,.T.);
#290=ADVANCED_FACE('',(#38),#24,.T.);
#291=ADVANCED_FACE('',(#39),#278,.T.);
#292=ADVANCED_FACE('',(#40),#25,.T.);
#293=ADVANCED_FACE('',(#41),#279,.T.);
#294=ADVANCED_FACE('',(#42),#26,.T.);
#295=ADVANCED_FACE('',(#43),#280,.T.);
#296=ADVANCED_FACE('',(#44,#15),#27,.T.);
#297=ADVANCED_FACE('',(#45,#16),#28,.F.);
#298=CLOSED_SHELL('',(#281,#282,#283,#284,#285,#286,#287,#288,#289,#290,
#291,#292,#293,#294,#295,#296,#297));
#299=DERIVED_UNIT_ELEMENT(#301,1.);
#300=DERIVED_UNIT_ELEMENT(#512,-3.);
#301=(
MASS_UNIT()
NAMED_UNIT(*)
SI_UNIT(.KILO.,.GRAM.)
);
#302=DERIVED_UNIT((#299,#300));
#303=MEASURE_REPRESENTATION_ITEM('density measure',
POSITIVE_RATIO_MEASURE(7850.),#302);
#304=PROPERTY_DEFINITION_REPRESENTATION(#309,#306);
#305=PROPERTY_DEFINITION_REPRESENTATION(#310,#307);
#306=REPRESENTATION('material name',(#308),#509);
#307=REPRESENTATION('density',(#303),#509);
#308=DESCRIPTIVE_REPRESENTATION_ITEM('Steel','Steel');
#309=PROPERTY_DEFINITION('material property','material name',#519);
#310=PROPERTY_DEFINITION('material property','density of part',#519);
#311=AXIS2_PLACEMENT_3D('',#424,#339,#340);
#312=AXIS2_PLACEMENT_3D('',#425,#341,#342);
#313=AXIS2_PLACEMENT_3D('',#427,#343,#344);
#314=AXIS2_PLACEMENT_3D('',#430,#346,#347);
#315=AXIS2_PLACEMENT_3D('',#431,#348,#349);
#316=AXIS2_PLACEMENT_3D('',#432,#350,#351);
#317=AXIS2_PLACEMENT_3D('',#441,#356,#357);
#318=AXIS2_PLACEMENT_3D('',#447,#361,#362);
#319=AXIS2_PLACEMENT_3D('',#453,#366,#367);
#320=AXIS2_PLACEMENT_3D('',#456,#370,#371);
#321=AXIS2_PLACEMENT_3D('',#457,#372,#373);
#322=AXIS2_PLACEMENT_3D('',#466,#378,#379);
#323=AXIS2_PLACEMENT_3D('',#468,#380,#381);
#324=AXIS2_PLACEMENT_3D('',#470,#382,#383);
#325=AXIS2_PLACEMENT_3D('',#472,#385,#386);
#326=AXIS2_PLACEMENT_3D('',#478,#390,#391);
#327=AXIS2_PLACEMENT_3D('',#480,#392,#393);
#328=AXIS2_PLACEMENT_3D('',#482,#394,#395);
#329=AXIS2_PLACEMENT_3D('',#484,#397,#398);
#330=AXIS2_PLACEMENT_3D('',#490,#402,#403);
#331=AXIS2_PLACEMENT_3D('',#492,#404,#405);
#332=AXIS2_PLACEMENT_3D('',#494,#406,#407);
#333=AXIS2_PLACEMENT_3D('',#496,#409,#410);
#334=AXIS2_PLACEMENT_3D('',#502,#414,#415);
#335=AXIS2_PLACEMENT_3D('',#503,#416,#417);
#336=AXIS2_PLACEMENT_3D('',#504,#418,#419);
#337=AXIS2_PLACEMENT_3D('',#505,#420,#421);
#338=AXIS2_PLACEMENT_3D('',#506,#422,#423);
#339=DIRECTION('axis',(0.,0.,1.));
#340=DIRECTION('refdir',(1.,0.,0.));
#341=DIRECTION('center_axis',(-3.33066907387547E-15,1.,0.));
#342=DIRECTION('ref_axis',(1.,3.33066907387547E-15,0.));
#343=DIRECTION('center_axis',(-3.33066907387548E-15,1.,3.64921475084589E-47));
#344=DIRECTION('ref_axis',(1.,3.33066907387547E-15,0.));
#345=DIRECTION('',(-3.33066907387547E-15,1.,0.));
#346=DIRECTION('center_axis',(-3.33066907387548E-15,1.,3.37552364453244E-47));
#347=DIRECTION('ref_axis',(1.,3.33066907387548E-15,0.));
#348=DIRECTION('center_axis',(3.33066907387548E-15,-1.,-3.37552364453244E-47));
#349=DIRECTION('ref_axis',(1.,3.33066907387548E-15,0.));
#350=DIRECTION('center_axis',(0.,0.,1.));
#351=DIRECTION('ref_axis',(-1.,-3.33066907387548E-15,0.));
#352=DIRECTION('',(-1.,-3.33066907387548E-15,0.));
#353=DIRECTION('',(3.46944695195361E-15,-1.,0.));
#354=DIRECTION('',(-1.,-3.33066907387548E-15,0.));
#355=DIRECTION('',(3.46944695195361E-15,-1.,0.));
#356=DIRECTION('center_axis',(1.,3.46944695195361E-15,-2.93600705383183E-61));
#357=DIRECTION('ref_axis',(-7.04641692919689E-60,2.11561604377521E-45,1.));
#358=DIRECTION('',(4.20208275326647E-61,-3.64921475084589E-47,1.));
#359=DIRECTION('',(3.46944695195361E-15,-1.,0.));
#360=DIRECTION('',(-7.04641692919689E-60,2.11561604377521E-45,1.));
#361=DIRECTION('center_axis',(-1.96337623926216E-92,-6.81182970884624E-107,
-1.));
#362=DIRECTION('ref_axis',(1.,3.33066907387548E-15,-1.96337623926216E-92));
#363=DIRECTION('',(1.,3.33066907387548E-15,-1.96337623926216E-92));
#364=DIRECTION('',(3.46944695195361E-15,-1.,0.));
#365=DIRECTION('',(1.,3.33066907387548E-15,-1.96337623926216E-92));
#366=DIRECTION('center_axis',(-1.,-3.46944695195361E-15,-5.06430279773825E-63));
#367=DIRECTION('ref_axis',(-1.21543267145726E-61,3.64921475084589E-47,-1.));
#368=DIRECTION('',(-1.21543267145726E-61,3.64921475084589E-47,-1.));
#369=DIRECTION('',(-1.21543267145726E-61,3.64921475084589E-47,-1.));
#370=DIRECTION('center_axis',(3.46944695195361E-15,-1.,0.));
#371=DIRECTION('ref_axis',(0.,0.,-1.));
#372=DIRECTION('center_axis',(1.,3.1720657846433E-15,1.13288063737261E-16));
#373=DIRECTION('ref_axis',(1.13288063737261E-16,3.77325050328928E-31,-1.));
#374=DIRECTION('',(1.13288063737261E-16,3.77325050328928E-31,-1.));
#375=DIRECTION('',(-3.1720657846433E-15,1.,0.));
#376=DIRECTION('',(1.13288063737261E-16,3.77325050328928E-31,-1.));
#377=DIRECTION('',(-3.1720657846433E-15,1.,0.));
#378=DIRECTION('center_axis',(-3.1720657846433E-15,1.,0.));
#379=DIRECTION('ref_axis',(5.04646829375071E-16,1.60077294078939E-30,1.));
#380=DIRECTION('center_axis',(-3.33066907387548E-15,1.,3.64921475084587E-47));
#381=DIRECTION('ref_axis',(5.04646829375071E-16,1.68081158782886E-30,1.));
#382=DIRECTION('center_axis',(-3.33066907387548E-15,1.,3.64921475084587E-47));
#383=DIRECTION('ref_axis',(5.04646829375071E-16,1.68081158782886E-30,1.));
#384=DIRECTION('',(-3.1720657846433E-15,1.,0.));
#385=DIRECTION('center_axis',(-4.53152254949043E-16,-1.43742876315782E-30,
1.));
#386=DIRECTION('ref_axis',(1.,3.33066907387548E-15,4.53152254949043E-16));
#387=DIRECTION('',(1.,3.33066907387548E-15,4.53152254949043E-16));
#388=DIRECTION('',(1.,3.33066907387548E-15,4.53152254949043E-16));
#389=DIRECTION('',(-3.1720657846433E-15,1.,0.));
#390=DIRECTION('center_axis',(-3.1720657846433E-15,1.,0.));
#391=DIRECTION('ref_axis',(-1.,-3.1720657846433E-15,-1.00929365875014E-15));
#392=DIRECTION('center_axis',(-3.33066907387548E-15,1.,-8.46594154379942E-34));
#393=DIRECTION('ref_axis',(-1.,-3.33066907387548E-15,-1.00929365875014E-15));
#394=DIRECTION('center_axis',(-3.33066907387548E-15,1.,-8.46594154379942E-34));
#395=DIRECTION('ref_axis',(-1.,-3.33066907387548E-15,-1.00929365875014E-15));
#396=DIRECTION('',(-3.1720657846433E-15,1.,0.));
#397=DIRECTION('center_axis',(-1.,-3.1720657846433E-15,-2.26576127474522E-16));
#398=DIRECTION('ref_axis',(-2.26576127474522E-16,-7.54650100657857E-31,
1.));
#399=DIRECTION('',(-2.26576127474522E-16,-7.54650100657857E-31,1.));
#400=DIRECTION('',(-2.26576127474522E-16,-7.54650100657857E-31,1.));
#401=DIRECTION('',(-3.1720657846433E-15,1.,0.));
#402=DIRECTION('center_axis',(-3.1720657846433E-15,1.,0.));
#403=DIRECTION('ref_axis',(-5.04646829375071E-16,-1.60077294078939E-30,
-1.));
#404=DIRECTION('center_axis',(-3.33066907387548E-15,1.,3.64921475084589E-47));
#405=DIRECTION('ref_axis',(-5.04646829375071E-16,-1.68081158782886E-30,
-1.));
#406=DIRECTION('center_axis',(-3.33066907387548E-15,1.,3.64921475084589E-47));
#407=DIRECTION('ref_axis',(-5.04646829375071E-16,-1.68081158782886E-30,
-1.));
#408=DIRECTION('',(-3.1720657846433E-15,1.,0.));
#409=DIRECTION('center_axis',(-4.53152254949043E-16,-1.43742876315782E-30,
-1.));
#410=DIRECTION('ref_axis',(-1.,-3.33066907387548E-15,4.53152254949043E-16));
#411=DIRECTION('',(-1.,-3.33066907387548E-15,4.53152254949043E-16));
#412=DIRECTION('',(-1.,-3.33066907387548E-15,4.53152254949043E-16));
#413=DIRECTION('',(-3.1720657846433E-15,1.,0.));
#414=DIRECTION('center_axis',(-3.1720657846433E-15,1.,0.));
#415=DIRECTION('ref_axis',(1.,3.1720657846433E-15,5.04646829375071E-16));
#416=DIRECTION('center_axis',(-3.33066907387548E-15,1.,-8.4659415437997E-34));
#417=DIRECTION('ref_axis',(1.,3.33066907387548E-15,5.04646829375071E-16));
#418=DIRECTION('center_axis',(-3.33066907387548E-15,1.,-8.4659415437997E-34));
#419=DIRECTION('ref_axis',(1.,3.33066907387548E-15,5.04646829375071E-16));
#420=DIRECTION('center_axis',(-3.33066907387548E-15,1.,3.64921475084589E-47));
#421=DIRECTION('ref_axis',(-1.,-3.33066907387548E-15,-2.70744969677094E-109));
#422=DIRECTION('center_axis',(-3.33066907387548E-15,1.,3.64921475084589E-47));
#423=DIRECTION('ref_axis',(-1.,-3.33066907387548E-15,-2.70744969677094E-109));
#424=CARTESIAN_POINT('',(0.,0.,0.));
#425=CARTESIAN_POINT('Origin',(-4.64073224293326E-14,13.6000000000003,6.99999999999999));
#426=CARTESIAN_POINT('',(-2.00000000000005,13.6000000000003,6.99999999999999));
#427=CARTESIAN_POINT('Origin',(-4.64073224293326E-14,13.6000000000003,6.99999999999999));
#428=CARTESIAN_POINT('',(-2.00000000000005,14.6000000000003,6.99999999999999));
#429=CARTESIAN_POINT('',(-2.00000000000005,13.6000000000003,6.99999999999999));
#430=CARTESIAN_POINT('Origin',(-4.97379915032081E-14,14.6000000000003,6.99999999999999));
#431=CARTESIAN_POINT('Origin',(-4.97379915032081E-14,14.6000000000003,6.99999999999999));
#432=CARTESIAN_POINT('Origin',(1.99999999999995,15.7000000000003,7.49999999999999));
#433=CARTESIAN_POINT('',(1.99999999999995,15.7000000000003,7.49999999999999));
#434=CARTESIAN_POINT('',(-2.00000000000005,15.7000000000003,7.49999999999999));
#435=CARTESIAN_POINT('',(0.999999999999964,15.7000000000003,7.49999999999999));
#436=CARTESIAN_POINT('',(1.99999999999995,15.3000000000003,7.49999999999999));
#437=CARTESIAN_POINT('',(1.99999999999995,15.7000000000003,7.49999999999999));
#438=CARTESIAN_POINT('',(-2.00000000000005,15.3000000000003,7.49999999999999));
#439=CARTESIAN_POINT('',(-2.00000000000005,15.3000000000003,7.49999999999999));
#440=CARTESIAN_POINT('',(-2.00000000000005,15.7000000000003,7.49999999999999));
#441=CARTESIAN_POINT('Origin',(1.99999999999995,15.7000000000003,6.49999999999999));
#442=CARTESIAN_POINT('',(1.99999999999995,15.7000000000003,6.49999999999999));
#443=CARTESIAN_POINT('',(1.99999999999995,15.7000000000003,6.74999999999999));
#444=CARTESIAN_POINT('',(1.99999999999995,15.3000000000003,6.49999999999999));
#445=CARTESIAN_POINT('',(1.99999999999995,15.7000000000003,6.49999999999999));
#446=CARTESIAN_POINT('',(1.99999999999995,15.3000000000003,7.49999999999999));
#447=CARTESIAN_POINT('Origin',(-2.00000000000005,15.7000000000003,6.49999999999999));
#448=CARTESIAN_POINT('',(-2.00000000000005,15.7000000000003,6.49999999999999));
#449=CARTESIAN_POINT('',(-1.00000000000004,15.7000000000003,6.49999999999999));
#450=CARTESIAN_POINT('',(-2.00000000000005,15.3000000000003,6.49999999999999));
#451=CARTESIAN_POINT('',(-2.00000000000005,15.7000000000003,6.49999999999999));
#452=CARTESIAN_POINT('',(1.99999999999995,15.3000000000003,6.49999999999999));
#453=CARTESIAN_POINT('Origin',(-2.00000000000005,15.7000000000003,7.49999999999999));
#454=CARTESIAN_POINT('',(-2.00000000000005,15.7000000000003,7.24999999999999));
#455=CARTESIAN_POINT('',(-2.00000000000005,15.3000000000003,6.49999999999999));
#456=CARTESIAN_POINT('Origin',(-4.85722573273506E-14,15.3000000000003,6.99999999999999));
#457=CARTESIAN_POINT('Origin',(7.09999999999998,13.6000000000003,11.9));
#458=CARTESIAN_POINT('',(7.09999999999998,13.6000000000003,11.9));
#459=CARTESIAN_POINT('',(7.09999999999998,13.6000000000003,2.09999999999999));
#460=CARTESIAN_POINT('',(7.09999999999998,13.6000000000003,11.9));
#461=CARTESIAN_POINT('',(7.09999999999998,15.7000000000003,2.09999999999999));
#462=CARTESIAN_POINT('',(7.09999999999998,13.6000000000003,2.09999999999999));
#463=CARTESIAN_POINT('',(7.09999999999997,15.7000000000003,11.9));
#464=CARTESIAN_POINT('',(7.09999999999997,15.7000000000003,11.9));
#465=CARTESIAN_POINT('',(7.09999999999998,13.6000000000003,11.9));
#466=CARTESIAN_POINT('Origin',(4.89999999999998,13.6000000000003,11.9));
#467=CARTESIAN_POINT('',(4.89999999999998,13.6000000000003,14.1));
#468=CARTESIAN_POINT('Origin',(4.89999999999998,13.6000000000003,11.9));
#469=CARTESIAN_POINT('',(4.89999999999998,15.7000000000003,14.1));
#470=CARTESIAN_POINT('Origin',(4.89999999999998,15.7000000000003,11.9));
#471=CARTESIAN_POINT('',(4.89999999999998,13.6000000000003,14.1));
#472=CARTESIAN_POINT('Origin',(-4.90000000000002,13.6000000000003,14.1));
#473=CARTESIAN_POINT('',(-4.90000000000002,13.6000000000003,14.1));
#474=CARTESIAN_POINT('',(-4.90000000000002,13.6000000000003,14.1));
#475=CARTESIAN_POINT('',(-4.90000000000002,15.7000000000003,14.1));
#476=CARTESIAN_POINT('',(-4.90000000000002,15.7000000000003,14.1));
#477=CARTESIAN_POINT('',(-4.90000000000002,13.6000000000003,14.1));
#478=CARTESIAN_POINT('Origin',(-4.90000000000002,13.6000000000003,11.9));
#479=CARTESIAN_POINT('',(-7.10000000000002,13.6000000000003,11.9));
#480=CARTESIAN_POINT('Origin',(-4.90000000000002,13.6000000000003,11.9));
#481=CARTESIAN_POINT('',(-7.10000000000002,15.7000000000003,11.9));
#482=CARTESIAN_POINT('Origin',(-4.90000000000002,15.7000000000003,11.9));
#483=CARTESIAN_POINT('',(-7.10000000000002,13.6000000000003,11.9));
#484=CARTESIAN_POINT('Origin',(-7.10000000000001,13.6000000000003,2.09999999999999));
#485=CARTESIAN_POINT('',(-7.10000000000001,13.6000000000003,2.09999999999999));
#486=CARTESIAN_POINT('',(-7.10000000000001,13.6000000000003,2.09999999999999));
#487=CARTESIAN_POINT('',(-7.10000000000002,15.7000000000003,2.09999999999999));
#488=CARTESIAN_POINT('',(-7.10000000000002,15.7000000000003,2.09999999999999));
#489=CARTESIAN_POINT('',(-7.10000000000001,13.6000000000003,2.09999999999999));
#490=CARTESIAN_POINT('Origin',(-4.90000000000002,13.6000000000003,2.09999999999999));
#491=CARTESIAN_POINT('',(-4.90000000000002,13.6000000000003,-0.100000000000007));
#492=CARTESIAN_POINT('Origin',(-4.90000000000002,13.6000000000003,2.09999999999999));
#493=CARTESIAN_POINT('',(-4.90000000000002,15.7000000000003,-0.100000000000007));
#494=CARTESIAN_POINT('Origin',(-4.90000000000002,15.7000000000003,2.09999999999999));
#495=CARTESIAN_POINT('',(-4.90000000000002,13.6000000000003,-0.100000000000007));
#496=CARTESIAN_POINT('Origin',(4.89999999999998,13.6000000000003,-0.100000000000011));
#497=CARTESIAN_POINT('',(4.89999999999998,13.6000000000003,-0.10000000000001));
#498=CARTESIAN_POINT('',(4.89999999999998,13.6000000000003,-0.100000000000011));
#499=CARTESIAN_POINT('',(4.89999999999998,15.7000000000003,-0.10000000000001));
#500=CARTESIAN_POINT('',(4.89999999999998,15.7000000000003,-0.100000000000011));
#501=CARTESIAN_POINT('',(4.89999999999998,13.6000000000003,-0.10000000000001));
#502=CARTESIAN_POINT('Origin',(4.89999999999998,13.6000000000003,2.09999999999999));
#503=CARTESIAN_POINT('Origin',(4.89999999999998,13.6000000000003,2.09999999999999));
#504=CARTESIAN_POINT('Origin',(4.89999999999998,15.7000000000003,2.09999999999999));
#505=CARTESIAN_POINT('Origin',(-2.30926389122044E-14,15.7000000000003,6.99999999999999));
#506=CARTESIAN_POINT('Origin',(-1.64313007644534E-14,13.6000000000003,6.99999999999999));
#507=UNCERTAINTY_MEASURE_WITH_UNIT(LENGTH_MEASURE(0.01),#511,
'DISTANCE_ACCURACY_VALUE',
'Maximum model space distance between geometric entities at asserted c
onnectivities');
#508=UNCERTAINTY_MEASURE_WITH_UNIT(LENGTH_MEASURE(0.01),#511,
'DISTANCE_ACCURACY_VALUE',
'Maximum model space distance between geometric entities at asserted c
onnectivities');
#509=(
GEOMETRIC_REPRESENTATION_CONTEXT(3)
GLOBAL_UNCERTAINTY_ASSIGNED_CONTEXT((#507))
GLOBAL_UNIT_ASSIGNED_CONTEXT((#511,#513,#514))
REPRESENTATION_CONTEXT('','3D')
);
#510=(
GEOMETRIC_REPRESENTATION_CONTEXT(3)
GLOBAL_UNCERTAINTY_ASSIGNED_CONTEXT((#508))
GLOBAL_UNIT_ASSIGNED_CONTEXT((#511,#513,#514))
REPRESENTATION_CONTEXT('','3D')
);
#511=(
LENGTH_UNIT()
NAMED_UNIT(*)
SI_UNIT(.MILLI.,.METRE.)
);
#512=(
LENGTH_UNIT()
NAMED_UNIT(*)
SI_UNIT($,.METRE.)
);
#513=(
NAMED_UNIT(*)
PLANE_ANGLE_UNIT()
SI_UNIT($,.RADIAN.)
);
#514=(
NAMED_UNIT(*)
SI_UNIT($,.STERADIAN.)
SOLID_ANGLE_UNIT()
);
#515=SHAPE_DEFINITION_REPRESENTATION(#516,#517);
#516=PRODUCT_DEFINITION_SHAPE('',$,#519);
#517=SHAPE_REPRESENTATION('',(#311),#509);
#518=PRODUCT_DEFINITION_CONTEXT('part definition',#523,'design');
#519=PRODUCT_DEFINITION('2026-08-29-11-09-29-438','(Unsaved)',#520,#518);
#520=PRODUCT_DEFINITION_FORMATION('',$,#525);
#521=PRODUCT_RELATED_PRODUCT_CATEGORY('(Unsaved)','(Unsaved)',(#525));
#522=APPLICATION_PROTOCOL_DEFINITION('international standard',
'automotive_design',2009,#523);
#523=APPLICATION_CONTEXT(
'Core Data for Automotive Mechanical Design Process');
#524=PRODUCT_CONTEXT('part definition',#523,'mechanical');
#525=PRODUCT('2026-08-29-11-09-29-438','(Unsaved)',$,(#524));
#526=PRESENTATION_STYLE_ASSIGNMENT((#527));
#527=SURFACE_STYLE_USAGE(.BOTH.,#528);
#528=SURFACE_SIDE_STYLE('',(#529));
#529=SURFACE_STYLE_FILL_AREA(#530);
#530=FILL_AREA_STYLE('Steel - Satin',(#531));
#531=FILL_AREA_STYLE_COLOUR('Steel - Satin',#532);
#532=COLOUR_RGB('Steel - Satin',0.627450980392157,0.627450980392157,0.627450980392157);
ENDSEC;
END-ISO-10303-21;
