ISO-10303-21;
HEADER;
/* Generated by software containing ST-Developer
 * from STEP Tools, Inc. (www.steptools.com) 
 */

FILE_DESCRIPTION(
/* description */ (''),
/* implementation_level */ '2;1');

FILE_NAME(
/* name */ 'electronics-housing-increase-brightness-button_v1.0.step',
/* time_stamp */ '2026-08-29T11:09:30-05:00',
/* author */ (''),
/* organization */ (''),
/* preprocessor_version */ 'ST-DEVELOPER v20.1',
/* originating_system */ 'Autodesk Translation Framework v15.8.0.0',
/* authorisation */ '');

FILE_SCHEMA (('AUTOMOTIVE_DESIGN { 1 0 10303 214 3 1 1 }'));
ENDSEC;

DATA;
#10=MECHANICAL_DESIGN_GEOMETRIC_PRESENTATION_REPRESENTATION('',(#13),#774);
#11=SHAPE_REPRESENTATION_RELATIONSHIP('SRR','None',#781,#12);
#12=ADVANCED_BREP_SHAPE_REPRESENTATION('',(#14),#773);
#13=STYLED_ITEM('',(#790),#14);
#14=MANIFOLD_SOLID_BREP('Body1',#466);
#15=FACE_BOUND('',#86,.T.);
#16=FACE_BOUND('',#88,.T.);
#17=PLANE('',#483);
#18=PLANE('',#484);
#19=PLANE('',#485);
#20=PLANE('',#486);
#21=PLANE('',#487);
#22=PLANE('',#488);
#23=PLANE('',#489);
#24=PLANE('',#490);
#25=PLANE('',#491);
#26=PLANE('',#492);
#27=PLANE('',#493);
#28=PLANE('',#494);
#29=PLANE('',#495);
#30=PLANE('',#496);
#31=PLANE('',#497);
#32=PLANE('',#501);
#33=PLANE('',#505);
#34=PLANE('',#509);
#35=PLANE('',#513);
#36=PLANE('',#514);
#37=FACE_OUTER_BOUND('',#62,.T.);
#38=FACE_OUTER_BOUND('',#63,.T.);
#39=FACE_OUTER_BOUND('',#64,.T.);
#40=FACE_OUTER_BOUND('',#65,.T.);
#41=FACE_OUTER_BOUND('',#66,.T.);
#42=FACE_OUTER_BOUND('',#67,.T.);
#43=FACE_OUTER_BOUND('',#68,.T.);
#44=FACE_OUTER_BOUND('',#69,.T.);
#45=FACE_OUTER_BOUND('',#70,.T.);
#46=FACE_OUTER_BOUND('',#71,.T.);
#47=FACE_OUTER_BOUND('',#72,.T.);
#48=FACE_OUTER_BOUND('',#73,.T.);
#49=FACE_OUTER_BOUND('',#74,.T.);
#50=FACE_OUTER_BOUND('',#75,.T.);
#51=FACE_OUTER_BOUND('',#76,.T.);
#52=FACE_OUTER_BOUND('',#77,.T.);
#53=FACE_OUTER_BOUND('',#78,.T.);
#54=FACE_OUTER_BOUND('',#79,.T.);
#55=FACE_OUTER_BOUND('',#80,.T.);
#56=FACE_OUTER_BOUND('',#81,.T.);
#57=FACE_OUTER_BOUND('',#82,.T.);
#58=FACE_OUTER_BOUND('',#83,.T.);
#59=FACE_OUTER_BOUND('',#84,.T.);
#60=FACE_OUTER_BOUND('',#85,.T.);
#61=FACE_OUTER_BOUND('',#87,.T.);
#62=EDGE_LOOP('',(#310,#311,#312,#313));
#63=EDGE_LOOP('',(#314));
#64=EDGE_LOOP('',(#315,#316,#317,#318));
#65=EDGE_LOOP('',(#319,#320,#321,#322));
#66=EDGE_LOOP('',(#323,#324,#325,#326));
#67=EDGE_LOOP('',(#327,#328,#329,#330));
#68=EDGE_LOOP('',(#331,#332,#333,#334));
#69=EDGE_LOOP('',(#335,#336,#337,#338));
#70=EDGE_LOOP('',(#339,#340,#341,#342));
#71=EDGE_LOOP('',(#343,#344,#345,#346));
#72=EDGE_LOOP('',(#347,#348,#349,#350));
#73=EDGE_LOOP('',(#351,#352,#353,#354));
#74=EDGE_LOOP('',(#355,#356,#357,#358));
#75=EDGE_LOOP('',(#359,#360,#361,#362));
#76=EDGE_LOOP('',(#363,#364,#365,#366,#367,#368,#369,#370,#371,#372,#373,
#374));
#77=EDGE_LOOP('',(#375,#376,#377,#378));
#78=EDGE_LOOP('',(#379,#380,#381,#382));
#79=EDGE_LOOP('',(#383,#384,#385,#386));
#80=EDGE_LOOP('',(#387,#388,#389,#390));
#81=EDGE_LOOP('',(#391,#392,#393,#394));
#82=EDGE_LOOP('',(#395,#396,#397,#398));
#83=EDGE_LOOP('',(#399,#400,#401,#402));
#84=EDGE_LOOP('',(#403,#404,#405,#406));
#85=EDGE_LOOP('',(#407,#408,#409,#410,#411,#412,#413,#414));
#86=EDGE_LOOP('',(#415,#416,#417,#418,#419,#420,#421,#422,#423,#424,#425,
#426));
#87=EDGE_LOOP('',(#427,#428,#429,#430,#431,#432,#433,#434));
#88=EDGE_LOOP('',(#435));
#89=LINE('',#645,#142);
#90=LINE('',#651,#143);
#91=LINE('',#653,#144);
#92=LINE('',#655,#145);
#93=LINE('',#656,#146);
#94=LINE('',#659,#147);
#95=LINE('',#661,#148);
#96=LINE('',#662,#149);
#97=LINE('',#665,#150);
#98=LINE('',#667,#151);
#99=LINE('',#668,#152);
#100=LINE('',#671,#153);
#101=LINE('',#673,#154);
#102=LINE('',#674,#155);
#103=LINE('',#677,#156);
#104=LINE('',#679,#157);
#105=LINE('',#680,#158);
#106=LINE('',#683,#159);
#107=LINE('',#685,#160);
#108=LINE('',#686,#161);
#109=LINE('',#689,#162);
#110=LINE('',#691,#163);
#111=LINE('',#692,#164);
#112=LINE('',#695,#165);
#113=LINE('',#697,#166);
#114=LINE('',#698,#167);
#115=LINE('',#701,#168);
#116=LINE('',#703,#169);
#117=LINE('',#704,#170);
#118=LINE('',#707,#171);
#119=LINE('',#709,#172);
#120=LINE('',#710,#173);
#121=LINE('',#713,#174);
#122=LINE('',#715,#175);
#123=LINE('',#716,#176);
#124=LINE('',#718,#177);
#125=LINE('',#719,#178);
#126=LINE('',#724,#179);
#127=LINE('',#726,#180);
#128=LINE('',#728,#181);
#129=LINE('',#729,#182);
#130=LINE('',#735,#183);
#131=LINE('',#738,#184);
#132=LINE('',#740,#185);
#133=LINE('',#741,#186);
#134=LINE('',#747,#187);
#135=LINE('',#750,#188);
#136=LINE('',#752,#189);
#137=LINE('',#753,#190);
#138=LINE('',#759,#191);
#139=LINE('',#762,#192);
#140=LINE('',#764,#193);
#141=LINE('',#765,#194);
#142=VECTOR('',#521,2.);
#143=VECTOR('',#528,10.);
#144=VECTOR('',#529,10.);
#145=VECTOR('',#530,10.);
#146=VECTOR('',#531,10.);
#147=VECTOR('',#534,10.);
#148=VECTOR('',#535,10.);
#149=VECTOR('',#536,10.);
#150=VECTOR('',#539,10.);
#151=VECTOR('',#540,10.);
#152=VECTOR('',#541,10.);
#153=VECTOR('',#544,10.);
#154=VECTOR('',#545,10.);
#155=VECTOR('',#546,10.);
#156=VECTOR('',#549,10.);
#157=VECTOR('',#550,10.);
#158=VECTOR('',#551,10.);
#159=VECTOR('',#554,10.);
#160=VECTOR('',#555,10.);
#161=VECTOR('',#556,10.);
#162=VECTOR('',#559,10.);
#163=VECTOR('',#560,10.);
#164=VECTOR('',#561,10.);
#165=VECTOR('',#564,10.);
#166=VECTOR('',#565,10.);
#167=VECTOR('',#566,10.);
#168=VECTOR('',#569,10.);
#169=VECTOR('',#570,10.);
#170=VECTOR('',#571,10.);
#171=VECTOR('',#574,10.);
#172=VECTOR('',#575,10.);
#173=VECTOR('',#576,10.);
#174=VECTOR('',#579,10.);
#175=VECTOR('',#580,10.);
#176=VECTOR('',#581,10.);
#177=VECTOR('',#584,10.);
#178=VECTOR('',#585,10.);
#179=VECTOR('',#590,10.);
#180=VECTOR('',#591,10.);
#181=VECTOR('',#592,10.);
#182=VECTOR('',#593,10.);
#183=VECTOR('',#600,10.);
#184=VECTOR('',#603,10.);
#185=VECTOR('',#604,10.);
#186=VECTOR('',#605,10.);
#187=VECTOR('',#612,10.);
#188=VECTOR('',#615,10.);
#189=VECTOR('',#616,10.);
#190=VECTOR('',#617,10.);
#191=VECTOR('',#624,10.);
#192=VECTOR('',#627,10.);
#193=VECTOR('',#628,10.);
#194=VECTOR('',#629,10.);
#195=CIRCLE('',#481,2.);
#196=CIRCLE('',#482,2.);
#197=CIRCLE('',#499,2.2);
#198=CIRCLE('',#500,2.2);
#199=CIRCLE('',#503,2.2);
#200=CIRCLE('',#504,2.2);
#201=CIRCLE('',#507,2.2);
#202=CIRCLE('',#508,2.2);
#203=CIRCLE('',#511,2.2);
#204=CIRCLE('',#512,2.2);
#205=VERTEX_POINT('',#642);
#206=VERTEX_POINT('',#644);
#207=VERTEX_POINT('',#649);
#208=VERTEX_POINT('',#650);
#209=VERTEX_POINT('',#652);
#210=VERTEX_POINT('',#654);
#211=VERTEX_POINT('',#658);
#212=VERTEX_POINT('',#660);
#213=VERTEX_POINT('',#664);
#214=VERTEX_POINT('',#666);
#215=VERTEX_POINT('',#670);
#216=VERTEX_POINT('',#672);
#217=VERTEX_POINT('',#676);
#218=VERTEX_POINT('',#678);
#219=VERTEX_POINT('',#682);
#220=VERTEX_POINT('',#684);
#221=VERTEX_POINT('',#688);
#222=VERTEX_POINT('',#690);
#223=VERTEX_POINT('',#694);
#224=VERTEX_POINT('',#696);
#225=VERTEX_POINT('',#700);
#226=VERTEX_POINT('',#702);
#227=VERTEX_POINT('',#706);
#228=VERTEX_POINT('',#708);
#229=VERTEX_POINT('',#712);
#230=VERTEX_POINT('',#714);
#231=VERTEX_POINT('',#722);
#232=VERTEX_POINT('',#723);
#233=VERTEX_POINT('',#725);
#234=VERTEX_POINT('',#727);
#235=VERTEX_POINT('',#731);
#236=VERTEX_POINT('',#733);
#237=VERTEX_POINT('',#737);
#238=VERTEX_POINT('',#739);
#239=VERTEX_POINT('',#743);
#240=VERTEX_POINT('',#745);
#241=VERTEX_POINT('',#749);
#242=VERTEX_POINT('',#751);
#243=VERTEX_POINT('',#755);
#244=VERTEX_POINT('',#757);
#245=VERTEX_POINT('',#761);
#246=VERTEX_POINT('',#763);
#247=EDGE_CURVE('',#205,#205,#195,.T.);
#248=EDGE_CURVE('',#205,#206,#89,.T.);
#249=EDGE_CURVE('',#206,#206,#196,.T.);
#250=EDGE_CURVE('',#207,#208,#90,.T.);
#251=EDGE_CURVE('',#207,#209,#91,.T.);
#252=EDGE_CURVE('',#209,#210,#92,.T.);
#253=EDGE_CURVE('',#208,#210,#93,.T.);
#254=EDGE_CURVE('',#211,#207,#94,.T.);
#255=EDGE_CURVE('',#211,#212,#95,.T.);
#256=EDGE_CURVE('',#212,#209,#96,.T.);
#257=EDGE_CURVE('',#213,#211,#97,.T.);
#258=EDGE_CURVE('',#213,#214,#98,.T.);
#259=EDGE_CURVE('',#214,#212,#99,.T.);
#260=EDGE_CURVE('',#215,#213,#100,.T.);
#261=EDGE_CURVE('',#215,#216,#101,.T.);
#262=EDGE_CURVE('',#216,#214,#102,.T.);
#263=EDGE_CURVE('',#217,#215,#103,.T.);
#264=EDGE_CURVE('',#217,#218,#104,.T.);
#265=EDGE_CURVE('',#218,#216,#105,.T.);
#266=EDGE_CURVE('',#219,#217,#106,.T.);
#267=EDGE_CURVE('',#219,#220,#107,.T.);
#268=EDGE_CURVE('',#220,#218,#108,.T.);
#269=EDGE_CURVE('',#221,#219,#109,.T.);
#270=EDGE_CURVE('',#221,#222,#110,.T.);
#271=EDGE_CURVE('',#222,#220,#111,.T.);
#272=EDGE_CURVE('',#223,#221,#112,.T.);
#273=EDGE_CURVE('',#223,#224,#113,.T.);
#274=EDGE_CURVE('',#224,#222,#114,.T.);
#275=EDGE_CURVE('',#225,#223,#115,.T.);
#276=EDGE_CURVE('',#225,#226,#116,.T.);
#277=EDGE_CURVE('',#226,#224,#117,.T.);
#278=EDGE_CURVE('',#227,#225,#118,.T.);
#279=EDGE_CURVE('',#227,#228,#119,.T.);
#280=EDGE_CURVE('',#228,#226,#120,.T.);
#281=EDGE_CURVE('',#229,#227,#121,.T.);
#282=EDGE_CURVE('',#229,#230,#122,.T.);
#283=EDGE_CURVE('',#230,#228,#123,.T.);
#284=EDGE_CURVE('',#208,#229,#124,.T.);
#285=EDGE_CURVE('',#210,#230,#125,.T.);
#286=EDGE_CURVE('',#231,#232,#126,.T.);
#287=EDGE_CURVE('',#232,#233,#127,.T.);
#288=EDGE_CURVE('',#234,#233,#128,.T.);
#289=EDGE_CURVE('',#231,#234,#129,.T.);
#290=EDGE_CURVE('',#235,#231,#197,.T.);
#291=EDGE_CURVE('',#236,#234,#198,.T.);
#292=EDGE_CURVE('',#235,#236,#130,.T.);
#293=EDGE_CURVE('',#237,#235,#131,.T.);
#294=EDGE_CURVE('',#238,#236,#132,.T.);
#295=EDGE_CURVE('',#237,#238,#133,.T.);
#296=EDGE_CURVE('',#239,#237,#199,.T.);
#297=EDGE_CURVE('',#240,#238,#200,.T.);
#298=EDGE_CURVE('',#239,#240,#134,.T.);
#299=EDGE_CURVE('',#241,#239,#135,.T.);
#300=EDGE_CURVE('',#242,#240,#136,.T.);
#301=EDGE_CURVE('',#241,#242,#137,.T.);
#302=EDGE_CURVE('',#243,#241,#201,.T.);
#303=EDGE_CURVE('',#244,#242,#202,.T.);
#304=EDGE_CURVE('',#243,#244,#138,.T.);
#305=EDGE_CURVE('',#245,#243,#139,.T.);
#306=EDGE_CURVE('',#246,#244,#140,.T.);
#307=EDGE_CURVE('',#245,#246,#141,.T.);
#308=EDGE_CURVE('',#232,#245,#203,.T.);
#309=EDGE_CURVE('',#233,#246,#204,.T.);
#310=ORIENTED_EDGE('',*,*,#247,.F.);
#311=ORIENTED_EDGE('',*,*,#248,.T.);
#312=ORIENTED_EDGE('',*,*,#249,.T.);
#313=ORIENTED_EDGE('',*,*,#248,.F.);
#314=ORIENTED_EDGE('',*,*,#249,.F.);
#315=ORIENTED_EDGE('',*,*,#250,.F.);
#316=ORIENTED_EDGE('',*,*,#251,.T.);
#317=ORIENTED_EDGE('',*,*,#252,.T.);
#318=ORIENTED_EDGE('',*,*,#253,.F.);
#319=ORIENTED_EDGE('',*,*,#254,.F.);
#320=ORIENTED_EDGE('',*,*,#255,.T.);
#321=ORIENTED_EDGE('',*,*,#256,.T.);
#322=ORIENTED_EDGE('',*,*,#251,.F.);
#323=ORIENTED_EDGE('',*,*,#257,.F.);
#324=ORIENTED_EDGE('',*,*,#258,.T.);
#325=ORIENTED_EDGE('',*,*,#259,.T.);
#326=ORIENTED_EDGE('',*,*,#255,.F.);
#327=ORIENTED_EDGE('',*,*,#260,.F.);
#328=ORIENTED_EDGE('',*,*,#261,.T.);
#329=ORIENTED_EDGE('',*,*,#262,.T.);
#330=ORIENTED_EDGE('',*,*,#258,.F.);
#331=ORIENTED_EDGE('',*,*,#263,.F.);
#332=ORIENTED_EDGE('',*,*,#264,.T.);
#333=ORIENTED_EDGE('',*,*,#265,.T.);
#334=ORIENTED_EDGE('',*,*,#261,.F.);
#335=ORIENTED_EDGE('',*,*,#266,.F.);
#336=ORIENTED_EDGE('',*,*,#267,.T.);
#337=ORIENTED_EDGE('',*,*,#268,.T.);
#338=ORIENTED_EDGE('',*,*,#264,.F.);
#339=ORIENTED_EDGE('',*,*,#269,.F.);
#340=ORIENTED_EDGE('',*,*,#270,.T.);
#341=ORIENTED_EDGE('',*,*,#271,.T.);
#342=ORIENTED_EDGE('',*,*,#267,.F.);
#343=ORIENTED_EDGE('',*,*,#272,.F.);
#344=ORIENTED_EDGE('',*,*,#273,.T.);
#345=ORIENTED_EDGE('',*,*,#274,.T.);
#346=ORIENTED_EDGE('',*,*,#270,.F.);
#347=ORIENTED_EDGE('',*,*,#275,.F.);
#348=ORIENTED_EDGE('',*,*,#276,.T.);
#349=ORIENTED_EDGE('',*,*,#277,.T.);
#350=ORIENTED_EDGE('',*,*,#273,.F.);
#351=ORIENTED_EDGE('',*,*,#278,.F.);
#352=ORIENTED_EDGE('',*,*,#279,.T.);
#353=ORIENTED_EDGE('',*,*,#280,.T.);
#354=ORIENTED_EDGE('',*,*,#276,.F.);
#355=ORIENTED_EDGE('',*,*,#281,.F.);
#356=ORIENTED_EDGE('',*,*,#282,.T.);
#357=ORIENTED_EDGE('',*,*,#283,.T.);
#358=ORIENTED_EDGE('',*,*,#279,.F.);
#359=ORIENTED_EDGE('',*,*,#284,.F.);
#360=ORIENTED_EDGE('',*,*,#253,.T.);
#361=ORIENTED_EDGE('',*,*,#285,.T.);
#362=ORIENTED_EDGE('',*,*,#282,.F.);
#363=ORIENTED_EDGE('',*,*,#285,.F.);
#364=ORIENTED_EDGE('',*,*,#252,.F.);
#365=ORIENTED_EDGE('',*,*,#256,.F.);
#366=ORIENTED_EDGE('',*,*,#259,.F.);
#367=ORIENTED_EDGE('',*,*,#262,.F.);
#368=ORIENTED_EDGE('',*,*,#265,.F.);
#369=ORIENTED_EDGE('',*,*,#268,.F.);
#370=ORIENTED_EDGE('',*,*,#271,.F.);
#371=ORIENTED_EDGE('',*,*,#274,.F.);
#372=ORIENTED_EDGE('',*,*,#277,.F.);
#373=ORIENTED_EDGE('',*,*,#280,.F.);
#374=ORIENTED_EDGE('',*,*,#283,.F.);
#375=ORIENTED_EDGE('',*,*,#286,.T.);
#376=ORIENTED_EDGE('',*,*,#287,.T.);
#377=ORIENTED_EDGE('',*,*,#288,.F.);
#378=ORIENTED_EDGE('',*,*,#289,.F.);
#379=ORIENTED_EDGE('',*,*,#290,.T.);
#380=ORIENTED_EDGE('',*,*,#289,.T.);
#381=ORIENTED_EDGE('',*,*,#291,.F.);
#382=ORIENTED_EDGE('',*,*,#292,.F.);
#383=ORIENTED_EDGE('',*,*,#293,.T.);
#384=ORIENTED_EDGE('',*,*,#292,.T.);
#385=ORIENTED_EDGE('',*,*,#294,.F.);
#386=ORIENTED_EDGE('',*,*,#295,.F.);
#387=ORIENTED_EDGE('',*,*,#296,.T.);
#388=ORIENTED_EDGE('',*,*,#295,.T.);
#389=ORIENTED_EDGE('',*,*,#297,.F.);
#390=ORIENTED_EDGE('',*,*,#298,.F.);
#391=ORIENTED_EDGE('',*,*,#299,.T.);
#392=ORIENTED_EDGE('',*,*,#298,.T.);
#393=ORIENTED_EDGE('',*,*,#300,.F.);
#394=ORIENTED_EDGE('',*,*,#301,.F.);
#395=ORIENTED_EDGE('',*,*,#302,.T.);
#396=ORIENTED_EDGE('',*,*,#301,.T.);
#397=ORIENTED_EDGE('',*,*,#303,.F.);
#398=ORIENTED_EDGE('',*,*,#304,.F.);
#399=ORIENTED_EDGE('',*,*,#305,.T.);
#400=ORIENTED_EDGE('',*,*,#304,.T.);
#401=ORIENTED_EDGE('',*,*,#306,.F.);
#402=ORIENTED_EDGE('',*,*,#307,.F.);
#403=ORIENTED_EDGE('',*,*,#308,.T.);
#404=ORIENTED_EDGE('',*,*,#307,.T.);
#405=ORIENTED_EDGE('',*,*,#309,.F.);
#406=ORIENTED_EDGE('',*,*,#287,.F.);
#407=ORIENTED_EDGE('',*,*,#309,.T.);
#408=ORIENTED_EDGE('',*,*,#306,.T.);
#409=ORIENTED_EDGE('',*,*,#303,.T.);
#410=ORIENTED_EDGE('',*,*,#300,.T.);
#411=ORIENTED_EDGE('',*,*,#297,.T.);
#412=ORIENTED_EDGE('',*,*,#294,.T.);
#413=ORIENTED_EDGE('',*,*,#291,.T.);
#414=ORIENTED_EDGE('',*,*,#288,.T.);
#415=ORIENTED_EDGE('',*,*,#250,.T.);
#416=ORIENTED_EDGE('',*,*,#284,.T.);
#417=ORIENTED_EDGE('',*,*,#281,.T.);
#418=ORIENTED_EDGE('',*,*,#278,.T.);
#419=ORIENTED_EDGE('',*,*,#275,.T.);
#420=ORIENTED_EDGE('',*,*,#272,.T.);
#421=ORIENTED_EDGE('',*,*,#269,.T.);
#422=ORIENTED_EDGE('',*,*,#266,.T.);
#423=ORIENTED_EDGE('',*,*,#263,.T.);
#424=ORIENTED_EDGE('',*,*,#260,.T.);
#425=ORIENTED_EDGE('',*,*,#257,.T.);
#426=ORIENTED_EDGE('',*,*,#254,.T.);
#427=ORIENTED_EDGE('',*,*,#308,.F.);
#428=ORIENTED_EDGE('',*,*,#286,.F.);
#429=ORIENTED_EDGE('',*,*,#290,.F.);
#430=ORIENTED_EDGE('',*,*,#293,.F.);
#431=ORIENTED_EDGE('',*,*,#296,.F.);
#432=ORIENTED_EDGE('',*,*,#299,.F.);
#433=ORIENTED_EDGE('',*,*,#302,.F.);
#434=ORIENTED_EDGE('',*,*,#305,.F.);
#435=ORIENTED_EDGE('',*,*,#247,.T.);
#436=CYLINDRICAL_SURFACE('',#480,2.);
#437=CYLINDRICAL_SURFACE('',#498,2.2);
#438=CYLINDRICAL_SURFACE('',#502,2.2);
#439=CYLINDRICAL_SURFACE('',#506,2.2);
#440=CYLINDRICAL_SURFACE('',#510,2.2);
#441=ADVANCED_FACE('',(#37),#436,.F.);
#442=ADVANCED_FACE('',(#38),#17,.T.);
#443=ADVANCED_FACE('',(#39),#18,.F.);
#444=ADVANCED_FACE('',(#40),#19,.F.);
#445=ADVANCED_FACE('',(#41),#20,.F.);
#446=ADVANCED_FACE('',(#42),#21,.F.);
#447=ADVANCED_FACE('',(#43),#22,.F.);
#448=ADVANCED_FACE('',(#44),#23,.F.);
#449=ADVANCED_FACE('',(#45),#24,.F.);
#450=ADVANCED_FACE('',(#46),#25,.F.);
#451=ADVANCED_FACE('',(#47),#26,.F.);
#452=ADVANCED_FACE('',(#48),#27,.F.);
#453=ADVANCED_FACE('',(#49),#28,.F.);
#454=ADVANCED_FACE('',(#50),#29,.F.);
#455=ADVANCED_FACE('',(#51),#30,.F.);
#456=ADVANCED_FACE('',(#52),#31,.T.);
#457=ADVANCED_FACE('',(#53),#437,.T.);
#458=ADVANCED_FACE('',(#54),#32,.T.);
#459=ADVANCED_FACE('',(#55),#438,.T.);
#460=ADVANCED_FACE('',(#56),#33,.T.);
#461=ADVANCED_FACE('',(#57),#439,.T.);
#462=ADVANCED_FACE('',(#58),#34,.T.);
#463=ADVANCED_FACE('',(#59),#440,.T.);
#464=ADVANCED_FACE('',(#60,#15),#35,.T.);
#465=ADVANCED_FACE('',(#61,#16),#36,.F.);
#466=CLOSED_SHELL('',(#441,#442,#443,#444,#445,#446,#447,#448,#449,#450,
#451,#452,#453,#454,#455,#456,#457,#458,#459,#460,#461,#462,#463,#464,#465));
#467=DERIVED_UNIT_ELEMENT(#469,1.);
#468=DERIVED_UNIT_ELEMENT(#776,-3.);
#469=(
MASS_UNIT()
NAMED_UNIT(*)
SI_UNIT(.KILO.,.GRAM.)
);
#470=DERIVED_UNIT((#467,#468));
#471=MEASURE_REPRESENTATION_ITEM('density measure',
POSITIVE_RATIO_MEASURE(7850.),#470);
#472=PROPERTY_DEFINITION_REPRESENTATION(#477,#474);
#473=PROPERTY_DEFINITION_REPRESENTATION(#478,#475);
#474=REPRESENTATION('material name',(#476),#773);
#475=REPRESENTATION('density',(#471),#773);
#476=DESCRIPTIVE_REPRESENTATION_ITEM('Steel','Steel');
#477=PROPERTY_DEFINITION('material property','material name',#783);
#478=PROPERTY_DEFINITION('material property','density of part',#783);
#479=AXIS2_PLACEMENT_3D('',#640,#515,#516);
#480=AXIS2_PLACEMENT_3D('',#641,#517,#518);
#481=AXIS2_PLACEMENT_3D('',#643,#519,#520);
#482=AXIS2_PLACEMENT_3D('',#646,#522,#523);
#483=AXIS2_PLACEMENT_3D('',#647,#524,#525);
#484=AXIS2_PLACEMENT_3D('',#648,#526,#527);
#485=AXIS2_PLACEMENT_3D('',#657,#532,#533);
#486=AXIS2_PLACEMENT_3D('',#663,#537,#538);
#487=AXIS2_PLACEMENT_3D('',#669,#542,#543);
#488=AXIS2_PLACEMENT_3D('',#675,#547,#548);
#489=AXIS2_PLACEMENT_3D('',#681,#552,#553);
#490=AXIS2_PLACEMENT_3D('',#687,#557,#558);
#491=AXIS2_PLACEMENT_3D('',#693,#562,#563);
#492=AXIS2_PLACEMENT_3D('',#699,#567,#568);
#493=AXIS2_PLACEMENT_3D('',#705,#572,#573);
#494=AXIS2_PLACEMENT_3D('',#711,#577,#578);
#495=AXIS2_PLACEMENT_3D('',#717,#582,#583);
#496=AXIS2_PLACEMENT_3D('',#720,#586,#587);
#497=AXIS2_PLACEMENT_3D('',#721,#588,#589);
#498=AXIS2_PLACEMENT_3D('',#730,#594,#595);
#499=AXIS2_PLACEMENT_3D('',#732,#596,#597);
#500=AXIS2_PLACEMENT_3D('',#734,#598,#599);
#501=AXIS2_PLACEMENT_3D('',#736,#601,#602);
#502=AXIS2_PLACEMENT_3D('',#742,#606,#607);
#503=AXIS2_PLACEMENT_3D('',#744,#608,#609);
#504=AXIS2_PLACEMENT_3D('',#746,#610,#611);
#505=AXIS2_PLACEMENT_3D('',#748,#613,#614);
#506=AXIS2_PLACEMENT_3D('',#754,#618,#619);
#507=AXIS2_PLACEMENT_3D('',#756,#620,#621);
#508=AXIS2_PLACEMENT_3D('',#758,#622,#623);
#509=AXIS2_PLACEMENT_3D('',#760,#625,#626);
#510=AXIS2_PLACEMENT_3D('',#766,#630,#631);
#511=AXIS2_PLACEMENT_3D('',#767,#632,#633);
#512=AXIS2_PLACEMENT_3D('',#768,#634,#635);
#513=AXIS2_PLACEMENT_3D('',#769,#636,#637);
#514=AXIS2_PLACEMENT_3D('',#770,#638,#639);
#515=DIRECTION('axis',(0.,0.,1.));
#516=DIRECTION('refdir',(1.,0.,0.));
#517=DIRECTION('center_axis',(-3.33066907387547E-15,1.,0.));
#518=DIRECTION('ref_axis',(1.,3.33066907387547E-15,0.));
#519=DIRECTION('center_axis',(-3.33066907387548E-15,1.,1.45968590033835E-46));
#520=DIRECTION('ref_axis',(1.,3.33066907387547E-15,0.));
#521=DIRECTION('',(-3.33066907387547E-15,1.,0.));
#522=DIRECTION('center_axis',(-3.33066907387548E-15,1.,3.37552364453244E-47));
#523=DIRECTION('ref_axis',(1.,3.33066907387548E-15,0.));
#524=DIRECTION('center_axis',(3.33066907387548E-15,-1.,-3.37552364453244E-47));
#525=DIRECTION('ref_axis',(1.,3.33066907387548E-15,0.));
#526=DIRECTION('center_axis',(2.22961097810436E-140,7.34874116142515E-155,
-1.));
#527=DIRECTION('ref_axis',(1.,3.33066907387548E-15,2.22961097810436E-140));
#528=DIRECTION('',(1.,3.33066907387548E-15,2.22961097810436E-140));
#529=DIRECTION('',(3.29597460435593E-15,-1.,0.));
#530=DIRECTION('',(1.,3.33066907387548E-15,2.22961097810436E-140));
#531=DIRECTION('',(3.29597460435593E-15,-1.,0.));
#532=DIRECTION('center_axis',(-1.,-3.29597460435593E-15,5.06430279773983E-63));
#533=DIRECTION('ref_axis',(-4.86173068582902E-61,1.45968590033835E-46,-1.));
#534=DIRECTION('',(-4.86173068582902E-61,1.45968590033835E-46,-1.));
#535=DIRECTION('',(3.29597460435593E-15,-1.,0.));
#536=DIRECTION('',(-4.86173068582902E-61,1.45968590033835E-46,-1.));
#537=DIRECTION('center_axis',(0.,0.,1.));
#538=DIRECTION('ref_axis',(-1.,-3.33066907387548E-15,0.));
#539=DIRECTION('',(-1.,-3.33066907387548E-15,0.));
#540=DIRECTION('',(3.29597460435593E-15,-1.,0.));
#541=DIRECTION('',(-1.,-3.33066907387548E-15,0.));
#542=DIRECTION('center_axis',(-1.,-3.29597460435593E-15,5.06430279773983E-63));
#543=DIRECTION('ref_axis',(-4.86173068582902E-61,1.45968590033835E-46,-1.));
#544=DIRECTION('',(-4.86173068582902E-61,1.45968590033835E-46,-1.));
#545=DIRECTION('',(3.29597460435593E-15,-1.,0.));
#546=DIRECTION('',(-4.86173068582902E-61,1.45968590033835E-46,-1.));
#547=DIRECTION('center_axis',(0.,0.,1.));
#548=DIRECTION('ref_axis',(-1.,-3.33066907387548E-15,0.));
#549=DIRECTION('',(-1.,-3.33066907387548E-15,0.));
#550=DIRECTION('',(3.29597460435593E-15,-1.,0.));
#551=DIRECTION('',(-1.,-3.33066907387548E-15,0.));
#552=DIRECTION('center_axis',(1.,3.29597460435593E-15,1.38777878078145E-16));
#553=DIRECTION('ref_axis',(-1.38777878078145E-16,-4.62223186652938E-31,
1.));
#554=DIRECTION('',(-1.38777878078145E-16,-4.62223186652938E-31,1.));
#555=DIRECTION('',(3.29597460435593E-15,-1.,0.));
#556=DIRECTION('',(-1.38777878078145E-16,-4.62223186652938E-31,1.));
#557=DIRECTION('center_axis',(0.,0.,1.));
#558=DIRECTION('ref_axis',(-1.,-3.33066907387548E-15,0.));
#559=DIRECTION('',(-1.,-3.33066907387548E-15,0.));
#560=DIRECTION('',(3.29597460435593E-15,-1.,0.));
#561=DIRECTION('',(-1.,-3.33066907387548E-15,0.));
#562=DIRECTION('center_axis',(1.,3.29597460435593E-15,-5.06430279773983E-63));
#563=DIRECTION('ref_axis',(4.86173068582902E-61,-1.45968590033835E-46,1.));
#564=DIRECTION('',(4.86173068582902E-61,-1.45968590033835E-46,1.));
#565=DIRECTION('',(3.29597460435593E-15,-1.,0.));
#566=DIRECTION('',(4.86173068582902E-61,-1.45968590033835E-46,1.));
#567=DIRECTION('center_axis',(2.22961097810436E-140,7.34874116142515E-155,
-1.));
#568=DIRECTION('ref_axis',(1.,3.33066907387548E-15,2.22961097810436E-140));
#569=DIRECTION('',(1.,3.33066907387548E-15,2.22961097810436E-140));
#570=DIRECTION('',(3.29597460435593E-15,-1.,0.));
#571=DIRECTION('',(1.,3.33066907387548E-15,2.22961097810436E-140));
#572=DIRECTION('center_axis',(1.,3.29597460435593E-15,1.38777878078145E-16));
#573=DIRECTION('ref_axis',(-1.38777878078145E-16,-4.62223186652938E-31,
1.));
#574=DIRECTION('',(-1.38777878078145E-16,-4.62223186652938E-31,1.));
#575=DIRECTION('',(3.29597460435593E-15,-1.,0.));
#576=DIRECTION('',(-1.38777878078145E-16,-4.62223186652938E-31,1.));
#577=DIRECTION('center_axis',(1.4576348427141E-139,4.80432742401001E-154,
-1.));
#578=DIRECTION('ref_axis',(1.,3.33066907387548E-15,1.4576348427141E-139));
#579=DIRECTION('',(1.,3.33066907387548E-15,1.4576348427141E-139));
#580=DIRECTION('',(3.29597460435593E-15,-1.,0.));
#581=DIRECTION('',(1.,3.33066907387548E-15,1.4576348427141E-139));
#582=DIRECTION('center_axis',(-1.,-3.29597460435593E-15,5.06430279773983E-63));
#583=DIRECTION('ref_axis',(-4.86173068582902E-61,1.45968590033835E-46,-1.));
#584=DIRECTION('',(-4.86173068582902E-61,1.45968590033835E-46,-1.));
#585=DIRECTION('',(-4.86173068582902E-61,1.45968590033835E-46,-1.));
#586=DIRECTION('center_axis',(3.29597460435593E-15,-1.,0.));
#587=DIRECTION('ref_axis',(0.,0.,-1.));
#588=DIRECTION('center_axis',(-1.,-3.1720657846433E-15,2.26576127474522E-16));
#589=DIRECTION('ref_axis',(2.26576127474522E-16,8.43195712468379E-31,1.));
#590=DIRECTION('',(2.26576127474522E-16,8.43195712468379E-31,1.));
#591=DIRECTION('',(-3.1720657846433E-15,1.,0.));
#592=DIRECTION('',(2.26576127474522E-16,8.43195712468379E-31,1.));
#593=DIRECTION('',(-3.1720657846433E-15,1.,0.));
#594=DIRECTION('center_axis',(-3.1720657846433E-15,1.,0.));
#595=DIRECTION('ref_axis',(-2.52323414687535E-16,-8.00386470394695E-31,
-1.));
#596=DIRECTION('center_axis',(-3.33066907387548E-15,1.,3.64921475084588E-47));
#597=DIRECTION('ref_axis',(-2.52323414687535E-16,-8.40405793914431E-31,
-1.));
#598=DIRECTION('center_axis',(-3.33066907387548E-15,1.,3.64921475084588E-47));
#599=DIRECTION('ref_axis',(-2.52323414687535E-16,-8.40405793914431E-31,
-1.));
#600=DIRECTION('',(-3.1720657846433E-15,1.,0.));
#601=DIRECTION('center_axis',(-4.53152254949043E-16,-1.43742876315782E-30,
-1.));
#602=DIRECTION('ref_axis',(-1.,-3.33066907387548E-15,4.53152254949043E-16));
#603=DIRECTION('',(-1.,-3.33066907387548E-15,4.53152254949043E-16));
#604=DIRECTION('',(-1.,-3.33066907387548E-15,4.53152254949043E-16));
#605=DIRECTION('',(-3.1720657846433E-15,1.,0.));
#606=DIRECTION('center_axis',(-3.1720657846433E-15,1.,0.));
#607=DIRECTION('ref_axis',(1.,3.1720657846433E-15,0.));
#608=DIRECTION('center_axis',(-3.33066907387548E-15,1.,-4.86173068582902E-63));
#609=DIRECTION('ref_axis',(1.,3.33066907387548E-15,0.));
#610=DIRECTION('center_axis',(-3.33066907387548E-15,1.,-4.86173068582902E-63));
#611=DIRECTION('ref_axis',(1.,3.33066907387548E-15,0.));
#612=DIRECTION('',(-3.1720657846433E-15,1.,0.));
#613=DIRECTION('center_axis',(1.,3.1720657846433E-15,1.40436252802236E-47));
#614=DIRECTION('ref_axis',(2.94916130884688E-46,-8.85456118105217E-32,-1.));
#615=DIRECTION('',(2.94916130884688E-46,-8.85456118105217E-32,-1.));
#616=DIRECTION('',(2.94916130884688E-46,-8.85456118105217E-32,-1.));
#617=DIRECTION('',(-3.1720657846433E-15,1.,0.));
#618=DIRECTION('center_axis',(-3.1720657846433E-15,1.,0.));
#619=DIRECTION('ref_axis',(2.52323414687535E-16,8.00386470394695E-31,1.));
#620=DIRECTION('center_axis',(-3.33066907387548E-15,1.,1.36016186167892E-46));
#621=DIRECTION('ref_axis',(2.52323414687535E-16,8.40405793914431E-31,1.));
#622=DIRECTION('center_axis',(-3.33066907387548E-15,1.,1.36016186167892E-46));
#623=DIRECTION('ref_axis',(2.52323414687535E-16,8.40405793914431E-31,1.));
#624=DIRECTION('',(-3.1720657846433E-15,1.,0.));
#625=DIRECTION('center_axis',(-4.53152254949043E-16,-1.43742876315782E-30,
1.));
#626=DIRECTION('ref_axis',(1.,3.33066907387548E-15,4.53152254949043E-16));
#627=DIRECTION('',(1.,3.33066907387548E-15,4.53152254949043E-16));
#628=DIRECTION('',(1.,3.33066907387548E-15,4.53152254949043E-16));
#629=DIRECTION('',(-3.1720657846433E-15,1.,0.));
#630=DIRECTION('center_axis',(-3.1720657846433E-15,1.,0.));
#631=DIRECTION('ref_axis',(-1.,-3.1720657846433E-15,5.93201496901606E-93));
#632=DIRECTION('center_axis',(-3.33066907387548E-15,1.,-3.88938454866321E-62));
#633=DIRECTION('ref_axis',(-1.,-3.33066907387547E-15,5.93201496901606E-93));
#634=DIRECTION('center_axis',(-3.33066907387548E-15,1.,-3.88938454866321E-62));
#635=DIRECTION('ref_axis',(-1.,-3.33066907387547E-15,5.93201496901606E-93));
#636=DIRECTION('center_axis',(-3.33066907387548E-15,1.,1.45968590033835E-46));
#637=DIRECTION('ref_axis',(-1.,-3.33066907387548E-15,-1.43936142584907E-77));
#638=DIRECTION('center_axis',(-3.33066907387548E-15,1.,1.45968590033835E-46));
#639=DIRECTION('ref_axis',(-1.,-3.33066907387548E-15,-1.43936142584907E-77));
#640=CARTESIAN_POINT('',(0.,0.,0.));
#641=CARTESIAN_POINT('Origin',(-4.58522109170201E-14,13.6000000000003,28.));
#642=CARTESIAN_POINT('',(-2.00000000000005,13.6000000000003,28.));
#643=CARTESIAN_POINT('Origin',(-4.58522109170201E-14,13.6000000000003,28.));
#644=CARTESIAN_POINT('',(-2.00000000000005,14.6000000000003,28.));
#645=CARTESIAN_POINT('',(-2.00000000000005,13.6000000000003,28.));
#646=CARTESIAN_POINT('Origin',(-4.91828799908955E-14,14.6000000000003,28.));
#647=CARTESIAN_POINT('Origin',(-4.91828799908955E-14,14.6000000000003,28.));
#648=CARTESIAN_POINT('Origin',(-2.00000000000004,15.7000000000003,27.5));
#649=CARTESIAN_POINT('',(-2.00000000000004,15.7000000000003,27.5));
#650=CARTESIAN_POINT('',(-0.500000000000058,15.7000000000003,27.5));
#651=CARTESIAN_POINT('',(-1.00000000000003,15.7000000000003,27.5));
#652=CARTESIAN_POINT('',(-2.00000000000004,15.3000000000003,27.5));
#653=CARTESIAN_POINT('',(-2.00000000000004,15.7000000000003,27.5));
#654=CARTESIAN_POINT('',(-0.500000000000057,15.3000000000003,27.5));
#655=CARTESIAN_POINT('',(1.99999999999996,15.3000000000003,27.5));
#656=CARTESIAN_POINT('',(-0.500000000000058,15.7000000000003,27.5));
#657=CARTESIAN_POINT('Origin',(-2.00000000000004,15.7000000000003,28.5));
#658=CARTESIAN_POINT('',(-2.00000000000004,15.7000000000003,28.5));
#659=CARTESIAN_POINT('',(-2.00000000000004,15.7000000000003,28.25));
#660=CARTESIAN_POINT('',(-2.00000000000004,15.3000000000003,28.5));
#661=CARTESIAN_POINT('',(-2.00000000000004,15.7000000000003,28.5));
#662=CARTESIAN_POINT('',(-2.00000000000004,15.3000000000003,27.5));
#663=CARTESIAN_POINT('Origin',(-0.500000000000058,15.7000000000003,28.5));
#664=CARTESIAN_POINT('',(-0.500000000000058,15.7000000000003,28.5));
#665=CARTESIAN_POINT('',(-0.25000000000004,15.7000000000003,28.5));
#666=CARTESIAN_POINT('',(-0.500000000000057,15.3000000000003,28.5));
#667=CARTESIAN_POINT('',(-0.500000000000058,15.7000000000003,28.5));
#668=CARTESIAN_POINT('',(-2.00000000000004,15.3000000000003,28.5));
#669=CARTESIAN_POINT('Origin',(-0.500000000000058,15.7000000000003,30.));
#670=CARTESIAN_POINT('',(-0.500000000000058,15.7000000000003,30.));
#671=CARTESIAN_POINT('',(-0.500000000000058,15.7000000000003,29.));
#672=CARTESIAN_POINT('',(-0.500000000000057,15.3000000000003,30.));
#673=CARTESIAN_POINT('',(-0.500000000000058,15.7000000000003,30.));
#674=CARTESIAN_POINT('',(-0.500000000000057,15.3000000000003,26.));
#675=CARTESIAN_POINT('Origin',(0.499999999999942,15.7000000000003,30.));
#676=CARTESIAN_POINT('',(0.499999999999942,15.7000000000003,30.));
#677=CARTESIAN_POINT('',(0.249999999999959,15.7000000000003,30.));
#678=CARTESIAN_POINT('',(0.499999999999943,15.3000000000003,30.));
#679=CARTESIAN_POINT('',(0.499999999999942,15.7000000000003,30.));
#680=CARTESIAN_POINT('',(-0.500000000000057,15.3000000000003,30.));
#681=CARTESIAN_POINT('Origin',(0.499999999999942,15.7000000000003,28.5));
#682=CARTESIAN_POINT('',(0.499999999999942,15.7000000000003,28.5));
#683=CARTESIAN_POINT('',(0.499999999999942,15.7000000000003,28.25));
#684=CARTESIAN_POINT('',(0.499999999999943,15.3000000000003,28.5));
#685=CARTESIAN_POINT('',(0.499999999999942,15.7000000000003,28.5));
#686=CARTESIAN_POINT('',(0.499999999999943,15.3000000000003,30.));
#687=CARTESIAN_POINT('Origin',(1.99999999999996,15.7000000000003,28.5));
#688=CARTESIAN_POINT('',(1.99999999999996,15.7000000000003,28.5));
#689=CARTESIAN_POINT('',(0.999999999999969,15.7000000000003,28.5));
#690=CARTESIAN_POINT('',(1.99999999999996,15.3000000000003,28.5));
#691=CARTESIAN_POINT('',(1.99999999999996,15.7000000000003,28.5));
#692=CARTESIAN_POINT('',(-2.00000000000004,15.3000000000003,28.5));
#693=CARTESIAN_POINT('Origin',(1.99999999999996,15.7000000000003,27.5));
#694=CARTESIAN_POINT('',(1.99999999999996,15.7000000000003,27.5));
#695=CARTESIAN_POINT('',(1.99999999999996,15.7000000000003,27.75));
#696=CARTESIAN_POINT('',(1.99999999999996,15.3000000000003,27.5));
#697=CARTESIAN_POINT('',(1.99999999999996,15.7000000000003,27.5));
#698=CARTESIAN_POINT('',(1.99999999999996,15.3000000000003,28.5));
#699=CARTESIAN_POINT('Origin',(0.499999999999942,15.7000000000003,27.5));
#700=CARTESIAN_POINT('',(0.499999999999942,15.7000000000003,27.5));
#701=CARTESIAN_POINT('',(0.24999999999996,15.7000000000003,27.5));
#702=CARTESIAN_POINT('',(0.499999999999943,15.3000000000003,27.5));
#703=CARTESIAN_POINT('',(0.499999999999942,15.7000000000003,27.5));
#704=CARTESIAN_POINT('',(1.99999999999996,15.3000000000003,27.5));
#705=CARTESIAN_POINT('Origin',(0.499999999999942,15.7000000000003,26.));
#706=CARTESIAN_POINT('',(0.499999999999942,15.7000000000003,26.));
#707=CARTESIAN_POINT('',(0.499999999999942,15.7000000000003,27.));
#708=CARTESIAN_POINT('',(0.499999999999944,15.3000000000003,26.));
#709=CARTESIAN_POINT('',(0.499999999999942,15.7000000000003,26.));
#710=CARTESIAN_POINT('',(0.499999999999943,15.3000000000003,30.));
#711=CARTESIAN_POINT('Origin',(-0.500000000000058,15.7000000000003,26.));
#712=CARTESIAN_POINT('',(-0.500000000000058,15.7000000000003,26.));
#713=CARTESIAN_POINT('',(-0.25000000000004,15.7000000000003,26.));
#714=CARTESIAN_POINT('',(-0.500000000000057,15.3000000000003,26.));
#715=CARTESIAN_POINT('',(-0.500000000000058,15.7000000000003,26.));
#716=CARTESIAN_POINT('',(0.499999999999944,15.3000000000003,26.));
#717=CARTESIAN_POINT('Origin',(-0.500000000000058,15.7000000000003,27.5));
#718=CARTESIAN_POINT('',(-0.500000000000058,15.7000000000003,27.75));
#719=CARTESIAN_POINT('',(-0.500000000000057,15.3000000000003,26.));
#720=CARTESIAN_POINT('Origin',(-3.82333054105288E-14,15.3000000000003,28.));
#721=CARTESIAN_POINT('Origin',(-7.10000000000002,13.6000000000003,23.1));
#722=CARTESIAN_POINT('',(-7.10000000000002,13.6000000000003,23.1));
#723=CARTESIAN_POINT('',(-7.10000000000001,13.6000000000003,32.9));
#724=CARTESIAN_POINT('',(-7.10000000000002,13.6000000000003,23.1));
#725=CARTESIAN_POINT('',(-7.10000000000002,15.7000000000003,32.9));
#726=CARTESIAN_POINT('',(-7.10000000000001,13.6000000000003,32.9));
#727=CARTESIAN_POINT('',(-7.10000000000002,15.7000000000003,23.1));
#728=CARTESIAN_POINT('',(-7.10000000000002,15.7000000000003,23.1));
#729=CARTESIAN_POINT('',(-7.10000000000002,13.6000000000003,23.1));
#730=CARTESIAN_POINT('Origin',(-4.90000000000002,13.6000000000003,23.1));
#731=CARTESIAN_POINT('',(-4.90000000000002,13.6000000000003,20.9));
#732=CARTESIAN_POINT('Origin',(-4.90000000000002,13.6000000000003,23.1));
#733=CARTESIAN_POINT('',(-4.90000000000002,15.7000000000003,20.9));
#734=CARTESIAN_POINT('Origin',(-4.90000000000002,15.7000000000003,23.1));
#735=CARTESIAN_POINT('',(-4.90000000000002,13.6000000000003,20.9));
#736=CARTESIAN_POINT('Origin',(4.89999999999998,13.6000000000003,20.9));
#737=CARTESIAN_POINT('',(4.89999999999998,13.6000000000003,20.9));
#738=CARTESIAN_POINT('',(4.89999999999998,13.6000000000003,20.9));
#739=CARTESIAN_POINT('',(4.89999999999998,15.7000000000003,20.9));
#740=CARTESIAN_POINT('',(4.89999999999998,15.7000000000003,20.9));
#741=CARTESIAN_POINT('',(4.89999999999998,13.6000000000003,20.9));
#742=CARTESIAN_POINT('Origin',(4.89999999999999,13.6000000000003,23.1));
#743=CARTESIAN_POINT('',(7.09999999999998,13.6000000000003,23.1));
#744=CARTESIAN_POINT('Origin',(4.89999999999999,13.6000000000003,23.1));
#745=CARTESIAN_POINT('',(7.09999999999998,15.7000000000003,23.1));
#746=CARTESIAN_POINT('Origin',(4.89999999999998,15.7000000000003,23.1));
#747=CARTESIAN_POINT('',(7.09999999999998,13.6000000000003,23.1));
#748=CARTESIAN_POINT('Origin',(7.09999999999998,13.6000000000003,32.9));
#749=CARTESIAN_POINT('',(7.09999999999998,13.6000000000003,32.9));
#750=CARTESIAN_POINT('',(7.09999999999998,13.6000000000003,32.9));
#751=CARTESIAN_POINT('',(7.09999999999998,15.7000000000003,32.9));
#752=CARTESIAN_POINT('',(7.09999999999998,15.7000000000003,32.9));
#753=CARTESIAN_POINT('',(7.09999999999998,13.6000000000003,32.9));
#754=CARTESIAN_POINT('Origin',(4.89999999999998,13.6000000000003,32.9));
#755=CARTESIAN_POINT('',(4.89999999999998,13.6000000000003,35.1));
#756=CARTESIAN_POINT('Origin',(4.89999999999998,13.6000000000003,32.9));
#757=CARTESIAN_POINT('',(4.89999999999998,15.7000000000003,35.1));
#758=CARTESIAN_POINT('Origin',(4.89999999999998,15.7000000000003,32.9));
#759=CARTESIAN_POINT('',(4.89999999999998,13.6000000000003,35.1));
#760=CARTESIAN_POINT('Origin',(-4.90000000000002,13.6000000000003,35.1));
#761=CARTESIAN_POINT('',(-4.90000000000002,13.6000000000003,35.1));
#762=CARTESIAN_POINT('',(-4.90000000000002,13.6000000000003,35.1));
#763=CARTESIAN_POINT('',(-4.90000000000002,15.7000000000003,35.1));
#764=CARTESIAN_POINT('',(-4.90000000000002,15.7000000000003,35.1));
#765=CARTESIAN_POINT('',(-4.90000000000002,13.6000000000003,35.1));
#766=CARTESIAN_POINT('Origin',(-4.90000000000002,13.6000000000003,32.9));
#767=CARTESIAN_POINT('Origin',(-4.90000000000002,13.6000000000003,32.9));
#768=CARTESIAN_POINT('Origin',(-4.90000000000002,15.7000000000003,32.9));
#769=CARTESIAN_POINT('Origin',(-2.30926389122044E-14,15.7000000000003,28.));
#770=CARTESIAN_POINT('Origin',(-1.64313007644534E-14,13.6000000000003,28.));
#771=UNCERTAINTY_MEASURE_WITH_UNIT(LENGTH_MEASURE(0.01),#775,
'DISTANCE_ACCURACY_VALUE',
'Maximum model space distance between geometric entities at asserted c
onnectivities');
#772=UNCERTAINTY_MEASURE_WITH_UNIT(LENGTH_MEASURE(0.01),#775,
'DISTANCE_ACCURACY_VALUE',
'Maximum model space distance between geometric entities at asserted c
onnectivities');
#773=(
GEOMETRIC_REPRESENTATION_CONTEXT(3)
GLOBAL_UNCERTAINTY_ASSIGNED_CONTEXT((#771))
GLOBAL_UNIT_ASSIGNED_CONTEXT((#775,#777,#778))
REPRESENTATION_CONTEXT('','3D')
);
#774=(
GEOMETRIC_REPRESENTATION_CONTEXT(3)
GLOBAL_UNCERTAINTY_ASSIGNED_CONTEXT((#772))
GLOBAL_UNIT_ASSIGNED_CONTEXT((#775,#777,#778))
REPRESENTATION_CONTEXT('','3D')
);
#775=(
LENGTH_UNIT()
NAMED_UNIT(*)
SI_UNIT(.MILLI.,.METRE.)
);
#776=(
LENGTH_UNIT()
NAMED_UNIT(*)
SI_UNIT($,.METRE.)
);
#777=(
NAMED_UNIT(*)
PLANE_ANGLE_UNIT()
SI_UNIT($,.RADIAN.)
);
#778=(
NAMED_UNIT(*)
SI_UNIT($,.STERADIAN.)
SOLID_ANGLE_UNIT()
);
#779=SHAPE_DEFINITION_REPRESENTATION(#780,#781);
#780=PRODUCT_DEFINITION_SHAPE('',$,#783);
#781=SHAPE_REPRESENTATION('',(#479),#773);
#782=PRODUCT_DEFINITION_CONTEXT('part definition',#787,'design');
#783=PRODUCT_DEFINITION('2026-08-29-11-09-30-096','(Unsaved)',#784,#782);
#784=PRODUCT_DEFINITION_FORMATION('',$,#789);
#785=PRODUCT_RELATED_PRODUCT_CATEGORY('(Unsaved)','(Unsaved)',(#789));
#786=APPLICATION_PROTOCOL_DEFINITION('international standard',
'automotive_design',2009,#787);
#787=APPLICATION_CONTEXT(
'Core Data for Automotive Mechanical Design Process');
#788=PRODUCT_CONTEXT('part definition',#787,'mechanical');
#789=PRODUCT('2026-08-29-11-09-30-096','(Unsaved)',$,(#788));
#790=PRESENTATION_STYLE_ASSIGNMENT((#791));
#791=SURFACE_STYLE_USAGE(.BOTH.,#792);
#792=SURFACE_SIDE_STYLE('',(#793));
#793=SURFACE_STYLE_FILL_AREA(#794);
#794=FILL_AREA_STYLE('Steel - Satin',(#795));
#795=FILL_AREA_STYLE_COLOUR('Steel - Satin',#796);
#796=COLOUR_RGB('Steel - Satin',0.627450980392157,0.627450980392157,0.627450980392157);
ENDSEC;
END-ISO-10303-21;
