ISO-10303-21;
HEADER;
/* Generated by software containing ST-Developer
 * from STEP Tools, Inc. (www.steptools.com) 
 */

FILE_DESCRIPTION(
/* description */ (''),
/* implementation_level */ '2;1');

FILE_NAME(
/* name */ 'electronics-housing-ambient-light-window_v1.0.step',
/* time_stamp */ '2026-08-29T11:09:29-05:00',
/* author */ (''),
/* organization */ (''),
/* preprocessor_version */ 'ST-DEVELOPER v20.1',
/* originating_system */ 'Autodesk Translation Framework v15.8.0.0',
/* authorisation */ '');

FILE_SCHEMA (('AUTOMOTIVE_DESIGN { 1 0 10303 214 3 1 1 }'));
ENDSEC;

DATA;
#10=MECHANICAL_DESIGN_GEOMETRIC_PRESENTATION_REPRESENTATION('',(#13),#675);
#11=SHAPE_REPRESENTATION_RELATIONSHIP('SRR','None',#682,#12);
#12=ADVANCED_BREP_SHAPE_REPRESENTATION('',(#14),#674);
#13=STYLED_ITEM('',(#691),#14);
#14=MANIFOLD_SOLID_BREP('Body1',#391);
#15=FACE_BOUND('',#88,.T.);
#16=FACE_BOUND('',#92,.T.);
#17=CYLINDRICAL_SURFACE('',#413,2.60000000112874);
#18=CYLINDRICAL_SURFACE('',#426,3.00000000112867);
#19=CYLINDRICAL_SURFACE('',#430,2.60000000112879);
#20=CYLINDRICAL_SURFACE('',#432,4.00000000112862);
#21=CYLINDRICAL_SURFACE('',#436,4.00000000112856);
#22=CYLINDRICAL_SURFACE('',#442,3.00000000112867);
#23=CIRCLE('',#407,2.10000000112874);
#24=CIRCLE('',#408,2.60000000112874);
#25=CIRCLE('',#411,2.10000000112879);
#26=CIRCLE('',#412,2.60000000112879);
#27=CIRCLE('',#414,2.60000000112874);
#28=CIRCLE('',#418,2.50000000112867);
#29=CIRCLE('',#419,3.00000000112867);
#30=CIRCLE('',#422,2.50000000112867);
#31=CIRCLE('',#423,3.00000000112867);
#32=CIRCLE('',#427,3.00000000112867);
#33=CIRCLE('',#431,2.60000000112879);
#34=CIRCLE('',#433,4.00000000112862);
#35=CIRCLE('',#434,4.00000000112862);
#36=CIRCLE('',#437,4.00000000112856);
#37=CIRCLE('',#438,4.00000000112856);
#38=CIRCLE('',#441,3.00000000112867);
#39=CONICAL_SURFACE('',#406,2.35000000112874,0.785398163397438);
#40=CONICAL_SURFACE('',#410,2.35000000112879,0.785398163397455);
#41=CONICAL_SURFACE('',#417,2.75000000112867,0.785398163397446);
#42=CONICAL_SURFACE('',#421,2.75000000112867,0.785398163397446);
#43=FACE_OUTER_BOUND('',#67,.T.);
#44=FACE_OUTER_BOUND('',#68,.T.);
#45=FACE_OUTER_BOUND('',#69,.T.);
#46=FACE_OUTER_BOUND('',#70,.T.);
#47=FACE_OUTER_BOUND('',#71,.T.);
#48=FACE_OUTER_BOUND('',#72,.T.);
#49=FACE_OUTER_BOUND('',#73,.T.);
#50=FACE_OUTER_BOUND('',#74,.T.);
#51=FACE_OUTER_BOUND('',#75,.T.);
#52=FACE_OUTER_BOUND('',#76,.T.);
#53=FACE_OUTER_BOUND('',#77,.T.);
#54=FACE_OUTER_BOUND('',#78,.T.);
#55=FACE_OUTER_BOUND('',#79,.T.);
#56=FACE_OUTER_BOUND('',#80,.T.);
#57=FACE_OUTER_BOUND('',#81,.T.);
#58=FACE_OUTER_BOUND('',#82,.T.);
#59=FACE_OUTER_BOUND('',#83,.T.);
#60=FACE_OUTER_BOUND('',#84,.T.);
#61=FACE_OUTER_BOUND('',#85,.T.);
#62=FACE_OUTER_BOUND('',#86,.T.);
#63=FACE_OUTER_BOUND('',#87,.T.);
#64=FACE_OUTER_BOUND('',#89,.T.);
#65=FACE_OUTER_BOUND('',#90,.T.);
#66=FACE_OUTER_BOUND('',#91,.T.);
#67=EDGE_LOOP('',(#249,#250,#251,#252));
#68=EDGE_LOOP('',(#253,#254,#255,#256));
#69=EDGE_LOOP('',(#257,#258,#259,#260));
#70=EDGE_LOOP('',(#261,#262,#263,#264));
#71=EDGE_LOOP('',(#265,#266,#267,#268));
#72=EDGE_LOOP('',(#269,#270,#271,#272));
#73=EDGE_LOOP('',(#273,#274,#275,#276));
#74=EDGE_LOOP('',(#277,#278,#279,#280));
#75=EDGE_LOOP('',(#281,#282,#283,#284));
#76=EDGE_LOOP('',(#285,#286,#287,#288));
#77=EDGE_LOOP('',(#289,#290,#291,#292));
#78=EDGE_LOOP('',(#293,#294,#295,#296));
#79=EDGE_LOOP('',(#297,#298,#299,#300));
#80=EDGE_LOOP('',(#301,#302,#303,#304));
#81=EDGE_LOOP('',(#305,#306,#307,#308));
#82=EDGE_LOOP('',(#309,#310,#311,#312));
#83=EDGE_LOOP('',(#313,#314,#315,#316));
#84=EDGE_LOOP('',(#317,#318,#319,#320));
#85=EDGE_LOOP('',(#321,#322,#323,#324));
#86=EDGE_LOOP('',(#325,#326,#327,#328));
#87=EDGE_LOOP('',(#329,#330,#331,#332));
#88=EDGE_LOOP('',(#333,#334,#335,#336));
#89=EDGE_LOOP('',(#337,#338,#339,#340));
#90=EDGE_LOOP('',(#341,#342,#343,#344));
#91=EDGE_LOOP('',(#345,#346,#347,#348));
#92=EDGE_LOOP('',(#349,#350,#351,#352));
#93=LINE('',#567,#129);
#94=LINE('',#569,#130);
#95=LINE('',#571,#131);
#96=LINE('',#572,#132);
#97=LINE('',#576,#133);
#98=LINE('',#582,#134);
#99=LINE('',#583,#135);
#100=LINE('',#584,#136);
#101=LINE('',#590,#137);
#102=LINE('',#593,#138);
#103=LINE('',#596,#139);
#104=LINE('',#597,#140);
#105=LINE('',#602,#141);
#106=LINE('',#606,#142);
#107=LINE('',#611,#143);
#108=LINE('',#612,#144);
#109=LINE('',#613,#145);
#110=LINE('',#617,#146);
#111=LINE('',#621,#147);
#112=LINE('',#622,#148);
#113=LINE('',#625,#149);
#114=LINE('',#627,#150);
#115=LINE('',#628,#151);
#116=LINE('',#631,#152);
#117=LINE('',#636,#153);
#118=LINE('',#637,#154);
#119=LINE('',#645,#155);
#120=LINE('',#648,#156);
#121=LINE('',#651,#157);
#122=LINE('',#653,#158);
#123=LINE('',#654,#159);
#124=LINE('',#660,#160);
#125=LINE('',#662,#161);
#126=LINE('',#663,#162);
#127=LINE('',#666,#163);
#128=LINE('',#669,#164);
#129=VECTOR('',#449,10.);
#130=VECTOR('',#450,10.);
#131=VECTOR('',#451,10.);
#132=VECTOR('',#452,10.);
#133=VECTOR('',#455,10.);
#134=VECTOR('',#462,10.);
#135=VECTOR('',#463,10.);
#136=VECTOR('',#464,10.);
#137=VECTOR('',#473,10.);
#138=VECTOR('',#476,10.);
#139=VECTOR('',#479,10.);
#140=VECTOR('',#480,10.);
#141=VECTOR('',#485,10.);
#142=VECTOR('',#488,10.);
#143=VECTOR('',#493,10.);
#144=VECTOR('',#494,10.);
#145=VECTOR('',#495,10.);
#146=VECTOR('',#498,10.);
#147=VECTOR('',#505,10.);
#148=VECTOR('',#506,10.);
#149=VECTOR('',#509,10.);
#150=VECTOR('',#510,10.);
#151=VECTOR('',#511,10.);
#152=VECTOR('',#514,10.);
#153=VECTOR('',#521,10.);
#154=VECTOR('',#522,10.);
#155=VECTOR('',#531,10.);
#156=VECTOR('',#534,10.);
#157=VECTOR('',#537,10.);
#158=VECTOR('',#538,10.);
#159=VECTOR('',#539,10.);
#160=VECTOR('',#546,10.);
#161=VECTOR('',#549,10.);
#162=VECTOR('',#550,10.);
#163=VECTOR('',#553,10.);
#164=VECTOR('',#558,10.);
#165=VERTEX_POINT('',#565);
#166=VERTEX_POINT('',#566);
#167=VERTEX_POINT('',#568);
#168=VERTEX_POINT('',#570);
#169=VERTEX_POINT('',#574);
#170=VERTEX_POINT('',#575);
#171=VERTEX_POINT('',#580);
#172=VERTEX_POINT('',#581);
#173=VERTEX_POINT('',#589);
#174=VERTEX_POINT('',#591);
#175=VERTEX_POINT('',#595);
#176=VERTEX_POINT('',#600);
#177=VERTEX_POINT('',#601);
#178=VERTEX_POINT('',#603);
#179=VERTEX_POINT('',#605);
#180=VERTEX_POINT('',#609);
#181=VERTEX_POINT('',#610);
#182=VERTEX_POINT('',#615);
#183=VERTEX_POINT('',#616);
#184=VERTEX_POINT('',#624);
#185=VERTEX_POINT('',#626);
#186=VERTEX_POINT('',#630);
#187=VERTEX_POINT('',#635);
#188=VERTEX_POINT('',#641);
#189=VERTEX_POINT('',#642);
#190=VERTEX_POINT('',#644);
#191=VERTEX_POINT('',#646);
#192=VERTEX_POINT('',#650);
#193=VERTEX_POINT('',#652);
#194=VERTEX_POINT('',#656);
#195=VERTEX_POINT('',#658);
#196=VERTEX_POINT('',#665);
#197=EDGE_CURVE('',#165,#166,#93,.T.);
#198=EDGE_CURVE('',#166,#167,#94,.T.);
#199=EDGE_CURVE('',#167,#168,#95,.T.);
#200=EDGE_CURVE('',#168,#165,#96,.T.);
#201=EDGE_CURVE('',#169,#170,#97,.T.);
#202=EDGE_CURVE('',#170,#166,#23,.T.);
#203=EDGE_CURVE('',#165,#169,#24,.T.);
#204=EDGE_CURVE('',#171,#172,#98,.T.);
#205=EDGE_CURVE('',#172,#170,#99,.T.);
#206=EDGE_CURVE('',#169,#171,#100,.T.);
#207=EDGE_CURVE('',#167,#172,#25,.T.);
#208=EDGE_CURVE('',#171,#168,#26,.T.);
#209=EDGE_CURVE('',#173,#165,#101,.T.);
#210=EDGE_CURVE('',#174,#173,#27,.T.);
#211=EDGE_CURVE('',#174,#169,#102,.T.);
#212=EDGE_CURVE('',#175,#168,#103,.T.);
#213=EDGE_CURVE('',#173,#175,#104,.T.);
#214=EDGE_CURVE('',#176,#177,#105,.T.);
#215=EDGE_CURVE('',#177,#178,#28,.T.);
#216=EDGE_CURVE('',#178,#179,#106,.T.);
#217=EDGE_CURVE('',#179,#176,#29,.T.);
#218=EDGE_CURVE('',#180,#181,#107,.T.);
#219=EDGE_CURVE('',#181,#177,#108,.T.);
#220=EDGE_CURVE('',#176,#180,#109,.T.);
#221=EDGE_CURVE('',#182,#183,#110,.T.);
#222=EDGE_CURVE('',#183,#181,#30,.T.);
#223=EDGE_CURVE('',#180,#182,#31,.T.);
#224=EDGE_CURVE('',#178,#183,#111,.T.);
#225=EDGE_CURVE('',#182,#179,#112,.T.);
#226=EDGE_CURVE('',#176,#184,#113,.T.);
#227=EDGE_CURVE('',#184,#185,#114,.T.);
#228=EDGE_CURVE('',#180,#185,#115,.T.);
#229=EDGE_CURVE('',#179,#186,#116,.T.);
#230=EDGE_CURVE('',#186,#184,#32,.T.);
#231=EDGE_CURVE('',#187,#174,#117,.T.);
#232=EDGE_CURVE('',#187,#171,#118,.T.);
#233=EDGE_CURVE('',#175,#187,#33,.T.);
#234=EDGE_CURVE('',#188,#189,#34,.T.);
#235=EDGE_CURVE('',#188,#190,#119,.T.);
#236=EDGE_CURVE('',#191,#190,#35,.T.);
#237=EDGE_CURVE('',#189,#191,#120,.T.);
#238=EDGE_CURVE('',#189,#192,#121,.T.);
#239=EDGE_CURVE('',#193,#191,#122,.T.);
#240=EDGE_CURVE('',#192,#193,#123,.T.);
#241=EDGE_CURVE('',#192,#194,#36,.T.);
#242=EDGE_CURVE('',#195,#193,#37,.T.);
#243=EDGE_CURVE('',#194,#195,#124,.T.);
#244=EDGE_CURVE('',#194,#188,#125,.T.);
#245=EDGE_CURVE('',#190,#195,#126,.T.);
#246=EDGE_CURVE('',#196,#186,#127,.T.);
#247=EDGE_CURVE('',#185,#196,#38,.T.);
#248=EDGE_CURVE('',#182,#196,#128,.T.);
#249=ORIENTED_EDGE('',*,*,#197,.T.);
#250=ORIENTED_EDGE('',*,*,#198,.T.);
#251=ORIENTED_EDGE('',*,*,#199,.T.);
#252=ORIENTED_EDGE('',*,*,#200,.T.);
#253=ORIENTED_EDGE('',*,*,#201,.T.);
#254=ORIENTED_EDGE('',*,*,#202,.T.);
#255=ORIENTED_EDGE('',*,*,#197,.F.);
#256=ORIENTED_EDGE('',*,*,#203,.T.);
#257=ORIENTED_EDGE('',*,*,#204,.T.);
#258=ORIENTED_EDGE('',*,*,#205,.T.);
#259=ORIENTED_EDGE('',*,*,#201,.F.);
#260=ORIENTED_EDGE('',*,*,#206,.T.);
#261=ORIENTED_EDGE('',*,*,#199,.F.);
#262=ORIENTED_EDGE('',*,*,#207,.T.);
#263=ORIENTED_EDGE('',*,*,#204,.F.);
#264=ORIENTED_EDGE('',*,*,#208,.T.);
#265=ORIENTED_EDGE('',*,*,#203,.F.);
#266=ORIENTED_EDGE('',*,*,#209,.F.);
#267=ORIENTED_EDGE('',*,*,#210,.F.);
#268=ORIENTED_EDGE('',*,*,#211,.T.);
#269=ORIENTED_EDGE('',*,*,#200,.F.);
#270=ORIENTED_EDGE('',*,*,#212,.F.);
#271=ORIENTED_EDGE('',*,*,#213,.F.);
#272=ORIENTED_EDGE('',*,*,#209,.T.);
#273=ORIENTED_EDGE('',*,*,#198,.F.);
#274=ORIENTED_EDGE('',*,*,#202,.F.);
#275=ORIENTED_EDGE('',*,*,#205,.F.);
#276=ORIENTED_EDGE('',*,*,#207,.F.);
#277=ORIENTED_EDGE('',*,*,#214,.T.);
#278=ORIENTED_EDGE('',*,*,#215,.T.);
#279=ORIENTED_EDGE('',*,*,#216,.T.);
#280=ORIENTED_EDGE('',*,*,#217,.T.);
#281=ORIENTED_EDGE('',*,*,#218,.T.);
#282=ORIENTED_EDGE('',*,*,#219,.T.);
#283=ORIENTED_EDGE('',*,*,#214,.F.);
#284=ORIENTED_EDGE('',*,*,#220,.T.);
#285=ORIENTED_EDGE('',*,*,#221,.T.);
#286=ORIENTED_EDGE('',*,*,#222,.T.);
#287=ORIENTED_EDGE('',*,*,#218,.F.);
#288=ORIENTED_EDGE('',*,*,#223,.T.);
#289=ORIENTED_EDGE('',*,*,#216,.F.);
#290=ORIENTED_EDGE('',*,*,#224,.T.);
#291=ORIENTED_EDGE('',*,*,#221,.F.);
#292=ORIENTED_EDGE('',*,*,#225,.T.);
#293=ORIENTED_EDGE('',*,*,#220,.F.);
#294=ORIENTED_EDGE('',*,*,#226,.T.);
#295=ORIENTED_EDGE('',*,*,#227,.T.);
#296=ORIENTED_EDGE('',*,*,#228,.F.);
#297=ORIENTED_EDGE('',*,*,#217,.F.);
#298=ORIENTED_EDGE('',*,*,#229,.T.);
#299=ORIENTED_EDGE('',*,*,#230,.T.);
#300=ORIENTED_EDGE('',*,*,#226,.F.);
#301=ORIENTED_EDGE('',*,*,#215,.F.);
#302=ORIENTED_EDGE('',*,*,#219,.F.);
#303=ORIENTED_EDGE('',*,*,#222,.F.);
#304=ORIENTED_EDGE('',*,*,#224,.F.);
#305=ORIENTED_EDGE('',*,*,#206,.F.);
#306=ORIENTED_EDGE('',*,*,#211,.F.);
#307=ORIENTED_EDGE('',*,*,#231,.F.);
#308=ORIENTED_EDGE('',*,*,#232,.T.);
#309=ORIENTED_EDGE('',*,*,#208,.F.);
#310=ORIENTED_EDGE('',*,*,#232,.F.);
#311=ORIENTED_EDGE('',*,*,#233,.F.);
#312=ORIENTED_EDGE('',*,*,#212,.T.);
#313=ORIENTED_EDGE('',*,*,#234,.F.);
#314=ORIENTED_EDGE('',*,*,#235,.T.);
#315=ORIENTED_EDGE('',*,*,#236,.F.);
#316=ORIENTED_EDGE('',*,*,#237,.F.);
#317=ORIENTED_EDGE('',*,*,#238,.F.);
#318=ORIENTED_EDGE('',*,*,#237,.T.);
#319=ORIENTED_EDGE('',*,*,#239,.F.);
#320=ORIENTED_EDGE('',*,*,#240,.F.);
#321=ORIENTED_EDGE('',*,*,#241,.F.);
#322=ORIENTED_EDGE('',*,*,#240,.T.);
#323=ORIENTED_EDGE('',*,*,#242,.F.);
#324=ORIENTED_EDGE('',*,*,#243,.F.);
#325=ORIENTED_EDGE('',*,*,#244,.F.);
#326=ORIENTED_EDGE('',*,*,#243,.T.);
#327=ORIENTED_EDGE('',*,*,#245,.F.);
#328=ORIENTED_EDGE('',*,*,#235,.F.);
#329=ORIENTED_EDGE('',*,*,#245,.T.);
#330=ORIENTED_EDGE('',*,*,#242,.T.);
#331=ORIENTED_EDGE('',*,*,#239,.T.);
#332=ORIENTED_EDGE('',*,*,#236,.T.);
#333=ORIENTED_EDGE('',*,*,#230,.F.);
#334=ORIENTED_EDGE('',*,*,#246,.F.);
#335=ORIENTED_EDGE('',*,*,#247,.F.);
#336=ORIENTED_EDGE('',*,*,#227,.F.);
#337=ORIENTED_EDGE('',*,*,#223,.F.);
#338=ORIENTED_EDGE('',*,*,#228,.T.);
#339=ORIENTED_EDGE('',*,*,#247,.T.);
#340=ORIENTED_EDGE('',*,*,#248,.F.);
#341=ORIENTED_EDGE('',*,*,#225,.F.);
#342=ORIENTED_EDGE('',*,*,#248,.T.);
#343=ORIENTED_EDGE('',*,*,#246,.T.);
#344=ORIENTED_EDGE('',*,*,#229,.F.);
#345=ORIENTED_EDGE('',*,*,#244,.T.);
#346=ORIENTED_EDGE('',*,*,#234,.T.);
#347=ORIENTED_EDGE('',*,*,#238,.T.);
#348=ORIENTED_EDGE('',*,*,#241,.T.);
#349=ORIENTED_EDGE('',*,*,#231,.T.);
#350=ORIENTED_EDGE('',*,*,#210,.T.);
#351=ORIENTED_EDGE('',*,*,#213,.T.);
#352=ORIENTED_EDGE('',*,*,#233,.T.);
#353=PLANE('',#405);
#354=PLANE('',#409);
#355=PLANE('',#415);
#356=PLANE('',#416);
#357=PLANE('',#420);
#358=PLANE('',#424);
#359=PLANE('',#425);
#360=PLANE('',#428);
#361=PLANE('',#429);
#362=PLANE('',#435);
#363=PLANE('',#439);
#364=PLANE('',#440);
#365=PLANE('',#443);
#366=PLANE('',#444);
#367=ADVANCED_FACE('',(#43),#353,.T.);
#368=ADVANCED_FACE('',(#44),#39,.F.);
#369=ADVANCED_FACE('',(#45),#354,.T.);
#370=ADVANCED_FACE('',(#46),#40,.F.);
#371=ADVANCED_FACE('',(#47),#17,.F.);
#372=ADVANCED_FACE('',(#48),#355,.F.);
#373=ADVANCED_FACE('',(#49),#356,.F.);
#374=ADVANCED_FACE('',(#50),#41,.T.);
#375=ADVANCED_FACE('',(#51),#357,.T.);
#376=ADVANCED_FACE('',(#52),#42,.T.);
#377=ADVANCED_FACE('',(#53),#358,.T.);
#378=ADVANCED_FACE('',(#54),#359,.T.);
#379=ADVANCED_FACE('',(#55),#18,.T.);
#380=ADVANCED_FACE('',(#56),#360,.T.);
#381=ADVANCED_FACE('',(#57),#361,.F.);
#382=ADVANCED_FACE('',(#58),#19,.F.);
#383=ADVANCED_FACE('',(#59),#20,.T.);
#384=ADVANCED_FACE('',(#60),#362,.T.);
#385=ADVANCED_FACE('',(#61),#21,.T.);
#386=ADVANCED_FACE('',(#62),#363,.T.);
#387=ADVANCED_FACE('',(#63,#15),#364,.F.);
#388=ADVANCED_FACE('',(#64),#22,.T.);
#389=ADVANCED_FACE('',(#65),#365,.T.);
#390=ADVANCED_FACE('',(#66,#16),#366,.T.);
#391=CLOSED_SHELL('',(#367,#368,#369,#370,#371,#372,#373,#374,#375,#376,
#377,#378,#379,#380,#381,#382,#383,#384,#385,#386,#387,#388,#389,#390));
#392=DERIVED_UNIT_ELEMENT(#394,1.);
#393=DERIVED_UNIT_ELEMENT(#677,-3.);
#394=(
MASS_UNIT()
NAMED_UNIT(*)
SI_UNIT(.KILO.,.GRAM.)
);
#395=DERIVED_UNIT((#392,#393));
#396=MEASURE_REPRESENTATION_ITEM('density measure',
POSITIVE_RATIO_MEASURE(7850.),#395);
#397=PROPERTY_DEFINITION_REPRESENTATION(#402,#399);
#398=PROPERTY_DEFINITION_REPRESENTATION(#403,#400);
#399=REPRESENTATION('material name',(#401),#674);
#400=REPRESENTATION('density',(#396),#674);
#401=DESCRIPTIVE_REPRESENTATION_ITEM('Steel','Steel');
#402=PROPERTY_DEFINITION('material property','material name',#684);
#403=PROPERTY_DEFINITION('material property','density of part',#684);
#404=AXIS2_PLACEMENT_3D('',#563,#445,#446);
#405=AXIS2_PLACEMENT_3D('',#564,#447,#448);
#406=AXIS2_PLACEMENT_3D('',#573,#453,#454);
#407=AXIS2_PLACEMENT_3D('',#577,#456,#457);
#408=AXIS2_PLACEMENT_3D('',#578,#458,#459);
#409=AXIS2_PLACEMENT_3D('',#579,#460,#461);
#410=AXIS2_PLACEMENT_3D('',#585,#465,#466);
#411=AXIS2_PLACEMENT_3D('',#586,#467,#468);
#412=AXIS2_PLACEMENT_3D('',#587,#469,#470);
#413=AXIS2_PLACEMENT_3D('',#588,#471,#472);
#414=AXIS2_PLACEMENT_3D('',#592,#474,#475);
#415=AXIS2_PLACEMENT_3D('',#594,#477,#478);
#416=AXIS2_PLACEMENT_3D('',#598,#481,#482);
#417=AXIS2_PLACEMENT_3D('',#599,#483,#484);
#418=AXIS2_PLACEMENT_3D('',#604,#486,#487);
#419=AXIS2_PLACEMENT_3D('',#607,#489,#490);
#420=AXIS2_PLACEMENT_3D('',#608,#491,#492);
#421=AXIS2_PLACEMENT_3D('',#614,#496,#497);
#422=AXIS2_PLACEMENT_3D('',#618,#499,#500);
#423=AXIS2_PLACEMENT_3D('',#619,#501,#502);
#424=AXIS2_PLACEMENT_3D('',#620,#503,#504);
#425=AXIS2_PLACEMENT_3D('',#623,#507,#508);
#426=AXIS2_PLACEMENT_3D('',#629,#512,#513);
#427=AXIS2_PLACEMENT_3D('',#632,#515,#516);
#428=AXIS2_PLACEMENT_3D('',#633,#517,#518);
#429=AXIS2_PLACEMENT_3D('',#634,#519,#520);
#430=AXIS2_PLACEMENT_3D('',#638,#523,#524);
#431=AXIS2_PLACEMENT_3D('',#639,#525,#526);
#432=AXIS2_PLACEMENT_3D('',#640,#527,#528);
#433=AXIS2_PLACEMENT_3D('',#643,#529,#530);
#434=AXIS2_PLACEMENT_3D('',#647,#532,#533);
#435=AXIS2_PLACEMENT_3D('',#649,#535,#536);
#436=AXIS2_PLACEMENT_3D('',#655,#540,#541);
#437=AXIS2_PLACEMENT_3D('',#657,#542,#543);
#438=AXIS2_PLACEMENT_3D('',#659,#544,#545);
#439=AXIS2_PLACEMENT_3D('',#661,#547,#548);
#440=AXIS2_PLACEMENT_3D('',#664,#551,#552);
#441=AXIS2_PLACEMENT_3D('',#667,#554,#555);
#442=AXIS2_PLACEMENT_3D('',#668,#556,#557);
#443=AXIS2_PLACEMENT_3D('',#670,#559,#560);
#444=AXIS2_PLACEMENT_3D('',#671,#561,#562);
#445=DIRECTION('axis',(0.,0.,1.));
#446=DIRECTION('refdir',(1.,0.,0.));
#447=DIRECTION('center_axis',(0.707106781186551,-0.707106781186544,3.1311695478855E-12));
#448=DIRECTION('ref_axis',(4.42814244070928E-12,0.,-1.));
#449=DIRECTION('',(0.707106781186544,0.707106781186551,3.12762417769807E-12));
#450=DIRECTION('',(-4.4281424407093E-12,-1.47486770819859E-26,1.));
#451=DIRECTION('',(-0.707106781185063,-0.707106781188032,-3.12762417770461E-12));
#452=DIRECTION('',(4.4281424407093E-12,1.47486770819859E-26,-1.));
#453=DIRECTION('center_axis',(3.33066907387547E-15,-1.,0.));
#454=DIRECTION('ref_axis',(-1.,-1.48817128841243E-15,-4.70392955152355E-12));
#455=DIRECTION('',(-0.707106781187875,0.70710678118522,-3.26579231405613E-12));
#456=DIRECTION('center_axis',(-3.33066907387547E-15,1.,0.));
#457=DIRECTION('ref_axis',(-1.,-3.33066907387548E-15,-4.70392955152355E-12));
#458=DIRECTION('center_axis',(3.33066907387547E-15,-1.,0.));
#459=DIRECTION('ref_axis',(-1.,0.,-4.70392955152355E-12));
#460=DIRECTION('center_axis',(-0.707106781186545,-0.707106781186551,-3.10219880961448E-12));
#461=DIRECTION('ref_axis',(-4.38717162973449E-12,0.,1.));
#462=DIRECTION('',(-0.707106781186551,0.707106781186544,-3.10250269835915E-12));
#463=DIRECTION('',(4.38717162973447E-12,1.46122168689405E-26,-1.));
#464=DIRECTION('',(-4.38717162973447E-12,-1.46122168689405E-26,1.));
#465=DIRECTION('center_axis',(3.33066907387547E-15,-1.,0.));
#466=DIRECTION('ref_axis',(1.,1.48817128841244E-15,4.62194385127904E-12));
#467=DIRECTION('center_axis',(-3.33066907387547E-15,1.,0.));
#468=DIRECTION('ref_axis',(1.,3.33066907387547E-15,4.62194385127904E-12));
#469=DIRECTION('center_axis',(3.33066907387547E-15,-1.,0.));
#470=DIRECTION('ref_axis',(1.,0.,4.62194385127904E-12));
#471=DIRECTION('center_axis',(0.,1.,0.));
#472=DIRECTION('ref_axis',(-1.,0.,-4.70392955152355E-12));
#473=DIRECTION('',(0.,1.,0.));
#474=DIRECTION('center_axis',(-3.33066907387547E-15,1.,0.));
#475=DIRECTION('ref_axis',(-1.,0.,-4.70392955152355E-12));
#476=DIRECTION('',(0.,1.,0.));
#477=DIRECTION('center_axis',(-1.,0.,-4.4281424407093E-12));
#478=DIRECTION('ref_axis',(-4.4281424407093E-12,1.01225067091953E-59,1.));
#479=DIRECTION('',(0.,1.,0.));
#480=DIRECTION('',(-4.4281424407093E-12,-1.47486770819859E-26,1.));
#481=DIRECTION('center_axis',(-3.33066907387547E-15,1.,0.));
#482=DIRECTION('ref_axis',(0.,0.,1.));
#483=DIRECTION('center_axis',(3.33066907387547E-15,-1.,0.));
#484=DIRECTION('ref_axis',(1.,3.3228044479634E-15,4.15075381317031E-12));
#485=DIRECTION('',(0.707106781186544,0.707106781186551,2.93921308265603E-12));
#486=DIRECTION('center_axis',(3.33066907387547E-15,-1.,0.));
#487=DIRECTION('ref_axis',(1.,3.33066907387547E-15,4.15075381317031E-12));
#488=DIRECTION('',(0.707106781186549,-0.707106781186546,2.93921308265603E-12));
#489=DIRECTION('center_axis',(-3.33066907387547E-15,1.,0.));
#490=DIRECTION('ref_axis',(1.,3.31625059303618E-15,4.15075381317031E-12));
#491=DIRECTION('center_axis',(-0.707106781186549,0.707106781186546,-2.93561706455616E-12));
#492=DIRECTION('ref_axis',(-4.15158946662921E-12,0.,1.));
#493=DIRECTION('',(0.707106781186546,0.707106781186549,2.93921308265603E-12));
#494=DIRECTION('',(4.15158946662922E-12,1.38275706439291E-26,-1.));
#495=DIRECTION('',(-4.15158946662922E-12,-1.38275706439291E-26,1.));
#496=DIRECTION('center_axis',(3.33066907387547E-15,-1.,0.));
#497=DIRECTION('ref_axis',(-1.,-3.3228044479634E-15,-4.15075381317031E-12));
#498=DIRECTION('',(-0.707106781186549,0.707106781186546,-2.93921308265603E-12));
#499=DIRECTION('center_axis',(3.33066907387547E-15,-1.,0.));
#500=DIRECTION('ref_axis',(-1.,-3.33066907387547E-15,-4.15075381317031E-12));
#501=DIRECTION('center_axis',(-3.33066907387547E-15,1.,0.));
#502=DIRECTION('ref_axis',(-1.,-3.31625059303618E-15,-4.15075381317031E-12));
#503=DIRECTION('center_axis',(0.707106781186545,0.70710678118655,2.93566771269999E-12));
#504=DIRECTION('ref_axis',(4.15166109392115E-12,0.,-1.));
#505=DIRECTION('',(-4.15166109392113E-12,-1.38278092107351E-26,1.));
#506=DIRECTION('',(4.15166109392113E-12,1.38278092107351E-26,-1.));
#507=DIRECTION('center_axis',(-1.,-3.31625059303618E-15,-4.15158946662922E-12));
#508=DIRECTION('ref_axis',(4.15158946662922E-12,1.38275706439291E-26,-1.));
#509=DIRECTION('',(3.31625059303618E-15,-1.,0.));
#510=DIRECTION('',(-4.15158946662922E-12,-1.38275706439291E-26,1.));
#511=DIRECTION('',(3.31625059303618E-15,-1.,0.));
#512=DIRECTION('center_axis',(3.31625059303618E-15,-1.,0.));
#513=DIRECTION('ref_axis',(1.,3.31625059303618E-15,4.15075381317031E-12));
#514=DIRECTION('',(3.31625059303618E-15,-1.,0.));
#515=DIRECTION('center_axis',(-3.33066907387547E-15,1.,0.));
#516=DIRECTION('ref_axis',(1.,3.31625059303618E-15,4.15075381317031E-12));
#517=DIRECTION('center_axis',(-3.33066907387547E-15,1.,0.));
#518=DIRECTION('ref_axis',(-1.,-3.33066907387547E-15,0.));
#519=DIRECTION('center_axis',(1.,0.,4.38717162973447E-12));
#520=DIRECTION('ref_axis',(4.38717162973447E-12,-8.62739383212328E-60,-1.));
#521=DIRECTION('',(4.38717162973447E-12,1.46122168689405E-26,-1.));
#522=DIRECTION('',(0.,1.,0.));
#523=DIRECTION('center_axis',(0.,1.,0.));
#524=DIRECTION('ref_axis',(1.,0.,4.62194385127904E-12));
#525=DIRECTION('center_axis',(-3.33066907387547E-15,1.,0.));
#526=DIRECTION('ref_axis',(1.,0.,4.62194385127904E-12));
#527=DIRECTION('center_axis',(-3.33066907387547E-15,1.,0.));
#528=DIRECTION('ref_axis',(-1.,-3.33066907387547E-15,-3.79030140500083E-12));
#529=DIRECTION('center_axis',(3.33066907387547E-15,-1.,0.));
#530=DIRECTION('ref_axis',(-1.,-3.33066907387547E-15,-3.79030140500083E-12));
#531=DIRECTION('',(-3.33066907387547E-15,1.,0.));
#532=DIRECTION('center_axis',(-3.33066907387547E-15,1.,0.));
#533=DIRECTION('ref_axis',(-1.,-3.33066907387547E-15,-3.79030140500083E-12));
#534=DIRECTION('',(-3.33066907387547E-15,1.,0.));
#535=DIRECTION('center_axis',(1.,3.33066907387547E-15,3.92990299815529E-12));
#536=DIRECTION('ref_axis',(3.92990299815529E-12,1.30892063792863E-26,-1.));
#537=DIRECTION('',(-3.92990299815529E-12,-1.30892063792863E-26,1.));
#538=DIRECTION('',(3.92990299815529E-12,1.30892063792863E-26,-1.));
#539=DIRECTION('',(-3.33066907387547E-15,1.,0.));
#540=DIRECTION('center_axis',(-3.33066907387547E-15,1.,0.));
#541=DIRECTION('ref_axis',(1.,3.33066907387547E-15,3.70814490120181E-12));
#542=DIRECTION('center_axis',(3.33066907387547E-15,-1.,0.));
#543=DIRECTION('ref_axis',(1.,3.33066907387548E-15,3.70814490120181E-12));
#544=DIRECTION('center_axis',(-3.33066907387547E-15,1.,0.));
#545=DIRECTION('ref_axis',(1.,3.33066907387548E-15,3.70814490120181E-12));
#546=DIRECTION('',(-3.33066907387547E-15,1.,0.));
#547=DIRECTION('center_axis',(-1.,-3.33066907387547E-15,-3.97058729996246E-12));
#548=DIRECTION('ref_axis',(-3.97058729996246E-12,-1.32247123251077E-26,
1.));
#549=DIRECTION('',(3.97058729996246E-12,1.32247123251077E-26,-1.));
#550=DIRECTION('',(-3.97058729996246E-12,-1.32247123251077E-26,1.));
#551=DIRECTION('center_axis',(3.33066907387547E-15,-1.,0.));
#552=DIRECTION('ref_axis',(1.,3.33066907387547E-15,0.));
#553=DIRECTION('',(4.15166109392113E-12,1.38278092107351E-26,-1.));
#554=DIRECTION('center_axis',(-3.33066907387547E-15,1.,0.));
#555=DIRECTION('ref_axis',(-1.,-3.31625059303618E-15,-4.15075381317031E-12));
#556=DIRECTION('center_axis',(3.31625059303618E-15,-1.,0.));
#557=DIRECTION('ref_axis',(-1.,-3.31625059303618E-15,-4.15075381317031E-12));
#558=DIRECTION('',(3.31625059303618E-15,-1.,0.));
#559=DIRECTION('center_axis',(1.,3.31625059303618E-15,4.15166109392113E-12));
#560=DIRECTION('ref_axis',(-4.15166109392113E-12,-1.38278092107351E-26,
1.));
#561=DIRECTION('center_axis',(3.33066907387547E-15,-1.,0.));
#562=DIRECTION('ref_axis',(0.,0.,-1.));
#563=CARTESIAN_POINT('',(0.,0.,0.));
#564=CARTESIAN_POINT('Origin',(-2.34996398920396,14.8500000000003,53.5875000000673));
#565=CARTESIAN_POINT('',(-2.59996398919538,14.6000000000003,51.6500000001397));
#566=CARTESIAN_POINT('',(-2.09996398919538,15.1000000000003,51.650000000142));
#567=CARTESIAN_POINT('',(-2.59996398919538,14.6000000000003,51.6500000001397));
#568=CARTESIAN_POINT('',(-2.0999639892297,15.1000000000003,59.3999999998466));
#569=CARTESIAN_POINT('',(-2.09996398920396,15.1000000000003,53.5875000000684));
#570=CARTESIAN_POINT('',(-2.5999639892276,14.6000000000003,59.3999999998444));
#571=CARTESIAN_POINT('',(-2.0999639892297,15.1000000000003,59.3999999998466));
#572=CARTESIAN_POINT('',(-2.59996398920396,14.6000000000003,53.5875000000662));
#573=CARTESIAN_POINT('Origin',(3.60119333566167E-5,14.8500000000003,51.650000000152));
#574=CARTESIAN_POINT('',(2.60003601306397,14.6000000000003,51.650000000164));
#575=CARTESIAN_POINT('',(2.10003601306209,15.1000000000003,51.6500000001617));
#576=CARTESIAN_POINT('',(2.60003601306397,14.6000000000003,51.650000000164));
#577=CARTESIAN_POINT('Origin',(3.6011933355784E-5,15.1000000000003,51.650000000152));
#578=CARTESIAN_POINT('Origin',(3.60119333574493E-5,14.6000000000003,51.650000000152));
#579=CARTESIAN_POINT('Origin',(2.35003601303847,14.8500000000003,57.4624999999409));
#580=CARTESIAN_POINT('',(2.60003601302997,14.6000000000003,59.3999999998684));
#581=CARTESIAN_POINT('',(2.10003601302997,15.1000000000003,59.3999999998662));
#582=CARTESIAN_POINT('',(2.60003601302997,14.6000000000003,59.3999999998684));
#583=CARTESIAN_POINT('',(2.10003601303847,15.1000000000003,57.4624999999398));
#584=CARTESIAN_POINT('',(2.60003601303847,14.6000000000003,57.462499999942));
#585=CARTESIAN_POINT('Origin',(3.60119011817983E-5,14.8500000000003,59.3999999998564));
#586=CARTESIAN_POINT('Origin',(3.60119011809656E-5,15.1000000000003,59.3999999998564));
#587=CARTESIAN_POINT('Origin',(3.6011901182631E-5,14.6000000000003,59.3999999998564));
#588=CARTESIAN_POINT('Origin',(3.60119333574493E-5,12.0000000000003,51.650000000152));
#589=CARTESIAN_POINT('',(-2.59996398919538,12.0000000000003,51.6500000001397));
#590=CARTESIAN_POINT('',(-2.59996398919538,12.0000000000003,51.6500000001397));
#591=CARTESIAN_POINT('',(2.60003601306397,12.0000000000003,51.650000000164));
#592=CARTESIAN_POINT('Origin',(3.60119333574493E-5,12.0000000000003,51.650000000152));
#593=CARTESIAN_POINT('',(2.60003601306397,12.0000000000003,51.650000000164));
#594=CARTESIAN_POINT('Origin',(-2.59996398919538,12.0000000000003,51.6500000001397));
#595=CARTESIAN_POINT('',(-2.5999639892276,12.0000000000003,59.3999999998444));
#596=CARTESIAN_POINT('',(-2.5999639892276,12.0000000000003,59.3999999998444));
#597=CARTESIAN_POINT('',(-2.59996398920396,12.0000000000003,53.5875000000662));
#598=CARTESIAN_POINT('Origin',(3.6011917137424E-5,15.1000000000003,55.5250000000042));
#599=CARTESIAN_POINT('Origin',(3.60119333073563E-5,15.2500000000003,51.650000000152));
#600=CARTESIAN_POINT('',(-2.99996398919536,15.0000000000003,51.6500000001395));
#601=CARTESIAN_POINT('',(-2.49996398919536,15.5000000000003,51.6500000001416));
#602=CARTESIAN_POINT('',(-2.99996398919536,15.0000000000003,51.6500000001395));
#603=CARTESIAN_POINT('',(2.50003601306198,15.5000000000003,51.6500000001623));
#604=CARTESIAN_POINT('Origin',(3.60119333065236E-5,15.5000000000003,51.650000000152));
#605=CARTESIAN_POINT('',(3.00003601306198,15.0000000000003,51.6500000001644));
#606=CARTESIAN_POINT('',(2.50003601306198,15.5000000000003,51.6500000001623));
#607=CARTESIAN_POINT('Origin',(3.6011933308189E-5,15.0000000000003,51.650000000152));
#608=CARTESIAN_POINT('Origin',(-2.74996398921949,15.2500000000003,57.4624999999189));
#609=CARTESIAN_POINT('',(-2.99996398922753,15.0000000000003,59.3999999998439));
#610=CARTESIAN_POINT('',(-2.49996398922754,15.5000000000003,59.399999999846));
#611=CARTESIAN_POINT('',(-2.99996398922753,15.0000000000003,59.3999999998439));
#612=CARTESIAN_POINT('',(-2.49996398921949,15.5000000000003,57.4624999999199));
#613=CARTESIAN_POINT('',(-2.99996398921949,15.0000000000003,57.4624999999178));
#614=CARTESIAN_POINT('Origin',(3.60119011321164E-5,15.2500000000003,59.3999999998564));
#615=CARTESIAN_POINT('',(3.0000360130298,15.0000000000003,59.3999999998688));
#616=CARTESIAN_POINT('',(2.5000360130298,15.5000000000003,59.3999999998668));
#617=CARTESIAN_POINT('',(3.0000360130298,15.0000000000003,59.3999999998688));
#618=CARTESIAN_POINT('Origin',(3.60119011312837E-5,15.5000000000003,59.3999999998564));
#619=CARTESIAN_POINT('Origin',(3.60119011329491E-5,15.0000000000003,59.3999999998564));
#620=CARTESIAN_POINT('Origin',(2.75003601305393,15.2500000000003,53.5875000000895));
#621=CARTESIAN_POINT('',(2.50003601305393,15.5000000000003,53.5875000000885));
#622=CARTESIAN_POINT('',(3.00003601305393,15.0000000000003,53.5875000000905));
#623=CARTESIAN_POINT('Origin',(-2.99996398922754,15.5000000000003,59.3999999998439));
#624=CARTESIAN_POINT('',(-2.99996398919535,13.0000000000003,51.6500000001395));
#625=CARTESIAN_POINT('',(-2.99996398919536,15.5000000000003,51.6500000001395));
#626=CARTESIAN_POINT('',(-2.99996398922753,13.0000000000003,59.3999999998439));
#627=CARTESIAN_POINT('',(-2.99996398921948,13.0000000000003,57.4624999999178));
#628=CARTESIAN_POINT('',(-2.99996398922754,15.5000000000003,59.3999999998439));
#629=CARTESIAN_POINT('Origin',(3.60119333065308E-5,15.5000000000003,51.650000000152));
#630=CARTESIAN_POINT('',(3.00003601306198,13.0000000000003,51.6500000001644));
#631=CARTESIAN_POINT('',(3.00003601306197,15.5000000000003,51.6500000001644));
#632=CARTESIAN_POINT('Origin',(3.60119333148215E-5,13.0000000000003,51.650000000152));
#633=CARTESIAN_POINT('Origin',(3.60119172188034E-5,15.5000000000003,55.5250000000042));
#634=CARTESIAN_POINT('Origin',(2.60003601302997,12.0000000000003,59.3999999998684));
#635=CARTESIAN_POINT('',(2.60003601302997,12.0000000000003,59.3999999998684));
#636=CARTESIAN_POINT('',(2.60003601303847,12.0000000000003,57.462499999942));
#637=CARTESIAN_POINT('',(2.60003601302997,12.0000000000003,59.3999999998684));
#638=CARTESIAN_POINT('Origin',(3.6011901182631E-5,12.0000000000003,59.3999999998564));
#639=CARTESIAN_POINT('Origin',(3.6011901182631E-5,12.0000000000003,59.3999999998564));
#640=CARTESIAN_POINT('Origin',(3.60119333178699E-5,12.0000000000003,51.650000000152));
#641=CARTESIAN_POINT('',(-3.9999639891953,12.0000000000003,51.6500000001368));
#642=CARTESIAN_POINT('',(4.00003601306016,12.0000000000003,51.6500000001668));
#643=CARTESIAN_POINT('Origin',(3.60119333178699E-5,12.0000000000003,51.650000000152));
#644=CARTESIAN_POINT('',(-3.99996398919531,13.0000000000003,51.6500000001368));
#645=CARTESIAN_POINT('',(-3.9999639891953,12.0000000000003,51.6500000001368));
#646=CARTESIAN_POINT('',(4.00003601306015,13.0000000000003,51.6500000001668));
#647=CARTESIAN_POINT('Origin',(3.60119333145392E-5,13.0000000000003,51.650000000152));
#648=CARTESIAN_POINT('',(4.00003601306016,12.0000000000003,51.6500000001668));
#649=CARTESIAN_POINT('Origin',(4.0000360130297,12.0000000000003,59.3999999998712));
#650=CARTESIAN_POINT('',(4.0000360130297,12.0000000000003,59.3999999998712));
#651=CARTESIAN_POINT('',(4.00003601306016,12.0000000000003,51.6500000001668));
#652=CARTESIAN_POINT('',(4.0000360130297,13.0000000000003,59.3999999998712));
#653=CARTESIAN_POINT('',(4.00003601306015,13.0000000000003,51.6500000001668));
#654=CARTESIAN_POINT('',(4.0000360130297,12.0000000000003,59.3999999998712));
#655=CARTESIAN_POINT('Origin',(3.60119011430515E-5,12.0000000000003,59.3999999998564));
#656=CARTESIAN_POINT('',(-3.99996398922608,12.0000000000003,59.3999999998412));
#657=CARTESIAN_POINT('Origin',(3.60119011430515E-5,12.0000000000003,59.3999999998564));
#658=CARTESIAN_POINT('',(-3.99996398922608,13.0000000000003,59.3999999998412));
#659=CARTESIAN_POINT('Origin',(3.60119011397209E-5,13.0000000000003,59.3999999998564));
#660=CARTESIAN_POINT('',(-3.99996398922608,12.0000000000003,59.3999999998412));
#661=CARTESIAN_POINT('Origin',(-3.9999639891953,12.0000000000003,51.6500000001368));
#662=CARTESIAN_POINT('',(-3.99996398922608,12.0000000000003,59.3999999998412));
#663=CARTESIAN_POINT('',(-3.99996398922608,13.0000000000003,59.3999999998412));
#664=CARTESIAN_POINT('Origin',(3.60119172604367E-5,13.0000000000003,55.5250000000041));
#665=CARTESIAN_POINT('',(3.00003601302981,13.0000000000003,59.3999999998688));
#666=CARTESIAN_POINT('',(3.00003601305394,13.0000000000003,53.5875000000905));
#667=CARTESIAN_POINT('Origin',(3.60119011395816E-5,13.0000000000003,59.3999999998564));
#668=CARTESIAN_POINT('Origin',(3.60119011312909E-5,15.5000000000003,59.3999999998564));
#669=CARTESIAN_POINT('',(3.0000360130298,15.5000000000003,59.3999999998688));
#670=CARTESIAN_POINT('Origin',(3.00003601306197,15.5000000000003,51.6500000001644));
#671=CARTESIAN_POINT('Origin',(3.60119172301832E-5,12.0000000000003,55.5250000000042));
#672=UNCERTAINTY_MEASURE_WITH_UNIT(LENGTH_MEASURE(0.01),#676,
'DISTANCE_ACCURACY_VALUE',
'Maximum model space distance between geometric entities at asserted c
onnectivities');
#673=UNCERTAINTY_MEASURE_WITH_UNIT(LENGTH_MEASURE(0.01),#676,
'DISTANCE_ACCURACY_VALUE',
'Maximum model space distance between geometric entities at asserted c
onnectivities');
#674=(
GEOMETRIC_REPRESENTATION_CONTEXT(3)
GLOBAL_UNCERTAINTY_ASSIGNED_CONTEXT((#672))
GLOBAL_UNIT_ASSIGNED_CONTEXT((#676,#678,#679))
REPRESENTATION_CONTEXT('','3D')
);
#675=(
GEOMETRIC_REPRESENTATION_CONTEXT(3)
GLOBAL_UNCERTAINTY_ASSIGNED_CONTEXT((#673))
GLOBAL_UNIT_ASSIGNED_CONTEXT((#676,#678,#679))
REPRESENTATION_CONTEXT('','3D')
);
#676=(
LENGTH_UNIT()
NAMED_UNIT(*)
SI_UNIT(.MILLI.,.METRE.)
);
#677=(
LENGTH_UNIT()
NAMED_UNIT(*)
SI_UNIT($,.METRE.)
);
#678=(
NAMED_UNIT(*)
PLANE_ANGLE_UNIT()
SI_UNIT($,.RADIAN.)
);
#679=(
NAMED_UNIT(*)
SI_UNIT($,.STERADIAN.)
SOLID_ANGLE_UNIT()
);
#680=SHAPE_DEFINITION_REPRESENTATION(#681,#682);
#681=PRODUCT_DEFINITION_SHAPE('',$,#684);
#682=SHAPE_REPRESENTATION('',(#404),#674);
#683=PRODUCT_DEFINITION_CONTEXT('part definition',#688,'design');
#684=PRODUCT_DEFINITION('2026-08-29-11-09-28-649','(Unsaved)',#685,#683);
#685=PRODUCT_DEFINITION_FORMATION('',$,#690);
#686=PRODUCT_RELATED_PRODUCT_CATEGORY('(Unsaved)','(Unsaved)',(#690));
#687=APPLICATION_PROTOCOL_DEFINITION('international standard',
'automotive_design',2009,#688);
#688=APPLICATION_CONTEXT(
'Core Data for Automotive Mechanical Design Process');
#689=PRODUCT_CONTEXT('part definition',#688,'mechanical');
#690=PRODUCT('2026-08-29-11-09-28-649','(Unsaved)',$,(#689));
#691=PRESENTATION_STYLE_ASSIGNMENT((#692));
#692=SURFACE_STYLE_USAGE(.BOTH.,#693);
#693=SURFACE_SIDE_STYLE('',(#694));
#694=SURFACE_STYLE_FILL_AREA(#695);
#695=FILL_AREA_STYLE('Steel - Satin',(#696));
#696=FILL_AREA_STYLE_COLOUR('Steel - Satin',#697);
#697=COLOUR_RGB('Steel - Satin',0.627450980392157,0.627450980392157,0.627450980392157);
ENDSEC;
END-ISO-10303-21;
