ISO-10303-21;
HEADER;
/* Generated by software containing ST-Developer
 * from STEP Tools, Inc. (www.steptools.com) 
 */

FILE_DESCRIPTION(
/* description */ (''),
/* implementation_level */ '2;1');

FILE_NAME(
/* name */ 'freestanding-base-power-cable-cap_v1.0.step',
/* time_stamp */ '2026-08-29T11:09:33-05:00',
/* author */ (''),
/* organization */ (''),
/* preprocessor_version */ 'ST-DEVELOPER v20.1',
/* originating_system */ 'Autodesk Translation Framework v15.8.0.0',
/* authorisation */ '');

FILE_SCHEMA (('AUTOMOTIVE_DESIGN { 1 0 10303 214 3 1 1 }'));
ENDSEC;

DATA;
#10=MECHANICAL_DESIGN_GEOMETRIC_PRESENTATION_REPRESENTATION('',(#13),#695);
#11=SHAPE_REPRESENTATION_RELATIONSHIP('SRR','None',#702,#12);
#12=ADVANCED_BREP_SHAPE_REPRESENTATION('',(#14),#694);
#13=STYLED_ITEM('',(#711),#14);
#14=MANIFOLD_SOLID_BREP('Body1',#347);
#15=FACE_BOUND('',#68,.T.);
#16=FACE_BOUND('',#78,.T.);
#17=CONICAL_SURFACE('',#370,4.86,0.785398163397447);
#18=CIRCLE('',#365,5.16);
#19=CIRCLE('',#366,5.16);
#20=CIRCLE('',#369,4.56);
#21=CIRCLE('',#371,5.16);
#22=CIRCLE('',#372,4.56);
#23=CIRCLE('',#373,4.56);
#24=CIRCLE('',#375,4.56);
#25=CIRCLE('',#376,4.56);
#26=CIRCLE('',#377,4.56);
#27=CIRCLE('',#379,5.5);
#28=CIRCLE('',#384,5.5);
#29=CIRCLE('',#389,5.5);
#30=CIRCLE('',#391,5.5);
#31=PLANE('',#362);
#32=PLANE('',#367);
#33=PLANE('',#368);
#34=PLANE('',#378);
#35=PLANE('',#381);
#36=PLANE('',#383);
#37=PLANE('',#386);
#38=PLANE('',#388);
#39=PLANE('',#392);
#40=FACE_OUTER_BOUND('',#59,.T.);
#41=FACE_OUTER_BOUND('',#60,.T.);
#42=FACE_OUTER_BOUND('',#61,.T.);
#43=FACE_OUTER_BOUND('',#62,.T.);
#44=FACE_OUTER_BOUND('',#63,.T.);
#45=FACE_OUTER_BOUND('',#64,.T.);
#46=FACE_OUTER_BOUND('',#65,.T.);
#47=FACE_OUTER_BOUND('',#66,.T.);
#48=FACE_OUTER_BOUND('',#67,.T.);
#49=FACE_OUTER_BOUND('',#69,.T.);
#50=FACE_OUTER_BOUND('',#70,.T.);
#51=FACE_OUTER_BOUND('',#71,.T.);
#52=FACE_OUTER_BOUND('',#72,.T.);
#53=FACE_OUTER_BOUND('',#73,.T.);
#54=FACE_OUTER_BOUND('',#74,.T.);
#55=FACE_OUTER_BOUND('',#75,.T.);
#56=FACE_OUTER_BOUND('',#76,.T.);
#57=FACE_OUTER_BOUND('',#77,.T.);
#58=FACE_OUTER_BOUND('',#79,.T.);
#59=EDGE_LOOP('',(#221,#222,#223,#224));
#60=EDGE_LOOP('',(#225,#226,#227,#228));
#61=EDGE_LOOP('',(#229,#230,#231,#232));
#62=EDGE_LOOP('',(#233,#234,#235,#236,#237,#238));
#63=EDGE_LOOP('',(#239,#240,#241,#242));
#64=EDGE_LOOP('',(#243,#244,#245,#246));
#65=EDGE_LOOP('',(#247,#248,#249,#250,#251));
#66=EDGE_LOOP('',(#252,#253,#254,#255,#256,#257,#258,#259,#260,#261,#262,
#263,#264,#265,#266,#267,#268,#269));
#67=EDGE_LOOP('',(#270));
#68=EDGE_LOOP('',(#271,#272));
#69=EDGE_LOOP('',(#273,#274,#275,#276));
#70=EDGE_LOOP('',(#277,#278,#279,#280));
#71=EDGE_LOOP('',(#281,#282,#283,#284));
#72=EDGE_LOOP('',(#285,#286,#287,#288));
#73=EDGE_LOOP('',(#289,#290,#291,#292));
#74=EDGE_LOOP('',(#293,#294,#295,#296));
#75=EDGE_LOOP('',(#297,#298,#299,#300));
#76=EDGE_LOOP('',(#301,#302,#303,#304,#305));
#77=EDGE_LOOP('',(#306,#307,#308,#309));
#78=EDGE_LOOP('',(#310,#311,#312,#313,#314,#315,#316,#317));
#79=EDGE_LOOP('',(#318));
#80=LINE('',#498,#104);
#81=LINE('',#510,#105);
#82=LINE('',#513,#106);
#83=LINE('',#515,#107);
#84=LINE('',#516,#108);
#85=LINE('',#531,#109);
#86=LINE('',#543,#110);
#87=LINE('',#547,#111);
#88=LINE('',#551,#112);
#89=LINE('',#552,#113);
#90=LINE('',#562,#114);
#91=LINE('',#577,#115);
#92=LINE('',#603,#116);
#93=LINE('',#621,#117);
#94=LINE('',#633,#118);
#95=LINE('',#636,#119);
#96=LINE('',#637,#120);
#97=LINE('',#640,#121);
#98=LINE('',#652,#122);
#99=LINE('',#657,#123);
#100=LINE('',#669,#124);
#101=LINE('',#671,#125);
#102=LINE('',#674,#126);
#103=LINE('',#689,#127);
#104=VECTOR('',#397,10.);
#105=VECTOR('',#398,10.);
#106=VECTOR('',#401,10.);
#107=VECTOR('',#402,10.);
#108=VECTOR('',#403,10.);
#109=VECTOR('',#406,10.);
#110=VECTOR('',#407,10.);
#111=VECTOR('',#412,10.);
#112=VECTOR('',#417,10.);
#113=VECTOR('',#418,10.);
#114=VECTOR('',#433,4.56);
#115=VECTOR('',#436,10.);
#116=VECTOR('',#439,10.);
#117=VECTOR('',#448,10.);
#118=VECTOR('',#449,10.);
#119=VECTOR('',#452,10.);
#120=VECTOR('',#453,10.);
#121=VECTOR('',#456,10.);
#122=VECTOR('',#457,10.);
#123=VECTOR('',#464,10.);
#124=VECTOR('',#465,10.);
#125=VECTOR('',#468,10.);
#126=VECTOR('',#471,10.);
#127=VECTOR('',#478,5.5);
#128=B_SPLINE_CURVE_WITH_KNOTS('',3,(#487,#488,#489,#490,#491,#492,#493,
#494,#495,#496),.UNSPECIFIED.,.F.,.F.,(4,2,2,2,4),(0.151137541689896,0.169973058827733,
0.188808575965571,0.207680133896679,0.226551691827788),.UNSPECIFIED.);
#129=B_SPLINE_CURVE_WITH_KNOTS('',3,(#500,#501,#502,#503,#504,#505,#506,
#507,#508,#509),.UNSPECIFIED.,.F.,.F.,(4,2,2,2,4),(0.151270259133653,0.170106108113004,
0.188941957092356,0.207824020413,0.226706083733644),.UNSPECIFIED.);
#130=B_SPLINE_CURVE_WITH_KNOTS('',3,(#520,#521,#522,#523,#524,#525,#526,
#527,#528,#529),.UNSPECIFIED.,.F.,.F.,(4,2,2,2,4),(0.0757233359380669,0.0945948938691754,
0.113466451800284,0.132301968938121,0.151137486075959),.UNSPECIFIED.);
#131=B_SPLINE_CURVE_WITH_KNOTS('',3,(#533,#534,#535,#536,#537,#538,#539,
#540,#541,#542),.UNSPECIFIED.,.F.,.F.,(4,2,2,2,4),(0.0758344345336614,0.0947164978543052,
0.113598561174949,0.132434410154301,0.151270259133653),.UNSPECIFIED.);
#132=B_SPLINE_CURVE_WITH_KNOTS('',3,(#566,#567,#568,#569,#570,#571,#572,
#573,#574,#575),.UNSPECIFIED.,.F.,.F.,(4,2,2,2,4),(0.317163090248821,0.356732861616273,
0.396302632983725,0.438022652628618,0.47974267227351),.UNSPECIFIED.);
#133=B_SPLINE_CURVE_WITH_KNOTS('',3,(#579,#580,#581,#582,#583,#584,#585,
#586,#587,#588),.UNSPECIFIED.,.F.,.F.,(4,2,2,2,4),(0.154623460928329,0.19786049809049,
0.24109753525265,0.279130312750736,0.317163090248821),.UNSPECIFIED.);
#134=B_SPLINE_CURVE_WITH_KNOTS('',3,(#592,#593,#594,#595,#596,#597,#598,
#599,#600,#601),.UNSPECIFIED.,.F.,.F.,(4,2,2,2,4),(0.,0.0380327774980855,
0.076065554996171,0.119302592158332,0.162539629320492),.UNSPECIFIED.);
#135=B_SPLINE_CURVE_WITH_KNOTS('',3,(#605,#606,#607,#608,#609,#610,#611,
#612,#613,#614),.UNSPECIFIED.,.F.,.F.,(4,2,2,2,4),(0.15462280373067,0.196342823375562,
0.238062843020455,0.277632614387907,0.317202385755359),.UNSPECIFIED.);
#136=B_SPLINE_CURVE_WITH_KNOTS('',3,(#623,#624,#625,#626,#627,#628,#629,
#630,#631,#632),.UNSPECIFIED.,.F.,.F.,(4,2,2,2,4),(0.,0.0378413671146818,
0.0756827342293636,0.11690341217845,0.158124090127536),.UNSPECIFIED.);
#137=B_SPLINE_CURVE_WITH_KNOTS('',3,(#642,#643,#644,#645,#646,#647,#648,
#649,#650,#651),.UNSPECIFIED.,.F.,.F.,(4,2,2,2,4),(0.15330937765033,0.194530055599416,
0.235750733548502,0.273592100663184,0.311433467777866),.UNSPECIFIED.);
#138=B_SPLINE_CURVE_WITH_KNOTS('',3,(#659,#660,#661,#662,#663,#664,#665,
#666,#667,#668),.UNSPECIFIED.,.F.,.F.,(4,2,2,2,4),(0.,0.0378413671146818,
0.0756827342293636,0.11690341217845,0.158124090127536),.UNSPECIFIED.);
#139=B_SPLINE_CURVE_WITH_KNOTS('',3,(#675,#676,#677,#678,#679,#680,#681,
#682,#683,#684),.UNSPECIFIED.,.F.,.F.,(4,2,2,2,4),(-0.158124090127536,-0.11690341217845,
-0.0756827342293636,-0.0378413671146818,0.),.UNSPECIFIED.);
#140=VERTEX_POINT('',#485);
#141=VERTEX_POINT('',#486);
#142=VERTEX_POINT('',#497);
#143=VERTEX_POINT('',#499);
#144=VERTEX_POINT('',#512);
#145=VERTEX_POINT('',#514);
#146=VERTEX_POINT('',#518);
#147=VERTEX_POINT('',#519);
#148=VERTEX_POINT('',#530);
#149=VERTEX_POINT('',#532);
#150=VERTEX_POINT('',#546);
#151=VERTEX_POINT('',#550);
#152=VERTEX_POINT('',#557);
#153=VERTEX_POINT('',#561);
#154=VERTEX_POINT('',#563);
#155=VERTEX_POINT('',#565);
#156=VERTEX_POINT('',#576);
#157=VERTEX_POINT('',#578);
#158=VERTEX_POINT('',#589);
#159=VERTEX_POINT('',#591);
#160=VERTEX_POINT('',#602);
#161=VERTEX_POINT('',#604);
#162=VERTEX_POINT('',#617);
#163=VERTEX_POINT('',#620);
#164=VERTEX_POINT('',#622);
#165=VERTEX_POINT('',#635);
#166=VERTEX_POINT('',#639);
#167=VERTEX_POINT('',#641);
#168=VERTEX_POINT('',#656);
#169=VERTEX_POINT('',#658);
#170=VERTEX_POINT('',#673);
#171=VERTEX_POINT('',#688);
#172=EDGE_CURVE('',#140,#141,#128,.T.);
#173=EDGE_CURVE('',#140,#142,#80,.T.);
#174=EDGE_CURVE('',#142,#143,#129,.T.);
#175=EDGE_CURVE('',#143,#141,#81,.T.);
#176=EDGE_CURVE('',#144,#140,#82,.T.);
#177=EDGE_CURVE('',#145,#144,#83,.T.);
#178=EDGE_CURVE('',#142,#145,#84,.T.);
#179=EDGE_CURVE('',#146,#147,#130,.T.);
#180=EDGE_CURVE('',#146,#148,#85,.T.);
#181=EDGE_CURVE('',#148,#149,#131,.T.);
#182=EDGE_CURVE('',#149,#147,#86,.T.);
#183=EDGE_CURVE('',#141,#146,#18,.T.);
#184=EDGE_CURVE('',#150,#147,#87,.T.);
#185=EDGE_CURVE('',#150,#144,#19,.T.);
#186=EDGE_CURVE('',#151,#149,#88,.T.);
#187=EDGE_CURVE('',#150,#151,#89,.T.);
#188=EDGE_CURVE('',#148,#143,#20,.T.);
#189=EDGE_CURVE('',#144,#150,#21,.T.);
#190=EDGE_CURVE('',#151,#152,#22,.T.);
#191=EDGE_CURVE('',#152,#145,#23,.T.);
#192=EDGE_CURVE('',#152,#153,#90,.T.);
#193=EDGE_CURVE('',#153,#154,#24,.T.);
#194=EDGE_CURVE('',#155,#154,#132,.T.);
#195=EDGE_CURVE('',#156,#155,#91,.T.);
#196=EDGE_CURVE('',#157,#156,#133,.T.);
#197=EDGE_CURVE('',#158,#157,#25,.T.);
#198=EDGE_CURVE('',#159,#158,#134,.T.);
#199=EDGE_CURVE('',#159,#160,#92,.T.);
#200=EDGE_CURVE('',#161,#160,#135,.T.);
#201=EDGE_CURVE('',#161,#153,#26,.T.);
#202=EDGE_CURVE('',#162,#162,#27,.T.);
#203=EDGE_CURVE('',#156,#163,#93,.T.);
#204=EDGE_CURVE('',#163,#164,#136,.T.);
#205=EDGE_CURVE('',#164,#157,#94,.T.);
#206=EDGE_CURVE('',#165,#155,#95,.T.);
#207=EDGE_CURVE('',#163,#165,#96,.T.);
#208=EDGE_CURVE('',#158,#166,#97,.T.);
#209=EDGE_CURVE('',#166,#167,#137,.T.);
#210=EDGE_CURVE('',#167,#159,#98,.T.);
#211=EDGE_CURVE('',#166,#164,#28,.T.);
#212=EDGE_CURVE('',#160,#168,#99,.T.);
#213=EDGE_CURVE('',#168,#169,#138,.T.);
#214=EDGE_CURVE('',#169,#161,#100,.T.);
#215=EDGE_CURVE('',#168,#167,#101,.T.);
#216=EDGE_CURVE('',#154,#170,#102,.T.);
#217=EDGE_CURVE('',#170,#165,#139,.T.);
#218=EDGE_CURVE('',#170,#169,#29,.T.);
#219=EDGE_CURVE('',#162,#171,#103,.T.);
#220=EDGE_CURVE('',#171,#171,#30,.T.);
#221=ORIENTED_EDGE('',*,*,#172,.F.);
#222=ORIENTED_EDGE('',*,*,#173,.T.);
#223=ORIENTED_EDGE('',*,*,#174,.T.);
#224=ORIENTED_EDGE('',*,*,#175,.T.);
#225=ORIENTED_EDGE('',*,*,#173,.F.);
#226=ORIENTED_EDGE('',*,*,#176,.F.);
#227=ORIENTED_EDGE('',*,*,#177,.F.);
#228=ORIENTED_EDGE('',*,*,#178,.F.);
#229=ORIENTED_EDGE('',*,*,#179,.F.);
#230=ORIENTED_EDGE('',*,*,#180,.T.);
#231=ORIENTED_EDGE('',*,*,#181,.T.);
#232=ORIENTED_EDGE('',*,*,#182,.T.);
#233=ORIENTED_EDGE('',*,*,#172,.T.);
#234=ORIENTED_EDGE('',*,*,#183,.T.);
#235=ORIENTED_EDGE('',*,*,#179,.T.);
#236=ORIENTED_EDGE('',*,*,#184,.F.);
#237=ORIENTED_EDGE('',*,*,#185,.T.);
#238=ORIENTED_EDGE('',*,*,#176,.T.);
#239=ORIENTED_EDGE('',*,*,#182,.F.);
#240=ORIENTED_EDGE('',*,*,#186,.F.);
#241=ORIENTED_EDGE('',*,*,#187,.F.);
#242=ORIENTED_EDGE('',*,*,#184,.T.);
#243=ORIENTED_EDGE('',*,*,#175,.F.);
#244=ORIENTED_EDGE('',*,*,#188,.F.);
#245=ORIENTED_EDGE('',*,*,#180,.F.);
#246=ORIENTED_EDGE('',*,*,#183,.F.);
#247=ORIENTED_EDGE('',*,*,#177,.T.);
#248=ORIENTED_EDGE('',*,*,#189,.T.);
#249=ORIENTED_EDGE('',*,*,#187,.T.);
#250=ORIENTED_EDGE('',*,*,#190,.T.);
#251=ORIENTED_EDGE('',*,*,#191,.T.);
#252=ORIENTED_EDGE('',*,*,#178,.T.);
#253=ORIENTED_EDGE('',*,*,#191,.F.);
#254=ORIENTED_EDGE('',*,*,#192,.T.);
#255=ORIENTED_EDGE('',*,*,#193,.T.);
#256=ORIENTED_EDGE('',*,*,#194,.F.);
#257=ORIENTED_EDGE('',*,*,#195,.F.);
#258=ORIENTED_EDGE('',*,*,#196,.F.);
#259=ORIENTED_EDGE('',*,*,#197,.F.);
#260=ORIENTED_EDGE('',*,*,#198,.F.);
#261=ORIENTED_EDGE('',*,*,#199,.T.);
#262=ORIENTED_EDGE('',*,*,#200,.F.);
#263=ORIENTED_EDGE('',*,*,#201,.T.);
#264=ORIENTED_EDGE('',*,*,#192,.F.);
#265=ORIENTED_EDGE('',*,*,#190,.F.);
#266=ORIENTED_EDGE('',*,*,#186,.T.);
#267=ORIENTED_EDGE('',*,*,#181,.F.);
#268=ORIENTED_EDGE('',*,*,#188,.T.);
#269=ORIENTED_EDGE('',*,*,#174,.F.);
#270=ORIENTED_EDGE('',*,*,#202,.T.);
#271=ORIENTED_EDGE('',*,*,#189,.F.);
#272=ORIENTED_EDGE('',*,*,#185,.F.);
#273=ORIENTED_EDGE('',*,*,#196,.T.);
#274=ORIENTED_EDGE('',*,*,#203,.T.);
#275=ORIENTED_EDGE('',*,*,#204,.T.);
#276=ORIENTED_EDGE('',*,*,#205,.T.);
#277=ORIENTED_EDGE('',*,*,#203,.F.);
#278=ORIENTED_EDGE('',*,*,#195,.T.);
#279=ORIENTED_EDGE('',*,*,#206,.F.);
#280=ORIENTED_EDGE('',*,*,#207,.F.);
#281=ORIENTED_EDGE('',*,*,#198,.T.);
#282=ORIENTED_EDGE('',*,*,#208,.T.);
#283=ORIENTED_EDGE('',*,*,#209,.T.);
#284=ORIENTED_EDGE('',*,*,#210,.T.);
#285=ORIENTED_EDGE('',*,*,#205,.F.);
#286=ORIENTED_EDGE('',*,*,#211,.F.);
#287=ORIENTED_EDGE('',*,*,#208,.F.);
#288=ORIENTED_EDGE('',*,*,#197,.T.);
#289=ORIENTED_EDGE('',*,*,#200,.T.);
#290=ORIENTED_EDGE('',*,*,#212,.T.);
#291=ORIENTED_EDGE('',*,*,#213,.T.);
#292=ORIENTED_EDGE('',*,*,#214,.T.);
#293=ORIENTED_EDGE('',*,*,#210,.F.);
#294=ORIENTED_EDGE('',*,*,#215,.F.);
#295=ORIENTED_EDGE('',*,*,#212,.F.);
#296=ORIENTED_EDGE('',*,*,#199,.F.);
#297=ORIENTED_EDGE('',*,*,#194,.T.);
#298=ORIENTED_EDGE('',*,*,#216,.T.);
#299=ORIENTED_EDGE('',*,*,#217,.T.);
#300=ORIENTED_EDGE('',*,*,#206,.T.);
#301=ORIENTED_EDGE('',*,*,#214,.F.);
#302=ORIENTED_EDGE('',*,*,#218,.F.);
#303=ORIENTED_EDGE('',*,*,#216,.F.);
#304=ORIENTED_EDGE('',*,*,#193,.F.);
#305=ORIENTED_EDGE('',*,*,#201,.F.);
#306=ORIENTED_EDGE('',*,*,#202,.F.);
#307=ORIENTED_EDGE('',*,*,#219,.T.);
#308=ORIENTED_EDGE('',*,*,#220,.T.);
#309=ORIENTED_EDGE('',*,*,#219,.F.);
#310=ORIENTED_EDGE('',*,*,#207,.T.);
#311=ORIENTED_EDGE('',*,*,#217,.F.);
#312=ORIENTED_EDGE('',*,*,#218,.T.);
#313=ORIENTED_EDGE('',*,*,#213,.F.);
#314=ORIENTED_EDGE('',*,*,#215,.T.);
#315=ORIENTED_EDGE('',*,*,#209,.F.);
#316=ORIENTED_EDGE('',*,*,#211,.T.);
#317=ORIENTED_EDGE('',*,*,#204,.F.);
#318=ORIENTED_EDGE('',*,*,#220,.F.);
#319=CYLINDRICAL_SURFACE('',#361,0.5);
#320=CYLINDRICAL_SURFACE('',#363,0.5);
#321=CYLINDRICAL_SURFACE('',#364,5.16);
#322=CYLINDRICAL_SURFACE('',#374,4.56);
#323=CYLINDRICAL_SURFACE('',#380,1.);
#324=CYLINDRICAL_SURFACE('',#382,1.);
#325=CYLINDRICAL_SURFACE('',#385,1.);
#326=CYLINDRICAL_SURFACE('',#387,1.);
#327=CYLINDRICAL_SURFACE('',#390,5.5);
#328=ADVANCED_FACE('',(#40),#319,.F.);
#329=ADVANCED_FACE('',(#41),#31,.F.);
#330=ADVANCED_FACE('',(#42),#320,.F.);
#331=ADVANCED_FACE('',(#43),#321,.F.);
#332=ADVANCED_FACE('',(#44),#32,.F.);
#333=ADVANCED_FACE('',(#45),#33,.T.);
#334=ADVANCED_FACE('',(#46),#17,.F.);
#335=ADVANCED_FACE('',(#47),#322,.F.);
#336=ADVANCED_FACE('',(#48,#15),#34,.T.);
#337=ADVANCED_FACE('',(#49),#323,.F.);
#338=ADVANCED_FACE('',(#50),#35,.F.);
#339=ADVANCED_FACE('',(#51),#324,.F.);
#340=ADVANCED_FACE('',(#52),#36,.F.);
#341=ADVANCED_FACE('',(#53),#325,.F.);
#342=ADVANCED_FACE('',(#54),#37,.F.);
#343=ADVANCED_FACE('',(#55),#326,.F.);
#344=ADVANCED_FACE('',(#56),#38,.T.);
#345=ADVANCED_FACE('',(#57,#16),#327,.T.);
#346=ADVANCED_FACE('',(#58),#39,.F.);
#347=CLOSED_SHELL('',(#328,#329,#330,#331,#332,#333,#334,#335,#336,#337,
#338,#339,#340,#341,#342,#343,#344,#345,#346));
#348=DERIVED_UNIT_ELEMENT(#350,1.);
#349=DERIVED_UNIT_ELEMENT(#697,-3.);
#350=(
MASS_UNIT()
NAMED_UNIT(*)
SI_UNIT(.KILO.,.GRAM.)
);
#351=DERIVED_UNIT((#348,#349));
#352=MEASURE_REPRESENTATION_ITEM('density measure',
POSITIVE_RATIO_MEASURE(7850.),#351);
#353=PROPERTY_DEFINITION_REPRESENTATION(#358,#355);
#354=PROPERTY_DEFINITION_REPRESENTATION(#359,#356);
#355=REPRESENTATION('material name',(#357),#694);
#356=REPRESENTATION('density',(#352),#694);
#357=DESCRIPTIVE_REPRESENTATION_ITEM('Steel','Steel');
#358=PROPERTY_DEFINITION('material property','material name',#704);
#359=PROPERTY_DEFINITION('material property','density of part',#704);
#360=AXIS2_PLACEMENT_3D('',#483,#393,#394);
#361=AXIS2_PLACEMENT_3D('',#484,#395,#396);
#362=AXIS2_PLACEMENT_3D('',#511,#399,#400);
#363=AXIS2_PLACEMENT_3D('',#517,#404,#405);
#364=AXIS2_PLACEMENT_3D('',#544,#408,#409);
#365=AXIS2_PLACEMENT_3D('',#545,#410,#411);
#366=AXIS2_PLACEMENT_3D('',#548,#413,#414);
#367=AXIS2_PLACEMENT_3D('',#549,#415,#416);
#368=AXIS2_PLACEMENT_3D('',#553,#419,#420);
#369=AXIS2_PLACEMENT_3D('',#554,#421,#422);
#370=AXIS2_PLACEMENT_3D('',#555,#423,#424);
#371=AXIS2_PLACEMENT_3D('',#556,#425,#426);
#372=AXIS2_PLACEMENT_3D('',#558,#427,#428);
#373=AXIS2_PLACEMENT_3D('',#559,#429,#430);
#374=AXIS2_PLACEMENT_3D('',#560,#431,#432);
#375=AXIS2_PLACEMENT_3D('',#564,#434,#435);
#376=AXIS2_PLACEMENT_3D('',#590,#437,#438);
#377=AXIS2_PLACEMENT_3D('',#615,#440,#441);
#378=AXIS2_PLACEMENT_3D('',#616,#442,#443);
#379=AXIS2_PLACEMENT_3D('',#618,#444,#445);
#380=AXIS2_PLACEMENT_3D('',#619,#446,#447);
#381=AXIS2_PLACEMENT_3D('',#634,#450,#451);
#382=AXIS2_PLACEMENT_3D('',#638,#454,#455);
#383=AXIS2_PLACEMENT_3D('',#653,#458,#459);
#384=AXIS2_PLACEMENT_3D('',#654,#460,#461);
#385=AXIS2_PLACEMENT_3D('',#655,#462,#463);
#386=AXIS2_PLACEMENT_3D('',#670,#466,#467);
#387=AXIS2_PLACEMENT_3D('',#672,#469,#470);
#388=AXIS2_PLACEMENT_3D('',#685,#472,#473);
#389=AXIS2_PLACEMENT_3D('',#686,#474,#475);
#390=AXIS2_PLACEMENT_3D('',#687,#476,#477);
#391=AXIS2_PLACEMENT_3D('',#690,#479,#480);
#392=AXIS2_PLACEMENT_3D('',#691,#481,#482);
#393=DIRECTION('axis',(0.,0.,1.));
#394=DIRECTION('refdir',(1.,0.,0.));
#395=DIRECTION('center_axis',(-0.984807753012208,0.,-0.17364817766693));
#396=DIRECTION('ref_axis',(-0.122787803968973,-0.707106781186547,0.696364240320019));
#397=DIRECTION('',(0.984807753012208,0.,0.17364817766693));
#398=DIRECTION('',(-0.984807753012208,0.,-0.17364817766693));
#399=DIRECTION('center_axis',(-0.17364817766693,0.,0.984807753012208));
#400=DIRECTION('ref_axis',(-0.984807753012208,0.,-0.17364817766693));
#401=DIRECTION('',(0.,-1.,0.));
#402=DIRECTION('',(-0.696364240320018,0.707106781186548,-0.122787803968973));
#403=DIRECTION('',(0.,1.,0.));
#404=DIRECTION('center_axis',(0.642787609686539,0.,0.766044443118978));
#405=DIRECTION('ref_axis',(0.541675220419702,-0.707106781186547,-0.454519477672044));
#406=DIRECTION('',(0.642787609686539,0.,0.766044443118978));
#407=DIRECTION('',(-0.642787609686539,0.,-0.766044443118978));
#408=DIRECTION('center_axis',(0.,-1.,0.));
#409=DIRECTION('ref_axis',(-1.,0.,0.));
#410=DIRECTION('center_axis',(0.,-1.,0.));
#411=DIRECTION('ref_axis',(-1.,0.,0.));
#412=DIRECTION('',(0.,-1.,0.));
#413=DIRECTION('center_axis',(0.,1.,0.));
#414=DIRECTION('ref_axis',(-1.,0.,0.));
#415=DIRECTION('center_axis',(0.766044443118978,0.,-0.642787609686539));
#416=DIRECTION('ref_axis',(0.642787609686539,0.,0.766044443118978));
#417=DIRECTION('',(0.,-1.,0.));
#418=DIRECTION('',(0.454519477672043,-0.707106781186548,0.541675220419701));
#419=DIRECTION('center_axis',(0.,1.,0.));
#420=DIRECTION('ref_axis',(-1.,0.,0.));
#421=DIRECTION('center_axis',(0.,1.,0.));
#422=DIRECTION('ref_axis',(-1.,0.,0.));
#423=DIRECTION('center_axis',(0.,1.,0.));
#424=DIRECTION('ref_axis',(0.866025403784439,0.,0.5));
#425=DIRECTION('center_axis',(0.,1.,0.));
#426=DIRECTION('ref_axis',(-1.,0.,0.));
#427=DIRECTION('center_axis',(0.,-1.,0.));
#428=DIRECTION('ref_axis',(-1.,0.,0.));
#429=DIRECTION('center_axis',(0.,-1.,0.));
#430=DIRECTION('ref_axis',(-1.,0.,0.));
#431=DIRECTION('center_axis',(0.,-1.,0.));
#432=DIRECTION('ref_axis',(-1.,0.,0.));
#433=DIRECTION('',(0.,-1.,0.));
#434=DIRECTION('center_axis',(0.,-1.,0.));
#435=DIRECTION('ref_axis',(-1.,0.,0.));
#436=DIRECTION('',(0.,-1.,0.));
#437=DIRECTION('center_axis',(0.,1.,0.));
#438=DIRECTION('ref_axis',(-1.,0.,0.));
#439=DIRECTION('',(0.,-1.,0.));
#440=DIRECTION('center_axis',(0.,-1.,0.));
#441=DIRECTION('ref_axis',(-1.,0.,0.));
#442=DIRECTION('center_axis',(0.,1.,0.));
#443=DIRECTION('ref_axis',(1.,0.,0.));
#444=DIRECTION('center_axis',(0.,1.,0.));
#445=DIRECTION('ref_axis',(1.,0.,0.));
#446=DIRECTION('center_axis',(1.17262542365933E-16,0.,-1.));
#447=DIRECTION('ref_axis',(-0.707106781186548,0.707106781186548,0.));
#448=DIRECTION('',(1.17262542365933E-16,0.,-1.));
#449=DIRECTION('',(-1.17262542365933E-16,0.,1.));
#450=DIRECTION('center_axis',(-1.,0.,-1.17262542365933E-16));
#451=DIRECTION('ref_axis',(1.17262542365933E-16,0.,-1.));
#452=DIRECTION('',(-1.17262542365933E-16,0.,1.));
#453=DIRECTION('',(0.,-1.,0.));
#454=DIRECTION('center_axis',(1.17262542365933E-16,0.,-1.));
#455=DIRECTION('ref_axis',(0.707106781186548,0.707106781186547,0.));
#456=DIRECTION('',(1.17262542365933E-16,0.,-1.));
#457=DIRECTION('',(-1.17262542365933E-16,0.,1.));
#458=DIRECTION('center_axis',(0.,1.,0.));
#459=DIRECTION('ref_axis',(-1.,0.,0.));
#460=DIRECTION('center_axis',(0.,1.,0.));
#461=DIRECTION('ref_axis',(1.,0.,0.));
#462=DIRECTION('center_axis',(-1.17262542365933E-16,0.,1.));
#463=DIRECTION('ref_axis',(0.707106781186548,-0.707106781186548,0.));
#464=DIRECTION('',(1.17262542365933E-16,0.,-1.));
#465=DIRECTION('',(-1.17262542365933E-16,0.,1.));
#466=DIRECTION('center_axis',(1.,0.,1.17262542365933E-16));
#467=DIRECTION('ref_axis',(-1.17262542365933E-16,0.,1.));
#468=DIRECTION('',(0.,1.,0.));
#469=DIRECTION('center_axis',(1.17262542365933E-16,0.,-1.));
#470=DIRECTION('ref_axis',(-0.707106781186547,-0.707106781186548,0.));
#471=DIRECTION('',(1.17262542365933E-16,0.,-1.));
#472=DIRECTION('center_axis',(0.,1.,0.));
#473=DIRECTION('ref_axis',(-1.,0.,0.));
#474=DIRECTION('center_axis',(0.,-1.,0.));
#475=DIRECTION('ref_axis',(1.,0.,0.));
#476=DIRECTION('center_axis',(0.,1.,0.));
#477=DIRECTION('ref_axis',(1.,0.,0.));
#478=DIRECTION('',(0.,-1.,0.));
#479=DIRECTION('center_axis',(0.,1.,0.));
#480=DIRECTION('ref_axis',(1.,0.,0.));
#481=DIRECTION('center_axis',(0.,1.,0.));
#482=DIRECTION('ref_axis',(1.,0.,0.));
#483=CARTESIAN_POINT('',(0.,0.,0.));
#484=CARTESIAN_POINT('Origin',(-1.31426230142428,4.,-0.739453209411975));
#485=CARTESIAN_POINT('',(-5.08160800554299,4.,-0.896024596761361));
#486=CARTESIAN_POINT('',(-4.97087087472458,3.5,-1.3842119587747));
#487=CARTESIAN_POINT('Ctrl Pts',(-5.08160800554299,4.,-0.896024596761361));
#488=CARTESIAN_POINT('Ctrl Pts',(-5.08160800554299,3.93721494287387,-0.896024596761361));
#489=CARTESIAN_POINT('Ctrl Pts',(-5.07947605973107,3.87024572990314,-0.90839088786066));
#490=CARTESIAN_POINT('Ctrl Pts',(-5.07024409964946,3.74705482967284,-0.958580104486164));
#491=CARTESIAN_POINT('Ctrl Pts',(-5.06307961334925,3.69083340449247,-0.996391792774098));
#492=CARTESIAN_POINT('Ctrl Pts',(-5.0451649005789,3.60197488247154,-1.08346225351393));
#493=CARTESIAN_POINT('Ctrl Pts',(-5.03320345676239,3.56347111554612,-1.13854010886152));
#494=CARTESIAN_POINT('Ctrl Pts',(-5.00452566993351,3.51248563193959,-1.25862362753214));
#495=CARTESIAN_POINT('Ctrl Pts',(-4.98774570429108,3.5,-1.32361242538942));
#496=CARTESIAN_POINT('Ctrl Pts',(-4.97087087472458,3.5,-1.3842119587747));
#497=CARTESIAN_POINT('',(-4.49072335373567,4.,-0.791835690161203));
#498=CARTESIAN_POINT('',(-1.40108639025775,4.,-0.247049332905871));
#499=CARTESIAN_POINT('',(-4.37682180462501,3.5,-1.27946507985138));
#500=CARTESIAN_POINT('Ctrl Pts',(-4.49072335373567,4.,-0.791835690161203));
#501=CARTESIAN_POINT('Ctrl Pts',(-4.49072335373567,3.93721383673549,-0.791835690161203));
#502=CARTESIAN_POINT('Ctrl Pts',(-4.48859751918763,3.87024365735208,-0.80420357420845));
#503=CARTESIAN_POINT('Ctrl Pts',(-4.47931661271588,3.74705240927182,-0.854385019387149));
#504=CARTESIAN_POINT('Ctrl Pts',(-4.47208859625545,3.69083167613991,-0.89218588611931));
#505=CARTESIAN_POINT('Ctrl Pts',(-4.45384243467974,3.60195264253187,-0.979218731503432));
#506=CARTESIAN_POINT('Ctrl Pts',(-4.44158723224354,3.56344218990368,-1.03427181571179));
#507=CARTESIAN_POINT('Ctrl Pts',(-4.41194287740547,3.5124683892243,-1.15419901972065));
#508=CARTESIAN_POINT('Ctrl Pts',(-4.39448184896295,3.5,-1.21905321840539));
#509=CARTESIAN_POINT('Ctrl Pts',(-4.37682180462501,3.5,-1.27946507985138));
#510=CARTESIAN_POINT('',(-1.31426230142428,3.5,-0.739453209411975));
#511=CARTESIAN_POINT('Origin',(0.,10.5,0.));
#512=CARTESIAN_POINT('',(-5.08160800554299,10.5,-0.896024596761361));
#513=CARTESIAN_POINT('',(-5.08160800554299,10.5,-0.896024596761361));
#514=CARTESIAN_POINT('',(-4.49072335373567,9.9,-0.791835690161203));
#515=CARTESIAN_POINT('',(-4.78616567963933,10.2,-0.843930143461282));
#516=CARTESIAN_POINT('',(-4.49072335373567,5.5,-0.791835690161203));
#517=CARTESIAN_POINT('Origin',(-3.0529059558655,4.,-2.86044972732476));
#518=CARTESIAN_POINT('',(-3.6841981578834,3.5,-3.61279447705631));
#519=CARTESIAN_POINT('',(-3.31678406598254,4.,-3.95278932649393));
#520=CARTESIAN_POINT('Ctrl Pts',(-3.6841981578834,3.5,-3.61279447705631));
#521=CARTESIAN_POINT('Ctrl Pts',(-3.64015483729751,3.5,-3.65770827483808));
#522=CARTESIAN_POINT('Ctrl Pts',(-3.59226287021291,3.51248563193959,-3.70473455028769));
#523=CARTESIAN_POINT('Ctrl Pts',(-3.50260638588276,3.56347111554612,-3.78961200154112));
#524=CARTESIAN_POINT('Ctrl Pts',(-3.46088828587405,3.60197488247154,-3.82750984342596));
#525=CARTESIAN_POINT('Ctrl Pts',(-3.39444041133931,3.69083340449247,-3.88655967015649));
#526=CARTESIAN_POINT('Ctrl Pts',(-3.36527677187209,3.74705482967284,-3.91167014144151));
#527=CARTESIAN_POINT('Ctrl Pts',(-3.32642761531917,3.87024572990314,-3.94475986171166));
#528=CARTESIAN_POINT('Ctrl Pts',(-3.31678406598254,3.93721494287387,-3.95278932649393));
#529=CARTESIAN_POINT('Ctrl Pts',(-3.31678406598254,4.,-3.95278932649393));
#530=CARTESIAN_POINT('',(-3.29646016471888,3.5,-3.15070633071722));
#531=CARTESIAN_POINT('',(-3.0529059558655,3.5,-2.86044972732476));
#532=CARTESIAN_POINT('',(-2.93111150017062,4.,-3.49316266062254));
#533=CARTESIAN_POINT('Ctrl Pts',(-3.29646016471888,3.5,-3.15070633071722));
#534=CARTESIAN_POINT('Ctrl Pts',(-3.25297198018573,3.5,-3.19620630846883));
#535=CARTESIAN_POINT('Ctrl Pts',(-3.20553711080392,3.5124683892243,-3.24375510201862));
#536=CARTESIAN_POINT('Ctrl Pts',(-3.11649928294644,3.56344218990368,-3.32939146839163));
#537=CARTESIAN_POINT('Ctrl Pts',(-3.07494951468341,3.60195264253187,-3.36753132713407));
#538=CARTESIAN_POINT('Ctrl Pts',(-3.00869994040498,3.69083167613991,-3.42684938927226));
#539=CARTESIAN_POINT('Ctrl Pts',(-2.97957743776007,3.74705240927182,-3.45200946851204));
#540=CARTESIAN_POINT('Ctrl Pts',(-2.94075948467257,3.87024365735208,-3.48513769187607));
#541=CARTESIAN_POINT('Ctrl Pts',(-2.93111150017062,3.93721383673549,-3.49316266062254));
#542=CARTESIAN_POINT('Ctrl Pts',(-2.93111150017062,4.,-3.49316266062254));
#543=CARTESIAN_POINT('',(-2.66988373430601,4.,-3.18184353216803));
#544=CARTESIAN_POINT('Origin',(0.,10.5,0.));
#545=CARTESIAN_POINT('Origin',(0.,3.5,0.));
#546=CARTESIAN_POINT('',(-3.31678406598254,10.5,-3.95278932649393));
#547=CARTESIAN_POINT('',(-3.31678406598254,10.5,-3.95278932649393));
#548=CARTESIAN_POINT('Origin',(0.,10.5,0.));
#549=CARTESIAN_POINT('Origin',(-3.31678406598254,10.5,-3.95278932649393));
#550=CARTESIAN_POINT('',(-2.93111150017062,9.9,-3.49316266062254));
#551=CARTESIAN_POINT('',(-2.93111150017062,5.5,-3.49316266062254));
#552=CARTESIAN_POINT('',(-3.12394778307658,10.2,-3.72297599355823));
#553=CARTESIAN_POINT('Origin',(-2.5408040027715,3.5,-1.97639466324696));
#554=CARTESIAN_POINT('Origin',(0.,3.5,0.));
#555=CARTESIAN_POINT('Origin',(0.,10.2,0.));
#556=CARTESIAN_POINT('Origin',(0.,10.5,0.));
#557=CARTESIAN_POINT('',(4.56,9.9,5.58438940411193E-16));
#558=CARTESIAN_POINT('Origin',(0.,9.9,0.));
#559=CARTESIAN_POINT('Origin',(0.,9.9,0.));
#560=CARTESIAN_POINT('Origin',(0.,5.5,0.));
#561=CARTESIAN_POINT('',(4.56,1.,5.58438940411193E-16));
#562=CARTESIAN_POINT('',(4.56,5.5,5.58438940411193E-16));
#563=CARTESIAN_POINT('',(-1.8,1.,-4.18970166002306));
#564=CARTESIAN_POINT('Origin',(0.,1.,0.));
#565=CARTESIAN_POINT('',(-2.8,2.,-3.59911100134464));
#566=CARTESIAN_POINT('Ctrl Pts',(-2.8,2.,-3.59911100134464));
#567=CARTESIAN_POINT('Ctrl Pts',(-2.8,1.86810076210849,-3.59911100134464));
#568=CARTESIAN_POINT('Ctrl Pts',(-2.7723968279256,1.73132188793429,-3.62099889769405));
#569=CARTESIAN_POINT('Ctrl Pts',(-2.66815997694854,1.4861497432299,-3.69847797247504));
#570=CARTESIAN_POINT('Ctrl Pts',(-2.59166367138187,1.37745010900877,-3.75328215775424));
#571=CARTESIAN_POINT('Ctrl Pts',(-2.41795501209238,1.20374144971929,-3.8676200792678));
#572=CARTESIAN_POINT('Ctrl Pts',(-2.30662336875413,1.12768226031672,-3.93605952488057));
#573=CARTESIAN_POINT('Ctrl Pts',(-2.06161010030652,1.0257486678598,-4.0697468904519));
#574=CARTESIAN_POINT('Ctrl Pts',(-1.92777371020643,1.,-4.13480689733241));
#575=CARTESIAN_POINT('Ctrl Pts',(-1.8,1.,-4.18970166002306));
#576=CARTESIAN_POINT('',(-2.8,4.5,-3.59911100134464));
#577=CARTESIAN_POINT('',(-2.8,5.5,-3.59911100134464));
#578=CARTESIAN_POINT('',(-1.8,5.5,-4.18970166002306));
#579=CARTESIAN_POINT('Ctrl Pts',(-1.8,5.5,-4.18970166002306));
#580=CARTESIAN_POINT('Ctrl Pts',(-1.9324197999801,5.5,-4.1328108216518));
#581=CARTESIAN_POINT('Ctrl Pts',(-2.07070981806179,5.4723841826036,-4.06526834663574));
#582=CARTESIAN_POINT('Ctrl Pts',(-2.32254299257981,5.36357605073731,-3.92683586575976));
#583=CARTESIAN_POINT('Ctrl Pts',(-2.43626271269471,5.28252625256346,-3.85615521458533));
#584=CARTESIAN_POINT('Ctrl Pts',(-2.60558686584083,5.1035901423436,-3.74347125433578));
#585=CARTESIAN_POINT('Ctrl Pts',(-2.67716407045579,4.99713391551794,-3.69189299538499));
#586=CARTESIAN_POINT('Ctrl Pts',(-2.77444685298194,4.75886673805801,-3.61935439062631));
#587=CARTESIAN_POINT('Ctrl Pts',(-2.8,4.62677592499362,-3.59911100134464));
#588=CARTESIAN_POINT('Ctrl Pts',(-2.8,4.5,-3.59911100134464));
#589=CARTESIAN_POINT('',(1.8,5.5,-4.18970166002306));
#590=CARTESIAN_POINT('Origin',(0.,5.5,0.));
#591=CARTESIAN_POINT('',(2.8,4.5,-3.59911100134464));
#592=CARTESIAN_POINT('Ctrl Pts',(2.8,4.5,-3.59911100134464));
#593=CARTESIAN_POINT('Ctrl Pts',(2.8,4.62677592499362,-3.59911100134464));
#594=CARTESIAN_POINT('Ctrl Pts',(2.77444685298194,4.75886673805801,-3.61935439062631));
#595=CARTESIAN_POINT('Ctrl Pts',(2.67716407045579,4.99713391551794,-3.69189299538499));
#596=CARTESIAN_POINT('Ctrl Pts',(2.60558686584083,5.1035901423436,-3.74347125433578));
#597=CARTESIAN_POINT('Ctrl Pts',(2.43626271269471,5.28252625256346,-3.85615521458533));
#598=CARTESIAN_POINT('Ctrl Pts',(2.32254299257981,5.36357605073731,-3.92683586575975));
#599=CARTESIAN_POINT('Ctrl Pts',(2.07070981806179,5.4723841826036,-4.06526834663573));
#600=CARTESIAN_POINT('Ctrl Pts',(1.9324197999801,5.5,-4.1328108216518));
#601=CARTESIAN_POINT('Ctrl Pts',(1.8,5.5,-4.18970166002306));
#602=CARTESIAN_POINT('',(2.8,2.,-3.59911100134464));
#603=CARTESIAN_POINT('',(2.8,5.5,-3.59911100134464));
#604=CARTESIAN_POINT('',(1.8,1.,-4.18970166002306));
#605=CARTESIAN_POINT('Ctrl Pts',(1.8,1.,-4.18970166002306));
#606=CARTESIAN_POINT('Ctrl Pts',(1.92777371020643,1.,-4.13480689733241));
#607=CARTESIAN_POINT('Ctrl Pts',(2.06161010030652,1.0257486678598,-4.0697468904519));
#608=CARTESIAN_POINT('Ctrl Pts',(2.30662336875413,1.12768226031672,-3.93605952488056));
#609=CARTESIAN_POINT('Ctrl Pts',(2.41795501209239,1.20374144971929,-3.8676200792678));
#610=CARTESIAN_POINT('Ctrl Pts',(2.59166367138187,1.37745010900877,-3.75328215775424));
#611=CARTESIAN_POINT('Ctrl Pts',(2.66815997694854,1.4861497432299,-3.69847797247504));
#612=CARTESIAN_POINT('Ctrl Pts',(2.77239682792561,1.73132188793429,-3.62099889769405));
#613=CARTESIAN_POINT('Ctrl Pts',(2.8,1.86810076210849,-3.59911100134464));
#614=CARTESIAN_POINT('Ctrl Pts',(2.8,2.,-3.59911100134464));
#615=CARTESIAN_POINT('Origin',(0.,1.,0.));
#616=CARTESIAN_POINT('Origin',(0.,10.5,0.));
#617=CARTESIAN_POINT('',(-5.5,10.5,6.73555739531044E-16));
#618=CARTESIAN_POINT('Origin',(0.,10.5,0.));
#619=CARTESIAN_POINT('Origin',(-1.8,4.5,-2.03455550067232));
#620=CARTESIAN_POINT('',(-2.8,4.5,-4.73392015141785));
#621=CARTESIAN_POINT('',(-2.8,4.5,-2.03455550067232));
#622=CARTESIAN_POINT('',(-1.8,5.5,-5.19711458407451));
#623=CARTESIAN_POINT('Ctrl Pts',(-2.8,4.5,-4.73392015141785));
#624=CARTESIAN_POINT('Ctrl Pts',(-2.8,4.62613789038227,-4.73392015141785));
#625=CARTESIAN_POINT('Ctrl Pts',(-2.77465848699482,4.75891660614965,-4.74915944078478));
#626=CARTESIAN_POINT('Ctrl Pts',(-2.67569659623573,5.00015260410945,-4.80561054423864));
#627=CARTESIAN_POINT('Ctrl Pts',(-2.60219090722032,5.10876483866306,-4.84636013571435));
#628=CARTESIAN_POINT('Ctrl Pts',(-2.42992550726171,5.28735659577896,-4.93514654819628));
#629=CARTESIAN_POINT('Ctrl Pts',(-2.31649093751542,5.36699960021221,-4.99023461044893));
#630=CARTESIAN_POINT('Ctrl Pts',(-2.06650553009351,5.47335811819798,-5.09883581080037));
#631=CARTESIAN_POINT('Ctrl Pts',(-1.92983550699069,5.5,-5.15214657176642));
#632=CARTESIAN_POINT('Ctrl Pts',(-1.8,5.5,-5.19711458407451));
#633=CARTESIAN_POINT('',(-1.8,5.5,-2.03455550067232));
#634=CARTESIAN_POINT('Origin',(-2.8,5.5,-3.59911100134464));
#635=CARTESIAN_POINT('',(-2.8,2.,-4.73392015141785));
#636=CARTESIAN_POINT('',(-2.8,2.,-2.03455550067232));
#637=CARTESIAN_POINT('',(-2.8,0.,-4.73392015141785));
#638=CARTESIAN_POINT('Origin',(1.8,4.5,-2.60196007570892));
#639=CARTESIAN_POINT('',(1.8,5.5,-5.19711458407451));
#640=CARTESIAN_POINT('',(1.8,5.5,-2.60196007570892));
#641=CARTESIAN_POINT('',(2.8,4.5,-4.73392015141785));
#642=CARTESIAN_POINT('Ctrl Pts',(1.8,5.5,-5.19711458407451));
#643=CARTESIAN_POINT('Ctrl Pts',(1.92983550699069,5.5,-5.15214657176642));
#644=CARTESIAN_POINT('Ctrl Pts',(2.06650553009351,5.47335811819798,-5.09883581080037));
#645=CARTESIAN_POINT('Ctrl Pts',(2.31649093751542,5.36699960021221,-4.99023461044893));
#646=CARTESIAN_POINT('Ctrl Pts',(2.42992550726171,5.28735659577896,-4.93514654819628));
#647=CARTESIAN_POINT('Ctrl Pts',(2.60219090722032,5.10876483866306,-4.84636013571435));
#648=CARTESIAN_POINT('Ctrl Pts',(2.67569659623573,5.00015260410945,-4.80561054423864));
#649=CARTESIAN_POINT('Ctrl Pts',(2.77465848699482,4.75891660614965,-4.74915944078478));
#650=CARTESIAN_POINT('Ctrl Pts',(2.8,4.62613789038227,-4.73392015141785));
#651=CARTESIAN_POINT('Ctrl Pts',(2.8,4.5,-4.73392015141785));
#652=CARTESIAN_POINT('',(2.8,4.5,-2.60196007570892));
#653=CARTESIAN_POINT('Origin',(0.,5.5,-0.469999999999999));
#654=CARTESIAN_POINT('Origin',(0.,5.5,0.));
#655=CARTESIAN_POINT('Origin',(1.8,2.,-2.60196007570892));
#656=CARTESIAN_POINT('',(2.8,2.,-4.73392015141785));
#657=CARTESIAN_POINT('',(2.8,2.,-2.60196007570892));
#658=CARTESIAN_POINT('',(1.8,1.,-5.19711458407451));
#659=CARTESIAN_POINT('Ctrl Pts',(2.8,2.,-4.73392015141785));
#660=CARTESIAN_POINT('Ctrl Pts',(2.8,1.87386210961773,-4.73392015141785));
#661=CARTESIAN_POINT('Ctrl Pts',(2.77465848699482,1.74108339385035,-4.74915944078478));
#662=CARTESIAN_POINT('Ctrl Pts',(2.67569659623573,1.49984739589055,-4.80561054423864));
#663=CARTESIAN_POINT('Ctrl Pts',(2.60219090722032,1.39123516133695,-4.84636013571435));
#664=CARTESIAN_POINT('Ctrl Pts',(2.42992550726171,1.21264340422104,-4.93514654819628));
#665=CARTESIAN_POINT('Ctrl Pts',(2.31649093751543,1.13300039978779,-4.99023461044893));
#666=CARTESIAN_POINT('Ctrl Pts',(2.06650553009351,1.02664188180202,-5.09883581080037));
#667=CARTESIAN_POINT('Ctrl Pts',(1.92983550699069,1.,-5.15214657176642));
#668=CARTESIAN_POINT('Ctrl Pts',(1.8,1.,-5.19711458407451));
#669=CARTESIAN_POINT('',(1.8,1.,-2.60196007570892));
#670=CARTESIAN_POINT('Origin',(2.8,5.5,-4.73392015141785));
#671=CARTESIAN_POINT('',(2.8,0.,-4.73392015141785));
#672=CARTESIAN_POINT('Origin',(-1.8,2.,-2.03455550067232));
#673=CARTESIAN_POINT('',(-1.8,1.,-5.19711458407451));
#674=CARTESIAN_POINT('',(-1.8,1.,-2.03455550067232));
#675=CARTESIAN_POINT('Ctrl Pts',(-1.8,1.,-5.19711458407451));
#676=CARTESIAN_POINT('Ctrl Pts',(-1.92983550699069,1.,-5.15214657176642));
#677=CARTESIAN_POINT('Ctrl Pts',(-2.06650553009351,1.02664188180202,-5.09883581080037));
#678=CARTESIAN_POINT('Ctrl Pts',(-2.31649093751542,1.13300039978779,-4.99023461044893));
#679=CARTESIAN_POINT('Ctrl Pts',(-2.42992550726171,1.21264340422104,-4.93514654819628));
#680=CARTESIAN_POINT('Ctrl Pts',(-2.60219090722032,1.39123516133695,-4.84636013571435));
#681=CARTESIAN_POINT('Ctrl Pts',(-2.67569659623573,1.49984739589055,-4.80561054423864));
#682=CARTESIAN_POINT('Ctrl Pts',(-2.77465848699482,1.74108339385035,-4.74915944078478));
#683=CARTESIAN_POINT('Ctrl Pts',(-2.8,1.87386210961773,-4.73392015141785));
#684=CARTESIAN_POINT('Ctrl Pts',(-2.8,2.,-4.73392015141785));
#685=CARTESIAN_POINT('Origin',(0.,1.,-0.469999999999999));
#686=CARTESIAN_POINT('Origin',(0.,1.,0.));
#687=CARTESIAN_POINT('Origin',(0.,0.,0.));
#688=CARTESIAN_POINT('',(-5.5,0.,6.73555739531044E-16));
#689=CARTESIAN_POINT('',(-5.5,0.,6.73555739531044E-16));
#690=CARTESIAN_POINT('Origin',(0.,0.,0.));
#691=CARTESIAN_POINT('Origin',(0.,0.,0.));
#692=UNCERTAINTY_MEASURE_WITH_UNIT(LENGTH_MEASURE(0.01),#696,
'DISTANCE_ACCURACY_VALUE',
'Maximum model space distance between geometric entities at asserted c
onnectivities');
#693=UNCERTAINTY_MEASURE_WITH_UNIT(LENGTH_MEASURE(0.01),#696,
'DISTANCE_ACCURACY_VALUE',
'Maximum model space distance between geometric entities at asserted c
onnectivities');
#694=(
GEOMETRIC_REPRESENTATION_CONTEXT(3)
GLOBAL_UNCERTAINTY_ASSIGNED_CONTEXT((#692))
GLOBAL_UNIT_ASSIGNED_CONTEXT((#696,#698,#699))
REPRESENTATION_CONTEXT('','3D')
);
#695=(
GEOMETRIC_REPRESENTATION_CONTEXT(3)
GLOBAL_UNCERTAINTY_ASSIGNED_CONTEXT((#693))
GLOBAL_UNIT_ASSIGNED_CONTEXT((#696,#698,#699))
REPRESENTATION_CONTEXT('','3D')
);
#696=(
LENGTH_UNIT()
NAMED_UNIT(*)
SI_UNIT(.MILLI.,.METRE.)
);
#697=(
LENGTH_UNIT()
NAMED_UNIT(*)
SI_UNIT($,.METRE.)
);
#698=(
NAMED_UNIT(*)
PLANE_ANGLE_UNIT()
SI_UNIT($,.RADIAN.)
);
#699=(
NAMED_UNIT(*)
SI_UNIT($,.STERADIAN.)
SOLID_ANGLE_UNIT()
);
#700=SHAPE_DEFINITION_REPRESENTATION(#701,#702);
#701=PRODUCT_DEFINITION_SHAPE('',$,#704);
#702=SHAPE_REPRESENTATION('',(#360),#694);
#703=PRODUCT_DEFINITION_CONTEXT('part definition',#708,'design');
#704=PRODUCT_DEFINITION('2026-08-29-11-09-32-919','(Unsaved)',#705,#703);
#705=PRODUCT_DEFINITION_FORMATION('',$,#710);
#706=PRODUCT_RELATED_PRODUCT_CATEGORY('(Unsaved)','(Unsaved)',(#710));
#707=APPLICATION_PROTOCOL_DEFINITION('international standard',
'automotive_design',2009,#708);
#708=APPLICATION_CONTEXT(
'Core Data for Automotive Mechanical Design Process');
#709=PRODUCT_CONTEXT('part definition',#708,'mechanical');
#710=PRODUCT('2026-08-29-11-09-32-919','(Unsaved)',$,(#709));
#711=PRESENTATION_STYLE_ASSIGNMENT((#712));
#712=SURFACE_STYLE_USAGE(.BOTH.,#713);
#713=SURFACE_SIDE_STYLE('',(#714));
#714=SURFACE_STYLE_FILL_AREA(#715);
#715=FILL_AREA_STYLE('Steel - Satin',(#716));
#716=FILL_AREA_STYLE_COLOUR('Steel - Satin',#717);
#717=COLOUR_RGB('Steel - Satin',0.627450980392157,0.627450980392157,0.627450980392157);
ENDSEC;
END-ISO-10303-21;
