ISO-10303-21;
HEADER;
/* Generated by software containing ST-Developer
 * from STEP Tools, Inc. (www.steptools.com) 
 */

FILE_DESCRIPTION(
/* description */ (''),
/* implementation_level */ '2;1');

FILE_NAME(
/* name */ 'power-link-insulator_v1.0.otl-export-tmp.step',
/* time_stamp */ '2026-09-07T14:29:07-05:00',
/* author */ (''),
/* organization */ (''),
/* preprocessor_version */ 'ST-DEVELOPER v20.2',
/* originating_system */ 'Autodesk Translation Framework v15.15.0.0',
/* authorisation */ '');

FILE_SCHEMA (('AUTOMOTIVE_DESIGN { 1 0 10303 214 3 1 1 }'));
ENDSEC;

DATA;
#10=MECHANICAL_DESIGN_GEOMETRIC_PRESENTATION_REPRESENTATION('',(#13),#479);
#11=SHAPE_REPRESENTATION_RELATIONSHIP('SRR','None',#486,#12);
#12=ADVANCED_BREP_SHAPE_REPRESENTATION('',(#14),#478);
#13=STYLED_ITEM('',(#495),#14);
#14=MANIFOLD_SOLID_BREP('Body1',#275);
#15=FACE_BOUND('',#48,.T.);
#16=FACE_BOUND('',#49,.T.);
#17=FACE_BOUND('',#50,.T.);
#18=FACE_BOUND('',#51,.T.);
#19=FACE_BOUND('',#61,.T.);
#20=FACE_BOUND('',#62,.T.);
#21=FACE_BOUND('',#63,.T.);
#22=FACE_BOUND('',#64,.T.);
#23=PLANE('',#301);
#24=PLANE('',#306);
#25=PLANE('',#309);
#26=PLANE('',#312);
#27=PLANE('',#315);
#28=PLANE('',#318);
#29=FACE_OUTER_BOUND('',#43,.T.);
#30=FACE_OUTER_BOUND('',#44,.T.);
#31=FACE_OUTER_BOUND('',#45,.T.);
#32=FACE_OUTER_BOUND('',#46,.T.);
#33=FACE_OUTER_BOUND('',#47,.T.);
#34=FACE_OUTER_BOUND('',#52,.T.);
#35=FACE_OUTER_BOUND('',#53,.T.);
#36=FACE_OUTER_BOUND('',#54,.T.);
#37=FACE_OUTER_BOUND('',#55,.T.);
#38=FACE_OUTER_BOUND('',#56,.T.);
#39=FACE_OUTER_BOUND('',#57,.T.);
#40=FACE_OUTER_BOUND('',#58,.T.);
#41=FACE_OUTER_BOUND('',#59,.T.);
#42=FACE_OUTER_BOUND('',#60,.T.);
#43=EDGE_LOOP('',(#181,#182,#183,#184));
#44=EDGE_LOOP('',(#185,#186,#187,#188));
#45=EDGE_LOOP('',(#189,#190,#191,#192));
#46=EDGE_LOOP('',(#193,#194,#195,#196));
#47=EDGE_LOOP('',(#197,#198,#199,#200,#201,#202,#203,#204));
#48=EDGE_LOOP('',(#205));
#49=EDGE_LOOP('',(#206));
#50=EDGE_LOOP('',(#207));
#51=EDGE_LOOP('',(#208));
#52=EDGE_LOOP('',(#209,#210,#211,#212));
#53=EDGE_LOOP('',(#213,#214,#215,#216));
#54=EDGE_LOOP('',(#217,#218,#219,#220));
#55=EDGE_LOOP('',(#221,#222,#223,#224));
#56=EDGE_LOOP('',(#225,#226,#227,#228));
#57=EDGE_LOOP('',(#229,#230,#231,#232));
#58=EDGE_LOOP('',(#233,#234,#235,#236));
#59=EDGE_LOOP('',(#237,#238,#239,#240));
#60=EDGE_LOOP('',(#241,#242,#243,#244,#245,#246,#247,#248));
#61=EDGE_LOOP('',(#249));
#62=EDGE_LOOP('',(#250));
#63=EDGE_LOOP('',(#251));
#64=EDGE_LOOP('',(#252));
#65=LINE('',#406,#85);
#66=LINE('',#412,#86);
#67=LINE('',#418,#87);
#68=LINE('',#424,#88);
#69=LINE('',#429,#89);
#70=LINE('',#433,#90);
#71=LINE('',#437,#91);
#72=LINE('',#441,#92);
#73=LINE('',#445,#93);
#74=LINE('',#447,#94);
#75=LINE('',#448,#95);
#76=LINE('',#452,#96);
#77=LINE('',#455,#97);
#78=LINE('',#456,#98);
#79=LINE('',#460,#99);
#80=LINE('',#463,#100);
#81=LINE('',#464,#101);
#82=LINE('',#468,#102);
#83=LINE('',#471,#103);
#84=LINE('',#472,#104);
#85=VECTOR('',#325,1.3589);
#86=VECTOR('',#332,1.3589);
#87=VECTOR('',#339,1.3589);
#88=VECTOR('',#346,1.3589);
#89=VECTOR('',#351,10.);
#90=VECTOR('',#354,10.);
#91=VECTOR('',#357,10.);
#92=VECTOR('',#360,10.);
#93=VECTOR('',#365,10.);
#94=VECTOR('',#366,10.);
#95=VECTOR('',#367,10.);
#96=VECTOR('',#372,10.);
#97=VECTOR('',#375,10.);
#98=VECTOR('',#376,10.);
#99=VECTOR('',#381,10.);
#100=VECTOR('',#384,10.);
#101=VECTOR('',#385,10.);
#102=VECTOR('',#390,10.);
#103=VECTOR('',#393,10.);
#104=VECTOR('',#394,10.);
#105=CIRCLE('',#290,1.4089);
#106=CIRCLE('',#291,1.4089);
#107=CIRCLE('',#293,1.4089);
#108=CIRCLE('',#294,1.4089);
#109=CIRCLE('',#296,1.4089);
#110=CIRCLE('',#297,1.4089);
#111=CIRCLE('',#299,1.4089);
#112=CIRCLE('',#300,1.4089);
#113=CIRCLE('',#302,2.2);
#114=CIRCLE('',#303,2.2);
#115=CIRCLE('',#304,2.2);
#116=CIRCLE('',#305,2.2);
#117=CIRCLE('',#308,2.2);
#118=CIRCLE('',#311,2.2);
#119=CIRCLE('',#314,2.2);
#120=CIRCLE('',#317,2.2);
#121=VERTEX_POINT('',#403);
#122=VERTEX_POINT('',#405);
#123=VERTEX_POINT('',#409);
#124=VERTEX_POINT('',#411);
#125=VERTEX_POINT('',#415);
#126=VERTEX_POINT('',#417);
#127=VERTEX_POINT('',#421);
#128=VERTEX_POINT('',#423);
#129=VERTEX_POINT('',#427);
#130=VERTEX_POINT('',#428);
#131=VERTEX_POINT('',#430);
#132=VERTEX_POINT('',#432);
#133=VERTEX_POINT('',#434);
#134=VERTEX_POINT('',#436);
#135=VERTEX_POINT('',#438);
#136=VERTEX_POINT('',#440);
#137=VERTEX_POINT('',#444);
#138=VERTEX_POINT('',#446);
#139=VERTEX_POINT('',#450);
#140=VERTEX_POINT('',#454);
#141=VERTEX_POINT('',#458);
#142=VERTEX_POINT('',#462);
#143=VERTEX_POINT('',#466);
#144=VERTEX_POINT('',#470);
#145=EDGE_CURVE('',#121,#121,#105,.F.);
#146=EDGE_CURVE('',#121,#122,#65,.T.);
#147=EDGE_CURVE('',#122,#122,#106,.T.);
#148=EDGE_CURVE('',#123,#123,#107,.F.);
#149=EDGE_CURVE('',#123,#124,#66,.T.);
#150=EDGE_CURVE('',#124,#124,#108,.T.);
#151=EDGE_CURVE('',#125,#125,#109,.F.);
#152=EDGE_CURVE('',#125,#126,#67,.T.);
#153=EDGE_CURVE('',#126,#126,#110,.T.);
#154=EDGE_CURVE('',#127,#127,#111,.F.);
#155=EDGE_CURVE('',#127,#128,#68,.T.);
#156=EDGE_CURVE('',#128,#128,#112,.T.);
#157=EDGE_CURVE('',#129,#130,#69,.T.);
#158=EDGE_CURVE('',#130,#131,#113,.T.);
#159=EDGE_CURVE('',#131,#132,#70,.T.);
#160=EDGE_CURVE('',#132,#133,#114,.T.);
#161=EDGE_CURVE('',#133,#134,#71,.T.);
#162=EDGE_CURVE('',#134,#135,#115,.T.);
#163=EDGE_CURVE('',#135,#136,#72,.T.);
#164=EDGE_CURVE('',#136,#129,#116,.T.);
#165=EDGE_CURVE('',#137,#131,#73,.T.);
#166=EDGE_CURVE('',#138,#137,#74,.T.);
#167=EDGE_CURVE('',#132,#138,#75,.T.);
#168=EDGE_CURVE('',#139,#138,#117,.T.);
#169=EDGE_CURVE('',#133,#139,#76,.T.);
#170=EDGE_CURVE('',#140,#139,#77,.T.);
#171=EDGE_CURVE('',#134,#140,#78,.T.);
#172=EDGE_CURVE('',#141,#140,#118,.T.);
#173=EDGE_CURVE('',#135,#141,#79,.T.);
#174=EDGE_CURVE('',#142,#141,#80,.T.);
#175=EDGE_CURVE('',#136,#142,#81,.T.);
#176=EDGE_CURVE('',#143,#142,#119,.T.);
#177=EDGE_CURVE('',#129,#143,#82,.T.);
#178=EDGE_CURVE('',#144,#143,#83,.T.);
#179=EDGE_CURVE('',#130,#144,#84,.T.);
#180=EDGE_CURVE('',#137,#144,#120,.T.);
#181=ORIENTED_EDGE('',*,*,#145,.F.);
#182=ORIENTED_EDGE('',*,*,#146,.T.);
#183=ORIENTED_EDGE('',*,*,#147,.F.);
#184=ORIENTED_EDGE('',*,*,#146,.F.);
#185=ORIENTED_EDGE('',*,*,#148,.F.);
#186=ORIENTED_EDGE('',*,*,#149,.T.);
#187=ORIENTED_EDGE('',*,*,#150,.F.);
#188=ORIENTED_EDGE('',*,*,#149,.F.);
#189=ORIENTED_EDGE('',*,*,#151,.F.);
#190=ORIENTED_EDGE('',*,*,#152,.T.);
#191=ORIENTED_EDGE('',*,*,#153,.F.);
#192=ORIENTED_EDGE('',*,*,#152,.F.);
#193=ORIENTED_EDGE('',*,*,#154,.F.);
#194=ORIENTED_EDGE('',*,*,#155,.T.);
#195=ORIENTED_EDGE('',*,*,#156,.F.);
#196=ORIENTED_EDGE('',*,*,#155,.F.);
#197=ORIENTED_EDGE('',*,*,#157,.T.);
#198=ORIENTED_EDGE('',*,*,#158,.T.);
#199=ORIENTED_EDGE('',*,*,#159,.T.);
#200=ORIENTED_EDGE('',*,*,#160,.T.);
#201=ORIENTED_EDGE('',*,*,#161,.T.);
#202=ORIENTED_EDGE('',*,*,#162,.T.);
#203=ORIENTED_EDGE('',*,*,#163,.T.);
#204=ORIENTED_EDGE('',*,*,#164,.T.);
#205=ORIENTED_EDGE('',*,*,#154,.T.);
#206=ORIENTED_EDGE('',*,*,#151,.T.);
#207=ORIENTED_EDGE('',*,*,#148,.T.);
#208=ORIENTED_EDGE('',*,*,#145,.T.);
#209=ORIENTED_EDGE('',*,*,#165,.F.);
#210=ORIENTED_EDGE('',*,*,#166,.F.);
#211=ORIENTED_EDGE('',*,*,#167,.F.);
#212=ORIENTED_EDGE('',*,*,#159,.F.);
#213=ORIENTED_EDGE('',*,*,#167,.T.);
#214=ORIENTED_EDGE('',*,*,#168,.F.);
#215=ORIENTED_EDGE('',*,*,#169,.F.);
#216=ORIENTED_EDGE('',*,*,#160,.F.);
#217=ORIENTED_EDGE('',*,*,#169,.T.);
#218=ORIENTED_EDGE('',*,*,#170,.F.);
#219=ORIENTED_EDGE('',*,*,#171,.F.);
#220=ORIENTED_EDGE('',*,*,#161,.F.);
#221=ORIENTED_EDGE('',*,*,#171,.T.);
#222=ORIENTED_EDGE('',*,*,#172,.F.);
#223=ORIENTED_EDGE('',*,*,#173,.F.);
#224=ORIENTED_EDGE('',*,*,#162,.F.);
#225=ORIENTED_EDGE('',*,*,#173,.T.);
#226=ORIENTED_EDGE('',*,*,#174,.F.);
#227=ORIENTED_EDGE('',*,*,#175,.F.);
#228=ORIENTED_EDGE('',*,*,#163,.F.);
#229=ORIENTED_EDGE('',*,*,#175,.T.);
#230=ORIENTED_EDGE('',*,*,#176,.F.);
#231=ORIENTED_EDGE('',*,*,#177,.F.);
#232=ORIENTED_EDGE('',*,*,#164,.F.);
#233=ORIENTED_EDGE('',*,*,#177,.T.);
#234=ORIENTED_EDGE('',*,*,#178,.F.);
#235=ORIENTED_EDGE('',*,*,#179,.F.);
#236=ORIENTED_EDGE('',*,*,#157,.F.);
#237=ORIENTED_EDGE('',*,*,#179,.T.);
#238=ORIENTED_EDGE('',*,*,#180,.F.);
#239=ORIENTED_EDGE('',*,*,#165,.T.);
#240=ORIENTED_EDGE('',*,*,#158,.F.);
#241=ORIENTED_EDGE('',*,*,#180,.T.);
#242=ORIENTED_EDGE('',*,*,#178,.T.);
#243=ORIENTED_EDGE('',*,*,#176,.T.);
#244=ORIENTED_EDGE('',*,*,#174,.T.);
#245=ORIENTED_EDGE('',*,*,#172,.T.);
#246=ORIENTED_EDGE('',*,*,#170,.T.);
#247=ORIENTED_EDGE('',*,*,#168,.T.);
#248=ORIENTED_EDGE('',*,*,#166,.T.);
#249=ORIENTED_EDGE('',*,*,#150,.T.);
#250=ORIENTED_EDGE('',*,*,#153,.T.);
#251=ORIENTED_EDGE('',*,*,#147,.T.);
#252=ORIENTED_EDGE('',*,*,#156,.T.);
#253=CYLINDRICAL_SURFACE('',#289,1.4089);
#254=CYLINDRICAL_SURFACE('',#292,1.4089);
#255=CYLINDRICAL_SURFACE('',#295,1.4089);
#256=CYLINDRICAL_SURFACE('',#298,1.4089);
#257=CYLINDRICAL_SURFACE('',#307,2.2);
#258=CYLINDRICAL_SURFACE('',#310,2.2);
#259=CYLINDRICAL_SURFACE('',#313,2.2);
#260=CYLINDRICAL_SURFACE('',#316,2.2);
#261=ADVANCED_FACE('',(#29),#253,.F.);
#262=ADVANCED_FACE('',(#30),#254,.F.);
#263=ADVANCED_FACE('',(#31),#255,.F.);
#264=ADVANCED_FACE('',(#32),#256,.F.);
#265=ADVANCED_FACE('',(#33,#15,#16,#17,#18),#23,.T.);
#266=ADVANCED_FACE('',(#34),#24,.T.);
#267=ADVANCED_FACE('',(#35),#257,.T.);
#268=ADVANCED_FACE('',(#36),#25,.T.);
#269=ADVANCED_FACE('',(#37),#258,.T.);
#270=ADVANCED_FACE('',(#38),#26,.T.);
#271=ADVANCED_FACE('',(#39),#259,.T.);
#272=ADVANCED_FACE('',(#40),#27,.T.);
#273=ADVANCED_FACE('',(#41),#260,.T.);
#274=ADVANCED_FACE('',(#42,#19,#20,#21,#22),#28,.T.);
#275=CLOSED_SHELL('',(#261,#262,#263,#264,#265,#266,#267,#268,#269,#270,
#271,#272,#273,#274));
#276=DERIVED_UNIT_ELEMENT(#278,1.);
#277=DERIVED_UNIT_ELEMENT(#481,-3.);
#278=(
MASS_UNIT()
NAMED_UNIT(*)
SI_UNIT(.KILO.,.GRAM.)
);
#279=DERIVED_UNIT((#276,#277));
#280=MEASURE_REPRESENTATION_ITEM('density measure',
POSITIVE_RATIO_MEASURE(7850.),#279);
#281=PROPERTY_DEFINITION_REPRESENTATION(#286,#283);
#282=PROPERTY_DEFINITION_REPRESENTATION(#287,#284);
#283=REPRESENTATION('material name',(#285),#478);
#284=REPRESENTATION('density',(#280),#478);
#285=DESCRIPTIVE_REPRESENTATION_ITEM('Steel','Steel');
#286=PROPERTY_DEFINITION('material property','material name',#488);
#287=PROPERTY_DEFINITION('material property','density of part',#488);
#288=AXIS2_PLACEMENT_3D('',#401,#319,#320);
#289=AXIS2_PLACEMENT_3D('',#402,#321,#322);
#290=AXIS2_PLACEMENT_3D('',#404,#323,#324);
#291=AXIS2_PLACEMENT_3D('',#407,#326,#327);
#292=AXIS2_PLACEMENT_3D('',#408,#328,#329);
#293=AXIS2_PLACEMENT_3D('',#410,#330,#331);
#294=AXIS2_PLACEMENT_3D('',#413,#333,#334);
#295=AXIS2_PLACEMENT_3D('',#414,#335,#336);
#296=AXIS2_PLACEMENT_3D('',#416,#337,#338);
#297=AXIS2_PLACEMENT_3D('',#419,#340,#341);
#298=AXIS2_PLACEMENT_3D('',#420,#342,#343);
#299=AXIS2_PLACEMENT_3D('',#422,#344,#345);
#300=AXIS2_PLACEMENT_3D('',#425,#347,#348);
#301=AXIS2_PLACEMENT_3D('',#426,#349,#350);
#302=AXIS2_PLACEMENT_3D('',#431,#352,#353);
#303=AXIS2_PLACEMENT_3D('',#435,#355,#356);
#304=AXIS2_PLACEMENT_3D('',#439,#358,#359);
#305=AXIS2_PLACEMENT_3D('',#442,#361,#362);
#306=AXIS2_PLACEMENT_3D('',#443,#363,#364);
#307=AXIS2_PLACEMENT_3D('',#449,#368,#369);
#308=AXIS2_PLACEMENT_3D('',#451,#370,#371);
#309=AXIS2_PLACEMENT_3D('',#453,#373,#374);
#310=AXIS2_PLACEMENT_3D('',#457,#377,#378);
#311=AXIS2_PLACEMENT_3D('',#459,#379,#380);
#312=AXIS2_PLACEMENT_3D('',#461,#382,#383);
#313=AXIS2_PLACEMENT_3D('',#465,#386,#387);
#314=AXIS2_PLACEMENT_3D('',#467,#388,#389);
#315=AXIS2_PLACEMENT_3D('',#469,#391,#392);
#316=AXIS2_PLACEMENT_3D('',#473,#395,#396);
#317=AXIS2_PLACEMENT_3D('',#474,#397,#398);
#318=AXIS2_PLACEMENT_3D('',#475,#399,#400);
#319=DIRECTION('axis',(0.,0.,1.));
#320=DIRECTION('refdir',(1.,0.,0.));
#321=DIRECTION('center_axis',(0.,-1.,0.));
#322=DIRECTION('ref_axis',(1.,0.,0.));
#323=DIRECTION('center_axis',(0.,-1.,0.));
#324=DIRECTION('ref_axis',(1.,0.,0.));
#325=DIRECTION('',(0.,1.,0.));
#326=DIRECTION('center_axis',(0.,-1.,0.));
#327=DIRECTION('ref_axis',(1.,0.,0.));
#328=DIRECTION('center_axis',(0.,-1.,0.));
#329=DIRECTION('ref_axis',(1.,0.,0.));
#330=DIRECTION('center_axis',(0.,-1.,0.));
#331=DIRECTION('ref_axis',(1.,0.,0.));
#332=DIRECTION('',(0.,1.,0.));
#333=DIRECTION('center_axis',(0.,-1.,0.));
#334=DIRECTION('ref_axis',(1.,0.,0.));
#335=DIRECTION('center_axis',(0.,-1.,0.));
#336=DIRECTION('ref_axis',(1.,0.,0.));
#337=DIRECTION('center_axis',(0.,-1.,0.));
#338=DIRECTION('ref_axis',(1.,0.,0.));
#339=DIRECTION('',(0.,1.,0.));
#340=DIRECTION('center_axis',(0.,-1.,0.));
#341=DIRECTION('ref_axis',(1.,0.,0.));
#342=DIRECTION('center_axis',(0.,-1.,0.));
#343=DIRECTION('ref_axis',(1.,0.,0.));
#344=DIRECTION('center_axis',(0.,-1.,0.));
#345=DIRECTION('ref_axis',(1.,0.,0.));
#346=DIRECTION('',(0.,1.,0.));
#347=DIRECTION('center_axis',(0.,-1.,0.));
#348=DIRECTION('ref_axis',(1.,0.,0.));
#349=DIRECTION('center_axis',(0.,-1.,0.));
#350=DIRECTION('ref_axis',(1.,0.,0.));
#351=DIRECTION('',(-0.707106781186548,0.,-0.707106781186547));
#352=DIRECTION('center_axis',(0.,-1.,0.));
#353=DIRECTION('ref_axis',(-0.707106781186547,0.,0.707106781186548));
#354=DIRECTION('',(1.,0.,8.74191357972564E-16));
#355=DIRECTION('center_axis',(0.,-1.,0.));
#356=DIRECTION('ref_axis',(-5.04646829375072E-16,0.,-1.));
#357=DIRECTION('',(0.707106781186548,0.,0.707106781186548));
#358=DIRECTION('center_axis',(0.,-1.,0.));
#359=DIRECTION('ref_axis',(0.707106781186547,0.,-0.707106781186548));
#360=DIRECTION('',(-1.,0.,-2.18547839493141E-16));
#361=DIRECTION('center_axis',(0.,-1.,0.));
#362=DIRECTION('ref_axis',(0.,0.,1.));
#363=DIRECTION('center_axis',(0.,0.,-1.));
#364=DIRECTION('ref_axis',(-1.,0.,0.));
#365=DIRECTION('',(0.,-1.,0.));
#366=DIRECTION('',(-1.,0.,0.));
#367=DIRECTION('',(0.,1.,0.));
#368=DIRECTION('center_axis',(0.,1.,0.));
#369=DIRECTION('ref_axis',(0.707106781186547,0.,-0.707106781186548));
#370=DIRECTION('center_axis',(0.,1.,0.));
#371=DIRECTION('ref_axis',(0.707106781186547,0.,-0.707106781186548));
#372=DIRECTION('',(0.,1.,0.));
#373=DIRECTION('center_axis',(0.707106781186547,0.,-0.707106781186548));
#374=DIRECTION('ref_axis',(-0.707106781186548,0.,-0.707106781186547));
#375=DIRECTION('',(-0.707106781186548,0.,-0.707106781186547));
#376=DIRECTION('',(0.,1.,0.));
#377=DIRECTION('center_axis',(0.,1.,0.));
#378=DIRECTION('ref_axis',(0.,0.,1.));
#379=DIRECTION('center_axis',(0.,1.,0.));
#380=DIRECTION('ref_axis',(0.,0.,1.));
#381=DIRECTION('',(0.,1.,0.));
#382=DIRECTION('center_axis',(0.,0.,1.));
#383=DIRECTION('ref_axis',(1.,0.,0.));
#384=DIRECTION('',(1.,0.,0.));
#385=DIRECTION('',(0.,1.,0.));
#386=DIRECTION('center_axis',(0.,1.,0.));
#387=DIRECTION('ref_axis',(-0.707106781186547,0.,0.707106781186548));
#388=DIRECTION('center_axis',(0.,1.,0.));
#389=DIRECTION('ref_axis',(-0.707106781186547,0.,0.707106781186548));
#390=DIRECTION('',(0.,1.,0.));
#391=DIRECTION('center_axis',(-0.707106781186547,0.,0.707106781186548));
#392=DIRECTION('ref_axis',(0.707106781186548,0.,0.707106781186547));
#393=DIRECTION('',(0.707106781186548,0.,0.707106781186547));
#394=DIRECTION('',(0.,1.,0.));
#395=DIRECTION('center_axis',(0.,1.,0.));
#396=DIRECTION('ref_axis',(0.,0.,-1.));
#397=DIRECTION('center_axis',(0.,1.,0.));
#398=DIRECTION('ref_axis',(0.,0.,-1.));
#399=DIRECTION('center_axis',(0.,1.,0.));
#400=DIRECTION('ref_axis',(1.,0.,0.));
#401=CARTESIAN_POINT('',(0.,0.,0.));
#402=CARTESIAN_POINT('Origin',(-6.35,1.761,-1.27));
#403=CARTESIAN_POINT('',(-7.7589,0.762,-1.27));
#404=CARTESIAN_POINT('Origin',(-6.35,0.762,-1.27));
#405=CARTESIAN_POINT('',(-7.7589,2.975,-1.27));
#406=CARTESIAN_POINT('',(-7.7589,1.761,-1.27));
#407=CARTESIAN_POINT('Origin',(-6.35,2.975,-1.27));
#408=CARTESIAN_POINT('Origin',(1.27,1.761,1.27));
#409=CARTESIAN_POINT('',(-0.138899999999997,0.762,1.27));
#410=CARTESIAN_POINT('Origin',(1.27,0.762,1.27));
#411=CARTESIAN_POINT('',(-0.138899999999997,2.975,1.27));
#412=CARTESIAN_POINT('',(-0.138899999999997,1.761,1.27));
#413=CARTESIAN_POINT('Origin',(1.27,2.975,1.27));
#414=CARTESIAN_POINT('Origin',(-3.81,1.761,1.27));
#415=CARTESIAN_POINT('',(-5.2189,0.762,1.27));
#416=CARTESIAN_POINT('Origin',(-3.81,0.762,1.27));
#417=CARTESIAN_POINT('',(-5.2189,2.975,1.27));
#418=CARTESIAN_POINT('',(-5.2189,1.761,1.27));
#419=CARTESIAN_POINT('Origin',(-3.81,2.975,1.27));
#420=CARTESIAN_POINT('Origin',(-1.27,1.761,-1.27));
#421=CARTESIAN_POINT('',(-2.6789,0.762,-1.27));
#422=CARTESIAN_POINT('Origin',(-1.27,0.762,-1.27));
#423=CARTESIAN_POINT('',(-2.6789,2.975,-1.27));
#424=CARTESIAN_POINT('',(-2.6789,1.761,-1.27));
#425=CARTESIAN_POINT('Origin',(-1.27,2.975,-1.27));
#426=CARTESIAN_POINT('Origin',(-2.54,0.762,5.55111512312578E-16));
#427=CARTESIAN_POINT('',(-5.3656349186104,0.762,2.8256349186104));
#428=CARTESIAN_POINT('',(-7.9056349186104,0.762,0.285634918610408));
#429=CARTESIAN_POINT('',(-5.3656349186104,0.762,2.8256349186104));
#430=CARTESIAN_POINT('',(-6.35,0.762,-3.47));
#431=CARTESIAN_POINT('Origin',(-6.35,0.762,-1.27));
#432=CARTESIAN_POINT('',(-1.27,0.762,-3.46999999999999));
#433=CARTESIAN_POINT('',(-6.35,0.762,-3.47));
#434=CARTESIAN_POINT('',(0.285634918610404,0.762,-2.8256349186104));
#435=CARTESIAN_POINT('Origin',(-1.27,0.762,-1.27));
#436=CARTESIAN_POINT('',(2.8256349186104,0.762,-0.2856349186104));
#437=CARTESIAN_POINT('',(0.285634918610404,0.762,-2.8256349186104));
#438=CARTESIAN_POINT('',(1.27,0.762,3.47));
#439=CARTESIAN_POINT('Origin',(1.27,0.762,1.27));
#440=CARTESIAN_POINT('',(-3.81,0.762,3.47));
#441=CARTESIAN_POINT('',(1.27,0.762,3.47));
#442=CARTESIAN_POINT('Origin',(-3.81,0.762,1.27));
#443=CARTESIAN_POINT('Origin',(-1.27,1.761,-3.47));
#444=CARTESIAN_POINT('',(-6.35,2.975,-3.47));
#445=CARTESIAN_POINT('',(-6.35,1.761,-3.47));
#446=CARTESIAN_POINT('',(-1.27,2.975,-3.46999999999999));
#447=CARTESIAN_POINT('',(-6.35,2.975,-3.47));
#448=CARTESIAN_POINT('',(-1.27,1.761,-3.46999999999999));
#449=CARTESIAN_POINT('Origin',(-1.27,1.761,-1.27));
#450=CARTESIAN_POINT('',(0.285634918610405,2.975,-2.8256349186104));
#451=CARTESIAN_POINT('Origin',(-1.27,2.975,-1.27));
#452=CARTESIAN_POINT('',(0.285634918610404,1.761,-2.8256349186104));
#453=CARTESIAN_POINT('Origin',(2.82563491861041,1.761,-0.285634918610402));
#454=CARTESIAN_POINT('',(2.8256349186104,2.975,-0.2856349186104));
#455=CARTESIAN_POINT('',(0.285634918610404,2.975,-2.8256349186104));
#456=CARTESIAN_POINT('',(2.8256349186104,1.761,-0.2856349186104));
#457=CARTESIAN_POINT('Origin',(1.27,1.761,1.27));
#458=CARTESIAN_POINT('',(1.27,2.975,3.47));
#459=CARTESIAN_POINT('Origin',(1.27,2.975,1.27));
#460=CARTESIAN_POINT('',(1.27,1.761,3.47));
#461=CARTESIAN_POINT('Origin',(-3.81,1.761,3.47));
#462=CARTESIAN_POINT('',(-3.81,2.975,3.47));
#463=CARTESIAN_POINT('',(1.27,2.975,3.47));
#464=CARTESIAN_POINT('',(-3.81,1.761,3.47));
#465=CARTESIAN_POINT('Origin',(-3.81,1.761,1.27));
#466=CARTESIAN_POINT('',(-5.3656349186104,2.975,2.8256349186104));
#467=CARTESIAN_POINT('Origin',(-3.81,2.975,1.27));
#468=CARTESIAN_POINT('',(-5.3656349186104,1.761,2.8256349186104));
#469=CARTESIAN_POINT('Origin',(-7.9056349186104,1.761,0.285634918610406));
#470=CARTESIAN_POINT('',(-7.9056349186104,2.975,0.285634918610407));
#471=CARTESIAN_POINT('',(-5.3656349186104,2.975,2.8256349186104));
#472=CARTESIAN_POINT('',(-7.9056349186104,1.761,0.285634918610408));
#473=CARTESIAN_POINT('Origin',(-6.35,1.761,-1.27));
#474=CARTESIAN_POINT('Origin',(-6.35,2.975,-1.27));
#475=CARTESIAN_POINT('Origin',(-2.54,2.975,4.52117510096883E-16));
#476=UNCERTAINTY_MEASURE_WITH_UNIT(LENGTH_MEASURE(0.01),#480,
'DISTANCE_ACCURACY_VALUE',
'Maximum model space distance between geometric entities at asserted c
onnectivities');
#477=UNCERTAINTY_MEASURE_WITH_UNIT(LENGTH_MEASURE(0.01),#480,
'DISTANCE_ACCURACY_VALUE',
'Maximum model space distance between geometric entities at asserted c
onnectivities');
#478=(
GEOMETRIC_REPRESENTATION_CONTEXT(3)
GLOBAL_UNCERTAINTY_ASSIGNED_CONTEXT((#476))
GLOBAL_UNIT_ASSIGNED_CONTEXT((#480,#482,#483))
REPRESENTATION_CONTEXT('','3D')
);
#479=(
GEOMETRIC_REPRESENTATION_CONTEXT(3)
GLOBAL_UNCERTAINTY_ASSIGNED_CONTEXT((#477))
GLOBAL_UNIT_ASSIGNED_CONTEXT((#480,#482,#483))
REPRESENTATION_CONTEXT('','3D')
);
#480=(
LENGTH_UNIT()
NAMED_UNIT(*)
SI_UNIT(.MILLI.,.METRE.)
);
#481=(
LENGTH_UNIT()
NAMED_UNIT(*)
SI_UNIT($,.METRE.)
);
#482=(
NAMED_UNIT(*)
PLANE_ANGLE_UNIT()
SI_UNIT($,.RADIAN.)
);
#483=(
NAMED_UNIT(*)
SI_UNIT($,.STERADIAN.)
SOLID_ANGLE_UNIT()
);
#484=SHAPE_DEFINITION_REPRESENTATION(#485,#486);
#485=PRODUCT_DEFINITION_SHAPE('',$,#488);
#486=SHAPE_REPRESENTATION('',(#288),#478);
#487=PRODUCT_DEFINITION_CONTEXT('part definition',#492,'design');
#488=PRODUCT_DEFINITION('2026-09-07-14-29-07-420','(Unsaved)',#489,#487);
#489=PRODUCT_DEFINITION_FORMATION('',$,#494);
#490=PRODUCT_RELATED_PRODUCT_CATEGORY('(Unsaved)','(Unsaved)',(#494));
#491=APPLICATION_PROTOCOL_DEFINITION('international standard',
'automotive_design',2009,#492);
#492=APPLICATION_CONTEXT(
'Core Data for Automotive Mechanical Design Process');
#493=PRODUCT_CONTEXT('part definition',#492,'mechanical');
#494=PRODUCT('2026-09-07-14-29-07-420','(Unsaved)',$,(#493));
#495=PRESENTATION_STYLE_ASSIGNMENT((#496));
#496=SURFACE_STYLE_USAGE(.BOTH.,#497);
#497=SURFACE_SIDE_STYLE('',(#498));
#498=SURFACE_STYLE_FILL_AREA(#499);
#499=FILL_AREA_STYLE('Steel - Satin',(#500));
#500=FILL_AREA_STYLE_COLOUR('Steel - Satin',#501);
#501=COLOUR_RGB('Steel - Satin',0.627450980392157,0.627450980392157,0.627450980392157);
ENDSEC;
END-ISO-10303-21;
