ISO-10303-21;
HEADER;
/* Generated by software containing ST-Developer
 * from STEP Tools, Inc. (www.steptools.com) 
 */

FILE_DESCRIPTION(
/* description */ (''),
/* implementation_level */ '2;1');

FILE_NAME(
/* name */ 'electronics-housing-shade_v1.0.step',
/* time_stamp */ '2026-08-29T11:09:38-05:00',
/* author */ (''),
/* organization */ (''),
/* preprocessor_version */ 'ST-DEVELOPER v20.1',
/* originating_system */ 'Autodesk Translation Framework v15.8.0.0',
/* authorisation */ '');

FILE_SCHEMA (('AUTOMOTIVE_DESIGN { 1 0 10303 214 3 1 1 }'));
ENDSEC;

DATA;
#10=MECHANICAL_DESIGN_GEOMETRIC_PRESENTATION_REPRESENTATION('',(#13),#834);
#11=SHAPE_REPRESENTATION_RELATIONSHIP('SRR','None',#841,#12);
#12=ADVANCED_BREP_SHAPE_REPRESENTATION('',(#14),#833);
#13=STYLED_ITEM('',(#850),#14);
#14=MANIFOLD_SOLID_BREP('Body1',#457);
#15=B_SPLINE_CURVE_WITH_KNOTS('',3,(#711,#712,#713,#714,#715,#716),
 .UNSPECIFIED.,.F.,.F.,(4,2,4),(2.33583754943517,2.39196444109144,2.56084412218339),
 .UNSPECIFIED.);
#16=B_SPLINE_CURVE_WITH_KNOTS('',3,(#721,#722,#723,#724,#725,#726),
 .UNSPECIFIED.,.F.,.F.,(4,2,4),(1.45560939954275,1.6244890806347,1.68061597229097),
 .UNSPECIFIED.);
#17=B_SPLINE_CURVE_WITH_KNOTS('',3,(#735,#736,#737,#738,#739,#740,#741,
#742,#743,#744),.UNSPECIFIED.,.F.,.F.,(4,2,2,2,4),(0.606987128414659,0.764095836813236,
0.921204545211813,1.07220127970954,1.22319801420726),.UNSPECIFIED.);
#18=B_SPLINE_CURVE_WITH_KNOTS('',3,(#746,#747,#748,#749,#750,#751,#752,
#753,#754,#755),.UNSPECIFIED.,.F.,.F.,(4,2,2,2,4),(1.22634178343643,1.37741404436358,
1.52848630529072,1.68673071829603,1.84497513130135),.UNSPECIFIED.);
#19=B_SPLINE_CURVE_WITH_KNOTS('',3,(#760,#761,#762,#763,#764,#765,#766,
#767,#768,#769),.UNSPECIFIED.,.F.,.F.,(4,2,2,2,4),(1.22319801420726,1.37419474870498,
1.5251914832027,1.68230019160128,1.83940889999986),.UNSPECIFIED.);
#20=B_SPLINE_CURVE_WITH_KNOTS('',3,(#773,#774,#775,#776,#777,#778,#779,
#780,#781,#782),.UNSPECIFIED.,.F.,.F.,(4,2,2,2,4),(0.607708435571521,0.765952848576835,
0.92419726158215,1.07526952250929,1.22634178343643),.UNSPECIFIED.);
#21=CONICAL_SURFACE('',#486,27.0000000149012,0.785398163397445);
#22=CONICAL_SURFACE('',#513,27.2071067811865,0.785398163397449);
#23=FACE_BOUND('',#63,.T.);
#24=FACE_BOUND('',#68,.T.);
#25=FACE_BOUND('',#78,.T.);
#26=FACE_BOUND('',#82,.T.);
#27=PLANE('',#477);
#28=PLANE('',#479);
#29=PLANE('',#480);
#30=PLANE('',#490);
#31=PLANE('',#494);
#32=PLANE('',#506);
#33=PLANE('',#507);
#34=PLANE('',#508);
#35=PLANE('',#510);
#36=PLANE('',#511);
#37=FACE_OUTER_BOUND('',#60,.T.);
#38=FACE_OUTER_BOUND('',#61,.T.);
#39=FACE_OUTER_BOUND('',#62,.T.);
#40=FACE_OUTER_BOUND('',#64,.T.);
#41=FACE_OUTER_BOUND('',#65,.T.);
#42=FACE_OUTER_BOUND('',#66,.T.);
#43=FACE_OUTER_BOUND('',#67,.T.);
#44=FACE_OUTER_BOUND('',#69,.T.);
#45=FACE_OUTER_BOUND('',#70,.T.);
#46=FACE_OUTER_BOUND('',#71,.T.);
#47=FACE_OUTER_BOUND('',#72,.T.);
#48=FACE_OUTER_BOUND('',#73,.T.);
#49=FACE_OUTER_BOUND('',#74,.T.);
#50=FACE_OUTER_BOUND('',#75,.T.);
#51=FACE_OUTER_BOUND('',#76,.T.);
#52=FACE_OUTER_BOUND('',#77,.T.);
#53=FACE_OUTER_BOUND('',#79,.T.);
#54=FACE_OUTER_BOUND('',#80,.T.);
#55=FACE_OUTER_BOUND('',#81,.T.);
#56=FACE_OUTER_BOUND('',#83,.T.);
#57=FACE_OUTER_BOUND('',#84,.T.);
#58=FACE_OUTER_BOUND('',#85,.T.);
#59=FACE_OUTER_BOUND('',#86,.T.);
#60=EDGE_LOOP('',(#291,#292,#293,#294));
#61=EDGE_LOOP('',(#295,#296,#297,#298));
#62=EDGE_LOOP('',(#299,#300,#301,#302,#303,#304,#305));
#63=EDGE_LOOP('',(#306));
#64=EDGE_LOOP('',(#307,#308,#309,#310));
#65=EDGE_LOOP('',(#311,#312,#313,#314,#315,#316,#317,#318,#319,#320,#321));
#66=EDGE_LOOP('',(#322,#323,#324,#325,#326));
#67=EDGE_LOOP('',(#327,#328,#329,#330,#331));
#68=EDGE_LOOP('',(#332));
#69=EDGE_LOOP('',(#333,#334,#335,#336));
#70=EDGE_LOOP('',(#337,#338,#339,#340));
#71=EDGE_LOOP('',(#341,#342,#343,#344));
#72=EDGE_LOOP('',(#345,#346,#347,#348));
#73=EDGE_LOOP('',(#349,#350,#351,#352));
#74=EDGE_LOOP('',(#353,#354,#355,#356));
#75=EDGE_LOOP('',(#357,#358,#359,#360,#361));
#76=EDGE_LOOP('',(#362,#363,#364,#365,#366));
#77=EDGE_LOOP('',(#367,#368,#369,#370,#371));
#78=EDGE_LOOP('',(#372));
#79=EDGE_LOOP('',(#373,#374,#375,#376));
#80=EDGE_LOOP('',(#377,#378,#379,#380,#381));
#81=EDGE_LOOP('',(#382,#383,#384,#385,#386,#387,#388));
#82=EDGE_LOOP('',(#389));
#83=EDGE_LOOP('',(#390,#391,#392,#393,#394));
#84=EDGE_LOOP('',(#395,#396,#397,#398,#399));
#85=EDGE_LOOP('',(#400,#401,#402,#403,#404,#405,#406,#407,#408,#409,#410,
#411));
#86=EDGE_LOOP('',(#412,#413,#414,#415,#416,#417,#418,#419,#420,#421,#422));
#87=CIRCLE('',#472,2.);
#88=CIRCLE('',#473,2.);
#89=CIRCLE('',#475,2.);
#90=CIRCLE('',#476,2.);
#91=CIRCLE('',#478,2.6);
#92=CIRCLE('',#481,13.6);
#93=CIRCLE('',#482,26.5000000149012);
#94=CIRCLE('',#483,13.6);
#95=CIRCLE('',#484,25.5);
#96=CIRCLE('',#485,25.5);
#97=CIRCLE('',#487,26.5000000149012);
#98=CIRCLE('',#488,27.5);
#99=CIRCLE('',#489,27.5);
#100=CIRCLE('',#491,2.6);
#101=CIRCLE('',#495,25.5);
#102=CIRCLE('',#496,27.5);
#103=CIRCLE('',#498,2.6);
#104=CIRCLE('',#500,2.6);
#105=CIRCLE('',#503,13.6);
#106=CIRCLE('',#505,13.6);
#107=CIRCLE('',#509,27.5);
#108=CIRCLE('',#512,27.5);
#109=CIRCLE('',#514,25.5);
#110=CIRCLE('',#515,27.5);
#111=CIRCLE('',#516,25.5);
#112=LINE('',#656,#147);
#113=LINE('',#660,#148);
#114=LINE('',#667,#149);
#115=LINE('',#670,#150);
#116=LINE('',#673,#151);
#117=LINE('',#675,#152);
#118=LINE('',#677,#153);
#119=LINE('',#679,#154);
#120=LINE('',#681,#155);
#121=LINE('',#682,#156);
#122=LINE('',#687,#157);
#123=LINE('',#689,#158);
#124=LINE('',#690,#159);
#125=LINE('',#693,#160);
#126=LINE('',#700,#161);
#127=LINE('',#702,#162);
#128=LINE('',#729,#163);
#129=LINE('',#730,#164);
#130=LINE('',#756,#165);
#131=LINE('',#771,#166);
#132=LINE('',#783,#167);
#133=LINE('',#789,#168);
#134=LINE('',#794,#169);
#135=LINE('',#796,#170);
#136=LINE('',#797,#171);
#137=LINE('',#802,#172);
#138=LINE('',#806,#173);
#139=LINE('',#807,#174);
#140=LINE('',#809,#175);
#141=LINE('',#814,#176);
#142=LINE('',#815,#177);
#143=LINE('',#816,#178);
#144=LINE('',#824,#179);
#145=LINE('',#828,#180);
#146=LINE('',#830,#181);
#147=VECTOR('',#523,10.);
#148=VECTOR('',#526,10.);
#149=VECTOR('',#533,10.);
#150=VECTOR('',#536,10.);
#151=VECTOR('',#539,10.);
#152=VECTOR('',#540,10.);
#153=VECTOR('',#541,10.);
#154=VECTOR('',#542,10.);
#155=VECTOR('',#543,10.);
#156=VECTOR('',#544,10.);
#157=VECTOR('',#549,10.);
#158=VECTOR('',#550,10.);
#159=VECTOR('',#551,10.);
#160=VECTOR('',#554,10.);
#161=VECTOR('',#561,10.);
#162=VECTOR('',#562,10.);
#163=VECTOR('',#577,10.);
#164=VECTOR('',#578,10.);
#165=VECTOR('',#583,10.);
#166=VECTOR('',#586,10.);
#167=VECTOR('',#587,10.);
#168=VECTOR('',#596,2.6);
#169=VECTOR('',#603,2.6);
#170=VECTOR('',#606,10.);
#171=VECTOR('',#607,10.);
#172=VECTOR('',#614,10.);
#173=VECTOR('',#619,10.);
#174=VECTOR('',#620,10.);
#175=VECTOR('',#623,10.);
#176=VECTOR('',#630,10.);
#177=VECTOR('',#631,10.);
#178=VECTOR('',#632,10.);
#179=VECTOR('',#641,26.5);
#180=VECTOR('',#648,27.5);
#181=VECTOR('',#651,25.5);
#182=VERTEX_POINT('',#654);
#183=VERTEX_POINT('',#655);
#184=VERTEX_POINT('',#657);
#185=VERTEX_POINT('',#659);
#186=VERTEX_POINT('',#663);
#187=VERTEX_POINT('',#664);
#188=VERTEX_POINT('',#666);
#189=VERTEX_POINT('',#668);
#190=VERTEX_POINT('',#672);
#191=VERTEX_POINT('',#674);
#192=VERTEX_POINT('',#676);
#193=VERTEX_POINT('',#678);
#194=VERTEX_POINT('',#680);
#195=VERTEX_POINT('',#683);
#196=VERTEX_POINT('',#686);
#197=VERTEX_POINT('',#688);
#198=VERTEX_POINT('',#692);
#199=VERTEX_POINT('',#694);
#200=VERTEX_POINT('',#696);
#201=VERTEX_POINT('',#698);
#202=VERTEX_POINT('',#701);
#203=VERTEX_POINT('',#703);
#204=VERTEX_POINT('',#707);
#205=VERTEX_POINT('',#708);
#206=VERTEX_POINT('',#710);
#207=VERTEX_POINT('',#717);
#208=VERTEX_POINT('',#719);
#209=VERTEX_POINT('',#728);
#210=VERTEX_POINT('',#731);
#211=VERTEX_POINT('',#734);
#212=VERTEX_POINT('',#745);
#213=VERTEX_POINT('',#758);
#214=VERTEX_POINT('',#759);
#215=VERTEX_POINT('',#770);
#216=VERTEX_POINT('',#772);
#217=VERTEX_POINT('',#788);
#218=VERTEX_POINT('',#792);
#219=VERTEX_POINT('',#801);
#220=VERTEX_POINT('',#805);
#221=VERTEX_POINT('',#813);
#222=VERTEX_POINT('',#820);
#223=VERTEX_POINT('',#821);
#224=VERTEX_POINT('',#823);
#225=EDGE_CURVE('',#182,#183,#112,.T.);
#226=EDGE_CURVE('',#184,#182,#87,.T.);
#227=EDGE_CURVE('',#185,#184,#113,.T.);
#228=EDGE_CURVE('',#183,#185,#88,.T.);
#229=EDGE_CURVE('',#186,#187,#89,.T.);
#230=EDGE_CURVE('',#188,#186,#114,.T.);
#231=EDGE_CURVE('',#189,#188,#90,.T.);
#232=EDGE_CURVE('',#189,#187,#115,.T.);
#233=EDGE_CURVE('',#190,#185,#116,.F.);
#234=EDGE_CURVE('',#191,#190,#117,.T.);
#235=EDGE_CURVE('',#192,#191,#118,.T.);
#236=EDGE_CURVE('',#192,#193,#119,.T.);
#237=EDGE_CURVE('',#193,#194,#120,.T.);
#238=EDGE_CURVE('',#194,#183,#121,.F.);
#239=EDGE_CURVE('',#195,#195,#91,.T.);
#240=EDGE_CURVE('',#196,#186,#122,.T.);
#241=EDGE_CURVE('',#197,#196,#123,.F.);
#242=EDGE_CURVE('',#197,#188,#124,.T.);
#243=EDGE_CURVE('',#184,#198,#125,.F.);
#244=EDGE_CURVE('',#198,#199,#92,.F.);
#245=EDGE_CURVE('',#199,#200,#93,.F.);
#246=EDGE_CURVE('',#200,#201,#94,.F.);
#247=EDGE_CURVE('',#201,#187,#126,.F.);
#248=EDGE_CURVE('',#189,#202,#127,.F.);
#249=EDGE_CURVE('',#202,#203,#95,.F.);
#250=EDGE_CURVE('',#203,#190,#96,.F.);
#251=EDGE_CURVE('',#204,#205,#97,.T.);
#252=EDGE_CURVE('',#205,#206,#15,.T.);
#253=EDGE_CURVE('',#207,#206,#98,.T.);
#254=EDGE_CURVE('',#208,#207,#99,.T.);
#255=EDGE_CURVE('',#208,#204,#16,.T.);
#256=EDGE_CURVE('',#209,#201,#128,.T.);
#257=EDGE_CURVE('',#196,#209,#129,.F.);
#258=EDGE_CURVE('',#210,#210,#100,.T.);
#259=EDGE_CURVE('',#192,#211,#17,.F.);
#260=EDGE_CURVE('',#191,#212,#18,.T.);
#261=EDGE_CURVE('',#212,#211,#130,.T.);
#262=EDGE_CURVE('',#213,#214,#19,.T.);
#263=EDGE_CURVE('',#214,#215,#131,.T.);
#264=EDGE_CURVE('',#215,#216,#20,.T.);
#265=EDGE_CURVE('',#216,#213,#132,.T.);
#266=EDGE_CURVE('',#215,#212,#101,.T.);
#267=EDGE_CURVE('',#211,#214,#102,.T.);
#268=EDGE_CURVE('',#210,#217,#133,.T.);
#269=EDGE_CURVE('',#217,#217,#103,.T.);
#270=EDGE_CURVE('',#218,#218,#104,.T.);
#271=EDGE_CURVE('',#218,#195,#134,.T.);
#272=EDGE_CURVE('',#199,#205,#135,.T.);
#273=EDGE_CURVE('',#204,#200,#136,.T.);
#274=EDGE_CURVE('',#208,#209,#105,.T.);
#275=EDGE_CURVE('',#219,#198,#137,.T.);
#276=EDGE_CURVE('',#219,#206,#106,.T.);
#277=EDGE_CURVE('',#220,#182,#138,.F.);
#278=EDGE_CURVE('',#219,#220,#139,.F.);
#279=EDGE_CURVE('',#194,#220,#140,.T.);
#280=EDGE_CURVE('',#206,#193,#107,.T.);
#281=EDGE_CURVE('',#221,#197,#141,.T.);
#282=EDGE_CURVE('',#221,#213,#142,.T.);
#283=EDGE_CURVE('',#216,#202,#143,.T.);
#284=EDGE_CURVE('',#221,#208,#108,.T.);
#285=EDGE_CURVE('',#222,#223,#109,.T.);
#286=EDGE_CURVE('',#223,#224,#144,.T.);
#287=EDGE_CURVE('',#224,#224,#110,.T.);
#288=EDGE_CURVE('',#223,#222,#111,.T.);
#289=EDGE_CURVE('',#207,#224,#145,.T.);
#290=EDGE_CURVE('',#203,#222,#146,.T.);
#291=ORIENTED_EDGE('',*,*,#225,.F.);
#292=ORIENTED_EDGE('',*,*,#226,.F.);
#293=ORIENTED_EDGE('',*,*,#227,.F.);
#294=ORIENTED_EDGE('',*,*,#228,.F.);
#295=ORIENTED_EDGE('',*,*,#229,.F.);
#296=ORIENTED_EDGE('',*,*,#230,.F.);
#297=ORIENTED_EDGE('',*,*,#231,.F.);
#298=ORIENTED_EDGE('',*,*,#232,.T.);
#299=ORIENTED_EDGE('',*,*,#228,.T.);
#300=ORIENTED_EDGE('',*,*,#233,.F.);
#301=ORIENTED_EDGE('',*,*,#234,.F.);
#302=ORIENTED_EDGE('',*,*,#235,.F.);
#303=ORIENTED_EDGE('',*,*,#236,.T.);
#304=ORIENTED_EDGE('',*,*,#237,.T.);
#305=ORIENTED_EDGE('',*,*,#238,.T.);
#306=ORIENTED_EDGE('',*,*,#239,.T.);
#307=ORIENTED_EDGE('',*,*,#230,.T.);
#308=ORIENTED_EDGE('',*,*,#240,.F.);
#309=ORIENTED_EDGE('',*,*,#241,.F.);
#310=ORIENTED_EDGE('',*,*,#242,.T.);
#311=ORIENTED_EDGE('',*,*,#227,.T.);
#312=ORIENTED_EDGE('',*,*,#243,.T.);
#313=ORIENTED_EDGE('',*,*,#244,.T.);
#314=ORIENTED_EDGE('',*,*,#245,.T.);
#315=ORIENTED_EDGE('',*,*,#246,.T.);
#316=ORIENTED_EDGE('',*,*,#247,.T.);
#317=ORIENTED_EDGE('',*,*,#232,.F.);
#318=ORIENTED_EDGE('',*,*,#248,.T.);
#319=ORIENTED_EDGE('',*,*,#249,.T.);
#320=ORIENTED_EDGE('',*,*,#250,.T.);
#321=ORIENTED_EDGE('',*,*,#233,.T.);
#322=ORIENTED_EDGE('',*,*,#251,.T.);
#323=ORIENTED_EDGE('',*,*,#252,.T.);
#324=ORIENTED_EDGE('',*,*,#253,.F.);
#325=ORIENTED_EDGE('',*,*,#254,.F.);
#326=ORIENTED_EDGE('',*,*,#255,.T.);
#327=ORIENTED_EDGE('',*,*,#229,.T.);
#328=ORIENTED_EDGE('',*,*,#247,.F.);
#329=ORIENTED_EDGE('',*,*,#256,.F.);
#330=ORIENTED_EDGE('',*,*,#257,.F.);
#331=ORIENTED_EDGE('',*,*,#240,.T.);
#332=ORIENTED_EDGE('',*,*,#258,.T.);
#333=ORIENTED_EDGE('',*,*,#259,.F.);
#334=ORIENTED_EDGE('',*,*,#235,.T.);
#335=ORIENTED_EDGE('',*,*,#260,.T.);
#336=ORIENTED_EDGE('',*,*,#261,.T.);
#337=ORIENTED_EDGE('',*,*,#262,.T.);
#338=ORIENTED_EDGE('',*,*,#263,.T.);
#339=ORIENTED_EDGE('',*,*,#264,.T.);
#340=ORIENTED_EDGE('',*,*,#265,.T.);
#341=ORIENTED_EDGE('',*,*,#261,.F.);
#342=ORIENTED_EDGE('',*,*,#266,.F.);
#343=ORIENTED_EDGE('',*,*,#263,.F.);
#344=ORIENTED_EDGE('',*,*,#267,.F.);
#345=ORIENTED_EDGE('',*,*,#258,.F.);
#346=ORIENTED_EDGE('',*,*,#268,.T.);
#347=ORIENTED_EDGE('',*,*,#269,.F.);
#348=ORIENTED_EDGE('',*,*,#268,.F.);
#349=ORIENTED_EDGE('',*,*,#270,.F.);
#350=ORIENTED_EDGE('',*,*,#271,.T.);
#351=ORIENTED_EDGE('',*,*,#239,.F.);
#352=ORIENTED_EDGE('',*,*,#271,.F.);
#353=ORIENTED_EDGE('',*,*,#245,.F.);
#354=ORIENTED_EDGE('',*,*,#272,.T.);
#355=ORIENTED_EDGE('',*,*,#251,.F.);
#356=ORIENTED_EDGE('',*,*,#273,.T.);
#357=ORIENTED_EDGE('',*,*,#255,.F.);
#358=ORIENTED_EDGE('',*,*,#274,.T.);
#359=ORIENTED_EDGE('',*,*,#256,.T.);
#360=ORIENTED_EDGE('',*,*,#246,.F.);
#361=ORIENTED_EDGE('',*,*,#273,.F.);
#362=ORIENTED_EDGE('',*,*,#252,.F.);
#363=ORIENTED_EDGE('',*,*,#272,.F.);
#364=ORIENTED_EDGE('',*,*,#244,.F.);
#365=ORIENTED_EDGE('',*,*,#275,.F.);
#366=ORIENTED_EDGE('',*,*,#276,.T.);
#367=ORIENTED_EDGE('',*,*,#226,.T.);
#368=ORIENTED_EDGE('',*,*,#277,.F.);
#369=ORIENTED_EDGE('',*,*,#278,.F.);
#370=ORIENTED_EDGE('',*,*,#275,.T.);
#371=ORIENTED_EDGE('',*,*,#243,.F.);
#372=ORIENTED_EDGE('',*,*,#270,.T.);
#373=ORIENTED_EDGE('',*,*,#225,.T.);
#374=ORIENTED_EDGE('',*,*,#238,.F.);
#375=ORIENTED_EDGE('',*,*,#279,.T.);
#376=ORIENTED_EDGE('',*,*,#277,.T.);
#377=ORIENTED_EDGE('',*,*,#280,.F.);
#378=ORIENTED_EDGE('',*,*,#276,.F.);
#379=ORIENTED_EDGE('',*,*,#278,.T.);
#380=ORIENTED_EDGE('',*,*,#279,.F.);
#381=ORIENTED_EDGE('',*,*,#237,.F.);
#382=ORIENTED_EDGE('',*,*,#231,.T.);
#383=ORIENTED_EDGE('',*,*,#242,.F.);
#384=ORIENTED_EDGE('',*,*,#281,.F.);
#385=ORIENTED_EDGE('',*,*,#282,.T.);
#386=ORIENTED_EDGE('',*,*,#265,.F.);
#387=ORIENTED_EDGE('',*,*,#283,.T.);
#388=ORIENTED_EDGE('',*,*,#248,.F.);
#389=ORIENTED_EDGE('',*,*,#269,.T.);
#390=ORIENTED_EDGE('',*,*,#281,.T.);
#391=ORIENTED_EDGE('',*,*,#241,.T.);
#392=ORIENTED_EDGE('',*,*,#257,.T.);
#393=ORIENTED_EDGE('',*,*,#274,.F.);
#394=ORIENTED_EDGE('',*,*,#284,.F.);
#395=ORIENTED_EDGE('',*,*,#285,.T.);
#396=ORIENTED_EDGE('',*,*,#286,.T.);
#397=ORIENTED_EDGE('',*,*,#287,.T.);
#398=ORIENTED_EDGE('',*,*,#286,.F.);
#399=ORIENTED_EDGE('',*,*,#288,.T.);
#400=ORIENTED_EDGE('',*,*,#254,.T.);
#401=ORIENTED_EDGE('',*,*,#289,.T.);
#402=ORIENTED_EDGE('',*,*,#287,.F.);
#403=ORIENTED_EDGE('',*,*,#289,.F.);
#404=ORIENTED_EDGE('',*,*,#253,.T.);
#405=ORIENTED_EDGE('',*,*,#280,.T.);
#406=ORIENTED_EDGE('',*,*,#236,.F.);
#407=ORIENTED_EDGE('',*,*,#259,.T.);
#408=ORIENTED_EDGE('',*,*,#267,.T.);
#409=ORIENTED_EDGE('',*,*,#262,.F.);
#410=ORIENTED_EDGE('',*,*,#282,.F.);
#411=ORIENTED_EDGE('',*,*,#284,.T.);
#412=ORIENTED_EDGE('',*,*,#234,.T.);
#413=ORIENTED_EDGE('',*,*,#250,.F.);
#414=ORIENTED_EDGE('',*,*,#290,.T.);
#415=ORIENTED_EDGE('',*,*,#288,.F.);
#416=ORIENTED_EDGE('',*,*,#285,.F.);
#417=ORIENTED_EDGE('',*,*,#290,.F.);
#418=ORIENTED_EDGE('',*,*,#249,.F.);
#419=ORIENTED_EDGE('',*,*,#283,.F.);
#420=ORIENTED_EDGE('',*,*,#264,.F.);
#421=ORIENTED_EDGE('',*,*,#266,.T.);
#422=ORIENTED_EDGE('',*,*,#260,.F.);
#423=CYLINDRICAL_SURFACE('',#471,2.);
#424=CYLINDRICAL_SURFACE('',#474,2.);
#425=CYLINDRICAL_SURFACE('',#492,4.);
#426=CYLINDRICAL_SURFACE('',#493,4.);
#427=CYLINDRICAL_SURFACE('',#497,2.6);
#428=CYLINDRICAL_SURFACE('',#499,2.6);
#429=CYLINDRICAL_SURFACE('',#501,26.5000000149012);
#430=CYLINDRICAL_SURFACE('',#502,13.6);
#431=CYLINDRICAL_SURFACE('',#504,13.6);
#432=CYLINDRICAL_SURFACE('',#517,27.5);
#433=CYLINDRICAL_SURFACE('',#518,25.5);
#434=ADVANCED_FACE('',(#37),#423,.T.);
#435=ADVANCED_FACE('',(#38),#424,.T.);
#436=ADVANCED_FACE('',(#39,#23),#27,.T.);
#437=ADVANCED_FACE('',(#40),#28,.T.);
#438=ADVANCED_FACE('',(#41),#29,.F.);
#439=ADVANCED_FACE('',(#42),#21,.T.);
#440=ADVANCED_FACE('',(#43,#24),#30,.T.);
#441=ADVANCED_FACE('',(#44),#425,.F.);
#442=ADVANCED_FACE('',(#45),#426,.F.);
#443=ADVANCED_FACE('',(#46),#31,.F.);
#444=ADVANCED_FACE('',(#47),#427,.F.);
#445=ADVANCED_FACE('',(#48),#428,.F.);
#446=ADVANCED_FACE('',(#49),#429,.T.);
#447=ADVANCED_FACE('',(#50),#430,.F.);
#448=ADVANCED_FACE('',(#51),#431,.F.);
#449=ADVANCED_FACE('',(#52,#25),#32,.T.);
#450=ADVANCED_FACE('',(#53),#33,.T.);
#451=ADVANCED_FACE('',(#54),#34,.T.);
#452=ADVANCED_FACE('',(#55,#26),#35,.T.);
#453=ADVANCED_FACE('',(#56),#36,.T.);
#454=ADVANCED_FACE('',(#57),#22,.T.);
#455=ADVANCED_FACE('',(#58),#432,.T.);
#456=ADVANCED_FACE('',(#59),#433,.F.);
#457=CLOSED_SHELL('',(#434,#435,#436,#437,#438,#439,#440,#441,#442,#443,
#444,#445,#446,#447,#448,#449,#450,#451,#452,#453,#454,#455,#456));
#458=DERIVED_UNIT_ELEMENT(#460,1.);
#459=DERIVED_UNIT_ELEMENT(#836,-3.);
#460=(
MASS_UNIT()
NAMED_UNIT(*)
SI_UNIT(.KILO.,.GRAM.)
);
#461=DERIVED_UNIT((#458,#459));
#462=MEASURE_REPRESENTATION_ITEM('density measure',
POSITIVE_RATIO_MEASURE(7850.),#461);
#463=PROPERTY_DEFINITION_REPRESENTATION(#468,#465);
#464=PROPERTY_DEFINITION_REPRESENTATION(#469,#466);
#465=REPRESENTATION('material name',(#467),#833);
#466=REPRESENTATION('density',(#462),#833);
#467=DESCRIPTIVE_REPRESENTATION_ITEM('Steel','Steel');
#468=PROPERTY_DEFINITION('material property','material name',#843);
#469=PROPERTY_DEFINITION('material property','density of part',#843);
#470=AXIS2_PLACEMENT_3D('',#652,#519,#520);
#471=AXIS2_PLACEMENT_3D('',#653,#521,#522);
#472=AXIS2_PLACEMENT_3D('',#658,#524,#525);
#473=AXIS2_PLACEMENT_3D('',#661,#527,#528);
#474=AXIS2_PLACEMENT_3D('',#662,#529,#530);
#475=AXIS2_PLACEMENT_3D('',#665,#531,#532);
#476=AXIS2_PLACEMENT_3D('',#669,#534,#535);
#477=AXIS2_PLACEMENT_3D('',#671,#537,#538);
#478=AXIS2_PLACEMENT_3D('',#684,#545,#546);
#479=AXIS2_PLACEMENT_3D('',#685,#547,#548);
#480=AXIS2_PLACEMENT_3D('',#691,#552,#553);
#481=AXIS2_PLACEMENT_3D('',#695,#555,#556);
#482=AXIS2_PLACEMENT_3D('',#697,#557,#558);
#483=AXIS2_PLACEMENT_3D('',#699,#559,#560);
#484=AXIS2_PLACEMENT_3D('',#704,#563,#564);
#485=AXIS2_PLACEMENT_3D('',#705,#565,#566);
#486=AXIS2_PLACEMENT_3D('',#706,#567,#568);
#487=AXIS2_PLACEMENT_3D('',#709,#569,#570);
#488=AXIS2_PLACEMENT_3D('',#718,#571,#572);
#489=AXIS2_PLACEMENT_3D('',#720,#573,#574);
#490=AXIS2_PLACEMENT_3D('',#727,#575,#576);
#491=AXIS2_PLACEMENT_3D('',#732,#579,#580);
#492=AXIS2_PLACEMENT_3D('',#733,#581,#582);
#493=AXIS2_PLACEMENT_3D('',#757,#584,#585);
#494=AXIS2_PLACEMENT_3D('',#784,#588,#589);
#495=AXIS2_PLACEMENT_3D('',#785,#590,#591);
#496=AXIS2_PLACEMENT_3D('',#786,#592,#593);
#497=AXIS2_PLACEMENT_3D('',#787,#594,#595);
#498=AXIS2_PLACEMENT_3D('',#790,#597,#598);
#499=AXIS2_PLACEMENT_3D('',#791,#599,#600);
#500=AXIS2_PLACEMENT_3D('',#793,#601,#602);
#501=AXIS2_PLACEMENT_3D('',#795,#604,#605);
#502=AXIS2_PLACEMENT_3D('',#798,#608,#609);
#503=AXIS2_PLACEMENT_3D('',#799,#610,#611);
#504=AXIS2_PLACEMENT_3D('',#800,#612,#613);
#505=AXIS2_PLACEMENT_3D('',#803,#615,#616);
#506=AXIS2_PLACEMENT_3D('',#804,#617,#618);
#507=AXIS2_PLACEMENT_3D('',#808,#621,#622);
#508=AXIS2_PLACEMENT_3D('',#810,#624,#625);
#509=AXIS2_PLACEMENT_3D('',#811,#626,#627);
#510=AXIS2_PLACEMENT_3D('',#812,#628,#629);
#511=AXIS2_PLACEMENT_3D('',#817,#633,#634);
#512=AXIS2_PLACEMENT_3D('',#818,#635,#636);
#513=AXIS2_PLACEMENT_3D('',#819,#637,#638);
#514=AXIS2_PLACEMENT_3D('',#822,#639,#640);
#515=AXIS2_PLACEMENT_3D('',#825,#642,#643);
#516=AXIS2_PLACEMENT_3D('',#826,#644,#645);
#517=AXIS2_PLACEMENT_3D('',#827,#646,#647);
#518=AXIS2_PLACEMENT_3D('',#829,#649,#650);
#519=DIRECTION('axis',(0.,0.,1.));
#520=DIRECTION('refdir',(1.,0.,0.));
#521=DIRECTION('center_axis',(-1.,-3.33066907387547E-15,-9.06304509898082E-16));
#522=DIRECTION('ref_axis',(-3.14018491736755E-15,0.707106781186547,0.707106781186548));
#523=DIRECTION('',(-1.,-3.33066907387547E-15,-9.06304509898082E-16));
#524=DIRECTION('center_axis',(1.,3.33066907387547E-15,-2.72256918406425E-61));
#525=DIRECTION('ref_axis',(-3.14018491736755E-15,0.707106781186547,0.707106781186548));
#526=DIRECTION('',(1.,3.33066907387547E-15,9.06304509898082E-16));
#527=DIRECTION('center_axis',(-1.,-3.33066907387547E-15,-1.58603289232165E-16));
#528=DIRECTION('ref_axis',(-3.14018491736755E-15,0.707106781186547,0.707106781186548));
#529=DIRECTION('center_axis',(1.,3.33066907387547E-15,-9.06304509898113E-16));
#530=DIRECTION('ref_axis',(-1.57009245868377E-15,0.707106781186547,0.707106781186548));
#531=DIRECTION('center_axis',(-1.,-3.33066907387547E-15,0.));
#532=DIRECTION('ref_axis',(-1.57009245868377E-15,0.707106781186547,0.707106781186548));
#533=DIRECTION('',(-1.,-3.33066907387547E-15,9.06304509898113E-16));
#534=DIRECTION('center_axis',(1.,3.33066907387547E-15,2.48920611114446E-60));
#535=DIRECTION('ref_axis',(-1.57009245868377E-15,0.707106781186547,0.707106781186548));
#536=DIRECTION('',(-1.,-3.33066907387547E-15,9.06304509898113E-16));
#537=DIRECTION('center_axis',(-1.,-3.33066907387547E-15,-1.58603289232165E-16));
#538=DIRECTION('ref_axis',(-1.58603289232165E-16,-5.282550704605E-31,1.));
#539=DIRECTION('',(1.58603289232165E-16,8.91245109906387E-31,-1.));
#540=DIRECTION('',(-3.33066907387547E-15,1.,0.));
#541=DIRECTION('',(1.58603289232165E-16,5.282550704605E-31,-1.));
#542=DIRECTION('',(3.37507799486048E-15,-1.,0.));
#543=DIRECTION('',(-1.58603289232165E-16,-5.282550704605E-31,1.));
#544=DIRECTION('',(3.33066907387547E-15,-1.,0.));
#545=DIRECTION('center_axis',(1.,3.33066907387547E-15,1.58603289232165E-16));
#546=DIRECTION('ref_axis',(0.,9.06797698284917E-76,-1.));
#547=DIRECTION('center_axis',(9.06304509898113E-16,3.01860040263151E-30,
1.));
#548=DIRECTION('ref_axis',(1.,3.33066907387548E-15,-9.06304509898113E-16));
#549=DIRECTION('',(-3.33066907387547E-15,1.,0.));
#550=DIRECTION('',(1.,3.33066907387548E-15,-9.06304509898113E-16));
#551=DIRECTION('',(-3.33066907387547E-15,1.,0.));
#552=DIRECTION('center_axis',(3.33066907387547E-15,-1.,-3.62990039445887E-31));
#553=DIRECTION('ref_axis',(1.,3.33066907387547E-15,0.));
#554=DIRECTION('',(1.20899969850725E-45,-3.62990039445887E-31,1.));
#555=DIRECTION('center_axis',(-3.33066907387547E-15,1.,3.62990039445887E-31));
#556=DIRECTION('ref_axis',(-1.,-3.33066907387547E-15,-9.04626168213088E-16));
#557=DIRECTION('center_axis',(3.33066907387547E-15,-1.,-3.62990039445887E-31));
#558=DIRECTION('ref_axis',(-1.,-3.33066907387547E-15,0.));
#559=DIRECTION('center_axis',(-3.33066907387547E-15,1.,3.62990039445887E-31));
#560=DIRECTION('ref_axis',(0.683544303797466,2.27665987328196E-15,-0.729909024979167));
#561=DIRECTION('',(-1.20899969850725E-45,3.62990039445887E-31,-1.));
#562=DIRECTION('',(1.20899969850725E-45,-3.62990039445887E-31,1.));
#563=DIRECTION('center_axis',(-3.33066907387547E-15,1.,3.62990039445887E-31));
#564=DIRECTION('ref_axis',(-1.,-3.33066907387547E-15,0.));
#565=DIRECTION('center_axis',(-3.33066907387547E-15,1.,3.62990039445887E-31));
#566=DIRECTION('ref_axis',(-1.,-3.33066907387547E-15,0.));
#567=DIRECTION('center_axis',(3.33066907387548E-15,-1.,0.));
#568=DIRECTION('ref_axis',(-1.59265981952815E-15,-1.75302423285699E-30,
-1.));
#569=DIRECTION('center_axis',(3.33066907387547E-15,-1.,0.));
#570=DIRECTION('ref_axis',(-1.,-3.33066907387547E-15,0.));
#571=DIRECTION('center_axis',(3.33066907387547E-15,-1.,0.));
#572=DIRECTION('ref_axis',(1.,3.37507799486048E-15,0.));
#573=DIRECTION('center_axis',(3.33066907387547E-15,-1.,0.));
#574=DIRECTION('ref_axis',(1.,3.37507799486048E-15,0.));
#575=DIRECTION('center_axis',(-1.,-3.33066907387547E-15,0.));
#576=DIRECTION('ref_axis',(0.,0.,1.));
#577=DIRECTION('',(-3.33066907387547E-15,1.,0.));
#578=DIRECTION('',(-1.60564700668417E-45,4.82079417399424E-31,1.));
#579=DIRECTION('center_axis',(1.,3.33066907387547E-15,0.));
#580=DIRECTION('ref_axis',(0.,9.06797698284917E-76,-1.));
#581=DIRECTION('center_axis',(1.58603289232165E-16,5.282550704605E-31,-1.));
#582=DIRECTION('ref_axis',(0.70710678118655,-0.707106781186545,0.));
#583=DIRECTION('',(-1.58603289232165E-16,-5.282550704605E-31,1.));
#584=DIRECTION('center_axis',(-2.48920611114446E-60,-8.29072181289068E-75,
1.));
#585=DIRECTION('ref_axis',(-0.707106781186545,-0.70710678118655,0.));
#586=DIRECTION('',(2.48920611114446E-60,8.29072181289068E-75,-1.));
#587=DIRECTION('',(-2.48920611114446E-60,-8.29072181289068E-75,1.));
#588=DIRECTION('center_axis',(3.33066907387547E-15,-1.,0.));
#589=DIRECTION('ref_axis',(0.,0.,-1.));
#590=DIRECTION('center_axis',(-3.33066907387547E-15,1.,-1.52562722150351E-31));
#591=DIRECTION('ref_axis',(-1.,-3.33066907387547E-15,0.));
#592=DIRECTION('center_axis',(3.33066907387547E-15,-1.,0.));
#593=DIRECTION('ref_axis',(1.,3.37507799486048E-15,0.));
#594=DIRECTION('center_axis',(-1.,3.33066907387547E-15,0.));
#595=DIRECTION('ref_axis',(0.,9.06797698284917E-76,-1.));
#596=DIRECTION('',(1.,-3.33066907387547E-15,0.));
#597=DIRECTION('center_axis',(-1.,-3.33066907387547E-15,-2.48920611114446E-60));
#598=DIRECTION('ref_axis',(0.,9.06797698284917E-76,-1.));
#599=DIRECTION('center_axis',(-1.,-3.33066907387547E-15,0.));
#600=DIRECTION('ref_axis',(0.,9.06797698284917E-76,-1.));
#601=DIRECTION('center_axis',(-1.,-3.33066907387547E-15,2.72256918406425E-61));
#602=DIRECTION('ref_axis',(0.,9.06797698284917E-76,-1.));
#603=DIRECTION('',(-1.,-3.33066907387547E-15,0.));
#604=DIRECTION('center_axis',(-3.33066907387547E-15,1.,0.));
#605=DIRECTION('ref_axis',(-3.3690166589284E-15,-1.1311967691148E-29,-1.));
#606=DIRECTION('',(3.33066907387547E-15,-1.,0.));
#607=DIRECTION('',(-3.33066907387547E-15,1.,0.));
#608=DIRECTION('center_axis',(-3.33066907387547E-15,1.,0.));
#609=DIRECTION('ref_axis',(0.683544303797466,2.27665987328196E-15,-0.729909024979167));
#610=DIRECTION('center_axis',(3.33066907387548E-15,-1.,4.82079417399424E-31));
#611=DIRECTION('ref_axis',(0.683544303797466,2.27665987328196E-15,-0.729909024979167));
#612=DIRECTION('center_axis',(-3.33066907387547E-15,1.,0.));
#613=DIRECTION('ref_axis',(-1.,-3.33066907387547E-15,-9.04626168213088E-16));
#614=DIRECTION('',(-3.33066907387547E-15,1.,0.));
#615=DIRECTION('center_axis',(3.33066907387547E-15,-1.,-3.62990039445887E-31));
#616=DIRECTION('ref_axis',(-1.,-3.33066907387547E-15,-9.04626168213088E-16));
#617=DIRECTION('center_axis',(1.,3.33066907387547E-15,-2.72256918406425E-61));
#618=DIRECTION('ref_axis',(-1.82159025755806E-46,5.46914213677347E-32,-1.));
#619=DIRECTION('',(3.33066907387547E-15,-1.,0.));
#620=DIRECTION('',(-1.20899969850725E-45,3.62990039445887E-31,-1.));
#621=DIRECTION('center_axis',(-9.06304509898082E-16,-3.01860040263141E-30,
1.));
#622=DIRECTION('ref_axis',(1.,3.33066907387548E-15,9.06304509898082E-16));
#623=DIRECTION('',(1.,3.33066907387547E-15,9.06304509898082E-16));
#624=DIRECTION('center_axis',(3.33066907387547E-15,-1.,-3.62990039445887E-31));
#625=DIRECTION('ref_axis',(1.,3.33066907387547E-15,0.));
#626=DIRECTION('center_axis',(3.33066907387547E-15,-1.,0.));
#627=DIRECTION('ref_axis',(1.,3.37507799486048E-15,0.));
#628=DIRECTION('center_axis',(1.,3.33066907387547E-15,2.48920611114446E-60));
#629=DIRECTION('ref_axis',(1.60564700668417E-45,-4.82079417399424E-31,-1.));
#630=DIRECTION('',(-1.60564700668417E-45,4.82079417399424E-31,1.));
#631=DIRECTION('',(-3.37507799486048E-15,1.,0.));
#632=DIRECTION('',(-3.33066907387547E-15,1.,0.));
#633=DIRECTION('center_axis',(3.33066907387548E-15,-1.,4.82079417399424E-31));
#634=DIRECTION('ref_axis',(1.,3.33066907387548E-15,0.));
#635=DIRECTION('center_axis',(3.33066907387547E-15,-1.,0.));
#636=DIRECTION('ref_axis',(1.,3.37507799486048E-15,0.));
#637=DIRECTION('center_axis',(-3.33066907387547E-15,1.,0.));
#638=DIRECTION('ref_axis',(1.,3.3537114385375E-15,0.));
#639=DIRECTION('center_axis',(-3.33066907387547E-15,1.,0.));
#640=DIRECTION('ref_axis',(-1.,-3.33066907387547E-15,0.));
#641=DIRECTION('',(-0.70710678118655,0.707106781186545,-8.65956056235494E-17));
#642=DIRECTION('center_axis',(3.37507799486048E-15,-1.,0.));
#643=DIRECTION('ref_axis',(1.,3.37507799486048E-15,0.));
#644=DIRECTION('center_axis',(-3.33066907387547E-15,1.,0.));
#645=DIRECTION('ref_axis',(-1.,-3.33066907387547E-15,0.));
#646=DIRECTION('center_axis',(-3.37507799486048E-15,1.,0.));
#647=DIRECTION('ref_axis',(1.,3.37507799486048E-15,0.));
#648=DIRECTION('',(3.37507799486048E-15,-1.,0.));
#649=DIRECTION('center_axis',(-3.33066907387547E-15,1.,0.));
#650=DIRECTION('ref_axis',(-1.,-3.33066907387547E-15,0.));
#651=DIRECTION('',(3.33066907387547E-15,-1.,0.));
#652=CARTESIAN_POINT('',(0.,0.,0.));
#653=CARTESIAN_POINT('Origin',(5.04999999999996,3.50000000000033,22.4997959336351));
#654=CARTESIAN_POINT('',(13.4,4.12449979984018,24.3997959336351));
#655=CARTESIAN_POINT('',(10.1,4.12449979984017,24.3997959336351));
#656=CARTESIAN_POINT('',(5.04999999999996,4.12449979984016,24.3997959336351));
#657=CARTESIAN_POINT('',(13.4,5.50000000000035,22.4997959336351));
#658=CARTESIAN_POINT('Origin',(13.4,3.50000000000035,22.4997959336351));
#659=CARTESIAN_POINT('',(10.1,5.50000000000034,22.4997959336351));
#660=CARTESIAN_POINT('',(5.04999999999996,5.50000000000033,22.4997959336351));
#661=CARTESIAN_POINT('Origin',(10.0999999999999,3.50000000000034,22.4997959336351));
#662=CARTESIAN_POINT('Origin',(-6.74999999999993,3.50000000000029,22.3997959336351));
#663=CARTESIAN_POINT('',(-13.3999999999999,3.50000000000027,24.3997959336351));
#664=CARTESIAN_POINT('',(-13.3999999999999,5.50000000000027,22.3997959336351));
#665=CARTESIAN_POINT('Origin',(-13.3999999999999,3.50000000000027,22.3997959336351));
#666=CARTESIAN_POINT('',(-10.1,3.50000000000028,24.3997959336351));
#667=CARTESIAN_POINT('',(-6.74999999999993,3.50000000000029,24.3997959336351));
#668=CARTESIAN_POINT('',(-10.1,5.50000000000028,22.3997959336351));
#669=CARTESIAN_POINT('Origin',(-10.1,3.50000000000028,22.3997959336351));
#670=CARTESIAN_POINT('',(-6.74999999999993,5.50000000000029,22.3997959336351));
#671=CARTESIAN_POINT('Origin',(10.1,-9.99999999999966,-3.50020406636493));
#672=CARTESIAN_POINT('',(10.1,5.50000000000034,-4.58547459374843));
#673=CARTESIAN_POINT('',(10.1,5.50000000000034,-15.7501020331825));
#674=CARTESIAN_POINT('',(10.1,-5.99999999999966,-4.58547459374843));
#675=CARTESIAN_POINT('',(10.1,-3.99999999999965,-4.58547459374843));
#676=CARTESIAN_POINT('',(10.1,-5.99999999999966,-2.42188435400293));
#677=CARTESIAN_POINT('',(10.1,-5.99999999999966,-15.7501020331825));
#678=CARTESIAN_POINT('',(10.1,-9.99999999999966,-2.42188435400293));
#679=CARTESIAN_POINT('',(10.1000000000001,-35.4999999999997,-2.42188435400293));
#680=CARTESIAN_POINT('',(10.1,-9.99999999999966,24.3997959336351));
#681=CARTESIAN_POINT('',(10.1,-9.99999999999966,-3.50020406636493));
#682=CARTESIAN_POINT('',(10.1,-9.99999999999966,24.3997959336351));
#683=CARTESIAN_POINT('',(10.1,3.1568035762681E-14,21.4997959336351));
#684=CARTESIAN_POINT('Origin',(10.1,3.18864439304593E-14,18.8997959336351));
#685=CARTESIAN_POINT('Origin',(-13.4999999999998,-9.99999999999974,24.3997959336351));
#686=CARTESIAN_POINT('',(-13.3999999999998,-9.99999999999974,24.3997959336351));
#687=CARTESIAN_POINT('',(-13.3999999999998,-9.99999999999974,24.3997959336351));
#688=CARTESIAN_POINT('',(-10.1,-9.99999999999972,24.3997959336351));
#689=CARTESIAN_POINT('',(-6.74999999999988,-9.99999999999971,24.3997959336351));
#690=CARTESIAN_POINT('',(-10.1,-9.99999999999972,24.3997959336351));
#691=CARTESIAN_POINT('Origin',(-1.38777878078154E-14,5.50000000000031,-28.));
#692=CARTESIAN_POINT('',(13.4,5.50000000000035,0.831406486676994));
#693=CARTESIAN_POINT('',(13.4,5.50000000000035,-1.75010203318246));
#694=CARTESIAN_POINT('',(15.5919734267662,5.50000000000036,-6.57243911573749));
#695=CARTESIAN_POINT('Origin',(27.,5.5000000000004,0.831406486677007));
#696=CARTESIAN_POINT('',(-15.5919734267661,5.50000000000026,-6.5724391157374));
#697=CARTESIAN_POINT('Origin',(-1.51061484907802E-14,5.50000000000031,-28.));
#698=CARTESIAN_POINT('',(-13.3999999999999,5.50000000000027,0.831406486677117));
#699=CARTESIAN_POINT('Origin',(-26.9999999999999,5.50000000000022,0.831406486677121));
#700=CARTESIAN_POINT('',(-13.3999999999999,5.50000000000027,-13.5842967566614));
#701=CARTESIAN_POINT('',(-10.1,5.50000000000028,-4.58547459374845));
#702=CARTESIAN_POINT('',(-10.1,5.50000000000028,-1.75010203318247));
#703=CARTESIAN_POINT('',(25.5,5.5000000000004,-28.));
#704=CARTESIAN_POINT('Origin',(-1.51061484907802E-14,5.50000000000031,-28.));
#705=CARTESIAN_POINT('Origin',(-1.51061484907802E-14,5.50000000000031,-28.));
#706=CARTESIAN_POINT('Origin',(3.48538876173518E-14,-9.49999999999969,-28.));
#707=CARTESIAN_POINT('',(-15.5919734267661,-8.99999999999974,-6.5724391157374));
#708=CARTESIAN_POINT('',(15.5919734267663,-8.99999999999964,-6.57243911573749));
#709=CARTESIAN_POINT('Origin',(3.31885530804141E-14,-8.99999999999969,-28.));
#710=CARTESIAN_POINT('',(14.5637064507487,-9.99999999999964,-4.67301017241141));
#711=CARTESIAN_POINT('Ctrl Pts',(15.5919734267663,-8.99999999999963,-6.57243911573749));
#712=CARTESIAN_POINT('Ctrl Pts',(15.4909593060648,-9.06641825949808,-6.41679408542266));
#713=CARTESIAN_POINT('Ctrl Pts',(15.39374501209,-9.13768578738002,-6.26002074716274));
#714=CARTESIAN_POINT('Ctrl Pts',(15.0196805937188,-9.44080195896325,-5.62886976230469));
#715=CARTESIAN_POINT('Ctrl Pts',(14.7740800083646,-9.70823357922517,-5.14831345754669));
#716=CARTESIAN_POINT('Ctrl Pts',(14.5637064481744,-9.99999998866874,-4.67301016659529));
#717=CARTESIAN_POINT('',(-27.5,-9.99999999999979,-28.));
#718=CARTESIAN_POINT('Origin',(3.65192221542895E-14,-9.99999999999969,-28.));
#719=CARTESIAN_POINT('',(-14.5637064507485,-9.99999999999974,-4.67301017241134));
#720=CARTESIAN_POINT('Origin',(3.65192221542895E-14,-9.99999999999969,-28.));
#721=CARTESIAN_POINT('Ctrl Pts',(-14.5637064481743,-9.99999998866883,-4.67301016659523));
#722=CARTESIAN_POINT('Ctrl Pts',(-14.7740800083645,-9.70823357922526,-5.14831345754663));
#723=CARTESIAN_POINT('Ctrl Pts',(-15.0196805937187,-9.44080195896335,-5.62886976230463));
#724=CARTESIAN_POINT('Ctrl Pts',(-15.3937450120898,-9.13768578738012,-6.26002074716266));
#725=CARTESIAN_POINT('Ctrl Pts',(-15.4909593060646,-9.06641825949819,-6.41679408542258));
#726=CARTESIAN_POINT('Ctrl Pts',(-15.5919734267661,-8.99999999999974,-6.5724391157374));
#727=CARTESIAN_POINT('Origin',(-13.3999999999998,-9.99999999999974,0.831406486677118));
#728=CARTESIAN_POINT('',(-13.3999999999998,-9.99999999999974,0.831406486677117));
#729=CARTESIAN_POINT('',(-13.3999999999998,-9.99999999999974,0.831406486677116));
#730=CARTESIAN_POINT('',(-13.3999999999998,-9.99999999999974,-7.33434777325268));
#731=CARTESIAN_POINT('',(-13.3999999999998,4.25592437064695E-14,21.4997959336351));
#732=CARTESIAN_POINT('Origin',(-13.3999999999998,4.28776518742478E-14,18.8997959336351));
#733=CARTESIAN_POINT('Origin',(6.1,-5.99999999999967,-15.7501020331825));
#734=CARTESIAN_POINT('',(6.10000000000001,-9.99999999999967,-1.18507878064901));
#735=CARTESIAN_POINT('Ctrl Pts',(6.10000000000001,-9.99999999999967,-1.18507878064901));
#736=CARTESIAN_POINT('Ctrl Pts',(6.6106494107372,-9.99999999999967,-1.30124400746492));
#737=CARTESIAN_POINT('Ctrl Pts',(7.1515741521461,-9.89661014358601,-1.44116584345967));
#738=CARTESIAN_POINT('Ctrl Pts',(8.14366295290343,-9.48034771609538,-1.72839102097391));
#739=CARTESIAN_POINT('Ctrl Pts',(8.59508789968369,-9.16760038395626,-1.87497422429598));
#740=CARTESIAN_POINT('Ctrl Pts',(9.29508263623664,-8.45577506913626,-2.11596873876757));
#741=CARTESIAN_POINT('Ctrl Pts',(9.59654874990754,-8.01316996879072,-2.22787049266105));
#742=CARTESIAN_POINT('Ctrl Pts',(9.99912481080413,-7.03707798562023,-2.38137569206558));
#743=CARTESIAN_POINT('Ctrl Pts',(10.1,-6.5033224483254,-2.42188435400293));
#744=CARTESIAN_POINT('Ctrl Pts',(10.1,-5.99999999999966,-2.42188435400293));
#745=CARTESIAN_POINT('',(6.10000000000001,-9.99999999999967,-3.24035541450564));
#746=CARTESIAN_POINT('Ctrl Pts',(10.1,-5.99999999999966,-4.58547459374843));
#747=CARTESIAN_POINT('Ctrl Pts',(10.1,-6.50357420309013,-4.58547459374843));
#748=CARTESIAN_POINT('Ctrl Pts',(9.99902054679342,-7.03698185018549,-4.54116598512082));
#749=CARTESIAN_POINT('Ctrl Pts',(9.59742203141045,-8.01140086649093,-4.37402289410298));
#750=CARTESIAN_POINT('Ctrl Pts',(9.29707696998882,-8.45273796765194,-4.2524316147221));
#751=CARTESIAN_POINT('Ctrl Pts',(8.59888466654242,-9.16478423609415,-3.99052852655666));
#752=CARTESIAN_POINT('Ctrl Pts',(8.14723096551242,-9.47837249775198,-3.83093635732435));
#753=CARTESIAN_POINT('Ctrl Pts',(7.15402428912109,-9.89605736804772,-3.51855914752625));
#754=CARTESIAN_POINT('Ctrl Pts',(6.612166722046,-9.99999999999967,-3.36653723402622));
#755=CARTESIAN_POINT('Ctrl Pts',(6.10000000000002,-9.99999999999967,-3.24035541450565));
#756=CARTESIAN_POINT('',(6.10000000000002,-9.99999999999967,-15.7501020331825));
#757=CARTESIAN_POINT('Origin',(-6.09999999999999,-5.99999999999971,-1.75010203318247));
#758=CARTESIAN_POINT('',(-10.1,-5.99999999999972,-2.42188435400294));
#759=CARTESIAN_POINT('',(-6.09999999999997,-9.99999999999971,-1.18507878064901));
#760=CARTESIAN_POINT('Ctrl Pts',(-10.1,-5.99999999999973,-2.42188435400294));
#761=CARTESIAN_POINT('Ctrl Pts',(-10.1,-6.50332244832547,-2.42188435400294));
#762=CARTESIAN_POINT('Ctrl Pts',(-9.99912481080411,-7.0370779856203,-2.38137569206559));
#763=CARTESIAN_POINT('Ctrl Pts',(-9.59654874990751,-8.01316996879079,-2.22787049266106));
#764=CARTESIAN_POINT('Ctrl Pts',(-9.29508263623661,-8.45577506913632,-2.11596873876758));
#765=CARTESIAN_POINT('Ctrl Pts',(-8.59508789968366,-9.16760038395632,-1.87497422429599));
#766=CARTESIAN_POINT('Ctrl Pts',(-8.1436629529034,-9.48034771609543,-1.72839102097391));
#767=CARTESIAN_POINT('Ctrl Pts',(-7.15157415214606,-9.89661014358606,-1.44116584345968));
#768=CARTESIAN_POINT('Ctrl Pts',(-6.61064941073717,-9.99999999999971,-1.30124400746493));
#769=CARTESIAN_POINT('Ctrl Pts',(-6.09999999999998,-9.99999999999971,-1.18507878064902));
#770=CARTESIAN_POINT('',(-6.09999999999997,-9.99999999999971,-3.24035541450565));
#771=CARTESIAN_POINT('',(-6.09999999999997,-9.99999999999971,-1.75010203318247));
#772=CARTESIAN_POINT('',(-10.1,-5.99999999999972,-4.58547459374845));
#773=CARTESIAN_POINT('Ctrl Pts',(-6.09999999999997,-9.99999999999971,-3.24035541450565));
#774=CARTESIAN_POINT('Ctrl Pts',(-6.61216672204596,-9.99999999999971,-3.36653723402623));
#775=CARTESIAN_POINT('Ctrl Pts',(-7.15402428912104,-9.89605736804777,-3.51855914752625));
#776=CARTESIAN_POINT('Ctrl Pts',(-8.14723096551237,-9.47837249775203,-3.83093635732436));
#777=CARTESIAN_POINT('Ctrl Pts',(-8.59888466654238,-9.16478423609421,-3.99052852655666));
#778=CARTESIAN_POINT('Ctrl Pts',(-9.29707696998878,-8.452737967652,-4.25243161472211));
#779=CARTESIAN_POINT('Ctrl Pts',(-9.59742203141043,-8.011400866491,-4.374022894103));
#780=CARTESIAN_POINT('Ctrl Pts',(-9.9990205467934,-7.03698185018556,-4.54116598512083));
#781=CARTESIAN_POINT('Ctrl Pts',(-10.1,-6.5035742030902,-4.58547459374845));
#782=CARTESIAN_POINT('Ctrl Pts',(-10.1,-5.99999999999972,-4.58547459374845));
#783=CARTESIAN_POINT('',(-10.1,-5.99999999999972,-1.75010203318247));
#784=CARTESIAN_POINT('Origin',(3.41393580072236E-14,-9.99999999999969,-28.));
#785=CARTESIAN_POINT('Origin',(3.65192221542895E-14,-9.99999999999969,-28.));
#786=CARTESIAN_POINT('Origin',(3.65192221542895E-14,-9.99999999999969,-28.));
#787=CARTESIAN_POINT('Origin',(-13.4,4.28776518742484E-14,18.8997959336351));
#788=CARTESIAN_POINT('',(-10.0999999999999,3.22048520982375E-14,21.4997959336351));
#789=CARTESIAN_POINT('',(-13.4,4.31960600420268E-14,21.4997959336351));
#790=CARTESIAN_POINT('Origin',(-10.0999999999999,3.18864439304592E-14,18.8997959336351));
#791=CARTESIAN_POINT('Origin',(13.4,4.28776518742484E-14,18.8997959336351));
#792=CARTESIAN_POINT('',(13.4,4.31960600420268E-14,21.4997959336351));
#793=CARTESIAN_POINT('Origin',(13.4,4.28776518742484E-14,18.8997959336351));
#794=CARTESIAN_POINT('',(13.4,4.31960600420268E-14,21.4997959336351));
#795=CARTESIAN_POINT('Origin',(3.65192221542895E-14,-9.99999999999969,-28.));
#796=CARTESIAN_POINT('',(15.5919734267663,-9.99999999999964,-6.57243911573749));
#797=CARTESIAN_POINT('',(-15.5919734267661,-9.99999999999974,-6.5724391157374));
#798=CARTESIAN_POINT('Origin',(-26.9999999999999,-9.99999999999978,0.831406486677121));
#799=CARTESIAN_POINT('Origin',(-26.9999999999999,-9.99999999999978,0.831406486677121));
#800=CARTESIAN_POINT('Origin',(27.0000000000001,-9.9999999999996,0.831406486677007));
#801=CARTESIAN_POINT('',(13.4,-9.99999999999965,0.831406486676994));
#802=CARTESIAN_POINT('',(13.4,-9.99999999999965,0.831406486676994));
#803=CARTESIAN_POINT('Origin',(27.0000000000001,-9.9999999999996,0.831406486677007));
#804=CARTESIAN_POINT('Origin',(13.4,-9.99999999999965,24.4997959336351));
#805=CARTESIAN_POINT('',(13.4,-9.99999999999965,24.3997959336351));
#806=CARTESIAN_POINT('',(13.4,-9.99999999999965,24.3997959336351));
#807=CARTESIAN_POINT('',(13.4,-9.99999999999965,-1.75010203318246));
#808=CARTESIAN_POINT('Origin',(10.1,-9.99999999999966,24.3997959336351));
#809=CARTESIAN_POINT('',(5.05,-9.99999999999967,24.3997959336351));
#810=CARTESIAN_POINT('Origin',(3.77475828372543E-14,-9.99999999999969,-28.));
#811=CARTESIAN_POINT('Origin',(3.65192221542895E-14,-9.99999999999969,-28.));
#812=CARTESIAN_POINT('Origin',(-10.1,-9.99999999999972,24.4997959336351));
#813=CARTESIAN_POINT('',(-10.1,-9.99999999999972,-2.42188435400294));
#814=CARTESIAN_POINT('',(-10.1,-9.99999999999972,-3.50020406636494));
#815=CARTESIAN_POINT('',(-10.0999999999999,-35.4999999999997,-2.42188435400294));
#816=CARTESIAN_POINT('',(-10.1,-3.99999999999972,-4.58547459374845));
#817=CARTESIAN_POINT('Origin',(3.77475828372543E-14,-9.99999999999969,-15.5001020331825));
#818=CARTESIAN_POINT('Origin',(3.65192221542895E-14,-9.99999999999969,-28.));
#819=CARTESIAN_POINT('Origin',(1.28269518785133E-13,-37.2071067811862,-28.));
#820=CARTESIAN_POINT('',(25.5000000000001,-38.9142135623727,-28.));
#821=CARTESIAN_POINT('',(-25.4999999999999,-38.9142135623729,-28.));
#822=CARTESIAN_POINT('Origin',(1.32822899061916E-13,-38.9142135623728,-28.));
#823=CARTESIAN_POINT('',(-27.4999999999999,-36.9142135623729,-28.));
#824=CARTESIAN_POINT('',(-27.2071067811864,-37.2071067811863,-28.));
#825=CARTESIAN_POINT('Origin',(1.2735679209763E-13,-36.9142135623728,-28.));
#826=CARTESIAN_POINT('Origin',(1.32822899061916E-13,-38.9142135623728,-28.));
#827=CARTESIAN_POINT('Origin',(1.22583711023232E-13,-35.4999999999997,-28.));
#828=CARTESIAN_POINT('',(-27.4999999999999,-35.4999999999998,-28.));
#829=CARTESIAN_POINT('Origin',(3.65192221542895E-14,-9.99999999999969,-28.));
#830=CARTESIAN_POINT('',(25.5,-9.9999999999996,-28.));
#831=UNCERTAINTY_MEASURE_WITH_UNIT(LENGTH_MEASURE(0.01),#835,
'DISTANCE_ACCURACY_VALUE',
'Maximum model space distance between geometric entities at asserted c
onnectivities');
#832=UNCERTAINTY_MEASURE_WITH_UNIT(LENGTH_MEASURE(0.01),#835,
'DISTANCE_ACCURACY_VALUE',
'Maximum model space distance between geometric entities at asserted c
onnectivities');
#833=(
GEOMETRIC_REPRESENTATION_CONTEXT(3)
GLOBAL_UNCERTAINTY_ASSIGNED_CONTEXT((#831))
GLOBAL_UNIT_ASSIGNED_CONTEXT((#835,#837,#838))
REPRESENTATION_CONTEXT('','3D')
);
#834=(
GEOMETRIC_REPRESENTATION_CONTEXT(3)
GLOBAL_UNCERTAINTY_ASSIGNED_CONTEXT((#832))
GLOBAL_UNIT_ASSIGNED_CONTEXT((#835,#837,#838))
REPRESENTATION_CONTEXT('','3D')
);
#835=(
LENGTH_UNIT()
NAMED_UNIT(*)
SI_UNIT(.MILLI.,.METRE.)
);
#836=(
LENGTH_UNIT()
NAMED_UNIT(*)
SI_UNIT($,.METRE.)
);
#837=(
NAMED_UNIT(*)
PLANE_ANGLE_UNIT()
SI_UNIT($,.RADIAN.)
);
#838=(
NAMED_UNIT(*)
SI_UNIT($,.STERADIAN.)
SOLID_ANGLE_UNIT()
);
#839=SHAPE_DEFINITION_REPRESENTATION(#840,#841);
#840=PRODUCT_DEFINITION_SHAPE('',$,#843);
#841=SHAPE_REPRESENTATION('',(#470),#833);
#842=PRODUCT_DEFINITION_CONTEXT('part definition',#847,'design');
#843=PRODUCT_DEFINITION('2026-08-29-11-09-38-213','(Unsaved)',#844,#842);
#844=PRODUCT_DEFINITION_FORMATION('',$,#849);
#845=PRODUCT_RELATED_PRODUCT_CATEGORY('(Unsaved)','(Unsaved)',(#849));
#846=APPLICATION_PROTOCOL_DEFINITION('international standard',
'automotive_design',2009,#847);
#847=APPLICATION_CONTEXT(
'Core Data for Automotive Mechanical Design Process');
#848=PRODUCT_CONTEXT('part definition',#847,'mechanical');
#849=PRODUCT('2026-08-29-11-09-38-213','(Unsaved)',$,(#848));
#850=PRESENTATION_STYLE_ASSIGNMENT((#851));
#851=SURFACE_STYLE_USAGE(.BOTH.,#852);
#852=SURFACE_SIDE_STYLE('',(#853));
#853=SURFACE_STYLE_FILL_AREA(#854);
#854=FILL_AREA_STYLE('Steel - Satin',(#855));
#855=FILL_AREA_STYLE_COLOUR('Steel - Satin',#856);
#856=COLOUR_RGB('Steel - Satin',0.627450980392157,0.627450980392157,0.627450980392157);
ENDSEC;
END-ISO-10303-21;
