ISO-10303-21;
HEADER;
/* Generated by software containing ST-Developer
 * from STEP Tools, Inc. (www.steptools.com) 
 */

FILE_DESCRIPTION(
/* description */ (''),
/* implementation_level */ '2;1');

FILE_NAME(
/* name */ 'pulley-mount_v1.0.step',
/* time_stamp */ '2026-08-29T11:09:45-05:00',
/* author */ (''),
/* organization */ (''),
/* preprocessor_version */ 'ST-DEVELOPER v20.1',
/* originating_system */ 'Autodesk Translation Framework v15.8.0.0',
/* authorisation */ '');

FILE_SCHEMA (('AUTOMOTIVE_DESIGN { 1 0 10303 214 3 1 1 }'));
ENDSEC;

DATA;
#10=MECHANICAL_DESIGN_GEOMETRIC_PRESENTATION_REPRESENTATION('',(#13),#1793);
#11=SHAPE_REPRESENTATION_RELATIONSHIP('SRR','None',#1800,#12);
#12=ADVANCED_BREP_SHAPE_REPRESENTATION('',(#14),#1792);
#13=STYLED_ITEM('',(#1809),#14);
#14=MANIFOLD_SOLID_BREP('Body1',#1066);
#15=CONICAL_SURFACE('',#1124,3.35,0.785398163397498);
#16=CONICAL_SURFACE('',#1130,3.35,0.785398163397498);
#17=CONICAL_SURFACE('',#1154,3.1,0.78539816339745);
#18=FACE_BOUND('',#343,.T.);
#19=FACE_BOUND('',#345,.T.);
#20=FACE_BOUND('',#346,.T.);
#21=FACE_BOUND('',#349,.T.);
#22=FACE_BOUND('',#352,.T.);
#23=FACE_BOUND('',#354,.T.);
#24=FACE_BOUND('',#356,.T.);
#25=FACE_BOUND('',#359,.T.);
#26=FACE_BOUND('',#367,.T.);
#27=FACE_BOUND('',#374,.T.);
#28=TOROIDAL_SURFACE('',#1095,5.5,0.5);
#29=TOROIDAL_SURFACE('',#1100,5.5,0.5);
#30=TOROIDAL_SURFACE('',#1108,5.5,0.5);
#31=TOROIDAL_SURFACE('',#1114,5.5,0.5);
#32=CYLINDRICAL_SURFACE('',#1092,0.5);
#33=CYLINDRICAL_SURFACE('',#1098,0.5);
#34=CYLINDRICAL_SURFACE('',#1103,0.5);
#35=CYLINDRICAL_SURFACE('',#1105,0.5);
#36=CYLINDRICAL_SURFACE('',#1112,0.5);
#37=CYLINDRICAL_SURFACE('',#1118,0.5);
#38=CYLINDRICAL_SURFACE('',#1140,2.35);
#39=CYLINDRICAL_SURFACE('',#1143,6.);
#40=CYLINDRICAL_SURFACE('',#1144,6.);
#41=CYLINDRICAL_SURFACE('',#1145,6.);
#42=CYLINDRICAL_SURFACE('',#1146,6.);
#43=CYLINDRICAL_SURFACE('',#1152,4.5);
#44=CYLINDRICAL_SURFACE('',#1156,2.6);
#45=CYLINDRICAL_SURFACE('',#1157,4.475);
#46=CYLINDRICAL_SURFACE('',#1167,2.6);
#47=LINE('',#1494,#155);
#48=LINE('',#1496,#156);
#49=LINE('',#1498,#157);
#50=LINE('',#1499,#158);
#51=LINE('',#1502,#159);
#52=LINE('',#1504,#160);
#53=LINE('',#1505,#161);
#54=LINE('',#1508,#162);
#55=LINE('',#1510,#163);
#56=LINE('',#1511,#164);
#57=LINE('',#1514,#165);
#58=LINE('',#1516,#166);
#59=LINE('',#1517,#167);
#60=LINE('',#1520,#168);
#61=LINE('',#1521,#169);
#62=LINE('',#1524,#170);
#63=LINE('',#1525,#171);
#64=LINE('',#1527,#172);
#65=LINE('',#1531,#173);
#66=LINE('',#1533,#174);
#67=LINE('',#1537,#175);
#68=LINE('',#1540,#176);
#69=LINE('',#1545,#177);
#70=LINE('',#1554,#178);
#71=LINE('',#1562,#179);
#72=LINE('',#1568,#180);
#73=LINE('',#1571,#181);
#74=LINE('',#1582,#182);
#75=LINE('',#1583,#183);
#76=LINE('',#1594,#184);
#77=LINE('',#1595,#185);
#78=LINE('',#1597,#186);
#79=LINE('',#1602,#187);
#80=LINE('',#1604,#188);
#81=LINE('',#1606,#189);
#82=LINE('',#1608,#190);
#83=LINE('',#1610,#191);
#84=LINE('',#1612,#192);
#85=LINE('',#1614,#193);
#86=LINE('',#1616,#194);
#87=LINE('',#1617,#195);
#88=LINE('',#1619,#196);
#89=LINE('',#1621,#197);
#90=LINE('',#1623,#198);
#91=LINE('',#1625,#199);
#92=LINE('',#1627,#200);
#93=LINE('',#1629,#201);
#94=LINE('',#1631,#202);
#95=LINE('',#1633,#203);
#96=LINE('',#1634,#204);
#97=LINE('',#1641,#205);
#98=LINE('',#1648,#206);
#99=LINE('',#1652,#207);
#100=LINE('',#1654,#208);
#101=LINE('',#1655,#209);
#102=LINE('',#1660,#210);
#103=LINE('',#1667,#211);
#104=LINE('',#1671,#212);
#105=LINE('',#1673,#213);
#106=LINE('',#1674,#214);
#107=LINE('',#1682,#215);
#108=LINE('',#1685,#216);
#109=LINE('',#1687,#217);
#110=LINE('',#1689,#218);
#111=LINE('',#1691,#219);
#112=LINE('',#1693,#220);
#113=LINE('',#1695,#221);
#114=LINE('',#1697,#222);
#115=LINE('',#1699,#223);
#116=LINE('',#1701,#224);
#117=LINE('',#1702,#225);
#118=LINE('',#1704,#226);
#119=LINE('',#1706,#227);
#120=LINE('',#1708,#228);
#121=LINE('',#1710,#229);
#122=LINE('',#1712,#230);
#123=LINE('',#1714,#231);
#124=LINE('',#1716,#232);
#125=LINE('',#1717,#233);
#126=LINE('',#1721,#234);
#127=LINE('',#1722,#235);
#128=LINE('',#1724,#236);
#129=LINE('',#1725,#237);
#130=LINE('',#1727,#238);
#131=LINE('',#1728,#239);
#132=LINE('',#1730,#240);
#133=LINE('',#1731,#241);
#134=LINE('',#1733,#242);
#135=LINE('',#1735,#243);
#136=LINE('',#1736,#244);
#137=LINE('',#1743,#245);
#138=LINE('',#1745,#246);
#139=LINE('',#1746,#247);
#140=LINE('',#1750,#248);
#141=LINE('',#1752,#249);
#142=LINE('',#1755,#250);
#143=LINE('',#1762,#251);
#144=LINE('',#1764,#252);
#145=LINE('',#1765,#253);
#146=LINE('',#1768,#254);
#147=LINE('',#1770,#255);
#148=LINE('',#1772,#256);
#149=LINE('',#1775,#257);
#150=LINE('',#1777,#258);
#151=LINE('',#1780,#259);
#152=LINE('',#1783,#260);
#153=LINE('',#1786,#261);
#154=LINE('',#1788,#262);
#155=VECTOR('',#1187,10.);
#156=VECTOR('',#1188,10.);
#157=VECTOR('',#1189,10.);
#158=VECTOR('',#1190,10.);
#159=VECTOR('',#1193,10.);
#160=VECTOR('',#1194,10.);
#161=VECTOR('',#1195,10.);
#162=VECTOR('',#1198,10.);
#163=VECTOR('',#1199,10.);
#164=VECTOR('',#1200,10.);
#165=VECTOR('',#1203,10.);
#166=VECTOR('',#1204,10.);
#167=VECTOR('',#1205,10.);
#168=VECTOR('',#1208,10.);
#169=VECTOR('',#1209,10.);
#170=VECTOR('',#1212,10.);
#171=VECTOR('',#1213,10.);
#172=VECTOR('',#1216,10.);
#173=VECTOR('',#1219,10.);
#174=VECTOR('',#1220,10.);
#175=VECTOR('',#1223,10.);
#176=VECTOR('',#1226,10.);
#177=VECTOR('',#1231,10.);
#178=VECTOR('',#1244,10.);
#179=VECTOR('',#1255,10.);
#180=VECTOR('',#1260,10.);
#181=VECTOR('',#1263,10.);
#182=VECTOR('',#1276,10.);
#183=VECTOR('',#1277,10.);
#184=VECTOR('',#1290,10.);
#185=VECTOR('',#1291,10.);
#186=VECTOR('',#1294,10.);
#187=VECTOR('',#1299,10.);
#188=VECTOR('',#1300,10.);
#189=VECTOR('',#1301,10.);
#190=VECTOR('',#1302,10.);
#191=VECTOR('',#1303,10.);
#192=VECTOR('',#1304,10.);
#193=VECTOR('',#1305,10.);
#194=VECTOR('',#1306,10.);
#195=VECTOR('',#1307,10.);
#196=VECTOR('',#1308,10.);
#197=VECTOR('',#1309,10.);
#198=VECTOR('',#1310,10.);
#199=VECTOR('',#1311,10.);
#200=VECTOR('',#1312,10.);
#201=VECTOR('',#1313,10.);
#202=VECTOR('',#1314,10.);
#203=VECTOR('',#1315,10.);
#204=VECTOR('',#1316,10.);
#205=VECTOR('',#1323,3.34999999999997);
#206=VECTOR('',#1330,10.);
#207=VECTOR('',#1333,10.);
#208=VECTOR('',#1334,10.);
#209=VECTOR('',#1335,10.);
#210=VECTOR('',#1340,3.34999999999997);
#211=VECTOR('',#1347,10.);
#212=VECTOR('',#1350,10.);
#213=VECTOR('',#1351,10.);
#214=VECTOR('',#1352,10.);
#215=VECTOR('',#1363,2.6);
#216=VECTOR('',#1366,10.);
#217=VECTOR('',#1367,10.);
#218=VECTOR('',#1368,10.);
#219=VECTOR('',#1369,10.);
#220=VECTOR('',#1370,10.);
#221=VECTOR('',#1371,10.);
#222=VECTOR('',#1372,10.);
#223=VECTOR('',#1373,10.);
#224=VECTOR('',#1374,10.);
#225=VECTOR('',#1375,10.);
#226=VECTOR('',#1376,10.);
#227=VECTOR('',#1377,10.);
#228=VECTOR('',#1378,10.);
#229=VECTOR('',#1379,10.);
#230=VECTOR('',#1380,10.);
#231=VECTOR('',#1381,10.);
#232=VECTOR('',#1382,10.);
#233=VECTOR('',#1383,10.);
#234=VECTOR('',#1388,10.);
#235=VECTOR('',#1389,10.);
#236=VECTOR('',#1392,10.);
#237=VECTOR('',#1393,10.);
#238=VECTOR('',#1396,10.);
#239=VECTOR('',#1397,10.);
#240=VECTOR('',#1400,10.);
#241=VECTOR('',#1401,10.);
#242=VECTOR('',#1404,10.);
#243=VECTOR('',#1407,10.);
#244=VECTOR('',#1408,10.);
#245=VECTOR('',#1417,4.5);
#246=VECTOR('',#1420,10.);
#247=VECTOR('',#1421,10.);
#248=VECTOR('',#1426,3.1);
#249=VECTOR('',#1429,2.6);
#250=VECTOR('',#1432,4.475);
#251=VECTOR('',#1443,10.);
#252=VECTOR('',#1446,10.);
#253=VECTOR('',#1447,10.);
#254=VECTOR('',#1452,10.);
#255=VECTOR('',#1455,10.);
#256=VECTOR('',#1458,2.6);
#257=VECTOR('',#1463,10.);
#258=VECTOR('',#1466,10.);
#259=VECTOR('',#1471,10.);
#260=VECTOR('',#1476,10.);
#261=VECTOR('',#1481,10.);
#262=VECTOR('',#1484,10.);
#263=FACE_OUTER_BOUND('',#323,.T.);
#264=FACE_OUTER_BOUND('',#324,.T.);
#265=FACE_OUTER_BOUND('',#325,.T.);
#266=FACE_OUTER_BOUND('',#326,.T.);
#267=FACE_OUTER_BOUND('',#327,.T.);
#268=FACE_OUTER_BOUND('',#328,.T.);
#269=FACE_OUTER_BOUND('',#329,.T.);
#270=FACE_OUTER_BOUND('',#330,.T.);
#271=FACE_OUTER_BOUND('',#331,.T.);
#272=FACE_OUTER_BOUND('',#332,.T.);
#273=FACE_OUTER_BOUND('',#333,.T.);
#274=FACE_OUTER_BOUND('',#334,.T.);
#275=FACE_OUTER_BOUND('',#335,.T.);
#276=FACE_OUTER_BOUND('',#336,.T.);
#277=FACE_OUTER_BOUND('',#337,.T.);
#278=FACE_OUTER_BOUND('',#338,.T.);
#279=FACE_OUTER_BOUND('',#339,.T.);
#280=FACE_OUTER_BOUND('',#340,.T.);
#281=FACE_OUTER_BOUND('',#341,.T.);
#282=FACE_OUTER_BOUND('',#342,.T.);
#283=FACE_OUTER_BOUND('',#344,.T.);
#284=FACE_OUTER_BOUND('',#347,.T.);
#285=FACE_OUTER_BOUND('',#348,.T.);
#286=FACE_OUTER_BOUND('',#350,.T.);
#287=FACE_OUTER_BOUND('',#351,.T.);
#288=FACE_OUTER_BOUND('',#353,.T.);
#289=FACE_OUTER_BOUND('',#355,.T.);
#290=FACE_OUTER_BOUND('',#357,.T.);
#291=FACE_OUTER_BOUND('',#358,.T.);
#292=FACE_OUTER_BOUND('',#360,.T.);
#293=FACE_OUTER_BOUND('',#361,.T.);
#294=FACE_OUTER_BOUND('',#362,.T.);
#295=FACE_OUTER_BOUND('',#363,.T.);
#296=FACE_OUTER_BOUND('',#364,.T.);
#297=FACE_OUTER_BOUND('',#365,.T.);
#298=FACE_OUTER_BOUND('',#366,.T.);
#299=FACE_OUTER_BOUND('',#368,.T.);
#300=FACE_OUTER_BOUND('',#369,.T.);
#301=FACE_OUTER_BOUND('',#370,.T.);
#302=FACE_OUTER_BOUND('',#371,.T.);
#303=FACE_OUTER_BOUND('',#372,.T.);
#304=FACE_OUTER_BOUND('',#373,.T.);
#305=FACE_OUTER_BOUND('',#375,.T.);
#306=FACE_OUTER_BOUND('',#376,.T.);
#307=FACE_OUTER_BOUND('',#377,.T.);
#308=FACE_OUTER_BOUND('',#378,.T.);
#309=FACE_OUTER_BOUND('',#379,.T.);
#310=FACE_OUTER_BOUND('',#380,.T.);
#311=FACE_OUTER_BOUND('',#381,.T.);
#312=FACE_OUTER_BOUND('',#382,.T.);
#313=FACE_OUTER_BOUND('',#383,.T.);
#314=FACE_OUTER_BOUND('',#384,.T.);
#315=FACE_OUTER_BOUND('',#385,.T.);
#316=FACE_OUTER_BOUND('',#386,.T.);
#317=FACE_OUTER_BOUND('',#387,.T.);
#318=FACE_OUTER_BOUND('',#388,.T.);
#319=FACE_OUTER_BOUND('',#389,.T.);
#320=FACE_OUTER_BOUND('',#390,.T.);
#321=FACE_OUTER_BOUND('',#391,.T.);
#322=FACE_OUTER_BOUND('',#392,.T.);
#323=EDGE_LOOP('',(#674));
#324=EDGE_LOOP('',(#675,#676,#677,#678));
#325=EDGE_LOOP('',(#679,#680,#681,#682));
#326=EDGE_LOOP('',(#683,#684,#685,#686));
#327=EDGE_LOOP('',(#687,#688,#689,#690,#691,#692));
#328=EDGE_LOOP('',(#693,#694,#695,#696));
#329=EDGE_LOOP('',(#697,#698,#699,#700));
#330=EDGE_LOOP('',(#701,#702,#703,#704));
#331=EDGE_LOOP('',(#705,#706,#707,#708,#709,#710));
#332=EDGE_LOOP('',(#711,#712,#713,#714));
#333=EDGE_LOOP('',(#715,#716,#717,#718));
#334=EDGE_LOOP('',(#719,#720,#721,#722));
#335=EDGE_LOOP('',(#723,#724,#725,#726));
#336=EDGE_LOOP('',(#727,#728,#729,#730));
#337=EDGE_LOOP('',(#731,#732,#733,#734));
#338=EDGE_LOOP('',(#735,#736,#737,#738));
#339=EDGE_LOOP('',(#739,#740,#741,#742));
#340=EDGE_LOOP('',(#743,#744,#745,#746));
#341=EDGE_LOOP('',(#747,#748,#749,#750));
#342=EDGE_LOOP('',(#751,#752,#753,#754,#755,#756));
#343=EDGE_LOOP('',(#757));
#344=EDGE_LOOP('',(#758,#759,#760,#761,#762,#763,#764,#765,#766,#767,#768,
#769,#770,#771,#772,#773,#774,#775,#776,#777,#778,#779,#780,#781));
#345=EDGE_LOOP('',(#782,#783,#784,#785,#786,#787));
#346=EDGE_LOOP('',(#788));
#347=EDGE_LOOP('',(#789,#790,#791,#792));
#348=EDGE_LOOP('',(#793,#794,#795,#796,#797,#798));
#349=EDGE_LOOP('',(#799));
#350=EDGE_LOOP('',(#800,#801,#802,#803));
#351=EDGE_LOOP('',(#804,#805,#806,#807,#808,#809));
#352=EDGE_LOOP('',(#810));
#353=EDGE_LOOP('',(#811));
#354=EDGE_LOOP('',(#812));
#355=EDGE_LOOP('',(#813));
#356=EDGE_LOOP('',(#814));
#357=EDGE_LOOP('',(#815,#816,#817,#818));
#358=EDGE_LOOP('',(#819,#820,#821,#822,#823,#824,#825,#826,#827,#828,#829,
#830,#831,#832,#833,#834,#835,#836,#837,#838));
#359=EDGE_LOOP('',(#839));
#360=EDGE_LOOP('',(#840,#841,#842,#843));
#361=EDGE_LOOP('',(#844,#845,#846,#847));
#362=EDGE_LOOP('',(#848,#849,#850,#851));
#363=EDGE_LOOP('',(#852,#853,#854,#855));
#364=EDGE_LOOP('',(#856,#857,#858,#859,#860,#861));
#365=EDGE_LOOP('',(#862,#863,#864,#865));
#366=EDGE_LOOP('',(#866));
#367=EDGE_LOOP('',(#867));
#368=EDGE_LOOP('',(#868,#869,#870,#871));
#369=EDGE_LOOP('',(#872,#873,#874,#875));
#370=EDGE_LOOP('',(#876,#877,#878,#879));
#371=EDGE_LOOP('',(#880,#881,#882,#883));
#372=EDGE_LOOP('',(#884,#885,#886,#887));
#373=EDGE_LOOP('',(#888));
#374=EDGE_LOOP('',(#889));
#375=EDGE_LOOP('',(#890,#891,#892,#893));
#376=EDGE_LOOP('',(#894,#895,#896,#897,#898,#899));
#377=EDGE_LOOP('',(#900,#901,#902,#903));
#378=EDGE_LOOP('',(#904,#905,#906,#907,#908,#909));
#379=EDGE_LOOP('',(#910,#911,#912,#913,#914,#915));
#380=EDGE_LOOP('',(#916,#917,#918,#919));
#381=EDGE_LOOP('',(#920,#921,#922,#923));
#382=EDGE_LOOP('',(#924,#925,#926,#927));
#383=EDGE_LOOP('',(#928,#929,#930,#931));
#384=EDGE_LOOP('',(#932,#933,#934,#935));
#385=EDGE_LOOP('',(#936,#937,#938,#939));
#386=EDGE_LOOP('',(#940,#941,#942,#943));
#387=EDGE_LOOP('',(#944,#945,#946,#947));
#388=EDGE_LOOP('',(#948,#949,#950,#951));
#389=EDGE_LOOP('',(#952,#953,#954,#955));
#390=EDGE_LOOP('',(#956,#957,#958,#959));
#391=EDGE_LOOP('',(#960,#961,#962,#963));
#392=EDGE_LOOP('',(#964,#965,#966,#967));
#393=CIRCLE('',#1081,2.35);
#394=CIRCLE('',#1090,5.5);
#395=CIRCLE('',#1091,5.5);
#396=CIRCLE('',#1093,0.5);
#397=CIRCLE('',#1094,0.5);
#398=CIRCLE('',#1096,0.499999999999989);
#399=CIRCLE('',#1097,6.);
#400=CIRCLE('',#1099,0.500000000000007);
#401=CIRCLE('',#1101,0.5);
#402=CIRCLE('',#1102,6.);
#403=CIRCLE('',#1104,0.5);
#404=CIRCLE('',#1106,0.5);
#405=CIRCLE('',#1107,0.5);
#406=CIRCLE('',#1109,0.500000000000007);
#407=CIRCLE('',#1110,5.5);
#408=CIRCLE('',#1111,6.);
#409=CIRCLE('',#1113,0.500000000000007);
#410=CIRCLE('',#1115,0.500000000000005);
#411=CIRCLE('',#1116,5.5);
#412=CIRCLE('',#1117,6.);
#413=CIRCLE('',#1119,0.5);
#414=CIRCLE('',#1121,4.475);
#415=CIRCLE('',#1123,2.6);
#416=CIRCLE('',#1125,3.45);
#417=CIRCLE('',#1126,3.25);
#418=CIRCLE('',#1128,6.);
#419=CIRCLE('',#1129,6.);
#420=CIRCLE('',#1131,3.45);
#421=CIRCLE('',#1132,3.25);
#422=CIRCLE('',#1134,6.);
#423=CIRCLE('',#1135,6.);
#424=CIRCLE('',#1137,2.35);
#425=CIRCLE('',#1139,2.6);
#426=CIRCLE('',#1142,4.5);
#427=CIRCLE('',#1150,4.5);
#428=CIRCLE('',#1151,3.6);
#429=CIRCLE('',#1155,2.6);
#430=CIRCLE('',#1158,4.475);
#431=CIRCLE('',#1160,2.6);
#432=VERTEX_POINT('',#1489);
#433=VERTEX_POINT('',#1492);
#434=VERTEX_POINT('',#1493);
#435=VERTEX_POINT('',#1495);
#436=VERTEX_POINT('',#1497);
#437=VERTEX_POINT('',#1501);
#438=VERTEX_POINT('',#1503);
#439=VERTEX_POINT('',#1507);
#440=VERTEX_POINT('',#1509);
#441=VERTEX_POINT('',#1513);
#442=VERTEX_POINT('',#1515);
#443=VERTEX_POINT('',#1519);
#444=VERTEX_POINT('',#1523);
#445=VERTEX_POINT('',#1529);
#446=VERTEX_POINT('',#1530);
#447=VERTEX_POINT('',#1532);
#448=VERTEX_POINT('',#1534);
#449=VERTEX_POINT('',#1536);
#450=VERTEX_POINT('',#1538);
#451=VERTEX_POINT('',#1542);
#452=VERTEX_POINT('',#1544);
#453=VERTEX_POINT('',#1548);
#454=VERTEX_POINT('',#1552);
#455=VERTEX_POINT('',#1556);
#456=VERTEX_POINT('',#1560);
#457=VERTEX_POINT('',#1564);
#458=VERTEX_POINT('',#1565);
#459=VERTEX_POINT('',#1567);
#460=VERTEX_POINT('',#1569);
#461=VERTEX_POINT('',#1573);
#462=VERTEX_POINT('',#1574);
#463=VERTEX_POINT('',#1579);
#464=VERTEX_POINT('',#1580);
#465=VERTEX_POINT('',#1585);
#466=VERTEX_POINT('',#1586);
#467=VERTEX_POINT('',#1591);
#468=VERTEX_POINT('',#1592);
#469=VERTEX_POINT('',#1598);
#470=VERTEX_POINT('',#1601);
#471=VERTEX_POINT('',#1603);
#472=VERTEX_POINT('',#1605);
#473=VERTEX_POINT('',#1607);
#474=VERTEX_POINT('',#1609);
#475=VERTEX_POINT('',#1611);
#476=VERTEX_POINT('',#1613);
#477=VERTEX_POINT('',#1615);
#478=VERTEX_POINT('',#1618);
#479=VERTEX_POINT('',#1620);
#480=VERTEX_POINT('',#1622);
#481=VERTEX_POINT('',#1624);
#482=VERTEX_POINT('',#1626);
#483=VERTEX_POINT('',#1628);
#484=VERTEX_POINT('',#1630);
#485=VERTEX_POINT('',#1632);
#486=VERTEX_POINT('',#1635);
#487=VERTEX_POINT('',#1638);
#488=VERTEX_POINT('',#1640);
#489=VERTEX_POINT('',#1644);
#490=VERTEX_POINT('',#1645);
#491=VERTEX_POINT('',#1647);
#492=VERTEX_POINT('',#1649);
#493=VERTEX_POINT('',#1651);
#494=VERTEX_POINT('',#1653);
#495=VERTEX_POINT('',#1657);
#496=VERTEX_POINT('',#1659);
#497=VERTEX_POINT('',#1663);
#498=VERTEX_POINT('',#1664);
#499=VERTEX_POINT('',#1666);
#500=VERTEX_POINT('',#1668);
#501=VERTEX_POINT('',#1670);
#502=VERTEX_POINT('',#1672);
#503=VERTEX_POINT('',#1676);
#504=VERTEX_POINT('',#1679);
#505=VERTEX_POINT('',#1684);
#506=VERTEX_POINT('',#1686);
#507=VERTEX_POINT('',#1688);
#508=VERTEX_POINT('',#1690);
#509=VERTEX_POINT('',#1692);
#510=VERTEX_POINT('',#1694);
#511=VERTEX_POINT('',#1696);
#512=VERTEX_POINT('',#1698);
#513=VERTEX_POINT('',#1700);
#514=VERTEX_POINT('',#1703);
#515=VERTEX_POINT('',#1705);
#516=VERTEX_POINT('',#1707);
#517=VERTEX_POINT('',#1709);
#518=VERTEX_POINT('',#1711);
#519=VERTEX_POINT('',#1713);
#520=VERTEX_POINT('',#1715);
#521=VERTEX_POINT('',#1718);
#522=VERTEX_POINT('',#1738);
#523=VERTEX_POINT('',#1740);
#524=VERTEX_POINT('',#1748);
#525=VERTEX_POINT('',#1754);
#526=VERTEX_POINT('',#1758);
#527=EDGE_CURVE('',#432,#432,#393,.T.);
#528=EDGE_CURVE('',#433,#434,#47,.F.);
#529=EDGE_CURVE('',#433,#435,#48,.F.);
#530=EDGE_CURVE('',#436,#435,#49,.T.);
#531=EDGE_CURVE('',#434,#436,#50,.F.);
#532=EDGE_CURVE('',#434,#437,#51,.F.);
#533=EDGE_CURVE('',#436,#438,#52,.F.);
#534=EDGE_CURVE('',#437,#438,#53,.F.);
#535=EDGE_CURVE('',#437,#439,#54,.F.);
#536=EDGE_CURVE('',#438,#440,#55,.F.);
#537=EDGE_CURVE('',#439,#440,#56,.T.);
#538=EDGE_CURVE('',#441,#435,#57,.F.);
#539=EDGE_CURVE('',#442,#441,#58,.F.);
#540=EDGE_CURVE('',#440,#442,#59,.F.);
#541=EDGE_CURVE('',#443,#433,#60,.F.);
#542=EDGE_CURVE('',#443,#441,#61,.F.);
#543=EDGE_CURVE('',#439,#444,#62,.F.);
#544=EDGE_CURVE('',#444,#442,#63,.T.);
#545=EDGE_CURVE('',#444,#443,#64,.F.);
#546=EDGE_CURVE('',#445,#446,#65,.T.);
#547=EDGE_CURVE('',#447,#446,#66,.T.);
#548=EDGE_CURVE('',#448,#447,#394,.T.);
#549=EDGE_CURVE('',#449,#448,#67,.T.);
#550=EDGE_CURVE('',#450,#449,#395,.T.);
#551=EDGE_CURVE('',#445,#450,#68,.T.);
#552=EDGE_CURVE('',#446,#451,#396,.T.);
#553=EDGE_CURVE('',#451,#452,#69,.T.);
#554=EDGE_CURVE('',#452,#447,#397,.T.);
#555=EDGE_CURVE('',#453,#448,#398,.T.);
#556=EDGE_CURVE('',#452,#453,#399,.T.);
#557=EDGE_CURVE('',#454,#449,#400,.T.);
#558=EDGE_CURVE('',#453,#454,#70,.T.);
#559=EDGE_CURVE('',#455,#450,#401,.T.);
#560=EDGE_CURVE('',#454,#455,#402,.T.);
#561=EDGE_CURVE('',#456,#445,#403,.T.);
#562=EDGE_CURVE('',#455,#456,#71,.T.);
#563=EDGE_CURVE('',#457,#458,#404,.T.);
#564=EDGE_CURVE('',#458,#459,#72,.T.);
#565=EDGE_CURVE('',#459,#460,#405,.T.);
#566=EDGE_CURVE('',#460,#457,#73,.T.);
#567=EDGE_CURVE('',#461,#462,#406,.T.);
#568=EDGE_CURVE('',#462,#460,#407,.T.);
#569=EDGE_CURVE('',#459,#461,#408,.T.);
#570=EDGE_CURVE('',#463,#464,#409,.T.);
#571=EDGE_CURVE('',#464,#462,#74,.T.);
#572=EDGE_CURVE('',#461,#463,#75,.T.);
#573=EDGE_CURVE('',#465,#466,#410,.T.);
#574=EDGE_CURVE('',#466,#464,#411,.T.);
#575=EDGE_CURVE('',#463,#465,#412,.T.);
#576=EDGE_CURVE('',#467,#468,#413,.T.);
#577=EDGE_CURVE('',#468,#466,#76,.T.);
#578=EDGE_CURVE('',#465,#467,#77,.T.);
#579=EDGE_CURVE('',#468,#457,#78,.T.);
#580=EDGE_CURVE('',#469,#469,#414,.T.);
#581=EDGE_CURVE('',#470,#467,#79,.T.);
#582=EDGE_CURVE('',#471,#470,#80,.T.);
#583=EDGE_CURVE('',#472,#471,#81,.T.);
#584=EDGE_CURVE('',#473,#472,#82,.F.);
#585=EDGE_CURVE('',#474,#473,#83,.F.);
#586=EDGE_CURVE('',#475,#474,#84,.F.);
#587=EDGE_CURVE('',#476,#475,#85,.T.);
#588=EDGE_CURVE('',#477,#476,#86,.T.);
#589=EDGE_CURVE('',#451,#477,#87,.T.);
#590=EDGE_CURVE('',#478,#456,#88,.T.);
#591=EDGE_CURVE('',#479,#478,#89,.T.);
#592=EDGE_CURVE('',#480,#479,#90,.T.);
#593=EDGE_CURVE('',#481,#480,#91,.F.);
#594=EDGE_CURVE('',#482,#481,#92,.F.);
#595=EDGE_CURVE('',#483,#482,#93,.F.);
#596=EDGE_CURVE('',#484,#483,#94,.T.);
#597=EDGE_CURVE('',#485,#484,#95,.T.);
#598=EDGE_CURVE('',#458,#485,#96,.T.);
#599=EDGE_CURVE('',#486,#486,#415,.T.);
#600=EDGE_CURVE('',#487,#487,#416,.T.);
#601=EDGE_CURVE('',#487,#488,#97,.T.);
#602=EDGE_CURVE('',#488,#488,#417,.T.);
#603=EDGE_CURVE('',#489,#490,#418,.F.);
#604=EDGE_CURVE('',#491,#489,#98,.F.);
#605=EDGE_CURVE('',#492,#491,#419,.F.);
#606=EDGE_CURVE('',#493,#492,#99,.T.);
#607=EDGE_CURVE('',#494,#493,#100,.T.);
#608=EDGE_CURVE('',#490,#494,#101,.T.);
#609=EDGE_CURVE('',#495,#495,#420,.T.);
#610=EDGE_CURVE('',#495,#496,#102,.T.);
#611=EDGE_CURVE('',#496,#496,#421,.T.);
#612=EDGE_CURVE('',#497,#498,#422,.F.);
#613=EDGE_CURVE('',#497,#499,#103,.T.);
#614=EDGE_CURVE('',#500,#499,#423,.F.);
#615=EDGE_CURVE('',#501,#500,#104,.T.);
#616=EDGE_CURVE('',#502,#501,#105,.T.);
#617=EDGE_CURVE('',#498,#502,#106,.T.);
#618=EDGE_CURVE('',#503,#503,#424,.F.);
#619=EDGE_CURVE('',#504,#504,#425,.T.);
#620=EDGE_CURVE('',#432,#503,#107,.T.);
#621=EDGE_CURVE('',#505,#494,#108,.T.);
#622=EDGE_CURVE('',#506,#493,#109,.T.);
#623=EDGE_CURVE('',#506,#507,#110,.T.);
#624=EDGE_CURVE('',#507,#508,#111,.T.);
#625=EDGE_CURVE('',#508,#509,#112,.F.);
#626=EDGE_CURVE('',#509,#510,#113,.F.);
#627=EDGE_CURVE('',#510,#511,#114,.F.);
#628=EDGE_CURVE('',#511,#512,#115,.T.);
#629=EDGE_CURVE('',#512,#513,#116,.T.);
#630=EDGE_CURVE('',#513,#502,#117,.T.);
#631=EDGE_CURVE('',#514,#501,#118,.T.);
#632=EDGE_CURVE('',#514,#515,#119,.T.);
#633=EDGE_CURVE('',#515,#516,#120,.T.);
#634=EDGE_CURVE('',#516,#517,#121,.F.);
#635=EDGE_CURVE('',#517,#518,#122,.F.);
#636=EDGE_CURVE('',#518,#519,#123,.F.);
#637=EDGE_CURVE('',#519,#520,#124,.T.);
#638=EDGE_CURVE('',#520,#505,#125,.T.);
#639=EDGE_CURVE('',#521,#521,#426,.T.);
#640=EDGE_CURVE('',#452,#500,#126,.T.);
#641=EDGE_CURVE('',#499,#453,#127,.T.);
#642=EDGE_CURVE('',#454,#497,#128,.T.);
#643=EDGE_CURVE('',#498,#455,#129,.T.);
#644=EDGE_CURVE('',#463,#489,#130,.T.);
#645=EDGE_CURVE('',#490,#465,#131,.T.);
#646=EDGE_CURVE('',#459,#492,#132,.T.);
#647=EDGE_CURVE('',#491,#461,#133,.T.);
#648=EDGE_CURVE('',#477,#514,#134,.T.);
#649=EDGE_CURVE('',#473,#518,#135,.F.);
#650=EDGE_CURVE('',#474,#517,#136,.F.);
#651=EDGE_CURVE('',#522,#522,#427,.T.);
#652=EDGE_CURVE('',#523,#523,#428,.T.);
#653=EDGE_CURVE('',#521,#522,#137,.T.);
#654=EDGE_CURVE('',#481,#510,#138,.F.);
#655=EDGE_CURVE('',#482,#509,#139,.T.);
#656=EDGE_CURVE('',#524,#524,#429,.T.);
#657=EDGE_CURVE('',#524,#523,#140,.T.);
#658=EDGE_CURVE('',#524,#486,#141,.T.);
#659=EDGE_CURVE('',#469,#525,#142,.T.);
#660=EDGE_CURVE('',#525,#525,#430,.T.);
#661=EDGE_CURVE('',#526,#526,#431,.T.);
#662=EDGE_CURVE('',#478,#513,#143,.T.);
#663=EDGE_CURVE('',#485,#506,#144,.T.);
#664=EDGE_CURVE('',#484,#507,#145,.T.);
#665=EDGE_CURVE('',#470,#505,#146,.T.);
#666=EDGE_CURVE('',#471,#520,#147,.T.);
#667=EDGE_CURVE('',#526,#504,#148,.T.);
#668=EDGE_CURVE('',#479,#512,#149,.T.);
#669=EDGE_CURVE('',#480,#511,#150,.F.);
#670=EDGE_CURVE('',#483,#508,#151,.T.);
#671=EDGE_CURVE('',#472,#519,#152,.F.);
#672=EDGE_CURVE('',#475,#516,#153,.T.);
#673=EDGE_CURVE('',#476,#515,#154,.T.);
#674=ORIENTED_EDGE('',*,*,#527,.F.);
#675=ORIENTED_EDGE('',*,*,#528,.F.);
#676=ORIENTED_EDGE('',*,*,#529,.T.);
#677=ORIENTED_EDGE('',*,*,#530,.F.);
#678=ORIENTED_EDGE('',*,*,#531,.F.);
#679=ORIENTED_EDGE('',*,*,#532,.F.);
#680=ORIENTED_EDGE('',*,*,#531,.T.);
#681=ORIENTED_EDGE('',*,*,#533,.T.);
#682=ORIENTED_EDGE('',*,*,#534,.F.);
#683=ORIENTED_EDGE('',*,*,#535,.F.);
#684=ORIENTED_EDGE('',*,*,#534,.T.);
#685=ORIENTED_EDGE('',*,*,#536,.T.);
#686=ORIENTED_EDGE('',*,*,#537,.F.);
#687=ORIENTED_EDGE('',*,*,#530,.T.);
#688=ORIENTED_EDGE('',*,*,#538,.F.);
#689=ORIENTED_EDGE('',*,*,#539,.F.);
#690=ORIENTED_EDGE('',*,*,#540,.F.);
#691=ORIENTED_EDGE('',*,*,#536,.F.);
#692=ORIENTED_EDGE('',*,*,#533,.F.);
#693=ORIENTED_EDGE('',*,*,#541,.F.);
#694=ORIENTED_EDGE('',*,*,#542,.T.);
#695=ORIENTED_EDGE('',*,*,#538,.T.);
#696=ORIENTED_EDGE('',*,*,#529,.F.);
#697=ORIENTED_EDGE('',*,*,#543,.F.);
#698=ORIENTED_EDGE('',*,*,#537,.T.);
#699=ORIENTED_EDGE('',*,*,#540,.T.);
#700=ORIENTED_EDGE('',*,*,#544,.F.);
#701=ORIENTED_EDGE('',*,*,#545,.F.);
#702=ORIENTED_EDGE('',*,*,#544,.T.);
#703=ORIENTED_EDGE('',*,*,#539,.T.);
#704=ORIENTED_EDGE('',*,*,#542,.F.);
#705=ORIENTED_EDGE('',*,*,#546,.T.);
#706=ORIENTED_EDGE('',*,*,#547,.F.);
#707=ORIENTED_EDGE('',*,*,#548,.F.);
#708=ORIENTED_EDGE('',*,*,#549,.F.);
#709=ORIENTED_EDGE('',*,*,#550,.F.);
#710=ORIENTED_EDGE('',*,*,#551,.F.);
#711=ORIENTED_EDGE('',*,*,#552,.T.);
#712=ORIENTED_EDGE('',*,*,#553,.T.);
#713=ORIENTED_EDGE('',*,*,#554,.T.);
#714=ORIENTED_EDGE('',*,*,#547,.T.);
#715=ORIENTED_EDGE('',*,*,#555,.T.);
#716=ORIENTED_EDGE('',*,*,#548,.T.);
#717=ORIENTED_EDGE('',*,*,#554,.F.);
#718=ORIENTED_EDGE('',*,*,#556,.T.);
#719=ORIENTED_EDGE('',*,*,#557,.T.);
#720=ORIENTED_EDGE('',*,*,#549,.T.);
#721=ORIENTED_EDGE('',*,*,#555,.F.);
#722=ORIENTED_EDGE('',*,*,#558,.T.);
#723=ORIENTED_EDGE('',*,*,#559,.T.);
#724=ORIENTED_EDGE('',*,*,#550,.T.);
#725=ORIENTED_EDGE('',*,*,#557,.F.);
#726=ORIENTED_EDGE('',*,*,#560,.T.);
#727=ORIENTED_EDGE('',*,*,#561,.T.);
#728=ORIENTED_EDGE('',*,*,#551,.T.);
#729=ORIENTED_EDGE('',*,*,#559,.F.);
#730=ORIENTED_EDGE('',*,*,#562,.T.);
#731=ORIENTED_EDGE('',*,*,#563,.T.);
#732=ORIENTED_EDGE('',*,*,#564,.T.);
#733=ORIENTED_EDGE('',*,*,#565,.T.);
#734=ORIENTED_EDGE('',*,*,#566,.T.);
#735=ORIENTED_EDGE('',*,*,#567,.T.);
#736=ORIENTED_EDGE('',*,*,#568,.T.);
#737=ORIENTED_EDGE('',*,*,#565,.F.);
#738=ORIENTED_EDGE('',*,*,#569,.T.);
#739=ORIENTED_EDGE('',*,*,#570,.T.);
#740=ORIENTED_EDGE('',*,*,#571,.T.);
#741=ORIENTED_EDGE('',*,*,#567,.F.);
#742=ORIENTED_EDGE('',*,*,#572,.T.);
#743=ORIENTED_EDGE('',*,*,#573,.T.);
#744=ORIENTED_EDGE('',*,*,#574,.T.);
#745=ORIENTED_EDGE('',*,*,#570,.F.);
#746=ORIENTED_EDGE('',*,*,#575,.T.);
#747=ORIENTED_EDGE('',*,*,#576,.T.);
#748=ORIENTED_EDGE('',*,*,#577,.T.);
#749=ORIENTED_EDGE('',*,*,#573,.F.);
#750=ORIENTED_EDGE('',*,*,#578,.T.);
#751=ORIENTED_EDGE('',*,*,#579,.T.);
#752=ORIENTED_EDGE('',*,*,#566,.F.);
#753=ORIENTED_EDGE('',*,*,#568,.F.);
#754=ORIENTED_EDGE('',*,*,#571,.F.);
#755=ORIENTED_EDGE('',*,*,#574,.F.);
#756=ORIENTED_EDGE('',*,*,#577,.F.);
#757=ORIENTED_EDGE('',*,*,#580,.T.);
#758=ORIENTED_EDGE('',*,*,#579,.F.);
#759=ORIENTED_EDGE('',*,*,#576,.F.);
#760=ORIENTED_EDGE('',*,*,#581,.F.);
#761=ORIENTED_EDGE('',*,*,#582,.F.);
#762=ORIENTED_EDGE('',*,*,#583,.F.);
#763=ORIENTED_EDGE('',*,*,#584,.F.);
#764=ORIENTED_EDGE('',*,*,#585,.F.);
#765=ORIENTED_EDGE('',*,*,#586,.F.);
#766=ORIENTED_EDGE('',*,*,#587,.F.);
#767=ORIENTED_EDGE('',*,*,#588,.F.);
#768=ORIENTED_EDGE('',*,*,#589,.F.);
#769=ORIENTED_EDGE('',*,*,#552,.F.);
#770=ORIENTED_EDGE('',*,*,#546,.F.);
#771=ORIENTED_EDGE('',*,*,#561,.F.);
#772=ORIENTED_EDGE('',*,*,#590,.F.);
#773=ORIENTED_EDGE('',*,*,#591,.F.);
#774=ORIENTED_EDGE('',*,*,#592,.F.);
#775=ORIENTED_EDGE('',*,*,#593,.F.);
#776=ORIENTED_EDGE('',*,*,#594,.F.);
#777=ORIENTED_EDGE('',*,*,#595,.F.);
#778=ORIENTED_EDGE('',*,*,#596,.F.);
#779=ORIENTED_EDGE('',*,*,#597,.F.);
#780=ORIENTED_EDGE('',*,*,#598,.F.);
#781=ORIENTED_EDGE('',*,*,#563,.F.);
#782=ORIENTED_EDGE('',*,*,#543,.T.);
#783=ORIENTED_EDGE('',*,*,#545,.T.);
#784=ORIENTED_EDGE('',*,*,#541,.T.);
#785=ORIENTED_EDGE('',*,*,#528,.T.);
#786=ORIENTED_EDGE('',*,*,#532,.T.);
#787=ORIENTED_EDGE('',*,*,#535,.T.);
#788=ORIENTED_EDGE('',*,*,#599,.T.);
#789=ORIENTED_EDGE('',*,*,#600,.T.);
#790=ORIENTED_EDGE('',*,*,#601,.T.);
#791=ORIENTED_EDGE('',*,*,#602,.F.);
#792=ORIENTED_EDGE('',*,*,#601,.F.);
#793=ORIENTED_EDGE('',*,*,#603,.F.);
#794=ORIENTED_EDGE('',*,*,#604,.F.);
#795=ORIENTED_EDGE('',*,*,#605,.F.);
#796=ORIENTED_EDGE('',*,*,#606,.F.);
#797=ORIENTED_EDGE('',*,*,#607,.F.);
#798=ORIENTED_EDGE('',*,*,#608,.F.);
#799=ORIENTED_EDGE('',*,*,#600,.F.);
#800=ORIENTED_EDGE('',*,*,#609,.T.);
#801=ORIENTED_EDGE('',*,*,#610,.T.);
#802=ORIENTED_EDGE('',*,*,#611,.T.);
#803=ORIENTED_EDGE('',*,*,#610,.F.);
#804=ORIENTED_EDGE('',*,*,#612,.F.);
#805=ORIENTED_EDGE('',*,*,#613,.T.);
#806=ORIENTED_EDGE('',*,*,#614,.F.);
#807=ORIENTED_EDGE('',*,*,#615,.F.);
#808=ORIENTED_EDGE('',*,*,#616,.F.);
#809=ORIENTED_EDGE('',*,*,#617,.F.);
#810=ORIENTED_EDGE('',*,*,#609,.F.);
#811=ORIENTED_EDGE('',*,*,#611,.F.);
#812=ORIENTED_EDGE('',*,*,#618,.F.);
#813=ORIENTED_EDGE('',*,*,#602,.T.);
#814=ORIENTED_EDGE('',*,*,#619,.T.);
#815=ORIENTED_EDGE('',*,*,#527,.T.);
#816=ORIENTED_EDGE('',*,*,#620,.T.);
#817=ORIENTED_EDGE('',*,*,#618,.T.);
#818=ORIENTED_EDGE('',*,*,#620,.F.);
#819=ORIENTED_EDGE('',*,*,#621,.T.);
#820=ORIENTED_EDGE('',*,*,#607,.T.);
#821=ORIENTED_EDGE('',*,*,#622,.F.);
#822=ORIENTED_EDGE('',*,*,#623,.T.);
#823=ORIENTED_EDGE('',*,*,#624,.T.);
#824=ORIENTED_EDGE('',*,*,#625,.T.);
#825=ORIENTED_EDGE('',*,*,#626,.T.);
#826=ORIENTED_EDGE('',*,*,#627,.T.);
#827=ORIENTED_EDGE('',*,*,#628,.T.);
#828=ORIENTED_EDGE('',*,*,#629,.T.);
#829=ORIENTED_EDGE('',*,*,#630,.T.);
#830=ORIENTED_EDGE('',*,*,#616,.T.);
#831=ORIENTED_EDGE('',*,*,#631,.F.);
#832=ORIENTED_EDGE('',*,*,#632,.T.);
#833=ORIENTED_EDGE('',*,*,#633,.T.);
#834=ORIENTED_EDGE('',*,*,#634,.T.);
#835=ORIENTED_EDGE('',*,*,#635,.T.);
#836=ORIENTED_EDGE('',*,*,#636,.T.);
#837=ORIENTED_EDGE('',*,*,#637,.T.);
#838=ORIENTED_EDGE('',*,*,#638,.T.);
#839=ORIENTED_EDGE('',*,*,#639,.F.);
#840=ORIENTED_EDGE('',*,*,#556,.F.);
#841=ORIENTED_EDGE('',*,*,#640,.T.);
#842=ORIENTED_EDGE('',*,*,#614,.T.);
#843=ORIENTED_EDGE('',*,*,#641,.T.);
#844=ORIENTED_EDGE('',*,*,#560,.F.);
#845=ORIENTED_EDGE('',*,*,#642,.T.);
#846=ORIENTED_EDGE('',*,*,#612,.T.);
#847=ORIENTED_EDGE('',*,*,#643,.T.);
#848=ORIENTED_EDGE('',*,*,#575,.F.);
#849=ORIENTED_EDGE('',*,*,#644,.T.);
#850=ORIENTED_EDGE('',*,*,#603,.T.);
#851=ORIENTED_EDGE('',*,*,#645,.T.);
#852=ORIENTED_EDGE('',*,*,#569,.F.);
#853=ORIENTED_EDGE('',*,*,#646,.T.);
#854=ORIENTED_EDGE('',*,*,#605,.T.);
#855=ORIENTED_EDGE('',*,*,#647,.T.);
#856=ORIENTED_EDGE('',*,*,#553,.F.);
#857=ORIENTED_EDGE('',*,*,#589,.T.);
#858=ORIENTED_EDGE('',*,*,#648,.T.);
#859=ORIENTED_EDGE('',*,*,#631,.T.);
#860=ORIENTED_EDGE('',*,*,#615,.T.);
#861=ORIENTED_EDGE('',*,*,#640,.F.);
#862=ORIENTED_EDGE('',*,*,#649,.T.);
#863=ORIENTED_EDGE('',*,*,#635,.F.);
#864=ORIENTED_EDGE('',*,*,#650,.F.);
#865=ORIENTED_EDGE('',*,*,#585,.T.);
#866=ORIENTED_EDGE('',*,*,#651,.F.);
#867=ORIENTED_EDGE('',*,*,#652,.F.);
#868=ORIENTED_EDGE('',*,*,#639,.T.);
#869=ORIENTED_EDGE('',*,*,#653,.T.);
#870=ORIENTED_EDGE('',*,*,#651,.T.);
#871=ORIENTED_EDGE('',*,*,#653,.F.);
#872=ORIENTED_EDGE('',*,*,#654,.T.);
#873=ORIENTED_EDGE('',*,*,#626,.F.);
#874=ORIENTED_EDGE('',*,*,#655,.F.);
#875=ORIENTED_EDGE('',*,*,#594,.T.);
#876=ORIENTED_EDGE('',*,*,#656,.T.);
#877=ORIENTED_EDGE('',*,*,#657,.T.);
#878=ORIENTED_EDGE('',*,*,#652,.T.);
#879=ORIENTED_EDGE('',*,*,#657,.F.);
#880=ORIENTED_EDGE('',*,*,#656,.F.);
#881=ORIENTED_EDGE('',*,*,#658,.T.);
#882=ORIENTED_EDGE('',*,*,#599,.F.);
#883=ORIENTED_EDGE('',*,*,#658,.F.);
#884=ORIENTED_EDGE('',*,*,#580,.F.);
#885=ORIENTED_EDGE('',*,*,#659,.T.);
#886=ORIENTED_EDGE('',*,*,#660,.T.);
#887=ORIENTED_EDGE('',*,*,#659,.F.);
#888=ORIENTED_EDGE('',*,*,#660,.F.);
#889=ORIENTED_EDGE('',*,*,#661,.F.);
#890=ORIENTED_EDGE('',*,*,#558,.F.);
#891=ORIENTED_EDGE('',*,*,#641,.F.);
#892=ORIENTED_EDGE('',*,*,#613,.F.);
#893=ORIENTED_EDGE('',*,*,#642,.F.);
#894=ORIENTED_EDGE('',*,*,#562,.F.);
#895=ORIENTED_EDGE('',*,*,#643,.F.);
#896=ORIENTED_EDGE('',*,*,#617,.T.);
#897=ORIENTED_EDGE('',*,*,#630,.F.);
#898=ORIENTED_EDGE('',*,*,#662,.F.);
#899=ORIENTED_EDGE('',*,*,#590,.T.);
#900=ORIENTED_EDGE('',*,*,#623,.F.);
#901=ORIENTED_EDGE('',*,*,#663,.F.);
#902=ORIENTED_EDGE('',*,*,#597,.T.);
#903=ORIENTED_EDGE('',*,*,#664,.T.);
#904=ORIENTED_EDGE('',*,*,#564,.F.);
#905=ORIENTED_EDGE('',*,*,#598,.T.);
#906=ORIENTED_EDGE('',*,*,#663,.T.);
#907=ORIENTED_EDGE('',*,*,#622,.T.);
#908=ORIENTED_EDGE('',*,*,#606,.T.);
#909=ORIENTED_EDGE('',*,*,#646,.F.);
#910=ORIENTED_EDGE('',*,*,#578,.F.);
#911=ORIENTED_EDGE('',*,*,#645,.F.);
#912=ORIENTED_EDGE('',*,*,#608,.T.);
#913=ORIENTED_EDGE('',*,*,#621,.F.);
#914=ORIENTED_EDGE('',*,*,#665,.F.);
#915=ORIENTED_EDGE('',*,*,#581,.T.);
#916=ORIENTED_EDGE('',*,*,#665,.T.);
#917=ORIENTED_EDGE('',*,*,#638,.F.);
#918=ORIENTED_EDGE('',*,*,#666,.F.);
#919=ORIENTED_EDGE('',*,*,#582,.T.);
#920=ORIENTED_EDGE('',*,*,#661,.T.);
#921=ORIENTED_EDGE('',*,*,#667,.T.);
#922=ORIENTED_EDGE('',*,*,#619,.F.);
#923=ORIENTED_EDGE('',*,*,#667,.F.);
#924=ORIENTED_EDGE('',*,*,#572,.F.);
#925=ORIENTED_EDGE('',*,*,#647,.F.);
#926=ORIENTED_EDGE('',*,*,#604,.T.);
#927=ORIENTED_EDGE('',*,*,#644,.F.);
#928=ORIENTED_EDGE('',*,*,#662,.T.);
#929=ORIENTED_EDGE('',*,*,#629,.F.);
#930=ORIENTED_EDGE('',*,*,#668,.F.);
#931=ORIENTED_EDGE('',*,*,#591,.T.);
#932=ORIENTED_EDGE('',*,*,#592,.T.);
#933=ORIENTED_EDGE('',*,*,#668,.T.);
#934=ORIENTED_EDGE('',*,*,#628,.F.);
#935=ORIENTED_EDGE('',*,*,#669,.F.);
#936=ORIENTED_EDGE('',*,*,#593,.T.);
#937=ORIENTED_EDGE('',*,*,#669,.T.);
#938=ORIENTED_EDGE('',*,*,#627,.F.);
#939=ORIENTED_EDGE('',*,*,#654,.F.);
#940=ORIENTED_EDGE('',*,*,#595,.T.);
#941=ORIENTED_EDGE('',*,*,#655,.T.);
#942=ORIENTED_EDGE('',*,*,#625,.F.);
#943=ORIENTED_EDGE('',*,*,#670,.F.);
#944=ORIENTED_EDGE('',*,*,#596,.T.);
#945=ORIENTED_EDGE('',*,*,#670,.T.);
#946=ORIENTED_EDGE('',*,*,#624,.F.);
#947=ORIENTED_EDGE('',*,*,#664,.F.);
#948=ORIENTED_EDGE('',*,*,#583,.T.);
#949=ORIENTED_EDGE('',*,*,#666,.T.);
#950=ORIENTED_EDGE('',*,*,#637,.F.);
#951=ORIENTED_EDGE('',*,*,#671,.F.);
#952=ORIENTED_EDGE('',*,*,#584,.T.);
#953=ORIENTED_EDGE('',*,*,#671,.T.);
#954=ORIENTED_EDGE('',*,*,#636,.F.);
#955=ORIENTED_EDGE('',*,*,#649,.F.);
#956=ORIENTED_EDGE('',*,*,#586,.T.);
#957=ORIENTED_EDGE('',*,*,#650,.T.);
#958=ORIENTED_EDGE('',*,*,#634,.F.);
#959=ORIENTED_EDGE('',*,*,#672,.F.);
#960=ORIENTED_EDGE('',*,*,#587,.T.);
#961=ORIENTED_EDGE('',*,*,#672,.T.);
#962=ORIENTED_EDGE('',*,*,#633,.F.);
#963=ORIENTED_EDGE('',*,*,#673,.F.);
#964=ORIENTED_EDGE('',*,*,#632,.F.);
#965=ORIENTED_EDGE('',*,*,#648,.F.);
#966=ORIENTED_EDGE('',*,*,#588,.T.);
#967=ORIENTED_EDGE('',*,*,#673,.T.);
#968=PLANE('',#1080);
#969=PLANE('',#1082);
#970=PLANE('',#1083);
#971=PLANE('',#1084);
#972=PLANE('',#1085);
#973=PLANE('',#1086);
#974=PLANE('',#1087);
#975=PLANE('',#1088);
#976=PLANE('',#1089);
#977=PLANE('',#1120);
#978=PLANE('',#1122);
#979=PLANE('',#1127);
#980=PLANE('',#1133);
#981=PLANE('',#1136);
#982=PLANE('',#1138);
#983=PLANE('',#1141);
#984=PLANE('',#1147);
#985=PLANE('',#1148);
#986=PLANE('',#1149);
#987=PLANE('',#1153);
#988=PLANE('',#1159);
#989=PLANE('',#1161);
#990=PLANE('',#1162);
#991=PLANE('',#1163);
#992=PLANE('',#1164);
#993=PLANE('',#1165);
#994=PLANE('',#1166);
#995=PLANE('',#1168);
#996=PLANE('',#1169);
#997=PLANE('',#1170);
#998=PLANE('',#1171);
#999=PLANE('',#1172);
#1000=PLANE('',#1173);
#1001=PLANE('',#1174);
#1002=PLANE('',#1175);
#1003=PLANE('',#1176);
#1004=PLANE('',#1177);
#1005=PLANE('',#1178);
#1006=ADVANCED_FACE('',(#263),#968,.F.);
#1007=ADVANCED_FACE('',(#264),#969,.F.);
#1008=ADVANCED_FACE('',(#265),#970,.F.);
#1009=ADVANCED_FACE('',(#266),#971,.F.);
#1010=ADVANCED_FACE('',(#267),#972,.F.);
#1011=ADVANCED_FACE('',(#268),#973,.F.);
#1012=ADVANCED_FACE('',(#269),#974,.F.);
#1013=ADVANCED_FACE('',(#270),#975,.F.);
#1014=ADVANCED_FACE('',(#271),#976,.T.);
#1015=ADVANCED_FACE('',(#272),#32,.T.);
#1016=ADVANCED_FACE('',(#273),#28,.T.);
#1017=ADVANCED_FACE('',(#274),#33,.T.);
#1018=ADVANCED_FACE('',(#275),#29,.T.);
#1019=ADVANCED_FACE('',(#276),#34,.T.);
#1020=ADVANCED_FACE('',(#277),#35,.T.);
#1021=ADVANCED_FACE('',(#278),#30,.T.);
#1022=ADVANCED_FACE('',(#279),#36,.T.);
#1023=ADVANCED_FACE('',(#280),#31,.T.);
#1024=ADVANCED_FACE('',(#281),#37,.T.);
#1025=ADVANCED_FACE('',(#282,#18),#977,.T.);
#1026=ADVANCED_FACE('',(#283,#19,#20),#978,.F.);
#1027=ADVANCED_FACE('',(#284),#15,.T.);
#1028=ADVANCED_FACE('',(#285,#21),#979,.T.);
#1029=ADVANCED_FACE('',(#286),#16,.T.);
#1030=ADVANCED_FACE('',(#287,#22),#980,.F.);
#1031=ADVANCED_FACE('',(#288,#23),#981,.F.);
#1032=ADVANCED_FACE('',(#289,#24),#982,.T.);
#1033=ADVANCED_FACE('',(#290),#38,.F.);
#1034=ADVANCED_FACE('',(#291,#25),#983,.T.);
#1035=ADVANCED_FACE('',(#292),#39,.T.);
#1036=ADVANCED_FACE('',(#293),#40,.T.);
#1037=ADVANCED_FACE('',(#294),#41,.T.);
#1038=ADVANCED_FACE('',(#295),#42,.T.);
#1039=ADVANCED_FACE('',(#296),#984,.T.);
#1040=ADVANCED_FACE('',(#297),#985,.T.);
#1041=ADVANCED_FACE('',(#298,#26),#986,.T.);
#1042=ADVANCED_FACE('',(#299),#43,.F.);
#1043=ADVANCED_FACE('',(#300),#987,.T.);
#1044=ADVANCED_FACE('',(#301),#17,.F.);
#1045=ADVANCED_FACE('',(#302),#44,.F.);
#1046=ADVANCED_FACE('',(#303),#45,.F.);
#1047=ADVANCED_FACE('',(#304,#27),#988,.T.);
#1048=ADVANCED_FACE('',(#305),#989,.F.);
#1049=ADVANCED_FACE('',(#306),#990,.T.);
#1050=ADVANCED_FACE('',(#307),#991,.T.);
#1051=ADVANCED_FACE('',(#308),#992,.T.);
#1052=ADVANCED_FACE('',(#309),#993,.T.);
#1053=ADVANCED_FACE('',(#310),#994,.T.);
#1054=ADVANCED_FACE('',(#311),#46,.F.);
#1055=ADVANCED_FACE('',(#312),#995,.T.);
#1056=ADVANCED_FACE('',(#313),#996,.T.);
#1057=ADVANCED_FACE('',(#314),#997,.T.);
#1058=ADVANCED_FACE('',(#315),#998,.T.);
#1059=ADVANCED_FACE('',(#316),#999,.T.);
#1060=ADVANCED_FACE('',(#317),#1000,.T.);
#1061=ADVANCED_FACE('',(#318),#1001,.T.);
#1062=ADVANCED_FACE('',(#319),#1002,.T.);
#1063=ADVANCED_FACE('',(#320),#1003,.T.);
#1064=ADVANCED_FACE('',(#321),#1004,.T.);
#1065=ADVANCED_FACE('',(#322),#1005,.T.);
#1066=CLOSED_SHELL('',(#1006,#1007,#1008,#1009,#1010,#1011,#1012,#1013,
#1014,#1015,#1016,#1017,#1018,#1019,#1020,#1021,#1022,#1023,#1024,#1025,
#1026,#1027,#1028,#1029,#1030,#1031,#1032,#1033,#1034,#1035,#1036,#1037,
#1038,#1039,#1040,#1041,#1042,#1043,#1044,#1045,#1046,#1047,#1048,#1049,
#1050,#1051,#1052,#1053,#1054,#1055,#1056,#1057,#1058,#1059,#1060,#1061,
#1062,#1063,#1064,#1065));
#1067=DERIVED_UNIT_ELEMENT(#1069,1.);
#1068=DERIVED_UNIT_ELEMENT(#1795,-3.);
#1069=(
MASS_UNIT()
NAMED_UNIT(*)
SI_UNIT(.KILO.,.GRAM.)
);
#1070=DERIVED_UNIT((#1067,#1068));
#1071=MEASURE_REPRESENTATION_ITEM('density measure',
POSITIVE_RATIO_MEASURE(7850.),#1070);
#1072=PROPERTY_DEFINITION_REPRESENTATION(#1077,#1074);
#1073=PROPERTY_DEFINITION_REPRESENTATION(#1078,#1075);
#1074=REPRESENTATION('material name',(#1076),#1792);
#1075=REPRESENTATION('density',(#1071),#1792);
#1076=DESCRIPTIVE_REPRESENTATION_ITEM('Steel','Steel');
#1077=PROPERTY_DEFINITION('material property','material name',#1802);
#1078=PROPERTY_DEFINITION('material property','density of part',#1802);
#1079=AXIS2_PLACEMENT_3D('',#1487,#1179,#1180);
#1080=AXIS2_PLACEMENT_3D('',#1488,#1181,#1182);
#1081=AXIS2_PLACEMENT_3D('',#1490,#1183,#1184);
#1082=AXIS2_PLACEMENT_3D('',#1491,#1185,#1186);
#1083=AXIS2_PLACEMENT_3D('',#1500,#1191,#1192);
#1084=AXIS2_PLACEMENT_3D('',#1506,#1196,#1197);
#1085=AXIS2_PLACEMENT_3D('',#1512,#1201,#1202);
#1086=AXIS2_PLACEMENT_3D('',#1518,#1206,#1207);
#1087=AXIS2_PLACEMENT_3D('',#1522,#1210,#1211);
#1088=AXIS2_PLACEMENT_3D('',#1526,#1214,#1215);
#1089=AXIS2_PLACEMENT_3D('',#1528,#1217,#1218);
#1090=AXIS2_PLACEMENT_3D('',#1535,#1221,#1222);
#1091=AXIS2_PLACEMENT_3D('',#1539,#1224,#1225);
#1092=AXIS2_PLACEMENT_3D('',#1541,#1227,#1228);
#1093=AXIS2_PLACEMENT_3D('',#1543,#1229,#1230);
#1094=AXIS2_PLACEMENT_3D('',#1546,#1232,#1233);
#1095=AXIS2_PLACEMENT_3D('',#1547,#1234,#1235);
#1096=AXIS2_PLACEMENT_3D('',#1549,#1236,#1237);
#1097=AXIS2_PLACEMENT_3D('',#1550,#1238,#1239);
#1098=AXIS2_PLACEMENT_3D('',#1551,#1240,#1241);
#1099=AXIS2_PLACEMENT_3D('',#1553,#1242,#1243);
#1100=AXIS2_PLACEMENT_3D('',#1555,#1245,#1246);
#1101=AXIS2_PLACEMENT_3D('',#1557,#1247,#1248);
#1102=AXIS2_PLACEMENT_3D('',#1558,#1249,#1250);
#1103=AXIS2_PLACEMENT_3D('',#1559,#1251,#1252);
#1104=AXIS2_PLACEMENT_3D('',#1561,#1253,#1254);
#1105=AXIS2_PLACEMENT_3D('',#1563,#1256,#1257);
#1106=AXIS2_PLACEMENT_3D('',#1566,#1258,#1259);
#1107=AXIS2_PLACEMENT_3D('',#1570,#1261,#1262);
#1108=AXIS2_PLACEMENT_3D('',#1572,#1264,#1265);
#1109=AXIS2_PLACEMENT_3D('',#1575,#1266,#1267);
#1110=AXIS2_PLACEMENT_3D('',#1576,#1268,#1269);
#1111=AXIS2_PLACEMENT_3D('',#1577,#1270,#1271);
#1112=AXIS2_PLACEMENT_3D('',#1578,#1272,#1273);
#1113=AXIS2_PLACEMENT_3D('',#1581,#1274,#1275);
#1114=AXIS2_PLACEMENT_3D('',#1584,#1278,#1279);
#1115=AXIS2_PLACEMENT_3D('',#1587,#1280,#1281);
#1116=AXIS2_PLACEMENT_3D('',#1588,#1282,#1283);
#1117=AXIS2_PLACEMENT_3D('',#1589,#1284,#1285);
#1118=AXIS2_PLACEMENT_3D('',#1590,#1286,#1287);
#1119=AXIS2_PLACEMENT_3D('',#1593,#1288,#1289);
#1120=AXIS2_PLACEMENT_3D('',#1596,#1292,#1293);
#1121=AXIS2_PLACEMENT_3D('',#1599,#1295,#1296);
#1122=AXIS2_PLACEMENT_3D('',#1600,#1297,#1298);
#1123=AXIS2_PLACEMENT_3D('',#1636,#1317,#1318);
#1124=AXIS2_PLACEMENT_3D('',#1637,#1319,#1320);
#1125=AXIS2_PLACEMENT_3D('',#1639,#1321,#1322);
#1126=AXIS2_PLACEMENT_3D('',#1642,#1324,#1325);
#1127=AXIS2_PLACEMENT_3D('',#1643,#1326,#1327);
#1128=AXIS2_PLACEMENT_3D('',#1646,#1328,#1329);
#1129=AXIS2_PLACEMENT_3D('',#1650,#1331,#1332);
#1130=AXIS2_PLACEMENT_3D('',#1656,#1336,#1337);
#1131=AXIS2_PLACEMENT_3D('',#1658,#1338,#1339);
#1132=AXIS2_PLACEMENT_3D('',#1661,#1341,#1342);
#1133=AXIS2_PLACEMENT_3D('',#1662,#1343,#1344);
#1134=AXIS2_PLACEMENT_3D('',#1665,#1345,#1346);
#1135=AXIS2_PLACEMENT_3D('',#1669,#1348,#1349);
#1136=AXIS2_PLACEMENT_3D('',#1675,#1353,#1354);
#1137=AXIS2_PLACEMENT_3D('',#1677,#1355,#1356);
#1138=AXIS2_PLACEMENT_3D('',#1678,#1357,#1358);
#1139=AXIS2_PLACEMENT_3D('',#1680,#1359,#1360);
#1140=AXIS2_PLACEMENT_3D('',#1681,#1361,#1362);
#1141=AXIS2_PLACEMENT_3D('',#1683,#1364,#1365);
#1142=AXIS2_PLACEMENT_3D('',#1719,#1384,#1385);
#1143=AXIS2_PLACEMENT_3D('',#1720,#1386,#1387);
#1144=AXIS2_PLACEMENT_3D('',#1723,#1390,#1391);
#1145=AXIS2_PLACEMENT_3D('',#1726,#1394,#1395);
#1146=AXIS2_PLACEMENT_3D('',#1729,#1398,#1399);
#1147=AXIS2_PLACEMENT_3D('',#1732,#1402,#1403);
#1148=AXIS2_PLACEMENT_3D('',#1734,#1405,#1406);
#1149=AXIS2_PLACEMENT_3D('',#1737,#1409,#1410);
#1150=AXIS2_PLACEMENT_3D('',#1739,#1411,#1412);
#1151=AXIS2_PLACEMENT_3D('',#1741,#1413,#1414);
#1152=AXIS2_PLACEMENT_3D('',#1742,#1415,#1416);
#1153=AXIS2_PLACEMENT_3D('',#1744,#1418,#1419);
#1154=AXIS2_PLACEMENT_3D('',#1747,#1422,#1423);
#1155=AXIS2_PLACEMENT_3D('',#1749,#1424,#1425);
#1156=AXIS2_PLACEMENT_3D('',#1751,#1427,#1428);
#1157=AXIS2_PLACEMENT_3D('',#1753,#1430,#1431);
#1158=AXIS2_PLACEMENT_3D('',#1756,#1433,#1434);
#1159=AXIS2_PLACEMENT_3D('',#1757,#1435,#1436);
#1160=AXIS2_PLACEMENT_3D('',#1759,#1437,#1438);
#1161=AXIS2_PLACEMENT_3D('',#1760,#1439,#1440);
#1162=AXIS2_PLACEMENT_3D('',#1761,#1441,#1442);
#1163=AXIS2_PLACEMENT_3D('',#1763,#1444,#1445);
#1164=AXIS2_PLACEMENT_3D('',#1766,#1448,#1449);
#1165=AXIS2_PLACEMENT_3D('',#1767,#1450,#1451);
#1166=AXIS2_PLACEMENT_3D('',#1769,#1453,#1454);
#1167=AXIS2_PLACEMENT_3D('',#1771,#1456,#1457);
#1168=AXIS2_PLACEMENT_3D('',#1773,#1459,#1460);
#1169=AXIS2_PLACEMENT_3D('',#1774,#1461,#1462);
#1170=AXIS2_PLACEMENT_3D('',#1776,#1464,#1465);
#1171=AXIS2_PLACEMENT_3D('',#1778,#1467,#1468);
#1172=AXIS2_PLACEMENT_3D('',#1779,#1469,#1470);
#1173=AXIS2_PLACEMENT_3D('',#1781,#1472,#1473);
#1174=AXIS2_PLACEMENT_3D('',#1782,#1474,#1475);
#1175=AXIS2_PLACEMENT_3D('',#1784,#1477,#1478);
#1176=AXIS2_PLACEMENT_3D('',#1785,#1479,#1480);
#1177=AXIS2_PLACEMENT_3D('',#1787,#1482,#1483);
#1178=AXIS2_PLACEMENT_3D('',#1789,#1485,#1486);
#1179=DIRECTION('axis',(0.,0.,1.));
#1180=DIRECTION('refdir',(1.,0.,0.));
#1181=DIRECTION('center_axis',(-1.,0.,0.));
#1182=DIRECTION('ref_axis',(0.,0.,1.));
#1183=DIRECTION('center_axis',(-1.,0.,0.));
#1184=DIRECTION('ref_axis',(-2.6329399793482E-16,0.,-1.));
#1185=DIRECTION('center_axis',(1.,-4.02455846426617E-16,-4.29182916038035E-16));
#1186=DIRECTION('ref_axis',(4.29182916038035E-16,-4.02455846426619E-16,
1.));
#1187=DIRECTION('',(4.29182916038035E-16,-4.02455846426619E-16,1.));
#1188=DIRECTION('',(-4.02455846426617E-16,-1.,-4.02455846426619E-16));
#1189=DIRECTION('',(4.29182916038035E-16,-4.02455846426619E-16,1.));
#1190=DIRECTION('',(-4.02455846426617E-16,-1.,-4.02455846426619E-16));
#1191=DIRECTION('center_axis',(0.707106781186551,-2.02145606962884E-30,
-0.707106781186544));
#1192=DIRECTION('ref_axis',(0.707106781186544,-5.69158516272867E-16,0.707106781186551));
#1193=DIRECTION('',(0.707106781186544,-2.84579258136435E-16,0.707106781186551));
#1194=DIRECTION('',(0.707106781186544,-5.69158516272867E-16,0.707106781186551));
#1195=DIRECTION('',(-4.02455846426618E-16,-1.,-4.02455846426619E-16));
#1196=DIRECTION('center_axis',(-6.93889390390802E-18,4.02455846426619E-16,
-1.));
#1197=DIRECTION('ref_axis',(1.,-4.02455846426617E-16,-6.93889390390818E-18));
#1198=DIRECTION('',(1.,2.79259841936168E-33,-6.93889390390802E-18));
#1199=DIRECTION('',(1.,-4.02455846426617E-16,-6.93889390390818E-18));
#1200=DIRECTION('',(4.02455846426617E-16,1.,4.02455846426619E-16));
#1201=DIRECTION('center_axis',(4.02455846426617E-16,1.,4.02455846426619E-16));
#1202=DIRECTION('ref_axis',(-1.,4.02455846426617E-16,6.93889390390818E-18));
#1203=DIRECTION('',(-0.707106781186544,-3.59917788007087E-30,0.707106781186551));
#1204=DIRECTION('',(-1.,4.02455846426617E-16,6.93889390390818E-18));
#1205=DIRECTION('',(-6.93889390390802E-18,4.02455846426619E-16,-1.));
#1206=DIRECTION('center_axis',(0.707106781186551,-5.69158516272867E-16,
0.707106781186544));
#1207=DIRECTION('ref_axis',(-0.707106781186544,-3.59917788007087E-30,0.707106781186551));
#1208=DIRECTION('',(-0.707106781186544,-2.84579258136435E-16,0.707106781186551));
#1209=DIRECTION('',(-4.02455846426617E-16,-1.,-4.02455846426619E-16));
#1210=DIRECTION('center_axis',(-1.,4.02455846426617E-16,6.93889390390818E-18));
#1211=DIRECTION('ref_axis',(-6.93889390390802E-18,4.02455846426619E-16,
-1.));
#1212=DIRECTION('',(-6.93889390390802E-18,4.02455846426619E-16,-1.));
#1213=DIRECTION('',(4.02455846426617E-16,1.,4.02455846426619E-16));
#1214=DIRECTION('center_axis',(6.93889390390802E-18,-4.02455846426619E-16,
1.));
#1215=DIRECTION('ref_axis',(-1.,4.02455846426617E-16,6.93889390390818E-18));
#1216=DIRECTION('',(-1.,-2.79259841936168E-33,6.93889390390802E-18));
#1217=DIRECTION('center_axis',(-1.,0.,0.));
#1218=DIRECTION('ref_axis',(0.,4.02455846426619E-16,-1.));
#1219=DIRECTION('',(-2.25655086305924E-16,-4.02455846426619E-16,1.));
#1220=DIRECTION('',(0.,-1.,-3.70074341541719E-16));
#1221=DIRECTION('center_axis',(1.,0.,0.));
#1222=DIRECTION('ref_axis',(0.,0.707106781186547,0.707106781186548));
#1223=DIRECTION('',(0.,-4.02455846426619E-16,1.));
#1224=DIRECTION('center_axis',(1.,0.,0.));
#1225=DIRECTION('ref_axis',(0.,0.707106781186547,-0.707106781186548));
#1226=DIRECTION('',(0.,1.,3.70074341541719E-16));
#1227=DIRECTION('center_axis',(0.,1.,3.70074341541719E-16));
#1228=DIRECTION('ref_axis',(-0.707106781186548,0.,0.707106781186548));
#1229=DIRECTION('center_axis',(1.30003275498882E-46,1.,4.02455846426619E-16));
#1230=DIRECTION('ref_axis',(-0.707106781186548,0.,0.707106781186548));
#1231=DIRECTION('',(0.,1.,3.70074341541719E-16));
#1232=DIRECTION('center_axis',(0.,-1.,0.));
#1233=DIRECTION('ref_axis',(0.,0.,1.));
#1234=DIRECTION('center_axis',(1.,0.,0.));
#1235=DIRECTION('ref_axis',(0.,0.,-1.));
#1236=DIRECTION('center_axis',(0.,1.11022302462518E-15,1.));
#1237=DIRECTION('ref_axis',(0.,1.,-1.11022302462518E-15));
#1238=DIRECTION('center_axis',(-1.,0.,0.));
#1239=DIRECTION('ref_axis',(0.,0.707106781186547,0.707106781186548));
#1240=DIRECTION('center_axis',(0.,4.02455846426619E-16,-1.));
#1241=DIRECTION('ref_axis',(-0.707106781186543,0.707106781186552,0.));
#1242=DIRECTION('center_axis',(0.,0.,1.));
#1243=DIRECTION('ref_axis',(0.,1.,0.));
#1244=DIRECTION('',(0.,4.02455846426619E-16,-1.));
#1245=DIRECTION('center_axis',(1.,0.,0.));
#1246=DIRECTION('ref_axis',(0.,0.,-1.));
#1247=DIRECTION('center_axis',(0.,1.,0.));
#1248=DIRECTION('ref_axis',(0.,0.,-1.));
#1249=DIRECTION('center_axis',(-1.,0.,0.));
#1250=DIRECTION('ref_axis',(0.,0.707106781186547,-0.707106781186548));
#1251=DIRECTION('center_axis',(0.,-1.,-3.70074341541719E-16));
#1252=DIRECTION('ref_axis',(-0.707106781186548,0.,-0.707106781186548));
#1253=DIRECTION('center_axis',(1.30003275498882E-46,1.,4.02455846426619E-16));
#1254=DIRECTION('ref_axis',(-0.707106781186548,0.,-0.707106781186548));
#1255=DIRECTION('',(0.,-1.,-3.70074341541719E-16));
#1256=DIRECTION('center_axis',(0.,-1.,-3.70074341541719E-16));
#1257=DIRECTION('ref_axis',(0.707106781186548,0.,-0.707106781186548));
#1258=DIRECTION('center_axis',(1.30003275498882E-46,1.,4.02455846426619E-16));
#1259=DIRECTION('ref_axis',(0.707106781186548,0.,-0.707106781186548));
#1260=DIRECTION('',(0.,1.,3.70074341541719E-16));
#1261=DIRECTION('center_axis',(0.,-1.,0.));
#1262=DIRECTION('ref_axis',(0.,0.,-1.));
#1263=DIRECTION('',(0.,-1.,-3.70074341541719E-16));
#1264=DIRECTION('center_axis',(-1.,0.,0.));
#1265=DIRECTION('ref_axis',(0.,0.,1.));
#1266=DIRECTION('center_axis',(0.,-1.11022302462514E-15,-1.));
#1267=DIRECTION('ref_axis',(0.,1.,-1.11022302462514E-15));
#1268=DIRECTION('center_axis',(-1.,0.,0.));
#1269=DIRECTION('ref_axis',(0.,0.707106781186547,-0.707106781186548));
#1270=DIRECTION('center_axis',(1.,0.,0.));
#1271=DIRECTION('ref_axis',(0.,0.707106781186547,-0.707106781186548));
#1272=DIRECTION('center_axis',(0.,4.02455846426619E-16,-1.));
#1273=DIRECTION('ref_axis',(0.707106781186543,0.707106781186552,0.));
#1274=DIRECTION('center_axis',(0.,1.11022302462514E-15,-1.));
#1275=DIRECTION('ref_axis',(0.,1.,1.11022302462514E-15));
#1276=DIRECTION('',(0.,4.02455846426619E-16,-1.));
#1277=DIRECTION('',(0.,-4.02455846426619E-16,1.));
#1278=DIRECTION('center_axis',(-1.,0.,0.));
#1279=DIRECTION('ref_axis',(0.,0.,1.));
#1280=DIRECTION('center_axis',(0.,1.,0.));
#1281=DIRECTION('ref_axis',(0.,0.,1.));
#1282=DIRECTION('center_axis',(-1.,0.,0.));
#1283=DIRECTION('ref_axis',(0.,0.707106781186547,0.707106781186549));
#1284=DIRECTION('center_axis',(1.,0.,0.));
#1285=DIRECTION('ref_axis',(0.,0.707106781186547,0.707106781186548));
#1286=DIRECTION('center_axis',(0.,-1.,-3.70074341541719E-16));
#1287=DIRECTION('ref_axis',(0.707106781186548,0.,0.707106781186548));
#1288=DIRECTION('center_axis',(1.30003275498882E-46,1.,4.02455846426619E-16));
#1289=DIRECTION('ref_axis',(0.707106781186548,0.,0.707106781186548));
#1290=DIRECTION('',(0.,1.,3.70074341541719E-16));
#1291=DIRECTION('',(0.,-1.,-3.70074341541719E-16));
#1292=DIRECTION('center_axis',(1.,0.,0.));
#1293=DIRECTION('ref_axis',(0.,-4.02455846426619E-16,1.));
#1294=DIRECTION('',(2.25655086305928E-16,4.02455846426619E-16,-1.));
#1295=DIRECTION('center_axis',(-1.,0.,0.));
#1296=DIRECTION('ref_axis',(2.52323414687536E-16,0.,-1.));
#1297=DIRECTION('center_axis',(1.30003275498882E-46,1.,4.02455846426619E-16));
#1298=DIRECTION('ref_axis',(-1.,1.30003275498882E-46,5.23205782791353E-62));
#1299=DIRECTION('',(1.,3.63264835038901E-31,-9.02620345223724E-16));
#1300=DIRECTION('',(0.707106781186555,-2.84579258136431E-16,0.70710678118654));
#1301=DIRECTION('',(3.45705356339184E-15,-4.02455846426619E-16,1.));
#1302=DIRECTION('',(-0.707106781186556,2.8457925813643E-16,-0.707106781186539));
#1303=DIRECTION('',(-1.,-2.88888778055169E-30,7.17814837628015E-15));
#1304=DIRECTION('',(-0.707106781186546,-2.84579258136434E-16,0.707106781186549));
#1305=DIRECTION('',(-3.21803775253653E-15,4.02455846426619E-16,-1.));
#1306=DIRECTION('',(0.707106781186554,2.84579258136431E-16,-0.707106781186541));
#1307=DIRECTION('',(1.,1.76621868070632E-31,-4.51310172611846E-16));
#1308=DIRECTION('',(-1.,0.,0.));
#1309=DIRECTION('',(-0.707106781186551,2.84579258136432E-16,-0.707106781186544));
#1310=DIRECTION('',(-3.45705356339181E-15,4.02455846426619E-16,-1.));
#1311=DIRECTION('',(0.707106781186551,-2.84579258136432E-16,0.707106781186544));
#1312=DIRECTION('',(1.,2.54901862989854E-31,-6.3336603320119E-16));
#1313=DIRECTION('',(0.707106781186551,2.84579258136432E-16,-0.707106781186544));
#1314=DIRECTION('',(0.,-4.02455846426619E-16,1.));
#1315=DIRECTION('',(-0.707106781186552,-2.84579258136432E-16,0.707106781186543));
#1316=DIRECTION('',(-1.,5.01054944881234E-33,2.0165249194842E-48));
#1317=DIRECTION('center_axis',(1.30003275498882E-46,1.,4.02455846426619E-16));
#1318=DIRECTION('ref_axis',(-1.,0.,-5.23205782791353E-62));
#1319=DIRECTION('center_axis',(1.,0.,-1.77635684105482E-15));
#1320=DIRECTION('ref_axis',(2.2610437568672E-15,-3.49896401483575E-46,1.));
#1321=DIRECTION('center_axis',(-1.,-6.80052504500871E-31,1.77635683940025E-15));
#1322=DIRECTION('ref_axis',(1.77635683940025E-15,-6.79508953605783E-46,
1.));
#1323=DIRECTION('',(-0.707106781186505,-8.65956056235544E-17,0.70710678118659));
#1324=DIRECTION('center_axis',(-1.,-6.80052504500871E-31,1.77635683940025E-15));
#1325=DIRECTION('ref_axis',(1.77635683940025E-15,0.,1.));
#1326=DIRECTION('center_axis',(-1.,-6.80052504500871E-31,1.77635683940025E-15));
#1327=DIRECTION('ref_axis',(1.77635683940025E-15,-4.02455846426619E-16,
1.));
#1328=DIRECTION('center_axis',(-1.,-6.80052504500871E-31,1.77635683940025E-15));
#1329=DIRECTION('ref_axis',(7.85046229341886E-16,0.707106781186548,0.707106781186547));
#1330=DIRECTION('',(-1.77635683940025E-15,4.02455846426619E-16,-1.));
#1331=DIRECTION('center_axis',(-1.,-6.80052504500871E-31,1.77635683940025E-15));
#1332=DIRECTION('ref_axis',(0.,0.707106781186546,-0.707106781186549));
#1333=DIRECTION('',(-2.26684168166948E-32,1.,3.70074341541719E-16));
#1334=DIRECTION('',(-1.77635683940025E-15,4.02455846426619E-16,-1.));
#1335=DIRECTION('',(2.26684168166948E-32,-1.,-3.70074341541719E-16));
#1336=DIRECTION('center_axis',(-1.,0.,-1.77635684105482E-15));
#1337=DIRECTION('ref_axis',(-2.2610437568672E-15,-3.49896401483575E-46,
1.));
#1338=DIRECTION('center_axis',(1.,-6.80052504500871E-31,1.77635683940025E-15));
#1339=DIRECTION('ref_axis',(-1.77635683940025E-15,-6.79508953605783E-46,
1.));
#1340=DIRECTION('',(0.707106781186505,8.65956056235544E-17,0.70710678118659));
#1341=DIRECTION('center_axis',(-1.,6.80052504500871E-31,-1.77635683940025E-15));
#1342=DIRECTION('ref_axis',(-1.77635683940025E-15,0.,1.));
#1343=DIRECTION('center_axis',(-1.,6.80052504500871E-31,-1.77635683940025E-15));
#1344=DIRECTION('ref_axis',(-1.77635683940025E-15,-4.02455846426619E-16,
1.));
#1345=DIRECTION('center_axis',(1.,-6.80052504500871E-31,1.77635683940025E-15));
#1346=DIRECTION('ref_axis',(0.,0.707106781186546,-0.707106781186549));
#1347=DIRECTION('',(-1.77635683940025E-15,-4.02455846426619E-16,1.));
#1348=DIRECTION('center_axis',(1.,-6.80052504500871E-31,1.77635683940025E-15));
#1349=DIRECTION('ref_axis',(2.61682076447296E-16,0.707106781186546,0.707106781186549));
#1350=DIRECTION('',(2.26684168166948E-32,1.,3.70074341541719E-16));
#1351=DIRECTION('',(-1.77635683940025E-15,-4.02455846426619E-16,1.));
#1352=DIRECTION('',(-2.26684168166948E-32,-1.,-3.70074341541719E-16));
#1353=DIRECTION('center_axis',(-1.,6.80052504500871E-31,-1.77635683940025E-15));
#1354=DIRECTION('ref_axis',(-1.77635683940025E-15,0.,1.));
#1355=DIRECTION('center_axis',(-1.,6.80052504500871E-31,-1.77635683940025E-15));
#1356=DIRECTION('ref_axis',(-2.6329399793482E-16,0.,-1.));
#1357=DIRECTION('center_axis',(-1.,-6.80052504500871E-31,1.77635683940025E-15));
#1358=DIRECTION('ref_axis',(1.77635683940025E-15,0.,1.));
#1359=DIRECTION('center_axis',(1.,6.80052504500871E-31,-1.77635683940025E-15));
#1360=DIRECTION('ref_axis',(1.77635683940025E-15,4.96999397421361E-122,
1.));
#1361=DIRECTION('center_axis',(1.,0.,-2.6329399793482E-16));
#1362=DIRECTION('ref_axis',(-2.6329399793482E-16,0.,-1.));
#1363=DIRECTION('',(1.,0.,-2.6329399793482E-16));
#1364=DIRECTION('center_axis',(1.30003275498882E-46,1.,4.02455846426619E-16));
#1365=DIRECTION('ref_axis',(-1.,1.30003275498882E-46,5.23205782791353E-62));
#1366=DIRECTION('',(1.,3.63264835038901E-31,-9.02620345223724E-16));
#1367=DIRECTION('',(1.,-1.30003275498882E-46,-1.62249131452796E-49));
#1368=DIRECTION('',(-0.707106781186552,-2.84579258136432E-16,0.707106781186543));
#1369=DIRECTION('',(0.,-4.02455846426619E-16,1.));
#1370=DIRECTION('',(0.707106781186551,2.84579258136432E-16,-0.707106781186544));
#1371=DIRECTION('',(1.,2.54901862989854E-31,-6.3336603320119E-16));
#1372=DIRECTION('',(0.707106781186551,-2.84579258136432E-16,0.707106781186544));
#1373=DIRECTION('',(-3.45705356339181E-15,4.02455846426619E-16,-1.));
#1374=DIRECTION('',(-0.707106781186551,2.84579258136432E-16,-0.707106781186544));
#1375=DIRECTION('',(-1.,1.30003275498882E-46,4.81108765785153E-62));
#1376=DIRECTION('',(-1.,-1.81632417519444E-31,4.51310172611846E-16));
#1377=DIRECTION('',(0.707106781186554,2.84579258136431E-16,-0.707106781186541));
#1378=DIRECTION('',(-3.21803775253653E-15,4.02455846426619E-16,-1.));
#1379=DIRECTION('',(-0.707106781186546,-2.84579258136434E-16,0.707106781186549));
#1380=DIRECTION('',(-1.,-2.88888778055169E-30,7.17814837628015E-15));
#1381=DIRECTION('',(-0.707106781186556,2.8457925813643E-16,-0.707106781186539));
#1382=DIRECTION('',(3.45705356339184E-15,-4.02455846426619E-16,1.));
#1383=DIRECTION('',(0.707106781186555,-2.84579258136431E-16,0.70710678118654));
#1384=DIRECTION('center_axis',(1.30003275498882E-46,1.,4.02455846426619E-16));
#1385=DIRECTION('ref_axis',(-1.,1.30003275498882E-46,0.));
#1386=DIRECTION('center_axis',(-1.,-1.81632417519444E-31,4.51310172611846E-16));
#1387=DIRECTION('ref_axis',(2.61682076447296E-16,0.707106781186546,0.707106781186549));
#1388=DIRECTION('',(1.,1.81632417519444E-31,-4.51310172611846E-16));
#1389=DIRECTION('',(-1.,-1.81632417519444E-31,4.51310172611846E-16));
#1390=DIRECTION('center_axis',(-1.,1.30003275498882E-46,1.62249131452796E-49));
#1391=DIRECTION('ref_axis',(0.,0.707106781186546,-0.707106781186549));
#1392=DIRECTION('',(1.,1.30003275498882E-46,4.81108765785153E-62));
#1393=DIRECTION('',(-1.,-1.30003275498882E-46,-4.81108765785153E-62));
#1394=DIRECTION('center_axis',(-1.,-1.81632417519444E-31,4.51310172611846E-16));
#1395=DIRECTION('ref_axis',(2.61682076447296E-16,0.707106781186546,0.707106781186549));
#1396=DIRECTION('',(-1.,-3.63264835038901E-31,9.02620345223724E-16));
#1397=DIRECTION('',(1.,3.63264835038901E-31,-9.02620345223724E-16));
#1398=DIRECTION('center_axis',(-1.,1.30003275498882E-46,1.62249131452796E-49));
#1399=DIRECTION('ref_axis',(0.,0.707106781186546,-0.707106781186549));
#1400=DIRECTION('',(-1.,1.30003275498882E-46,1.62249131452796E-49));
#1401=DIRECTION('',(1.,-1.30003275498882E-46,-1.62249131452796E-49));
#1402=DIRECTION('center_axis',(4.51310172611846E-16,-3.70074341541719E-16,
1.));
#1403=DIRECTION('ref_axis',(1.,1.76621868070632E-31,-4.51310172611846E-16));
#1404=DIRECTION('',(0.,1.,3.70074341541719E-16));
#1405=DIRECTION('center_axis',(7.17814837628015E-15,-3.70074341541719E-16,
1.));
#1406=DIRECTION('ref_axis',(1.,2.88888778055169E-30,-7.17814837628015E-15));
#1407=DIRECTION('',(0.,-1.,-3.70074341541719E-16));
#1408=DIRECTION('',(0.,-1.,-3.70074341541719E-16));
#1409=DIRECTION('center_axis',(1.30003275498882E-46,1.,4.02455846426619E-16));
#1410=DIRECTION('ref_axis',(-1.,1.30003275498882E-46,0.));
#1411=DIRECTION('center_axis',(-1.30003275498882E-46,-1.,-4.02455846426619E-16));
#1412=DIRECTION('ref_axis',(-1.,1.30003275498882E-46,0.));
#1413=DIRECTION('center_axis',(1.30003275498882E-46,1.,4.02455846426619E-16));
#1414=DIRECTION('ref_axis',(-1.,1.30003275498882E-46,-2.99866963718557E-77));
#1415=DIRECTION('center_axis',(0.,-1.,-4.02455846426618E-16));
#1416=DIRECTION('ref_axis',(-1.,0.,-5.23205782791351E-62));
#1417=DIRECTION('',(0.,-1.,-4.02455846426618E-16));
#1418=DIRECTION('center_axis',(-6.3336603320119E-16,3.70074341541719E-16,
-1.));
#1419=DIRECTION('ref_axis',(-1.,-2.54901862989855E-31,6.3336603320119E-16));
#1420=DIRECTION('',(0.,-1.,-3.70074341541719E-16));
#1421=DIRECTION('',(0.,1.,3.70074341541719E-16));
#1422=DIRECTION('center_axis',(1.30003275498882E-46,1.,4.02455846426618E-16));
#1423=DIRECTION('ref_axis',(-1.,7.54857728703183E-47,-2.19408876654438E-62));
#1424=DIRECTION('center_axis',(-1.30003275498882E-46,-1.,-4.02455846426619E-16));
#1425=DIRECTION('ref_axis',(-1.,0.,-5.23205782791353E-62));
#1426=DIRECTION('',(0.707106781186549,0.707106781186546,3.71174863759982E-16));
#1427=DIRECTION('center_axis',(0.,-1.,-4.02455846426619E-16));
#1428=DIRECTION('ref_axis',(-1.,0.,-5.23205782791353E-62));
#1429=DIRECTION('',(0.,-1.,-4.02455846426619E-16));
#1430=DIRECTION('center_axis',(-1.,0.,-2.52323414687536E-16));
#1431=DIRECTION('ref_axis',(2.52323414687536E-16,0.,-1.));
#1432=DIRECTION('',(-1.,0.,-2.52323414687536E-16));
#1433=DIRECTION('center_axis',(-1.,8.3509157480206E-32,-2.25655086305928E-16));
#1434=DIRECTION('ref_axis',(2.25655086305928E-16,0.,-1.));
#1435=DIRECTION('center_axis',(1.,-8.3509157480206E-32,2.25655086305928E-16));
#1436=DIRECTION('ref_axis',(2.25655086305928E-16,0.,-1.));
#1437=DIRECTION('center_axis',(1.,-8.3509157480206E-32,2.25655086305928E-16));
#1438=DIRECTION('ref_axis',(2.6329399793482E-16,0.,-1.));
#1439=DIRECTION('center_axis',(1.30003275498882E-46,-1.,-4.02455846426619E-16));
#1440=DIRECTION('ref_axis',(1.,1.30003275498882E-46,0.));
#1441=DIRECTION('center_axis',(0.,3.70074341541719E-16,-1.));
#1442=DIRECTION('ref_axis',(-1.,0.,0.));
#1443=DIRECTION('',(0.,1.,3.70074341541719E-16));
#1444=DIRECTION('center_axis',(-0.707106781186543,2.61682076447298E-16,
-0.707106781186552));
#1445=DIRECTION('ref_axis',(-0.707106781186552,-2.84579258136432E-16,0.707106781186543));
#1446=DIRECTION('',(0.,1.,3.70074341541719E-16));
#1447=DIRECTION('',(0.,1.,3.70074341541719E-16));
#1448=DIRECTION('center_axis',(-1.62249131452748E-49,3.70074341541719E-16,
-1.));
#1449=DIRECTION('ref_axis',(-1.,5.01054944881234E-33,2.0165249194842E-48));
#1450=DIRECTION('center_axis',(9.02620345223724E-16,-3.70074341541719E-16,
1.));
#1451=DIRECTION('ref_axis',(1.,3.63264835038901E-31,-9.02620345223724E-16));
#1452=DIRECTION('',(0.,1.,3.70074341541719E-16));
#1453=DIRECTION('center_axis',(-0.70710678118654,-2.61682076447299E-16,
0.707106781186555));
#1454=DIRECTION('ref_axis',(0.707106781186555,-2.84579258136431E-16,0.70710678118654));
#1455=DIRECTION('',(0.,1.,3.70074341541719E-16));
#1456=DIRECTION('center_axis',(-1.,0.,-2.6329399793482E-16));
#1457=DIRECTION('ref_axis',(2.6329399793482E-16,0.,-1.));
#1458=DIRECTION('',(-1.,0.,-2.6329399793482E-16));
#1459=DIRECTION('center_axis',(1.30003275498882E-46,1.,4.02455846426619E-16));
#1460=DIRECTION('ref_axis',(-1.,1.30003275498882E-46,0.));
#1461=DIRECTION('center_axis',(0.707106781186544,2.61682076447297E-16,-0.707106781186551));
#1462=DIRECTION('ref_axis',(-0.707106781186551,2.84579258136432E-16,-0.707106781186544));
#1463=DIRECTION('',(0.,1.,3.70074341541719E-16));
#1464=DIRECTION('center_axis',(1.,1.27936682114668E-30,-3.45705356339181E-15));
#1465=DIRECTION('ref_axis',(-3.45705356339181E-15,4.02455846426619E-16,
-1.));
#1466=DIRECTION('',(0.,-1.,-3.70074341541719E-16));
#1467=DIRECTION('center_axis',(0.707106781186544,2.61682076447297E-16,-0.707106781186551));
#1468=DIRECTION('ref_axis',(-0.707106781186551,2.84579258136432E-16,-0.707106781186544));
#1469=DIRECTION('center_axis',(-0.707106781186544,2.61682076447297E-16,
-0.707106781186551));
#1470=DIRECTION('ref_axis',(-0.707106781186551,-2.84579258136432E-16,0.707106781186544));
#1471=DIRECTION('',(0.,1.,3.70074341541719E-16));
#1472=DIRECTION('center_axis',(-1.,0.,0.));
#1473=DIRECTION('ref_axis',(0.,-4.02455846426619E-16,1.));
#1474=DIRECTION('center_axis',(-1.,-1.27936682114669E-30,3.45705356339184E-15));
#1475=DIRECTION('ref_axis',(3.45705356339184E-15,-4.02455846426619E-16,
1.));
#1476=DIRECTION('',(0.,-1.,-3.70074341541719E-16));
#1477=DIRECTION('center_axis',(-0.707106781186539,-2.61682076447299E-16,
0.707106781186556));
#1478=DIRECTION('ref_axis',(0.707106781186556,-2.84579258136431E-16,0.707106781186539));
#1479=DIRECTION('center_axis',(0.707106781186549,-2.61682076447296E-16,
0.707106781186546));
#1480=DIRECTION('ref_axis',(0.707106781186546,2.84579258136434E-16,-0.707106781186549));
#1481=DIRECTION('',(-2.47716911647593E-46,1.,3.70074341541719E-16));
#1482=DIRECTION('center_axis',(1.,1.19091320232635E-30,-3.21803775253653E-15));
#1483=DIRECTION('ref_axis',(-3.21803775253653E-15,4.02455846426619E-16,
-1.));
#1484=DIRECTION('',(0.,1.,3.70074341541719E-16));
#1485=DIRECTION('center_axis',(0.707106781186541,-2.61682076447298E-16,
0.707106781186554));
#1486=DIRECTION('ref_axis',(0.707106781186554,2.84579258136431E-16,-0.707106781186541));
#1487=CARTESIAN_POINT('',(0.,0.,0.));
#1488=CARTESIAN_POINT('Origin',(-8.,114.,6.0340676344417E-8));
#1489=CARTESIAN_POINT('',(-8.,114.,2.35000006034068));
#1490=CARTESIAN_POINT('Origin',(-8.,114.,6.03406753056384E-8));
#1491=CARTESIAN_POINT('Origin',(-3.90000000000002,97.5000000000002,0.210000000000058));
#1492=CARTESIAN_POINT('',(-3.90000000000002,100.,2.83933982822027));
#1493=CARTESIAN_POINT('',(-3.90000000000002,100.,-2.83933982822016));
#1494=CARTESIAN_POINT('',(-3.90000000000002,100.,0.105000000000052));
#1495=CARTESIAN_POINT('',(-3.90000000000002,103.5,2.83933982822027));
#1496=CARTESIAN_POINT('',(-3.90000000000002,97.5000000000002,2.83933982822027));
#1497=CARTESIAN_POINT('',(-3.90000000000002,103.5,-2.83933982822016));
#1498=CARTESIAN_POINT('',(-3.90000000000002,103.5,0.105000000000061));
#1499=CARTESIAN_POINT('',(-3.90000000000003,97.5000000000002,-2.83933982822016));
#1500=CARTESIAN_POINT('Origin',(-6.56066017177978,97.5000000000002,-5.49999999999994));
#1501=CARTESIAN_POINT('',(-6.56066017177978,100.,-5.49999999999994));
#1502=CARTESIAN_POINT('',(-3.54549512883485,100.,-2.48483495705499));
#1503=CARTESIAN_POINT('',(-6.56066017177978,103.5,-5.49999999999994));
#1504=CARTESIAN_POINT('',(-3.54549512883485,103.5,-2.48483495705499));
#1505=CARTESIAN_POINT('',(-6.56066017177978,97.5000000000002,-5.49999999999994));
#1506=CARTESIAN_POINT('Origin',(-8.20000000000003,97.5000000000002,-5.49999999999994));
#1507=CARTESIAN_POINT('',(-8.20000000000003,100.,-5.49999999999994));
#1508=CARTESIAN_POINT('',(-4.10000000000001,100.,-5.49999999999994));
#1509=CARTESIAN_POINT('',(-8.20000000000003,103.5,-5.49999999999994));
#1510=CARTESIAN_POINT('',(-4.10000000000002,103.5,-5.49999999999994));
#1511=CARTESIAN_POINT('',(-8.20000000000003,97.5000000000002,-5.49999999999994));
#1512=CARTESIAN_POINT('Origin',(-1.48903903223917E-14,103.5,5.92796789946688E-14));
#1513=CARTESIAN_POINT('',(-6.56066017177978,103.5,5.50000000000006));
#1514=CARTESIAN_POINT('',(-2.21516504294497,103.5,1.15450487116521));
#1515=CARTESIAN_POINT('',(-8.20000000000003,103.5,5.50000000000006));
#1516=CARTESIAN_POINT('',(-3.2803300858899,103.5,5.50000000000006));
#1517=CARTESIAN_POINT('',(-8.20000000000003,103.5,-1.56249999999994));
#1518=CARTESIAN_POINT('Origin',(-3.90000000000002,97.5000000000002,2.83933982822027));
#1519=CARTESIAN_POINT('',(-6.56066017177978,100.,5.50000000000006));
#1520=CARTESIAN_POINT('',(-2.21516504294497,100.,1.1545048711652));
#1521=CARTESIAN_POINT('',(-6.56066017177978,97.5000000000002,5.50000000000006));
#1522=CARTESIAN_POINT('Origin',(-8.20000000000003,97.5000000000002,-3.12499999999994));
#1523=CARTESIAN_POINT('',(-8.20000000000003,100.,5.50000000000006));
#1524=CARTESIAN_POINT('',(-8.20000000000003,100.,-1.56249999999995));
#1525=CARTESIAN_POINT('',(-8.20000000000003,97.5000000000002,5.50000000000006));
#1526=CARTESIAN_POINT('Origin',(-6.56066017177978,97.5000000000002,5.50000000000006));
#1527=CARTESIAN_POINT('',(-3.28033008588989,100.,5.50000000000006));
#1528=CARTESIAN_POINT('Origin',(-10.,100.,4.5800000000001));
#1529=CARTESIAN_POINT('',(-10.,100.,-9.49999999999997));
#1530=CARTESIAN_POINT('',(-10.,100.,9.50000000000005));
#1531=CARTESIAN_POINT('',(-10.,100.,-9.49999999999997));
#1532=CARTESIAN_POINT('',(-10.,116.5,9.50000000000006));
#1533=CARTESIAN_POINT('',(-10.,100.,9.50000000000006));
#1534=CARTESIAN_POINT('',(-10.,122.,4.00000000000006));
#1535=CARTESIAN_POINT('Origin',(-10.,116.5,4.00000000000006));
#1536=CARTESIAN_POINT('',(-10.,122.,-3.99999999999996));
#1537=CARTESIAN_POINT('',(-10.,122.,2.29000000000008));
#1538=CARTESIAN_POINT('',(-10.,116.5,-9.49999999999996));
#1539=CARTESIAN_POINT('Origin',(-10.,116.5,-3.99999999999996));
#1540=CARTESIAN_POINT('',(-10.,100.,-9.49999999999997));
#1541=CARTESIAN_POINT('Origin',(-9.5,100.,9.50000000000006));
#1542=CARTESIAN_POINT('',(-9.5,100.,10.0000000000001));
#1543=CARTESIAN_POINT('Origin',(-9.5,100.,9.50000000000006));
#1544=CARTESIAN_POINT('',(-9.5,116.5,10.0000000000001));
#1545=CARTESIAN_POINT('',(-9.5,100.,10.0000000000001));
#1546=CARTESIAN_POINT('Origin',(-9.5,116.5,9.50000000000006));
#1547=CARTESIAN_POINT('Origin',(-9.5,116.5,4.00000000000006));
#1548=CARTESIAN_POINT('',(-9.5,122.5,4.00000000000006));
#1549=CARTESIAN_POINT('Origin',(-9.5,122.,4.00000000000006));
#1550=CARTESIAN_POINT('Origin',(-9.5,116.5,4.00000000000006));
#1551=CARTESIAN_POINT('Origin',(-9.5,122.,2.29000000000008));
#1552=CARTESIAN_POINT('',(-9.5,122.5,-3.99999999999996));
#1553=CARTESIAN_POINT('Origin',(-9.5,122.,-3.99999999999996));
#1554=CARTESIAN_POINT('',(-9.5,122.5,2.29000000000008));
#1555=CARTESIAN_POINT('Origin',(-9.5,116.5,-3.99999999999996));
#1556=CARTESIAN_POINT('',(-9.5,116.5,-9.99999999999996));
#1557=CARTESIAN_POINT('Origin',(-9.5,116.5,-9.49999999999996));
#1558=CARTESIAN_POINT('Origin',(-9.5,116.5,-3.99999999999996));
#1559=CARTESIAN_POINT('Origin',(-9.5,100.,-9.49999999999997));
#1560=CARTESIAN_POINT('',(-9.5,100.,-9.99999999999997));
#1561=CARTESIAN_POINT('Origin',(-9.5,100.,-9.49999999999997));
#1562=CARTESIAN_POINT('',(-9.5,100.,-9.99999999999997));
#1563=CARTESIAN_POINT('Origin',(9.5,100.,-9.49999999999997));
#1564=CARTESIAN_POINT('',(10.,100.,-9.49999999999997));
#1565=CARTESIAN_POINT('',(9.5,100.,-9.99999999999997));
#1566=CARTESIAN_POINT('Origin',(9.5,100.,-9.49999999999997));
#1567=CARTESIAN_POINT('',(9.5,116.5,-9.99999999999996));
#1568=CARTESIAN_POINT('',(9.5,100.,-9.99999999999997));
#1569=CARTESIAN_POINT('',(10.,116.5,-9.49999999999996));
#1570=CARTESIAN_POINT('Origin',(9.5,116.5,-9.49999999999996));
#1571=CARTESIAN_POINT('',(10.,100.,-9.49999999999997));
#1572=CARTESIAN_POINT('Origin',(9.5,116.5,-3.99999999999996));
#1573=CARTESIAN_POINT('',(9.5,122.5,-3.99999999999996));
#1574=CARTESIAN_POINT('',(10.,122.,-3.99999999999996));
#1575=CARTESIAN_POINT('Origin',(9.5,122.,-3.99999999999996));
#1576=CARTESIAN_POINT('Origin',(10.,116.5,-3.99999999999996));
#1577=CARTESIAN_POINT('Origin',(9.5,116.5,-3.99999999999996));
#1578=CARTESIAN_POINT('Origin',(9.5,122.,-2.28999999999993));
#1579=CARTESIAN_POINT('',(9.5,122.5,4.00000000000006));
#1580=CARTESIAN_POINT('',(10.,122.,4.00000000000006));
#1581=CARTESIAN_POINT('Origin',(9.5,122.,4.00000000000006));
#1582=CARTESIAN_POINT('',(10.,122.,-2.28999999999993));
#1583=CARTESIAN_POINT('',(9.5,122.5,-2.28999999999993));
#1584=CARTESIAN_POINT('Origin',(9.5,116.5,4.00000000000005));
#1585=CARTESIAN_POINT('',(9.5,116.5,10.0000000000001));
#1586=CARTESIAN_POINT('',(10.,116.5,9.50000000000005));
#1587=CARTESIAN_POINT('Origin',(9.5,116.5,9.50000000000005));
#1588=CARTESIAN_POINT('Origin',(10.,116.5,4.00000000000005));
#1589=CARTESIAN_POINT('Origin',(9.5,116.5,4.00000000000005));
#1590=CARTESIAN_POINT('Origin',(9.5,100.,9.50000000000005));
#1591=CARTESIAN_POINT('',(9.5,100.,10.0000000000001));
#1592=CARTESIAN_POINT('',(10.,100.,9.50000000000005));
#1593=CARTESIAN_POINT('Origin',(9.5,100.,9.50000000000005));
#1594=CARTESIAN_POINT('',(10.,100.,9.50000000000005));
#1595=CARTESIAN_POINT('',(9.5,100.,10.0000000000001));
#1596=CARTESIAN_POINT('Origin',(10.,100.,-4.57999999999991));
#1597=CARTESIAN_POINT('',(10.,100.,9.50000000000005));
#1598=CARTESIAN_POINT('',(10.,114.,4.47500006034068));
#1599=CARTESIAN_POINT('Origin',(10.,114.,6.03406783520713E-8));
#1600=CARTESIAN_POINT('Origin',(2.22044604925031E-15,100.,4.24660306919122E-14));
#1601=CARTESIAN_POINT('',(4.5800000000001,100.,10.0000000000001));
#1602=CARTESIAN_POINT('',(4.5800000000001,100.,10.0000000000001));
#1603=CARTESIAN_POINT('',(3.12500000000006,100.,8.54500000000004));
#1604=CARTESIAN_POINT('',(3.12500000000006,100.,8.54500000000004));
#1605=CARTESIAN_POINT('',(3.12500000000005,100.,6.16555915910213));
#1606=CARTESIAN_POINT('',(3.12500000000004,100.,4.18566017177982));
#1607=CARTESIAN_POINT('',(2.25944084089793,100.,5.30000000000003));
#1608=CARTESIAN_POINT('',(0.164555377504017,100.,3.20511453660617));
#1609=CARTESIAN_POINT('',(-2.25944084089785,100.,5.30000000000006));
#1610=CARTESIAN_POINT('',(0.10500000000004,100.,5.30000000000005));
#1611=CARTESIAN_POINT('',(-3.12499999999995,100.,6.16555915910217));
#1612=CARTESIAN_POINT('',(-0.307385463393853,100.,3.34794462249606));
#1613=CARTESIAN_POINT('',(-3.12499999999994,100.,8.54500000000009));
#1614=CARTESIAN_POINT('',(-3.12499999999994,100.,8.54500000000009));
#1615=CARTESIAN_POINT('',(-4.57999999999993,100.,10.0000000000001));
#1616=CARTESIAN_POINT('',(-4.57999999999993,100.,10.0000000000001));
#1617=CARTESIAN_POINT('',(-9.49999999999999,100.,10.0000000000001));
#1618=CARTESIAN_POINT('',(-4.58,100.,-9.99999999999997));
#1619=CARTESIAN_POINT('',(-4.58,100.,-9.99999999999997));
#1620=CARTESIAN_POINT('',(-3.125,100.,-8.54499999999999));
#1621=CARTESIAN_POINT('',(-3.125,100.,-8.54499999999999));
#1622=CARTESIAN_POINT('',(-3.12499999999999,100.,-6.16555915910206));
#1623=CARTESIAN_POINT('',(-3.12499999999999,100.,-4.18566017177973));
#1624=CARTESIAN_POINT('',(-2.25944084089789,100.,-5.29999999999997));
#1625=CARTESIAN_POINT('',(-0.164555377503992,100.,-3.20511453660609));
#1626=CARTESIAN_POINT('',(2.25944084089789,100.,-5.29999999999997));
#1627=CARTESIAN_POINT('',(-0.105000000000002,100.,-5.29999999999997));
#1628=CARTESIAN_POINT('',(3.125,100.,-6.16555915910207));
#1629=CARTESIAN_POINT('',(0.307385463393892,100.,-3.34794462249599));
#1630=CARTESIAN_POINT('',(3.125,100.,-8.54499999999999));
#1631=CARTESIAN_POINT('',(3.125,100.,-8.54499999999999));
#1632=CARTESIAN_POINT('',(4.58,100.,-9.99999999999997));
#1633=CARTESIAN_POINT('',(4.58,100.,-9.99999999999997));
#1634=CARTESIAN_POINT('',(9.5,100.,-9.99999999999997));
#1635=CARTESIAN_POINT('',(2.6,100.,3.99271764748836E-14));
#1636=CARTESIAN_POINT('Origin',(1.37803472028815E-44,100.,4.02455846426619E-14));
#1637=CARTESIAN_POINT('Origin',(5.15000000000001,114.,6.03406742025243E-8));
#1638=CARTESIAN_POINT('',(5.24999999999999,114.,-3.44999993965933));
#1639=CARTESIAN_POINT('Origin',(5.25,114.,6.03406740248886E-8));
#1640=CARTESIAN_POINT('',(5.04999999999999,114.,-3.24999993965933));
#1641=CARTESIAN_POINT('',(5.15,114.,-3.34999993965933));
#1642=CARTESIAN_POINT('Origin',(5.05,114.,6.034067438016E-8));
#1643=CARTESIAN_POINT('Origin',(5.24999999999998,106.,-9.66999999999997));
#1644=CARTESIAN_POINT('',(5.25000000000001,122.5,4.00000000000006));
#1645=CARTESIAN_POINT('',(5.25000000000002,116.5,10.0000000000001));
#1646=CARTESIAN_POINT('Origin',(5.25,116.5,4.00000000000006));
#1647=CARTESIAN_POINT('',(5.24999999999999,122.5,-3.99999999999996));
#1648=CARTESIAN_POINT('',(5.24999999999999,122.5,-4.83499999999996));
#1649=CARTESIAN_POINT('',(5.24999999999998,116.5,-9.99999999999996));
#1650=CARTESIAN_POINT('Origin',(5.24999999999998,116.5,-3.99999999999996));
#1651=CARTESIAN_POINT('',(5.24999999999998,106.,-9.99999999999997));
#1652=CARTESIAN_POINT('',(5.24999999999998,103.,-9.99999999999997));
#1653=CARTESIAN_POINT('',(5.25000000000002,106.,10.0000000000001));
#1654=CARTESIAN_POINT('',(5.24999999999999,106.,-4.83499999999997));
#1655=CARTESIAN_POINT('',(5.25000000000002,103.,10.0000000000001));
#1656=CARTESIAN_POINT('Origin',(-5.15000000000001,114.,6.03406742025243E-8));
#1657=CARTESIAN_POINT('',(-5.24999999999999,114.,-3.44999993965933));
#1658=CARTESIAN_POINT('Origin',(-5.25,114.,6.03406740248886E-8));
#1659=CARTESIAN_POINT('',(-5.04999999999999,114.,-3.24999993965933));
#1660=CARTESIAN_POINT('',(-5.15,114.,-3.34999993965933));
#1661=CARTESIAN_POINT('Origin',(-5.05,114.,6.034067438016E-8));
#1662=CARTESIAN_POINT('Origin',(-5.24999999999998,106.,-9.66999999999997));
#1663=CARTESIAN_POINT('',(-5.24999999999999,122.5,-3.99999999999996));
#1664=CARTESIAN_POINT('',(-5.24999999999998,116.5,-9.99999999999996));
#1665=CARTESIAN_POINT('Origin',(-5.24999999999998,116.5,-3.99999999999996));
#1666=CARTESIAN_POINT('',(-5.25000000000001,122.5,4.00000000000006));
#1667=CARTESIAN_POINT('',(-5.24999999999999,122.5,-4.83499999999996));
#1668=CARTESIAN_POINT('',(-5.25000000000002,116.5,10.0000000000001));
#1669=CARTESIAN_POINT('Origin',(-5.24999999999998,116.5,4.00000000000006));
#1670=CARTESIAN_POINT('',(-5.25000000000002,106.,10.0000000000001));
#1671=CARTESIAN_POINT('',(-5.25000000000002,103.,10.0000000000001));
#1672=CARTESIAN_POINT('',(-5.24999999999998,106.,-9.99999999999997));
#1673=CARTESIAN_POINT('',(-5.24999999999999,106.,-4.83499999999997));
#1674=CARTESIAN_POINT('',(-5.24999999999998,103.,-9.99999999999997));
#1675=CARTESIAN_POINT('Origin',(-5.05,114.,6.03406742349932E-8));
#1676=CARTESIAN_POINT('',(-5.05,114.,2.35000006034067));
#1677=CARTESIAN_POINT('Origin',(-5.05,114.,6.03406747922151E-8));
#1678=CARTESIAN_POINT('Origin',(5.05,114.,6.03406742349932E-8));
#1679=CARTESIAN_POINT('',(5.04999999999999,114.,2.60000006034068));
#1680=CARTESIAN_POINT('Origin',(5.05,114.,6.034067438016E-8));
#1681=CARTESIAN_POINT('Origin',(-10.,114.,6.03406760955204E-8));
#1682=CARTESIAN_POINT('',(-10.,114.,2.35000006034068));
#1683=CARTESIAN_POINT('Origin',(2.22044604925031E-15,106.,4.46864767411626E-14));
#1684=CARTESIAN_POINT('',(4.5800000000001,106.,10.0000000000001));
#1685=CARTESIAN_POINT('',(2.29000000000006,106.,10.0000000000001));
#1686=CARTESIAN_POINT('',(4.58,106.,-9.99999999999997));
#1687=CARTESIAN_POINT('',(4.75,106.,-9.99999999999997));
#1688=CARTESIAN_POINT('',(3.125,106.,-8.54499999999999));
#1689=CARTESIAN_POINT('',(4.58,106.,-9.99999999999997));
#1690=CARTESIAN_POINT('',(3.125,106.,-6.16555915910207));
#1691=CARTESIAN_POINT('',(3.125,106.,-8.54499999999999));
#1692=CARTESIAN_POINT('',(2.25944084089789,106.,-5.29999999999997));
#1693=CARTESIAN_POINT('',(0.307385463393891,106.,-3.34794462249599));
#1694=CARTESIAN_POINT('',(-2.25944084089789,106.,-5.29999999999996));
#1695=CARTESIAN_POINT('',(-0.105000000000002,106.,-5.29999999999997));
#1696=CARTESIAN_POINT('',(-3.12499999999999,106.,-6.16555915910206));
#1697=CARTESIAN_POINT('',(-0.164555377503992,106.,-3.20511453660609));
#1698=CARTESIAN_POINT('',(-3.125,106.,-8.54499999999998));
#1699=CARTESIAN_POINT('',(-3.12499999999999,106.,-4.18566017177973));
#1700=CARTESIAN_POINT('',(-4.58,106.,-9.99999999999997));
#1701=CARTESIAN_POINT('',(-3.125,106.,-8.54499999999998));
#1702=CARTESIAN_POINT('',(-2.29,106.,-9.99999999999997));
#1703=CARTESIAN_POINT('',(-4.57999999999993,106.,10.0000000000001));
#1704=CARTESIAN_POINT('',(-4.74999999999999,106.,10.0000000000001));
#1705=CARTESIAN_POINT('',(-3.12499999999994,106.,8.54500000000009));
#1706=CARTESIAN_POINT('',(-4.57999999999993,106.,10.0000000000001));
#1707=CARTESIAN_POINT('',(-3.12499999999995,106.,6.16555915910217));
#1708=CARTESIAN_POINT('',(-3.12499999999994,106.,8.54500000000009));
#1709=CARTESIAN_POINT('',(-2.25944084089785,106.,5.30000000000006));
#1710=CARTESIAN_POINT('',(-0.307385463393853,106.,3.34794462249606));
#1711=CARTESIAN_POINT('',(2.25944084089793,106.,5.30000000000003));
#1712=CARTESIAN_POINT('',(0.10500000000004,106.,5.30000000000005));
#1713=CARTESIAN_POINT('',(3.12500000000005,106.,6.16555915910214));
#1714=CARTESIAN_POINT('',(0.164555377504017,106.,3.20511453660617));
#1715=CARTESIAN_POINT('',(3.12500000000006,106.,8.54500000000005));
#1716=CARTESIAN_POINT('',(3.12500000000004,106.,4.18566017177982));
#1717=CARTESIAN_POINT('',(3.12500000000006,106.,8.54500000000005));
#1718=CARTESIAN_POINT('',(4.5,106.,4.32114107808379E-14));
#1719=CARTESIAN_POINT('Origin',(1.37803472028815E-44,106.,4.26603197212216E-14));
#1720=CARTESIAN_POINT('Origin',(-8.3125,116.5,4.00000000000006));
#1721=CARTESIAN_POINT('',(-8.31249999999999,116.5,10.0000000000001));
#1722=CARTESIAN_POINT('',(-8.3125,122.5,4.00000000000006));
#1723=CARTESIAN_POINT('Origin',(8.3125,116.5,-3.99999999999996));
#1724=CARTESIAN_POINT('',(-5.8525,122.5,-3.99999999999996));
#1725=CARTESIAN_POINT('',(-5.8525,116.5,-9.99999999999996));
#1726=CARTESIAN_POINT('Origin',(-8.3125,116.5,4.00000000000006));
#1727=CARTESIAN_POINT('',(5.85250000000005,122.5,4.00000000000006));
#1728=CARTESIAN_POINT('',(5.85250000000006,116.5,10.0000000000001));
#1729=CARTESIAN_POINT('Origin',(8.3125,116.5,-3.99999999999996));
#1730=CARTESIAN_POINT('',(8.3125,116.5,-9.99999999999996));
#1731=CARTESIAN_POINT('',(8.3125,122.5,-3.99999999999996));
#1732=CARTESIAN_POINT('Origin',(-9.49999999999999,100.,10.0000000000001));
#1733=CARTESIAN_POINT('',(-4.57999999999993,100.,10.0000000000001));
#1734=CARTESIAN_POINT('Origin',(0.21000000000004,100.,5.30000000000005));
#1735=CARTESIAN_POINT('',(2.25944084089793,100.,5.30000000000003));
#1736=CARTESIAN_POINT('',(-2.25944084089785,100.,5.30000000000006));
#1737=CARTESIAN_POINT('Origin',(1.37803472028815E-44,104.4,4.2016390366939E-14));
#1738=CARTESIAN_POINT('',(4.5,104.4,4.25674814265554E-14));
#1739=CARTESIAN_POINT('Origin',(1.37803472028815E-44,104.4,4.2016390366939E-14));
#1740=CARTESIAN_POINT('',(3.6,104.4,4.1575517519246E-14));
#1741=CARTESIAN_POINT('Origin',(1.39103504783803E-44,104.4,4.2016390366939E-14));
#1742=CARTESIAN_POINT('Origin',(1.37803472028815E-44,106.,4.26603197212216E-14));
#1743=CARTESIAN_POINT('',(4.5,106.,4.32114107808379E-14));
#1744=CARTESIAN_POINT('Origin',(-0.210000000000003,100.,-5.29999999999997));
#1745=CARTESIAN_POINT('',(-2.25944084089789,100.,-5.29999999999997));
#1746=CARTESIAN_POINT('',(2.25944084089789,100.,-5.29999999999997));
#1747=CARTESIAN_POINT('Origin',(1.38453488406309E-44,103.9,4.18151624437257E-14));
#1748=CARTESIAN_POINT('',(2.6,103.4,4.19323426882907E-14));
#1749=CARTESIAN_POINT('Origin',(1.37803472028815E-44,103.4,4.16139345205124E-14));
#1750=CARTESIAN_POINT('',(3.1,103.9,4.21948029514614E-14));
#1751=CARTESIAN_POINT('Origin',(1.37803472028815E-44,106.,4.26603197212216E-14));
#1752=CARTESIAN_POINT('',(2.6,106.,4.29787278889999E-14));
#1753=CARTESIAN_POINT('Origin',(10.,114.,6.03406783520713E-8));
#1754=CARTESIAN_POINT('',(7.8,114.,4.47500006034068));
#1755=CARTESIAN_POINT('',(10.,114.,4.47500006034068));
#1756=CARTESIAN_POINT('Origin',(7.8,114.,6.03406777969597E-8));
#1757=CARTESIAN_POINT('Origin',(7.8,114.,6.03406780458563E-8));
#1758=CARTESIAN_POINT('',(7.8,114.,2.60000006034068));
#1759=CARTESIAN_POINT('Origin',(7.8,114.,6.03406755162736E-8));
#1760=CARTESIAN_POINT('Origin',(-7.125,122.5,5.1236792586451E-14));
#1761=CARTESIAN_POINT('Origin',(-4.58,100.,-9.99999999999997));
#1762=CARTESIAN_POINT('',(-4.58,100.,-9.99999999999997));
#1763=CARTESIAN_POINT('Origin',(4.58,100.,-9.99999999999997));
#1764=CARTESIAN_POINT('',(4.58,100.,-9.99999999999997));
#1765=CARTESIAN_POINT('',(3.125,100.,-8.54499999999999));
#1766=CARTESIAN_POINT('Origin',(9.5,100.,-9.99999999999997));
#1767=CARTESIAN_POINT('Origin',(4.5800000000001,100.,10.0000000000001));
#1768=CARTESIAN_POINT('',(4.5800000000001,100.,10.0000000000001));
#1769=CARTESIAN_POINT('Origin',(3.12500000000006,100.,8.54500000000004));
#1770=CARTESIAN_POINT('',(3.12500000000006,100.,8.54500000000004));
#1771=CARTESIAN_POINT('Origin',(10.,114.,6.03406760955204E-8));
#1772=CARTESIAN_POINT('',(10.,114.,2.60000006034068));
#1773=CARTESIAN_POINT('Origin',(7.125,122.5,5.1236792586451E-14));
#1774=CARTESIAN_POINT('Origin',(-3.125,100.,-8.54499999999999));
#1775=CARTESIAN_POINT('',(-3.125,100.,-8.54499999999999));
#1776=CARTESIAN_POINT('Origin',(-3.12499999999999,100.,-4.18566017177973));
#1777=CARTESIAN_POINT('',(-3.12499999999999,100.,-6.16555915910206));
#1778=CARTESIAN_POINT('Origin',(-1.84939033455906,100.,-4.88994949366114));
#1779=CARTESIAN_POINT('Origin',(2.13505050633885,100.,-5.17560966544093));
#1780=CARTESIAN_POINT('',(3.125,100.,-6.16555915910207));
#1781=CARTESIAN_POINT('Origin',(3.125,100.,-8.54499999999999));
#1782=CARTESIAN_POINT('Origin',(3.12500000000004,100.,4.18566017177982));
#1783=CARTESIAN_POINT('',(3.12500000000005,100.,6.16555915910213));
#1784=CARTESIAN_POINT('Origin',(1.84939033455909,100.,4.8899494936612));
#1785=CARTESIAN_POINT('Origin',(-2.13505050633879,100.,5.175609665441));
#1786=CARTESIAN_POINT('',(-3.12499999999995,100.,6.16555915910217));
#1787=CARTESIAN_POINT('Origin',(-3.12499999999994,100.,8.54500000000009));
#1788=CARTESIAN_POINT('',(-3.12499999999994,100.,8.54500000000009));
#1789=CARTESIAN_POINT('Origin',(-4.57999999999993,100.,10.0000000000001));
#1790=UNCERTAINTY_MEASURE_WITH_UNIT(LENGTH_MEASURE(0.01),#1794,
'DISTANCE_ACCURACY_VALUE',
'Maximum model space distance between geometric entities at asserted c
onnectivities');
#1791=UNCERTAINTY_MEASURE_WITH_UNIT(LENGTH_MEASURE(0.01),#1794,
'DISTANCE_ACCURACY_VALUE',
'Maximum model space distance between geometric entities at asserted c
onnectivities');
#1792=(
GEOMETRIC_REPRESENTATION_CONTEXT(3)
GLOBAL_UNCERTAINTY_ASSIGNED_CONTEXT((#1790))
GLOBAL_UNIT_ASSIGNED_CONTEXT((#1794,#1796,#1797))
REPRESENTATION_CONTEXT('','3D')
);
#1793=(
GEOMETRIC_REPRESENTATION_CONTEXT(3)
GLOBAL_UNCERTAINTY_ASSIGNED_CONTEXT((#1791))
GLOBAL_UNIT_ASSIGNED_CONTEXT((#1794,#1796,#1797))
REPRESENTATION_CONTEXT('','3D')
);
#1794=(
LENGTH_UNIT()
NAMED_UNIT(*)
SI_UNIT(.MILLI.,.METRE.)
);
#1795=(
LENGTH_UNIT()
NAMED_UNIT(*)
SI_UNIT($,.METRE.)
);
#1796=(
NAMED_UNIT(*)
PLANE_ANGLE_UNIT()
SI_UNIT($,.RADIAN.)
);
#1797=(
NAMED_UNIT(*)
SI_UNIT($,.STERADIAN.)
SOLID_ANGLE_UNIT()
);
#1798=SHAPE_DEFINITION_REPRESENTATION(#1799,#1800);
#1799=PRODUCT_DEFINITION_SHAPE('',$,#1802);
#1800=SHAPE_REPRESENTATION('',(#1079),#1792);
#1801=PRODUCT_DEFINITION_CONTEXT('part definition',#1806,'design');
#1802=PRODUCT_DEFINITION('2026-08-29-11-09-44-999','(Unsaved)',#1803,#1801);
#1803=PRODUCT_DEFINITION_FORMATION('',$,#1808);
#1804=PRODUCT_RELATED_PRODUCT_CATEGORY('(Unsaved)','(Unsaved)',(#1808));
#1805=APPLICATION_PROTOCOL_DEFINITION('international standard',
'automotive_design',2009,#1806);
#1806=APPLICATION_CONTEXT(
'Core Data for Automotive Mechanical Design Process');
#1807=PRODUCT_CONTEXT('part definition',#1806,'mechanical');
#1808=PRODUCT('2026-08-29-11-09-44-999','(Unsaved)',$,(#1807));
#1809=PRESENTATION_STYLE_ASSIGNMENT((#1810));
#1810=SURFACE_STYLE_USAGE(.BOTH.,#1811);
#1811=SURFACE_SIDE_STYLE('',(#1812));
#1812=SURFACE_STYLE_FILL_AREA(#1813);
#1813=FILL_AREA_STYLE('Steel - Satin',(#1814));
#1814=FILL_AREA_STYLE_COLOUR('Steel - Satin',#1815);
#1815=COLOUR_RGB('Steel - Satin',0.627450980392157,0.627450980392157,0.627450980392157);
ENDSEC;
END-ISO-10303-21;
