ISO-10303-21;
HEADER;
/* Generated by software containing ST-Developer
 * from STEP Tools, Inc. (www.steptools.com) 
 */

FILE_DESCRIPTION(
/* description */ (''),
/* implementation_level */ '2;1');

FILE_NAME(
/* name */ 'pulley-mount-insert_v1.0.step',
/* time_stamp */ '2026-08-29T11:09:44-05:00',
/* author */ (''),
/* organization */ (''),
/* preprocessor_version */ 'ST-DEVELOPER v20.1',
/* originating_system */ 'Autodesk Translation Framework v15.8.0.0',
/* authorisation */ '');

FILE_SCHEMA (('AUTOMOTIVE_DESIGN { 1 0 10303 214 3 1 1 }'));
ENDSEC;

DATA;
#10=MECHANICAL_DESIGN_GEOMETRIC_PRESENTATION_REPRESENTATION('',(#13),#249);
#11=SHAPE_REPRESENTATION_RELATIONSHIP('SRR','None',#256,#12);
#12=ADVANCED_BREP_SHAPE_REPRESENTATION('',(#14),#248);
#13=STYLED_ITEM('',(#265),#14);
#14=MANIFOLD_SOLID_BREP('Body1',#149);
#15=FACE_OUTER_BOUND('',#23,.T.);
#16=FACE_OUTER_BOUND('',#24,.T.);
#17=FACE_OUTER_BOUND('',#25,.T.);
#18=FACE_OUTER_BOUND('',#26,.T.);
#19=FACE_OUTER_BOUND('',#27,.T.);
#20=FACE_OUTER_BOUND('',#28,.T.);
#21=FACE_OUTER_BOUND('',#29,.T.);
#22=FACE_OUTER_BOUND('',#30,.T.);
#23=EDGE_LOOP('',(#97,#98,#99,#100,#101,#102));
#24=EDGE_LOOP('',(#103,#104,#105,#106));
#25=EDGE_LOOP('',(#107,#108,#109,#110));
#26=EDGE_LOOP('',(#111,#112,#113,#114));
#27=EDGE_LOOP('',(#115,#116,#117,#118,#119,#120));
#28=EDGE_LOOP('',(#121,#122,#123,#124));
#29=EDGE_LOOP('',(#125,#126,#127,#128));
#30=EDGE_LOOP('',(#129,#130,#131,#132));
#31=LINE('',#211,#49);
#32=LINE('',#213,#50);
#33=LINE('',#215,#51);
#34=LINE('',#217,#52);
#35=LINE('',#219,#53);
#36=LINE('',#220,#54);
#37=LINE('',#223,#55);
#38=LINE('',#225,#56);
#39=LINE('',#226,#57);
#40=LINE('',#229,#58);
#41=LINE('',#230,#59);
#42=LINE('',#233,#60);
#43=LINE('',#234,#61);
#44=LINE('',#238,#62);
#45=LINE('',#239,#63);
#46=LINE('',#240,#64);
#47=LINE('',#242,#65);
#48=LINE('',#243,#66);
#49=VECTOR('',#175,10.);
#50=VECTOR('',#176,10.);
#51=VECTOR('',#177,10.);
#52=VECTOR('',#178,10.);
#53=VECTOR('',#179,10.);
#54=VECTOR('',#180,10.);
#55=VECTOR('',#183,10.);
#56=VECTOR('',#184,10.);
#57=VECTOR('',#185,10.);
#58=VECTOR('',#188,10.);
#59=VECTOR('',#189,10.);
#60=VECTOR('',#192,10.);
#61=VECTOR('',#193,10.);
#62=VECTOR('',#196,10.);
#63=VECTOR('',#197,10.);
#64=VECTOR('',#198,10.);
#65=VECTOR('',#201,10.);
#66=VECTOR('',#202,10.);
#67=VERTEX_POINT('',#209);
#68=VERTEX_POINT('',#210);
#69=VERTEX_POINT('',#212);
#70=VERTEX_POINT('',#214);
#71=VERTEX_POINT('',#216);
#72=VERTEX_POINT('',#218);
#73=VERTEX_POINT('',#222);
#74=VERTEX_POINT('',#224);
#75=VERTEX_POINT('',#228);
#76=VERTEX_POINT('',#232);
#77=VERTEX_POINT('',#236);
#78=VERTEX_POINT('',#237);
#79=EDGE_CURVE('',#67,#68,#31,.T.);
#80=EDGE_CURVE('',#67,#69,#32,.T.);
#81=EDGE_CURVE('',#69,#70,#33,.T.);
#82=EDGE_CURVE('',#70,#71,#34,.T.);
#83=EDGE_CURVE('',#71,#72,#35,.T.);
#84=EDGE_CURVE('',#72,#68,#36,.T.);
#85=EDGE_CURVE('',#73,#68,#37,.T.);
#86=EDGE_CURVE('',#74,#73,#38,.F.);
#87=EDGE_CURVE('',#74,#67,#39,.T.);
#88=EDGE_CURVE('',#75,#74,#40,.F.);
#89=EDGE_CURVE('',#75,#69,#41,.T.);
#90=EDGE_CURVE('',#76,#72,#42,.T.);
#91=EDGE_CURVE('',#73,#76,#43,.F.);
#92=EDGE_CURVE('',#77,#78,#44,.F.);
#93=EDGE_CURVE('',#78,#75,#45,.F.);
#94=EDGE_CURVE('',#76,#77,#46,.F.);
#95=EDGE_CURVE('',#78,#70,#47,.T.);
#96=EDGE_CURVE('',#77,#71,#48,.T.);
#97=ORIENTED_EDGE('',*,*,#79,.F.);
#98=ORIENTED_EDGE('',*,*,#80,.T.);
#99=ORIENTED_EDGE('',*,*,#81,.T.);
#100=ORIENTED_EDGE('',*,*,#82,.T.);
#101=ORIENTED_EDGE('',*,*,#83,.T.);
#102=ORIENTED_EDGE('',*,*,#84,.T.);
#103=ORIENTED_EDGE('',*,*,#79,.T.);
#104=ORIENTED_EDGE('',*,*,#85,.F.);
#105=ORIENTED_EDGE('',*,*,#86,.F.);
#106=ORIENTED_EDGE('',*,*,#87,.T.);
#107=ORIENTED_EDGE('',*,*,#80,.F.);
#108=ORIENTED_EDGE('',*,*,#87,.F.);
#109=ORIENTED_EDGE('',*,*,#88,.F.);
#110=ORIENTED_EDGE('',*,*,#89,.T.);
#111=ORIENTED_EDGE('',*,*,#84,.F.);
#112=ORIENTED_EDGE('',*,*,#90,.F.);
#113=ORIENTED_EDGE('',*,*,#91,.F.);
#114=ORIENTED_EDGE('',*,*,#85,.T.);
#115=ORIENTED_EDGE('',*,*,#92,.T.);
#116=ORIENTED_EDGE('',*,*,#93,.T.);
#117=ORIENTED_EDGE('',*,*,#88,.T.);
#118=ORIENTED_EDGE('',*,*,#86,.T.);
#119=ORIENTED_EDGE('',*,*,#91,.T.);
#120=ORIENTED_EDGE('',*,*,#94,.T.);
#121=ORIENTED_EDGE('',*,*,#95,.F.);
#122=ORIENTED_EDGE('',*,*,#92,.F.);
#123=ORIENTED_EDGE('',*,*,#96,.T.);
#124=ORIENTED_EDGE('',*,*,#82,.F.);
#125=ORIENTED_EDGE('',*,*,#96,.F.);
#126=ORIENTED_EDGE('',*,*,#94,.F.);
#127=ORIENTED_EDGE('',*,*,#90,.T.);
#128=ORIENTED_EDGE('',*,*,#83,.F.);
#129=ORIENTED_EDGE('',*,*,#89,.F.);
#130=ORIENTED_EDGE('',*,*,#93,.F.);
#131=ORIENTED_EDGE('',*,*,#95,.T.);
#132=ORIENTED_EDGE('',*,*,#81,.F.);
#133=PLANE('',#163);
#134=PLANE('',#164);
#135=PLANE('',#165);
#136=PLANE('',#166);
#137=PLANE('',#167);
#138=PLANE('',#168);
#139=PLANE('',#169);
#140=PLANE('',#170);
#141=ADVANCED_FACE('',(#15),#133,.T.);
#142=ADVANCED_FACE('',(#16),#134,.T.);
#143=ADVANCED_FACE('',(#17),#135,.T.);
#144=ADVANCED_FACE('',(#18),#136,.T.);
#145=ADVANCED_FACE('',(#19),#137,.T.);
#146=ADVANCED_FACE('',(#20),#138,.T.);
#147=ADVANCED_FACE('',(#21),#139,.T.);
#148=ADVANCED_FACE('',(#22),#140,.T.);
#149=CLOSED_SHELL('',(#141,#142,#143,#144,#145,#146,#147,#148));
#150=DERIVED_UNIT_ELEMENT(#152,1.);
#151=DERIVED_UNIT_ELEMENT(#251,-3.);
#152=(
MASS_UNIT()
NAMED_UNIT(*)
SI_UNIT(.KILO.,.GRAM.)
);
#153=DERIVED_UNIT((#150,#151));
#154=MEASURE_REPRESENTATION_ITEM('density measure',
POSITIVE_RATIO_MEASURE(7850.),#153);
#155=PROPERTY_DEFINITION_REPRESENTATION(#160,#157);
#156=PROPERTY_DEFINITION_REPRESENTATION(#161,#158);
#157=REPRESENTATION('material name',(#159),#248);
#158=REPRESENTATION('density',(#154),#248);
#159=DESCRIPTIVE_REPRESENTATION_ITEM('Steel','Steel');
#160=PROPERTY_DEFINITION('material property','material name',#258);
#161=PROPERTY_DEFINITION('material property','density of part',#258);
#162=AXIS2_PLACEMENT_3D('',#207,#171,#172);
#163=AXIS2_PLACEMENT_3D('',#208,#173,#174);
#164=AXIS2_PLACEMENT_3D('',#221,#181,#182);
#165=AXIS2_PLACEMENT_3D('',#227,#186,#187);
#166=AXIS2_PLACEMENT_3D('',#231,#190,#191);
#167=AXIS2_PLACEMENT_3D('',#235,#194,#195);
#168=AXIS2_PLACEMENT_3D('',#241,#199,#200);
#169=AXIS2_PLACEMENT_3D('',#244,#203,#204);
#170=AXIS2_PLACEMENT_3D('',#245,#205,#206);
#171=DIRECTION('axis',(0.,0.,1.));
#172=DIRECTION('refdir',(1.,0.,0.));
#173=DIRECTION('center_axis',(0.,-1.,-8.37779525808562E-33));
#174=DIRECTION('ref_axis',(0.,8.37779525808562E-33,-1.));
#175=DIRECTION('',(1.,-3.53747396639029E-48,4.22244022134127E-16));
#176=DIRECTION('',(-0.707106781186551,5.92399583838481E-33,-0.707106781186544));
#177=DIRECTION('',(0.,8.37779525808562E-33,-1.));
#178=DIRECTION('',(1.,0.,0.));
#179=DIRECTION('',(0.,-8.37779525808562E-33,1.));
#180=DIRECTION('',(-0.707106781186551,-5.92399583838481E-33,0.707106781186544));
#181=DIRECTION('center_axis',(-4.22244022134127E-16,-8.37779525808562E-33,
1.));
#182=DIRECTION('ref_axis',(1.,-3.53747396639029E-48,4.22244022134127E-16));
#183=DIRECTION('',(0.,-1.,-8.37779525808562E-33));
#184=DIRECTION('',(-1.,3.53747396639029E-48,-4.22244022134127E-16));
#185=DIRECTION('',(0.,-1.,-8.37779525808562E-33));
#186=DIRECTION('center_axis',(-0.707106781186544,-5.92399583838487E-33,
0.707106781186551));
#187=DIRECTION('ref_axis',(0.707106781186551,-5.92399583838481E-33,0.707106781186544));
#188=DIRECTION('',(-0.707106781186551,5.92399583838481E-33,-0.707106781186544));
#189=DIRECTION('',(0.,-1.,-8.37779525808562E-33));
#190=DIRECTION('center_axis',(0.707106781186544,-5.92399583838487E-33,0.707106781186551));
#191=DIRECTION('ref_axis',(0.707106781186551,5.92399583838481E-33,-0.707106781186544));
#192=DIRECTION('',(0.,-1.,-8.37779525808562E-33));
#193=DIRECTION('',(-0.707106781186551,-5.92399583838481E-33,0.707106781186544));
#194=DIRECTION('center_axis',(0.,1.,8.37779525808562E-33));
#195=DIRECTION('ref_axis',(0.,-8.37779525808562E-33,1.));
#196=DIRECTION('',(1.,0.,0.));
#197=DIRECTION('',(0.,8.37779525808562E-33,-1.));
#198=DIRECTION('',(0.,-8.37779525808562E-33,1.));
#199=DIRECTION('center_axis',(0.,8.37779525808562E-33,-1.));
#200=DIRECTION('ref_axis',(-1.,0.,0.));
#201=DIRECTION('',(0.,-1.,-8.37779525808562E-33));
#202=DIRECTION('',(0.,-1.,-8.37779525808562E-33));
#203=DIRECTION('center_axis',(1.,0.,0.));
#204=DIRECTION('ref_axis',(0.,8.37779525808562E-33,-1.));
#205=DIRECTION('center_axis',(-1.,0.,0.));
#206=DIRECTION('ref_axis',(0.,-8.37779525808562E-33,1.));
#207=CARTESIAN_POINT('',(0.,0.,0.));
#208=CARTESIAN_POINT('Origin',(4.51028103753948E-16,-3.50000000000002,-1.04083408558616E-16));
#209=CARTESIAN_POINT('',(-2.79791847198291,-3.50000000000002,-4.00000000000001));
#210=CARTESIAN_POINT('',(2.79791847198291,-3.50000000000002,-4.00000000000001));
#211=CARTESIAN_POINT('',(0.105000000000002,-3.50000000000002,-4.00000000000001));
#212=CARTESIAN_POINT('',(-5.4,-3.50000000000002,-6.60208152801707));
#213=CARTESIAN_POINT('',(-2.41412427893639,-3.50000000000002,-3.61620580695349));
#214=CARTESIAN_POINT('',(-5.4,-3.50000000000002,-8.10000000000001));
#215=CARTESIAN_POINT('',(-5.4,-3.50000000000002,-4.10000000000001));
#216=CARTESIAN_POINT('',(5.4,-3.50000000000002,-8.10000000000001));
#217=CARTESIAN_POINT('',(2.75,-3.50000000000002,-8.10000000000001));
#218=CARTESIAN_POINT('',(5.4,-3.50000000000002,-6.60208152801707));
#219=CARTESIAN_POINT('',(5.4,-3.50000000000002,-3.28033008588988));
#220=CARTESIAN_POINT('',(1.0837941930465,-3.50000000000002,-2.28587572106361));
#221=CARTESIAN_POINT('Origin',(0.210000000000002,2.49999999999998,-4.00000000000001));
#222=CARTESIAN_POINT('',(2.79791847198291,4.49999999999998,-4.00000000000001));
#223=CARTESIAN_POINT('',(2.79791847198291,2.49999999999998,-4.00000000000001));
#224=CARTESIAN_POINT('',(-2.79791847198291,4.49999999999998,-4.00000000000001));
#225=CARTESIAN_POINT('',(-3.3175,4.49999999999998,-4.00000000000001));
#226=CARTESIAN_POINT('',(-2.79791847198291,2.49999999999998,-4.00000000000001));
#227=CARTESIAN_POINT('Origin',(-5.42928932188135,2.49999999999998,-6.63137084989842));
#228=CARTESIAN_POINT('',(-5.4,4.49999999999998,-6.60208152801707));
#229=CARTESIAN_POINT('',(-4.1253742789364,4.49999999999998,-5.32745580695349));
#230=CARTESIAN_POINT('',(-5.4,2.49999999999998,-6.60208152801707));
#231=CARTESIAN_POINT('Origin',(2.76862915010156,2.49999999999998,-3.97071067811866));
#232=CARTESIAN_POINT('',(5.4,4.49999999999998,-6.60208152801707));
#233=CARTESIAN_POINT('',(5.4,2.49999999999998,-6.60208152801707));
#234=CARTESIAN_POINT('',(-0.627455806953524,4.49999999999998,-0.574625721063608));
#235=CARTESIAN_POINT('Origin',(-6.845,4.49999999999998,2.543104615782E-14));
#236=CARTESIAN_POINT('',(5.4,4.49999999999998,-8.10000000000001));
#237=CARTESIAN_POINT('',(-5.4,4.49999999999998,-8.10000000000001));
#238=CARTESIAN_POINT('',(-0.672500000000001,4.49999999999998,-8.10000000000001));
#239=CARTESIAN_POINT('',(-5.4,4.49999999999998,-4.09999999999999));
#240=CARTESIAN_POINT('',(5.4,4.49999999999998,-3.28033008588987));
#241=CARTESIAN_POINT('Origin',(-3.125,2.49999999999998,-8.10000000000001));
#242=CARTESIAN_POINT('',(-5.4,2.49999999999998,-8.10000000000001));
#243=CARTESIAN_POINT('',(5.4,2.49999999999998,-8.10000000000001));
#244=CARTESIAN_POINT('Origin',(5.4,2.49999999999998,-6.56066017177976));
#245=CARTESIAN_POINT('Origin',(-5.4,2.49999999999998,-8.20000000000001));
#246=UNCERTAINTY_MEASURE_WITH_UNIT(LENGTH_MEASURE(0.01),#250,
'DISTANCE_ACCURACY_VALUE',
'Maximum model space distance between geometric entities at asserted c
onnectivities');
#247=UNCERTAINTY_MEASURE_WITH_UNIT(LENGTH_MEASURE(0.01),#250,
'DISTANCE_ACCURACY_VALUE',
'Maximum model space distance between geometric entities at asserted c
onnectivities');
#248=(
GEOMETRIC_REPRESENTATION_CONTEXT(3)
GLOBAL_UNCERTAINTY_ASSIGNED_CONTEXT((#246))
GLOBAL_UNIT_ASSIGNED_CONTEXT((#250,#252,#253))
REPRESENTATION_CONTEXT('','3D')
);
#249=(
GEOMETRIC_REPRESENTATION_CONTEXT(3)
GLOBAL_UNCERTAINTY_ASSIGNED_CONTEXT((#247))
GLOBAL_UNIT_ASSIGNED_CONTEXT((#250,#252,#253))
REPRESENTATION_CONTEXT('','3D')
);
#250=(
LENGTH_UNIT()
NAMED_UNIT(*)
SI_UNIT(.MILLI.,.METRE.)
);
#251=(
LENGTH_UNIT()
NAMED_UNIT(*)
SI_UNIT($,.METRE.)
);
#252=(
NAMED_UNIT(*)
PLANE_ANGLE_UNIT()
SI_UNIT($,.RADIAN.)
);
#253=(
NAMED_UNIT(*)
SI_UNIT($,.STERADIAN.)
SOLID_ANGLE_UNIT()
);
#254=SHAPE_DEFINITION_REPRESENTATION(#255,#256);
#255=PRODUCT_DEFINITION_SHAPE('',$,#258);
#256=SHAPE_REPRESENTATION('',(#162),#248);
#257=PRODUCT_DEFINITION_CONTEXT('part definition',#262,'design');
#258=PRODUCT_DEFINITION('2026-08-29-11-09-44-338','(Unsaved)',#259,#257);
#259=PRODUCT_DEFINITION_FORMATION('',$,#264);
#260=PRODUCT_RELATED_PRODUCT_CATEGORY('(Unsaved)','(Unsaved)',(#264));
#261=APPLICATION_PROTOCOL_DEFINITION('international standard',
'automotive_design',2009,#262);
#262=APPLICATION_CONTEXT(
'Core Data for Automotive Mechanical Design Process');
#263=PRODUCT_CONTEXT('part definition',#262,'mechanical');
#264=PRODUCT('2026-08-29-11-09-44-338','(Unsaved)',$,(#263));
#265=PRESENTATION_STYLE_ASSIGNMENT((#266));
#266=SURFACE_STYLE_USAGE(.BOTH.,#267);
#267=SURFACE_SIDE_STYLE('',(#268));
#268=SURFACE_STYLE_FILL_AREA(#269);
#269=FILL_AREA_STYLE('Steel - Satin',(#270));
#270=FILL_AREA_STYLE_COLOUR('Steel - Satin',#271);
#271=COLOUR_RGB('Steel - Satin',0.627450980392157,0.627450980392157,0.627450980392157);
ENDSEC;
END-ISO-10303-21;
