ISO-10303-21;
HEADER;
/* Generated by software containing ST-Developer
 * from STEP Tools, Inc. (www.steptools.com) 
 */

FILE_DESCRIPTION(
/* description */ (''),
/* implementation_level */ '2;1');

FILE_NAME(
/* name */ 'rail-end-cap_v1.0.step',
/* time_stamp */ '2026-08-29T11:09:45-05:00',
/* author */ (''),
/* organization */ (''),
/* preprocessor_version */ 'ST-DEVELOPER v20.1',
/* originating_system */ 'Autodesk Translation Framework v15.8.0.0',
/* authorisation */ '');

FILE_SCHEMA (('AUTOMOTIVE_DESIGN { 1 0 10303 214 3 1 1 }'));
ENDSEC;

DATA;
#10=MECHANICAL_DESIGN_GEOMETRIC_PRESENTATION_REPRESENTATION('',(#13),#432);
#11=SHAPE_REPRESENTATION_RELATIONSHIP('SRR','None',#439,#12);
#12=ADVANCED_BREP_SHAPE_REPRESENTATION('',(#14),#431);
#13=STYLED_ITEM('',(#448),#14);
#14=MANIFOLD_SOLID_BREP('Body1',#245);
#15=FACE_BOUND('',#48,.T.);
#16=FACE_BOUND('',#52,.T.);
#17=FACE_BOUND('',#61,.T.);
#18=PLANE('',#264);
#19=PLANE('',#269);
#20=PLANE('',#270);
#21=PLANE('',#276);
#22=PLANE('',#279);
#23=PLANE('',#284);
#24=PLANE('',#285);
#25=CYLINDRICAL_SURFACE('',#262,2.5);
#26=CYLINDRICAL_SURFACE('',#266,0.5);
#27=CYLINDRICAL_SURFACE('',#274,0.5);
#28=CYLINDRICAL_SURFACE('',#277,0.5);
#29=CYLINDRICAL_SURFACE('',#280,0.5);
#30=CYLINDRICAL_SURFACE('',#282,4.75);
#31=FACE_OUTER_BOUND('',#45,.T.);
#32=FACE_OUTER_BOUND('',#46,.T.);
#33=FACE_OUTER_BOUND('',#47,.T.);
#34=FACE_OUTER_BOUND('',#49,.T.);
#35=FACE_OUTER_BOUND('',#50,.T.);
#36=FACE_OUTER_BOUND('',#51,.T.);
#37=FACE_OUTER_BOUND('',#53,.T.);
#38=FACE_OUTER_BOUND('',#54,.T.);
#39=FACE_OUTER_BOUND('',#55,.T.);
#40=FACE_OUTER_BOUND('',#56,.T.);
#41=FACE_OUTER_BOUND('',#57,.T.);
#42=FACE_OUTER_BOUND('',#58,.T.);
#43=FACE_OUTER_BOUND('',#59,.T.);
#44=FACE_OUTER_BOUND('',#60,.T.);
#45=EDGE_LOOP('',(#166,#167,#168,#169));
#46=EDGE_LOOP('',(#170,#171,#172,#173));
#47=EDGE_LOOP('',(#174));
#48=EDGE_LOOP('',(#175));
#49=EDGE_LOOP('',(#176,#177,#178,#179));
#50=EDGE_LOOP('',(#180,#181,#182,#183));
#51=EDGE_LOOP('',(#184,#185,#186,#187,#188,#189,#190,#191));
#52=EDGE_LOOP('',(#192));
#53=EDGE_LOOP('',(#193,#194,#195,#196));
#54=EDGE_LOOP('',(#197,#198,#199,#200));
#55=EDGE_LOOP('',(#201,#202,#203,#204));
#56=EDGE_LOOP('',(#205,#206,#207,#208));
#57=EDGE_LOOP('',(#209,#210,#211,#212));
#58=EDGE_LOOP('',(#213,#214,#215,#216));
#59=EDGE_LOOP('',(#217,#218,#219,#220));
#60=EDGE_LOOP('',(#221,#222,#223,#224,#225,#226,#227,#228));
#61=EDGE_LOOP('',(#229));
#62=LINE('',#366,#81);
#63=LINE('',#370,#82);
#64=LINE('',#380,#83);
#65=LINE('',#383,#84);
#66=LINE('',#386,#85);
#67=LINE('',#388,#86);
#68=LINE('',#389,#87);
#69=LINE('',#392,#88);
#70=LINE('',#396,#89);
#71=LINE('',#400,#90);
#72=LINE('',#405,#91);
#73=LINE('',#408,#92);
#74=LINE('',#409,#93);
#75=LINE('',#413,#94);
#76=LINE('',#416,#95);
#77=LINE('',#417,#96);
#78=LINE('',#421,#97);
#79=LINE('',#425,#98);
#80=LINE('',#427,#99);
#81=VECTOR('',#292,2.8);
#82=VECTOR('',#297,2.5);
#83=VECTOR('',#308,10.);
#84=VECTOR('',#311,10.);
#85=VECTOR('',#314,10.);
#86=VECTOR('',#315,10.);
#87=VECTOR('',#316,10.);
#88=VECTOR('',#319,10.);
#89=VECTOR('',#322,10.);
#90=VECTOR('',#325,10.);
#91=VECTOR('',#332,10.);
#92=VECTOR('',#335,10.);
#93=VECTOR('',#336,10.);
#94=VECTOR('',#341,10.);
#95=VECTOR('',#344,10.);
#96=VECTOR('',#345,10.);
#97=VECTOR('',#350,10.);
#98=VECTOR('',#355,4.75);
#99=VECTOR('',#358,10.);
#100=CIRCLE('',#260,3.1);
#101=CIRCLE('',#261,2.5);
#102=CIRCLE('',#263,2.5);
#103=CIRCLE('',#265,4.75);
#104=CIRCLE('',#267,0.5);
#105=CIRCLE('',#268,0.5);
#106=CIRCLE('',#271,0.5);
#107=CIRCLE('',#272,0.5);
#108=CIRCLE('',#273,0.5);
#109=CIRCLE('',#275,0.5);
#110=CIRCLE('',#278,0.5);
#111=CIRCLE('',#281,0.5);
#112=CIRCLE('',#283,4.75);
#113=VERTEX_POINT('',#363);
#114=VERTEX_POINT('',#365);
#115=VERTEX_POINT('',#369);
#116=VERTEX_POINT('',#373);
#117=VERTEX_POINT('',#376);
#118=VERTEX_POINT('',#377);
#119=VERTEX_POINT('',#379);
#120=VERTEX_POINT('',#381);
#121=VERTEX_POINT('',#385);
#122=VERTEX_POINT('',#387);
#123=VERTEX_POINT('',#391);
#124=VERTEX_POINT('',#393);
#125=VERTEX_POINT('',#395);
#126=VERTEX_POINT('',#397);
#127=VERTEX_POINT('',#399);
#128=VERTEX_POINT('',#403);
#129=VERTEX_POINT('',#407);
#130=VERTEX_POINT('',#411);
#131=VERTEX_POINT('',#415);
#132=VERTEX_POINT('',#419);
#133=VERTEX_POINT('',#423);
#134=EDGE_CURVE('',#113,#113,#100,.T.);
#135=EDGE_CURVE('',#113,#114,#62,.T.);
#136=EDGE_CURVE('',#114,#114,#101,.T.);
#137=EDGE_CURVE('',#114,#115,#63,.T.);
#138=EDGE_CURVE('',#115,#115,#102,.T.);
#139=EDGE_CURVE('',#116,#116,#103,.F.);
#140=EDGE_CURVE('',#117,#118,#104,.T.);
#141=EDGE_CURVE('',#118,#119,#64,.T.);
#142=EDGE_CURVE('',#119,#120,#105,.T.);
#143=EDGE_CURVE('',#120,#117,#65,.T.);
#144=EDGE_CURVE('',#120,#121,#66,.T.);
#145=EDGE_CURVE('',#122,#121,#67,.T.);
#146=EDGE_CURVE('',#117,#122,#68,.T.);
#147=EDGE_CURVE('',#123,#119,#69,.T.);
#148=EDGE_CURVE('',#124,#123,#106,.T.);
#149=EDGE_CURVE('',#125,#124,#70,.T.);
#150=EDGE_CURVE('',#126,#125,#107,.T.);
#151=EDGE_CURVE('',#127,#126,#71,.T.);
#152=EDGE_CURVE('',#121,#127,#108,.T.);
#153=EDGE_CURVE('',#128,#122,#109,.T.);
#154=EDGE_CURVE('',#127,#128,#72,.T.);
#155=EDGE_CURVE('',#129,#126,#73,.T.);
#156=EDGE_CURVE('',#128,#129,#74,.T.);
#157=EDGE_CURVE('',#130,#129,#110,.T.);
#158=EDGE_CURVE('',#125,#130,#75,.T.);
#159=EDGE_CURVE('',#131,#124,#76,.T.);
#160=EDGE_CURVE('',#130,#131,#77,.T.);
#161=EDGE_CURVE('',#132,#131,#111,.T.);
#162=EDGE_CURVE('',#123,#132,#78,.T.);
#163=EDGE_CURVE('',#133,#133,#112,.T.);
#164=EDGE_CURVE('',#133,#116,#79,.T.);
#165=EDGE_CURVE('',#132,#118,#80,.T.);
#166=ORIENTED_EDGE('',*,*,#134,.T.);
#167=ORIENTED_EDGE('',*,*,#135,.T.);
#168=ORIENTED_EDGE('',*,*,#136,.T.);
#169=ORIENTED_EDGE('',*,*,#135,.F.);
#170=ORIENTED_EDGE('',*,*,#136,.F.);
#171=ORIENTED_EDGE('',*,*,#137,.T.);
#172=ORIENTED_EDGE('',*,*,#138,.F.);
#173=ORIENTED_EDGE('',*,*,#137,.F.);
#174=ORIENTED_EDGE('',*,*,#139,.T.);
#175=ORIENTED_EDGE('',*,*,#134,.F.);
#176=ORIENTED_EDGE('',*,*,#140,.T.);
#177=ORIENTED_EDGE('',*,*,#141,.T.);
#178=ORIENTED_EDGE('',*,*,#142,.T.);
#179=ORIENTED_EDGE('',*,*,#143,.T.);
#180=ORIENTED_EDGE('',*,*,#143,.F.);
#181=ORIENTED_EDGE('',*,*,#144,.T.);
#182=ORIENTED_EDGE('',*,*,#145,.F.);
#183=ORIENTED_EDGE('',*,*,#146,.F.);
#184=ORIENTED_EDGE('',*,*,#142,.F.);
#185=ORIENTED_EDGE('',*,*,#147,.F.);
#186=ORIENTED_EDGE('',*,*,#148,.F.);
#187=ORIENTED_EDGE('',*,*,#149,.F.);
#188=ORIENTED_EDGE('',*,*,#150,.F.);
#189=ORIENTED_EDGE('',*,*,#151,.F.);
#190=ORIENTED_EDGE('',*,*,#152,.F.);
#191=ORIENTED_EDGE('',*,*,#144,.F.);
#192=ORIENTED_EDGE('',*,*,#138,.T.);
#193=ORIENTED_EDGE('',*,*,#153,.T.);
#194=ORIENTED_EDGE('',*,*,#145,.T.);
#195=ORIENTED_EDGE('',*,*,#152,.T.);
#196=ORIENTED_EDGE('',*,*,#154,.T.);
#197=ORIENTED_EDGE('',*,*,#154,.F.);
#198=ORIENTED_EDGE('',*,*,#151,.T.);
#199=ORIENTED_EDGE('',*,*,#155,.F.);
#200=ORIENTED_EDGE('',*,*,#156,.F.);
#201=ORIENTED_EDGE('',*,*,#157,.T.);
#202=ORIENTED_EDGE('',*,*,#155,.T.);
#203=ORIENTED_EDGE('',*,*,#150,.T.);
#204=ORIENTED_EDGE('',*,*,#158,.T.);
#205=ORIENTED_EDGE('',*,*,#158,.F.);
#206=ORIENTED_EDGE('',*,*,#149,.T.);
#207=ORIENTED_EDGE('',*,*,#159,.F.);
#208=ORIENTED_EDGE('',*,*,#160,.F.);
#209=ORIENTED_EDGE('',*,*,#161,.T.);
#210=ORIENTED_EDGE('',*,*,#159,.T.);
#211=ORIENTED_EDGE('',*,*,#148,.T.);
#212=ORIENTED_EDGE('',*,*,#162,.T.);
#213=ORIENTED_EDGE('',*,*,#163,.F.);
#214=ORIENTED_EDGE('',*,*,#164,.T.);
#215=ORIENTED_EDGE('',*,*,#139,.F.);
#216=ORIENTED_EDGE('',*,*,#164,.F.);
#217=ORIENTED_EDGE('',*,*,#141,.F.);
#218=ORIENTED_EDGE('',*,*,#165,.F.);
#219=ORIENTED_EDGE('',*,*,#162,.F.);
#220=ORIENTED_EDGE('',*,*,#147,.T.);
#221=ORIENTED_EDGE('',*,*,#140,.F.);
#222=ORIENTED_EDGE('',*,*,#146,.T.);
#223=ORIENTED_EDGE('',*,*,#153,.F.);
#224=ORIENTED_EDGE('',*,*,#156,.T.);
#225=ORIENTED_EDGE('',*,*,#157,.F.);
#226=ORIENTED_EDGE('',*,*,#160,.T.);
#227=ORIENTED_EDGE('',*,*,#161,.F.);
#228=ORIENTED_EDGE('',*,*,#165,.T.);
#229=ORIENTED_EDGE('',*,*,#163,.T.);
#230=CONICAL_SURFACE('',#259,2.8,0.785398163397448);
#231=ADVANCED_FACE('',(#31),#230,.F.);
#232=ADVANCED_FACE('',(#32),#25,.F.);
#233=ADVANCED_FACE('',(#33,#15),#18,.F.);
#234=ADVANCED_FACE('',(#34),#26,.T.);
#235=ADVANCED_FACE('',(#35),#19,.T.);
#236=ADVANCED_FACE('',(#36,#16),#20,.F.);
#237=ADVANCED_FACE('',(#37),#27,.T.);
#238=ADVANCED_FACE('',(#38),#21,.T.);
#239=ADVANCED_FACE('',(#39),#28,.T.);
#240=ADVANCED_FACE('',(#40),#22,.T.);
#241=ADVANCED_FACE('',(#41),#29,.T.);
#242=ADVANCED_FACE('',(#42),#30,.F.);
#243=ADVANCED_FACE('',(#43),#23,.T.);
#244=ADVANCED_FACE('',(#44,#17),#24,.T.);
#245=CLOSED_SHELL('',(#231,#232,#233,#234,#235,#236,#237,#238,#239,#240,
#241,#242,#243,#244));
#246=DERIVED_UNIT_ELEMENT(#248,1.);
#247=DERIVED_UNIT_ELEMENT(#434,-3.);
#248=(
MASS_UNIT()
NAMED_UNIT(*)
SI_UNIT(.KILO.,.GRAM.)
);
#249=DERIVED_UNIT((#246,#247));
#250=MEASURE_REPRESENTATION_ITEM('density measure',
POSITIVE_RATIO_MEASURE(7850.),#249);
#251=PROPERTY_DEFINITION_REPRESENTATION(#256,#253);
#252=PROPERTY_DEFINITION_REPRESENTATION(#257,#254);
#253=REPRESENTATION('material name',(#255),#431);
#254=REPRESENTATION('density',(#250),#431);
#255=DESCRIPTIVE_REPRESENTATION_ITEM('Steel','Steel');
#256=PROPERTY_DEFINITION('material property','material name',#441);
#257=PROPERTY_DEFINITION('material property','density of part',#441);
#258=AXIS2_PLACEMENT_3D('',#361,#286,#287);
#259=AXIS2_PLACEMENT_3D('',#362,#288,#289);
#260=AXIS2_PLACEMENT_3D('',#364,#290,#291);
#261=AXIS2_PLACEMENT_3D('',#367,#293,#294);
#262=AXIS2_PLACEMENT_3D('',#368,#295,#296);
#263=AXIS2_PLACEMENT_3D('',#371,#298,#299);
#264=AXIS2_PLACEMENT_3D('',#372,#300,#301);
#265=AXIS2_PLACEMENT_3D('',#374,#302,#303);
#266=AXIS2_PLACEMENT_3D('',#375,#304,#305);
#267=AXIS2_PLACEMENT_3D('',#378,#306,#307);
#268=AXIS2_PLACEMENT_3D('',#382,#309,#310);
#269=AXIS2_PLACEMENT_3D('',#384,#312,#313);
#270=AXIS2_PLACEMENT_3D('',#390,#317,#318);
#271=AXIS2_PLACEMENT_3D('',#394,#320,#321);
#272=AXIS2_PLACEMENT_3D('',#398,#323,#324);
#273=AXIS2_PLACEMENT_3D('',#401,#326,#327);
#274=AXIS2_PLACEMENT_3D('',#402,#328,#329);
#275=AXIS2_PLACEMENT_3D('',#404,#330,#331);
#276=AXIS2_PLACEMENT_3D('',#406,#333,#334);
#277=AXIS2_PLACEMENT_3D('',#410,#337,#338);
#278=AXIS2_PLACEMENT_3D('',#412,#339,#340);
#279=AXIS2_PLACEMENT_3D('',#414,#342,#343);
#280=AXIS2_PLACEMENT_3D('',#418,#346,#347);
#281=AXIS2_PLACEMENT_3D('',#420,#348,#349);
#282=AXIS2_PLACEMENT_3D('',#422,#351,#352);
#283=AXIS2_PLACEMENT_3D('',#424,#353,#354);
#284=AXIS2_PLACEMENT_3D('',#426,#356,#357);
#285=AXIS2_PLACEMENT_3D('',#428,#359,#360);
#286=DIRECTION('axis',(0.,0.,1.));
#287=DIRECTION('refdir',(1.,0.,0.));
#288=DIRECTION('center_axis',(0.,1.,0.));
#289=DIRECTION('ref_axis',(-1.,0.,0.));
#290=DIRECTION('center_axis',(0.,1.,0.));
#291=DIRECTION('ref_axis',(-1.,0.,0.));
#292=DIRECTION('',(-0.707106781186547,-0.707106781186548,8.65956056235493E-17));
#293=DIRECTION('center_axis',(0.,-1.,0.));
#294=DIRECTION('ref_axis',(-1.,0.,0.));
#295=DIRECTION('center_axis',(0.,-1.,0.));
#296=DIRECTION('ref_axis',(-1.,0.,0.));
#297=DIRECTION('',(0.,-1.,0.));
#298=DIRECTION('center_axis',(0.,1.,0.));
#299=DIRECTION('ref_axis',(-1.,0.,0.));
#300=DIRECTION('center_axis',(0.,-1.,0.));
#301=DIRECTION('ref_axis',(0.,0.,-1.));
#302=DIRECTION('center_axis',(0.,-1.,0.));
#303=DIRECTION('ref_axis',(-1.,0.,0.));
#304=DIRECTION('center_axis',(0.,1.,0.));
#305=DIRECTION('ref_axis',(-0.707106781186548,0.,-0.707106781186548));
#306=DIRECTION('center_axis',(0.,-1.,0.));
#307=DIRECTION('ref_axis',(-0.707106781186548,0.,-0.707106781186548));
#308=DIRECTION('',(0.,-1.,0.));
#309=DIRECTION('center_axis',(0.,1.,0.));
#310=DIRECTION('ref_axis',(-0.707106781186548,0.,-0.707106781186548));
#311=DIRECTION('',(0.,1.,0.));
#312=DIRECTION('center_axis',(-1.,0.,0.));
#313=DIRECTION('ref_axis',(0.,0.,1.));
#314=DIRECTION('',(0.,0.,1.));
#315=DIRECTION('',(0.,-1.,0.));
#316=DIRECTION('',(0.,0.,1.));
#317=DIRECTION('center_axis',(0.,1.,0.));
#318=DIRECTION('ref_axis',(1.,0.,0.));
#319=DIRECTION('',(-1.,0.,0.));
#320=DIRECTION('center_axis',(0.,1.,0.));
#321=DIRECTION('ref_axis',(0.707106781186548,0.,-0.707106781186548));
#322=DIRECTION('',(0.,0.,-1.));
#323=DIRECTION('center_axis',(0.,1.,0.));
#324=DIRECTION('ref_axis',(0.707106781186548,0.,0.707106781186548));
#325=DIRECTION('',(1.,0.,0.));
#326=DIRECTION('center_axis',(0.,1.,0.));
#327=DIRECTION('ref_axis',(-0.707106781186548,0.,0.707106781186548));
#328=DIRECTION('center_axis',(0.,1.,0.));
#329=DIRECTION('ref_axis',(-0.707106781186548,0.,0.707106781186548));
#330=DIRECTION('center_axis',(0.,-1.,0.));
#331=DIRECTION('ref_axis',(-0.707106781186548,0.,0.707106781186548));
#332=DIRECTION('',(0.,1.,0.));
#333=DIRECTION('center_axis',(0.,0.,1.));
#334=DIRECTION('ref_axis',(1.,0.,0.));
#335=DIRECTION('',(0.,-1.,0.));
#336=DIRECTION('',(1.,0.,0.));
#337=DIRECTION('center_axis',(0.,1.,0.));
#338=DIRECTION('ref_axis',(0.707106781186548,0.,0.707106781186548));
#339=DIRECTION('center_axis',(0.,-1.,0.));
#340=DIRECTION('ref_axis',(0.707106781186548,0.,0.707106781186548));
#341=DIRECTION('',(0.,1.,0.));
#342=DIRECTION('center_axis',(1.,0.,0.));
#343=DIRECTION('ref_axis',(0.,0.,-1.));
#344=DIRECTION('',(0.,-1.,0.));
#345=DIRECTION('',(0.,0.,-1.));
#346=DIRECTION('center_axis',(0.,1.,0.));
#347=DIRECTION('ref_axis',(0.707106781186548,0.,-0.707106781186548));
#348=DIRECTION('center_axis',(0.,-1.,0.));
#349=DIRECTION('ref_axis',(0.707106781186548,0.,-0.707106781186548));
#350=DIRECTION('',(0.,1.,0.));
#351=DIRECTION('center_axis',(0.,-1.,0.));
#352=DIRECTION('ref_axis',(-1.,0.,0.));
#353=DIRECTION('center_axis',(0.,-1.,0.));
#354=DIRECTION('ref_axis',(-1.,0.,0.));
#355=DIRECTION('',(0.,-1.,0.));
#356=DIRECTION('center_axis',(0.,0.,-1.));
#357=DIRECTION('ref_axis',(-1.,0.,0.));
#358=DIRECTION('',(-1.,0.,0.));
#359=DIRECTION('center_axis',(0.,1.,0.));
#360=DIRECTION('ref_axis',(0.,0.,1.));
#361=CARTESIAN_POINT('',(0.,0.,0.));
#362=CARTESIAN_POINT('Origin',(0.,1.7,0.));
#363=CARTESIAN_POINT('',(3.1,2.,-3.79640507735679E-16));
#364=CARTESIAN_POINT('Origin',(0.,2.,0.));
#365=CARTESIAN_POINT('',(2.5,1.4,3.06161699786838E-16));
#366=CARTESIAN_POINT('',(2.8,1.7,-3.42901103761259E-16));
#367=CARTESIAN_POINT('Origin',(0.,1.4,0.));
#368=CARTESIAN_POINT('Origin',(0.,2.,0.));
#369=CARTESIAN_POINT('',(2.5,0.,-3.06161699786838E-16));
#370=CARTESIAN_POINT('',(2.5,2.,3.06161699786838E-16));
#371=CARTESIAN_POINT('Origin',(0.,0.,0.));
#372=CARTESIAN_POINT('Origin',(0.,2.,0.));
#373=CARTESIAN_POINT('',(4.75,2.,5.81707229594993E-16));
#374=CARTESIAN_POINT('Origin',(0.,2.,0.));
#375=CARTESIAN_POINT('Origin',(-9.5,0.,-9.5));
#376=CARTESIAN_POINT('',(-10.,3.6,-9.5));
#377=CARTESIAN_POINT('',(-9.5,3.6,-10.));
#378=CARTESIAN_POINT('Origin',(-9.5,3.6,-9.5));
#379=CARTESIAN_POINT('',(-9.5,0.,-10.));
#380=CARTESIAN_POINT('',(-9.5,0.,-10.));
#381=CARTESIAN_POINT('',(-10.,0.,-9.5));
#382=CARTESIAN_POINT('Origin',(-9.5,0.,-9.5));
#383=CARTESIAN_POINT('',(-10.,0.,-9.5));
#384=CARTESIAN_POINT('Origin',(-10.,0.,-10.));
#385=CARTESIAN_POINT('',(-10.,0.,9.5));
#386=CARTESIAN_POINT('',(-10.,0.,-10.));
#387=CARTESIAN_POINT('',(-10.,3.6,9.5));
#388=CARTESIAN_POINT('',(-10.,0.,9.5));
#389=CARTESIAN_POINT('',(-10.,3.6,-10.));
#390=CARTESIAN_POINT('Origin',(0.,0.,0.));
#391=CARTESIAN_POINT('',(9.5,0.,-10.));
#392=CARTESIAN_POINT('',(10.,0.,-10.));
#393=CARTESIAN_POINT('',(10.,0.,-9.5));
#394=CARTESIAN_POINT('Origin',(9.5,0.,-9.5));
#395=CARTESIAN_POINT('',(10.,0.,9.5));
#396=CARTESIAN_POINT('',(10.,0.,10.));
#397=CARTESIAN_POINT('',(9.5,0.,10.));
#398=CARTESIAN_POINT('Origin',(9.5,0.,9.5));
#399=CARTESIAN_POINT('',(-9.5,0.,10.));
#400=CARTESIAN_POINT('',(-10.,0.,10.));
#401=CARTESIAN_POINT('Origin',(-9.5,0.,9.5));
#402=CARTESIAN_POINT('Origin',(-9.5,0.,9.5));
#403=CARTESIAN_POINT('',(-9.5,3.6,10.));
#404=CARTESIAN_POINT('Origin',(-9.5,3.6,9.5));
#405=CARTESIAN_POINT('',(-9.5,0.,10.));
#406=CARTESIAN_POINT('Origin',(-10.,0.,10.));
#407=CARTESIAN_POINT('',(9.5,3.6,10.));
#408=CARTESIAN_POINT('',(9.5,0.,10.));
#409=CARTESIAN_POINT('',(-10.,3.6,10.));
#410=CARTESIAN_POINT('Origin',(9.5,0.,9.5));
#411=CARTESIAN_POINT('',(10.,3.6,9.5));
#412=CARTESIAN_POINT('Origin',(9.5,3.6,9.5));
#413=CARTESIAN_POINT('',(10.,0.,9.5));
#414=CARTESIAN_POINT('Origin',(10.,0.,10.));
#415=CARTESIAN_POINT('',(10.,3.6,-9.5));
#416=CARTESIAN_POINT('',(10.,0.,-9.5));
#417=CARTESIAN_POINT('',(10.,3.6,10.));
#418=CARTESIAN_POINT('Origin',(9.5,0.,-9.5));
#419=CARTESIAN_POINT('',(9.5,3.6,-10.));
#420=CARTESIAN_POINT('Origin',(9.5,3.6,-9.5));
#421=CARTESIAN_POINT('',(9.5,0.,-10.));
#422=CARTESIAN_POINT('Origin',(0.,3.6,0.));
#423=CARTESIAN_POINT('',(4.75,3.6,-5.81707229594993E-16));
#424=CARTESIAN_POINT('Origin',(0.,3.6,0.));
#425=CARTESIAN_POINT('',(4.75,3.6,5.81707229594993E-16));
#426=CARTESIAN_POINT('Origin',(10.,0.,-10.));
#427=CARTESIAN_POINT('',(10.,3.6,-10.));
#428=CARTESIAN_POINT('Origin',(0.,3.6,0.));
#429=UNCERTAINTY_MEASURE_WITH_UNIT(LENGTH_MEASURE(0.01),#433,
'DISTANCE_ACCURACY_VALUE',
'Maximum model space distance between geometric entities at asserted c
onnectivities');
#430=UNCERTAINTY_MEASURE_WITH_UNIT(LENGTH_MEASURE(0.01),#433,
'DISTANCE_ACCURACY_VALUE',
'Maximum model space distance between geometric entities at asserted c
onnectivities');
#431=(
GEOMETRIC_REPRESENTATION_CONTEXT(3)
GLOBAL_UNCERTAINTY_ASSIGNED_CONTEXT((#429))
GLOBAL_UNIT_ASSIGNED_CONTEXT((#433,#435,#436))
REPRESENTATION_CONTEXT('','3D')
);
#432=(
GEOMETRIC_REPRESENTATION_CONTEXT(3)
GLOBAL_UNCERTAINTY_ASSIGNED_CONTEXT((#430))
GLOBAL_UNIT_ASSIGNED_CONTEXT((#433,#435,#436))
REPRESENTATION_CONTEXT('','3D')
);
#433=(
LENGTH_UNIT()
NAMED_UNIT(*)
SI_UNIT(.MILLI.,.METRE.)
);
#434=(
LENGTH_UNIT()
NAMED_UNIT(*)
SI_UNIT($,.METRE.)
);
#435=(
NAMED_UNIT(*)
PLANE_ANGLE_UNIT()
SI_UNIT($,.RADIAN.)
);
#436=(
NAMED_UNIT(*)
SI_UNIT($,.STERADIAN.)
SOLID_ANGLE_UNIT()
);
#437=SHAPE_DEFINITION_REPRESENTATION(#438,#439);
#438=PRODUCT_DEFINITION_SHAPE('',$,#441);
#439=SHAPE_REPRESENTATION('',(#258),#431);
#440=PRODUCT_DEFINITION_CONTEXT('part definition',#445,'design');
#441=PRODUCT_DEFINITION('2026-08-29-11-09-45-666','(Unsaved)',#442,#440);
#442=PRODUCT_DEFINITION_FORMATION('',$,#447);
#443=PRODUCT_RELATED_PRODUCT_CATEGORY('(Unsaved)','(Unsaved)',(#447));
#444=APPLICATION_PROTOCOL_DEFINITION('international standard',
'automotive_design',2009,#445);
#445=APPLICATION_CONTEXT(
'Core Data for Automotive Mechanical Design Process');
#446=PRODUCT_CONTEXT('part definition',#445,'mechanical');
#447=PRODUCT('2026-08-29-11-09-45-666','(Unsaved)',$,(#446));
#448=PRESENTATION_STYLE_ASSIGNMENT((#449));
#449=SURFACE_STYLE_USAGE(.BOTH.,#450);
#450=SURFACE_SIDE_STYLE('',(#451));
#451=SURFACE_STYLE_FILL_AREA(#452);
#452=FILL_AREA_STYLE('Steel - Satin',(#453));
#453=FILL_AREA_STYLE_COLOUR('Steel - Satin',#454);
#454=COLOUR_RGB('Steel - Satin',0.627450980392157,0.627450980392157,0.627450980392157);
ENDSEC;
END-ISO-10303-21;
