ISO-10303-21;
HEADER;
/* Generated by software containing ST-Developer
 * from STEP Tools, Inc. (www.steptools.com) 
 */

FILE_DESCRIPTION(
/* description */ (''),
/* implementation_level */ '2;1');

FILE_NAME(
/* name */ 'clamping-base-power-plug-clip_v1.0.step',
/* time_stamp */ '2026-08-29T11:09:35-05:00',
/* author */ (''),
/* organization */ (''),
/* preprocessor_version */ 'ST-DEVELOPER v20.1',
/* originating_system */ 'Autodesk Translation Framework v15.8.0.0',
/* authorisation */ '');

FILE_SCHEMA (('AUTOMOTIVE_DESIGN { 1 0 10303 214 3 1 1 }'));
ENDSEC;

DATA;
#10=MECHANICAL_DESIGN_GEOMETRIC_PRESENTATION_REPRESENTATION('',(#13),#1908);
#11=SHAPE_REPRESENTATION_RELATIONSHIP('SRR','None',#1915,#12);
#12=ADVANCED_BREP_SHAPE_REPRESENTATION('',(#14),#1907);
#13=STYLED_ITEM('',(#1924),#14);
#14=MANIFOLD_SOLID_BREP('Body1',#1144);
#15=FACE_BOUND('',#118,.T.);
#16=FACE_BOUND('',#123,.T.);
#17=PLANE('',#1161);
#18=PLANE('',#1179);
#19=PLANE('',#1184);
#20=PLANE('',#1201);
#21=PLANE('',#1205);
#22=PLANE('',#1206);
#23=PLANE('',#1207);
#24=PLANE('',#1208);
#25=PLANE('',#1209);
#26=PLANE('',#1210);
#27=PLANE('',#1211);
#28=PLANE('',#1212);
#29=PLANE('',#1213);
#30=PLANE('',#1214);
#31=PLANE('',#1215);
#32=PLANE('',#1216);
#33=PLANE('',#1217);
#34=PLANE('',#1218);
#35=PLANE('',#1219);
#36=PLANE('',#1220);
#37=PLANE('',#1221);
#38=PLANE('',#1222);
#39=PLANE('',#1223);
#40=PLANE('',#1224);
#41=PLANE('',#1226);
#42=PLANE('',#1228);
#43=PLANE('',#1230);
#44=PLANE('',#1232);
#45=PLANE('',#1234);
#46=PLANE('',#1235);
#47=PLANE('',#1237);
#48=PLANE('',#1239);
#49=PLANE('',#1241);
#50=PLANE('',#1243);
#51=PLANE('',#1245);
#52=PLANE('',#1246);
#53=PLANE('',#1248);
#54=PLANE('',#1250);
#55=FACE_OUTER_BOUND('',#112,.T.);
#56=FACE_OUTER_BOUND('',#113,.T.);
#57=FACE_OUTER_BOUND('',#114,.T.);
#58=FACE_OUTER_BOUND('',#115,.T.);
#59=FACE_OUTER_BOUND('',#116,.T.);
#60=FACE_OUTER_BOUND('',#117,.T.);
#61=FACE_OUTER_BOUND('',#119,.T.);
#62=FACE_OUTER_BOUND('',#120,.T.);
#63=FACE_OUTER_BOUND('',#121,.T.);
#64=FACE_OUTER_BOUND('',#122,.T.);
#65=FACE_OUTER_BOUND('',#124,.T.);
#66=FACE_OUTER_BOUND('',#125,.T.);
#67=FACE_OUTER_BOUND('',#126,.T.);
#68=FACE_OUTER_BOUND('',#127,.T.);
#69=FACE_OUTER_BOUND('',#128,.T.);
#70=FACE_OUTER_BOUND('',#129,.T.);
#71=FACE_OUTER_BOUND('',#130,.T.);
#72=FACE_OUTER_BOUND('',#131,.T.);
#73=FACE_OUTER_BOUND('',#132,.T.);
#74=FACE_OUTER_BOUND('',#133,.T.);
#75=FACE_OUTER_BOUND('',#134,.T.);
#76=FACE_OUTER_BOUND('',#135,.T.);
#77=FACE_OUTER_BOUND('',#136,.T.);
#78=FACE_OUTER_BOUND('',#137,.T.);
#79=FACE_OUTER_BOUND('',#138,.T.);
#80=FACE_OUTER_BOUND('',#139,.T.);
#81=FACE_OUTER_BOUND('',#140,.T.);
#82=FACE_OUTER_BOUND('',#141,.T.);
#83=FACE_OUTER_BOUND('',#142,.T.);
#84=FACE_OUTER_BOUND('',#143,.T.);
#85=FACE_OUTER_BOUND('',#144,.T.);
#86=FACE_OUTER_BOUND('',#145,.T.);
#87=FACE_OUTER_BOUND('',#146,.T.);
#88=FACE_OUTER_BOUND('',#147,.T.);
#89=FACE_OUTER_BOUND('',#148,.T.);
#90=FACE_OUTER_BOUND('',#149,.T.);
#91=FACE_OUTER_BOUND('',#150,.T.);
#92=FACE_OUTER_BOUND('',#151,.T.);
#93=FACE_OUTER_BOUND('',#152,.T.);
#94=FACE_OUTER_BOUND('',#153,.T.);
#95=FACE_OUTER_BOUND('',#154,.T.);
#96=FACE_OUTER_BOUND('',#155,.T.);
#97=FACE_OUTER_BOUND('',#156,.T.);
#98=FACE_OUTER_BOUND('',#157,.T.);
#99=FACE_OUTER_BOUND('',#158,.T.);
#100=FACE_OUTER_BOUND('',#159,.T.);
#101=FACE_OUTER_BOUND('',#160,.T.);
#102=FACE_OUTER_BOUND('',#161,.T.);
#103=FACE_OUTER_BOUND('',#162,.T.);
#104=FACE_OUTER_BOUND('',#163,.T.);
#105=FACE_OUTER_BOUND('',#164,.T.);
#106=FACE_OUTER_BOUND('',#165,.T.);
#107=FACE_OUTER_BOUND('',#166,.T.);
#108=FACE_OUTER_BOUND('',#167,.T.);
#109=FACE_OUTER_BOUND('',#168,.T.);
#110=FACE_OUTER_BOUND('',#169,.T.);
#111=FACE_OUTER_BOUND('',#170,.T.);
#112=EDGE_LOOP('',(#738,#739,#740,#741));
#113=EDGE_LOOP('',(#742,#743,#744,#745,#746,#747,#748,#749,#750,#751,#752,
#753,#754,#755,#756,#757,#758,#759,#760,#761,#762,#763,#764,#765,#766,#767,
#768,#769,#770,#771,#772,#773,#774,#775,#776,#777,#778,#779,#780,#781,#782,
#783,#784,#785,#786,#787,#788,#789,#790,#791,#792,#793,#794,#795));
#114=EDGE_LOOP('',(#796,#797,#798,#799));
#115=EDGE_LOOP('',(#800,#801,#802,#803));
#116=EDGE_LOOP('',(#804,#805,#806,#807));
#117=EDGE_LOOP('',(#808,#809,#810,#811,#812,#813,#814,#815,#816,#817,#818,
#819,#820,#821,#822,#823,#824,#825,#826,#827,#828,#829,#830,#831,#832,#833,
#834,#835,#836,#837,#838,#839,#840,#841,#842,#843,#844,#845,#846,#847,#848,
#849));
#118=EDGE_LOOP('',(#850));
#119=EDGE_LOOP('',(#851,#852,#853,#854));
#120=EDGE_LOOP('',(#855,#856,#857,#858));
#121=EDGE_LOOP('',(#859,#860,#861,#862));
#122=EDGE_LOOP('',(#863,#864,#865,#866,#867,#868,#869,#870));
#123=EDGE_LOOP('',(#871));
#124=EDGE_LOOP('',(#872,#873,#874,#875));
#125=EDGE_LOOP('',(#876,#877,#878,#879,#880,#881,#882,#883));
#126=EDGE_LOOP('',(#884,#885,#886,#887));
#127=EDGE_LOOP('',(#888,#889,#890,#891));
#128=EDGE_LOOP('',(#892,#893,#894,#895));
#129=EDGE_LOOP('',(#896,#897,#898,#899));
#130=EDGE_LOOP('',(#900,#901,#902,#903));
#131=EDGE_LOOP('',(#904,#905,#906,#907));
#132=EDGE_LOOP('',(#908,#909,#910,#911));
#133=EDGE_LOOP('',(#912,#913,#914,#915));
#134=EDGE_LOOP('',(#916,#917,#918,#919,#920,#921,#922,#923));
#135=EDGE_LOOP('',(#924,#925,#926,#927));
#136=EDGE_LOOP('',(#928,#929,#930,#931));
#137=EDGE_LOOP('',(#932,#933,#934,#935));
#138=EDGE_LOOP('',(#936,#937,#938,#939));
#139=EDGE_LOOP('',(#940,#941,#942,#943));
#140=EDGE_LOOP('',(#944,#945,#946,#947));
#141=EDGE_LOOP('',(#948,#949,#950,#951));
#142=EDGE_LOOP('',(#952,#953,#954,#955));
#143=EDGE_LOOP('',(#956,#957,#958,#959));
#144=EDGE_LOOP('',(#960,#961,#962,#963));
#145=EDGE_LOOP('',(#964,#965,#966,#967));
#146=EDGE_LOOP('',(#968,#969,#970,#971));
#147=EDGE_LOOP('',(#972,#973,#974,#975));
#148=EDGE_LOOP('',(#976,#977,#978,#979));
#149=EDGE_LOOP('',(#980,#981,#982,#983));
#150=EDGE_LOOP('',(#984,#985,#986,#987));
#151=EDGE_LOOP('',(#988,#989,#990,#991));
#152=EDGE_LOOP('',(#992,#993,#994,#995));
#153=EDGE_LOOP('',(#996,#997,#998,#999));
#154=EDGE_LOOP('',(#1000,#1001,#1002,#1003));
#155=EDGE_LOOP('',(#1004,#1005,#1006,#1007));
#156=EDGE_LOOP('',(#1008,#1009,#1010,#1011));
#157=EDGE_LOOP('',(#1012,#1013,#1014,#1015));
#158=EDGE_LOOP('',(#1016,#1017,#1018,#1019));
#159=EDGE_LOOP('',(#1020,#1021,#1022,#1023));
#160=EDGE_LOOP('',(#1024,#1025,#1026,#1027));
#161=EDGE_LOOP('',(#1028,#1029,#1030,#1031));
#162=EDGE_LOOP('',(#1032,#1033,#1034,#1035));
#163=EDGE_LOOP('',(#1036,#1037,#1038,#1039));
#164=EDGE_LOOP('',(#1040,#1041,#1042,#1043));
#165=EDGE_LOOP('',(#1044,#1045,#1046,#1047));
#166=EDGE_LOOP('',(#1048,#1049,#1050,#1051));
#167=EDGE_LOOP('',(#1052,#1053,#1054,#1055));
#168=EDGE_LOOP('',(#1056,#1057,#1058,#1059));
#169=EDGE_LOOP('',(#1060,#1061,#1062,#1063));
#170=EDGE_LOOP('',(#1064,#1065,#1066,#1067));
#171=LINE('',#1578,#298);
#172=LINE('',#1581,#299);
#173=LINE('',#1584,#300);
#174=LINE('',#1588,#301);
#175=LINE('',#1592,#302);
#176=LINE('',#1596,#303);
#177=LINE('',#1602,#304);
#178=LINE('',#1606,#305);
#179=LINE('',#1610,#306);
#180=LINE('',#1614,#307);
#181=LINE('',#1618,#308);
#182=LINE('',#1622,#309);
#183=LINE('',#1626,#310);
#184=LINE('',#1630,#311);
#185=LINE('',#1634,#312);
#186=LINE('',#1638,#313);
#187=LINE('',#1642,#314);
#188=LINE('',#1644,#315);
#189=LINE('',#1646,#316);
#190=LINE('',#1648,#317);
#191=LINE('',#1650,#318);
#192=LINE('',#1652,#319);
#193=LINE('',#1654,#320);
#194=LINE('',#1656,#321);
#195=LINE('',#1658,#322);
#196=LINE('',#1660,#323);
#197=LINE('',#1662,#324);
#198=LINE('',#1664,#325);
#199=LINE('',#1666,#326);
#200=LINE('',#1668,#327);
#201=LINE('',#1670,#328);
#202=LINE('',#1672,#329);
#203=LINE('',#1674,#330);
#204=LINE('',#1676,#331);
#205=LINE('',#1678,#332);
#206=LINE('',#1680,#333);
#207=LINE('',#1684,#334);
#208=LINE('',#1687,#335);
#209=LINE('',#1690,#336);
#210=LINE('',#1691,#337);
#211=LINE('',#1695,#338);
#212=LINE('',#1700,#339);
#213=LINE('',#1701,#340);
#214=LINE('',#1704,#341);
#215=LINE('',#1708,#342);
#216=LINE('',#1712,#343);
#217=LINE('',#1714,#344);
#218=LINE('',#1716,#345);
#219=LINE('',#1718,#346);
#220=LINE('',#1720,#347);
#221=LINE('',#1722,#348);
#222=LINE('',#1724,#349);
#223=LINE('',#1726,#350);
#224=LINE('',#1730,#351);
#225=LINE('',#1734,#352);
#226=LINE('',#1737,#353);
#227=LINE('',#1739,#354);
#228=LINE('',#1743,#355);
#229=LINE('',#1747,#356);
#230=LINE('',#1751,#357);
#231=LINE('',#1755,#358);
#232=LINE('',#1759,#359);
#233=LINE('',#1763,#360);
#234=LINE('',#1769,#361);
#235=LINE('',#1773,#362);
#236=LINE('',#1776,#363);
#237=LINE('',#1780,#364);
#238=LINE('',#1782,#365);
#239=LINE('',#1786,#366);
#240=LINE('',#1790,#367);
#241=LINE('',#1792,#368);
#242=LINE('',#1794,#369);
#243=LINE('',#1796,#370);
#244=LINE('',#1798,#371);
#245=LINE('',#1800,#372);
#246=LINE('',#1802,#373);
#247=LINE('',#1803,#374);
#248=LINE('',#1805,#375);
#249=LINE('',#1806,#376);
#250=LINE('',#1808,#377);
#251=LINE('',#1810,#378);
#252=LINE('',#1812,#379);
#253=LINE('',#1813,#380);
#254=LINE('',#1815,#381);
#255=LINE('',#1817,#382);
#256=LINE('',#1820,#383);
#257=LINE('',#1821,#384);
#258=LINE('',#1824,#385);
#259=LINE('',#1825,#386);
#260=LINE('',#1827,#387);
#261=LINE('',#1829,#388);
#262=LINE('',#1831,#389);
#263=LINE('',#1832,#390);
#264=LINE('',#1834,#391);
#265=LINE('',#1836,#392);
#266=LINE('',#1838,#393);
#267=LINE('',#1840,#394);
#268=LINE('',#1842,#395);
#269=LINE('',#1844,#396);
#270=LINE('',#1846,#397);
#271=LINE('',#1848,#398);
#272=LINE('',#1850,#399);
#273=LINE('',#1852,#400);
#274=LINE('',#1853,#401);
#275=LINE('',#1855,#402);
#276=LINE('',#1857,#403);
#277=LINE('',#1859,#404);
#278=LINE('',#1861,#405);
#279=LINE('',#1863,#406);
#280=LINE('',#1865,#407);
#281=LINE('',#1867,#408);
#282=LINE('',#1869,#409);
#283=LINE('',#1871,#410);
#284=LINE('',#1874,#411);
#285=LINE('',#1876,#412);
#286=LINE('',#1878,#413);
#287=LINE('',#1880,#414);
#288=LINE('',#1882,#415);
#289=LINE('',#1886,#416);
#290=LINE('',#1888,#417);
#291=LINE('',#1890,#418);
#292=LINE('',#1893,#419);
#293=LINE('',#1895,#420);
#294=LINE('',#1897,#421);
#295=LINE('',#1899,#422);
#296=LINE('',#1901,#423);
#297=LINE('',#1903,#424);
#298=VECTOR('',#1259,10.);
#299=VECTOR('',#1262,10.);
#300=VECTOR('',#1265,10.);
#301=VECTOR('',#1268,10.);
#302=VECTOR('',#1271,10.);
#303=VECTOR('',#1274,10.);
#304=VECTOR('',#1279,10.);
#305=VECTOR('',#1282,10.);
#306=VECTOR('',#1285,10.);
#307=VECTOR('',#1288,10.);
#308=VECTOR('',#1291,10.);
#309=VECTOR('',#1294,10.);
#310=VECTOR('',#1297,10.);
#311=VECTOR('',#1300,10.);
#312=VECTOR('',#1303,10.);
#313=VECTOR('',#1306,10.);
#314=VECTOR('',#1309,10.);
#315=VECTOR('',#1310,10.);
#316=VECTOR('',#1311,10.);
#317=VECTOR('',#1312,10.);
#318=VECTOR('',#1313,10.);
#319=VECTOR('',#1314,10.);
#320=VECTOR('',#1315,10.);
#321=VECTOR('',#1316,10.);
#322=VECTOR('',#1317,10.);
#323=VECTOR('',#1318,10.);
#324=VECTOR('',#1319,10.);
#325=VECTOR('',#1320,10.);
#326=VECTOR('',#1321,10.);
#327=VECTOR('',#1322,10.);
#328=VECTOR('',#1323,10.);
#329=VECTOR('',#1324,10.);
#330=VECTOR('',#1325,10.);
#331=VECTOR('',#1326,10.);
#332=VECTOR('',#1327,10.);
#333=VECTOR('',#1328,10.);
#334=VECTOR('',#1331,10.);
#335=VECTOR('',#1334,10.);
#336=VECTOR('',#1337,10.);
#337=VECTOR('',#1338,10.);
#338=VECTOR('',#1343,10.);
#339=VECTOR('',#1348,10.);
#340=VECTOR('',#1349,10.);
#341=VECTOR('',#1352,10.);
#342=VECTOR('',#1355,10.);
#343=VECTOR('',#1358,10.);
#344=VECTOR('',#1359,10.);
#345=VECTOR('',#1360,10.);
#346=VECTOR('',#1361,10.);
#347=VECTOR('',#1362,10.);
#348=VECTOR('',#1363,10.);
#349=VECTOR('',#1364,10.);
#350=VECTOR('',#1365,10.);
#351=VECTOR('',#1368,10.);
#352=VECTOR('',#1371,10.);
#353=VECTOR('',#1374,10.);
#354=VECTOR('',#1375,10.);
#355=VECTOR('',#1378,10.);
#356=VECTOR('',#1381,10.);
#357=VECTOR('',#1384,10.);
#358=VECTOR('',#1387,10.);
#359=VECTOR('',#1390,10.);
#360=VECTOR('',#1393,10.);
#361=VECTOR('',#1398,10.);
#362=VECTOR('',#1401,10.);
#363=VECTOR('',#1404,10.);
#364=VECTOR('',#1409,10.);
#365=VECTOR('',#1412,10.);
#366=VECTOR('',#1417,5.);
#367=VECTOR('',#1420,10.);
#368=VECTOR('',#1421,10.);
#369=VECTOR('',#1422,10.);
#370=VECTOR('',#1423,10.);
#371=VECTOR('',#1424,10.);
#372=VECTOR('',#1425,10.);
#373=VECTOR('',#1426,10.);
#374=VECTOR('',#1427,10.);
#375=VECTOR('',#1430,10.);
#376=VECTOR('',#1431,10.);
#377=VECTOR('',#1434,10.);
#378=VECTOR('',#1435,10.);
#379=VECTOR('',#1436,10.);
#380=VECTOR('',#1437,10.);
#381=VECTOR('',#1440,10.);
#382=VECTOR('',#1443,10.);
#383=VECTOR('',#1446,10.);
#384=VECTOR('',#1447,10.);
#385=VECTOR('',#1450,10.);
#386=VECTOR('',#1451,10.);
#387=VECTOR('',#1454,10.);
#388=VECTOR('',#1457,10.);
#389=VECTOR('',#1460,10.);
#390=VECTOR('',#1461,10.);
#391=VECTOR('',#1464,10.);
#392=VECTOR('',#1467,10.);
#393=VECTOR('',#1470,10.);
#394=VECTOR('',#1473,10.);
#395=VECTOR('',#1476,10.);
#396=VECTOR('',#1479,10.);
#397=VECTOR('',#1482,10.);
#398=VECTOR('',#1485,10.);
#399=VECTOR('',#1488,10.);
#400=VECTOR('',#1491,10.);
#401=VECTOR('',#1492,10.);
#402=VECTOR('',#1495,10.);
#403=VECTOR('',#1498,10.);
#404=VECTOR('',#1501,10.);
#405=VECTOR('',#1504,10.);
#406=VECTOR('',#1507,10.);
#407=VECTOR('',#1510,10.);
#408=VECTOR('',#1513,10.);
#409=VECTOR('',#1516,10.);
#410=VECTOR('',#1519,10.);
#411=VECTOR('',#1524,10.);
#412=VECTOR('',#1527,10.);
#413=VECTOR('',#1530,10.);
#414=VECTOR('',#1533,10.);
#415=VECTOR('',#1536,10.);
#416=VECTOR('',#1543,10.);
#417=VECTOR('',#1546,10.);
#418=VECTOR('',#1549,10.);
#419=VECTOR('',#1554,10.);
#420=VECTOR('',#1557,10.);
#421=VECTOR('',#1560,10.);
#422=VECTOR('',#1563,10.);
#423=VECTOR('',#1566,10.);
#424=VECTOR('',#1569,10.);
#425=CIRCLE('',#1159,1.);
#426=CIRCLE('',#1160,1.);
#427=CIRCLE('',#1162,1.);
#428=CIRCLE('',#1163,1.85);
#429=CIRCLE('',#1164,1.85);
#430=CIRCLE('',#1165,1.85);
#431=CIRCLE('',#1166,0.899999999999999);
#432=CIRCLE('',#1167,0.9);
#433=CIRCLE('',#1168,1.1);
#434=CIRCLE('',#1169,1.85);
#435=CIRCLE('',#1170,1.85);
#436=CIRCLE('',#1171,1.1);
#437=CIRCLE('',#1172,1.);
#438=CIRCLE('',#1173,1.);
#439=CIRCLE('',#1174,4.1);
#440=CIRCLE('',#1175,4.85);
#441=CIRCLE('',#1176,4.85);
#442=CIRCLE('',#1177,4.85);
#443=CIRCLE('',#1178,4.85);
#444=CIRCLE('',#1181,1.);
#445=CIRCLE('',#1183,1.);
#446=CIRCLE('',#1185,4.85);
#447=CIRCLE('',#1186,4.85);
#448=CIRCLE('',#1187,4.85);
#449=CIRCLE('',#1188,4.85);
#450=CIRCLE('',#1189,4.1);
#451=CIRCLE('',#1190,1.);
#452=CIRCLE('',#1191,1.1);
#453=CIRCLE('',#1192,1.85);
#454=CIRCLE('',#1193,1.85);
#455=CIRCLE('',#1194,1.1);
#456=CIRCLE('',#1195,0.9);
#457=CIRCLE('',#1196,0.899999999999999);
#458=CIRCLE('',#1197,1.85);
#459=CIRCLE('',#1198,1.85);
#460=CIRCLE('',#1199,1.85);
#461=CIRCLE('',#1200,5.);
#462=CIRCLE('',#1204,5.);
#463=VERTEX_POINT('',#1574);
#464=VERTEX_POINT('',#1575);
#465=VERTEX_POINT('',#1577);
#466=VERTEX_POINT('',#1579);
#467=VERTEX_POINT('',#1583);
#468=VERTEX_POINT('',#1585);
#469=VERTEX_POINT('',#1587);
#470=VERTEX_POINT('',#1589);
#471=VERTEX_POINT('',#1591);
#472=VERTEX_POINT('',#1593);
#473=VERTEX_POINT('',#1595);
#474=VERTEX_POINT('',#1597);
#475=VERTEX_POINT('',#1599);
#476=VERTEX_POINT('',#1601);
#477=VERTEX_POINT('',#1603);
#478=VERTEX_POINT('',#1605);
#479=VERTEX_POINT('',#1607);
#480=VERTEX_POINT('',#1609);
#481=VERTEX_POINT('',#1611);
#482=VERTEX_POINT('',#1613);
#483=VERTEX_POINT('',#1615);
#484=VERTEX_POINT('',#1617);
#485=VERTEX_POINT('',#1619);
#486=VERTEX_POINT('',#1621);
#487=VERTEX_POINT('',#1623);
#488=VERTEX_POINT('',#1625);
#489=VERTEX_POINT('',#1627);
#490=VERTEX_POINT('',#1629);
#491=VERTEX_POINT('',#1631);
#492=VERTEX_POINT('',#1633);
#493=VERTEX_POINT('',#1635);
#494=VERTEX_POINT('',#1637);
#495=VERTEX_POINT('',#1639);
#496=VERTEX_POINT('',#1641);
#497=VERTEX_POINT('',#1643);
#498=VERTEX_POINT('',#1645);
#499=VERTEX_POINT('',#1647);
#500=VERTEX_POINT('',#1649);
#501=VERTEX_POINT('',#1651);
#502=VERTEX_POINT('',#1653);
#503=VERTEX_POINT('',#1655);
#504=VERTEX_POINT('',#1657);
#505=VERTEX_POINT('',#1659);
#506=VERTEX_POINT('',#1661);
#507=VERTEX_POINT('',#1663);
#508=VERTEX_POINT('',#1665);
#509=VERTEX_POINT('',#1667);
#510=VERTEX_POINT('',#1669);
#511=VERTEX_POINT('',#1671);
#512=VERTEX_POINT('',#1673);
#513=VERTEX_POINT('',#1675);
#514=VERTEX_POINT('',#1677);
#515=VERTEX_POINT('',#1679);
#516=VERTEX_POINT('',#1681);
#517=VERTEX_POINT('',#1683);
#518=VERTEX_POINT('',#1685);
#519=VERTEX_POINT('',#1689);
#520=VERTEX_POINT('',#1693);
#521=VERTEX_POINT('',#1697);
#522=VERTEX_POINT('',#1698);
#523=VERTEX_POINT('',#1703);
#524=VERTEX_POINT('',#1705);
#525=VERTEX_POINT('',#1707);
#526=VERTEX_POINT('',#1709);
#527=VERTEX_POINT('',#1711);
#528=VERTEX_POINT('',#1713);
#529=VERTEX_POINT('',#1715);
#530=VERTEX_POINT('',#1717);
#531=VERTEX_POINT('',#1719);
#532=VERTEX_POINT('',#1721);
#533=VERTEX_POINT('',#1723);
#534=VERTEX_POINT('',#1725);
#535=VERTEX_POINT('',#1727);
#536=VERTEX_POINT('',#1729);
#537=VERTEX_POINT('',#1731);
#538=VERTEX_POINT('',#1733);
#539=VERTEX_POINT('',#1735);
#540=VERTEX_POINT('',#1738);
#541=VERTEX_POINT('',#1740);
#542=VERTEX_POINT('',#1742);
#543=VERTEX_POINT('',#1744);
#544=VERTEX_POINT('',#1746);
#545=VERTEX_POINT('',#1748);
#546=VERTEX_POINT('',#1750);
#547=VERTEX_POINT('',#1752);
#548=VERTEX_POINT('',#1754);
#549=VERTEX_POINT('',#1756);
#550=VERTEX_POINT('',#1758);
#551=VERTEX_POINT('',#1760);
#552=VERTEX_POINT('',#1762);
#553=VERTEX_POINT('',#1764);
#554=VERTEX_POINT('',#1766);
#555=VERTEX_POINT('',#1768);
#556=VERTEX_POINT('',#1770);
#557=VERTEX_POINT('',#1772);
#558=VERTEX_POINT('',#1774);
#559=VERTEX_POINT('',#1777);
#560=VERTEX_POINT('',#1784);
#561=VERTEX_POINT('',#1788);
#562=VERTEX_POINT('',#1789);
#563=VERTEX_POINT('',#1791);
#564=VERTEX_POINT('',#1793);
#565=VERTEX_POINT('',#1795);
#566=VERTEX_POINT('',#1797);
#567=VERTEX_POINT('',#1799);
#568=VERTEX_POINT('',#1801);
#569=VERTEX_POINT('',#1809);
#570=VERTEX_POINT('',#1811);
#571=VERTEX_POINT('',#1819);
#572=VERTEX_POINT('',#1823);
#573=EDGE_CURVE('',#463,#464,#425,.T.);
#574=EDGE_CURVE('',#464,#465,#171,.T.);
#575=EDGE_CURVE('',#465,#466,#426,.T.);
#576=EDGE_CURVE('',#466,#463,#172,.T.);
#577=EDGE_CURVE('',#467,#465,#173,.T.);
#578=EDGE_CURVE('',#468,#467,#427,.T.);
#579=EDGE_CURVE('',#469,#468,#174,.T.);
#580=EDGE_CURVE('',#470,#469,#428,.T.);
#581=EDGE_CURVE('',#471,#470,#175,.T.);
#582=EDGE_CURVE('',#472,#471,#429,.T.);
#583=EDGE_CURVE('',#473,#472,#176,.T.);
#584=EDGE_CURVE('',#474,#473,#430,.T.);
#585=EDGE_CURVE('',#474,#475,#431,.T.);
#586=EDGE_CURVE('',#476,#475,#177,.T.);
#587=EDGE_CURVE('',#476,#477,#432,.T.);
#588=EDGE_CURVE('',#478,#477,#178,.T.);
#589=EDGE_CURVE('',#479,#478,#433,.T.);
#590=EDGE_CURVE('',#480,#479,#179,.T.);
#591=EDGE_CURVE('',#481,#480,#434,.T.);
#592=EDGE_CURVE('',#482,#481,#180,.T.);
#593=EDGE_CURVE('',#483,#482,#435,.T.);
#594=EDGE_CURVE('',#484,#483,#181,.T.);
#595=EDGE_CURVE('',#485,#484,#436,.T.);
#596=EDGE_CURVE('',#486,#485,#182,.T.);
#597=EDGE_CURVE('',#487,#486,#437,.T.);
#598=EDGE_CURVE('',#488,#487,#183,.T.);
#599=EDGE_CURVE('',#489,#488,#438,.T.);
#600=EDGE_CURVE('',#489,#490,#184,.T.);
#601=EDGE_CURVE('',#490,#491,#439,.T.);
#602=EDGE_CURVE('',#491,#492,#185,.T.);
#603=EDGE_CURVE('',#492,#493,#440,.T.);
#604=EDGE_CURVE('',#493,#494,#186,.T.);
#605=EDGE_CURVE('',#494,#495,#441,.T.);
#606=EDGE_CURVE('',#495,#496,#187,.T.);
#607=EDGE_CURVE('',#496,#497,#188,.T.);
#608=EDGE_CURVE('',#497,#498,#189,.T.);
#609=EDGE_CURVE('',#498,#499,#190,.T.);
#610=EDGE_CURVE('',#499,#500,#191,.T.);
#611=EDGE_CURVE('',#500,#501,#192,.F.);
#612=EDGE_CURVE('',#501,#502,#193,.F.);
#613=EDGE_CURVE('',#502,#503,#194,.F.);
#614=EDGE_CURVE('',#503,#504,#195,.T.);
#615=EDGE_CURVE('',#504,#505,#196,.F.);
#616=EDGE_CURVE('',#505,#506,#197,.F.);
#617=EDGE_CURVE('',#506,#507,#198,.F.);
#618=EDGE_CURVE('',#507,#508,#199,.F.);
#619=EDGE_CURVE('',#508,#509,#200,.F.);
#620=EDGE_CURVE('',#509,#510,#201,.T.);
#621=EDGE_CURVE('',#510,#511,#202,.T.);
#622=EDGE_CURVE('',#511,#512,#203,.T.);
#623=EDGE_CURVE('',#512,#513,#204,.T.);
#624=EDGE_CURVE('',#513,#514,#205,.T.);
#625=EDGE_CURVE('',#514,#515,#206,.T.);
#626=EDGE_CURVE('',#515,#516,#442,.T.);
#627=EDGE_CURVE('',#516,#517,#207,.T.);
#628=EDGE_CURVE('',#517,#518,#443,.T.);
#629=EDGE_CURVE('',#518,#466,#208,.T.);
#630=EDGE_CURVE('',#519,#464,#209,.T.);
#631=EDGE_CURVE('',#467,#519,#210,.T.);
#632=EDGE_CURVE('',#519,#520,#444,.T.);
#633=EDGE_CURVE('',#520,#468,#211,.T.);
#634=EDGE_CURVE('',#521,#522,#445,.T.);
#635=EDGE_CURVE('',#522,#489,#212,.T.);
#636=EDGE_CURVE('',#488,#521,#213,.T.);
#637=EDGE_CURVE('',#463,#523,#214,.T.);
#638=EDGE_CURVE('',#523,#524,#446,.T.);
#639=EDGE_CURVE('',#524,#525,#215,.T.);
#640=EDGE_CURVE('',#525,#526,#447,.T.);
#641=EDGE_CURVE('',#526,#527,#216,.T.);
#642=EDGE_CURVE('',#527,#528,#217,.T.);
#643=EDGE_CURVE('',#528,#529,#218,.T.);
#644=EDGE_CURVE('',#529,#530,#219,.T.);
#645=EDGE_CURVE('',#530,#531,#220,.T.);
#646=EDGE_CURVE('',#531,#532,#221,.T.);
#647=EDGE_CURVE('',#532,#533,#222,.T.);
#648=EDGE_CURVE('',#533,#534,#223,.T.);
#649=EDGE_CURVE('',#534,#535,#448,.T.);
#650=EDGE_CURVE('',#535,#536,#224,.T.);
#651=EDGE_CURVE('',#536,#537,#449,.T.);
#652=EDGE_CURVE('',#537,#538,#225,.T.);
#653=EDGE_CURVE('',#538,#539,#450,.T.);
#654=EDGE_CURVE('',#539,#522,#226,.T.);
#655=EDGE_CURVE('',#521,#540,#227,.T.);
#656=EDGE_CURVE('',#541,#540,#451,.T.);
#657=EDGE_CURVE('',#541,#542,#228,.T.);
#658=EDGE_CURVE('',#542,#543,#452,.T.);
#659=EDGE_CURVE('',#543,#544,#229,.T.);
#660=EDGE_CURVE('',#544,#545,#453,.T.);
#661=EDGE_CURVE('',#545,#546,#230,.T.);
#662=EDGE_CURVE('',#546,#547,#454,.T.);
#663=EDGE_CURVE('',#547,#548,#231,.T.);
#664=EDGE_CURVE('',#548,#549,#455,.T.);
#665=EDGE_CURVE('',#549,#550,#232,.T.);
#666=EDGE_CURVE('',#550,#551,#456,.T.);
#667=EDGE_CURVE('',#551,#552,#233,.T.);
#668=EDGE_CURVE('',#552,#553,#457,.T.);
#669=EDGE_CURVE('',#553,#554,#458,.T.);
#670=EDGE_CURVE('',#554,#555,#234,.T.);
#671=EDGE_CURVE('',#555,#556,#459,.T.);
#672=EDGE_CURVE('',#556,#557,#235,.T.);
#673=EDGE_CURVE('',#557,#558,#460,.T.);
#674=EDGE_CURVE('',#558,#520,#236,.T.);
#675=EDGE_CURVE('',#559,#559,#461,.T.);
#676=EDGE_CURVE('',#540,#487,#237,.T.);
#677=EDGE_CURVE('',#486,#541,#238,.T.);
#678=EDGE_CURVE('',#560,#560,#462,.T.);
#679=EDGE_CURVE('',#560,#559,#239,.T.);
#680=EDGE_CURVE('',#561,#562,#240,.T.);
#681=EDGE_CURVE('',#563,#561,#241,.T.);
#682=EDGE_CURVE('',#564,#563,#242,.T.);
#683=EDGE_CURVE('',#565,#564,#243,.T.);
#684=EDGE_CURVE('',#566,#565,#244,.F.);
#685=EDGE_CURVE('',#567,#566,#245,.T.);
#686=EDGE_CURVE('',#568,#567,#246,.T.);
#687=EDGE_CURVE('',#562,#568,#247,.T.);
#688=EDGE_CURVE('',#562,#508,#248,.T.);
#689=EDGE_CURVE('',#561,#507,#249,.F.);
#690=EDGE_CURVE('',#568,#501,#250,.T.);
#691=EDGE_CURVE('',#500,#569,#251,.T.);
#692=EDGE_CURVE('',#569,#570,#252,.F.);
#693=EDGE_CURVE('',#570,#509,#253,.F.);
#694=EDGE_CURVE('',#567,#502,#254,.F.);
#695=EDGE_CURVE('',#566,#503,#255,.T.);
#696=EDGE_CURVE('',#571,#499,#256,.T.);
#697=EDGE_CURVE('',#569,#571,#257,.T.);
#698=EDGE_CURVE('',#572,#571,#258,.T.);
#699=EDGE_CURVE('',#572,#570,#259,.F.);
#700=EDGE_CURVE('',#510,#572,#260,.T.);
#701=EDGE_CURVE('',#565,#504,#261,.T.);
#702=EDGE_CURVE('',#528,#513,#262,.T.);
#703=EDGE_CURVE('',#529,#512,#263,.T.);
#704=EDGE_CURVE('',#530,#511,#264,.T.);
#705=EDGE_CURVE('',#531,#498,#265,.T.);
#706=EDGE_CURVE('',#532,#497,#266,.T.);
#707=EDGE_CURVE('',#533,#496,#267,.T.);
#708=EDGE_CURVE('',#563,#506,#268,.F.);
#709=EDGE_CURVE('',#564,#505,#269,.F.);
#710=EDGE_CURVE('',#514,#527,#270,.T.);
#711=EDGE_CURVE('',#495,#534,#271,.T.);
#712=EDGE_CURVE('',#515,#526,#272,.T.);
#713=EDGE_CURVE('',#475,#552,#273,.T.);
#714=EDGE_CURVE('',#476,#551,#274,.T.);
#715=EDGE_CURVE('',#477,#550,#275,.T.);
#716=EDGE_CURVE('',#478,#549,#276,.T.);
#717=EDGE_CURVE('',#479,#548,#277,.T.);
#718=EDGE_CURVE('',#480,#547,#278,.T.);
#719=EDGE_CURVE('',#481,#546,#279,.T.);
#720=EDGE_CURVE('',#482,#545,#280,.T.);
#721=EDGE_CURVE('',#483,#544,#281,.T.);
#722=EDGE_CURVE('',#484,#543,#282,.T.);
#723=EDGE_CURVE('',#485,#542,#283,.T.);
#724=EDGE_CURVE('',#490,#539,#284,.T.);
#725=EDGE_CURVE('',#491,#538,#285,.T.);
#726=EDGE_CURVE('',#492,#537,#286,.T.);
#727=EDGE_CURVE('',#493,#536,#287,.T.);
#728=EDGE_CURVE('',#494,#535,#288,.T.);
#729=EDGE_CURVE('',#516,#525,#289,.T.);
#730=EDGE_CURVE('',#517,#524,#290,.T.);
#731=EDGE_CURVE('',#518,#523,#291,.T.);
#732=EDGE_CURVE('',#469,#558,#292,.T.);
#733=EDGE_CURVE('',#470,#557,#293,.T.);
#734=EDGE_CURVE('',#471,#556,#294,.T.);
#735=EDGE_CURVE('',#472,#555,#295,.T.);
#736=EDGE_CURVE('',#473,#554,#296,.T.);
#737=EDGE_CURVE('',#474,#553,#297,.T.);
#738=ORIENTED_EDGE('',*,*,#573,.T.);
#739=ORIENTED_EDGE('',*,*,#574,.T.);
#740=ORIENTED_EDGE('',*,*,#575,.T.);
#741=ORIENTED_EDGE('',*,*,#576,.T.);
#742=ORIENTED_EDGE('',*,*,#575,.F.);
#743=ORIENTED_EDGE('',*,*,#577,.F.);
#744=ORIENTED_EDGE('',*,*,#578,.F.);
#745=ORIENTED_EDGE('',*,*,#579,.F.);
#746=ORIENTED_EDGE('',*,*,#580,.F.);
#747=ORIENTED_EDGE('',*,*,#581,.F.);
#748=ORIENTED_EDGE('',*,*,#582,.F.);
#749=ORIENTED_EDGE('',*,*,#583,.F.);
#750=ORIENTED_EDGE('',*,*,#584,.F.);
#751=ORIENTED_EDGE('',*,*,#585,.T.);
#752=ORIENTED_EDGE('',*,*,#586,.F.);
#753=ORIENTED_EDGE('',*,*,#587,.T.);
#754=ORIENTED_EDGE('',*,*,#588,.F.);
#755=ORIENTED_EDGE('',*,*,#589,.F.);
#756=ORIENTED_EDGE('',*,*,#590,.F.);
#757=ORIENTED_EDGE('',*,*,#591,.F.);
#758=ORIENTED_EDGE('',*,*,#592,.F.);
#759=ORIENTED_EDGE('',*,*,#593,.F.);
#760=ORIENTED_EDGE('',*,*,#594,.F.);
#761=ORIENTED_EDGE('',*,*,#595,.F.);
#762=ORIENTED_EDGE('',*,*,#596,.F.);
#763=ORIENTED_EDGE('',*,*,#597,.F.);
#764=ORIENTED_EDGE('',*,*,#598,.F.);
#765=ORIENTED_EDGE('',*,*,#599,.F.);
#766=ORIENTED_EDGE('',*,*,#600,.T.);
#767=ORIENTED_EDGE('',*,*,#601,.T.);
#768=ORIENTED_EDGE('',*,*,#602,.T.);
#769=ORIENTED_EDGE('',*,*,#603,.T.);
#770=ORIENTED_EDGE('',*,*,#604,.T.);
#771=ORIENTED_EDGE('',*,*,#605,.T.);
#772=ORIENTED_EDGE('',*,*,#606,.T.);
#773=ORIENTED_EDGE('',*,*,#607,.T.);
#774=ORIENTED_EDGE('',*,*,#608,.T.);
#775=ORIENTED_EDGE('',*,*,#609,.T.);
#776=ORIENTED_EDGE('',*,*,#610,.T.);
#777=ORIENTED_EDGE('',*,*,#611,.T.);
#778=ORIENTED_EDGE('',*,*,#612,.T.);
#779=ORIENTED_EDGE('',*,*,#613,.T.);
#780=ORIENTED_EDGE('',*,*,#614,.T.);
#781=ORIENTED_EDGE('',*,*,#615,.T.);
#782=ORIENTED_EDGE('',*,*,#616,.T.);
#783=ORIENTED_EDGE('',*,*,#617,.T.);
#784=ORIENTED_EDGE('',*,*,#618,.T.);
#785=ORIENTED_EDGE('',*,*,#619,.T.);
#786=ORIENTED_EDGE('',*,*,#620,.T.);
#787=ORIENTED_EDGE('',*,*,#621,.T.);
#788=ORIENTED_EDGE('',*,*,#622,.T.);
#789=ORIENTED_EDGE('',*,*,#623,.T.);
#790=ORIENTED_EDGE('',*,*,#624,.T.);
#791=ORIENTED_EDGE('',*,*,#625,.T.);
#792=ORIENTED_EDGE('',*,*,#626,.T.);
#793=ORIENTED_EDGE('',*,*,#627,.T.);
#794=ORIENTED_EDGE('',*,*,#628,.T.);
#795=ORIENTED_EDGE('',*,*,#629,.T.);
#796=ORIENTED_EDGE('',*,*,#574,.F.);
#797=ORIENTED_EDGE('',*,*,#630,.F.);
#798=ORIENTED_EDGE('',*,*,#631,.F.);
#799=ORIENTED_EDGE('',*,*,#577,.T.);
#800=ORIENTED_EDGE('',*,*,#632,.T.);
#801=ORIENTED_EDGE('',*,*,#633,.T.);
#802=ORIENTED_EDGE('',*,*,#578,.T.);
#803=ORIENTED_EDGE('',*,*,#631,.T.);
#804=ORIENTED_EDGE('',*,*,#634,.T.);
#805=ORIENTED_EDGE('',*,*,#635,.T.);
#806=ORIENTED_EDGE('',*,*,#599,.T.);
#807=ORIENTED_EDGE('',*,*,#636,.T.);
#808=ORIENTED_EDGE('',*,*,#573,.F.);
#809=ORIENTED_EDGE('',*,*,#637,.T.);
#810=ORIENTED_EDGE('',*,*,#638,.T.);
#811=ORIENTED_EDGE('',*,*,#639,.T.);
#812=ORIENTED_EDGE('',*,*,#640,.T.);
#813=ORIENTED_EDGE('',*,*,#641,.T.);
#814=ORIENTED_EDGE('',*,*,#642,.T.);
#815=ORIENTED_EDGE('',*,*,#643,.T.);
#816=ORIENTED_EDGE('',*,*,#644,.T.);
#817=ORIENTED_EDGE('',*,*,#645,.T.);
#818=ORIENTED_EDGE('',*,*,#646,.T.);
#819=ORIENTED_EDGE('',*,*,#647,.T.);
#820=ORIENTED_EDGE('',*,*,#648,.T.);
#821=ORIENTED_EDGE('',*,*,#649,.T.);
#822=ORIENTED_EDGE('',*,*,#650,.T.);
#823=ORIENTED_EDGE('',*,*,#651,.T.);
#824=ORIENTED_EDGE('',*,*,#652,.T.);
#825=ORIENTED_EDGE('',*,*,#653,.T.);
#826=ORIENTED_EDGE('',*,*,#654,.T.);
#827=ORIENTED_EDGE('',*,*,#634,.F.);
#828=ORIENTED_EDGE('',*,*,#655,.T.);
#829=ORIENTED_EDGE('',*,*,#656,.F.);
#830=ORIENTED_EDGE('',*,*,#657,.T.);
#831=ORIENTED_EDGE('',*,*,#658,.T.);
#832=ORIENTED_EDGE('',*,*,#659,.T.);
#833=ORIENTED_EDGE('',*,*,#660,.T.);
#834=ORIENTED_EDGE('',*,*,#661,.T.);
#835=ORIENTED_EDGE('',*,*,#662,.T.);
#836=ORIENTED_EDGE('',*,*,#663,.T.);
#837=ORIENTED_EDGE('',*,*,#664,.T.);
#838=ORIENTED_EDGE('',*,*,#665,.T.);
#839=ORIENTED_EDGE('',*,*,#666,.T.);
#840=ORIENTED_EDGE('',*,*,#667,.T.);
#841=ORIENTED_EDGE('',*,*,#668,.T.);
#842=ORIENTED_EDGE('',*,*,#669,.T.);
#843=ORIENTED_EDGE('',*,*,#670,.T.);
#844=ORIENTED_EDGE('',*,*,#671,.T.);
#845=ORIENTED_EDGE('',*,*,#672,.T.);
#846=ORIENTED_EDGE('',*,*,#673,.T.);
#847=ORIENTED_EDGE('',*,*,#674,.T.);
#848=ORIENTED_EDGE('',*,*,#632,.F.);
#849=ORIENTED_EDGE('',*,*,#630,.T.);
#850=ORIENTED_EDGE('',*,*,#675,.T.);
#851=ORIENTED_EDGE('',*,*,#636,.F.);
#852=ORIENTED_EDGE('',*,*,#598,.T.);
#853=ORIENTED_EDGE('',*,*,#676,.F.);
#854=ORIENTED_EDGE('',*,*,#655,.F.);
#855=ORIENTED_EDGE('',*,*,#656,.T.);
#856=ORIENTED_EDGE('',*,*,#676,.T.);
#857=ORIENTED_EDGE('',*,*,#597,.T.);
#858=ORIENTED_EDGE('',*,*,#677,.T.);
#859=ORIENTED_EDGE('',*,*,#678,.F.);
#860=ORIENTED_EDGE('',*,*,#679,.T.);
#861=ORIENTED_EDGE('',*,*,#675,.F.);
#862=ORIENTED_EDGE('',*,*,#679,.F.);
#863=ORIENTED_EDGE('',*,*,#680,.F.);
#864=ORIENTED_EDGE('',*,*,#681,.F.);
#865=ORIENTED_EDGE('',*,*,#682,.F.);
#866=ORIENTED_EDGE('',*,*,#683,.F.);
#867=ORIENTED_EDGE('',*,*,#684,.F.);
#868=ORIENTED_EDGE('',*,*,#685,.F.);
#869=ORIENTED_EDGE('',*,*,#686,.F.);
#870=ORIENTED_EDGE('',*,*,#687,.F.);
#871=ORIENTED_EDGE('',*,*,#678,.T.);
#872=ORIENTED_EDGE('',*,*,#680,.T.);
#873=ORIENTED_EDGE('',*,*,#688,.T.);
#874=ORIENTED_EDGE('',*,*,#618,.F.);
#875=ORIENTED_EDGE('',*,*,#689,.F.);
#876=ORIENTED_EDGE('',*,*,#687,.T.);
#877=ORIENTED_EDGE('',*,*,#690,.T.);
#878=ORIENTED_EDGE('',*,*,#611,.F.);
#879=ORIENTED_EDGE('',*,*,#691,.T.);
#880=ORIENTED_EDGE('',*,*,#692,.T.);
#881=ORIENTED_EDGE('',*,*,#693,.T.);
#882=ORIENTED_EDGE('',*,*,#619,.F.);
#883=ORIENTED_EDGE('',*,*,#688,.F.);
#884=ORIENTED_EDGE('',*,*,#686,.T.);
#885=ORIENTED_EDGE('',*,*,#694,.T.);
#886=ORIENTED_EDGE('',*,*,#612,.F.);
#887=ORIENTED_EDGE('',*,*,#690,.F.);
#888=ORIENTED_EDGE('',*,*,#685,.T.);
#889=ORIENTED_EDGE('',*,*,#695,.T.);
#890=ORIENTED_EDGE('',*,*,#613,.F.);
#891=ORIENTED_EDGE('',*,*,#694,.F.);
#892=ORIENTED_EDGE('',*,*,#691,.F.);
#893=ORIENTED_EDGE('',*,*,#610,.F.);
#894=ORIENTED_EDGE('',*,*,#696,.F.);
#895=ORIENTED_EDGE('',*,*,#697,.F.);
#896=ORIENTED_EDGE('',*,*,#692,.F.);
#897=ORIENTED_EDGE('',*,*,#697,.T.);
#898=ORIENTED_EDGE('',*,*,#698,.F.);
#899=ORIENTED_EDGE('',*,*,#699,.T.);
#900=ORIENTED_EDGE('',*,*,#693,.F.);
#901=ORIENTED_EDGE('',*,*,#699,.F.);
#902=ORIENTED_EDGE('',*,*,#700,.F.);
#903=ORIENTED_EDGE('',*,*,#620,.F.);
#904=ORIENTED_EDGE('',*,*,#684,.T.);
#905=ORIENTED_EDGE('',*,*,#701,.T.);
#906=ORIENTED_EDGE('',*,*,#614,.F.);
#907=ORIENTED_EDGE('',*,*,#695,.F.);
#908=ORIENTED_EDGE('',*,*,#643,.F.);
#909=ORIENTED_EDGE('',*,*,#702,.T.);
#910=ORIENTED_EDGE('',*,*,#623,.F.);
#911=ORIENTED_EDGE('',*,*,#703,.F.);
#912=ORIENTED_EDGE('',*,*,#644,.F.);
#913=ORIENTED_EDGE('',*,*,#703,.T.);
#914=ORIENTED_EDGE('',*,*,#622,.F.);
#915=ORIENTED_EDGE('',*,*,#704,.F.);
#916=ORIENTED_EDGE('',*,*,#696,.T.);
#917=ORIENTED_EDGE('',*,*,#609,.F.);
#918=ORIENTED_EDGE('',*,*,#705,.F.);
#919=ORIENTED_EDGE('',*,*,#645,.F.);
#920=ORIENTED_EDGE('',*,*,#704,.T.);
#921=ORIENTED_EDGE('',*,*,#621,.F.);
#922=ORIENTED_EDGE('',*,*,#700,.T.);
#923=ORIENTED_EDGE('',*,*,#698,.T.);
#924=ORIENTED_EDGE('',*,*,#646,.F.);
#925=ORIENTED_EDGE('',*,*,#705,.T.);
#926=ORIENTED_EDGE('',*,*,#608,.F.);
#927=ORIENTED_EDGE('',*,*,#706,.F.);
#928=ORIENTED_EDGE('',*,*,#647,.F.);
#929=ORIENTED_EDGE('',*,*,#706,.T.);
#930=ORIENTED_EDGE('',*,*,#607,.F.);
#931=ORIENTED_EDGE('',*,*,#707,.F.);
#932=ORIENTED_EDGE('',*,*,#681,.T.);
#933=ORIENTED_EDGE('',*,*,#689,.T.);
#934=ORIENTED_EDGE('',*,*,#617,.F.);
#935=ORIENTED_EDGE('',*,*,#708,.F.);
#936=ORIENTED_EDGE('',*,*,#682,.T.);
#937=ORIENTED_EDGE('',*,*,#708,.T.);
#938=ORIENTED_EDGE('',*,*,#616,.F.);
#939=ORIENTED_EDGE('',*,*,#709,.F.);
#940=ORIENTED_EDGE('',*,*,#642,.F.);
#941=ORIENTED_EDGE('',*,*,#710,.F.);
#942=ORIENTED_EDGE('',*,*,#624,.F.);
#943=ORIENTED_EDGE('',*,*,#702,.F.);
#944=ORIENTED_EDGE('',*,*,#707,.T.);
#945=ORIENTED_EDGE('',*,*,#606,.F.);
#946=ORIENTED_EDGE('',*,*,#711,.T.);
#947=ORIENTED_EDGE('',*,*,#648,.F.);
#948=ORIENTED_EDGE('',*,*,#710,.T.);
#949=ORIENTED_EDGE('',*,*,#641,.F.);
#950=ORIENTED_EDGE('',*,*,#712,.F.);
#951=ORIENTED_EDGE('',*,*,#625,.F.);
#952=ORIENTED_EDGE('',*,*,#586,.T.);
#953=ORIENTED_EDGE('',*,*,#713,.T.);
#954=ORIENTED_EDGE('',*,*,#667,.F.);
#955=ORIENTED_EDGE('',*,*,#714,.F.);
#956=ORIENTED_EDGE('',*,*,#587,.F.);
#957=ORIENTED_EDGE('',*,*,#714,.T.);
#958=ORIENTED_EDGE('',*,*,#666,.F.);
#959=ORIENTED_EDGE('',*,*,#715,.F.);
#960=ORIENTED_EDGE('',*,*,#588,.T.);
#961=ORIENTED_EDGE('',*,*,#715,.T.);
#962=ORIENTED_EDGE('',*,*,#665,.F.);
#963=ORIENTED_EDGE('',*,*,#716,.F.);
#964=ORIENTED_EDGE('',*,*,#589,.T.);
#965=ORIENTED_EDGE('',*,*,#716,.T.);
#966=ORIENTED_EDGE('',*,*,#664,.F.);
#967=ORIENTED_EDGE('',*,*,#717,.F.);
#968=ORIENTED_EDGE('',*,*,#590,.T.);
#969=ORIENTED_EDGE('',*,*,#717,.T.);
#970=ORIENTED_EDGE('',*,*,#663,.F.);
#971=ORIENTED_EDGE('',*,*,#718,.F.);
#972=ORIENTED_EDGE('',*,*,#591,.T.);
#973=ORIENTED_EDGE('',*,*,#718,.T.);
#974=ORIENTED_EDGE('',*,*,#662,.F.);
#975=ORIENTED_EDGE('',*,*,#719,.F.);
#976=ORIENTED_EDGE('',*,*,#592,.T.);
#977=ORIENTED_EDGE('',*,*,#719,.T.);
#978=ORIENTED_EDGE('',*,*,#661,.F.);
#979=ORIENTED_EDGE('',*,*,#720,.F.);
#980=ORIENTED_EDGE('',*,*,#593,.T.);
#981=ORIENTED_EDGE('',*,*,#720,.T.);
#982=ORIENTED_EDGE('',*,*,#660,.F.);
#983=ORIENTED_EDGE('',*,*,#721,.F.);
#984=ORIENTED_EDGE('',*,*,#594,.T.);
#985=ORIENTED_EDGE('',*,*,#721,.T.);
#986=ORIENTED_EDGE('',*,*,#659,.F.);
#987=ORIENTED_EDGE('',*,*,#722,.F.);
#988=ORIENTED_EDGE('',*,*,#595,.T.);
#989=ORIENTED_EDGE('',*,*,#722,.T.);
#990=ORIENTED_EDGE('',*,*,#658,.F.);
#991=ORIENTED_EDGE('',*,*,#723,.F.);
#992=ORIENTED_EDGE('',*,*,#677,.F.);
#993=ORIENTED_EDGE('',*,*,#596,.T.);
#994=ORIENTED_EDGE('',*,*,#723,.T.);
#995=ORIENTED_EDGE('',*,*,#657,.F.);
#996=ORIENTED_EDGE('',*,*,#635,.F.);
#997=ORIENTED_EDGE('',*,*,#654,.F.);
#998=ORIENTED_EDGE('',*,*,#724,.F.);
#999=ORIENTED_EDGE('',*,*,#600,.F.);
#1000=ORIENTED_EDGE('',*,*,#601,.F.);
#1001=ORIENTED_EDGE('',*,*,#724,.T.);
#1002=ORIENTED_EDGE('',*,*,#653,.F.);
#1003=ORIENTED_EDGE('',*,*,#725,.F.);
#1004=ORIENTED_EDGE('',*,*,#602,.F.);
#1005=ORIENTED_EDGE('',*,*,#725,.T.);
#1006=ORIENTED_EDGE('',*,*,#652,.F.);
#1007=ORIENTED_EDGE('',*,*,#726,.F.);
#1008=ORIENTED_EDGE('',*,*,#603,.F.);
#1009=ORIENTED_EDGE('',*,*,#726,.T.);
#1010=ORIENTED_EDGE('',*,*,#651,.F.);
#1011=ORIENTED_EDGE('',*,*,#727,.F.);
#1012=ORIENTED_EDGE('',*,*,#604,.F.);
#1013=ORIENTED_EDGE('',*,*,#727,.T.);
#1014=ORIENTED_EDGE('',*,*,#650,.F.);
#1015=ORIENTED_EDGE('',*,*,#728,.F.);
#1016=ORIENTED_EDGE('',*,*,#605,.F.);
#1017=ORIENTED_EDGE('',*,*,#728,.T.);
#1018=ORIENTED_EDGE('',*,*,#649,.F.);
#1019=ORIENTED_EDGE('',*,*,#711,.F.);
#1020=ORIENTED_EDGE('',*,*,#683,.T.);
#1021=ORIENTED_EDGE('',*,*,#709,.T.);
#1022=ORIENTED_EDGE('',*,*,#615,.F.);
#1023=ORIENTED_EDGE('',*,*,#701,.F.);
#1024=ORIENTED_EDGE('',*,*,#626,.F.);
#1025=ORIENTED_EDGE('',*,*,#712,.T.);
#1026=ORIENTED_EDGE('',*,*,#640,.F.);
#1027=ORIENTED_EDGE('',*,*,#729,.F.);
#1028=ORIENTED_EDGE('',*,*,#627,.F.);
#1029=ORIENTED_EDGE('',*,*,#729,.T.);
#1030=ORIENTED_EDGE('',*,*,#639,.F.);
#1031=ORIENTED_EDGE('',*,*,#730,.F.);
#1032=ORIENTED_EDGE('',*,*,#628,.F.);
#1033=ORIENTED_EDGE('',*,*,#730,.T.);
#1034=ORIENTED_EDGE('',*,*,#638,.F.);
#1035=ORIENTED_EDGE('',*,*,#731,.F.);
#1036=ORIENTED_EDGE('',*,*,#576,.F.);
#1037=ORIENTED_EDGE('',*,*,#629,.F.);
#1038=ORIENTED_EDGE('',*,*,#731,.T.);
#1039=ORIENTED_EDGE('',*,*,#637,.F.);
#1040=ORIENTED_EDGE('',*,*,#633,.F.);
#1041=ORIENTED_EDGE('',*,*,#674,.F.);
#1042=ORIENTED_EDGE('',*,*,#732,.F.);
#1043=ORIENTED_EDGE('',*,*,#579,.T.);
#1044=ORIENTED_EDGE('',*,*,#580,.T.);
#1045=ORIENTED_EDGE('',*,*,#732,.T.);
#1046=ORIENTED_EDGE('',*,*,#673,.F.);
#1047=ORIENTED_EDGE('',*,*,#733,.F.);
#1048=ORIENTED_EDGE('',*,*,#581,.T.);
#1049=ORIENTED_EDGE('',*,*,#733,.T.);
#1050=ORIENTED_EDGE('',*,*,#672,.F.);
#1051=ORIENTED_EDGE('',*,*,#734,.F.);
#1052=ORIENTED_EDGE('',*,*,#582,.T.);
#1053=ORIENTED_EDGE('',*,*,#734,.T.);
#1054=ORIENTED_EDGE('',*,*,#671,.F.);
#1055=ORIENTED_EDGE('',*,*,#735,.F.);
#1056=ORIENTED_EDGE('',*,*,#583,.T.);
#1057=ORIENTED_EDGE('',*,*,#735,.T.);
#1058=ORIENTED_EDGE('',*,*,#670,.F.);
#1059=ORIENTED_EDGE('',*,*,#736,.F.);
#1060=ORIENTED_EDGE('',*,*,#584,.T.);
#1061=ORIENTED_EDGE('',*,*,#736,.T.);
#1062=ORIENTED_EDGE('',*,*,#669,.F.);
#1063=ORIENTED_EDGE('',*,*,#737,.F.);
#1064=ORIENTED_EDGE('',*,*,#585,.F.);
#1065=ORIENTED_EDGE('',*,*,#737,.T.);
#1066=ORIENTED_EDGE('',*,*,#668,.F.);
#1067=ORIENTED_EDGE('',*,*,#713,.F.);
#1068=CYLINDRICAL_SURFACE('',#1158,1.);
#1069=CYLINDRICAL_SURFACE('',#1180,1.);
#1070=CYLINDRICAL_SURFACE('',#1182,1.);
#1071=CYLINDRICAL_SURFACE('',#1202,1.);
#1072=CYLINDRICAL_SURFACE('',#1203,5.);
#1073=CYLINDRICAL_SURFACE('',#1225,0.9);
#1074=CYLINDRICAL_SURFACE('',#1227,1.1);
#1075=CYLINDRICAL_SURFACE('',#1229,1.85);
#1076=CYLINDRICAL_SURFACE('',#1231,1.85);
#1077=CYLINDRICAL_SURFACE('',#1233,1.1);
#1078=CYLINDRICAL_SURFACE('',#1236,4.1);
#1079=CYLINDRICAL_SURFACE('',#1238,4.85);
#1080=CYLINDRICAL_SURFACE('',#1240,4.85);
#1081=CYLINDRICAL_SURFACE('',#1242,4.85);
#1082=CYLINDRICAL_SURFACE('',#1244,4.85);
#1083=CYLINDRICAL_SURFACE('',#1247,1.85);
#1084=CYLINDRICAL_SURFACE('',#1249,1.85);
#1085=CYLINDRICAL_SURFACE('',#1251,1.85);
#1086=CYLINDRICAL_SURFACE('',#1252,0.899999999999999);
#1087=ADVANCED_FACE('',(#55),#1068,.T.);
#1088=ADVANCED_FACE('',(#56),#17,.T.);
#1089=ADVANCED_FACE('',(#57),#18,.T.);
#1090=ADVANCED_FACE('',(#58),#1069,.T.);
#1091=ADVANCED_FACE('',(#59),#1070,.T.);
#1092=ADVANCED_FACE('',(#60,#15),#19,.F.);
#1093=ADVANCED_FACE('',(#61),#20,.T.);
#1094=ADVANCED_FACE('',(#62),#1071,.T.);
#1095=ADVANCED_FACE('',(#63),#1072,.F.);
#1096=ADVANCED_FACE('',(#64,#16),#21,.F.);
#1097=ADVANCED_FACE('',(#65),#22,.T.);
#1098=ADVANCED_FACE('',(#66),#23,.T.);
#1099=ADVANCED_FACE('',(#67),#24,.T.);
#1100=ADVANCED_FACE('',(#68),#25,.T.);
#1101=ADVANCED_FACE('',(#69),#26,.T.);
#1102=ADVANCED_FACE('',(#70),#27,.F.);
#1103=ADVANCED_FACE('',(#71),#28,.F.);
#1104=ADVANCED_FACE('',(#72),#29,.F.);
#1105=ADVANCED_FACE('',(#73),#30,.T.);
#1106=ADVANCED_FACE('',(#74),#31,.T.);
#1107=ADVANCED_FACE('',(#75),#32,.T.);
#1108=ADVANCED_FACE('',(#76),#33,.T.);
#1109=ADVANCED_FACE('',(#77),#34,.T.);
#1110=ADVANCED_FACE('',(#78),#35,.T.);
#1111=ADVANCED_FACE('',(#79),#36,.T.);
#1112=ADVANCED_FACE('',(#80),#37,.T.);
#1113=ADVANCED_FACE('',(#81),#38,.T.);
#1114=ADVANCED_FACE('',(#82),#39,.T.);
#1115=ADVANCED_FACE('',(#83),#40,.T.);
#1116=ADVANCED_FACE('',(#84),#1073,.T.);
#1117=ADVANCED_FACE('',(#85),#41,.T.);
#1118=ADVANCED_FACE('',(#86),#1074,.F.);
#1119=ADVANCED_FACE('',(#87),#42,.T.);
#1120=ADVANCED_FACE('',(#88),#1075,.F.);
#1121=ADVANCED_FACE('',(#89),#43,.T.);
#1122=ADVANCED_FACE('',(#90),#1076,.F.);
#1123=ADVANCED_FACE('',(#91),#44,.T.);
#1124=ADVANCED_FACE('',(#92),#1077,.F.);
#1125=ADVANCED_FACE('',(#93),#45,.T.);
#1126=ADVANCED_FACE('',(#94),#46,.T.);
#1127=ADVANCED_FACE('',(#95),#1078,.T.);
#1128=ADVANCED_FACE('',(#96),#47,.T.);
#1129=ADVANCED_FACE('',(#97),#1079,.T.);
#1130=ADVANCED_FACE('',(#98),#48,.T.);
#1131=ADVANCED_FACE('',(#99),#1080,.T.);
#1132=ADVANCED_FACE('',(#100),#49,.T.);
#1133=ADVANCED_FACE('',(#101),#1081,.T.);
#1134=ADVANCED_FACE('',(#102),#50,.T.);
#1135=ADVANCED_FACE('',(#103),#1082,.T.);
#1136=ADVANCED_FACE('',(#104),#51,.T.);
#1137=ADVANCED_FACE('',(#105),#52,.T.);
#1138=ADVANCED_FACE('',(#106),#1083,.F.);
#1139=ADVANCED_FACE('',(#107),#53,.T.);
#1140=ADVANCED_FACE('',(#108),#1084,.F.);
#1141=ADVANCED_FACE('',(#109),#54,.T.);
#1142=ADVANCED_FACE('',(#110),#1085,.F.);
#1143=ADVANCED_FACE('',(#111),#1086,.T.);
#1144=CLOSED_SHELL('',(#1087,#1088,#1089,#1090,#1091,#1092,#1093,#1094,
#1095,#1096,#1097,#1098,#1099,#1100,#1101,#1102,#1103,#1104,#1105,#1106,
#1107,#1108,#1109,#1110,#1111,#1112,#1113,#1114,#1115,#1116,#1117,#1118,
#1119,#1120,#1121,#1122,#1123,#1124,#1125,#1126,#1127,#1128,#1129,#1130,
#1131,#1132,#1133,#1134,#1135,#1136,#1137,#1138,#1139,#1140,#1141,#1142,
#1143));
#1145=DERIVED_UNIT_ELEMENT(#1147,1.);
#1146=DERIVED_UNIT_ELEMENT(#1910,-3.);
#1147=(
MASS_UNIT()
NAMED_UNIT(*)
SI_UNIT(.KILO.,.GRAM.)
);
#1148=DERIVED_UNIT((#1145,#1146));
#1149=MEASURE_REPRESENTATION_ITEM('density measure',
POSITIVE_RATIO_MEASURE(7850.),#1148);
#1150=PROPERTY_DEFINITION_REPRESENTATION(#1155,#1152);
#1151=PROPERTY_DEFINITION_REPRESENTATION(#1156,#1153);
#1152=REPRESENTATION('material name',(#1154),#1907);
#1153=REPRESENTATION('density',(#1149),#1907);
#1154=DESCRIPTIVE_REPRESENTATION_ITEM('Steel','Steel');
#1155=PROPERTY_DEFINITION('material property','material name',#1917);
#1156=PROPERTY_DEFINITION('material property','density of part',#1917);
#1157=AXIS2_PLACEMENT_3D('',#1572,#1253,#1254);
#1158=AXIS2_PLACEMENT_3D('',#1573,#1255,#1256);
#1159=AXIS2_PLACEMENT_3D('',#1576,#1257,#1258);
#1160=AXIS2_PLACEMENT_3D('',#1580,#1260,#1261);
#1161=AXIS2_PLACEMENT_3D('',#1582,#1263,#1264);
#1162=AXIS2_PLACEMENT_3D('',#1586,#1266,#1267);
#1163=AXIS2_PLACEMENT_3D('',#1590,#1269,#1270);
#1164=AXIS2_PLACEMENT_3D('',#1594,#1272,#1273);
#1165=AXIS2_PLACEMENT_3D('',#1598,#1275,#1276);
#1166=AXIS2_PLACEMENT_3D('',#1600,#1277,#1278);
#1167=AXIS2_PLACEMENT_3D('',#1604,#1280,#1281);
#1168=AXIS2_PLACEMENT_3D('',#1608,#1283,#1284);
#1169=AXIS2_PLACEMENT_3D('',#1612,#1286,#1287);
#1170=AXIS2_PLACEMENT_3D('',#1616,#1289,#1290);
#1171=AXIS2_PLACEMENT_3D('',#1620,#1292,#1293);
#1172=AXIS2_PLACEMENT_3D('',#1624,#1295,#1296);
#1173=AXIS2_PLACEMENT_3D('',#1628,#1298,#1299);
#1174=AXIS2_PLACEMENT_3D('',#1632,#1301,#1302);
#1175=AXIS2_PLACEMENT_3D('',#1636,#1304,#1305);
#1176=AXIS2_PLACEMENT_3D('',#1640,#1307,#1308);
#1177=AXIS2_PLACEMENT_3D('',#1682,#1329,#1330);
#1178=AXIS2_PLACEMENT_3D('',#1686,#1332,#1333);
#1179=AXIS2_PLACEMENT_3D('',#1688,#1335,#1336);
#1180=AXIS2_PLACEMENT_3D('',#1692,#1339,#1340);
#1181=AXIS2_PLACEMENT_3D('',#1694,#1341,#1342);
#1182=AXIS2_PLACEMENT_3D('',#1696,#1344,#1345);
#1183=AXIS2_PLACEMENT_3D('',#1699,#1346,#1347);
#1184=AXIS2_PLACEMENT_3D('',#1702,#1350,#1351);
#1185=AXIS2_PLACEMENT_3D('',#1706,#1353,#1354);
#1186=AXIS2_PLACEMENT_3D('',#1710,#1356,#1357);
#1187=AXIS2_PLACEMENT_3D('',#1728,#1366,#1367);
#1188=AXIS2_PLACEMENT_3D('',#1732,#1369,#1370);
#1189=AXIS2_PLACEMENT_3D('',#1736,#1372,#1373);
#1190=AXIS2_PLACEMENT_3D('',#1741,#1376,#1377);
#1191=AXIS2_PLACEMENT_3D('',#1745,#1379,#1380);
#1192=AXIS2_PLACEMENT_3D('',#1749,#1382,#1383);
#1193=AXIS2_PLACEMENT_3D('',#1753,#1385,#1386);
#1194=AXIS2_PLACEMENT_3D('',#1757,#1388,#1389);
#1195=AXIS2_PLACEMENT_3D('',#1761,#1391,#1392);
#1196=AXIS2_PLACEMENT_3D('',#1765,#1394,#1395);
#1197=AXIS2_PLACEMENT_3D('',#1767,#1396,#1397);
#1198=AXIS2_PLACEMENT_3D('',#1771,#1399,#1400);
#1199=AXIS2_PLACEMENT_3D('',#1775,#1402,#1403);
#1200=AXIS2_PLACEMENT_3D('',#1778,#1405,#1406);
#1201=AXIS2_PLACEMENT_3D('',#1779,#1407,#1408);
#1202=AXIS2_PLACEMENT_3D('',#1781,#1410,#1411);
#1203=AXIS2_PLACEMENT_3D('',#1783,#1413,#1414);
#1204=AXIS2_PLACEMENT_3D('',#1785,#1415,#1416);
#1205=AXIS2_PLACEMENT_3D('',#1787,#1418,#1419);
#1206=AXIS2_PLACEMENT_3D('',#1804,#1428,#1429);
#1207=AXIS2_PLACEMENT_3D('',#1807,#1432,#1433);
#1208=AXIS2_PLACEMENT_3D('',#1814,#1438,#1439);
#1209=AXIS2_PLACEMENT_3D('',#1816,#1441,#1442);
#1210=AXIS2_PLACEMENT_3D('',#1818,#1444,#1445);
#1211=AXIS2_PLACEMENT_3D('',#1822,#1448,#1449);
#1212=AXIS2_PLACEMENT_3D('',#1826,#1452,#1453);
#1213=AXIS2_PLACEMENT_3D('',#1828,#1455,#1456);
#1214=AXIS2_PLACEMENT_3D('',#1830,#1458,#1459);
#1215=AXIS2_PLACEMENT_3D('',#1833,#1462,#1463);
#1216=AXIS2_PLACEMENT_3D('',#1835,#1465,#1466);
#1217=AXIS2_PLACEMENT_3D('',#1837,#1468,#1469);
#1218=AXIS2_PLACEMENT_3D('',#1839,#1471,#1472);
#1219=AXIS2_PLACEMENT_3D('',#1841,#1474,#1475);
#1220=AXIS2_PLACEMENT_3D('',#1843,#1477,#1478);
#1221=AXIS2_PLACEMENT_3D('',#1845,#1480,#1481);
#1222=AXIS2_PLACEMENT_3D('',#1847,#1483,#1484);
#1223=AXIS2_PLACEMENT_3D('',#1849,#1486,#1487);
#1224=AXIS2_PLACEMENT_3D('',#1851,#1489,#1490);
#1225=AXIS2_PLACEMENT_3D('',#1854,#1493,#1494);
#1226=AXIS2_PLACEMENT_3D('',#1856,#1496,#1497);
#1227=AXIS2_PLACEMENT_3D('',#1858,#1499,#1500);
#1228=AXIS2_PLACEMENT_3D('',#1860,#1502,#1503);
#1229=AXIS2_PLACEMENT_3D('',#1862,#1505,#1506);
#1230=AXIS2_PLACEMENT_3D('',#1864,#1508,#1509);
#1231=AXIS2_PLACEMENT_3D('',#1866,#1511,#1512);
#1232=AXIS2_PLACEMENT_3D('',#1868,#1514,#1515);
#1233=AXIS2_PLACEMENT_3D('',#1870,#1517,#1518);
#1234=AXIS2_PLACEMENT_3D('',#1872,#1520,#1521);
#1235=AXIS2_PLACEMENT_3D('',#1873,#1522,#1523);
#1236=AXIS2_PLACEMENT_3D('',#1875,#1525,#1526);
#1237=AXIS2_PLACEMENT_3D('',#1877,#1528,#1529);
#1238=AXIS2_PLACEMENT_3D('',#1879,#1531,#1532);
#1239=AXIS2_PLACEMENT_3D('',#1881,#1534,#1535);
#1240=AXIS2_PLACEMENT_3D('',#1883,#1537,#1538);
#1241=AXIS2_PLACEMENT_3D('',#1884,#1539,#1540);
#1242=AXIS2_PLACEMENT_3D('',#1885,#1541,#1542);
#1243=AXIS2_PLACEMENT_3D('',#1887,#1544,#1545);
#1244=AXIS2_PLACEMENT_3D('',#1889,#1547,#1548);
#1245=AXIS2_PLACEMENT_3D('',#1891,#1550,#1551);
#1246=AXIS2_PLACEMENT_3D('',#1892,#1552,#1553);
#1247=AXIS2_PLACEMENT_3D('',#1894,#1555,#1556);
#1248=AXIS2_PLACEMENT_3D('',#1896,#1558,#1559);
#1249=AXIS2_PLACEMENT_3D('',#1898,#1561,#1562);
#1250=AXIS2_PLACEMENT_3D('',#1900,#1564,#1565);
#1251=AXIS2_PLACEMENT_3D('',#1902,#1567,#1568);
#1252=AXIS2_PLACEMENT_3D('',#1904,#1570,#1571);
#1253=DIRECTION('axis',(0.,0.,1.));
#1254=DIRECTION('refdir',(1.,0.,0.));
#1255=DIRECTION('center_axis',(0.,-1.,0.));
#1256=DIRECTION('ref_axis',(-0.707106781186548,0.,-0.707106781186548));
#1257=DIRECTION('center_axis',(0.,1.,0.));
#1258=DIRECTION('ref_axis',(-0.707106781186548,0.,-0.707106781186548));
#1259=DIRECTION('',(0.,1.,0.));
#1260=DIRECTION('center_axis',(0.,-1.,0.));
#1261=DIRECTION('ref_axis',(-0.707106781186548,0.,-0.707106781186548));
#1262=DIRECTION('',(0.,-1.,0.));
#1263=DIRECTION('center_axis',(0.,1.,0.));
#1264=DIRECTION('ref_axis',(-1.,0.,0.));
#1265=DIRECTION('',(7.38930075255184E-16,0.,-1.));
#1266=DIRECTION('center_axis',(0.,-1.,0.));
#1267=DIRECTION('ref_axis',(-0.707106781186548,0.,0.707106781186547));
#1268=DIRECTION('',(-1.,0.,-9.9888155809304E-16));
#1269=DIRECTION('center_axis',(0.,1.,0.));
#1270=DIRECTION('ref_axis',(1.,0.,-4.50090415388577E-16));
#1271=DIRECTION('',(0.,0.,-1.));
#1272=DIRECTION('center_axis',(0.,1.,0.));
#1273=DIRECTION('ref_axis',(0.,0.,1.));
#1274=DIRECTION('',(1.,0.,0.));
#1275=DIRECTION('center_axis',(0.,1.,0.));
#1276=DIRECTION('ref_axis',(-0.899770402302445,0.,0.436363636363637));
#1277=DIRECTION('center_axis',(0.,1.,0.));
#1278=DIRECTION('ref_axis',(0.899770402302445,0.,-0.436363636363637));
#1279=DIRECTION('',(1.,0.,0.));
#1280=DIRECTION('center_axis',(0.,1.,0.));
#1281=DIRECTION('ref_axis',(0.,0.,-1.));
#1282=DIRECTION('',(0.470588235294117,0.,-0.882352941176471));
#1283=DIRECTION('center_axis',(0.,1.,0.));
#1284=DIRECTION('ref_axis',(5.0464682937507E-16,0.,1.));
#1285=DIRECTION('',(1.,0.,4.93432455388959E-16));
#1286=DIRECTION('center_axis',(0.,1.,0.));
#1287=DIRECTION('ref_axis',(-1.,0.,3.00060276925718E-16));
#1288=DIRECTION('',(1.95156391047391E-16,0.,1.));
#1289=DIRECTION('center_axis',(0.,1.,0.));
#1290=DIRECTION('ref_axis',(9.00180830777154E-16,0.,-1.));
#1291=DIRECTION('',(-1.,0.,0.));
#1292=DIRECTION('center_axis',(0.,1.,0.));
#1293=DIRECTION('ref_axis',(0.882352941176471,0.,-0.470588235294116));
#1294=DIRECTION('',(-0.470588235294118,0.,-0.882352941176471));
#1295=DIRECTION('center_axis',(0.,-1.,0.));
#1296=DIRECTION('ref_axis',(-0.0964765481755065,0.,0.995335257916718));
#1297=DIRECTION('',(-0.631286571133511,0.,0.775549653540309));
#1298=DIRECTION('center_axis',(0.,-1.,0.));
#1299=DIRECTION('ref_axis',(0.995335257916718,0.,0.096476548175506));
#1300=DIRECTION('',(-0.470588235294118,0.,-0.88235294117647));
#1301=DIRECTION('center_axis',(0.,1.,0.));
#1302=DIRECTION('ref_axis',(0.882352941176471,0.,-0.470588235294117));
#1303=DIRECTION('',(-1.,0.,4.93432455388959E-16));
#1304=DIRECTION('center_axis',(0.,1.,0.));
#1305=DIRECTION('ref_axis',(3.43367945760358E-16,0.,-1.));
#1306=DIRECTION('',(2.08166817117217E-16,0.,1.));
#1307=DIRECTION('center_axis',(0.,1.,0.));
#1308=DIRECTION('ref_axis',(-1.,0.,1.14455981920119E-16));
#1309=DIRECTION('',(1.,0.,4.93432455388959E-16));
#1310=DIRECTION('',(2.21454038009104E-13,0.,1.));
#1311=DIRECTION('',(0.707106781186436,0.,0.707106781186659));
#1312=DIRECTION('',(1.,0.,-7.49738596729773E-16));
#1313=DIRECTION('',(-7.16417050004153E-8,0.,-0.999999999999998));
#1314=DIRECTION('',(1.,0.,5.28776802144167E-13));
#1315=DIRECTION('',(0.707106781186173,0.,0.707106781186922));
#1316=DIRECTION('',(-5.29297251752577E-13,0.,1.));
#1317=DIRECTION('',(0.707106781186922,0.,-0.707106781186173));
#1318=DIRECTION('',(-1.,0.,0.));
#1319=DIRECTION('',(-0.707106781186173,0.,-0.707106781186922));
#1320=DIRECTION('',(5.29817701360986E-13,0.,-1.));
#1321=DIRECTION('',(0.707106781186922,0.,-0.707106781186173));
#1322=DIRECTION('',(1.,0.,5.28776802144167E-13));
#1323=DIRECTION('',(7.16417050004153E-8,0.,0.999999999999998));
#1324=DIRECTION('',(1.,0.,-7.49738596729773E-16));
#1325=DIRECTION('',(0.707106781186657,0.,-0.707106781186438));
#1326=DIRECTION('',(-2.21547755333575E-13,0.,-1.));
#1327=DIRECTION('',(-0.707106781186705,0.,-0.70710678118639));
#1328=DIRECTION('',(1.,0.,0.));
#1329=DIRECTION('center_axis',(0.,1.,0.));
#1330=DIRECTION('ref_axis',(0.,0.,1.));
#1331=DIRECTION('',(0.,0.,-1.));
#1332=DIRECTION('center_axis',(0.,1.,0.));
#1333=DIRECTION('ref_axis',(1.,0.,-1.14455981920119E-16));
#1334=DIRECTION('',(-1.,0.,-9.98881558093037E-16));
#1335=DIRECTION('center_axis',(-1.,0.,-7.38930075255184E-16));
#1336=DIRECTION('ref_axis',(7.38930075255184E-16,0.,-1.));
#1337=DIRECTION('',(7.38930075255184E-16,0.,-1.));
#1338=DIRECTION('',(0.,-1.,0.));
#1339=DIRECTION('center_axis',(0.,-1.,0.));
#1340=DIRECTION('ref_axis',(-0.707106781186548,0.,0.707106781186547));
#1341=DIRECTION('center_axis',(0.,1.,0.));
#1342=DIRECTION('ref_axis',(-0.707106781186548,0.,0.707106781186547));
#1343=DIRECTION('',(0.,1.,0.));
#1344=DIRECTION('center_axis',(0.,-1.,0.));
#1345=DIRECTION('ref_axis',(0.995335257916718,0.,0.096476548175506));
#1346=DIRECTION('center_axis',(0.,1.,0.));
#1347=DIRECTION('ref_axis',(0.995335257916718,0.,0.096476548175506));
#1348=DIRECTION('',(0.,1.,0.));
#1349=DIRECTION('',(0.,-1.,0.));
#1350=DIRECTION('center_axis',(0.,1.,0.));
#1351=DIRECTION('ref_axis',(-1.,0.,0.));
#1352=DIRECTION('',(1.,0.,9.98881558093037E-16));
#1353=DIRECTION('center_axis',(0.,-1.,0.));
#1354=DIRECTION('ref_axis',(1.,0.,-1.14455981920119E-16));
#1355=DIRECTION('',(0.,0.,1.));
#1356=DIRECTION('center_axis',(0.,-1.,0.));
#1357=DIRECTION('ref_axis',(0.,0.,1.));
#1358=DIRECTION('',(-1.,0.,0.));
#1359=DIRECTION('',(0.707106781186705,0.,0.70710678118639));
#1360=DIRECTION('',(2.21547755333575E-13,0.,1.));
#1361=DIRECTION('',(-0.707106781186657,0.,0.707106781186438));
#1362=DIRECTION('',(-1.,0.,7.49738596729773E-16));
#1363=DIRECTION('',(-0.707106781186436,0.,-0.707106781186659));
#1364=DIRECTION('',(-2.21454038009104E-13,0.,-1.));
#1365=DIRECTION('',(-1.,0.,-4.93432455388959E-16));
#1366=DIRECTION('center_axis',(0.,-1.,0.));
#1367=DIRECTION('ref_axis',(-1.,0.,1.14455981920119E-16));
#1368=DIRECTION('',(-2.08166817117217E-16,0.,-1.));
#1369=DIRECTION('center_axis',(0.,-1.,0.));
#1370=DIRECTION('ref_axis',(3.43367945760358E-16,0.,-1.));
#1371=DIRECTION('',(1.,0.,-4.93432455388959E-16));
#1372=DIRECTION('center_axis',(0.,-1.,0.));
#1373=DIRECTION('ref_axis',(0.882352941176471,0.,-0.470588235294117));
#1374=DIRECTION('',(0.470588235294118,0.,0.88235294117647));
#1375=DIRECTION('',(-0.631286571133511,0.,0.775549653540309));
#1376=DIRECTION('center_axis',(0.,1.,0.));
#1377=DIRECTION('ref_axis',(-0.0964765481755065,0.,0.995335257916718));
#1378=DIRECTION('',(-0.470588235294118,0.,-0.882352941176471));
#1379=DIRECTION('center_axis',(0.,1.,0.));
#1380=DIRECTION('ref_axis',(0.882352941176471,0.,-0.470588235294116));
#1381=DIRECTION('',(-1.,0.,0.));
#1382=DIRECTION('center_axis',(0.,1.,0.));
#1383=DIRECTION('ref_axis',(9.00180830777154E-16,0.,-1.));
#1384=DIRECTION('',(1.95156391047391E-16,0.,1.));
#1385=DIRECTION('center_axis',(0.,1.,0.));
#1386=DIRECTION('ref_axis',(-1.,0.,3.00060276925718E-16));
#1387=DIRECTION('',(1.,0.,4.93432455388959E-16));
#1388=DIRECTION('center_axis',(0.,1.,0.));
#1389=DIRECTION('ref_axis',(5.0464682937507E-16,0.,1.));
#1390=DIRECTION('',(0.470588235294117,0.,-0.882352941176471));
#1391=DIRECTION('center_axis',(0.,-1.,0.));
#1392=DIRECTION('ref_axis',(0.,0.,-1.));
#1393=DIRECTION('',(1.,0.,0.));
#1394=DIRECTION('center_axis',(0.,-1.,0.));
#1395=DIRECTION('ref_axis',(0.899770402302445,0.,-0.436363636363637));
#1396=DIRECTION('center_axis',(0.,1.,0.));
#1397=DIRECTION('ref_axis',(-0.899770402302445,0.,0.436363636363637));
#1398=DIRECTION('',(1.,0.,0.));
#1399=DIRECTION('center_axis',(0.,1.,0.));
#1400=DIRECTION('ref_axis',(0.,0.,1.));
#1401=DIRECTION('',(0.,0.,-1.));
#1402=DIRECTION('center_axis',(0.,1.,0.));
#1403=DIRECTION('ref_axis',(1.,0.,-4.50090415388577E-16));
#1404=DIRECTION('',(-1.,0.,-9.9888155809304E-16));
#1405=DIRECTION('center_axis',(0.,1.,0.));
#1406=DIRECTION('ref_axis',(1.,0.,0.));
#1407=DIRECTION('center_axis',(0.775549653540309,0.,0.631286571133511));
#1408=DIRECTION('ref_axis',(-0.631286571133511,0.,0.775549653540309));
#1409=DIRECTION('',(0.,1.,0.));
#1410=DIRECTION('center_axis',(0.,-1.,0.));
#1411=DIRECTION('ref_axis',(-0.0964765481755065,0.,0.995335257916718));
#1412=DIRECTION('',(0.,-1.,0.));
#1413=DIRECTION('center_axis',(0.,1.,0.));
#1414=DIRECTION('ref_axis',(1.,0.,0.));
#1415=DIRECTION('center_axis',(0.,-1.,0.));
#1416=DIRECTION('ref_axis',(1.,0.,0.));
#1417=DIRECTION('',(0.,-1.,0.));
#1418=DIRECTION('center_axis',(0.,-1.,0.));
#1419=DIRECTION('ref_axis',(1.,0.,0.));
#1420=DIRECTION('',(-0.707106781186922,0.,0.707106781186173));
#1421=DIRECTION('',(-5.29817701360986E-13,0.,1.));
#1422=DIRECTION('',(0.707106781186173,0.,0.707106781186922));
#1423=DIRECTION('',(1.,0.,0.));
#1424=DIRECTION('',(-0.707106781186922,0.,0.707106781186173));
#1425=DIRECTION('',(5.29297251752577E-13,0.,-1.));
#1426=DIRECTION('',(-0.707106781186173,0.,-0.707106781186922));
#1427=DIRECTION('',(-1.,0.,-5.28776802144167E-13));
#1428=DIRECTION('center_axis',(-0.707106781186173,0.,-0.707106781186922));
#1429=DIRECTION('ref_axis',(-0.707106781186922,0.,0.707106781186173));
#1430=DIRECTION('',(0.,1.,0.));
#1431=DIRECTION('',(0.,-1.,0.));
#1432=DIRECTION('center_axis',(5.28776802144167E-13,0.,-1.));
#1433=DIRECTION('ref_axis',(-1.,0.,-5.28776802144167E-13));
#1434=DIRECTION('',(0.,1.,0.));
#1435=DIRECTION('',(0.,-1.,0.));
#1436=DIRECTION('',(-1.,0.,-5.28776802144167E-13));
#1437=DIRECTION('',(0.,-1.,0.));
#1438=DIRECTION('center_axis',(0.707106781186922,0.,-0.707106781186173));
#1439=DIRECTION('ref_axis',(-0.707106781186173,0.,-0.707106781186922));
#1440=DIRECTION('',(0.,-1.,0.));
#1441=DIRECTION('center_axis',(1.,0.,5.29297251752577E-13));
#1442=DIRECTION('ref_axis',(5.29297251752577E-13,0.,-1.));
#1443=DIRECTION('',(0.,1.,0.));
#1444=DIRECTION('center_axis',(0.999999999999997,0.,-7.16417050004153E-8));
#1445=DIRECTION('ref_axis',(7.16417050004153E-8,0.,0.999999999999998));
#1446=DIRECTION('',(0.,1.,0.));
#1447=DIRECTION('',(7.16417050004153E-8,0.,0.999999999999998));
#1448=DIRECTION('center_axis',(0.,-1.,0.));
#1449=DIRECTION('ref_axis',(0.,0.,-1.));
#1450=DIRECTION('',(-1.,0.,7.49738596729773E-16));
#1451=DIRECTION('',(7.16417050004153E-8,0.,0.999999999999998));
#1452=DIRECTION('center_axis',(0.999999999999997,0.,-7.16417050004153E-8));
#1453=DIRECTION('ref_axis',(7.16417050004153E-8,0.,0.999999999999998));
#1454=DIRECTION('',(0.,-1.,0.));
#1455=DIRECTION('center_axis',(-0.707106781186173,0.,-0.707106781186922));
#1456=DIRECTION('ref_axis',(-0.707106781186922,0.,0.707106781186173));
#1457=DIRECTION('',(0.,1.,0.));
#1458=DIRECTION('center_axis',(1.,0.,-2.21547755333575E-13));
#1459=DIRECTION('ref_axis',(-2.21547755333575E-13,0.,-1.));
#1460=DIRECTION('',(0.,1.,0.));
#1461=DIRECTION('',(0.,1.,0.));
#1462=DIRECTION('center_axis',(0.707106781186438,0.,0.707106781186657));
#1463=DIRECTION('ref_axis',(0.707106781186657,0.,-0.707106781186438));
#1464=DIRECTION('',(0.,1.,0.));
#1465=DIRECTION('center_axis',(7.49738596729773E-16,0.,1.));
#1466=DIRECTION('ref_axis',(1.,0.,-7.49738596729773E-16));
#1467=DIRECTION('',(0.,1.,0.));
#1468=DIRECTION('center_axis',(-0.707106781186659,0.,0.707106781186436));
#1469=DIRECTION('ref_axis',(0.707106781186436,0.,0.707106781186659));
#1470=DIRECTION('',(0.,1.,0.));
#1471=DIRECTION('center_axis',(-1.,0.,2.21454038009104E-13));
#1472=DIRECTION('ref_axis',(2.21454038009104E-13,0.,1.));
#1473=DIRECTION('',(0.,1.,0.));
#1474=DIRECTION('center_axis',(-1.,0.,-5.29817701360986E-13));
#1475=DIRECTION('ref_axis',(-5.29817701360986E-13,0.,1.));
#1476=DIRECTION('',(0.,-1.,0.));
#1477=DIRECTION('center_axis',(-0.707106781186922,0.,0.707106781186173));
#1478=DIRECTION('ref_axis',(0.707106781186173,0.,0.707106781186922));
#1479=DIRECTION('',(0.,-1.,0.));
#1480=DIRECTION('center_axis',(0.70710678118639,0.,-0.707106781186705));
#1481=DIRECTION('ref_axis',(-0.707106781186705,0.,-0.70710678118639));
#1482=DIRECTION('',(0.,-1.,0.));
#1483=DIRECTION('center_axis',(-4.93432455388959E-16,0.,1.));
#1484=DIRECTION('ref_axis',(-1.,0.,-4.93432455388959E-16));
#1485=DIRECTION('',(0.,-1.,0.));
#1486=DIRECTION('center_axis',(0.,0.,1.));
#1487=DIRECTION('ref_axis',(-1.,0.,0.));
#1488=DIRECTION('',(0.,-1.,0.));
#1489=DIRECTION('center_axis',(0.,0.,-1.));
#1490=DIRECTION('ref_axis',(1.,0.,0.));
#1491=DIRECTION('',(0.,-1.,0.));
#1492=DIRECTION('',(0.,-1.,0.));
#1493=DIRECTION('center_axis',(0.,-1.,0.));
#1494=DIRECTION('ref_axis',(0.,0.,-1.));
#1495=DIRECTION('',(0.,-1.,0.));
#1496=DIRECTION('center_axis',(-0.882352941176471,0.,-0.470588235294117));
#1497=DIRECTION('ref_axis',(0.470588235294117,0.,-0.882352941176471));
#1498=DIRECTION('',(0.,-1.,0.));
#1499=DIRECTION('center_axis',(0.,-1.,0.));
#1500=DIRECTION('ref_axis',(5.0464682937507E-16,0.,1.));
#1501=DIRECTION('',(0.,-1.,0.));
#1502=DIRECTION('center_axis',(4.93432455388959E-16,0.,-1.));
#1503=DIRECTION('ref_axis',(1.,0.,4.93432455388959E-16));
#1504=DIRECTION('',(0.,-1.,0.));
#1505=DIRECTION('center_axis',(0.,-1.,0.));
#1506=DIRECTION('ref_axis',(-1.,0.,3.00060276925718E-16));
#1507=DIRECTION('',(0.,-1.,0.));
#1508=DIRECTION('center_axis',(1.,0.,-1.95156391047391E-16));
#1509=DIRECTION('ref_axis',(1.95156391047391E-16,0.,1.));
#1510=DIRECTION('',(0.,-1.,0.));
#1511=DIRECTION('center_axis',(0.,-1.,0.));
#1512=DIRECTION('ref_axis',(9.00180830777154E-16,0.,-1.));
#1513=DIRECTION('',(0.,-1.,0.));
#1514=DIRECTION('center_axis',(0.,0.,1.));
#1515=DIRECTION('ref_axis',(-1.,0.,0.));
#1516=DIRECTION('',(0.,-1.,0.));
#1517=DIRECTION('center_axis',(0.,-1.,0.));
#1518=DIRECTION('ref_axis',(0.882352941176471,0.,-0.470588235294116));
#1519=DIRECTION('',(0.,-1.,0.));
#1520=DIRECTION('center_axis',(-0.882352941176471,0.,0.470588235294118));
#1521=DIRECTION('ref_axis',(-0.470588235294118,0.,-0.882352941176471));
#1522=DIRECTION('center_axis',(0.88235294117647,0.,-0.470588235294118));
#1523=DIRECTION('ref_axis',(0.470588235294118,0.,0.88235294117647));
#1524=DIRECTION('',(0.,-1.,0.));
#1525=DIRECTION('center_axis',(0.,-1.,0.));
#1526=DIRECTION('ref_axis',(0.882352941176471,0.,-0.470588235294117));
#1527=DIRECTION('',(0.,-1.,0.));
#1528=DIRECTION('center_axis',(-4.93432455388959E-16,0.,-1.));
#1529=DIRECTION('ref_axis',(1.,0.,-4.93432455388959E-16));
#1530=DIRECTION('',(0.,-1.,0.));
#1531=DIRECTION('center_axis',(0.,-1.,0.));
#1532=DIRECTION('ref_axis',(3.43367945760358E-16,0.,-1.));
#1533=DIRECTION('',(0.,-1.,0.));
#1534=DIRECTION('center_axis',(-1.,0.,2.08166817117217E-16));
#1535=DIRECTION('ref_axis',(-2.08166817117217E-16,0.,-1.));
#1536=DIRECTION('',(0.,-1.,0.));
#1537=DIRECTION('center_axis',(0.,-1.,0.));
#1538=DIRECTION('ref_axis',(-1.,0.,1.14455981920119E-16));
#1539=DIRECTION('center_axis',(0.,0.,1.));
#1540=DIRECTION('ref_axis',(-1.,0.,0.));
#1541=DIRECTION('center_axis',(0.,-1.,0.));
#1542=DIRECTION('ref_axis',(0.,0.,1.));
#1543=DIRECTION('',(0.,-1.,0.));
#1544=DIRECTION('center_axis',(1.,0.,0.));
#1545=DIRECTION('ref_axis',(0.,0.,1.));
#1546=DIRECTION('',(0.,-1.,0.));
#1547=DIRECTION('center_axis',(0.,-1.,0.));
#1548=DIRECTION('ref_axis',(1.,0.,-1.14455981920119E-16));
#1549=DIRECTION('',(0.,-1.,0.));
#1550=DIRECTION('center_axis',(9.98881558093037E-16,0.,-1.));
#1551=DIRECTION('ref_axis',(1.,0.,9.98881558093037E-16));
#1552=DIRECTION('center_axis',(-9.9888155809304E-16,0.,1.));
#1553=DIRECTION('ref_axis',(-1.,0.,-9.9888155809304E-16));
#1554=DIRECTION('',(0.,-1.,0.));
#1555=DIRECTION('center_axis',(0.,-1.,0.));
#1556=DIRECTION('ref_axis',(1.,0.,-4.50090415388577E-16));
#1557=DIRECTION('',(0.,-1.,0.));
#1558=DIRECTION('center_axis',(-1.,0.,0.));
#1559=DIRECTION('ref_axis',(0.,0.,-1.));
#1560=DIRECTION('',(0.,-1.,0.));
#1561=DIRECTION('center_axis',(0.,-1.,0.));
#1562=DIRECTION('ref_axis',(0.,0.,1.));
#1563=DIRECTION('',(0.,-1.,0.));
#1564=DIRECTION('center_axis',(0.,0.,-1.));
#1565=DIRECTION('ref_axis',(1.,0.,0.));
#1566=DIRECTION('',(0.,-1.,0.));
#1567=DIRECTION('center_axis',(0.,-1.,0.));
#1568=DIRECTION('ref_axis',(-0.899770402302445,0.,0.436363636363637));
#1569=DIRECTION('',(0.,-1.,0.));
#1570=DIRECTION('center_axis',(0.,-1.,0.));
#1571=DIRECTION('ref_axis',(0.899770402302445,0.,-0.436363636363637));
#1572=CARTESIAN_POINT('',(0.,0.,0.));
#1573=CARTESIAN_POINT('Origin',(16.3385338650714,60.,-5.65));
#1574=CARTESIAN_POINT('',(16.3385338650714,40.,-6.65));
#1575=CARTESIAN_POINT('',(15.3385338650714,40.,-5.65));
#1576=CARTESIAN_POINT('Origin',(16.3385338650714,40.,-5.65));
#1577=CARTESIAN_POINT('',(15.3385338650714,60.,-5.65));
#1578=CARTESIAN_POINT('',(15.3385338650714,60.,-5.65));
#1579=CARTESIAN_POINT('',(16.3385338650714,60.,-6.65));
#1580=CARTESIAN_POINT('Origin',(16.3385338650714,60.,-5.65));
#1581=CARTESIAN_POINT('',(16.3385338650714,60.,-6.65));
#1582=CARTESIAN_POINT('Origin',(9.1,60.,0.));
#1583=CARTESIAN_POINT('',(15.3385338650714,60.,-4.65));
#1584=CARTESIAN_POINT('',(15.3385338650714,60.,-3.65));
#1585=CARTESIAN_POINT('',(16.3385338650714,60.,-3.65));
#1586=CARTESIAN_POINT('Origin',(16.3385338650714,60.,-4.65));
#1587=CARTESIAN_POINT('',(16.45,60.,-3.65));
#1588=CARTESIAN_POINT('',(16.45,60.,-3.65));
#1589=CARTESIAN_POINT('',(18.3,60.,-1.8));
#1590=CARTESIAN_POINT('Origin',(16.45,60.,-1.8));
#1591=CARTESIAN_POINT('',(18.3,60.,1.8));
#1592=CARTESIAN_POINT('',(18.3,60.,1.8));
#1593=CARTESIAN_POINT('',(16.45,60.,3.65));
#1594=CARTESIAN_POINT('Origin',(16.45,60.,1.8));
#1595=CARTESIAN_POINT('',(15.3385338650714,60.,3.65));
#1596=CARTESIAN_POINT('',(15.3385338650714,60.,3.65));
#1597=CARTESIAN_POINT('',(13.6739586208118,60.,2.60727272727273));
#1598=CARTESIAN_POINT('Origin',(15.3385338650714,60.,1.8));
#1599=CARTESIAN_POINT('',(12.8641652587396,60.,2.1));
#1600=CARTESIAN_POINT('Origin',(12.8641652587396,60.,3.));
#1601=CARTESIAN_POINT('',(7.2,60.,2.1));
#1602=CARTESIAN_POINT('',(7.2,60.,2.1));
#1603=CARTESIAN_POINT('',(6.40588235294117,60.,2.5764705882353));
#1604=CARTESIAN_POINT('Origin',(7.2,60.,3.));
#1605=CARTESIAN_POINT('',(4.97058823529412,60.,5.26764705882353));
#1606=CARTESIAN_POINT('',(4.97058823529412,60.,5.26764705882353));
#1607=CARTESIAN_POINT('',(4.,60.,5.85));
#1608=CARTESIAN_POINT('Origin',(4.,60.,4.75));
#1609=CARTESIAN_POINT('',(1.75,60.,5.85));
#1610=CARTESIAN_POINT('',(1.75,60.,5.85));
#1611=CARTESIAN_POINT('',(-0.0999999999999995,60.,4.));
#1612=CARTESIAN_POINT('Origin',(1.75,60.,4.));
#1613=CARTESIAN_POINT('',(-0.100000000000001,60.,-4.));
#1614=CARTESIAN_POINT('',(-0.100000000000001,60.,-4.));
#1615=CARTESIAN_POINT('',(1.75,60.,-5.85));
#1616=CARTESIAN_POINT('Origin',(1.75,60.,-4.));
#1617=CARTESIAN_POINT('',(4.,60.,-5.85));
#1618=CARTESIAN_POINT('',(4.,60.,-5.85));
#1619=CARTESIAN_POINT('',(4.97058823529412,60.,-5.26764705882353));
#1620=CARTESIAN_POINT('Origin',(4.,60.,-4.75));
#1621=CARTESIAN_POINT('',(5.69782600045341,60.,-3.90407624914985));
#1622=CARTESIAN_POINT('',(6.40588235294118,60.,-2.5764705882353));
#1623=CARTESIAN_POINT('',(7.35572859517019,60.,-3.74337791331046));
#1624=CARTESIAN_POINT('Origin',(6.58017894162988,60.,-4.37466448444397));
#1625=CARTESIAN_POINT('',(8.04043447752313,60.,-4.58455438389869));
#1626=CARTESIAN_POINT('',(8.46,60.,-5.1));
#1627=CARTESIAN_POINT('',(8.14723776515929,60.,-5.68642919032632));
#1628=CARTESIAN_POINT('Origin',(7.26488482398282,60.,-5.21584095503221));
#1629=CARTESIAN_POINT('',(7.61764705882353,60.,-6.67941176470588));
#1630=CARTESIAN_POINT('',(8.46,60.,-5.1));
#1631=CARTESIAN_POINT('',(4.,60.,-8.85));
#1632=CARTESIAN_POINT('Origin',(4.,60.,-4.75));
#1633=CARTESIAN_POINT('',(1.75,60.,-8.85));
#1634=CARTESIAN_POINT('',(4.,60.,-8.85));
#1635=CARTESIAN_POINT('',(-3.1,60.,-4.));
#1636=CARTESIAN_POINT('Origin',(1.75,60.,-4.));
#1637=CARTESIAN_POINT('',(-3.1,60.,4.));
#1638=CARTESIAN_POINT('',(-3.1,60.,-4.));
#1639=CARTESIAN_POINT('',(1.75,60.,8.85));
#1640=CARTESIAN_POINT('Origin',(1.75,60.,4.));
#1641=CARTESIAN_POINT('',(2.68208262936497,60.,8.85));
#1642=CARTESIAN_POINT('',(1.75,60.,8.85));
#1643=CARTESIAN_POINT('',(2.68208262936593,60.,13.211626970965));
#1644=CARTESIAN_POINT('',(2.68208262936593,60.,13.211626970965));
#1645=CARTESIAN_POINT('',(6.87045565839737,60.,17.3999999999977));
#1646=CARTESIAN_POINT('',(6.87045565839737,60.,17.3999999999977));
#1647=CARTESIAN_POINT('',(9.33208262936499,60.,17.4000000358186));
#1648=CARTESIAN_POINT('',(12.7937096003326,60.,17.3999999999977));
#1649=CARTESIAN_POINT('',(9.33208249324575,60.,15.4999999999964));
#1650=CARTESIAN_POINT('',(9.33208174996306,60.,5.12500000959596));
#1651=CARTESIAN_POINT('',(7.65746142690493,60.,15.4999999999955));
#1652=CARTESIAN_POINT('',(10.532641237788,60.,15.499999999997));
#1653=CARTESIAN_POINT('',(4.58208262936595,60.,12.4246212024533));
#1654=CARTESIAN_POINT('',(4.12845140923877,60.,11.9709899823256));
#1655=CARTESIAN_POINT('',(4.58208262936825,60.,8.07537879753668));
#1656=CARTESIAN_POINT('',(4.58208262936925,60.,6.19159992310678));
#1657=CARTESIAN_POINT('',(7.65746142690818,60.,5.));
#1658=CARTESIAN_POINT('',(9.25345140924199,60.,3.40401001766789));
#1659=CARTESIAN_POINT('',(12.0067038318271,60.,5.));
#1660=CARTESIAN_POINT('',(10.4421555122809,60.,5.));
#1661=CARTESIAN_POINT('',(15.082082629366,60.,8.07537879754223));
#1662=CARTESIAN_POINT('',(10.4592740942317,60.,3.45257026240304));
#1663=CARTESIAN_POINT('',(15.0820826293637,60.,12.4246212024588));
#1664=CARTESIAN_POINT('',(15.0820826293682,60.,4.05840007689136));
#1665=CARTESIAN_POINT('',(12.0067038318215,60.,15.4999999999978));
#1666=CARTESIAN_POINT('',(16.6780726116952,60.,10.828631220129));
#1667=CARTESIAN_POINT('',(10.3320824932458,60.,15.4999999999969));
#1668=CARTESIAN_POINT('',(10.532641237788,60.,15.499999999997));
#1669=CARTESIAN_POINT('',(10.332082629365,60.,17.3999999641769));
#1670=CARTESIAN_POINT('',(10.3320817499631,60.,5.12499993795426));
#1671=CARTESIAN_POINT('',(12.7937096003326,60.,17.3999999999977));
#1672=CARTESIAN_POINT('',(12.7937096003326,60.,17.3999999999977));
#1673=CARTESIAN_POINT('',(16.9820826293659,60.,13.2116269709657));
#1674=CARTESIAN_POINT('',(16.9820826293659,60.,13.2116269709657));
#1675=CARTESIAN_POINT('',(16.9820826293646,60.,7.28837302902856));
#1676=CARTESIAN_POINT('',(16.9820826293646,60.,7.28837302902856));
#1677=CARTESIAN_POINT('',(16.3437096003358,60.,6.65));
#1678=CARTESIAN_POINT('',(12.7937096003319,60.,3.09999999999773));
#1679=CARTESIAN_POINT('',(16.45,60.,6.65));
#1680=CARTESIAN_POINT('',(15.3385338650714,60.,6.65));
#1681=CARTESIAN_POINT('',(21.3,60.,1.8));
#1682=CARTESIAN_POINT('Origin',(16.45,60.,1.8));
#1683=CARTESIAN_POINT('',(21.3,60.,-1.8));
#1684=CARTESIAN_POINT('',(21.3,60.,1.8));
#1685=CARTESIAN_POINT('',(16.45,60.,-6.65));
#1686=CARTESIAN_POINT('Origin',(16.45,60.,-1.8));
#1687=CARTESIAN_POINT('',(16.45,60.,-6.65));
#1688=CARTESIAN_POINT('Origin',(15.3385338650714,60.,-3.65));
#1689=CARTESIAN_POINT('',(15.3385338650714,40.,-4.65));
#1690=CARTESIAN_POINT('',(15.3385338650714,40.,-3.65));
#1691=CARTESIAN_POINT('',(15.3385338650714,60.,-4.65));
#1692=CARTESIAN_POINT('Origin',(16.3385338650714,60.,-4.65));
#1693=CARTESIAN_POINT('',(16.3385338650714,40.,-3.65));
#1694=CARTESIAN_POINT('Origin',(16.3385338650714,40.,-4.65));
#1695=CARTESIAN_POINT('',(16.3385338650714,60.,-3.65));
#1696=CARTESIAN_POINT('Origin',(7.26488482398282,60.,-5.21584095503221));
#1697=CARTESIAN_POINT('',(8.04043447752313,40.,-4.58455438389869));
#1698=CARTESIAN_POINT('',(8.14723776515929,40.,-5.68642919032632));
#1699=CARTESIAN_POINT('Origin',(7.26488482398282,40.,-5.21584095503221));
#1700=CARTESIAN_POINT('',(8.14723776515929,60.,-5.68642919032632));
#1701=CARTESIAN_POINT('',(8.04043447752313,60.,-4.58455438389869));
#1702=CARTESIAN_POINT('Origin',(9.1,40.,0.));
#1703=CARTESIAN_POINT('',(16.45,40.,-6.65));
#1704=CARTESIAN_POINT('',(16.45,40.,-6.65));
#1705=CARTESIAN_POINT('',(21.3,40.,-1.8));
#1706=CARTESIAN_POINT('Origin',(16.45,40.,-1.8));
#1707=CARTESIAN_POINT('',(21.3,40.,1.8));
#1708=CARTESIAN_POINT('',(21.3,40.,1.8));
#1709=CARTESIAN_POINT('',(16.45,40.,6.65));
#1710=CARTESIAN_POINT('Origin',(16.45,40.,1.8));
#1711=CARTESIAN_POINT('',(16.3437096003358,40.,6.65));
#1712=CARTESIAN_POINT('',(15.3385338650714,40.,6.65));
#1713=CARTESIAN_POINT('',(16.9820826293646,40.,7.28837302902856));
#1714=CARTESIAN_POINT('',(12.7937096003319,40.,3.09999999999773));
#1715=CARTESIAN_POINT('',(16.9820826293659,40.,13.2116269709657));
#1716=CARTESIAN_POINT('',(16.9820826293646,40.,7.28837302902856));
#1717=CARTESIAN_POINT('',(12.7937096003326,40.,17.3999999999977));
#1718=CARTESIAN_POINT('',(16.9820826293659,40.,13.2116269709657));
#1719=CARTESIAN_POINT('',(6.87045565839737,40.,17.3999999999977));
#1720=CARTESIAN_POINT('',(12.7937096003326,40.,17.3999999999977));
#1721=CARTESIAN_POINT('',(2.68208262936593,40.,13.211626970965));
#1722=CARTESIAN_POINT('',(6.87045565839737,40.,17.3999999999977));
#1723=CARTESIAN_POINT('',(2.68208262936497,40.,8.85));
#1724=CARTESIAN_POINT('',(2.68208262936593,40.,13.211626970965));
#1725=CARTESIAN_POINT('',(1.75,40.,8.85));
#1726=CARTESIAN_POINT('',(1.75,40.,8.85));
#1727=CARTESIAN_POINT('',(-3.1,40.,4.));
#1728=CARTESIAN_POINT('Origin',(1.75,40.,4.));
#1729=CARTESIAN_POINT('',(-3.1,40.,-4.));
#1730=CARTESIAN_POINT('',(-3.1,40.,-4.));
#1731=CARTESIAN_POINT('',(1.75,40.,-8.85));
#1732=CARTESIAN_POINT('Origin',(1.75,40.,-4.));
#1733=CARTESIAN_POINT('',(4.,40.,-8.85));
#1734=CARTESIAN_POINT('',(4.,40.,-8.85));
#1735=CARTESIAN_POINT('',(7.61764705882353,40.,-6.67941176470588));
#1736=CARTESIAN_POINT('Origin',(4.,40.,-4.75));
#1737=CARTESIAN_POINT('',(8.46,40.,-5.1));
#1738=CARTESIAN_POINT('',(7.35572859517019,40.,-3.74337791331046));
#1739=CARTESIAN_POINT('',(8.46,40.,-5.1));
#1740=CARTESIAN_POINT('',(5.69782600045341,40.,-3.90407624914985));
#1741=CARTESIAN_POINT('Origin',(6.58017894162988,40.,-4.37466448444397));
#1742=CARTESIAN_POINT('',(4.97058823529412,40.,-5.26764705882353));
#1743=CARTESIAN_POINT('',(6.40588235294118,40.,-2.5764705882353));
#1744=CARTESIAN_POINT('',(4.,40.,-5.85));
#1745=CARTESIAN_POINT('Origin',(4.,40.,-4.75));
#1746=CARTESIAN_POINT('',(1.75,40.,-5.85));
#1747=CARTESIAN_POINT('',(4.,40.,-5.85));
#1748=CARTESIAN_POINT('',(-0.1,40.,-4.));
#1749=CARTESIAN_POINT('Origin',(1.75,40.,-4.));
#1750=CARTESIAN_POINT('',(-0.1,40.,4.));
#1751=CARTESIAN_POINT('',(-0.100000000000001,40.,-4.));
#1752=CARTESIAN_POINT('',(1.75,40.,5.85));
#1753=CARTESIAN_POINT('Origin',(1.75,40.,4.));
#1754=CARTESIAN_POINT('',(4.,40.,5.85));
#1755=CARTESIAN_POINT('',(1.75,40.,5.85));
#1756=CARTESIAN_POINT('',(4.97058823529412,40.,5.26764705882353));
#1757=CARTESIAN_POINT('Origin',(4.,40.,4.75));
#1758=CARTESIAN_POINT('',(6.40588235294117,40.,2.5764705882353));
#1759=CARTESIAN_POINT('',(4.97058823529412,40.,5.26764705882353));
#1760=CARTESIAN_POINT('',(7.2,40.,2.1));
#1761=CARTESIAN_POINT('Origin',(7.2,40.,3.));
#1762=CARTESIAN_POINT('',(12.8641652587396,40.,2.1));
#1763=CARTESIAN_POINT('',(7.2,40.,2.1));
#1764=CARTESIAN_POINT('',(13.6739586208118,40.,2.60727272727273));
#1765=CARTESIAN_POINT('Origin',(12.8641652587396,40.,3.));
#1766=CARTESIAN_POINT('',(15.3385338650714,40.,3.65));
#1767=CARTESIAN_POINT('Origin',(15.3385338650714,40.,1.8));
#1768=CARTESIAN_POINT('',(16.45,40.,3.65));
#1769=CARTESIAN_POINT('',(15.3385338650714,40.,3.65));
#1770=CARTESIAN_POINT('',(18.3,40.,1.8));
#1771=CARTESIAN_POINT('Origin',(16.45,40.,1.8));
#1772=CARTESIAN_POINT('',(18.3,40.,-1.8));
#1773=CARTESIAN_POINT('',(18.3,40.,1.8));
#1774=CARTESIAN_POINT('',(16.45,40.,-3.65));
#1775=CARTESIAN_POINT('Origin',(16.45,40.,-1.8));
#1776=CARTESIAN_POINT('',(16.45,40.,-3.65));
#1777=CARTESIAN_POINT('',(4.83208262936599,40.,10.2499999999977));
#1778=CARTESIAN_POINT('Origin',(9.832082629366,40.,10.2499999999977));
#1779=CARTESIAN_POINT('Origin',(8.46,60.,-5.1));
#1780=CARTESIAN_POINT('',(7.35572859517019,60.,-3.74337791331046));
#1781=CARTESIAN_POINT('Origin',(6.58017894162988,60.,-4.37466448444397));
#1782=CARTESIAN_POINT('',(5.69782600045341,60.,-3.90407624914985));
#1783=CARTESIAN_POINT('Origin',(9.832082629366,40.,10.2499999999977));
#1784=CARTESIAN_POINT('',(4.83208262936599,42.,10.2499999999977));
#1785=CARTESIAN_POINT('Origin',(9.832082629366,42.,10.2499999999977));
#1786=CARTESIAN_POINT('',(4.83208262936599,40.,10.2499999999977));
#1787=CARTESIAN_POINT('Origin',(9.832082629366,42.,10.2499999999977));
#1788=CARTESIAN_POINT('',(15.0820826293637,42.,12.4246212024588));
#1789=CARTESIAN_POINT('',(12.0067038318215,42.,15.4999999999978));
#1790=CARTESIAN_POINT('',(14.2985932690375,42.,13.2081105627842));
#1791=CARTESIAN_POINT('',(15.082082629366,42.,8.07537879754223));
#1792=CARTESIAN_POINT('',(15.0820826293655,42.,9.18340007689004));
#1793=CARTESIAN_POINT('',(12.0067038318271,42.,5.));
#1794=CARTESIAN_POINT('',(13.2047947515725,42.,6.19809091974669));
#1795=CARTESIAN_POINT('',(7.65746142690818,42.,5.));
#1796=CARTESIAN_POINT('',(10.8081968269639,42.,5.));
#1797=CARTESIAN_POINT('',(4.58208262936825,42.,8.07537879753668));
#1798=CARTESIAN_POINT('',(6.87397206658425,42.,5.78348936032311));
#1799=CARTESIAN_POINT('',(4.58208262936595,42.,12.4246212024533));
#1800=CARTESIAN_POINT('',(4.58208262936654,42.,11.3165999231055));
#1801=CARTESIAN_POINT('',(7.65746142690493,42.,15.4999999999955));
#1802=CARTESIAN_POINT('',(6.87397206657952,42.,14.7165106396693));
#1803=CARTESIAN_POINT('',(10.8986825524737,42.,15.4999999999972));
#1804=CARTESIAN_POINT('Origin',(15.0527933074824,40.,12.4539105243401));
#1805=CARTESIAN_POINT('',(12.0067038318215,40.,15.4999999999978));
#1806=CARTESIAN_POINT('',(15.0820826293637,40.,12.4246212024588));
#1807=CARTESIAN_POINT('Origin',(11.9652824755842,40.,15.4999999999978));
#1808=CARTESIAN_POINT('',(7.65746142690493,40.,15.4999999999955));
#1809=CARTESIAN_POINT('',(9.33208249324575,44.,15.4999999999964));
#1810=CARTESIAN_POINT('',(9.33208249324575,50.,15.4999999999964));
#1811=CARTESIAN_POINT('',(10.3320824932458,44.,15.4999999999969));
#1812=CARTESIAN_POINT('',(10.8986824244146,44.,15.4999999999972));
#1813=CARTESIAN_POINT('',(10.3320824932458,50.,15.4999999999969));
#1814=CARTESIAN_POINT('Origin',(7.6281721050236,40.,15.4707106781141));
#1815=CARTESIAN_POINT('',(4.58208262936595,40.,12.4246212024533));
#1816=CARTESIAN_POINT('Origin',(4.58208262936597,40.,12.3831998462159));
#1817=CARTESIAN_POINT('',(4.58208262936825,40.,8.07537879753668));
#1818=CARTESIAN_POINT('Origin',(9.3320821171268,60.,10.2500000358186));
#1819=CARTESIAN_POINT('',(9.33208262936499,44.,17.4000000358186));
#1820=CARTESIAN_POINT('',(9.33208262936499,50.,17.3999999999977));
#1821=CARTESIAN_POINT('',(9.33208224518635,44.,12.0375000358186));
#1822=CARTESIAN_POINT('Origin',(9.83208237324589,44.,13.8249999999978));
#1823=CARTESIAN_POINT('',(10.332082629365,44.,17.3999999641769));
#1824=CARTESIAN_POINT('',(8.35126901582163,44.,17.3999999999977));
#1825=CARTESIAN_POINT('',(10.3320822451863,44.,12.0374999641769));
#1826=CARTESIAN_POINT('Origin',(10.3320821171268,60.,10.2499999641769));
#1827=CARTESIAN_POINT('',(10.332082629365,50.,17.3999999999977));
#1828=CARTESIAN_POINT('Origin',(7.62817210502913,40.,5.02928932187903));
#1829=CARTESIAN_POINT('',(7.65746142690818,50.,5.));
#1830=CARTESIAN_POINT('Origin',(16.9820826293659,40.,13.2116269709657));
#1831=CARTESIAN_POINT('',(16.9820826293646,40.,7.28837302902856));
#1832=CARTESIAN_POINT('',(16.9820826293659,40.,13.2116269709657));
#1833=CARTESIAN_POINT('Origin',(12.7937096003326,40.,17.3999999999977));
#1834=CARTESIAN_POINT('',(12.7937096003326,40.,17.3999999999977));
#1835=CARTESIAN_POINT('Origin',(6.87045565839737,40.,17.3999999999977));
#1836=CARTESIAN_POINT('',(6.87045565839737,40.,17.3999999999977));
#1837=CARTESIAN_POINT('Origin',(2.68208262936593,40.,13.211626970965));
#1838=CARTESIAN_POINT('',(2.68208262936593,40.,13.211626970965));
#1839=CARTESIAN_POINT('Origin',(2.68208262936497,40.,8.85));
#1840=CARTESIAN_POINT('',(2.68208262936497,50.,8.85));
#1841=CARTESIAN_POINT('Origin',(15.082082629366,40.,8.11680015377955));
#1842=CARTESIAN_POINT('',(15.082082629366,40.,8.07537879754224));
#1843=CARTESIAN_POINT('Origin',(12.8651962725484,40.,5.85849244072226));
#1844=CARTESIAN_POINT('',(12.0067038318271,50.,5.));
#1845=CARTESIAN_POINT('Origin',(16.9820826293646,40.,7.28837302902856));
#1846=CARTESIAN_POINT('',(16.3437096003357,50.,6.65));
#1847=CARTESIAN_POINT('Origin',(4.,60.,8.85));
#1848=CARTESIAN_POINT('',(1.75,60.,8.85));
#1849=CARTESIAN_POINT('Origin',(16.45,60.,6.65));
#1850=CARTESIAN_POINT('',(16.45,60.,6.65));
#1851=CARTESIAN_POINT('Origin',(7.2,60.,2.1));
#1852=CARTESIAN_POINT('',(12.8641652587396,60.,2.1));
#1853=CARTESIAN_POINT('',(7.2,60.,2.1));
#1854=CARTESIAN_POINT('Origin',(7.2,60.,3.));
#1855=CARTESIAN_POINT('',(6.40588235294117,60.,2.5764705882353));
#1856=CARTESIAN_POINT('Origin',(4.97058823529412,60.,5.26764705882353));
#1857=CARTESIAN_POINT('',(4.97058823529412,60.,5.26764705882353));
#1858=CARTESIAN_POINT('Origin',(4.,60.,4.75));
#1859=CARTESIAN_POINT('',(4.,60.,5.85));
#1860=CARTESIAN_POINT('Origin',(1.75,60.,5.85));
#1861=CARTESIAN_POINT('',(1.75,60.,5.85));
#1862=CARTESIAN_POINT('Origin',(1.75,60.,4.));
#1863=CARTESIAN_POINT('',(-0.0999999999999995,60.,4.));
#1864=CARTESIAN_POINT('Origin',(-0.100000000000001,60.,-4.));
#1865=CARTESIAN_POINT('',(-0.100000000000001,60.,-4.));
#1866=CARTESIAN_POINT('Origin',(1.75,60.,-4.));
#1867=CARTESIAN_POINT('',(1.75,60.,-5.85));
#1868=CARTESIAN_POINT('Origin',(4.,60.,-5.85));
#1869=CARTESIAN_POINT('',(4.,60.,-5.85));
#1870=CARTESIAN_POINT('Origin',(4.,60.,-4.75));
#1871=CARTESIAN_POINT('',(4.97058823529412,60.,-5.26764705882353));
#1872=CARTESIAN_POINT('Origin',(6.40588235294118,60.,-2.5764705882353));
#1873=CARTESIAN_POINT('Origin',(7.61764705882353,60.,-6.67941176470588));
#1874=CARTESIAN_POINT('',(7.61764705882353,60.,-6.67941176470588));
#1875=CARTESIAN_POINT('Origin',(4.,60.,-4.75));
#1876=CARTESIAN_POINT('',(4.,60.,-8.85));
#1877=CARTESIAN_POINT('Origin',(1.75,60.,-8.85));
#1878=CARTESIAN_POINT('',(1.75,60.,-8.85));
#1879=CARTESIAN_POINT('Origin',(1.75,60.,-4.));
#1880=CARTESIAN_POINT('',(-3.1,60.,-4.));
#1881=CARTESIAN_POINT('Origin',(-3.1,60.,4.));
#1882=CARTESIAN_POINT('',(-3.1,60.,4.));
#1883=CARTESIAN_POINT('Origin',(1.75,60.,4.));
#1884=CARTESIAN_POINT('Origin',(11.7843110245618,60.,5.));
#1885=CARTESIAN_POINT('Origin',(16.45,60.,1.8));
#1886=CARTESIAN_POINT('',(21.3,60.,1.8));
#1887=CARTESIAN_POINT('Origin',(21.3,60.,-1.8));
#1888=CARTESIAN_POINT('',(21.3,60.,-1.8));
#1889=CARTESIAN_POINT('Origin',(16.45,60.,-1.8));
#1890=CARTESIAN_POINT('',(16.45,60.,-6.65));
#1891=CARTESIAN_POINT('Origin',(15.3385338650714,60.,-6.65));
#1892=CARTESIAN_POINT('Origin',(16.45,60.,-3.65));
#1893=CARTESIAN_POINT('',(16.45,60.,-3.65));
#1894=CARTESIAN_POINT('Origin',(16.45,60.,-1.8));
#1895=CARTESIAN_POINT('',(18.3,60.,-1.8));
#1896=CARTESIAN_POINT('Origin',(18.3,60.,1.8));
#1897=CARTESIAN_POINT('',(18.3,60.,1.8));
#1898=CARTESIAN_POINT('Origin',(16.45,60.,1.8));
#1899=CARTESIAN_POINT('',(16.45,60.,3.65));
#1900=CARTESIAN_POINT('Origin',(15.3385338650714,60.,3.65));
#1901=CARTESIAN_POINT('',(15.3385338650714,60.,3.65));
#1902=CARTESIAN_POINT('Origin',(15.3385338650714,60.,1.8));
#1903=CARTESIAN_POINT('',(13.6739586208118,60.,2.60727272727273));
#1904=CARTESIAN_POINT('Origin',(12.8641652587396,60.,3.));
#1905=UNCERTAINTY_MEASURE_WITH_UNIT(LENGTH_MEASURE(0.01),#1909,
'DISTANCE_ACCURACY_VALUE',
'Maximum model space distance between geometric entities at asserted c
onnectivities');
#1906=UNCERTAINTY_MEASURE_WITH_UNIT(LENGTH_MEASURE(0.01),#1909,
'DISTANCE_ACCURACY_VALUE',
'Maximum model space distance between geometric entities at asserted c
onnectivities');
#1907=(
GEOMETRIC_REPRESENTATION_CONTEXT(3)
GLOBAL_UNCERTAINTY_ASSIGNED_CONTEXT((#1905))
GLOBAL_UNIT_ASSIGNED_CONTEXT((#1909,#1911,#1912))
REPRESENTATION_CONTEXT('','3D')
);
#1908=(
GEOMETRIC_REPRESENTATION_CONTEXT(3)
GLOBAL_UNCERTAINTY_ASSIGNED_CONTEXT((#1906))
GLOBAL_UNIT_ASSIGNED_CONTEXT((#1909,#1911,#1912))
REPRESENTATION_CONTEXT('','3D')
);
#1909=(
LENGTH_UNIT()
NAMED_UNIT(*)
SI_UNIT(.MILLI.,.METRE.)
);
#1910=(
LENGTH_UNIT()
NAMED_UNIT(*)
SI_UNIT($,.METRE.)
);
#1911=(
NAMED_UNIT(*)
PLANE_ANGLE_UNIT()
SI_UNIT($,.RADIAN.)
);
#1912=(
NAMED_UNIT(*)
SI_UNIT($,.STERADIAN.)
SOLID_ANGLE_UNIT()
);
#1913=SHAPE_DEFINITION_REPRESENTATION(#1914,#1915);
#1914=PRODUCT_DEFINITION_SHAPE('',$,#1917);
#1915=SHAPE_REPRESENTATION('',(#1157),#1907);
#1916=PRODUCT_DEFINITION_CONTEXT('part definition',#1921,'design');
#1917=PRODUCT_DEFINITION('2026-08-29-11-09-34-882','(Unsaved)',#1918,#1916);
#1918=PRODUCT_DEFINITION_FORMATION('',$,#1923);
#1919=PRODUCT_RELATED_PRODUCT_CATEGORY('(Unsaved)','(Unsaved)',(#1923));
#1920=APPLICATION_PROTOCOL_DEFINITION('international standard',
'automotive_design',2009,#1921);
#1921=APPLICATION_CONTEXT(
'Core Data for Automotive Mechanical Design Process');
#1922=PRODUCT_CONTEXT('part definition',#1921,'mechanical');
#1923=PRODUCT('2026-08-29-11-09-34-882','(Unsaved)',$,(#1922));
#1924=PRESENTATION_STYLE_ASSIGNMENT((#1925));
#1925=SURFACE_STYLE_USAGE(.BOTH.,#1926);
#1926=SURFACE_SIDE_STYLE('',(#1927));
#1927=SURFACE_STYLE_FILL_AREA(#1928);
#1928=FILL_AREA_STYLE('Steel - Satin',(#1929));
#1929=FILL_AREA_STYLE_COLOUR('Steel - Satin',#1930);
#1930=COLOUR_RGB('Steel - Satin',0.627450980392157,0.627450980392157,0.627450980392157);
ENDSEC;
END-ISO-10303-21;
