ISO-10303-21;
HEADER;
/* Generated by software containing ST-Developer
 * from STEP Tools, Inc. (www.steptools.com) 
 */

FILE_DESCRIPTION(
/* description */ (''),
/* implementation_level */ '2;1');

FILE_NAME(
/* name */ 'clamping-base-rail-terminal_v1.0.step',
/* time_stamp */ '2026-08-29T11:09:35-05:00',
/* author */ (''),
/* organization */ (''),
/* preprocessor_version */ 'ST-DEVELOPER v20.1',
/* originating_system */ 'Autodesk Translation Framework v15.8.0.0',
/* authorisation */ '');

FILE_SCHEMA (('AUTOMOTIVE_DESIGN { 1 0 10303 214 3 1 1 }'));
ENDSEC;

DATA;
#10=MECHANICAL_DESIGN_GEOMETRIC_PRESENTATION_REPRESENTATION('',(#13),#803);
#11=SHAPE_REPRESENTATION_RELATIONSHIP('SRR','None',#810,#12);
#12=ADVANCED_BREP_SHAPE_REPRESENTATION('',(#14),#802);
#13=STYLED_ITEM('',(#819),#14);
#14=MANIFOLD_SOLID_BREP('Body1',#483);
#15=CYLINDRICAL_SURFACE('',#515,6.4);
#16=CYLINDRICAL_SURFACE('',#520,2.6);
#17=CYLINDRICAL_SURFACE('',#522,0.5);
#18=CYLINDRICAL_SURFACE('',#525,0.5);
#19=CYLINDRICAL_SURFACE('',#528,0.5);
#20=CYLINDRICAL_SURFACE('',#531,0.5);
#21=FACE_BOUND('',#63,.T.);
#22=FACE_BOUND('',#77,.T.);
#23=FACE_BOUND('',#88,.T.);
#24=CIRCLE('',#499,0.5);
#25=CIRCLE('',#500,0.5);
#26=CIRCLE('',#501,0.5);
#27=CIRCLE('',#502,0.5);
#28=CIRCLE('',#503,2.6);
#29=CIRCLE('',#516,6.4);
#30=CIRCLE('',#517,6.4);
#31=CIRCLE('',#519,2.6);
#32=CIRCLE('',#523,0.5);
#33=CIRCLE('',#526,0.5);
#34=CIRCLE('',#529,0.5);
#35=CIRCLE('',#532,0.5);
#36=FACE_OUTER_BOUND('',#61,.T.);
#37=FACE_OUTER_BOUND('',#62,.T.);
#38=FACE_OUTER_BOUND('',#64,.T.);
#39=FACE_OUTER_BOUND('',#65,.T.);
#40=FACE_OUTER_BOUND('',#66,.T.);
#41=FACE_OUTER_BOUND('',#67,.T.);
#42=FACE_OUTER_BOUND('',#68,.T.);
#43=FACE_OUTER_BOUND('',#69,.T.);
#44=FACE_OUTER_BOUND('',#70,.T.);
#45=FACE_OUTER_BOUND('',#71,.T.);
#46=FACE_OUTER_BOUND('',#72,.T.);
#47=FACE_OUTER_BOUND('',#73,.T.);
#48=FACE_OUTER_BOUND('',#74,.T.);
#49=FACE_OUTER_BOUND('',#75,.T.);
#50=FACE_OUTER_BOUND('',#76,.T.);
#51=FACE_OUTER_BOUND('',#78,.T.);
#52=FACE_OUTER_BOUND('',#79,.T.);
#53=FACE_OUTER_BOUND('',#80,.T.);
#54=FACE_OUTER_BOUND('',#81,.T.);
#55=FACE_OUTER_BOUND('',#82,.T.);
#56=FACE_OUTER_BOUND('',#83,.T.);
#57=FACE_OUTER_BOUND('',#84,.T.);
#58=FACE_OUTER_BOUND('',#85,.T.);
#59=FACE_OUTER_BOUND('',#86,.T.);
#60=FACE_OUTER_BOUND('',#87,.T.);
#61=EDGE_LOOP('',(#307,#308,#309,#310,#311,#312,#313,#314,#315,#316,#317,
#318));
#62=EDGE_LOOP('',(#319,#320,#321,#322,#323,#324,#325,#326,#327,#328,#329,
#330,#331,#332,#333,#334,#335,#336,#337,#338));
#63=EDGE_LOOP('',(#339));
#64=EDGE_LOOP('',(#340,#341,#342,#343));
#65=EDGE_LOOP('',(#344,#345,#346,#347));
#66=EDGE_LOOP('',(#348,#349,#350,#351));
#67=EDGE_LOOP('',(#352,#353,#354,#355));
#68=EDGE_LOOP('',(#356,#357,#358,#359));
#69=EDGE_LOOP('',(#360,#361,#362,#363));
#70=EDGE_LOOP('',(#364,#365,#366,#367));
#71=EDGE_LOOP('',(#368,#369,#370,#371));
#72=EDGE_LOOP('',(#372,#373,#374,#375));
#73=EDGE_LOOP('',(#376,#377,#378,#379));
#74=EDGE_LOOP('',(#380,#381,#382,#383));
#75=EDGE_LOOP('',(#384,#385,#386,#387));
#76=EDGE_LOOP('',(#388));
#77=EDGE_LOOP('',(#389));
#78=EDGE_LOOP('',(#390,#391,#392,#393));
#79=EDGE_LOOP('',(#394,#395,#396,#397,#398,#399,#400,#401));
#80=EDGE_LOOP('',(#402,#403,#404,#405));
#81=EDGE_LOOP('',(#406,#407,#408,#409));
#82=EDGE_LOOP('',(#410,#411,#412,#413));
#83=EDGE_LOOP('',(#414,#415,#416,#417));
#84=EDGE_LOOP('',(#418,#419,#420,#421));
#85=EDGE_LOOP('',(#422,#423,#424,#425));
#86=EDGE_LOOP('',(#426,#427,#428,#429));
#87=EDGE_LOOP('',(#430,#431,#432,#433,#434,#435,#436,#437));
#88=EDGE_LOOP('',(#438));
#89=LINE('',#668,#143);
#90=LINE('',#670,#144);
#91=LINE('',#672,#145);
#92=LINE('',#674,#146);
#93=LINE('',#676,#147);
#94=LINE('',#678,#148);
#95=LINE('',#680,#149);
#96=LINE('',#682,#150);
#97=LINE('',#684,#151);
#98=LINE('',#686,#152);
#99=LINE('',#688,#153);
#100=LINE('',#689,#154);
#101=LINE('',#693,#155);
#102=LINE('',#695,#156);
#103=LINE('',#697,#157);
#104=LINE('',#699,#158);
#105=LINE('',#701,#159);
#106=LINE('',#703,#160);
#107=LINE('',#705,#161);
#108=LINE('',#709,#162);
#109=LINE('',#713,#163);
#110=LINE('',#717,#164);
#111=LINE('',#721,#165);
#112=LINE('',#723,#166);
#113=LINE('',#725,#167);
#114=LINE('',#727,#168);
#115=LINE('',#729,#169);
#116=LINE('',#730,#170);
#117=LINE('',#734,#171);
#118=LINE('',#735,#172);
#119=LINE('',#737,#173);
#120=LINE('',#739,#174);
#121=LINE('',#741,#175);
#122=LINE('',#743,#176);
#123=LINE('',#745,#177);
#124=LINE('',#747,#178);
#125=LINE('',#749,#179);
#126=LINE('',#751,#180);
#127=LINE('',#753,#181);
#128=LINE('',#755,#182);
#129=LINE('',#760,#183);
#130=LINE('',#766,#184);
#131=LINE('',#769,#185);
#132=LINE('',#771,#186);
#133=LINE('',#772,#187);
#134=LINE('',#776,#188);
#135=LINE('',#779,#189);
#136=LINE('',#780,#190);
#137=LINE('',#784,#191);
#138=LINE('',#787,#192);
#139=LINE('',#788,#193);
#140=LINE('',#792,#194);
#141=LINE('',#795,#195);
#142=LINE('',#796,#196);
#143=VECTOR('',#538,10.);
#144=VECTOR('',#539,10.);
#145=VECTOR('',#540,10.);
#146=VECTOR('',#541,10.);
#147=VECTOR('',#542,10.);
#148=VECTOR('',#543,10.);
#149=VECTOR('',#544,10.);
#150=VECTOR('',#545,10.);
#151=VECTOR('',#546,10.);
#152=VECTOR('',#547,10.);
#153=VECTOR('',#548,10.);
#154=VECTOR('',#549,10.);
#155=VECTOR('',#552,10.);
#156=VECTOR('',#553,10.);
#157=VECTOR('',#554,10.);
#158=VECTOR('',#555,10.);
#159=VECTOR('',#556,10.);
#160=VECTOR('',#557,10.);
#161=VECTOR('',#558,10.);
#162=VECTOR('',#561,10.);
#163=VECTOR('',#564,10.);
#164=VECTOR('',#567,10.);
#165=VECTOR('',#570,10.);
#166=VECTOR('',#571,10.);
#167=VECTOR('',#572,10.);
#168=VECTOR('',#573,10.);
#169=VECTOR('',#574,10.);
#170=VECTOR('',#575,10.);
#171=VECTOR('',#580,10.);
#172=VECTOR('',#581,10.);
#173=VECTOR('',#584,10.);
#174=VECTOR('',#587,10.);
#175=VECTOR('',#590,10.);
#176=VECTOR('',#593,10.);
#177=VECTOR('',#596,10.);
#178=VECTOR('',#599,10.);
#179=VECTOR('',#602,10.);
#180=VECTOR('',#605,10.);
#181=VECTOR('',#608,10.);
#182=VECTOR('',#611,10.);
#183=VECTOR('',#616,6.35);
#184=VECTOR('',#625,2.6);
#185=VECTOR('',#628,10.);
#186=VECTOR('',#629,10.);
#187=VECTOR('',#630,10.);
#188=VECTOR('',#635,10.);
#189=VECTOR('',#638,10.);
#190=VECTOR('',#639,10.);
#191=VECTOR('',#644,10.);
#192=VECTOR('',#647,10.);
#193=VECTOR('',#648,10.);
#194=VECTOR('',#653,10.);
#195=VECTOR('',#656,10.);
#196=VECTOR('',#657,10.);
#197=VERTEX_POINT('',#666);
#198=VERTEX_POINT('',#667);
#199=VERTEX_POINT('',#669);
#200=VERTEX_POINT('',#671);
#201=VERTEX_POINT('',#673);
#202=VERTEX_POINT('',#675);
#203=VERTEX_POINT('',#677);
#204=VERTEX_POINT('',#679);
#205=VERTEX_POINT('',#681);
#206=VERTEX_POINT('',#683);
#207=VERTEX_POINT('',#685);
#208=VERTEX_POINT('',#687);
#209=VERTEX_POINT('',#691);
#210=VERTEX_POINT('',#692);
#211=VERTEX_POINT('',#694);
#212=VERTEX_POINT('',#696);
#213=VERTEX_POINT('',#698);
#214=VERTEX_POINT('',#700);
#215=VERTEX_POINT('',#702);
#216=VERTEX_POINT('',#704);
#217=VERTEX_POINT('',#706);
#218=VERTEX_POINT('',#708);
#219=VERTEX_POINT('',#710);
#220=VERTEX_POINT('',#712);
#221=VERTEX_POINT('',#714);
#222=VERTEX_POINT('',#716);
#223=VERTEX_POINT('',#718);
#224=VERTEX_POINT('',#720);
#225=VERTEX_POINT('',#722);
#226=VERTEX_POINT('',#724);
#227=VERTEX_POINT('',#726);
#228=VERTEX_POINT('',#728);
#229=VERTEX_POINT('',#731);
#230=VERTEX_POINT('',#757);
#231=VERTEX_POINT('',#759);
#232=VERTEX_POINT('',#763);
#233=VERTEX_POINT('',#768);
#234=VERTEX_POINT('',#770);
#235=VERTEX_POINT('',#774);
#236=VERTEX_POINT('',#778);
#237=VERTEX_POINT('',#782);
#238=VERTEX_POINT('',#786);
#239=VERTEX_POINT('',#790);
#240=VERTEX_POINT('',#794);
#241=EDGE_CURVE('',#197,#198,#89,.F.);
#242=EDGE_CURVE('',#198,#199,#90,.F.);
#243=EDGE_CURVE('',#199,#200,#91,.F.);
#244=EDGE_CURVE('',#200,#201,#92,.F.);
#245=EDGE_CURVE('',#201,#202,#93,.F.);
#246=EDGE_CURVE('',#202,#203,#94,.F.);
#247=EDGE_CURVE('',#203,#204,#95,.T.);
#248=EDGE_CURVE('',#204,#205,#96,.F.);
#249=EDGE_CURVE('',#205,#206,#97,.F.);
#250=EDGE_CURVE('',#206,#207,#98,.F.);
#251=EDGE_CURVE('',#207,#208,#99,.F.);
#252=EDGE_CURVE('',#208,#197,#100,.F.);
#253=EDGE_CURVE('',#209,#210,#101,.T.);
#254=EDGE_CURVE('',#210,#211,#102,.T.);
#255=EDGE_CURVE('',#211,#212,#103,.T.);
#256=EDGE_CURVE('',#212,#213,#104,.T.);
#257=EDGE_CURVE('',#213,#214,#105,.T.);
#258=EDGE_CURVE('',#214,#215,#106,.T.);
#259=EDGE_CURVE('',#215,#216,#107,.T.);
#260=EDGE_CURVE('',#216,#217,#24,.T.);
#261=EDGE_CURVE('',#217,#218,#108,.T.);
#262=EDGE_CURVE('',#218,#219,#25,.T.);
#263=EDGE_CURVE('',#219,#220,#109,.T.);
#264=EDGE_CURVE('',#220,#221,#26,.T.);
#265=EDGE_CURVE('',#221,#222,#110,.T.);
#266=EDGE_CURVE('',#222,#223,#27,.T.);
#267=EDGE_CURVE('',#223,#224,#111,.T.);
#268=EDGE_CURVE('',#224,#225,#112,.T.);
#269=EDGE_CURVE('',#225,#226,#113,.T.);
#270=EDGE_CURVE('',#226,#227,#114,.T.);
#271=EDGE_CURVE('',#227,#228,#115,.T.);
#272=EDGE_CURVE('',#228,#209,#116,.T.);
#273=EDGE_CURVE('',#229,#229,#28,.T.);
#274=EDGE_CURVE('',#225,#202,#117,.T.);
#275=EDGE_CURVE('',#226,#201,#118,.T.);
#276=EDGE_CURVE('',#227,#200,#119,.T.);
#277=EDGE_CURVE('',#228,#199,#120,.T.);
#278=EDGE_CURVE('',#209,#198,#121,.T.);
#279=EDGE_CURVE('',#210,#197,#122,.F.);
#280=EDGE_CURVE('',#211,#208,#123,.T.);
#281=EDGE_CURVE('',#212,#207,#124,.T.);
#282=EDGE_CURVE('',#213,#206,#125,.T.);
#283=EDGE_CURVE('',#214,#205,#126,.T.);
#284=EDGE_CURVE('',#215,#204,#127,.F.);
#285=EDGE_CURVE('',#224,#203,#128,.T.);
#286=EDGE_CURVE('',#230,#230,#29,.F.);
#287=EDGE_CURVE('',#230,#231,#129,.T.);
#288=EDGE_CURVE('',#231,#231,#30,.F.);
#289=EDGE_CURVE('',#232,#232,#31,.T.);
#290=EDGE_CURVE('',#229,#232,#130,.T.);
#291=EDGE_CURVE('',#223,#233,#131,.T.);
#292=EDGE_CURVE('',#234,#233,#132,.T.);
#293=EDGE_CURVE('',#216,#234,#133,.T.);
#294=EDGE_CURVE('',#235,#234,#32,.T.);
#295=EDGE_CURVE('',#217,#235,#134,.T.);
#296=EDGE_CURVE('',#236,#235,#135,.T.);
#297=EDGE_CURVE('',#218,#236,#136,.T.);
#298=EDGE_CURVE('',#237,#236,#33,.T.);
#299=EDGE_CURVE('',#219,#237,#137,.T.);
#300=EDGE_CURVE('',#238,#237,#138,.T.);
#301=EDGE_CURVE('',#220,#238,#139,.T.);
#302=EDGE_CURVE('',#239,#238,#34,.T.);
#303=EDGE_CURVE('',#221,#239,#140,.T.);
#304=EDGE_CURVE('',#240,#239,#141,.T.);
#305=EDGE_CURVE('',#222,#240,#142,.T.);
#306=EDGE_CURVE('',#233,#240,#35,.T.);
#307=ORIENTED_EDGE('',*,*,#241,.T.);
#308=ORIENTED_EDGE('',*,*,#242,.T.);
#309=ORIENTED_EDGE('',*,*,#243,.T.);
#310=ORIENTED_EDGE('',*,*,#244,.T.);
#311=ORIENTED_EDGE('',*,*,#245,.T.);
#312=ORIENTED_EDGE('',*,*,#246,.T.);
#313=ORIENTED_EDGE('',*,*,#247,.T.);
#314=ORIENTED_EDGE('',*,*,#248,.T.);
#315=ORIENTED_EDGE('',*,*,#249,.T.);
#316=ORIENTED_EDGE('',*,*,#250,.T.);
#317=ORIENTED_EDGE('',*,*,#251,.T.);
#318=ORIENTED_EDGE('',*,*,#252,.T.);
#319=ORIENTED_EDGE('',*,*,#253,.T.);
#320=ORIENTED_EDGE('',*,*,#254,.T.);
#321=ORIENTED_EDGE('',*,*,#255,.T.);
#322=ORIENTED_EDGE('',*,*,#256,.T.);
#323=ORIENTED_EDGE('',*,*,#257,.T.);
#324=ORIENTED_EDGE('',*,*,#258,.T.);
#325=ORIENTED_EDGE('',*,*,#259,.T.);
#326=ORIENTED_EDGE('',*,*,#260,.T.);
#327=ORIENTED_EDGE('',*,*,#261,.T.);
#328=ORIENTED_EDGE('',*,*,#262,.T.);
#329=ORIENTED_EDGE('',*,*,#263,.T.);
#330=ORIENTED_EDGE('',*,*,#264,.T.);
#331=ORIENTED_EDGE('',*,*,#265,.T.);
#332=ORIENTED_EDGE('',*,*,#266,.T.);
#333=ORIENTED_EDGE('',*,*,#267,.T.);
#334=ORIENTED_EDGE('',*,*,#268,.T.);
#335=ORIENTED_EDGE('',*,*,#269,.T.);
#336=ORIENTED_EDGE('',*,*,#270,.T.);
#337=ORIENTED_EDGE('',*,*,#271,.T.);
#338=ORIENTED_EDGE('',*,*,#272,.T.);
#339=ORIENTED_EDGE('',*,*,#273,.T.);
#340=ORIENTED_EDGE('',*,*,#269,.F.);
#341=ORIENTED_EDGE('',*,*,#274,.T.);
#342=ORIENTED_EDGE('',*,*,#245,.F.);
#343=ORIENTED_EDGE('',*,*,#275,.F.);
#344=ORIENTED_EDGE('',*,*,#270,.F.);
#345=ORIENTED_EDGE('',*,*,#275,.T.);
#346=ORIENTED_EDGE('',*,*,#244,.F.);
#347=ORIENTED_EDGE('',*,*,#276,.F.);
#348=ORIENTED_EDGE('',*,*,#271,.F.);
#349=ORIENTED_EDGE('',*,*,#276,.T.);
#350=ORIENTED_EDGE('',*,*,#243,.F.);
#351=ORIENTED_EDGE('',*,*,#277,.F.);
#352=ORIENTED_EDGE('',*,*,#272,.F.);
#353=ORIENTED_EDGE('',*,*,#277,.T.);
#354=ORIENTED_EDGE('',*,*,#242,.F.);
#355=ORIENTED_EDGE('',*,*,#278,.F.);
#356=ORIENTED_EDGE('',*,*,#253,.F.);
#357=ORIENTED_EDGE('',*,*,#278,.T.);
#358=ORIENTED_EDGE('',*,*,#241,.F.);
#359=ORIENTED_EDGE('',*,*,#279,.F.);
#360=ORIENTED_EDGE('',*,*,#254,.F.);
#361=ORIENTED_EDGE('',*,*,#279,.T.);
#362=ORIENTED_EDGE('',*,*,#252,.F.);
#363=ORIENTED_EDGE('',*,*,#280,.F.);
#364=ORIENTED_EDGE('',*,*,#255,.F.);
#365=ORIENTED_EDGE('',*,*,#280,.T.);
#366=ORIENTED_EDGE('',*,*,#251,.F.);
#367=ORIENTED_EDGE('',*,*,#281,.F.);
#368=ORIENTED_EDGE('',*,*,#256,.F.);
#369=ORIENTED_EDGE('',*,*,#281,.T.);
#370=ORIENTED_EDGE('',*,*,#250,.F.);
#371=ORIENTED_EDGE('',*,*,#282,.F.);
#372=ORIENTED_EDGE('',*,*,#257,.F.);
#373=ORIENTED_EDGE('',*,*,#282,.T.);
#374=ORIENTED_EDGE('',*,*,#249,.F.);
#375=ORIENTED_EDGE('',*,*,#283,.F.);
#376=ORIENTED_EDGE('',*,*,#258,.F.);
#377=ORIENTED_EDGE('',*,*,#283,.T.);
#378=ORIENTED_EDGE('',*,*,#248,.F.);
#379=ORIENTED_EDGE('',*,*,#284,.F.);
#380=ORIENTED_EDGE('',*,*,#268,.F.);
#381=ORIENTED_EDGE('',*,*,#285,.T.);
#382=ORIENTED_EDGE('',*,*,#246,.F.);
#383=ORIENTED_EDGE('',*,*,#274,.F.);
#384=ORIENTED_EDGE('',*,*,#286,.T.);
#385=ORIENTED_EDGE('',*,*,#287,.T.);
#386=ORIENTED_EDGE('',*,*,#288,.F.);
#387=ORIENTED_EDGE('',*,*,#287,.F.);
#388=ORIENTED_EDGE('',*,*,#286,.F.);
#389=ORIENTED_EDGE('',*,*,#289,.F.);
#390=ORIENTED_EDGE('',*,*,#273,.F.);
#391=ORIENTED_EDGE('',*,*,#290,.T.);
#392=ORIENTED_EDGE('',*,*,#289,.T.);
#393=ORIENTED_EDGE('',*,*,#290,.F.);
#394=ORIENTED_EDGE('',*,*,#267,.F.);
#395=ORIENTED_EDGE('',*,*,#291,.T.);
#396=ORIENTED_EDGE('',*,*,#292,.F.);
#397=ORIENTED_EDGE('',*,*,#293,.F.);
#398=ORIENTED_EDGE('',*,*,#259,.F.);
#399=ORIENTED_EDGE('',*,*,#284,.T.);
#400=ORIENTED_EDGE('',*,*,#247,.F.);
#401=ORIENTED_EDGE('',*,*,#285,.F.);
#402=ORIENTED_EDGE('',*,*,#260,.F.);
#403=ORIENTED_EDGE('',*,*,#293,.T.);
#404=ORIENTED_EDGE('',*,*,#294,.F.);
#405=ORIENTED_EDGE('',*,*,#295,.F.);
#406=ORIENTED_EDGE('',*,*,#261,.F.);
#407=ORIENTED_EDGE('',*,*,#295,.T.);
#408=ORIENTED_EDGE('',*,*,#296,.F.);
#409=ORIENTED_EDGE('',*,*,#297,.F.);
#410=ORIENTED_EDGE('',*,*,#262,.F.);
#411=ORIENTED_EDGE('',*,*,#297,.T.);
#412=ORIENTED_EDGE('',*,*,#298,.F.);
#413=ORIENTED_EDGE('',*,*,#299,.F.);
#414=ORIENTED_EDGE('',*,*,#263,.F.);
#415=ORIENTED_EDGE('',*,*,#299,.T.);
#416=ORIENTED_EDGE('',*,*,#300,.F.);
#417=ORIENTED_EDGE('',*,*,#301,.F.);
#418=ORIENTED_EDGE('',*,*,#264,.F.);
#419=ORIENTED_EDGE('',*,*,#301,.T.);
#420=ORIENTED_EDGE('',*,*,#302,.F.);
#421=ORIENTED_EDGE('',*,*,#303,.F.);
#422=ORIENTED_EDGE('',*,*,#265,.F.);
#423=ORIENTED_EDGE('',*,*,#303,.T.);
#424=ORIENTED_EDGE('',*,*,#304,.F.);
#425=ORIENTED_EDGE('',*,*,#305,.F.);
#426=ORIENTED_EDGE('',*,*,#266,.F.);
#427=ORIENTED_EDGE('',*,*,#305,.T.);
#428=ORIENTED_EDGE('',*,*,#306,.F.);
#429=ORIENTED_EDGE('',*,*,#291,.F.);
#430=ORIENTED_EDGE('',*,*,#306,.T.);
#431=ORIENTED_EDGE('',*,*,#304,.T.);
#432=ORIENTED_EDGE('',*,*,#302,.T.);
#433=ORIENTED_EDGE('',*,*,#300,.T.);
#434=ORIENTED_EDGE('',*,*,#298,.T.);
#435=ORIENTED_EDGE('',*,*,#296,.T.);
#436=ORIENTED_EDGE('',*,*,#294,.T.);
#437=ORIENTED_EDGE('',*,*,#292,.T.);
#438=ORIENTED_EDGE('',*,*,#288,.T.);
#439=PLANE('',#497);
#440=PLANE('',#498);
#441=PLANE('',#504);
#442=PLANE('',#505);
#443=PLANE('',#506);
#444=PLANE('',#507);
#445=PLANE('',#508);
#446=PLANE('',#509);
#447=PLANE('',#510);
#448=PLANE('',#511);
#449=PLANE('',#512);
#450=PLANE('',#513);
#451=PLANE('',#514);
#452=PLANE('',#518);
#453=PLANE('',#521);
#454=PLANE('',#524);
#455=PLANE('',#527);
#456=PLANE('',#530);
#457=PLANE('',#533);
#458=ADVANCED_FACE('',(#36),#439,.T.);
#459=ADVANCED_FACE('',(#37,#21),#440,.T.);
#460=ADVANCED_FACE('',(#38),#441,.T.);
#461=ADVANCED_FACE('',(#39),#442,.T.);
#462=ADVANCED_FACE('',(#40),#443,.T.);
#463=ADVANCED_FACE('',(#41),#444,.T.);
#464=ADVANCED_FACE('',(#42),#445,.T.);
#465=ADVANCED_FACE('',(#43),#446,.T.);
#466=ADVANCED_FACE('',(#44),#447,.T.);
#467=ADVANCED_FACE('',(#45),#448,.T.);
#468=ADVANCED_FACE('',(#46),#449,.T.);
#469=ADVANCED_FACE('',(#47),#450,.T.);
#470=ADVANCED_FACE('',(#48),#451,.T.);
#471=ADVANCED_FACE('',(#49),#15,.F.);
#472=ADVANCED_FACE('',(#50,#22),#452,.F.);
#473=ADVANCED_FACE('',(#51),#16,.F.);
#474=ADVANCED_FACE('',(#52),#453,.T.);
#475=ADVANCED_FACE('',(#53),#17,.T.);
#476=ADVANCED_FACE('',(#54),#454,.T.);
#477=ADVANCED_FACE('',(#55),#18,.T.);
#478=ADVANCED_FACE('',(#56),#455,.T.);
#479=ADVANCED_FACE('',(#57),#19,.T.);
#480=ADVANCED_FACE('',(#58),#456,.T.);
#481=ADVANCED_FACE('',(#59),#20,.T.);
#482=ADVANCED_FACE('',(#60,#23),#457,.F.);
#483=CLOSED_SHELL('',(#458,#459,#460,#461,#462,#463,#464,#465,#466,#467,
#468,#469,#470,#471,#472,#473,#474,#475,#476,#477,#478,#479,#480,#481,#482));
#484=DERIVED_UNIT_ELEMENT(#486,1.);
#485=DERIVED_UNIT_ELEMENT(#805,-3.);
#486=(
MASS_UNIT()
NAMED_UNIT(*)
SI_UNIT(.KILO.,.GRAM.)
);
#487=DERIVED_UNIT((#484,#485));
#488=MEASURE_REPRESENTATION_ITEM('density measure',
POSITIVE_RATIO_MEASURE(7850.),#487);
#489=PROPERTY_DEFINITION_REPRESENTATION(#494,#491);
#490=PROPERTY_DEFINITION_REPRESENTATION(#495,#492);
#491=REPRESENTATION('material name',(#493),#802);
#492=REPRESENTATION('density',(#488),#802);
#493=DESCRIPTIVE_REPRESENTATION_ITEM('Steel','Steel');
#494=PROPERTY_DEFINITION('material property','material name',#812);
#495=PROPERTY_DEFINITION('material property','density of part',#812);
#496=AXIS2_PLACEMENT_3D('',#664,#534,#535);
#497=AXIS2_PLACEMENT_3D('',#665,#536,#537);
#498=AXIS2_PLACEMENT_3D('',#690,#550,#551);
#499=AXIS2_PLACEMENT_3D('',#707,#559,#560);
#500=AXIS2_PLACEMENT_3D('',#711,#562,#563);
#501=AXIS2_PLACEMENT_3D('',#715,#565,#566);
#502=AXIS2_PLACEMENT_3D('',#719,#568,#569);
#503=AXIS2_PLACEMENT_3D('',#732,#576,#577);
#504=AXIS2_PLACEMENT_3D('',#733,#578,#579);
#505=AXIS2_PLACEMENT_3D('',#736,#582,#583);
#506=AXIS2_PLACEMENT_3D('',#738,#585,#586);
#507=AXIS2_PLACEMENT_3D('',#740,#588,#589);
#508=AXIS2_PLACEMENT_3D('',#742,#591,#592);
#509=AXIS2_PLACEMENT_3D('',#744,#594,#595);
#510=AXIS2_PLACEMENT_3D('',#746,#597,#598);
#511=AXIS2_PLACEMENT_3D('',#748,#600,#601);
#512=AXIS2_PLACEMENT_3D('',#750,#603,#604);
#513=AXIS2_PLACEMENT_3D('',#752,#606,#607);
#514=AXIS2_PLACEMENT_3D('',#754,#609,#610);
#515=AXIS2_PLACEMENT_3D('',#756,#612,#613);
#516=AXIS2_PLACEMENT_3D('',#758,#614,#615);
#517=AXIS2_PLACEMENT_3D('',#761,#617,#618);
#518=AXIS2_PLACEMENT_3D('',#762,#619,#620);
#519=AXIS2_PLACEMENT_3D('',#764,#621,#622);
#520=AXIS2_PLACEMENT_3D('',#765,#623,#624);
#521=AXIS2_PLACEMENT_3D('',#767,#626,#627);
#522=AXIS2_PLACEMENT_3D('',#773,#631,#632);
#523=AXIS2_PLACEMENT_3D('',#775,#633,#634);
#524=AXIS2_PLACEMENT_3D('',#777,#636,#637);
#525=AXIS2_PLACEMENT_3D('',#781,#640,#641);
#526=AXIS2_PLACEMENT_3D('',#783,#642,#643);
#527=AXIS2_PLACEMENT_3D('',#785,#645,#646);
#528=AXIS2_PLACEMENT_3D('',#789,#649,#650);
#529=AXIS2_PLACEMENT_3D('',#791,#651,#652);
#530=AXIS2_PLACEMENT_3D('',#793,#654,#655);
#531=AXIS2_PLACEMENT_3D('',#797,#658,#659);
#532=AXIS2_PLACEMENT_3D('',#798,#660,#661);
#533=AXIS2_PLACEMENT_3D('',#799,#662,#663);
#534=DIRECTION('axis',(0.,0.,1.));
#535=DIRECTION('refdir',(1.,0.,0.));
#536=DIRECTION('center_axis',(0.,1.,0.));
#537=DIRECTION('ref_axis',(0.,0.,1.));
#538=DIRECTION('',(3.16683016600594E-15,0.,1.));
#539=DIRECTION('',(0.707106781186546,0.,0.707106781186549));
#540=DIRECTION('',(1.,0.,-4.06342726082782E-15));
#541=DIRECTION('',(-3.73969860926368E-15,0.,-1.));
#542=DIRECTION('',(1.,0.,-4.82705662880478E-15));
#543=DIRECTION('',(0.707106781186541,0.,0.707106781186554));
#544=DIRECTION('',(0.,0.,1.));
#545=DIRECTION('',(-0.707106781186541,0.,0.707106781186554));
#546=DIRECTION('',(-1.,0.,3.21803775253654E-15));
#547=DIRECTION('',(-3.73969860926368E-15,0.,-1.));
#548=DIRECTION('',(-1.,0.,3.38618938402318E-15));
#549=DIRECTION('',(-0.707106781186541,0.,0.707106781186554));
#550=DIRECTION('center_axis',(0.,1.,0.));
#551=DIRECTION('ref_axis',(1.,0.,0.));
#552=DIRECTION('',(3.16683016600594E-15,0.,1.));
#553=DIRECTION('',(-0.707106781186541,0.,0.707106781186554));
#554=DIRECTION('',(-1.,0.,3.38618938402318E-15));
#555=DIRECTION('',(-3.73969860926368E-15,0.,-1.));
#556=DIRECTION('',(-1.,0.,3.21803775253654E-15));
#557=DIRECTION('',(-0.707106781186541,0.,0.707106781186554));
#558=DIRECTION('',(0.,0.,1.));
#559=DIRECTION('center_axis',(0.,1.,0.));
#560=DIRECTION('ref_axis',(-1.,0.,-8.88178419700124E-15));
#561=DIRECTION('',(1.,0.,0.));
#562=DIRECTION('center_axis',(0.,1.,0.));
#563=DIRECTION('ref_axis',(-6.66133814775093E-15,0.,1.));
#564=DIRECTION('',(0.,0.,-1.));
#565=DIRECTION('center_axis',(0.,1.,0.));
#566=DIRECTION('ref_axis',(1.,0.,6.66133814775093E-15));
#567=DIRECTION('',(-1.,0.,0.));
#568=DIRECTION('center_axis',(0.,1.,0.));
#569=DIRECTION('ref_axis',(6.66133814775093E-15,0.,-1.));
#570=DIRECTION('',(0.,0.,1.));
#571=DIRECTION('',(0.707106781186541,0.,0.707106781186554));
#572=DIRECTION('',(1.,0.,-4.82705662880478E-15));
#573=DIRECTION('',(-3.73969860926368E-15,0.,-1.));
#574=DIRECTION('',(1.,0.,-4.06342726082782E-15));
#575=DIRECTION('',(0.707106781186546,0.,0.707106781186549));
#576=DIRECTION('center_axis',(0.,-1.,0.));
#577=DIRECTION('ref_axis',(-1.,0.,0.));
#578=DIRECTION('center_axis',(-4.82705662880478E-15,0.,-1.));
#579=DIRECTION('ref_axis',(-1.,0.,4.82705662880478E-15));
#580=DIRECTION('',(0.,1.,0.));
#581=DIRECTION('',(0.,1.,0.));
#582=DIRECTION('center_axis',(-1.,0.,3.73969860926368E-15));
#583=DIRECTION('ref_axis',(3.73969860926368E-15,0.,1.));
#584=DIRECTION('',(0.,1.,0.));
#585=DIRECTION('center_axis',(-4.06342726082782E-15,0.,-1.));
#586=DIRECTION('ref_axis',(-1.,0.,4.06342726082782E-15));
#587=DIRECTION('',(0.,1.,0.));
#588=DIRECTION('center_axis',(0.707106781186549,0.,-0.707106781186546));
#589=DIRECTION('ref_axis',(-0.707106781186546,0.,-0.707106781186549));
#590=DIRECTION('',(0.,1.,0.));
#591=DIRECTION('center_axis',(1.,0.,-3.16683016600594E-15));
#592=DIRECTION('ref_axis',(-3.16683016600594E-15,0.,-1.));
#593=DIRECTION('',(0.,-1.,0.));
#594=DIRECTION('center_axis',(0.707106781186554,0.,0.707106781186541));
#595=DIRECTION('ref_axis',(0.707106781186541,0.,-0.707106781186554));
#596=DIRECTION('',(0.,1.,0.));
#597=DIRECTION('center_axis',(3.38618938402318E-15,0.,1.));
#598=DIRECTION('ref_axis',(1.,0.,-3.38618938402318E-15));
#599=DIRECTION('',(0.,1.,0.));
#600=DIRECTION('center_axis',(-1.,0.,3.73969860926368E-15));
#601=DIRECTION('ref_axis',(3.73969860926368E-15,0.,1.));
#602=DIRECTION('',(0.,1.,0.));
#603=DIRECTION('center_axis',(3.21803775253654E-15,0.,1.));
#604=DIRECTION('ref_axis',(1.,0.,-3.21803775253654E-15));
#605=DIRECTION('',(0.,1.,0.));
#606=DIRECTION('center_axis',(0.707106781186554,0.,0.707106781186541));
#607=DIRECTION('ref_axis',(0.707106781186541,0.,-0.707106781186554));
#608=DIRECTION('',(0.,-1.,0.));
#609=DIRECTION('center_axis',(0.707106781186554,0.,-0.707106781186541));
#610=DIRECTION('ref_axis',(-0.707106781186541,0.,-0.707106781186554));
#611=DIRECTION('',(0.,1.,0.));
#612=DIRECTION('center_axis',(0.,-1.,0.));
#613=DIRECTION('ref_axis',(-1.,0.,0.));
#614=DIRECTION('center_axis',(0.,-1.,0.));
#615=DIRECTION('ref_axis',(-1.,0.,0.));
#616=DIRECTION('',(0.,-1.,0.));
#617=DIRECTION('center_axis',(0.,-1.,0.));
#618=DIRECTION('ref_axis',(-1.,0.,0.));
#619=DIRECTION('center_axis',(0.,1.,0.));
#620=DIRECTION('ref_axis',(-1.,0.,0.));
#621=DIRECTION('center_axis',(0.,-1.,0.));
#622=DIRECTION('ref_axis',(-1.,0.,0.));
#623=DIRECTION('center_axis',(0.,-1.,0.));
#624=DIRECTION('ref_axis',(-1.,0.,0.));
#625=DIRECTION('',(0.,-1.,0.));
#626=DIRECTION('center_axis',(-1.,0.,0.));
#627=DIRECTION('ref_axis',(0.,0.,-1.));
#628=DIRECTION('',(0.,-1.,0.));
#629=DIRECTION('',(0.,0.,-1.));
#630=DIRECTION('',(0.,-1.,0.));
#631=DIRECTION('center_axis',(0.,-1.,0.));
#632=DIRECTION('ref_axis',(-1.,0.,-8.88178419700124E-15));
#633=DIRECTION('center_axis',(0.,-1.,0.));
#634=DIRECTION('ref_axis',(-1.,0.,-8.88178419700124E-15));
#635=DIRECTION('',(0.,-1.,0.));
#636=DIRECTION('center_axis',(0.,0.,1.));
#637=DIRECTION('ref_axis',(-1.,0.,0.));
#638=DIRECTION('',(-1.,0.,0.));
#639=DIRECTION('',(0.,-1.,0.));
#640=DIRECTION('center_axis',(0.,-1.,0.));
#641=DIRECTION('ref_axis',(-6.66133814775093E-15,0.,1.));
#642=DIRECTION('center_axis',(0.,-1.,0.));
#643=DIRECTION('ref_axis',(-6.66133814775093E-15,0.,1.));
#644=DIRECTION('',(0.,-1.,0.));
#645=DIRECTION('center_axis',(1.,0.,0.));
#646=DIRECTION('ref_axis',(0.,0.,1.));
#647=DIRECTION('',(0.,0.,1.));
#648=DIRECTION('',(0.,-1.,0.));
#649=DIRECTION('center_axis',(0.,-1.,0.));
#650=DIRECTION('ref_axis',(1.,0.,6.66133814775093E-15));
#651=DIRECTION('center_axis',(0.,-1.,0.));
#652=DIRECTION('ref_axis',(1.,0.,6.66133814775093E-15));
#653=DIRECTION('',(0.,-1.,0.));
#654=DIRECTION('center_axis',(0.,0.,-1.));
#655=DIRECTION('ref_axis',(1.,0.,0.));
#656=DIRECTION('',(1.,0.,0.));
#657=DIRECTION('',(0.,-1.,0.));
#658=DIRECTION('center_axis',(0.,-1.,0.));
#659=DIRECTION('ref_axis',(6.66133814775093E-15,0.,-1.));
#660=DIRECTION('center_axis',(0.,-1.,0.));
#661=DIRECTION('ref_axis',(6.66133814775093E-15,0.,-1.));
#662=DIRECTION('center_axis',(0.,1.,0.));
#663=DIRECTION('ref_axis',(1.,0.,0.));
#664=CARTESIAN_POINT('',(0.,0.,0.));
#665=CARTESIAN_POINT('Origin',(-6.845,30.,2.55351295663786E-14));
#666=CARTESIAN_POINT('',(-3.99999999999999,30.,2.79791847198293));
#667=CARTESIAN_POINT('',(-4.00000000000001,30.,-2.7979184719829));
#668=CARTESIAN_POINT('',(-4.,30.,-0.104999999999986));
#669=CARTESIAN_POINT('',(-6.60208152801708,30.,-5.39999999999998));
#670=CARTESIAN_POINT('',(-3.9971257210636,30.,-2.79504419304649));
#671=CARTESIAN_POINT('',(-8.10000000000002,30.,-5.39999999999998));
#672=CARTESIAN_POINT('',(-6.7028300858899,30.,-5.39999999999998));
#673=CARTESIAN_POINT('',(-8.10000000000001,30.,-3.02499999999998));
#674=CARTESIAN_POINT('',(-8.10000000000001,30.,-2.74999999999997));
#675=CARTESIAN_POINT('',(-8.58642135623734,30.,-3.02499999999997));
#676=CARTESIAN_POINT('',(-7.52250000000001,30.,-3.02499999999998));
#677=CARTESIAN_POINT('',(-10.,30.,-4.43857864376266));
#678=CARTESIAN_POINT('',(-7.40946067811869,30.,-1.8480393218813));
#679=CARTESIAN_POINT('',(-10.,30.,4.43857864376275));
#680=CARTESIAN_POINT('',(-10.,30.,-10.));
#681=CARTESIAN_POINT('',(-8.58642135623731,30.,3.02500000000003));
#682=CARTESIAN_POINT('',(-8.13696067811866,30.,2.57553932188137));
#683=CARTESIAN_POINT('',(-8.09999999999999,30.,3.02500000000003));
#684=CARTESIAN_POINT('',(-7.695,30.,3.02500000000003));
#685=CARTESIAN_POINT('',(-8.09999999999998,30.,5.40000000000004));
#686=CARTESIAN_POINT('',(-8.1,30.,1.56250000000003));
#687=CARTESIAN_POINT('',(-6.60208152801705,30.,5.40000000000003));
#688=CARTESIAN_POINT('',(-7.52249999999998,30.,5.40000000000003));
#689=CARTESIAN_POINT('',(-5.32745580695345,30.,4.12537427893642));
#690=CARTESIAN_POINT('Origin',(5.55111512312578E-16,0.,0.));
#691=CARTESIAN_POINT('',(-4.00000000000001,0.,-2.7979184719829));
#692=CARTESIAN_POINT('',(-3.99999999999999,0.,2.79791847198293));
#693=CARTESIAN_POINT('',(-4.,0.,-0.104999999999988));
#694=CARTESIAN_POINT('',(-6.60208152801705,0.,5.40000000000003));
#695=CARTESIAN_POINT('',(-3.61620580695348,0.,2.41412427893641));
#696=CARTESIAN_POINT('',(-8.09999999999998,0.,5.40000000000004));
#697=CARTESIAN_POINT('',(-4.09999999999998,0.,5.40000000000002));
#698=CARTESIAN_POINT('',(-8.09999999999999,0.,3.02500000000003));
#699=CARTESIAN_POINT('',(-8.1,0.,1.56250000000003));
#700=CARTESIAN_POINT('',(-8.58642135623731,0.,3.02500000000003));
#701=CARTESIAN_POINT('',(-4.2725,0.,3.02500000000002));
#702=CARTESIAN_POINT('',(-10.,0.,4.43857864376275));
#703=CARTESIAN_POINT('',(-6.42571067811869,0.,0.864289321881366));
#704=CARTESIAN_POINT('',(-10.,0.,9.50000000000001));
#705=CARTESIAN_POINT('',(-10.,0.,-10.));
#706=CARTESIAN_POINT('',(-9.49999999999999,0.,10.));
#707=CARTESIAN_POINT('Origin',(-9.5,0.,9.50000000000001));
#708=CARTESIAN_POINT('',(9.49999999999999,0.,10.));
#709=CARTESIAN_POINT('',(-10.,0.,10.));
#710=CARTESIAN_POINT('',(10.,0.,9.50000000000001));
#711=CARTESIAN_POINT('Origin',(9.5,0.,9.50000000000001));
#712=CARTESIAN_POINT('',(10.,0.,-9.50000000000001));
#713=CARTESIAN_POINT('',(10.,0.,10.));
#714=CARTESIAN_POINT('',(9.5,0.,-10.));
#715=CARTESIAN_POINT('Origin',(9.5,0.,-9.50000000000001));
#716=CARTESIAN_POINT('',(-9.49999999999999,0.,-10.));
#717=CARTESIAN_POINT('',(10.,0.,-10.));
#718=CARTESIAN_POINT('',(-10.,0.,-9.50000000000001));
#719=CARTESIAN_POINT('Origin',(-9.5,0.,-9.50000000000001));
#720=CARTESIAN_POINT('',(-10.,0.,-4.43857864376266));
#721=CARTESIAN_POINT('',(-10.,0.,-10.));
#722=CARTESIAN_POINT('',(-8.58642135623734,0.,-3.02499999999997));
#723=CARTESIAN_POINT('',(-5.69821067811872,0.,-0.136789321881305));
#724=CARTESIAN_POINT('',(-8.10000000000001,0.,-3.02499999999998));
#725=CARTESIAN_POINT('',(-4.10000000000001,0.,-3.025));
#726=CARTESIAN_POINT('',(-8.10000000000002,0.,-5.39999999999998));
#727=CARTESIAN_POINT('',(-8.10000000000001,0.,-2.74999999999997));
#728=CARTESIAN_POINT('',(-6.60208152801708,0.,-5.39999999999998));
#729=CARTESIAN_POINT('',(-3.2803300858899,0.,-5.4));
#730=CARTESIAN_POINT('',(-2.28587572106362,0.,-1.08379419304649));
#731=CARTESIAN_POINT('',(2.6,0.,-3.18408167778312E-16));
#732=CARTESIAN_POINT('Origin',(0.,0.,0.));
#733=CARTESIAN_POINT('Origin',(-8.20000000000001,0.,-3.02499999999998));
#734=CARTESIAN_POINT('',(-8.58642135623734,0.,-3.02499999999998));
#735=CARTESIAN_POINT('',(-8.10000000000001,0.,-3.02499999999998));
#736=CARTESIAN_POINT('Origin',(-8.10000000000002,0.,-5.49999999999998));
#737=CARTESIAN_POINT('',(-8.10000000000002,0.,-5.39999999999998));
#738=CARTESIAN_POINT('Origin',(-6.56066017177977,0.,-5.39999999999998));
#739=CARTESIAN_POINT('',(-6.60208152801708,0.,-5.39999999999998));
#740=CARTESIAN_POINT('Origin',(-3.97071067811867,0.,-2.76862915010155));
#741=CARTESIAN_POINT('',(-4.00000000000001,0.,-2.7979184719829));
#742=CARTESIAN_POINT('Origin',(-4.,0.,-0.209999999999989));
#743=CARTESIAN_POINT('',(-3.99999999999999,0.,2.79791847198293));
#744=CARTESIAN_POINT('Origin',(-6.63137084989839,0.,5.42928932188138));
#745=CARTESIAN_POINT('',(-6.60208152801705,0.,5.40000000000003));
#746=CARTESIAN_POINT('Origin',(-8.19999999999998,0.,5.40000000000004));
#747=CARTESIAN_POINT('',(-8.09999999999998,0.,5.40000000000004));
#748=CARTESIAN_POINT('Origin',(-8.09999999999999,0.,3.12500000000003));
#749=CARTESIAN_POINT('',(-8.09999999999999,0.,3.02500000000003));
#750=CARTESIAN_POINT('Origin',(-8.54500000000001,0.,3.02500000000003));
#751=CARTESIAN_POINT('',(-8.58642135623731,0.,3.02500000000003));
#752=CARTESIAN_POINT('Origin',(-10.0707106781187,0.,4.5092893218814));
#753=CARTESIAN_POINT('',(-10.,0.,4.43857864376274));
#754=CARTESIAN_POINT('Origin',(-8.61571067811868,0.,-3.05428932188132));
#755=CARTESIAN_POINT('',(-10.,0.,-4.43857864376266));
#756=CARTESIAN_POINT('Origin',(0.,-2.5,0.));
#757=CARTESIAN_POINT('',(6.4,-2.5,7.83773951454306E-16));
#758=CARTESIAN_POINT('Origin',(0.,-2.5,0.));
#759=CARTESIAN_POINT('',(6.4,-14.,7.83773951454306E-16));
#760=CARTESIAN_POINT('',(6.4,-2.5,7.83773951454306E-16));
#761=CARTESIAN_POINT('Origin',(0.,-14.,0.));
#762=CARTESIAN_POINT('Origin',(0.,-2.5,0.));
#763=CARTESIAN_POINT('',(2.6,-2.5,-3.18408167778312E-16));
#764=CARTESIAN_POINT('Origin',(0.,-2.5,0.));
#765=CARTESIAN_POINT('Origin',(0.,0.,0.));
#766=CARTESIAN_POINT('',(2.6,0.,3.18408167778312E-16));
#767=CARTESIAN_POINT('Origin',(-10.,0.,9.50000000000001));
#768=CARTESIAN_POINT('',(-10.,-14.,-9.50000000000001));
#769=CARTESIAN_POINT('',(-10.,0.,-9.50000000000001));
#770=CARTESIAN_POINT('',(-10.,-14.,9.50000000000001));
#771=CARTESIAN_POINT('',(-10.,-14.,-10.));
#772=CARTESIAN_POINT('',(-10.,0.,9.50000000000001));
#773=CARTESIAN_POINT('Origin',(-9.5,0.,9.50000000000001));
#774=CARTESIAN_POINT('',(-9.49999999999999,-14.,10.));
#775=CARTESIAN_POINT('Origin',(-9.5,-14.,9.50000000000001));
#776=CARTESIAN_POINT('',(-9.49999999999999,0.,10.));
#777=CARTESIAN_POINT('Origin',(9.49999999999999,0.,10.));
#778=CARTESIAN_POINT('',(9.49999999999999,-14.,10.));
#779=CARTESIAN_POINT('',(-10.,-14.,10.));
#780=CARTESIAN_POINT('',(9.49999999999999,0.,10.));
#781=CARTESIAN_POINT('Origin',(9.5,0.,9.50000000000001));
#782=CARTESIAN_POINT('',(10.,-14.,9.50000000000001));
#783=CARTESIAN_POINT('Origin',(9.5,-14.,9.50000000000001));
#784=CARTESIAN_POINT('',(10.,0.,9.50000000000001));
#785=CARTESIAN_POINT('Origin',(10.,0.,-9.50000000000001));
#786=CARTESIAN_POINT('',(10.,-14.,-9.50000000000001));
#787=CARTESIAN_POINT('',(10.,-14.,10.));
#788=CARTESIAN_POINT('',(10.,0.,-9.50000000000001));
#789=CARTESIAN_POINT('Origin',(9.5,0.,-9.50000000000001));
#790=CARTESIAN_POINT('',(9.5,-14.,-10.));
#791=CARTESIAN_POINT('Origin',(9.5,-14.,-9.50000000000001));
#792=CARTESIAN_POINT('',(9.5,0.,-10.));
#793=CARTESIAN_POINT('Origin',(-9.49999999999999,0.,-10.));
#794=CARTESIAN_POINT('',(-9.49999999999999,-14.,-10.));
#795=CARTESIAN_POINT('',(10.,-14.,-10.));
#796=CARTESIAN_POINT('',(-9.49999999999999,0.,-10.));
#797=CARTESIAN_POINT('Origin',(-9.5,0.,-9.50000000000001));
#798=CARTESIAN_POINT('Origin',(-9.5,-14.,-9.50000000000001));
#799=CARTESIAN_POINT('Origin',(5.55111512312578E-16,-14.,0.));
#800=UNCERTAINTY_MEASURE_WITH_UNIT(LENGTH_MEASURE(0.01),#804,
'DISTANCE_ACCURACY_VALUE',
'Maximum model space distance between geometric entities at asserted c
onnectivities');
#801=UNCERTAINTY_MEASURE_WITH_UNIT(LENGTH_MEASURE(0.01),#804,
'DISTANCE_ACCURACY_VALUE',
'Maximum model space distance between geometric entities at asserted c
onnectivities');
#802=(
GEOMETRIC_REPRESENTATION_CONTEXT(3)
GLOBAL_UNCERTAINTY_ASSIGNED_CONTEXT((#800))
GLOBAL_UNIT_ASSIGNED_CONTEXT((#804,#806,#807))
REPRESENTATION_CONTEXT('','3D')
);
#803=(
GEOMETRIC_REPRESENTATION_CONTEXT(3)
GLOBAL_UNCERTAINTY_ASSIGNED_CONTEXT((#801))
GLOBAL_UNIT_ASSIGNED_CONTEXT((#804,#806,#807))
REPRESENTATION_CONTEXT('','3D')
);
#804=(
LENGTH_UNIT()
NAMED_UNIT(*)
SI_UNIT(.MILLI.,.METRE.)
);
#805=(
LENGTH_UNIT()
NAMED_UNIT(*)
SI_UNIT($,.METRE.)
);
#806=(
NAMED_UNIT(*)
PLANE_ANGLE_UNIT()
SI_UNIT($,.RADIAN.)
);
#807=(
NAMED_UNIT(*)
SI_UNIT($,.STERADIAN.)
SOLID_ANGLE_UNIT()
);
#808=SHAPE_DEFINITION_REPRESENTATION(#809,#810);
#809=PRODUCT_DEFINITION_SHAPE('',$,#812);
#810=SHAPE_REPRESENTATION('',(#496),#802);
#811=PRODUCT_DEFINITION_CONTEXT('part definition',#816,'design');
#812=PRODUCT_DEFINITION('2026-08-29-11-09-35-517','(Unsaved)',#813,#811);
#813=PRODUCT_DEFINITION_FORMATION('',$,#818);
#814=PRODUCT_RELATED_PRODUCT_CATEGORY('(Unsaved)','(Unsaved)',(#818));
#815=APPLICATION_PROTOCOL_DEFINITION('international standard',
'automotive_design',2009,#816);
#816=APPLICATION_CONTEXT(
'Core Data for Automotive Mechanical Design Process');
#817=PRODUCT_CONTEXT('part definition',#816,'mechanical');
#818=PRODUCT('2026-08-29-11-09-35-517','(Unsaved)',$,(#817));
#819=PRESENTATION_STYLE_ASSIGNMENT((#820));
#820=SURFACE_STYLE_USAGE(.BOTH.,#821);
#821=SURFACE_SIDE_STYLE('',(#822));
#822=SURFACE_STYLE_FILL_AREA(#823);
#823=FILL_AREA_STYLE('Steel - Satin',(#824));
#824=FILL_AREA_STYLE_COLOUR('Steel - Satin',#825);
#825=COLOUR_RGB('Steel - Satin',0.627450980392157,0.627450980392157,0.627450980392157);
ENDSEC;
END-ISO-10303-21;
