ISO-10303-21;
HEADER;
/* Generated by software containing ST-Developer
 * from STEP Tools, Inc. (www.steptools.com) 
 */

FILE_DESCRIPTION(
/* description */ (''),
/* implementation_level */ '2;1');

FILE_NAME(
/* name */ 'clamping-base_v1.0.step',
/* time_stamp */ '2026-08-29T11:09:36-05:00',
/* author */ (''),
/* organization */ (''),
/* preprocessor_version */ 'ST-DEVELOPER v20.1',
/* originating_system */ 'Autodesk Translation Framework v15.8.0.0',
/* authorisation */ '');

FILE_SCHEMA (('AUTOMOTIVE_DESIGN { 1 0 10303 214 3 1 1 }'));
ENDSEC;

DATA;
#10=MECHANICAL_DESIGN_GEOMETRIC_PRESENTATION_REPRESENTATION('',(#13),#730);
#11=SHAPE_REPRESENTATION_RELATIONSHIP('SRR','None',#737,#12);
#12=ADVANCED_BREP_SHAPE_REPRESENTATION('',(#14),#729);
#13=STYLED_ITEM('',(#746),#14);
#14=MANIFOLD_SOLID_BREP('Body1',#418);
#15=FACE_BOUND('',#126,.T.);
#16=FACE_BOUND('',#133,.T.);
#17=FACE_BOUND('',#141,.T.);
#18=FACE_BOUND('',#143,.T.);
#19=FACE_BOUND('',#146,.T.);
#20=FACE_BOUND('',#148,.T.);
#21=ELLIPSE('',#438,2.31354386323246,1.7);
#22=LINE('',#617,#55);
#23=LINE('',#621,#56);
#24=LINE('',#625,#57);
#25=LINE('',#629,#58);
#26=LINE('',#631,#59);
#27=LINE('',#637,#60);
#28=LINE('',#651,#61);
#29=LINE('',#657,#62);
#30=LINE('',#663,#63);
#31=LINE('',#666,#64);
#32=LINE('',#669,#65);
#33=LINE('',#671,#66);
#34=LINE('',#672,#67);
#35=LINE('',#675,#68);
#36=LINE('',#679,#69);
#37=LINE('',#683,#70);
#38=LINE('',#688,#71);
#39=LINE('',#691,#72);
#40=LINE('',#692,#73);
#41=LINE('',#697,#74);
#42=LINE('',#698,#75);
#43=LINE('',#700,#76);
#44=LINE('',#704,#77);
#45=LINE('',#708,#78);
#46=LINE('',#710,#79);
#47=LINE('',#711,#80);
#48=LINE('',#714,#81);
#49=LINE('',#716,#82);
#50=LINE('',#717,#83);
#51=LINE('',#720,#84);
#52=LINE('',#721,#85);
#53=LINE('',#723,#86);
#54=LINE('',#725,#87);
#55=VECTOR('',#489,10.);
#56=VECTOR('',#492,10.);
#57=VECTOR('',#495,1.7);
#58=VECTOR('',#500,10.);
#59=VECTOR('',#501,10.);
#60=VECTOR('',#508,1.7);
#61=VECTOR('',#529,5.05);
#62=VECTOR('',#538,8.75665);
#63=VECTOR('',#543,10.);
#64=VECTOR('',#546,10.);
#65=VECTOR('',#549,10.);
#66=VECTOR('',#550,10.);
#67=VECTOR('',#551,10.);
#68=VECTOR('',#554,10.);
#69=VECTOR('',#557,10.);
#70=VECTOR('',#560,10.);
#71=VECTOR('',#567,10.);
#72=VECTOR('',#570,10.);
#73=VECTOR('',#571,10.);
#74=VECTOR('',#576,10.);
#75=VECTOR('',#577,10.);
#76=VECTOR('',#580,10.);
#77=VECTOR('',#585,10.);
#78=VECTOR('',#588,10.);
#79=VECTOR('',#589,10.);
#80=VECTOR('',#590,10.);
#81=VECTOR('',#593,10.);
#82=VECTOR('',#594,10.);
#83=VECTOR('',#595,10.);
#84=VECTOR('',#598,10.);
#85=VECTOR('',#599,10.);
#86=VECTOR('',#602,10.);
#87=VECTOR('',#605,10.);
#88=CYLINDRICAL_SURFACE('',#435,1.7);
#89=CYLINDRICAL_SURFACE('',#441,1.7);
#90=CYLINDRICAL_SURFACE('',#444,6.55875);
#91=CYLINDRICAL_SURFACE('',#452,5.15);
#92=CYLINDRICAL_SURFACE('',#455,8.80665);
#93=CYLINDRICAL_SURFACE('',#457,2.);
#94=CYLINDRICAL_SURFACE('',#465,2.);
#95=CYLINDRICAL_SURFACE('',#468,2.);
#96=CYLINDRICAL_SURFACE('',#471,2.);
#97=FACE_OUTER_BOUND('',#120,.T.);
#98=FACE_OUTER_BOUND('',#121,.T.);
#99=FACE_OUTER_BOUND('',#122,.T.);
#100=FACE_OUTER_BOUND('',#123,.T.);
#101=FACE_OUTER_BOUND('',#124,.T.);
#102=FACE_OUTER_BOUND('',#125,.T.);
#103=FACE_OUTER_BOUND('',#127,.T.);
#104=FACE_OUTER_BOUND('',#128,.T.);
#105=FACE_OUTER_BOUND('',#129,.T.);
#106=FACE_OUTER_BOUND('',#130,.T.);
#107=FACE_OUTER_BOUND('',#131,.T.);
#108=FACE_OUTER_BOUND('',#132,.T.);
#109=FACE_OUTER_BOUND('',#134,.T.);
#110=FACE_OUTER_BOUND('',#135,.T.);
#111=FACE_OUTER_BOUND('',#136,.T.);
#112=FACE_OUTER_BOUND('',#137,.T.);
#113=FACE_OUTER_BOUND('',#138,.T.);
#114=FACE_OUTER_BOUND('',#139,.T.);
#115=FACE_OUTER_BOUND('',#140,.T.);
#116=FACE_OUTER_BOUND('',#142,.T.);
#117=FACE_OUTER_BOUND('',#144,.T.);
#118=FACE_OUTER_BOUND('',#145,.T.);
#119=FACE_OUTER_BOUND('',#147,.T.);
#120=EDGE_LOOP('',(#267,#268));
#121=EDGE_LOOP('',(#269,#270,#271,#272,#273,#274,#275,#276,#277,#278,#279,
#280));
#122=EDGE_LOOP('',(#281,#282,#283,#284));
#123=EDGE_LOOP('',(#285,#286,#287,#288));
#124=EDGE_LOOP('',(#289,#290,#291,#292,#293,#294));
#125=EDGE_LOOP('',(#295,#296));
#126=EDGE_LOOP('',(#297));
#127=EDGE_LOOP('',(#298,#299,#300,#301));
#128=EDGE_LOOP('',(#302));
#129=EDGE_LOOP('',(#303,#304,#305,#306,#307,#308,#309,#310));
#130=EDGE_LOOP('',(#311,#312,#313,#314));
#131=EDGE_LOOP('',(#315,#316,#317,#318));
#132=EDGE_LOOP('',(#319,#320,#321,#322,#323,#324,#325,#326));
#133=EDGE_LOOP('',(#327));
#134=EDGE_LOOP('',(#328,#329,#330,#331));
#135=EDGE_LOOP('',(#332,#333,#334,#335));
#136=EDGE_LOOP('',(#336,#337,#338,#339));
#137=EDGE_LOOP('',(#340,#341,#342,#343));
#138=EDGE_LOOP('',(#344,#345,#346,#347));
#139=EDGE_LOOP('',(#348,#349,#350));
#140=EDGE_LOOP('',(#351,#352,#353,#354));
#141=EDGE_LOOP('',(#355));
#142=EDGE_LOOP('',(#356,#357,#358,#359));
#143=EDGE_LOOP('',(#360));
#144=EDGE_LOOP('',(#361,#362,#363));
#145=EDGE_LOOP('',(#364,#365,#366,#367));
#146=EDGE_LOOP('',(#368,#369,#370,#371));
#147=EDGE_LOOP('',(#372,#373,#374,#375,#376,#377,#378,#379));
#148=EDGE_LOOP('',(#380));
#149=CIRCLE('',#433,8.80665);
#150=CIRCLE('',#434,1.7);
#151=CIRCLE('',#436,1.7);
#152=CIRCLE('',#437,1.7);
#153=CIRCLE('',#439,1.7);
#154=CIRCLE('',#440,1.7);
#155=CIRCLE('',#442,1.7);
#156=CIRCLE('',#443,1.7);
#157=CIRCLE('',#445,6.55875);
#158=CIRCLE('',#446,6.55875);
#159=CIRCLE('',#448,8.80665);
#160=CIRCLE('',#449,8.80665);
#161=CIRCLE('',#451,5.15);
#162=CIRCLE('',#453,5.15);
#163=CIRCLE('',#456,8.80665);
#164=CIRCLE('',#458,2.);
#165=CIRCLE('',#459,2.);
#166=CIRCLE('',#462,2.);
#167=CIRCLE('',#463,2.);
#168=CIRCLE('',#464,2.);
#169=CIRCLE('',#466,2.);
#170=CIRCLE('',#469,2.);
#171=CIRCLE('',#472,2.);
#172=VERTEX_POINT('',#610);
#173=VERTEX_POINT('',#611);
#174=VERTEX_POINT('',#615);
#175=VERTEX_POINT('',#616);
#176=VERTEX_POINT('',#618);
#177=VERTEX_POINT('',#620);
#178=VERTEX_POINT('',#622);
#179=VERTEX_POINT('',#624);
#180=VERTEX_POINT('',#627);
#181=VERTEX_POINT('',#630);
#182=VERTEX_POINT('',#634);
#183=VERTEX_POINT('',#636);
#184=VERTEX_POINT('',#643);
#185=VERTEX_POINT('',#647);
#186=VERTEX_POINT('',#650);
#187=VERTEX_POINT('',#655);
#188=VERTEX_POINT('',#659);
#189=VERTEX_POINT('',#660);
#190=VERTEX_POINT('',#662);
#191=VERTEX_POINT('',#664);
#192=VERTEX_POINT('',#668);
#193=VERTEX_POINT('',#670);
#194=VERTEX_POINT('',#674);
#195=VERTEX_POINT('',#676);
#196=VERTEX_POINT('',#678);
#197=VERTEX_POINT('',#680);
#198=VERTEX_POINT('',#682);
#199=VERTEX_POINT('',#686);
#200=VERTEX_POINT('',#690);
#201=VERTEX_POINT('',#694);
#202=VERTEX_POINT('',#695);
#203=VERTEX_POINT('',#702);
#204=VERTEX_POINT('',#706);
#205=VERTEX_POINT('',#707);
#206=VERTEX_POINT('',#709);
#207=VERTEX_POINT('',#713);
#208=VERTEX_POINT('',#715);
#209=VERTEX_POINT('',#719);
#210=EDGE_CURVE('',#172,#173,#149,.T.);
#211=EDGE_CURVE('',#173,#172,#150,.T.);
#212=EDGE_CURVE('',#174,#175,#22,.T.);
#213=EDGE_CURVE('',#176,#174,#151,.T.);
#214=EDGE_CURVE('',#177,#176,#23,.T.);
#215=EDGE_CURVE('',#178,#177,#152,.F.);
#216=EDGE_CURVE('',#178,#179,#24,.T.);
#217=EDGE_CURVE('',#179,#179,#21,.T.);
#218=EDGE_CURVE('',#180,#178,#153,.F.);
#219=EDGE_CURVE('',#180,#173,#25,.T.);
#220=EDGE_CURVE('',#172,#181,#26,.T.);
#221=EDGE_CURVE('',#175,#181,#154,.F.);
#222=EDGE_CURVE('',#182,#182,#155,.T.);
#223=EDGE_CURVE('',#182,#183,#27,.T.);
#224=EDGE_CURVE('',#183,#183,#156,.T.);
#225=EDGE_CURVE('',#177,#175,#157,.T.);
#226=EDGE_CURVE('',#176,#174,#158,.T.);
#227=EDGE_CURVE('',#184,#181,#159,.F.);
#228=EDGE_CURVE('',#180,#184,#160,.F.);
#229=EDGE_CURVE('',#185,#185,#161,.F.);
#230=EDGE_CURVE('',#185,#186,#28,.T.);
#231=EDGE_CURVE('',#186,#186,#162,.T.);
#232=EDGE_CURVE('',#187,#187,#163,.T.);
#233=EDGE_CURVE('',#187,#184,#29,.T.);
#234=EDGE_CURVE('',#188,#189,#164,.T.);
#235=EDGE_CURVE('',#189,#190,#30,.T.);
#236=EDGE_CURVE('',#190,#191,#165,.T.);
#237=EDGE_CURVE('',#191,#188,#31,.T.);
#238=EDGE_CURVE('',#192,#191,#32,.T.);
#239=EDGE_CURVE('',#193,#192,#33,.T.);
#240=EDGE_CURVE('',#188,#193,#34,.T.);
#241=EDGE_CURVE('',#190,#194,#35,.T.);
#242=EDGE_CURVE('',#195,#194,#166,.T.);
#243=EDGE_CURVE('',#195,#196,#36,.T.);
#244=EDGE_CURVE('',#197,#196,#167,.T.);
#245=EDGE_CURVE('',#197,#198,#37,.T.);
#246=EDGE_CURVE('',#192,#198,#168,.T.);
#247=EDGE_CURVE('',#199,#193,#169,.T.);
#248=EDGE_CURVE('',#198,#199,#38,.T.);
#249=EDGE_CURVE('',#200,#197,#39,.T.);
#250=EDGE_CURVE('',#199,#200,#40,.T.);
#251=EDGE_CURVE('',#201,#202,#170,.T.);
#252=EDGE_CURVE('',#202,#195,#41,.T.);
#253=EDGE_CURVE('',#194,#201,#42,.T.);
#254=EDGE_CURVE('',#201,#189,#43,.T.);
#255=EDGE_CURVE('',#203,#200,#171,.T.);
#256=EDGE_CURVE('',#196,#203,#44,.T.);
#257=EDGE_CURVE('',#204,#205,#45,.T.);
#258=EDGE_CURVE('',#206,#204,#46,.T.);
#259=EDGE_CURVE('',#205,#206,#47,.T.);
#260=EDGE_CURVE('',#205,#207,#48,.T.);
#261=EDGE_CURVE('',#206,#208,#49,.T.);
#262=EDGE_CURVE('',#208,#207,#50,.T.);
#263=EDGE_CURVE('',#209,#204,#51,.T.);
#264=EDGE_CURVE('',#209,#208,#52,.T.);
#265=EDGE_CURVE('',#207,#209,#53,.T.);
#266=EDGE_CURVE('',#203,#202,#54,.T.);
#267=ORIENTED_EDGE('',*,*,#210,.F.);
#268=ORIENTED_EDGE('',*,*,#211,.F.);
#269=ORIENTED_EDGE('',*,*,#212,.F.);
#270=ORIENTED_EDGE('',*,*,#213,.F.);
#271=ORIENTED_EDGE('',*,*,#214,.F.);
#272=ORIENTED_EDGE('',*,*,#215,.F.);
#273=ORIENTED_EDGE('',*,*,#216,.T.);
#274=ORIENTED_EDGE('',*,*,#217,.F.);
#275=ORIENTED_EDGE('',*,*,#216,.F.);
#276=ORIENTED_EDGE('',*,*,#218,.F.);
#277=ORIENTED_EDGE('',*,*,#219,.T.);
#278=ORIENTED_EDGE('',*,*,#211,.T.);
#279=ORIENTED_EDGE('',*,*,#220,.T.);
#280=ORIENTED_EDGE('',*,*,#221,.F.);
#281=ORIENTED_EDGE('',*,*,#222,.F.);
#282=ORIENTED_EDGE('',*,*,#223,.T.);
#283=ORIENTED_EDGE('',*,*,#224,.F.);
#284=ORIENTED_EDGE('',*,*,#223,.F.);
#285=ORIENTED_EDGE('',*,*,#212,.T.);
#286=ORIENTED_EDGE('',*,*,#225,.F.);
#287=ORIENTED_EDGE('',*,*,#214,.T.);
#288=ORIENTED_EDGE('',*,*,#226,.T.);
#289=ORIENTED_EDGE('',*,*,#221,.T.);
#290=ORIENTED_EDGE('',*,*,#227,.F.);
#291=ORIENTED_EDGE('',*,*,#228,.F.);
#292=ORIENTED_EDGE('',*,*,#218,.T.);
#293=ORIENTED_EDGE('',*,*,#215,.T.);
#294=ORIENTED_EDGE('',*,*,#225,.T.);
#295=ORIENTED_EDGE('',*,*,#213,.T.);
#296=ORIENTED_EDGE('',*,*,#226,.F.);
#297=ORIENTED_EDGE('',*,*,#229,.F.);
#298=ORIENTED_EDGE('',*,*,#229,.T.);
#299=ORIENTED_EDGE('',*,*,#230,.T.);
#300=ORIENTED_EDGE('',*,*,#231,.T.);
#301=ORIENTED_EDGE('',*,*,#230,.F.);
#302=ORIENTED_EDGE('',*,*,#231,.F.);
#303=ORIENTED_EDGE('',*,*,#232,.F.);
#304=ORIENTED_EDGE('',*,*,#233,.T.);
#305=ORIENTED_EDGE('',*,*,#227,.T.);
#306=ORIENTED_EDGE('',*,*,#220,.F.);
#307=ORIENTED_EDGE('',*,*,#210,.T.);
#308=ORIENTED_EDGE('',*,*,#219,.F.);
#309=ORIENTED_EDGE('',*,*,#228,.T.);
#310=ORIENTED_EDGE('',*,*,#233,.F.);
#311=ORIENTED_EDGE('',*,*,#234,.T.);
#312=ORIENTED_EDGE('',*,*,#235,.T.);
#313=ORIENTED_EDGE('',*,*,#236,.T.);
#314=ORIENTED_EDGE('',*,*,#237,.T.);
#315=ORIENTED_EDGE('',*,*,#237,.F.);
#316=ORIENTED_EDGE('',*,*,#238,.F.);
#317=ORIENTED_EDGE('',*,*,#239,.F.);
#318=ORIENTED_EDGE('',*,*,#240,.F.);
#319=ORIENTED_EDGE('',*,*,#236,.F.);
#320=ORIENTED_EDGE('',*,*,#241,.T.);
#321=ORIENTED_EDGE('',*,*,#242,.F.);
#322=ORIENTED_EDGE('',*,*,#243,.T.);
#323=ORIENTED_EDGE('',*,*,#244,.F.);
#324=ORIENTED_EDGE('',*,*,#245,.T.);
#325=ORIENTED_EDGE('',*,*,#246,.F.);
#326=ORIENTED_EDGE('',*,*,#238,.T.);
#327=ORIENTED_EDGE('',*,*,#224,.T.);
#328=ORIENTED_EDGE('',*,*,#247,.T.);
#329=ORIENTED_EDGE('',*,*,#239,.T.);
#330=ORIENTED_EDGE('',*,*,#246,.T.);
#331=ORIENTED_EDGE('',*,*,#248,.T.);
#332=ORIENTED_EDGE('',*,*,#248,.F.);
#333=ORIENTED_EDGE('',*,*,#245,.F.);
#334=ORIENTED_EDGE('',*,*,#249,.F.);
#335=ORIENTED_EDGE('',*,*,#250,.F.);
#336=ORIENTED_EDGE('',*,*,#251,.T.);
#337=ORIENTED_EDGE('',*,*,#252,.T.);
#338=ORIENTED_EDGE('',*,*,#242,.T.);
#339=ORIENTED_EDGE('',*,*,#253,.T.);
#340=ORIENTED_EDGE('',*,*,#235,.F.);
#341=ORIENTED_EDGE('',*,*,#254,.F.);
#342=ORIENTED_EDGE('',*,*,#253,.F.);
#343=ORIENTED_EDGE('',*,*,#241,.F.);
#344=ORIENTED_EDGE('',*,*,#255,.T.);
#345=ORIENTED_EDGE('',*,*,#249,.T.);
#346=ORIENTED_EDGE('',*,*,#244,.T.);
#347=ORIENTED_EDGE('',*,*,#256,.T.);
#348=ORIENTED_EDGE('',*,*,#257,.F.);
#349=ORIENTED_EDGE('',*,*,#258,.F.);
#350=ORIENTED_EDGE('',*,*,#259,.F.);
#351=ORIENTED_EDGE('',*,*,#260,.F.);
#352=ORIENTED_EDGE('',*,*,#259,.T.);
#353=ORIENTED_EDGE('',*,*,#261,.T.);
#354=ORIENTED_EDGE('',*,*,#262,.T.);
#355=ORIENTED_EDGE('',*,*,#222,.T.);
#356=ORIENTED_EDGE('',*,*,#261,.F.);
#357=ORIENTED_EDGE('',*,*,#258,.T.);
#358=ORIENTED_EDGE('',*,*,#263,.F.);
#359=ORIENTED_EDGE('',*,*,#264,.T.);
#360=ORIENTED_EDGE('',*,*,#217,.T.);
#361=ORIENTED_EDGE('',*,*,#265,.F.);
#362=ORIENTED_EDGE('',*,*,#262,.F.);
#363=ORIENTED_EDGE('',*,*,#264,.F.);
#364=ORIENTED_EDGE('',*,*,#252,.F.);
#365=ORIENTED_EDGE('',*,*,#266,.F.);
#366=ORIENTED_EDGE('',*,*,#256,.F.);
#367=ORIENTED_EDGE('',*,*,#243,.F.);
#368=ORIENTED_EDGE('',*,*,#257,.T.);
#369=ORIENTED_EDGE('',*,*,#260,.T.);
#370=ORIENTED_EDGE('',*,*,#265,.T.);
#371=ORIENTED_EDGE('',*,*,#263,.T.);
#372=ORIENTED_EDGE('',*,*,#234,.F.);
#373=ORIENTED_EDGE('',*,*,#240,.T.);
#374=ORIENTED_EDGE('',*,*,#247,.F.);
#375=ORIENTED_EDGE('',*,*,#250,.T.);
#376=ORIENTED_EDGE('',*,*,#255,.F.);
#377=ORIENTED_EDGE('',*,*,#266,.T.);
#378=ORIENTED_EDGE('',*,*,#251,.F.);
#379=ORIENTED_EDGE('',*,*,#254,.T.);
#380=ORIENTED_EDGE('',*,*,#232,.T.);
#381=PLANE('',#432);
#382=PLANE('',#447);
#383=PLANE('',#450);
#384=PLANE('',#454);
#385=PLANE('',#460);
#386=PLANE('',#461);
#387=PLANE('',#467);
#388=PLANE('',#470);
#389=PLANE('',#473);
#390=PLANE('',#474);
#391=PLANE('',#475);
#392=PLANE('',#476);
#393=PLANE('',#477);
#394=PLANE('',#478);
#395=ADVANCED_FACE('',(#97),#381,.F.);
#396=ADVANCED_FACE('',(#98),#88,.F.);
#397=ADVANCED_FACE('',(#99),#89,.F.);
#398=ADVANCED_FACE('',(#100),#90,.F.);
#399=ADVANCED_FACE('',(#101),#382,.T.);
#400=ADVANCED_FACE('',(#102,#15),#383,.T.);
#401=ADVANCED_FACE('',(#103),#91,.F.);
#402=ADVANCED_FACE('',(#104),#384,.T.);
#403=ADVANCED_FACE('',(#105),#92,.F.);
#404=ADVANCED_FACE('',(#106),#93,.T.);
#405=ADVANCED_FACE('',(#107),#385,.T.);
#406=ADVANCED_FACE('',(#108,#16),#386,.F.);
#407=ADVANCED_FACE('',(#109),#94,.T.);
#408=ADVANCED_FACE('',(#110),#387,.T.);
#409=ADVANCED_FACE('',(#111),#95,.T.);
#410=ADVANCED_FACE('',(#112),#388,.T.);
#411=ADVANCED_FACE('',(#113),#96,.T.);
#412=ADVANCED_FACE('',(#114),#389,.F.);
#413=ADVANCED_FACE('',(#115,#17),#390,.F.);
#414=ADVANCED_FACE('',(#116,#18),#391,.F.);
#415=ADVANCED_FACE('',(#117),#392,.F.);
#416=ADVANCED_FACE('',(#118,#19),#393,.T.);
#417=ADVANCED_FACE('',(#119,#20),#394,.T.);
#418=CLOSED_SHELL('',(#395,#396,#397,#398,#399,#400,#401,#402,#403,#404,
#405,#406,#407,#408,#409,#410,#411,#412,#413,#414,#415,#416,#417));
#419=DERIVED_UNIT_ELEMENT(#421,1.);
#420=DERIVED_UNIT_ELEMENT(#732,-3.);
#421=(
MASS_UNIT()
NAMED_UNIT(*)
SI_UNIT(.KILO.,.GRAM.)
);
#422=DERIVED_UNIT((#419,#420));
#423=MEASURE_REPRESENTATION_ITEM('density measure',
POSITIVE_RATIO_MEASURE(7850.),#422);
#424=PROPERTY_DEFINITION_REPRESENTATION(#429,#426);
#425=PROPERTY_DEFINITION_REPRESENTATION(#430,#427);
#426=REPRESENTATION('material name',(#428),#729);
#427=REPRESENTATION('density',(#423),#729);
#428=DESCRIPTIVE_REPRESENTATION_ITEM('Steel','Steel');
#429=PROPERTY_DEFINITION('material property','material name',#739);
#430=PROPERTY_DEFINITION('material property','density of part',#739);
#431=AXIS2_PLACEMENT_3D('',#608,#479,#480);
#432=AXIS2_PLACEMENT_3D('',#609,#481,#482);
#433=AXIS2_PLACEMENT_3D('',#612,#483,#484);
#434=AXIS2_PLACEMENT_3D('',#613,#485,#486);
#435=AXIS2_PLACEMENT_3D('',#614,#487,#488);
#436=AXIS2_PLACEMENT_3D('',#619,#490,#491);
#437=AXIS2_PLACEMENT_3D('',#623,#493,#494);
#438=AXIS2_PLACEMENT_3D('',#626,#496,#497);
#439=AXIS2_PLACEMENT_3D('',#628,#498,#499);
#440=AXIS2_PLACEMENT_3D('',#632,#502,#503);
#441=AXIS2_PLACEMENT_3D('',#633,#504,#505);
#442=AXIS2_PLACEMENT_3D('',#635,#506,#507);
#443=AXIS2_PLACEMENT_3D('',#638,#509,#510);
#444=AXIS2_PLACEMENT_3D('',#639,#511,#512);
#445=AXIS2_PLACEMENT_3D('',#640,#513,#514);
#446=AXIS2_PLACEMENT_3D('',#641,#515,#516);
#447=AXIS2_PLACEMENT_3D('',#642,#517,#518);
#448=AXIS2_PLACEMENT_3D('',#644,#519,#520);
#449=AXIS2_PLACEMENT_3D('',#645,#521,#522);
#450=AXIS2_PLACEMENT_3D('',#646,#523,#524);
#451=AXIS2_PLACEMENT_3D('',#648,#525,#526);
#452=AXIS2_PLACEMENT_3D('',#649,#527,#528);
#453=AXIS2_PLACEMENT_3D('',#652,#530,#531);
#454=AXIS2_PLACEMENT_3D('',#653,#532,#533);
#455=AXIS2_PLACEMENT_3D('',#654,#534,#535);
#456=AXIS2_PLACEMENT_3D('',#656,#536,#537);
#457=AXIS2_PLACEMENT_3D('',#658,#539,#540);
#458=AXIS2_PLACEMENT_3D('',#661,#541,#542);
#459=AXIS2_PLACEMENT_3D('',#665,#544,#545);
#460=AXIS2_PLACEMENT_3D('',#667,#547,#548);
#461=AXIS2_PLACEMENT_3D('',#673,#552,#553);
#462=AXIS2_PLACEMENT_3D('',#677,#555,#556);
#463=AXIS2_PLACEMENT_3D('',#681,#558,#559);
#464=AXIS2_PLACEMENT_3D('',#684,#561,#562);
#465=AXIS2_PLACEMENT_3D('',#685,#563,#564);
#466=AXIS2_PLACEMENT_3D('',#687,#565,#566);
#467=AXIS2_PLACEMENT_3D('',#689,#568,#569);
#468=AXIS2_PLACEMENT_3D('',#693,#572,#573);
#469=AXIS2_PLACEMENT_3D('',#696,#574,#575);
#470=AXIS2_PLACEMENT_3D('',#699,#578,#579);
#471=AXIS2_PLACEMENT_3D('',#701,#581,#582);
#472=AXIS2_PLACEMENT_3D('',#703,#583,#584);
#473=AXIS2_PLACEMENT_3D('',#705,#586,#587);
#474=AXIS2_PLACEMENT_3D('',#712,#591,#592);
#475=AXIS2_PLACEMENT_3D('',#718,#596,#597);
#476=AXIS2_PLACEMENT_3D('',#722,#600,#601);
#477=AXIS2_PLACEMENT_3D('',#724,#603,#604);
#478=AXIS2_PLACEMENT_3D('',#726,#606,#607);
#479=DIRECTION('axis',(0.,0.,1.));
#480=DIRECTION('refdir',(1.,0.,0.));
#481=DIRECTION('center_axis',(0.,1.,0.));
#482=DIRECTION('ref_axis',(-1.,0.,0.));
#483=DIRECTION('center_axis',(0.,-1.,0.));
#484=DIRECTION('ref_axis',(-1.,0.,0.));
#485=DIRECTION('center_axis',(0.,1.,0.));
#486=DIRECTION('ref_axis',(-1.,0.,0.));
#487=DIRECTION('center_axis',(0.,-1.,0.));
#488=DIRECTION('ref_axis',(-1.,0.,0.));
#489=DIRECTION('',(0.,1.,0.));
#490=DIRECTION('center_axis',(0.,-1.,0.));
#491=DIRECTION('ref_axis',(-1.,0.,0.));
#492=DIRECTION('',(0.,-1.,0.));
#493=DIRECTION('center_axis',(0.,1.,0.));
#494=DIRECTION('ref_axis',(-1.,0.,0.));
#495=DIRECTION('',(0.,-1.,0.));
#496=DIRECTION('center_axis',(-0.678280102733066,0.734803444627488,0.));
#497=DIRECTION('ref_axis',(-0.734803444627488,-0.678280102733066,0.));
#498=DIRECTION('center_axis',(0.,1.,0.));
#499=DIRECTION('ref_axis',(-1.,0.,0.));
#500=DIRECTION('',(0.,1.,0.));
#501=DIRECTION('',(0.,-1.,0.));
#502=DIRECTION('center_axis',(0.,1.,0.));
#503=DIRECTION('ref_axis',(-1.,0.,0.));
#504=DIRECTION('center_axis',(0.,-1.,0.));
#505=DIRECTION('ref_axis',(-1.,0.,0.));
#506=DIRECTION('center_axis',(-1.28102656687518E-16,-1.,0.));
#507=DIRECTION('ref_axis',(-1.,0.,0.));
#508=DIRECTION('',(0.,-1.,0.));
#509=DIRECTION('center_axis',(0.,1.,0.));
#510=DIRECTION('ref_axis',(-1.,0.,0.));
#511=DIRECTION('center_axis',(0.,-1.,0.));
#512=DIRECTION('ref_axis',(-6.12323399573677E-17,0.,1.));
#513=DIRECTION('center_axis',(0.,-1.,0.));
#514=DIRECTION('ref_axis',(-1.,0.,0.));
#515=DIRECTION('center_axis',(0.,-1.,0.));
#516=DIRECTION('ref_axis',(-1.,0.,0.));
#517=DIRECTION('center_axis',(0.,1.,0.));
#518=DIRECTION('ref_axis',(-1.,0.,0.));
#519=DIRECTION('center_axis',(0.,1.,0.));
#520=DIRECTION('ref_axis',(-1.,0.,0.));
#521=DIRECTION('center_axis',(0.,1.,0.));
#522=DIRECTION('ref_axis',(-1.,0.,0.));
#523=DIRECTION('center_axis',(0.,1.,0.));
#524=DIRECTION('ref_axis',(0.,0.,1.));
#525=DIRECTION('center_axis',(0.,-1.,0.));
#526=DIRECTION('ref_axis',(-1.,0.,0.));
#527=DIRECTION('center_axis',(0.,-1.,0.));
#528=DIRECTION('ref_axis',(-1.,0.,0.));
#529=DIRECTION('',(0.,-1.,0.));
#530=DIRECTION('center_axis',(0.,-1.,0.));
#531=DIRECTION('ref_axis',(-1.,0.,0.));
#532=DIRECTION('center_axis',(0.,1.,0.));
#533=DIRECTION('ref_axis',(-1.,0.,0.));
#534=DIRECTION('center_axis',(0.,-1.,0.));
#535=DIRECTION('ref_axis',(-1.,0.,0.));
#536=DIRECTION('center_axis',(0.,-1.,0.));
#537=DIRECTION('ref_axis',(-1.,0.,0.));
#538=DIRECTION('',(0.,-1.,0.));
#539=DIRECTION('center_axis',(0.,1.,0.));
#540=DIRECTION('ref_axis',(-0.707106781186548,0.,-0.707106781186548));
#541=DIRECTION('center_axis',(0.,-1.,0.));
#542=DIRECTION('ref_axis',(-0.707106781186548,0.,-0.707106781186548));
#543=DIRECTION('',(0.,-1.,0.));
#544=DIRECTION('center_axis',(0.,1.,0.));
#545=DIRECTION('ref_axis',(-0.707106781186548,0.,-0.707106781186548));
#546=DIRECTION('',(0.,1.,0.));
#547=DIRECTION('center_axis',(-1.,0.,1.26882631385732E-16));
#548=DIRECTION('ref_axis',(1.26882631385732E-16,0.,1.));
#549=DIRECTION('',(-1.26882631385732E-16,0.,-1.));
#550=DIRECTION('',(0.,-1.,0.));
#551=DIRECTION('',(1.26882631385732E-16,0.,1.));
#552=DIRECTION('center_axis',(0.,1.,0.));
#553=DIRECTION('ref_axis',(1.,0.,0.));
#554=DIRECTION('',(1.,0.,1.90323947078598E-16));
#555=DIRECTION('center_axis',(0.,1.,0.));
#556=DIRECTION('ref_axis',(0.707106781186548,0.,-0.707106781186548));
#557=DIRECTION('',(1.26882631385732E-16,0.,1.));
#558=DIRECTION('center_axis',(0.,1.,0.));
#559=DIRECTION('ref_axis',(0.707106781186548,0.,0.707106781186548));
#560=DIRECTION('',(-1.,0.,1.26882631385732E-16));
#561=DIRECTION('center_axis',(0.,1.,0.));
#562=DIRECTION('ref_axis',(-0.707106781186548,0.,0.707106781186547));
#563=DIRECTION('center_axis',(0.,1.,0.));
#564=DIRECTION('ref_axis',(-0.707106781186548,0.,0.707106781186547));
#565=DIRECTION('center_axis',(0.,-1.,0.));
#566=DIRECTION('ref_axis',(-0.707106781186548,0.,0.707106781186547));
#567=DIRECTION('',(0.,1.,0.));
#568=DIRECTION('center_axis',(1.26882631385732E-16,0.,1.));
#569=DIRECTION('ref_axis',(1.,0.,-1.26882631385732E-16));
#570=DIRECTION('',(0.,-1.,0.));
#571=DIRECTION('',(1.,0.,-1.26882631385732E-16));
#572=DIRECTION('center_axis',(0.,1.,0.));
#573=DIRECTION('ref_axis',(0.707106781186548,0.,-0.707106781186548));
#574=DIRECTION('center_axis',(0.,-1.,0.));
#575=DIRECTION('ref_axis',(0.707106781186548,0.,-0.707106781186548));
#576=DIRECTION('',(0.,-1.,0.));
#577=DIRECTION('',(0.,1.,0.));
#578=DIRECTION('center_axis',(1.90323947078598E-16,0.,-1.));
#579=DIRECTION('ref_axis',(-1.,0.,-1.90323947078598E-16));
#580=DIRECTION('',(-1.,0.,-1.90323947078598E-16));
#581=DIRECTION('center_axis',(0.,1.,0.));
#582=DIRECTION('ref_axis',(0.707106781186548,0.,0.707106781186548));
#583=DIRECTION('center_axis',(0.,-1.,0.));
#584=DIRECTION('ref_axis',(0.707106781186548,0.,0.707106781186548));
#585=DIRECTION('',(0.,1.,0.));
#586=DIRECTION('center_axis',(0.,0.,-1.));
#587=DIRECTION('ref_axis',(-1.,0.,0.));
#588=DIRECTION('',(0.,-1.,0.));
#589=DIRECTION('',(0.734803444627488,0.678280102733066,0.));
#590=DIRECTION('',(-1.,1.28102656687518E-16,0.));
#591=DIRECTION('center_axis',(-1.28102656687518E-16,-1.,0.));
#592=DIRECTION('ref_axis',(1.,-1.28102656687518E-16,0.));
#593=DIRECTION('',(1.26882631385732E-16,-1.62540021680154E-32,1.));
#594=DIRECTION('',(0.,0.,1.));
#595=DIRECTION('',(1.,-1.28102656687518E-16,0.));
#596=DIRECTION('center_axis',(-0.678280102733066,0.734803444627488,0.));
#597=DIRECTION('ref_axis',(-0.734803444627488,-0.678280102733066,0.));
#598=DIRECTION('',(-1.26882631385732E-16,-1.17122428971445E-16,-1.));
#599=DIRECTION('',(-0.734803444627488,-0.678280102733066,0.));
#600=DIRECTION('center_axis',(0.,0.,1.));
#601=DIRECTION('ref_axis',(1.,0.,0.));
#602=DIRECTION('',(0.,1.,0.));
#603=DIRECTION('center_axis',(1.,0.,-1.26882631385732E-16));
#604=DIRECTION('ref_axis',(-1.26882631385732E-16,0.,-1.));
#605=DIRECTION('',(-1.26882631385732E-16,0.,-1.));
#606=DIRECTION('center_axis',(0.,1.,0.));
#607=DIRECTION('ref_axis',(0.,0.,1.));
#608=CARTESIAN_POINT('',(0.,0.,0.));
#609=CARTESIAN_POINT('Origin',(-5.55111512312578E-16,29.775,-7.6577));
#610=CARTESIAN_POINT('',(-1.3397589586636,29.775,-8.70414442407642));
#611=CARTESIAN_POINT('',(1.3397589586636,29.775,-8.70414442407642));
#612=CARTESIAN_POINT('Origin',(0.,29.775,0.));
#613=CARTESIAN_POINT('Origin',(-4.68898889691534E-16,29.775,-7.6577));
#614=CARTESIAN_POINT('Origin',(-4.68898889691534E-16,29.775,-7.6577));
#615=CARTESIAN_POINT('',(-1.19533109153108,28.725,-6.44890573230214));
#616=CARTESIAN_POINT('',(-1.19533109153109,29.725,-6.44890573230214));
#617=CARTESIAN_POINT('',(-1.19533109153103,29.775,-6.44890573230213));
#618=CARTESIAN_POINT('',(1.19533109153108,28.725,-6.44890573230214));
#619=CARTESIAN_POINT('Origin',(-4.68898889691534E-16,28.725,-7.6577));
#620=CARTESIAN_POINT('',(1.19533109153109,29.725,-6.44890573230214));
#621=CARTESIAN_POINT('',(1.19533109153103,29.775,-6.44890573230213));
#622=CARTESIAN_POINT('',(1.7,29.725,-7.6577));
#623=CARTESIAN_POINT('Origin',(-4.68898889691534E-16,29.725,-7.6577));
#624=CARTESIAN_POINT('',(1.7,16.4153846153847,-7.6577));
#625=CARTESIAN_POINT('',(1.7,29.775,-7.6577));
#626=CARTESIAN_POINT('Origin',(-4.68898889691534E-16,14.8461538461539,-7.6577));
#627=CARTESIAN_POINT('',(1.3397589586636,29.725,-8.70414442407642));
#628=CARTESIAN_POINT('Origin',(-4.68898889691534E-16,29.725,-7.6577));
#629=CARTESIAN_POINT('',(1.3397589586636,29.775,-8.70414442407642));
#630=CARTESIAN_POINT('',(-1.3397589586636,29.725,-8.70414442407642));
#631=CARTESIAN_POINT('',(-1.3397589586636,29.775,-8.70414442407642));
#632=CARTESIAN_POINT('Origin',(-4.68898889691534E-16,29.725,-7.6577));
#633=CARTESIAN_POINT('Origin',(-4.68898889691534E-16,29.775,-7.6577));
#634=CARTESIAN_POINT('',(1.7,7.,-7.6577));
#635=CARTESIAN_POINT('Origin',(-4.68898889691534E-16,7.,-7.6577));
#636=CARTESIAN_POINT('',(1.7,0.,-7.6577));
#637=CARTESIAN_POINT('',(1.7,29.775,-7.6577));
#638=CARTESIAN_POINT('Origin',(-4.68898889691534E-16,0.,-7.6577));
#639=CARTESIAN_POINT('Origin',(0.,29.775,0.));
#640=CARTESIAN_POINT('Origin',(0.,29.725,0.));
#641=CARTESIAN_POINT('Origin',(0.,28.725,0.));
#642=CARTESIAN_POINT('Origin',(0.,29.725,0.));
#643=CARTESIAN_POINT('',(8.80665,29.725,1.0785035733711E-15));
#644=CARTESIAN_POINT('Origin',(0.,29.725,0.));
#645=CARTESIAN_POINT('Origin',(0.,29.725,0.));
#646=CARTESIAN_POINT('Origin',(0.,28.725,0.));
#647=CARTESIAN_POINT('',(5.15,28.725,6.30693101560887E-16));
#648=CARTESIAN_POINT('Origin',(0.,28.725,0.));
#649=CARTESIAN_POINT('Origin',(0.,29.775,0.));
#650=CARTESIAN_POINT('',(5.15,19.725,6.30693101560887E-16));
#651=CARTESIAN_POINT('',(5.15,29.775,6.30693101560887E-16));
#652=CARTESIAN_POINT('Origin',(0.,19.725,0.));
#653=CARTESIAN_POINT('Origin',(0.,19.725,0.));
#654=CARTESIAN_POINT('Origin',(0.,52.,0.));
#655=CARTESIAN_POINT('',(8.80665,52.,1.0785035733711E-15));
#656=CARTESIAN_POINT('Origin',(0.,52.,0.));
#657=CARTESIAN_POINT('',(8.80665,52.,1.0785035733711E-15));
#658=CARTESIAN_POINT('Origin',(-15.5000000000001,0.,-15.5));
#659=CARTESIAN_POINT('',(-17.5000000000001,52.,-15.5));
#660=CARTESIAN_POINT('',(-15.5000000000001,52.,-17.5));
#661=CARTESIAN_POINT('Origin',(-15.5000000000001,52.,-15.5));
#662=CARTESIAN_POINT('',(-15.5000000000001,0.,-17.5));
#663=CARTESIAN_POINT('',(-15.5000000000001,0.,-17.5));
#664=CARTESIAN_POINT('',(-17.5000000000001,0.,-15.5));
#665=CARTESIAN_POINT('Origin',(-15.5000000000001,0.,-15.5));
#666=CARTESIAN_POINT('',(-17.5000000000001,0.,-15.5));
#667=CARTESIAN_POINT('Origin',(-17.5000000000001,0.,-17.5));
#668=CARTESIAN_POINT('',(-17.5000000000001,0.,15.5000000000001));
#669=CARTESIAN_POINT('',(-17.5000000000001,0.,17.5000000000001));
#670=CARTESIAN_POINT('',(-17.5000000000001,52.,15.5000000000001));
#671=CARTESIAN_POINT('',(-17.5000000000001,0.,15.5000000000001));
#672=CARTESIAN_POINT('',(-17.5000000000001,52.,17.5000000000001));
#673=CARTESIAN_POINT('Origin',(-6.88338275267597E-14,0.,4.88498130835069E-14));
#674=CARTESIAN_POINT('',(15.4999999999999,0.,-17.5));
#675=CARTESIAN_POINT('',(-17.5000000000001,0.,-17.5));
#676=CARTESIAN_POINT('',(17.4999999999999,0.,-15.5));
#677=CARTESIAN_POINT('Origin',(15.4999999999999,0.,-15.5));
#678=CARTESIAN_POINT('',(17.4999999999999,0.,15.5000000000001));
#679=CARTESIAN_POINT('',(17.4999999999999,0.,-17.5));
#680=CARTESIAN_POINT('',(15.4999999999999,0.,17.5));
#681=CARTESIAN_POINT('Origin',(15.4999999999999,0.,15.5000000000001));
#682=CARTESIAN_POINT('',(-15.5000000000001,0.,17.5000000000001));
#683=CARTESIAN_POINT('',(17.4999999999999,0.,17.5));
#684=CARTESIAN_POINT('Origin',(-15.5000000000001,0.,15.5000000000001));
#685=CARTESIAN_POINT('Origin',(-15.5000000000001,0.,15.5000000000001));
#686=CARTESIAN_POINT('',(-15.5000000000001,52.,17.5000000000001));
#687=CARTESIAN_POINT('Origin',(-15.5000000000001,52.,15.5000000000001));
#688=CARTESIAN_POINT('',(-15.5000000000001,0.,17.5000000000001));
#689=CARTESIAN_POINT('Origin',(-17.5000000000001,0.,17.5000000000001));
#690=CARTESIAN_POINT('',(15.4999999999999,52.,17.5));
#691=CARTESIAN_POINT('',(15.4999999999999,0.,17.5));
#692=CARTESIAN_POINT('',(17.4999999999999,52.,17.5));
#693=CARTESIAN_POINT('Origin',(15.4999999999999,0.,-15.5));
#694=CARTESIAN_POINT('',(15.4999999999999,52.,-17.5));
#695=CARTESIAN_POINT('',(17.4999999999999,52.,-15.5));
#696=CARTESIAN_POINT('Origin',(15.4999999999999,52.,-15.5));
#697=CARTESIAN_POINT('',(17.4999999999999,0.,-15.5));
#698=CARTESIAN_POINT('',(15.4999999999999,0.,-17.5));
#699=CARTESIAN_POINT('Origin',(17.4999999999999,0.,-17.5));
#700=CARTESIAN_POINT('',(-17.5000000000001,52.,-17.5));
#701=CARTESIAN_POINT('Origin',(15.4999999999999,0.,15.5000000000001));
#702=CARTESIAN_POINT('',(17.4999999999999,52.,15.5000000000001));
#703=CARTESIAN_POINT('Origin',(15.4999999999999,52.,15.5000000000001));
#704=CARTESIAN_POINT('',(17.4999999999999,0.,15.5000000000001));
#705=CARTESIAN_POINT('Origin',(4.49999999999993,19.,-10.5));
#706=CARTESIAN_POINT('',(17.4999999999999,31.,-10.5));
#707=CARTESIAN_POINT('',(17.4999999999999,7.,-10.5));
#708=CARTESIAN_POINT('',(17.4999999999999,9.5,-10.5));
#709=CARTESIAN_POINT('',(-8.50000000000007,7.,-10.5));
#710=CARTESIAN_POINT('',(-8.50000000000007,7.,-10.5));
#711=CARTESIAN_POINT('',(17.4999999999999,7.,-10.5));
#712=CARTESIAN_POINT('Origin',(-8.50000000000007,7.,0.));
#713=CARTESIAN_POINT('',(17.4999999999999,7.,10.5));
#714=CARTESIAN_POINT('',(17.4999999999999,7.,8.75000000000002));
#715=CARTESIAN_POINT('',(-8.50000000000007,7.,10.5));
#716=CARTESIAN_POINT('',(-8.50000000000007,7.,0.));
#717=CARTESIAN_POINT('',(17.4999999999999,7.,10.5));
#718=CARTESIAN_POINT('Origin',(17.4999999999999,31.,0.));
#719=CARTESIAN_POINT('',(17.4999999999999,31.,10.5));
#720=CARTESIAN_POINT('',(17.4999999999999,31.,8.75000000000002));
#721=CARTESIAN_POINT('',(-8.50000000000007,7.,10.5));
#722=CARTESIAN_POINT('Origin',(4.49999999999993,19.,10.5));
#723=CARTESIAN_POINT('',(17.4999999999999,9.5,10.5));
#724=CARTESIAN_POINT('Origin',(17.4999999999999,0.,17.5));
#725=CARTESIAN_POINT('',(17.4999999999999,52.,-17.5));
#726=CARTESIAN_POINT('Origin',(-6.88338275267597E-14,52.,4.88498130835069E-14));
#727=UNCERTAINTY_MEASURE_WITH_UNIT(LENGTH_MEASURE(0.01),#731,
'DISTANCE_ACCURACY_VALUE',
'Maximum model space distance between geometric entities at asserted c
onnectivities');
#728=UNCERTAINTY_MEASURE_WITH_UNIT(LENGTH_MEASURE(0.01),#731,
'DISTANCE_ACCURACY_VALUE',
'Maximum model space distance between geometric entities at asserted c
onnectivities');
#729=(
GEOMETRIC_REPRESENTATION_CONTEXT(3)
GLOBAL_UNCERTAINTY_ASSIGNED_CONTEXT((#727))
GLOBAL_UNIT_ASSIGNED_CONTEXT((#731,#733,#734))
REPRESENTATION_CONTEXT('','3D')
);
#730=(
GEOMETRIC_REPRESENTATION_CONTEXT(3)
GLOBAL_UNCERTAINTY_ASSIGNED_CONTEXT((#728))
GLOBAL_UNIT_ASSIGNED_CONTEXT((#731,#733,#734))
REPRESENTATION_CONTEXT('','3D')
);
#731=(
LENGTH_UNIT()
NAMED_UNIT(*)
SI_UNIT(.MILLI.,.METRE.)
);
#732=(
LENGTH_UNIT()
NAMED_UNIT(*)
SI_UNIT($,.METRE.)
);
#733=(
NAMED_UNIT(*)
PLANE_ANGLE_UNIT()
SI_UNIT($,.RADIAN.)
);
#734=(
NAMED_UNIT(*)
SI_UNIT($,.STERADIAN.)
SOLID_ANGLE_UNIT()
);
#735=SHAPE_DEFINITION_REPRESENTATION(#736,#737);
#736=PRODUCT_DEFINITION_SHAPE('',$,#739);
#737=SHAPE_REPRESENTATION('',(#431),#729);
#738=PRODUCT_DEFINITION_CONTEXT('part definition',#743,'design');
#739=PRODUCT_DEFINITION('2026-08-29-11-09-36-148','(Unsaved)',#740,#738);
#740=PRODUCT_DEFINITION_FORMATION('',$,#745);
#741=PRODUCT_RELATED_PRODUCT_CATEGORY('(Unsaved)','(Unsaved)',(#745));
#742=APPLICATION_PROTOCOL_DEFINITION('international standard',
'automotive_design',2009,#743);
#743=APPLICATION_CONTEXT(
'Core Data for Automotive Mechanical Design Process');
#744=PRODUCT_CONTEXT('part definition',#743,'mechanical');
#745=PRODUCT('2026-08-29-11-09-36-148','(Unsaved)',$,(#744));
#746=PRESENTATION_STYLE_ASSIGNMENT((#747));
#747=SURFACE_STYLE_USAGE(.BOTH.,#748);
#748=SURFACE_SIDE_STYLE('',(#749));
#749=SURFACE_STYLE_FILL_AREA(#750);
#750=FILL_AREA_STYLE('Steel - Satin',(#751));
#751=FILL_AREA_STYLE_COLOUR('Steel - Satin',#752);
#752=COLOUR_RGB('Steel - Satin',0.627450980392157,0.627450980392157,0.627450980392157);
ENDSEC;
END-ISO-10303-21;
