0
SECTION
2
HEADER
9
$INSUNITS
70
4
9
$ACADVER
1
AC1014
9
$HANDSEED
5
FFFF
0
ENDSEC
0
SECTION
2
TABLES
0
TABLE
2
VPORT
5
8
100
AcDbSymbolTable
0
ENDTAB
0
TABLE
2
LTYPE
5
5
100
AcDbSymbolTable
0
LTYPE
5
14
100
AcDbSymbolTableRecord
100
AcDbLinetypeTableRecord
2
BYBLOCK
70
0
0
LTYPE
5
15
100
AcDbSymbolTableRecord
100
AcDbLinetypeTableRecord
2
BYLAYER
70
0
0
ENDTAB
0
TABLE
2
LAYER
5
2
100
AcDbSymbolTable
70
2
0
LAYER
5
50
100
AcDbSymbolTableRecord
100
AcDbLayerTableRecord
2
0
70
0
6
CONTINUOUS
0
ENDTAB
0
TABLE
2
STYLE
5
3
100
AcDbSymbolTable
70
1
0
STYLE
5
11
100
AcDbSymbolTableRecord
100
AcDbTextStyleTableRecord
2
STANDARD
70
0
0
ENDTAB
0
TABLE
2
VIEW
5
6
100
AcDbSymbolTable
70
0
0
ENDTAB
0
TABLE
2
UCS
5
7
100
AcDbSymbolTable
70
0
0
ENDTAB
0
TABLE
2
APPID
5
9
100
AcDbSymbolTable
70
2
0
APPID
5
12
100
AcDbSymbolTableRecord
100
AcDbRegAppTableRecord
2
ACAD
70
0
0
ENDTAB
0
TABLE
2
DIMSTYLE
5
A
100
AcDbSymbolTable
70
1
0
ENDTAB
0
TABLE
2
BLOCK_RECORD
5
1
100
AcDbSymbolTable
70
1
0
BLOCK_RECORD
5
1F
100
AcDbSymbolTableRecord
100
AcDbBlockTableRecord
2
*MODEL_SPACE
0
BLOCK_RECORD
5
1B
100
AcDbSymbolTableRecord
100
AcDbBlockTableRecord
2
*PAPER_SPACE
0
ENDTAB
0
ENDSEC
0
SECTION
2
BLOCKS
0
BLOCK
5
20
100
AcDbEntity
100
AcDbBlockBegin
2
*MODEL_SPACE
0
ENDBLK
5
21
100
AcDbEntity
100
AcDbBlockEnd
0
BLOCK
5
1C
100
AcDbEntity
100
AcDbBlockBegin
2
*PAPER_SPACE
0
ENDBLK
5
1D
100
AcDbEntity
100
AcDbBlockEnd
0
ENDSEC
0
SECTION
2
ENTITIES
0
ARC
5
100
100
AcDbEntity
8
0
100
AcDbCircle
10
1.5553348083136897e-13
20
-28.000000000000036
30
0
40
14.500000000000004
210
7.3667630442707566e-32
220
3.6539371619265879e-32
230
1
100
AcDbArc
50
25.102720755894058
51
154.89727924410602
0
ARC
5
101
100
AcDbEntity
8
0
100
AcDbCircle
10
-14.941552797490479
20
-21.00000000001419
30
6.7875394365733327e-45
40
2.0000000000000284
210
2.7487426859226234e-46
220
-2.2507702792834017e-32
230
1
100
AcDbArc
50
270.00000000000074
51
334.89727924410556
0
LINE
5
102
100
AcDbEntity
8
0
100
AcDbLine
10
-14.941552797490454
20
-23.000000000014218
30
-4.5015405585661887e-32
11
-19.369048226651621
21
-23.000000000014211
31
1.9446922743316068e-61
0
ARC
5
103
100
AcDbEntity
8
0
100
AcDbCircle
10
-19.369048226651611
20
-25.000000000014211
30
0
40
2.0000000000000018
210
7.8886090522101181e-31
220
3.5032461608120396e-45
230
1
100
AcDbArc
50
90.000000000000313
51
171.19562943324226
0
ARC
5
104
100
AcDbEntity
8
0
100
AcDbCircle
10
1.5553348083136897e-13
20
-28.000000000000036
30
0
40
21.600000745058068
210
7.1331449360956023e-32
220
-1.1048263475713864e-32
230
1
100
AcDbArc
50
171.195629433242
51
188.80437056684192
0
ARC
5
105
100
AcDbEntity
8
0
100
AcDbCircle
10
-19.369048226647219
20
-31.000000000014243
30
0
40
2.0000000000000036
210
-8.1589488387343148e-47
220
5.3831997095270424e-47
230
1
100
AcDbArc
50
188.80437056684138
51
270.00000000000011
0
LINE
5
106
100
AcDbEntity
8
0
100
AcDbLine
10
-19.369048226647216
20
-33.000000000014246
30
2.4148802303191539e-31
11
-14.94155279747714
21
-33.000000000014225
31
2.3336307291979281e-60
0
ARC
5
107
100
AcDbEntity
8
0
100
AcDbCircle
10
-14.941552797477151
20
-35.000000000014239
30
-8.210733189403225e-46
40
2.0000000000000115
210
6.4688043008423209e-31
220
3.0305839506610155e-31
230
1
100
AcDbArc
50
25.102720756003244
51
89.999999999999702
0
ARC
5
108
100
AcDbEntity
8
0
100
AcDbCircle
10
1.5553348083136897e-13
20
-28.000000000000036
30
0
40
14.500000000000012
210
2.4472184801512273e-31
220
-7.5461298242464211e-31
230
1
100
AcDbArc
50
205.10272075600278
51
334.89727924399716
0
ARC
5
109
100
AcDbEntity
8
0
100
AcDbCircle
10
14.941552797477417
20
-35.000000000014232
30
1.5800624728944305e-60
40
2.0000000000000107
210
-1.9041470126063014e-31
220
2.9143384010289115e-46
230
1
100
AcDbArc
50
89.999999999999844
51
154.89727924399662
0
LINE
5
110
100
AcDbEntity
8
0
100
AcDbLine
10
14.941552797477422
20
-33.000000000014225
30
2.6274346206090577e-46
11
19.369048226647486
21
-33.000000000014246
31
-7.7787690973264271e-61
0
ARC
5
111
100
AcDbEntity
8
0
100
AcDbCircle
10
19.369048226647489
20
-31.000000000014246
30
0
40
1.9999999999999973
210
7.8886090522101181e-31
220
-1.7516230804060241e-45
230
1
100
AcDbArc
50
269.99999999999989
51
351.19562943315827
0
ARC
5
112
100
AcDbEntity
8
0
100
AcDbCircle
10
1.5553348083136897e-13
20
-28.000000000000036
30
0
40
21.600000745058029
210
7.133144936092364e-32
220
-1.1048263475815945e-32
230
1
100
AcDbArc
50
-8.8043705668420067
51
8.8043705667578944
0
ARC
5
113
100
AcDbEntity
8
0
100
AcDbCircle
10
19.369048226651891
20
-25.000000000014211
30
0
40
1.9999999999999938
210
-6.4911869826768118e-47
220
-5.3844535635303506e-47
230
1
100
AcDbArc
50
8.8043705667564396
51
90.000000000000199
0
LINE
5
114
100
AcDbEntity
8
0
100
AcDbLine
10
19.369048226651884
20
-23.000000000014214
30
8.7581154020300931e-47
11
14.941552797490738
21
-23.000000000014222
31
-1.7502230468984461e-60
0
ARC
5
115
100
AcDbEntity
8
0
100
AcDbCircle
10
14.941552797490756
20
-21.00000000001419
30
1.5557538194652854e-60
40
2.0000000000000289
210
-3.0281616720654247e-46
220
5.1499166186374532e-46
230
1
100
AcDbArc
50
205.10272075589441
51
269.99999999999949
0
CIRCLE
5
116
100
AcDbEntity
8
0
100
AcDbCircle
10
17.500000000000039
20
-28.000000000000007
30
0
40
1.6999999999999993
210
-7.8886090522101181e-31
220
9.1751896406223276e-93
230
1
0
CIRCLE
5
117
100
AcDbEntity
8
0
100
AcDbCircle
10
-17.499999999999961
20
-28.000000000000007
30
0
40
1.6999999999999993
210
-7.8886090522101181e-31
220
9.1751896406223276e-93
230
1
0
ENDSEC
0
SECTION
2
OBJECTS
0
DICTIONARY
5
C
100
AcDbDictionary
3
ACAD_GROUP
350
D
3
ACAD_MLINESTYLE
350
17
0
DICTIONARY
5
D
100
AcDbDictionary
0
DICTIONARY
5
1A
330
C
100
AcDbDictionary
0
DICTIONARY
5
17
100
AcDbDictionary
0
ENDSEC
0
EOF
