ISO-10303-21;
HEADER;
/* Generated by software containing ST-Developer
 * from STEP Tools, Inc. (www.steptools.com) 
 */

FILE_DESCRIPTION(
/* description */ (''),
/* implementation_level */ '2;1');

FILE_NAME(
/* name */ 'counterweight-funnel_v1.0.step',
/* time_stamp */ '2026-08-29T11:09:46-05:00',
/* author */ (''),
/* organization */ (''),
/* preprocessor_version */ 'ST-DEVELOPER v20.1',
/* originating_system */ 'Autodesk Translation Framework v15.8.0.0',
/* authorisation */ '');

FILE_SCHEMA (('AUTOMOTIVE_DESIGN { 1 0 10303 214 3 1 1 }'));
ENDSEC;

DATA;
#10=MECHANICAL_DESIGN_GEOMETRIC_PRESENTATION_REPRESENTATION('',(#13),#1219);
#11=SHAPE_REPRESENTATION_RELATIONSHIP('SRR','None',#1226,#12);
#12=ADVANCED_BREP_SHAPE_REPRESENTATION('',(#14),#1218);
#13=STYLED_ITEM('',(#1235),#14);
#14=MANIFOLD_SOLID_BREP('Body1',#703);
#15=B_SPLINE_CURVE_WITH_KNOTS('',3,(#1154,#1155,#1156,#1157,#1158,#1159,
#1160,#1161,#1162,#1163,#1164,#1165),.UNSPECIFIED.,.F.,.F.,(4,2,2,2,2,4),
(-0.123167987707801,-0.100930426189055,-0.0782022917804079,-0.0454863516325127,
-0.0184740976631976,0.),.UNSPECIFIED.);
#16=B_SPLINE_CURVE_WITH_KNOTS('',3,(#1197,#1198,#1199,#1200,#1201,#1202,
#1203,#1204,#1205,#1206,#1207,#1208),.UNSPECIFIED.,.F.,.F.,(4,2,2,2,2,4),
(-0.137850821967039,-0.118328175196754,-0.102223347929546,-0.0733083375196319,
-0.0361087524523645,0.),.UNSPECIFIED.);
#17=FACE_BOUND('',#132,.T.);
#18=FACE_BOUND('',#144,.T.);
#19=CIRCLE('',#726,1.);
#20=CIRCLE('',#736,1.);
#21=CIRCLE('',#742,1.);
#22=CIRCLE('',#749,1.);
#23=CIRCLE('',#756,1.);
#24=CIRCLE('',#769,1.);
#25=CIRCLE('',#777,1.);
#26=CIRCLE('',#782,1.);
#27=ELLIPSE('',#723,1.60938652908492,1.);
#28=ELLIPSE('',#724,1.09785874619562,1.);
#29=ELLIPSE('',#727,1.01472396580465,1.);
#30=ELLIPSE('',#729,1.37663184115342,1.);
#31=ELLIPSE('',#733,1.06114325140388,1.);
#32=ELLIPSE('',#734,1.01472396580465,1.);
#33=ELLIPSE('',#739,1.06114325140388,1.);
#34=ELLIPSE('',#740,1.01472396580465,1.);
#35=ELLIPSE('',#746,1.60938652908492,1.);
#36=ELLIPSE('',#747,1.09785874619562,1.);
#37=ELLIPSE('',#750,1.01472396580465,1.);
#38=ELLIPSE('',#752,1.37663184115342,1.);
#39=ELLIPSE('',#757,1.01472396580465,1.);
#40=ELLIPSE('',#759,1.06114325140388,1.);
#41=ELLIPSE('',#761,4.5334831805209,1.);
#42=ELLIPSE('',#764,1.06114325140388,1.);
#43=ELLIPSE('',#765,1.60938652908492,1.);
#44=ELLIPSE('',#766,1.60938652908492,1.);
#45=ELLIPSE('',#770,1.29731008450758,1.);
#46=ELLIPSE('',#773,1.29731008450758,1.);
#47=ELLIPSE('',#775,1.01472396580465,1.);
#48=ELLIPSE('',#780,4.53348318052091,1.);
#49=CYLINDRICAL_SURFACE('',#722,1.);
#50=CYLINDRICAL_SURFACE('',#725,1.);
#51=CYLINDRICAL_SURFACE('',#728,1.);
#52=CYLINDRICAL_SURFACE('',#732,1.);
#53=CYLINDRICAL_SURFACE('',#735,1.);
#54=CYLINDRICAL_SURFACE('',#738,1.);
#55=CYLINDRICAL_SURFACE('',#741,1.);
#56=CYLINDRICAL_SURFACE('',#745,1.);
#57=CYLINDRICAL_SURFACE('',#748,1.);
#58=CYLINDRICAL_SURFACE('',#751,1.);
#59=CYLINDRICAL_SURFACE('',#755,1.);
#60=CYLINDRICAL_SURFACE('',#758,1.);
#61=CYLINDRICAL_SURFACE('',#767,1.);
#62=CYLINDRICAL_SURFACE('',#768,1.);
#63=CYLINDRICAL_SURFACE('',#774,1.);
#64=CYLINDRICAL_SURFACE('',#776,1.);
#65=CYLINDRICAL_SURFACE('',#779,1.);
#66=CYLINDRICAL_SURFACE('',#781,1.);
#67=FACE_OUTER_BOUND('',#105,.T.);
#68=FACE_OUTER_BOUND('',#106,.T.);
#69=FACE_OUTER_BOUND('',#107,.T.);
#70=FACE_OUTER_BOUND('',#108,.T.);
#71=FACE_OUTER_BOUND('',#109,.T.);
#72=FACE_OUTER_BOUND('',#110,.T.);
#73=FACE_OUTER_BOUND('',#111,.T.);
#74=FACE_OUTER_BOUND('',#112,.T.);
#75=FACE_OUTER_BOUND('',#113,.T.);
#76=FACE_OUTER_BOUND('',#114,.T.);
#77=FACE_OUTER_BOUND('',#115,.T.);
#78=FACE_OUTER_BOUND('',#116,.T.);
#79=FACE_OUTER_BOUND('',#117,.T.);
#80=FACE_OUTER_BOUND('',#118,.T.);
#81=FACE_OUTER_BOUND('',#119,.T.);
#82=FACE_OUTER_BOUND('',#120,.T.);
#83=FACE_OUTER_BOUND('',#121,.T.);
#84=FACE_OUTER_BOUND('',#122,.T.);
#85=FACE_OUTER_BOUND('',#123,.T.);
#86=FACE_OUTER_BOUND('',#124,.T.);
#87=FACE_OUTER_BOUND('',#125,.T.);
#88=FACE_OUTER_BOUND('',#126,.T.);
#89=FACE_OUTER_BOUND('',#127,.T.);
#90=FACE_OUTER_BOUND('',#128,.T.);
#91=FACE_OUTER_BOUND('',#129,.T.);
#92=FACE_OUTER_BOUND('',#130,.T.);
#93=FACE_OUTER_BOUND('',#131,.T.);
#94=FACE_OUTER_BOUND('',#133,.T.);
#95=FACE_OUTER_BOUND('',#134,.T.);
#96=FACE_OUTER_BOUND('',#135,.T.);
#97=FACE_OUTER_BOUND('',#136,.T.);
#98=FACE_OUTER_BOUND('',#137,.T.);
#99=FACE_OUTER_BOUND('',#138,.T.);
#100=FACE_OUTER_BOUND('',#139,.T.);
#101=FACE_OUTER_BOUND('',#140,.T.);
#102=FACE_OUTER_BOUND('',#141,.T.);
#103=FACE_OUTER_BOUND('',#142,.T.);
#104=FACE_OUTER_BOUND('',#143,.T.);
#105=EDGE_LOOP('',(#445,#446,#447,#448));
#106=EDGE_LOOP('',(#449,#450,#451,#452));
#107=EDGE_LOOP('',(#453,#454,#455,#456));
#108=EDGE_LOOP('',(#457,#458,#459,#460));
#109=EDGE_LOOP('',(#461,#462,#463,#464,#465,#466));
#110=EDGE_LOOP('',(#467,#468,#469,#470));
#111=EDGE_LOOP('',(#471,#472,#473,#474));
#112=EDGE_LOOP('',(#475,#476,#477,#478,#479));
#113=EDGE_LOOP('',(#480,#481,#482,#483,#484));
#114=EDGE_LOOP('',(#485,#486,#487,#488));
#115=EDGE_LOOP('',(#489,#490,#491,#492));
#116=EDGE_LOOP('',(#493,#494,#495,#496));
#117=EDGE_LOOP('',(#497,#498,#499,#500,#501,#502));
#118=EDGE_LOOP('',(#503,#504,#505,#506));
#119=EDGE_LOOP('',(#507,#508,#509,#510));
#120=EDGE_LOOP('',(#511,#512,#513,#514,#515));
#121=EDGE_LOOP('',(#516,#517,#518,#519));
#122=EDGE_LOOP('',(#520,#521,#522,#523));
#123=EDGE_LOOP('',(#524,#525,#526,#527));
#124=EDGE_LOOP('',(#528,#529,#530,#531,#532));
#125=EDGE_LOOP('',(#533,#534,#535,#536,#537,#538));
#126=EDGE_LOOP('',(#539,#540,#541,#542,#543,#544));
#127=EDGE_LOOP('',(#545,#546,#547,#548,#549));
#128=EDGE_LOOP('',(#550,#551,#552,#553));
#129=EDGE_LOOP('',(#554,#555,#556,#557,#558));
#130=EDGE_LOOP('',(#559,#560,#561,#562));
#131=EDGE_LOOP('',(#563,#564,#565,#566,#567,#568,#569,#570));
#132=EDGE_LOOP('',(#571,#572,#573,#574,#575,#576,#577,#578));
#133=EDGE_LOOP('',(#579,#580,#581,#582,#583));
#134=EDGE_LOOP('',(#584,#585,#586,#587,#588));
#135=EDGE_LOOP('',(#589,#590,#591,#592));
#136=EDGE_LOOP('',(#593,#594,#595,#596,#597,#598));
#137=EDGE_LOOP('',(#599,#600,#601,#602));
#138=EDGE_LOOP('',(#603,#604,#605,#606,#607));
#139=EDGE_LOOP('',(#608,#609,#610,#611));
#140=EDGE_LOOP('',(#612,#613,#614,#615,#616));
#141=EDGE_LOOP('',(#617,#618,#619,#620,#621));
#142=EDGE_LOOP('',(#622,#623,#624,#625,#626));
#143=EDGE_LOOP('',(#627,#628,#629,#630,#631,#632,#633,#634,#635,#636));
#144=EDGE_LOOP('',(#637,#638,#639,#640,#641,#642,#643,#644));
#145=LINE('',#995,#213);
#146=LINE('',#997,#214);
#147=LINE('',#999,#215);
#148=LINE('',#1000,#216);
#149=LINE('',#1004,#217);
#150=LINE('',#1006,#218);
#151=LINE('',#1008,#219);
#152=LINE('',#1009,#220);
#153=LINE('',#1011,#221);
#154=LINE('',#1012,#222);
#155=LINE('',#1014,#223);
#156=LINE('',#1017,#224);
#157=LINE('',#1019,#225);
#158=LINE('',#1021,#226);
#159=LINE('',#1023,#227);
#160=LINE('',#1024,#228);
#161=LINE('',#1028,#229);
#162=LINE('',#1032,#230);
#163=LINE('',#1037,#231);
#164=LINE('',#1041,#232);
#165=LINE('',#1045,#233);
#166=LINE('',#1046,#234);
#167=LINE('',#1050,#235);
#168=LINE('',#1052,#236);
#169=LINE('',#1053,#237);
#170=LINE('',#1056,#238);
#171=LINE('',#1057,#239);
#172=LINE('',#1061,#240);
#173=LINE('',#1067,#241);
#174=LINE('',#1070,#242);
#175=LINE('',#1072,#243);
#176=LINE('',#1074,#244);
#177=LINE('',#1075,#245);
#178=LINE('',#1079,#246);
#179=LINE('',#1085,#247);
#180=LINE('',#1088,#248);
#181=LINE('',#1090,#249);
#182=LINE('',#1092,#250);
#183=LINE('',#1093,#251);
#184=LINE('',#1096,#252);
#185=LINE('',#1097,#253);
#186=LINE('',#1101,#254);
#187=LINE('',#1108,#255);
#188=LINE('',#1112,#256);
#189=LINE('',#1115,#257);
#190=LINE('',#1116,#258);
#191=LINE('',#1118,#259);
#192=LINE('',#1122,#260);
#193=LINE('',#1128,#261);
#194=LINE('',#1131,#262);
#195=LINE('',#1135,#263);
#196=LINE('',#1136,#264);
#197=LINE('',#1139,#265);
#198=LINE('',#1140,#266);
#199=LINE('',#1145,#267);
#200=LINE('',#1149,#268);
#201=LINE('',#1153,#269);
#202=LINE('',#1171,#270);
#203=LINE('',#1174,#271);
#204=LINE('',#1176,#272);
#205=LINE('',#1177,#273);
#206=LINE('',#1180,#274);
#207=LINE('',#1184,#275);
#208=LINE('',#1189,#276);
#209=LINE('',#1192,#277);
#210=LINE('',#1193,#278);
#211=LINE('',#1212,#279);
#212=LINE('',#1214,#280);
#213=VECTOR('',#789,10.);
#214=VECTOR('',#790,10.);
#215=VECTOR('',#791,10.);
#216=VECTOR('',#792,10.);
#217=VECTOR('',#795,10.);
#218=VECTOR('',#796,10.);
#219=VECTOR('',#797,10.);
#220=VECTOR('',#798,10.);
#221=VECTOR('',#801,10.);
#222=VECTOR('',#802,10.);
#223=VECTOR('',#805,10.);
#224=VECTOR('',#808,10.);
#225=VECTOR('',#809,10.);
#226=VECTOR('',#810,10.);
#227=VECTOR('',#811,10.);
#228=VECTOR('',#812,10.);
#229=VECTOR('',#815,10.);
#230=VECTOR('',#818,10.);
#231=VECTOR('',#823,10.);
#232=VECTOR('',#826,10.);
#233=VECTOR('',#831,10.);
#234=VECTOR('',#832,10.);
#235=VECTOR('',#837,10.);
#236=VECTOR('',#838,10.);
#237=VECTOR('',#839,10.);
#238=VECTOR('',#842,10.);
#239=VECTOR('',#843,10.);
#240=VECTOR('',#846,10.);
#241=VECTOR('',#855,10.);
#242=VECTOR('',#858,10.);
#243=VECTOR('',#859,10.);
#244=VECTOR('',#860,10.);
#245=VECTOR('',#861,10.);
#246=VECTOR('',#864,10.);
#247=VECTOR('',#873,10.);
#248=VECTOR('',#876,10.);
#249=VECTOR('',#877,10.);
#250=VECTOR('',#878,10.);
#251=VECTOR('',#879,10.);
#252=VECTOR('',#882,10.);
#253=VECTOR('',#883,10.);
#254=VECTOR('',#886,10.);
#255=VECTOR('',#895,10.);
#256=VECTOR('',#900,10.);
#257=VECTOR('',#905,10.);
#258=VECTOR('',#906,10.);
#259=VECTOR('',#909,10.);
#260=VECTOR('',#912,10.);
#261=VECTOR('',#921,10.);
#262=VECTOR('',#924,10.);
#263=VECTOR('',#927,10.);
#264=VECTOR('',#928,10.);
#265=VECTOR('',#931,10.);
#266=VECTOR('',#932,10.);
#267=VECTOR('',#937,10.);
#268=VECTOR('',#940,10.);
#269=VECTOR('',#945,10.);
#270=VECTOR('',#952,10.);
#271=VECTOR('',#955,10.);
#272=VECTOR('',#956,10.);
#273=VECTOR('',#957,10.);
#274=VECTOR('',#960,10.);
#275=VECTOR('',#965,10.);
#276=VECTOR('',#972,10.);
#277=VECTOR('',#975,10.);
#278=VECTOR('',#976,10.);
#279=VECTOR('',#985,10.);
#280=VECTOR('',#988,10.);
#281=VERTEX_POINT('',#993);
#282=VERTEX_POINT('',#994);
#283=VERTEX_POINT('',#996);
#284=VERTEX_POINT('',#998);
#285=VERTEX_POINT('',#1002);
#286=VERTEX_POINT('',#1003);
#287=VERTEX_POINT('',#1005);
#288=VERTEX_POINT('',#1007);
#289=VERTEX_POINT('',#1016);
#290=VERTEX_POINT('',#1018);
#291=VERTEX_POINT('',#1020);
#292=VERTEX_POINT('',#1022);
#293=VERTEX_POINT('',#1026);
#294=VERTEX_POINT('',#1027);
#295=VERTEX_POINT('',#1029);
#296=VERTEX_POINT('',#1031);
#297=VERTEX_POINT('',#1035);
#298=VERTEX_POINT('',#1036);
#299=VERTEX_POINT('',#1038);
#300=VERTEX_POINT('',#1040);
#301=VERTEX_POINT('',#1044);
#302=VERTEX_POINT('',#1049);
#303=VERTEX_POINT('',#1051);
#304=VERTEX_POINT('',#1055);
#305=VERTEX_POINT('',#1059);
#306=VERTEX_POINT('',#1060);
#307=VERTEX_POINT('',#1065);
#308=VERTEX_POINT('',#1069);
#309=VERTEX_POINT('',#1071);
#310=VERTEX_POINT('',#1073);
#311=VERTEX_POINT('',#1077);
#312=VERTEX_POINT('',#1078);
#313=VERTEX_POINT('',#1083);
#314=VERTEX_POINT('',#1087);
#315=VERTEX_POINT('',#1089);
#316=VERTEX_POINT('',#1091);
#317=VERTEX_POINT('',#1095);
#318=VERTEX_POINT('',#1099);
#319=VERTEX_POINT('',#1100);
#320=VERTEX_POINT('',#1105);
#321=VERTEX_POINT('',#1107);
#322=VERTEX_POINT('',#1111);
#323=VERTEX_POINT('',#1120);
#324=VERTEX_POINT('',#1121);
#325=VERTEX_POINT('',#1126);
#326=VERTEX_POINT('',#1130);
#327=VERTEX_POINT('',#1132);
#328=VERTEX_POINT('',#1134);
#329=VERTEX_POINT('',#1138);
#330=VERTEX_POINT('',#1142);
#331=VERTEX_POINT('',#1144);
#332=VERTEX_POINT('',#1146);
#333=VERTEX_POINT('',#1148);
#334=VERTEX_POINT('',#1152);
#335=VERTEX_POINT('',#1167);
#336=VERTEX_POINT('',#1169);
#337=VERTEX_POINT('',#1173);
#338=VERTEX_POINT('',#1175);
#339=VERTEX_POINT('',#1179);
#340=VERTEX_POINT('',#1183);
#341=VERTEX_POINT('',#1187);
#342=VERTEX_POINT('',#1191);
#343=VERTEX_POINT('',#1195);
#344=VERTEX_POINT('',#1210);
#345=EDGE_CURVE('',#281,#282,#145,.T.);
#346=EDGE_CURVE('',#281,#283,#146,.T.);
#347=EDGE_CURVE('',#284,#283,#147,.T.);
#348=EDGE_CURVE('',#282,#284,#148,.T.);
#349=EDGE_CURVE('',#285,#286,#149,.T.);
#350=EDGE_CURVE('',#285,#287,#150,.T.);
#351=EDGE_CURVE('',#288,#287,#151,.T.);
#352=EDGE_CURVE('',#286,#288,#152,.T.);
#353=EDGE_CURVE('',#286,#281,#153,.T.);
#354=EDGE_CURVE('',#283,#288,#154,.T.);
#355=EDGE_CURVE('',#287,#284,#155,.T.);
#356=EDGE_CURVE('',#289,#281,#156,.T.);
#357=EDGE_CURVE('',#290,#289,#157,.T.);
#358=EDGE_CURVE('',#291,#290,#158,.T.);
#359=EDGE_CURVE('',#292,#291,#159,.T.);
#360=EDGE_CURVE('',#286,#292,#160,.T.);
#361=EDGE_CURVE('',#293,#294,#161,.T.);
#362=EDGE_CURVE('',#294,#295,#27,.T.);
#363=EDGE_CURVE('',#295,#296,#162,.T.);
#364=EDGE_CURVE('',#296,#293,#28,.T.);
#365=EDGE_CURVE('',#297,#298,#163,.T.);
#366=EDGE_CURVE('',#298,#299,#19,.T.);
#367=EDGE_CURVE('',#299,#300,#164,.T.);
#368=EDGE_CURVE('',#300,#297,#29,.T.);
#369=EDGE_CURVE('',#301,#297,#165,.T.);
#370=EDGE_CURVE('',#300,#293,#166,.T.);
#371=EDGE_CURVE('',#296,#301,#30,.T.);
#372=EDGE_CURVE('',#302,#300,#167,.F.);
#373=EDGE_CURVE('',#303,#302,#168,.T.);
#374=EDGE_CURVE('',#294,#303,#169,.T.);
#375=EDGE_CURVE('',#304,#299,#170,.T.);
#376=EDGE_CURVE('',#302,#304,#171,.T.);
#377=EDGE_CURVE('',#305,#306,#172,.T.);
#378=EDGE_CURVE('',#306,#303,#31,.T.);
#379=EDGE_CURVE('',#302,#305,#32,.T.);
#380=EDGE_CURVE('',#304,#307,#20,.T.);
#381=EDGE_CURVE('',#307,#305,#173,.T.);
#382=EDGE_CURVE('',#308,#307,#174,.T.);
#383=EDGE_CURVE('',#309,#308,#175,.T.);
#384=EDGE_CURVE('',#310,#309,#176,.T.);
#385=EDGE_CURVE('',#306,#310,#177,.T.);
#386=EDGE_CURVE('',#311,#312,#178,.T.);
#387=EDGE_CURVE('',#312,#310,#33,.T.);
#388=EDGE_CURVE('',#309,#311,#34,.T.);
#389=EDGE_CURVE('',#308,#313,#21,.T.);
#390=EDGE_CURVE('',#313,#311,#179,.T.);
#391=EDGE_CURVE('',#314,#311,#180,.T.);
#392=EDGE_CURVE('',#315,#314,#181,.T.);
#393=EDGE_CURVE('',#316,#315,#182,.T.);
#394=EDGE_CURVE('',#312,#316,#183,.T.);
#395=EDGE_CURVE('',#317,#313,#184,.T.);
#396=EDGE_CURVE('',#314,#317,#185,.T.);
#397=EDGE_CURVE('',#318,#319,#186,.T.);
#398=EDGE_CURVE('',#319,#316,#35,.T.);
#399=EDGE_CURVE('',#315,#318,#36,.T.);
#400=EDGE_CURVE('',#317,#320,#22,.T.);
#401=EDGE_CURVE('',#320,#321,#187,.T.);
#402=EDGE_CURVE('',#321,#314,#37,.T.);
#403=EDGE_CURVE('',#321,#322,#188,.T.);
#404=EDGE_CURVE('',#322,#318,#38,.T.);
#405=EDGE_CURVE('',#319,#295,#189,.T.);
#406=EDGE_CURVE('',#301,#322,#190,.T.);
#407=EDGE_CURVE('',#298,#320,#191,.T.);
#408=EDGE_CURVE('',#323,#324,#192,.T.);
#409=EDGE_CURVE('',#324,#285,#23,.T.);
#410=EDGE_CURVE('',#292,#323,#39,.T.);
#411=EDGE_CURVE('',#291,#325,#40,.T.);
#412=EDGE_CURVE('',#325,#323,#193,.T.);
#413=EDGE_CURVE('',#326,#323,#194,.T.);
#414=EDGE_CURVE('',#327,#326,#41,.T.);
#415=EDGE_CURVE('',#328,#327,#195,.T.);
#416=EDGE_CURVE('',#328,#324,#196,.T.);
#417=EDGE_CURVE('',#329,#325,#197,.T.);
#418=EDGE_CURVE('',#326,#329,#198,.T.);
#419=EDGE_CURVE('',#330,#290,#42,.T.);
#420=EDGE_CURVE('',#330,#331,#199,.T.);
#421=EDGE_CURVE('',#332,#331,#43,.T.);
#422=EDGE_CURVE('',#332,#333,#200,.T.);
#423=EDGE_CURVE('',#329,#333,#44,.T.);
#424=EDGE_CURVE('',#333,#334,#201,.T.);
#425=EDGE_CURVE('',#334,#327,#15,.T.);
#426=EDGE_CURVE('',#335,#328,#24,.T.);
#427=EDGE_CURVE('',#334,#336,#45,.T.);
#428=EDGE_CURVE('',#336,#335,#202,.T.);
#429=EDGE_CURVE('',#337,#336,#203,.T.);
#430=EDGE_CURVE('',#338,#337,#204,.T.);
#431=EDGE_CURVE('',#338,#335,#205,.T.);
#432=EDGE_CURVE('',#339,#332,#206,.T.);
#433=EDGE_CURVE('',#337,#339,#46,.T.);
#434=EDGE_CURVE('',#340,#330,#207,.T.);
#435=EDGE_CURVE('',#289,#340,#47,.T.);
#436=EDGE_CURVE('',#282,#341,#25,.T.);
#437=EDGE_CURVE('',#341,#340,#208,.T.);
#438=EDGE_CURVE('',#340,#342,#209,.T.);
#439=EDGE_CURVE('',#331,#342,#210,.T.);
#440=EDGE_CURVE('',#342,#343,#48,.T.);
#441=EDGE_CURVE('',#343,#339,#16,.T.);
#442=EDGE_CURVE('',#344,#338,#26,.T.);
#443=EDGE_CURVE('',#343,#344,#211,.T.);
#444=EDGE_CURVE('',#341,#344,#212,.T.);
#445=ORIENTED_EDGE('',*,*,#345,.F.);
#446=ORIENTED_EDGE('',*,*,#346,.T.);
#447=ORIENTED_EDGE('',*,*,#347,.F.);
#448=ORIENTED_EDGE('',*,*,#348,.F.);
#449=ORIENTED_EDGE('',*,*,#349,.F.);
#450=ORIENTED_EDGE('',*,*,#350,.T.);
#451=ORIENTED_EDGE('',*,*,#351,.F.);
#452=ORIENTED_EDGE('',*,*,#352,.F.);
#453=ORIENTED_EDGE('',*,*,#353,.F.);
#454=ORIENTED_EDGE('',*,*,#352,.T.);
#455=ORIENTED_EDGE('',*,*,#354,.F.);
#456=ORIENTED_EDGE('',*,*,#346,.F.);
#457=ORIENTED_EDGE('',*,*,#354,.T.);
#458=ORIENTED_EDGE('',*,*,#351,.T.);
#459=ORIENTED_EDGE('',*,*,#355,.T.);
#460=ORIENTED_EDGE('',*,*,#347,.T.);
#461=ORIENTED_EDGE('',*,*,#353,.T.);
#462=ORIENTED_EDGE('',*,*,#356,.F.);
#463=ORIENTED_EDGE('',*,*,#357,.F.);
#464=ORIENTED_EDGE('',*,*,#358,.F.);
#465=ORIENTED_EDGE('',*,*,#359,.F.);
#466=ORIENTED_EDGE('',*,*,#360,.F.);
#467=ORIENTED_EDGE('',*,*,#361,.T.);
#468=ORIENTED_EDGE('',*,*,#362,.T.);
#469=ORIENTED_EDGE('',*,*,#363,.T.);
#470=ORIENTED_EDGE('',*,*,#364,.T.);
#471=ORIENTED_EDGE('',*,*,#365,.T.);
#472=ORIENTED_EDGE('',*,*,#366,.T.);
#473=ORIENTED_EDGE('',*,*,#367,.T.);
#474=ORIENTED_EDGE('',*,*,#368,.T.);
#475=ORIENTED_EDGE('',*,*,#369,.T.);
#476=ORIENTED_EDGE('',*,*,#368,.F.);
#477=ORIENTED_EDGE('',*,*,#370,.T.);
#478=ORIENTED_EDGE('',*,*,#364,.F.);
#479=ORIENTED_EDGE('',*,*,#371,.T.);
#480=ORIENTED_EDGE('',*,*,#361,.F.);
#481=ORIENTED_EDGE('',*,*,#370,.F.);
#482=ORIENTED_EDGE('',*,*,#372,.F.);
#483=ORIENTED_EDGE('',*,*,#373,.F.);
#484=ORIENTED_EDGE('',*,*,#374,.F.);
#485=ORIENTED_EDGE('',*,*,#367,.F.);
#486=ORIENTED_EDGE('',*,*,#375,.F.);
#487=ORIENTED_EDGE('',*,*,#376,.F.);
#488=ORIENTED_EDGE('',*,*,#372,.T.);
#489=ORIENTED_EDGE('',*,*,#377,.T.);
#490=ORIENTED_EDGE('',*,*,#378,.T.);
#491=ORIENTED_EDGE('',*,*,#373,.T.);
#492=ORIENTED_EDGE('',*,*,#379,.T.);
#493=ORIENTED_EDGE('',*,*,#376,.T.);
#494=ORIENTED_EDGE('',*,*,#380,.T.);
#495=ORIENTED_EDGE('',*,*,#381,.T.);
#496=ORIENTED_EDGE('',*,*,#379,.F.);
#497=ORIENTED_EDGE('',*,*,#377,.F.);
#498=ORIENTED_EDGE('',*,*,#381,.F.);
#499=ORIENTED_EDGE('',*,*,#382,.F.);
#500=ORIENTED_EDGE('',*,*,#383,.F.);
#501=ORIENTED_EDGE('',*,*,#384,.F.);
#502=ORIENTED_EDGE('',*,*,#385,.F.);
#503=ORIENTED_EDGE('',*,*,#386,.T.);
#504=ORIENTED_EDGE('',*,*,#387,.T.);
#505=ORIENTED_EDGE('',*,*,#384,.T.);
#506=ORIENTED_EDGE('',*,*,#388,.T.);
#507=ORIENTED_EDGE('',*,*,#383,.T.);
#508=ORIENTED_EDGE('',*,*,#389,.T.);
#509=ORIENTED_EDGE('',*,*,#390,.T.);
#510=ORIENTED_EDGE('',*,*,#388,.F.);
#511=ORIENTED_EDGE('',*,*,#386,.F.);
#512=ORIENTED_EDGE('',*,*,#391,.F.);
#513=ORIENTED_EDGE('',*,*,#392,.F.);
#514=ORIENTED_EDGE('',*,*,#393,.F.);
#515=ORIENTED_EDGE('',*,*,#394,.F.);
#516=ORIENTED_EDGE('',*,*,#390,.F.);
#517=ORIENTED_EDGE('',*,*,#395,.F.);
#518=ORIENTED_EDGE('',*,*,#396,.F.);
#519=ORIENTED_EDGE('',*,*,#391,.T.);
#520=ORIENTED_EDGE('',*,*,#397,.T.);
#521=ORIENTED_EDGE('',*,*,#398,.T.);
#522=ORIENTED_EDGE('',*,*,#393,.T.);
#523=ORIENTED_EDGE('',*,*,#399,.T.);
#524=ORIENTED_EDGE('',*,*,#396,.T.);
#525=ORIENTED_EDGE('',*,*,#400,.T.);
#526=ORIENTED_EDGE('',*,*,#401,.T.);
#527=ORIENTED_EDGE('',*,*,#402,.T.);
#528=ORIENTED_EDGE('',*,*,#392,.T.);
#529=ORIENTED_EDGE('',*,*,#402,.F.);
#530=ORIENTED_EDGE('',*,*,#403,.T.);
#531=ORIENTED_EDGE('',*,*,#404,.T.);
#532=ORIENTED_EDGE('',*,*,#399,.F.);
#533=ORIENTED_EDGE('',*,*,#363,.F.);
#534=ORIENTED_EDGE('',*,*,#405,.F.);
#535=ORIENTED_EDGE('',*,*,#397,.F.);
#536=ORIENTED_EDGE('',*,*,#404,.F.);
#537=ORIENTED_EDGE('',*,*,#406,.F.);
#538=ORIENTED_EDGE('',*,*,#371,.F.);
#539=ORIENTED_EDGE('',*,*,#369,.F.);
#540=ORIENTED_EDGE('',*,*,#406,.T.);
#541=ORIENTED_EDGE('',*,*,#403,.F.);
#542=ORIENTED_EDGE('',*,*,#401,.F.);
#543=ORIENTED_EDGE('',*,*,#407,.F.);
#544=ORIENTED_EDGE('',*,*,#365,.F.);
#545=ORIENTED_EDGE('',*,*,#408,.T.);
#546=ORIENTED_EDGE('',*,*,#409,.T.);
#547=ORIENTED_EDGE('',*,*,#349,.T.);
#548=ORIENTED_EDGE('',*,*,#360,.T.);
#549=ORIENTED_EDGE('',*,*,#410,.T.);
#550=ORIENTED_EDGE('',*,*,#359,.T.);
#551=ORIENTED_EDGE('',*,*,#411,.T.);
#552=ORIENTED_EDGE('',*,*,#412,.T.);
#553=ORIENTED_EDGE('',*,*,#410,.F.);
#554=ORIENTED_EDGE('',*,*,#408,.F.);
#555=ORIENTED_EDGE('',*,*,#413,.F.);
#556=ORIENTED_EDGE('',*,*,#414,.F.);
#557=ORIENTED_EDGE('',*,*,#415,.F.);
#558=ORIENTED_EDGE('',*,*,#416,.T.);
#559=ORIENTED_EDGE('',*,*,#412,.F.);
#560=ORIENTED_EDGE('',*,*,#417,.F.);
#561=ORIENTED_EDGE('',*,*,#418,.F.);
#562=ORIENTED_EDGE('',*,*,#413,.T.);
#563=ORIENTED_EDGE('',*,*,#411,.F.);
#564=ORIENTED_EDGE('',*,*,#358,.T.);
#565=ORIENTED_EDGE('',*,*,#419,.F.);
#566=ORIENTED_EDGE('',*,*,#420,.T.);
#567=ORIENTED_EDGE('',*,*,#421,.F.);
#568=ORIENTED_EDGE('',*,*,#422,.T.);
#569=ORIENTED_EDGE('',*,*,#423,.F.);
#570=ORIENTED_EDGE('',*,*,#417,.T.);
#571=ORIENTED_EDGE('',*,*,#405,.T.);
#572=ORIENTED_EDGE('',*,*,#362,.F.);
#573=ORIENTED_EDGE('',*,*,#374,.T.);
#574=ORIENTED_EDGE('',*,*,#378,.F.);
#575=ORIENTED_EDGE('',*,*,#385,.T.);
#576=ORIENTED_EDGE('',*,*,#387,.F.);
#577=ORIENTED_EDGE('',*,*,#394,.T.);
#578=ORIENTED_EDGE('',*,*,#398,.F.);
#579=ORIENTED_EDGE('',*,*,#423,.T.);
#580=ORIENTED_EDGE('',*,*,#424,.T.);
#581=ORIENTED_EDGE('',*,*,#425,.T.);
#582=ORIENTED_EDGE('',*,*,#414,.T.);
#583=ORIENTED_EDGE('',*,*,#418,.T.);
#584=ORIENTED_EDGE('',*,*,#426,.T.);
#585=ORIENTED_EDGE('',*,*,#415,.T.);
#586=ORIENTED_EDGE('',*,*,#425,.F.);
#587=ORIENTED_EDGE('',*,*,#427,.T.);
#588=ORIENTED_EDGE('',*,*,#428,.T.);
#589=ORIENTED_EDGE('',*,*,#428,.F.);
#590=ORIENTED_EDGE('',*,*,#429,.F.);
#591=ORIENTED_EDGE('',*,*,#430,.F.);
#592=ORIENTED_EDGE('',*,*,#431,.T.);
#593=ORIENTED_EDGE('',*,*,#424,.F.);
#594=ORIENTED_EDGE('',*,*,#422,.F.);
#595=ORIENTED_EDGE('',*,*,#432,.F.);
#596=ORIENTED_EDGE('',*,*,#433,.F.);
#597=ORIENTED_EDGE('',*,*,#429,.T.);
#598=ORIENTED_EDGE('',*,*,#427,.F.);
#599=ORIENTED_EDGE('',*,*,#434,.T.);
#600=ORIENTED_EDGE('',*,*,#419,.T.);
#601=ORIENTED_EDGE('',*,*,#357,.T.);
#602=ORIENTED_EDGE('',*,*,#435,.T.);
#603=ORIENTED_EDGE('',*,*,#356,.T.);
#604=ORIENTED_EDGE('',*,*,#345,.T.);
#605=ORIENTED_EDGE('',*,*,#436,.T.);
#606=ORIENTED_EDGE('',*,*,#437,.T.);
#607=ORIENTED_EDGE('',*,*,#435,.F.);
#608=ORIENTED_EDGE('',*,*,#434,.F.);
#609=ORIENTED_EDGE('',*,*,#438,.T.);
#610=ORIENTED_EDGE('',*,*,#439,.F.);
#611=ORIENTED_EDGE('',*,*,#420,.F.);
#612=ORIENTED_EDGE('',*,*,#421,.T.);
#613=ORIENTED_EDGE('',*,*,#439,.T.);
#614=ORIENTED_EDGE('',*,*,#440,.T.);
#615=ORIENTED_EDGE('',*,*,#441,.T.);
#616=ORIENTED_EDGE('',*,*,#432,.T.);
#617=ORIENTED_EDGE('',*,*,#442,.T.);
#618=ORIENTED_EDGE('',*,*,#430,.T.);
#619=ORIENTED_EDGE('',*,*,#433,.T.);
#620=ORIENTED_EDGE('',*,*,#441,.F.);
#621=ORIENTED_EDGE('',*,*,#443,.T.);
#622=ORIENTED_EDGE('',*,*,#437,.F.);
#623=ORIENTED_EDGE('',*,*,#444,.T.);
#624=ORIENTED_EDGE('',*,*,#443,.F.);
#625=ORIENTED_EDGE('',*,*,#440,.F.);
#626=ORIENTED_EDGE('',*,*,#438,.F.);
#627=ORIENTED_EDGE('',*,*,#409,.F.);
#628=ORIENTED_EDGE('',*,*,#416,.F.);
#629=ORIENTED_EDGE('',*,*,#426,.F.);
#630=ORIENTED_EDGE('',*,*,#431,.F.);
#631=ORIENTED_EDGE('',*,*,#442,.F.);
#632=ORIENTED_EDGE('',*,*,#444,.F.);
#633=ORIENTED_EDGE('',*,*,#436,.F.);
#634=ORIENTED_EDGE('',*,*,#348,.T.);
#635=ORIENTED_EDGE('',*,*,#355,.F.);
#636=ORIENTED_EDGE('',*,*,#350,.F.);
#637=ORIENTED_EDGE('',*,*,#382,.T.);
#638=ORIENTED_EDGE('',*,*,#380,.F.);
#639=ORIENTED_EDGE('',*,*,#375,.T.);
#640=ORIENTED_EDGE('',*,*,#366,.F.);
#641=ORIENTED_EDGE('',*,*,#407,.T.);
#642=ORIENTED_EDGE('',*,*,#400,.F.);
#643=ORIENTED_EDGE('',*,*,#395,.T.);
#644=ORIENTED_EDGE('',*,*,#389,.F.);
#645=PLANE('',#717);
#646=PLANE('',#718);
#647=PLANE('',#719);
#648=PLANE('',#720);
#649=PLANE('',#721);
#650=PLANE('',#730);
#651=PLANE('',#731);
#652=PLANE('',#737);
#653=PLANE('',#743);
#654=PLANE('',#744);
#655=PLANE('',#753);
#656=PLANE('',#754);
#657=PLANE('',#760);
#658=PLANE('',#762);
#659=PLANE('',#763);
#660=PLANE('',#771);
#661=PLANE('',#772);
#662=PLANE('',#778);
#663=PLANE('',#783);
#664=PLANE('',#784);
#665=ADVANCED_FACE('',(#67),#645,.T.);
#666=ADVANCED_FACE('',(#68),#646,.T.);
#667=ADVANCED_FACE('',(#69),#647,.T.);
#668=ADVANCED_FACE('',(#70),#648,.T.);
#669=ADVANCED_FACE('',(#71),#649,.T.);
#670=ADVANCED_FACE('',(#72),#49,.F.);
#671=ADVANCED_FACE('',(#73),#50,.F.);
#672=ADVANCED_FACE('',(#74),#51,.F.);
#673=ADVANCED_FACE('',(#75),#650,.F.);
#674=ADVANCED_FACE('',(#76),#651,.F.);
#675=ADVANCED_FACE('',(#77),#52,.F.);
#676=ADVANCED_FACE('',(#78),#53,.F.);
#677=ADVANCED_FACE('',(#79),#652,.F.);
#678=ADVANCED_FACE('',(#80),#54,.F.);
#679=ADVANCED_FACE('',(#81),#55,.F.);
#680=ADVANCED_FACE('',(#82),#653,.F.);
#681=ADVANCED_FACE('',(#83),#654,.F.);
#682=ADVANCED_FACE('',(#84),#56,.F.);
#683=ADVANCED_FACE('',(#85),#57,.F.);
#684=ADVANCED_FACE('',(#86),#58,.F.);
#685=ADVANCED_FACE('',(#87),#655,.F.);
#686=ADVANCED_FACE('',(#88),#656,.F.);
#687=ADVANCED_FACE('',(#89),#59,.T.);
#688=ADVANCED_FACE('',(#90),#60,.T.);
#689=ADVANCED_FACE('',(#91),#657,.T.);
#690=ADVANCED_FACE('',(#92),#658,.T.);
#691=ADVANCED_FACE('',(#93,#17),#659,.T.);
#692=ADVANCED_FACE('',(#94),#61,.T.);
#693=ADVANCED_FACE('',(#95),#62,.T.);
#694=ADVANCED_FACE('',(#96),#660,.T.);
#695=ADVANCED_FACE('',(#97),#661,.T.);
#696=ADVANCED_FACE('',(#98),#63,.T.);
#697=ADVANCED_FACE('',(#99),#64,.T.);
#698=ADVANCED_FACE('',(#100),#662,.T.);
#699=ADVANCED_FACE('',(#101),#65,.T.);
#700=ADVANCED_FACE('',(#102),#66,.T.);
#701=ADVANCED_FACE('',(#103),#663,.T.);
#702=ADVANCED_FACE('',(#104,#18),#664,.T.);
#703=CLOSED_SHELL('',(#665,#666,#667,#668,#669,#670,#671,#672,#673,#674,
#675,#676,#677,#678,#679,#680,#681,#682,#683,#684,#685,#686,#687,#688,#689,
#690,#691,#692,#693,#694,#695,#696,#697,#698,#699,#700,#701,#702));
#704=DERIVED_UNIT_ELEMENT(#706,1.);
#705=DERIVED_UNIT_ELEMENT(#1221,-3.);
#706=(
MASS_UNIT()
NAMED_UNIT(*)
SI_UNIT(.KILO.,.GRAM.)
);
#707=DERIVED_UNIT((#704,#705));
#708=MEASURE_REPRESENTATION_ITEM('density measure',
POSITIVE_RATIO_MEASURE(7850.),#707);
#709=PROPERTY_DEFINITION_REPRESENTATION(#714,#711);
#710=PROPERTY_DEFINITION_REPRESENTATION(#715,#712);
#711=REPRESENTATION('material name',(#713),#1218);
#712=REPRESENTATION('density',(#708),#1218);
#713=DESCRIPTIVE_REPRESENTATION_ITEM('Steel','Steel');
#714=PROPERTY_DEFINITION('material property','material name',#1228);
#715=PROPERTY_DEFINITION('material property','density of part',#1228);
#716=AXIS2_PLACEMENT_3D('',#991,#785,#786);
#717=AXIS2_PLACEMENT_3D('',#992,#787,#788);
#718=AXIS2_PLACEMENT_3D('',#1001,#793,#794);
#719=AXIS2_PLACEMENT_3D('',#1010,#799,#800);
#720=AXIS2_PLACEMENT_3D('',#1013,#803,#804);
#721=AXIS2_PLACEMENT_3D('',#1015,#806,#807);
#722=AXIS2_PLACEMENT_3D('',#1025,#813,#814);
#723=AXIS2_PLACEMENT_3D('',#1030,#816,#817);
#724=AXIS2_PLACEMENT_3D('',#1033,#819,#820);
#725=AXIS2_PLACEMENT_3D('',#1034,#821,#822);
#726=AXIS2_PLACEMENT_3D('',#1039,#824,#825);
#727=AXIS2_PLACEMENT_3D('',#1042,#827,#828);
#728=AXIS2_PLACEMENT_3D('',#1043,#829,#830);
#729=AXIS2_PLACEMENT_3D('',#1047,#833,#834);
#730=AXIS2_PLACEMENT_3D('',#1048,#835,#836);
#731=AXIS2_PLACEMENT_3D('',#1054,#840,#841);
#732=AXIS2_PLACEMENT_3D('',#1058,#844,#845);
#733=AXIS2_PLACEMENT_3D('',#1062,#847,#848);
#734=AXIS2_PLACEMENT_3D('',#1063,#849,#850);
#735=AXIS2_PLACEMENT_3D('',#1064,#851,#852);
#736=AXIS2_PLACEMENT_3D('',#1066,#853,#854);
#737=AXIS2_PLACEMENT_3D('',#1068,#856,#857);
#738=AXIS2_PLACEMENT_3D('',#1076,#862,#863);
#739=AXIS2_PLACEMENT_3D('',#1080,#865,#866);
#740=AXIS2_PLACEMENT_3D('',#1081,#867,#868);
#741=AXIS2_PLACEMENT_3D('',#1082,#869,#870);
#742=AXIS2_PLACEMENT_3D('',#1084,#871,#872);
#743=AXIS2_PLACEMENT_3D('',#1086,#874,#875);
#744=AXIS2_PLACEMENT_3D('',#1094,#880,#881);
#745=AXIS2_PLACEMENT_3D('',#1098,#884,#885);
#746=AXIS2_PLACEMENT_3D('',#1102,#887,#888);
#747=AXIS2_PLACEMENT_3D('',#1103,#889,#890);
#748=AXIS2_PLACEMENT_3D('',#1104,#891,#892);
#749=AXIS2_PLACEMENT_3D('',#1106,#893,#894);
#750=AXIS2_PLACEMENT_3D('',#1109,#896,#897);
#751=AXIS2_PLACEMENT_3D('',#1110,#898,#899);
#752=AXIS2_PLACEMENT_3D('',#1113,#901,#902);
#753=AXIS2_PLACEMENT_3D('',#1114,#903,#904);
#754=AXIS2_PLACEMENT_3D('',#1117,#907,#908);
#755=AXIS2_PLACEMENT_3D('',#1119,#910,#911);
#756=AXIS2_PLACEMENT_3D('',#1123,#913,#914);
#757=AXIS2_PLACEMENT_3D('',#1124,#915,#916);
#758=AXIS2_PLACEMENT_3D('',#1125,#917,#918);
#759=AXIS2_PLACEMENT_3D('',#1127,#919,#920);
#760=AXIS2_PLACEMENT_3D('',#1129,#922,#923);
#761=AXIS2_PLACEMENT_3D('',#1133,#925,#926);
#762=AXIS2_PLACEMENT_3D('',#1137,#929,#930);
#763=AXIS2_PLACEMENT_3D('',#1141,#933,#934);
#764=AXIS2_PLACEMENT_3D('',#1143,#935,#936);
#765=AXIS2_PLACEMENT_3D('',#1147,#938,#939);
#766=AXIS2_PLACEMENT_3D('',#1150,#941,#942);
#767=AXIS2_PLACEMENT_3D('',#1151,#943,#944);
#768=AXIS2_PLACEMENT_3D('',#1166,#946,#947);
#769=AXIS2_PLACEMENT_3D('',#1168,#948,#949);
#770=AXIS2_PLACEMENT_3D('',#1170,#950,#951);
#771=AXIS2_PLACEMENT_3D('',#1172,#953,#954);
#772=AXIS2_PLACEMENT_3D('',#1178,#958,#959);
#773=AXIS2_PLACEMENT_3D('',#1181,#961,#962);
#774=AXIS2_PLACEMENT_3D('',#1182,#963,#964);
#775=AXIS2_PLACEMENT_3D('',#1185,#966,#967);
#776=AXIS2_PLACEMENT_3D('',#1186,#968,#969);
#777=AXIS2_PLACEMENT_3D('',#1188,#970,#971);
#778=AXIS2_PLACEMENT_3D('',#1190,#973,#974);
#779=AXIS2_PLACEMENT_3D('',#1194,#977,#978);
#780=AXIS2_PLACEMENT_3D('',#1196,#979,#980);
#781=AXIS2_PLACEMENT_3D('',#1209,#981,#982);
#782=AXIS2_PLACEMENT_3D('',#1211,#983,#984);
#783=AXIS2_PLACEMENT_3D('',#1213,#986,#987);
#784=AXIS2_PLACEMENT_3D('',#1215,#989,#990);
#785=DIRECTION('axis',(0.,0.,1.));
#786=DIRECTION('refdir',(1.,0.,0.));
#787=DIRECTION('center_axis',(-1.,0.,0.));
#788=DIRECTION('ref_axis',(0.,1.,0.));
#789=DIRECTION('',(2.12516407656523E-32,-1.,-2.77555756156289E-17));
#790=DIRECTION('',(0.,0.,-1.));
#791=DIRECTION('',(0.,1.,0.));
#792=DIRECTION('',(0.,0.,-1.));
#793=DIRECTION('center_axis',(1.,0.,0.));
#794=DIRECTION('ref_axis',(0.,-1.,0.));
#795=DIRECTION('',(-2.65645509570653E-33,1.,2.77555756156289E-17));
#796=DIRECTION('',(0.,0.,-1.));
#797=DIRECTION('',(0.,-1.,0.));
#798=DIRECTION('',(0.,0.,-1.));
#799=DIRECTION('center_axis',(0.,1.,0.));
#800=DIRECTION('ref_axis',(1.,0.,0.));
#801=DIRECTION('',(-1.,0.,0.));
#802=DIRECTION('',(1.,0.,0.));
#803=DIRECTION('center_axis',(0.,0.,-1.));
#804=DIRECTION('ref_axis',(-1.,0.,0.));
#805=DIRECTION('',(-1.,0.,0.));
#806=DIRECTION('center_axis',(0.,2.77555756156289E-17,-1.));
#807=DIRECTION('ref_axis',(-1.,0.,0.));
#808=DIRECTION('',(2.12516407656523E-32,-1.,-2.77555756156289E-17));
#809=DIRECTION('',(0.334544840699254,-0.942379832955646,-2.61562947122442E-17));
#810=DIRECTION('',(-1.,0.,0.));
#811=DIRECTION('',(0.334544840699254,0.942379832955646,2.61562947122442E-17));
#812=DIRECTION('',(-2.65645509570653E-33,1.,2.77555756156289E-17));
#813=DIRECTION('center_axis',(-0.220580944095419,0.621354772099771,0.751839274240722));
#814=DIRECTION('ref_axis',(-0.594144538680086,-0.696905714735204,0.40164000289568));
#815=DIRECTION('',(-0.220580944095419,0.621354772099771,0.751839274240722));
#816=DIRECTION('center_axis',(0.,1.,0.));
#817=DIRECTION('ref_axis',(-0.281522247021365,0.,0.959554701115075));
#818=DIRECTION('',(0.220580944095419,-0.621354772099771,-0.751839274240722));
#819=DIRECTION('center_axis',(0.304724849037768,-0.85837985644442,-0.412706661479272));
#820=DIRECTION('ref_axis',(-0.138068884320102,0.388926434704519,-0.910863991807028));
#821=DIRECTION('center_axis',(0.,1.,0.));
#822=DIRECTION('ref_axis',(-0.707106781186548,0.,0.707106781186547));
#823=DIRECTION('',(0.,-1.,0.));
#824=DIRECTION('center_axis',(0.,-1.,0.));
#825=DIRECTION('ref_axis',(-0.707106781186548,0.,0.707106781186547));
#826=DIRECTION('',(0.,1.,0.));
#827=DIRECTION('center_axis',(-0.169735333746916,0.985489683597866,0.));
#828=DIRECTION('ref_axis',(-0.985489683597866,-0.169735333746916,0.));
#829=DIRECTION('center_axis',(0.334544840699254,-0.942379832955646,6.40378249851496E-17));
#830=DIRECTION('ref_axis',(-0.666363170336383,-0.236558925469416,0.707106781186547));
#831=DIRECTION('',(0.334544840699254,-0.942379832955646,6.40378249851496E-17));
#832=DIRECTION('',(-0.334544840699254,0.942379832955646,-6.40378249851496E-17));
#833=DIRECTION('center_axis',(0.,0.770825735452113,-0.637046062357118));
#834=DIRECTION('ref_axis',(-0.486779942194951,0.556475429071267,0.673335269176233));
#835=DIRECTION('center_axis',(-0.942379832955646,-0.334544840699254,3.20396519759909E-17));
#836=DIRECTION('ref_axis',(3.39986604716517E-17,0.,1.));
#837=DIRECTION('',(7.65671051465625E-16,-2.25259073785148E-15,-1.));
#838=DIRECTION('',(0.334544840699254,-0.942379832955646,-2.61562947122442E-17));
#839=DIRECTION('',(-3.39986604716517E-17,0.,-1.));
#840=DIRECTION('center_axis',(-1.,0.,-7.65671051465625E-16));
#841=DIRECTION('ref_axis',(7.65671051465625E-16,0.,-1.));
#842=DIRECTION('',(-7.65671051465625E-16,0.,1.));
#843=DIRECTION('',(2.12516407656523E-32,-1.,-2.77555756156289E-17));
#844=DIRECTION('center_axis',(0.334544840699254,-0.942379832955646,-2.61562947122442E-17));
#845=DIRECTION('ref_axis',(-0.666363170336383,-0.236558925469416,-0.707106781186548));
#846=DIRECTION('',(-0.334544840699254,0.942379832955646,2.61562947122442E-17));
#847=DIRECTION('center_axis',(0.,1.,0.));
#848=DIRECTION('ref_axis',(-1.,0.,7.84688841367325E-16));
#849=DIRECTION('center_axis',(0.169735333746916,-0.985489683597866,0.));
#850=DIRECTION('ref_axis',(-0.985489683597866,-0.169735333746916,1.54100470036748E-16));
#851=DIRECTION('center_axis',(-2.12516407656523E-32,1.,2.77555756156289E-17));
#852=DIRECTION('ref_axis',(-0.707106781186547,0.,-0.707106781186548));
#853=DIRECTION('center_axis',(0.,-1.,0.));
#854=DIRECTION('ref_axis',(-0.707106781186547,0.,-0.707106781186548));
#855=DIRECTION('',(-2.12516407656523E-32,1.,2.77555756156289E-17));
#856=DIRECTION('center_axis',(0.,2.77555756156289E-17,-1.));
#857=DIRECTION('ref_axis',(-1.,0.,0.));
#858=DIRECTION('',(-1.,0.,0.));
#859=DIRECTION('',(2.65645509570653E-33,-1.,-2.77555756156289E-17));
#860=DIRECTION('',(-0.334544840699254,-0.942379832955646,-2.61562947122442E-17));
#861=DIRECTION('',(1.,0.,0.));
#862=DIRECTION('center_axis',(-0.334544840699254,-0.942379832955646,-2.61562947122442E-17));
#863=DIRECTION('ref_axis',(0.666363170336384,-0.236558925469415,-0.707106781186547));
#864=DIRECTION('',(0.334544840699254,0.942379832955646,2.61562947122442E-17));
#865=DIRECTION('center_axis',(0.,1.,0.));
#866=DIRECTION('ref_axis',(1.,0.,1.83094062985709E-15));
#867=DIRECTION('center_axis',(-0.169735333746916,-0.985489683597866,0.));
#868=DIRECTION('ref_axis',(0.985489683597866,-0.169735333746916,1.54100470036748E-16));
#869=DIRECTION('center_axis',(-2.65645509570653E-33,1.,2.77555756156289E-17));
#870=DIRECTION('ref_axis',(0.707106781186548,0.,-0.707106781186548));
#871=DIRECTION('center_axis',(0.,-1.,0.));
#872=DIRECTION('ref_axis',(0.707106781186548,0.,-0.707106781186548));
#873=DIRECTION('',(-2.65645509570653E-33,1.,2.77555756156289E-17));
#874=DIRECTION('center_axis',(0.942379832955646,-0.334544840699254,0.));
#875=DIRECTION('ref_axis',(0.,0.,-1.));
#876=DIRECTION('',(9.57088814332031E-17,2.69602482910431E-16,-1.));
#877=DIRECTION('',(-0.334544840699254,-0.942379832955646,-6.40378249851495E-17));
#878=DIRECTION('',(-0.220580944095419,-0.621354772099771,-0.751839274240722));
#879=DIRECTION('',(0.,0.,1.));
#880=DIRECTION('center_axis',(1.,0.,9.57088814332031E-17));
#881=DIRECTION('ref_axis',(-9.57088814332031E-17,0.,1.));
#882=DIRECTION('',(9.57088814332031E-17,0.,-1.));
#883=DIRECTION('',(0.,-1.,0.));
#884=DIRECTION('center_axis',(0.220580944095419,0.621354772099771,0.751839274240722));
#885=DIRECTION('ref_axis',(0.594144538680087,-0.696905714735203,0.40164000289568));
#886=DIRECTION('',(0.220580944095419,0.621354772099771,0.751839274240722));
#887=DIRECTION('center_axis',(0.,1.,0.));
#888=DIRECTION('ref_axis',(0.281522247021365,0.,0.959554701115075));
#889=DIRECTION('center_axis',(-0.304724849037768,-0.858379856444419,-0.412706661479274));
#890=DIRECTION('ref_axis',(0.138068884320103,0.388926434704521,-0.910863991807027));
#891=DIRECTION('center_axis',(0.,-1.,0.));
#892=DIRECTION('ref_axis',(0.707106781186548,0.,0.707106781186547));
#893=DIRECTION('center_axis',(0.,-1.,0.));
#894=DIRECTION('ref_axis',(0.707106781186548,0.,0.707106781186547));
#895=DIRECTION('',(0.,1.,0.));
#896=DIRECTION('center_axis',(0.169735333746914,0.985489683597867,0.));
#897=DIRECTION('ref_axis',(-0.985489683597867,0.169735333746914,0.));
#898=DIRECTION('center_axis',(0.334544840699254,0.942379832955646,6.40378249851495E-17));
#899=DIRECTION('ref_axis',(0.666363170336384,-0.236558925469416,0.707106781186547));
#900=DIRECTION('',(0.334544840699254,0.942379832955646,6.40378249851495E-17));
#901=DIRECTION('center_axis',(0.,0.770825735452113,-0.637046062357118));
#902=DIRECTION('ref_axis',(0.486779942194951,0.556475429071267,0.673335269176233));
#903=DIRECTION('center_axis',(0.,-0.770825735452113,0.637046062357118));
#904=DIRECTION('ref_axis',(1.,0.,0.));
#905=DIRECTION('',(-1.,0.,0.));
#906=DIRECTION('',(1.,1.58196498236699E-16,1.91417762866406E-16));
#907=DIRECTION('center_axis',(-1.91417762866406E-16,0.,1.));
#908=DIRECTION('ref_axis',(-1.,0.,-1.91417762866406E-16));
#909=DIRECTION('',(1.,0.,1.91417762866406E-16));
#910=DIRECTION('center_axis',(2.65645509570653E-33,-1.,-2.77555756156289E-17));
#911=DIRECTION('ref_axis',(0.707106781186548,0.,-0.707106781186548));
#912=DIRECTION('',(2.65645509570653E-33,-1.,-2.77555756156289E-17));
#913=DIRECTION('center_axis',(0.,1.,0.));
#914=DIRECTION('ref_axis',(0.707106781186548,0.,-0.707106781186548));
#915=DIRECTION('center_axis',(-0.169735333746918,-0.985489683597866,0.));
#916=DIRECTION('ref_axis',(-0.985489683597866,0.169735333746918,1.6352267381766E-16));
#917=DIRECTION('center_axis',(0.334544840699254,0.942379832955646,2.61562947122442E-17));
#918=DIRECTION('ref_axis',(0.666363170336382,-0.236558925469416,-0.707106781186548));
#919=DIRECTION('center_axis',(0.,-1.,0.));
#920=DIRECTION('ref_axis',(1.,0.,8.50079578147936E-16));
#921=DIRECTION('',(-0.334544840699254,-0.942379832955646,-2.61562947122442E-17));
#922=DIRECTION('center_axis',(1.,0.,9.57088814332031E-17));
#923=DIRECTION('ref_axis',(-9.57088814332031E-17,0.,1.));
#924=DIRECTION('',(9.57088814332031E-17,0.,-1.));
#925=DIRECTION('center_axis',(1.,0.,9.57088814332031E-17));
#926=DIRECTION('ref_axis',(6.72007854789693E-17,-0.637046062357118,-0.770825735452113));
#927=DIRECTION('',(0.,1.,0.));
#928=DIRECTION('',(9.57088814332031E-17,0.,-1.));
#929=DIRECTION('center_axis',(0.942379832955646,-0.334544840699254,0.));
#930=DIRECTION('ref_axis',(0.,0.,-1.));
#931=DIRECTION('',(0.,0.,-1.));
#932=DIRECTION('',(0.220580944095419,0.621354772099771,0.751839274240722));
#933=DIRECTION('center_axis',(0.,1.,0.));
#934=DIRECTION('ref_axis',(0.,0.,1.));
#935=DIRECTION('center_axis',(0.,-1.,0.));
#936=DIRECTION('ref_axis',(-1.,0.,7.84688841367325E-16));
#937=DIRECTION('',(0.,0.,1.));
#938=DIRECTION('center_axis',(0.,-1.,0.));
#939=DIRECTION('ref_axis',(-0.281522247021365,0.,0.959554701115075));
#940=DIRECTION('',(1.,0.,0.));
#941=DIRECTION('center_axis',(0.,-1.,0.));
#942=DIRECTION('ref_axis',(0.281522247021365,0.,0.959554701115075));
#943=DIRECTION('center_axis',(0.220580944095419,0.621354772099771,0.751839274240722));
#944=DIRECTION('ref_axis',(0.594144538680087,-0.696905714735204,0.40164000289568));
#945=DIRECTION('',(-0.220580944095419,-0.621354772099771,-0.751839274240722));
#946=DIRECTION('center_axis',(0.,-1.,0.));
#947=DIRECTION('ref_axis',(0.707106781186548,0.,0.707106781186548));
#948=DIRECTION('center_axis',(0.,1.,0.));
#949=DIRECTION('ref_axis',(0.707106781186548,0.,0.707106781186548));
#950=DIRECTION('center_axis',(0.,-0.770825735452113,0.637046062357118));
#951=DIRECTION('ref_axis',(5.34867799670347E-17,0.637046062357118,0.770825735452113));
#952=DIRECTION('',(0.,-1.,0.));
#953=DIRECTION('center_axis',(-1.91417762866406E-16,0.,1.));
#954=DIRECTION('ref_axis',(-1.,0.,-1.91417762866406E-16));
#955=DIRECTION('',(1.,0.,1.91417762866406E-16));
#956=DIRECTION('',(0.,1.,0.));
#957=DIRECTION('',(1.,0.,1.91417762866406E-16));
#958=DIRECTION('center_axis',(0.,-0.770825735452113,0.637046062357118));
#959=DIRECTION('ref_axis',(1.,0.,0.));
#960=DIRECTION('',(-0.220580944095419,0.621354772099771,0.751839274240722));
#961=DIRECTION('center_axis',(0.,-0.770825735452113,0.637046062357118));
#962=DIRECTION('ref_axis',(1.06973559934069E-16,0.637046062357118,0.770825735452113));
#963=DIRECTION('center_axis',(-0.334544840699254,0.942379832955646,2.61562947122442E-17));
#964=DIRECTION('ref_axis',(-0.666363170336383,-0.236558925469416,-0.707106781186548));
#965=DIRECTION('',(-0.334544840699254,0.942379832955646,2.61562947122442E-17));
#966=DIRECTION('center_axis',(-0.169735333746918,0.985489683597866,0.));
#967=DIRECTION('ref_axis',(0.985489683597866,0.169735333746918,-1.54100470036749E-16));
#968=DIRECTION('center_axis',(2.12516407656523E-32,-1.,-2.77555756156289E-17));
#969=DIRECTION('ref_axis',(-0.707106781186546,0.,-0.707106781186549));
#970=DIRECTION('center_axis',(0.,1.,0.));
#971=DIRECTION('ref_axis',(-0.707106781186546,0.,-0.707106781186549));
#972=DIRECTION('',(-2.12516407656523E-32,1.,2.77555756156289E-17));
#973=DIRECTION('center_axis',(-0.942379832955646,-0.334544840699254,3.20396519759909E-17));
#974=DIRECTION('ref_axis',(3.39986604716517E-17,0.,1.));
#975=DIRECTION('',(-7.65671051465625E-16,0.,1.));
#976=DIRECTION('',(0.220580944095419,-0.621354772099771,-0.751839274240722));
#977=DIRECTION('center_axis',(-0.220580944095419,0.621354772099771,0.751839274240722));
#978=DIRECTION('ref_axis',(-0.594144538680087,-0.696905714735204,0.40164000289568));
#979=DIRECTION('center_axis',(-1.,0.,-7.65671051465625E-16));
#980=DIRECTION('ref_axis',(6.14130624487742E-16,-0.637046062357118,-0.770825735452113));
#981=DIRECTION('center_axis',(0.,-1.,0.));
#982=DIRECTION('ref_axis',(-0.707106781186548,0.,0.707106781186547));
#983=DIRECTION('center_axis',(0.,1.,0.));
#984=DIRECTION('ref_axis',(-0.707106781186548,0.,0.707106781186547));
#985=DIRECTION('',(0.,-1.,0.));
#986=DIRECTION('center_axis',(-1.,0.,-7.65671051465625E-16));
#987=DIRECTION('ref_axis',(7.65671051465625E-16,0.,-1.));
#988=DIRECTION('',(-7.65671051465625E-16,0.,1.));
#989=DIRECTION('center_axis',(0.,-1.,0.));
#990=DIRECTION('ref_axis',(0.,0.,-1.));
#991=CARTESIAN_POINT('',(0.,0.,0.));
#992=CARTESIAN_POINT('Origin',(-4.79999999999999,0.,-5.8));
#993=CARTESIAN_POINT('',(-4.79999999999999,3.,-5.8));
#994=CARTESIAN_POINT('',(-4.79999999999999,0.,-5.8));
#995=CARTESIAN_POINT('',(-4.79999999999999,10.,-5.8));
#996=CARTESIAN_POINT('',(-4.79999999999999,3.,-8.8));
#997=CARTESIAN_POINT('',(-4.79999999999999,3.,-5.8));
#998=CARTESIAN_POINT('',(-4.79999999999999,0.,-8.8));
#999=CARTESIAN_POINT('',(-4.79999999999999,3.,-8.8));
#1000=CARTESIAN_POINT('',(-4.79999999999999,0.,-5.8));
#1001=CARTESIAN_POINT('Origin',(4.8,3.,-5.8));
#1002=CARTESIAN_POINT('',(4.8,0.,-5.8));
#1003=CARTESIAN_POINT('',(4.8,3.,-5.8));
#1004=CARTESIAN_POINT('',(4.8,10.,-5.8));
#1005=CARTESIAN_POINT('',(4.8,0.,-8.8));
#1006=CARTESIAN_POINT('',(4.8,-1.60982338570648E-16,-5.8));
#1007=CARTESIAN_POINT('',(4.8,3.,-8.8));
#1008=CARTESIAN_POINT('',(4.8,-1.60982338570648E-16,-8.8));
#1009=CARTESIAN_POINT('',(4.8,3.,-5.8));
#1010=CARTESIAN_POINT('Origin',(-4.79999999999999,3.,-5.8));
#1011=CARTESIAN_POINT('',(0.500000000000004,3.,-5.8));
#1012=CARTESIAN_POINT('',(4.8,3.,-8.8));
#1013=CARTESIAN_POINT('Origin',(3.88578058618805E-15,1.5,-8.8));
#1014=CARTESIAN_POINT('',(-4.79999999999999,-1.60982338570648E-16,-8.8));
#1015=CARTESIAN_POINT('Origin',(5.8,10.,-5.8));
#1016=CARTESIAN_POINT('',(-4.79999999999999,10.1722345109968,-5.8));
#1017=CARTESIAN_POINT('',(-4.79999999999999,10.,-5.8));
#1018=CARTESIAN_POINT('',(-18.9388567485961,50.,-5.8));
#1019=CARTESIAN_POINT('',(-4.20848271450111,8.5059886363521,-5.8));
#1020=CARTESIAN_POINT('',(18.9388567485961,50.,-5.8));
#1021=CARTESIAN_POINT('',(-20.,50.,-5.8));
#1022=CARTESIAN_POINT('',(4.8,10.1722345109968,-5.8));
#1023=CARTESIAN_POINT('',(4.85762016704435,10.3345448406993,-5.8));
#1024=CARTESIAN_POINT('',(4.8,10.,-5.8));
#1025=CARTESIAN_POINT('Origin',(-3.04007926954318,9.39950161383803,1.306008467334));
#1026=CARTESIAN_POINT('',(-4.59681199018182,10.7955282877388,3.4));
#1027=CARTESIAN_POINT('',(-18.5143994480346,50.,50.837410771836));
#1028=CARTESIAN_POINT('',(-3.98245910249882,9.06495677313878,1.306008467334));
#1029=CARTESIAN_POINT('',(-17.7268993327162,50.,52.0023567168442));
#1030=CARTESIAN_POINT('Origin',(-17.4532561966307,50.,50.43261151459));
#1031=CARTESIAN_POINT('',(-3.75099568359379,10.6312573264158,4.36617808180728));
#1032=CARTESIAN_POINT('',(-3.04007926954318,8.62867587838592,1.94305452969112));
#1033=CARTESIAN_POINT('Origin',(-3.65443215722618,11.130073128438,3.4));
#1034=CARTESIAN_POINT('Origin',(-3.4,10.,3.4));
#1035=CARTESIAN_POINT('',(-3.4,10.4133628263925,4.4));
#1036=CARTESIAN_POINT('',(-3.4,0.,4.4));
#1037=CARTESIAN_POINT('',(-3.4,10.,4.4));
#1038=CARTESIAN_POINT('',(-4.4,0.,3.4));
#1039=CARTESIAN_POINT('Origin',(-3.4,0.,3.4));
#1040=CARTESIAN_POINT('',(-4.4,10.2411283153956,3.4));
#1041=CARTESIAN_POINT('',(-4.4,10.,3.4));
#1042=CARTESIAN_POINT('Origin',(-3.4,10.4133628263925,3.4));
#1043=CARTESIAN_POINT('Origin',(-2.8891509483632,8.97435141333106,3.4));
#1044=CARTESIAN_POINT('',(-3.48727550697805,10.6592093249222,4.4));
#1045=CARTESIAN_POINT('',(-2.8891509483632,8.97435141333106,4.4));
#1046=CARTESIAN_POINT('',(-3.83153078131885,8.63980657263181,3.4));
#1047=CARTESIAN_POINT('Origin',(-3.19388707722599,9.83276304393045,3.4));
#1048=CARTESIAN_POINT('Origin',(-4.48066823386209,10.468362776979,-5.8));
#1049=CARTESIAN_POINT('',(-4.39999999999999,10.2411283153956,-3.4));
#1050=CARTESIAN_POINT('',(-4.4,10.2411283153956,1.68056861945301E-15));
#1051=CARTESIAN_POINT('',(-18.5143994480346,50.,-3.4));
#1052=CARTESIAN_POINT('',(-3.83153078131885,8.63980657263181,-3.4));
#1053=CARTESIAN_POINT('',(-18.5143994480346,50.,9.2));
#1054=CARTESIAN_POINT('Origin',(-4.4,10.,5.8));
#1055=CARTESIAN_POINT('',(-4.39999999999999,0.,-3.4));
#1056=CARTESIAN_POINT('',(-4.4,0.,2.9));
#1057=CARTESIAN_POINT('',(-4.39999999999999,10.,-3.4));
#1058=CARTESIAN_POINT('Origin',(-2.8891509483632,8.97435141333106,-3.4));
#1059=CARTESIAN_POINT('',(-3.39999999999999,10.4133628263924,-4.4));
#1060=CARTESIAN_POINT('',(-17.4532561966307,50.,-4.4));
#1061=CARTESIAN_POINT('',(-2.8891509483632,8.97435141333106,-4.4));
#1062=CARTESIAN_POINT('Origin',(-17.4532561966307,50.,-3.4));
#1063=CARTESIAN_POINT('Origin',(-3.39999999999999,10.4133628263924,-3.4));
#1064=CARTESIAN_POINT('Origin',(-3.39999999999999,10.,-3.4));
#1065=CARTESIAN_POINT('',(-3.39999999999999,0.,-4.4));
#1066=CARTESIAN_POINT('Origin',(-3.39999999999999,0.,-3.4));
#1067=CARTESIAN_POINT('',(-3.39999999999999,10.,-4.4));
#1068=CARTESIAN_POINT('Origin',(5.8,10.,-4.4));
#1069=CARTESIAN_POINT('',(3.4,0.,-4.4));
#1070=CARTESIAN_POINT('',(2.9,0.,-4.4));
#1071=CARTESIAN_POINT('',(3.4,10.4133628263924,-4.4));
#1072=CARTESIAN_POINT('',(3.4,10.,-4.4));
#1073=CARTESIAN_POINT('',(17.4532561966307,50.,-4.4));
#1074=CARTESIAN_POINT('',(3.53828840090645,10.8029076176782,-4.4));
#1075=CARTESIAN_POINT('',(2.9,50.,-4.4));
#1076=CARTESIAN_POINT('Origin',(3.53828840090645,10.8029076176782,-3.4));
#1077=CARTESIAN_POINT('',(4.4,10.2411283153956,-3.4));
#1078=CARTESIAN_POINT('',(18.5143994480346,50.,-3.4));
#1079=CARTESIAN_POINT('',(4.48066823386209,10.468362776979,-3.4));
#1080=CARTESIAN_POINT('Origin',(17.4532561966307,50.,-3.4));
#1081=CARTESIAN_POINT('Origin',(3.4,10.4133628263924,-3.4));
#1082=CARTESIAN_POINT('Origin',(3.4,10.,-3.4));
#1083=CARTESIAN_POINT('',(4.4,0.,-3.4));
#1084=CARTESIAN_POINT('Origin',(3.4,0.,-3.4));
#1085=CARTESIAN_POINT('',(4.4,10.,-3.4));
#1086=CARTESIAN_POINT('Origin',(4.48066823386209,10.468362776979,5.8));
#1087=CARTESIAN_POINT('',(4.4,10.2411283153956,3.4));
#1088=CARTESIAN_POINT('',(4.4,10.2411283153956,2.21845862477773E-15));
#1089=CARTESIAN_POINT('',(4.59681199018183,10.7955282877388,3.4));
#1090=CARTESIAN_POINT('',(4.48066823386209,10.468362776979,3.4));
#1091=CARTESIAN_POINT('',(18.5143994480346,50.,50.8374107718361));
#1092=CARTESIAN_POINT('',(4.66213479382647,10.9795361853293,3.62264955608454));
#1093=CARTESIAN_POINT('',(18.5143994480346,50.,15.));
#1094=CARTESIAN_POINT('Origin',(4.4,10.,-5.8));
#1095=CARTESIAN_POINT('',(4.4,0.,3.4));
#1096=CARTESIAN_POINT('',(4.4,0.,-2.9));
#1097=CARTESIAN_POINT('',(4.4,10.,3.4));
#1098=CARTESIAN_POINT('Origin',(3.71975496087082,11.3140810260286,3.62264955608454));
#1099=CARTESIAN_POINT('',(3.7509956835938,10.6312573264158,4.36617808180728));
#1100=CARTESIAN_POINT('',(17.7268993327162,50.,52.0023567168442));
#1101=CARTESIAN_POINT('',(3.71975496087082,10.5432552905765,4.25969561844166));
#1102=CARTESIAN_POINT('Origin',(17.4532561966307,50.,50.43261151459));
#1103=CARTESIAN_POINT('Origin',(3.65443215722619,11.130073128438,3.4));
#1104=CARTESIAN_POINT('Origin',(3.4,10.,3.4));
#1105=CARTESIAN_POINT('',(3.4,0.,4.4));
#1106=CARTESIAN_POINT('Origin',(3.4,0.,3.4));
#1107=CARTESIAN_POINT('',(3.4,10.4133628263924,4.4));
#1108=CARTESIAN_POINT('',(3.4,10.,4.4));
#1109=CARTESIAN_POINT('Origin',(3.4,10.4133628263924,3.4));
#1110=CARTESIAN_POINT('Origin',(3.53828840090645,10.8029076176782,3.4));
#1111=CARTESIAN_POINT('',(3.48727550697806,10.6592093249222,4.4));
#1112=CARTESIAN_POINT('',(3.53828840090645,10.8029076176782,4.4));
#1113=CARTESIAN_POINT('Origin',(3.19388707722599,9.83276304393045,3.4));
#1114=CARTESIAN_POINT('Origin',(-5.8,11.079156029633,4.90813551270004));
#1115=CARTESIAN_POINT('',(-2.9,50.,52.0023567168442));
#1116=CARTESIAN_POINT('',(-1.08051519742634E-15,10.6592093249222,4.4));
#1117=CARTESIAN_POINT('Origin',(5.8,10.,4.4));
#1118=CARTESIAN_POINT('',(2.9,0.,4.4));
#1119=CARTESIAN_POINT('Origin',(4.8,10.,-4.8));
#1120=CARTESIAN_POINT('',(5.8,10.,-4.8));
#1121=CARTESIAN_POINT('',(5.8,0.,-4.8));
#1122=CARTESIAN_POINT('',(5.8,10.,-4.8));
#1123=CARTESIAN_POINT('Origin',(4.8,0.,-4.8));
#1124=CARTESIAN_POINT('Origin',(4.8,10.1722345109968,-4.8));
#1125=CARTESIAN_POINT('Origin',(4.85762016704435,10.3345448406993,-4.8));
#1126=CARTESIAN_POINT('',(20.,50.,-4.8));
#1127=CARTESIAN_POINT('Origin',(18.9388567485961,50.,-4.8));
#1128=CARTESIAN_POINT('',(5.8,10.,-4.8));
#1129=CARTESIAN_POINT('Origin',(5.8,10.,-5.8));
#1130=CARTESIAN_POINT('',(5.8,10.,4.63505405499193));
#1131=CARTESIAN_POINT('',(5.8,10.,5.8));
#1132=CARTESIAN_POINT('',(5.8,10.0145256191432,4.8));
#1133=CARTESIAN_POINT('Origin',(5.8,12.9891359194476,7.84710926027736));
#1134=CARTESIAN_POINT('',(5.8,0.,4.8));
#1135=CARTESIAN_POINT('',(5.8,10.,4.8));
#1136=CARTESIAN_POINT('',(5.8,0.,-2.9));
#1137=CARTESIAN_POINT('Origin',(5.8,10.,5.8));
#1138=CARTESIAN_POINT('',(20.,50.,53.0350540549919));
#1139=CARTESIAN_POINT('',(20.,50.,-5.8));
#1140=CARTESIAN_POINT('',(5.71099175934683,9.74927256154038,4.33167385445578));
#1141=CARTESIAN_POINT('Origin',(2.01858731750028E-16,50.,24.2));
#1142=CARTESIAN_POINT('',(-20.,50.,-4.8));
#1143=CARTESIAN_POINT('Origin',(-18.9388567485961,50.,-4.8));
#1144=CARTESIAN_POINT('',(-20.,50.,53.0350540549919));
#1145=CARTESIAN_POINT('',(-20.,50.,54.2));
#1146=CARTESIAN_POINT('',(-19.2124998846816,50.,54.2));
#1147=CARTESIAN_POINT('Origin',(-18.9388567485961,50.,52.6302547977458));
#1148=CARTESIAN_POINT('',(19.2124998846816,50.,54.2));
#1149=CARTESIAN_POINT('',(20.,50.,54.2));
#1150=CARTESIAN_POINT('Origin',(18.9388567485961,50.,52.6302547977458));
#1151=CARTESIAN_POINT('Origin',(4.76861192639119,10.0838174022396,4.33167385445578));
#1152=CARTESIAN_POINT('',(5.00619522363018,9.9822403914044,5.77851087359932));
#1153=CARTESIAN_POINT('',(4.76861192639119,9.31299166678752,4.9687199168129));
#1154=CARTESIAN_POINT('Ctrl Pts',(5.00619522363018,9.9822403914044,5.77851087359932));
#1155=CARTESIAN_POINT('Ctrl Pts',(5.08875013349073,9.96786331826536,5.76111461510109));
#1156=CARTESIAN_POINT('Ctrl Pts',(5.16933757373575,9.95903278423743,5.73321962464258));
#1157=CARTESIAN_POINT('Ctrl Pts',(5.3240761662541,9.95106820779736,5.65614211806583));
#1158=CARTESIAN_POINT('Ctrl Pts',(5.3967742659809,9.95223633337498,5.60714815114641));
#1159=CARTESIAN_POINT('Ctrl Pts',(5.55641732745831,9.96447421482573,5.46606110618986));
#1160=CARTESIAN_POINT('Ctrl Pts',(5.63358067648946,9.97988988934242,5.3662296069325));
#1161=CARTESIAN_POINT('Ctrl Pts',(5.73701989190578,10.0084224829483,5.16406277171037));
#1162=CARTESIAN_POINT('Ctrl Pts',(5.76662824295092,10.0202850681514,5.07155800617338));
#1163=CARTESIAN_POINT('Ctrl Pts',(5.79438642812907,10.0258892779035,4.92243706504674));
#1164=CARTESIAN_POINT('Ctrl Pts',(5.8,10.0243273102848,4.86079525758535));
#1165=CARTESIAN_POINT('Ctrl Pts',(5.8,10.0145256191432,4.8));
#1166=CARTESIAN_POINT('Origin',(4.8,10.,4.8));
#1167=CARTESIAN_POINT('',(4.8,0.,5.8));
#1168=CARTESIAN_POINT('Origin',(4.8,0.,4.8));
#1169=CARTESIAN_POINT('',(4.8,10.,5.8));
#1170=CARTESIAN_POINT('Origin',(4.8,9.17355371900827,4.8));
#1171=CARTESIAN_POINT('',(4.8,10.,5.8));
#1172=CARTESIAN_POINT('Origin',(5.8,10.,5.8));
#1173=CARTESIAN_POINT('',(-4.8,10.,5.8));
#1174=CARTESIAN_POINT('',(-5.8,10.,5.8));
#1175=CARTESIAN_POINT('',(-4.8,0.,5.8));
#1176=CARTESIAN_POINT('',(-4.8,10.,5.8));
#1177=CARTESIAN_POINT('',(2.9,0.,5.8));
#1178=CARTESIAN_POINT('Origin',(-5.8,10.,5.8));
#1179=CARTESIAN_POINT('',(-5.00619522363017,9.9822403914044,5.77851087359932));
#1180=CARTESIAN_POINT('',(-4.08893623506354,7.39841225459699,2.65207882806236));
#1181=CARTESIAN_POINT('Origin',(-4.8,9.17355371900826,4.8));
#1182=CARTESIAN_POINT('Origin',(-4.20848271450111,8.5059886363521,-4.8));
#1183=CARTESIAN_POINT('',(-5.79999999999999,10.,-4.8));
#1184=CARTESIAN_POINT('',(-5.15086254745675,8.17144379565285,-4.8));
#1185=CARTESIAN_POINT('Origin',(-4.79999999999999,10.1722345109968,-4.8));
#1186=CARTESIAN_POINT('Origin',(-4.79999999999999,10.,-4.8));
#1187=CARTESIAN_POINT('',(-5.79999999999999,0.,-4.8));
#1188=CARTESIAN_POINT('Origin',(-4.79999999999999,0.,-4.8));
#1189=CARTESIAN_POINT('',(-5.79999999999999,10.,-4.8));
#1190=CARTESIAN_POINT('Origin',(-5.79999999999999,10.,-5.8));
#1191=CARTESIAN_POINT('',(-5.8,10.,4.63505405499193));
#1192=CARTESIAN_POINT('',(-5.79999999999999,10.,-5.8));
#1193=CARTESIAN_POINT('',(-5.03131606801919,7.83469314934985,2.01503276570524));
#1194=CARTESIAN_POINT('Origin',(-4.08893623506354,8.1692379900491,2.01503276570524));
#1195=CARTESIAN_POINT('',(-5.8,10.0145256191432,4.8));
#1196=CARTESIAN_POINT('Origin',(-5.8,12.9891359194476,7.84710926027739));
#1197=CARTESIAN_POINT('Ctrl Pts',(-5.8,10.0145256191432,4.8));
#1198=CARTESIAN_POINT('Ctrl Pts',(-5.8,10.0247384901183,4.86334561175708));
#1199=CARTESIAN_POINT('Ctrl Pts',(-5.79389992730254,10.0260158752218,4.92761134504428));
#1200=CARTESIAN_POINT('Ctrl Pts',(-5.77156485509665,10.0210695953277,5.04262441375502));
#1201=CARTESIAN_POINT('Ctrl Pts',(-5.75731448645719,10.0161086586723,5.09385228194725));
#1202=CARTESIAN_POINT('Ctrl Pts',(-5.70649510230346,9.99970617827976,5.23277382524531));
#1203=CARTESIAN_POINT('Ctrl Pts',(-5.66130937842218,9.98642999612201,5.31702198746588));
#1204=CARTESIAN_POINT('Ctrl Pts',(-5.53127232323395,9.96191366587832,5.49311681948845));
#1205=CARTESIAN_POINT('Ctrl Pts',(-5.4403406382295,9.95246004048794,5.57803730528474));
#1206=CARTESIAN_POINT('Ctrl Pts',(-5.23397076718796,9.95286896037259,5.70893282762702));
#1207=CARTESIAN_POINT('Ctrl Pts',(-5.12229754420107,9.96202098159244,5.75404538772685));
#1208=CARTESIAN_POINT('Ctrl Pts',(-5.00619522363017,9.9822403914044,5.77851087359932));
#1209=CARTESIAN_POINT('Origin',(-4.8,10.,4.8));
#1210=CARTESIAN_POINT('',(-5.8,0.,4.8));
#1211=CARTESIAN_POINT('Origin',(-4.8,0.,4.8));
#1212=CARTESIAN_POINT('',(-5.8,10.,4.8));
#1213=CARTESIAN_POINT('Origin',(-5.8,10.,5.8));
#1214=CARTESIAN_POINT('',(-5.8,0.,2.9));
#1215=CARTESIAN_POINT('Origin',(0.,0.,2.22044604925031E-15));
#1216=UNCERTAINTY_MEASURE_WITH_UNIT(LENGTH_MEASURE(0.01),#1220,
'DISTANCE_ACCURACY_VALUE',
'Maximum model space distance between geometric entities at asserted c
onnectivities');
#1217=UNCERTAINTY_MEASURE_WITH_UNIT(LENGTH_MEASURE(0.01),#1220,
'DISTANCE_ACCURACY_VALUE',
'Maximum model space distance between geometric entities at asserted c
onnectivities');
#1218=(
GEOMETRIC_REPRESENTATION_CONTEXT(3)
GLOBAL_UNCERTAINTY_ASSIGNED_CONTEXT((#1216))
GLOBAL_UNIT_ASSIGNED_CONTEXT((#1220,#1222,#1223))
REPRESENTATION_CONTEXT('','3D')
);
#1219=(
GEOMETRIC_REPRESENTATION_CONTEXT(3)
GLOBAL_UNCERTAINTY_ASSIGNED_CONTEXT((#1217))
GLOBAL_UNIT_ASSIGNED_CONTEXT((#1220,#1222,#1223))
REPRESENTATION_CONTEXT('','3D')
);
#1220=(
LENGTH_UNIT()
NAMED_UNIT(*)
SI_UNIT(.MILLI.,.METRE.)
);
#1221=(
LENGTH_UNIT()
NAMED_UNIT(*)
SI_UNIT($,.METRE.)
);
#1222=(
NAMED_UNIT(*)
PLANE_ANGLE_UNIT()
SI_UNIT($,.RADIAN.)
);
#1223=(
NAMED_UNIT(*)
SI_UNIT($,.STERADIAN.)
SOLID_ANGLE_UNIT()
);
#1224=SHAPE_DEFINITION_REPRESENTATION(#1225,#1226);
#1225=PRODUCT_DEFINITION_SHAPE('',$,#1228);
#1226=SHAPE_REPRESENTATION('',(#716),#1218);
#1227=PRODUCT_DEFINITION_CONTEXT('part definition',#1232,'design');
#1228=PRODUCT_DEFINITION('2026-08-29-11-09-46-324','(Unsaved)',#1229,#1227);
#1229=PRODUCT_DEFINITION_FORMATION('',$,#1234);
#1230=PRODUCT_RELATED_PRODUCT_CATEGORY('(Unsaved)','(Unsaved)',(#1234));
#1231=APPLICATION_PROTOCOL_DEFINITION('international standard',
'automotive_design',2009,#1232);
#1232=APPLICATION_CONTEXT(
'Core Data for Automotive Mechanical Design Process');
#1233=PRODUCT_CONTEXT('part definition',#1232,'mechanical');
#1234=PRODUCT('2026-08-29-11-09-46-324','(Unsaved)',$,(#1233));
#1235=PRESENTATION_STYLE_ASSIGNMENT((#1236));
#1236=SURFACE_STYLE_USAGE(.BOTH.,#1237);
#1237=SURFACE_SIDE_STYLE('',(#1238));
#1238=SURFACE_STYLE_FILL_AREA(#1239);
#1239=FILL_AREA_STYLE('Steel - Satin',(#1240));
#1240=FILL_AREA_STYLE_COLOUR('Steel - Satin',#1241);
#1241=COLOUR_RGB('Steel - Satin',0.627450980392157,0.627450980392157,0.627450980392157);
ENDSEC;
END-ISO-10303-21;
