ISO-10303-21;
HEADER;
/* Generated by software containing ST-Developer
 * from STEP Tools, Inc. (www.steptools.com) 
 */

FILE_DESCRIPTION(
/* description */ (''),
/* implementation_level */ '2;1');

FILE_NAME(
/* name */ 'Hardware Fit Tester.step',
/* time_stamp */ '2026-09-07T16:20:22-05:00',
/* author */ (''),
/* organization */ (''),
/* preprocessor_version */ 'ST-DEVELOPER v20.2',
/* originating_system */ 'Autodesk Translation Framework v15.15.0.0',
/* authorisation */ '');

FILE_SCHEMA (('AUTOMOTIVE_DESIGN { 1 0 10303 214 3 1 1 }'));
ENDSEC;

DATA;
#10=MECHANICAL_DESIGN_GEOMETRIC_PRESENTATION_REPRESENTATION('',(#13),#965);
#11=SHAPE_REPRESENTATION_RELATIONSHIP('SRR','None',#972,#12);
#12=ADVANCED_BREP_SHAPE_REPRESENTATION('',(#14),#964);
#13=STYLED_ITEM('',(#981),#14);
#14=MANIFOLD_SOLID_BREP('Body1',#573);
#15=FACE_BOUND('',#102,.T.);
#16=FACE_BOUND('',#103,.T.);
#17=FACE_BOUND('',#104,.T.);
#18=FACE_BOUND('',#109,.T.);
#19=FACE_BOUND('',#113,.T.);
#20=FACE_BOUND('',#114,.T.);
#21=FACE_BOUND('',#115,.T.);
#22=FACE_BOUND('',#123,.T.);
#23=FACE_BOUND('',#129,.T.);
#24=CYLINDRICAL_SURFACE('',#603,3.);
#25=CYLINDRICAL_SURFACE('',#606,3.);
#26=CYLINDRICAL_SURFACE('',#611,1.75);
#27=CYLINDRICAL_SURFACE('',#614,2.25);
#28=CYLINDRICAL_SURFACE('',#617,4.75);
#29=CYLINDRICAL_SURFACE('',#621,3.);
#30=CYLINDRICAL_SURFACE('',#627,3.);
#31=CYLINDRICAL_SURFACE('',#628,2.6);
#32=CIRCLE('',#589,3.);
#33=CIRCLE('',#590,2.);
#34=CIRCLE('',#593,3.);
#35=CIRCLE('',#594,2.);
#36=CIRCLE('',#597,3.);
#37=CIRCLE('',#598,2.);
#38=CIRCLE('',#601,3.);
#39=CIRCLE('',#602,2.);
#40=CIRCLE('',#604,3.);
#41=CIRCLE('',#607,3.);
#42=CIRCLE('',#610,4.75);
#43=CIRCLE('',#612,1.75);
#44=CIRCLE('',#613,1.75);
#45=CIRCLE('',#615,2.25);
#46=CIRCLE('',#616,2.25);
#47=CIRCLE('',#618,4.75);
#48=CIRCLE('',#620,2.6);
#49=CIRCLE('',#622,3.);
#50=CIRCLE('',#625,3.);
#51=CIRCLE('',#626,2.6);
#52=CONICAL_SURFACE('',#588,2.5,0.785398163397449);
#53=CONICAL_SURFACE('',#592,2.5,0.785398163397449);
#54=CONICAL_SURFACE('',#596,2.5,0.785398163397448);
#55=CONICAL_SURFACE('',#600,2.5,0.785398163397449);
#56=FACE_OUTER_BOUND('',#89,.T.);
#57=FACE_OUTER_BOUND('',#90,.T.);
#58=FACE_OUTER_BOUND('',#91,.T.);
#59=FACE_OUTER_BOUND('',#92,.T.);
#60=FACE_OUTER_BOUND('',#93,.T.);
#61=FACE_OUTER_BOUND('',#94,.T.);
#62=FACE_OUTER_BOUND('',#95,.T.);
#63=FACE_OUTER_BOUND('',#96,.T.);
#64=FACE_OUTER_BOUND('',#97,.T.);
#65=FACE_OUTER_BOUND('',#98,.T.);
#66=FACE_OUTER_BOUND('',#99,.T.);
#67=FACE_OUTER_BOUND('',#100,.T.);
#68=FACE_OUTER_BOUND('',#101,.T.);
#69=FACE_OUTER_BOUND('',#105,.T.);
#70=FACE_OUTER_BOUND('',#106,.T.);
#71=FACE_OUTER_BOUND('',#107,.T.);
#72=FACE_OUTER_BOUND('',#108,.T.);
#73=FACE_OUTER_BOUND('',#110,.T.);
#74=FACE_OUTER_BOUND('',#111,.T.);
#75=FACE_OUTER_BOUND('',#112,.T.);
#76=FACE_OUTER_BOUND('',#116,.T.);
#77=FACE_OUTER_BOUND('',#117,.T.);
#78=FACE_OUTER_BOUND('',#118,.T.);
#79=FACE_OUTER_BOUND('',#119,.T.);
#80=FACE_OUTER_BOUND('',#120,.T.);
#81=FACE_OUTER_BOUND('',#121,.T.);
#82=FACE_OUTER_BOUND('',#122,.T.);
#83=FACE_OUTER_BOUND('',#124,.T.);
#84=FACE_OUTER_BOUND('',#125,.T.);
#85=FACE_OUTER_BOUND('',#126,.T.);
#86=FACE_OUTER_BOUND('',#127,.T.);
#87=FACE_OUTER_BOUND('',#128,.T.);
#88=FACE_OUTER_BOUND('',#130,.T.);
#89=EDGE_LOOP('',(#367,#368,#369,#370));
#90=EDGE_LOOP('',(#371,#372,#373,#374));
#91=EDGE_LOOP('',(#375,#376,#377,#378));
#92=EDGE_LOOP('',(#379,#380,#381,#382));
#93=EDGE_LOOP('',(#383,#384,#385,#386));
#94=EDGE_LOOP('',(#387,#388,#389,#390));
#95=EDGE_LOOP('',(#391,#392,#393,#394));
#96=EDGE_LOOP('',(#395,#396,#397,#398));
#97=EDGE_LOOP('',(#399,#400,#401,#402));
#98=EDGE_LOOP('',(#403,#404,#405,#406));
#99=EDGE_LOOP('',(#407,#408,#409,#410));
#100=EDGE_LOOP('',(#411,#412,#413,#414));
#101=EDGE_LOOP('',(#415,#416,#417,#418,#419,#420,#421,#422));
#102=EDGE_LOOP('',(#423,#424,#425,#426));
#103=EDGE_LOOP('',(#427,#428,#429,#430));
#104=EDGE_LOOP('',(#431));
#105=EDGE_LOOP('',(#432,#433,#434,#435));
#106=EDGE_LOOP('',(#436,#437,#438,#439));
#107=EDGE_LOOP('',(#440,#441,#442,#443));
#108=EDGE_LOOP('',(#444));
#109=EDGE_LOOP('',(#445));
#110=EDGE_LOOP('',(#446,#447,#448,#449));
#111=EDGE_LOOP('',(#450,#451,#452,#453));
#112=EDGE_LOOP('',(#454,#455,#456,#457,#458,#459,#460,#461));
#113=EDGE_LOOP('',(#462));
#114=EDGE_LOOP('',(#463));
#115=EDGE_LOOP('',(#464));
#116=EDGE_LOOP('',(#465,#466,#467,#468));
#117=EDGE_LOOP('',(#469,#470,#471,#472));
#118=EDGE_LOOP('',(#473,#474,#475,#476));
#119=EDGE_LOOP('',(#477,#478,#479,#480));
#120=EDGE_LOOP('',(#481,#482,#483,#484));
#121=EDGE_LOOP('',(#485,#486,#487,#488));
#122=EDGE_LOOP('',(#489,#490,#491,#492));
#123=EDGE_LOOP('',(#493));
#124=EDGE_LOOP('',(#494,#495,#496,#497));
#125=EDGE_LOOP('',(#498,#499,#500,#501));
#126=EDGE_LOOP('',(#502,#503,#504,#505));
#127=EDGE_LOOP('',(#506,#507,#508,#509));
#128=EDGE_LOOP('',(#510,#511,#512,#513));
#129=EDGE_LOOP('',(#514));
#130=EDGE_LOOP('',(#515,#516,#517,#518));
#131=LINE('',#808,#187);
#132=LINE('',#810,#188);
#133=LINE('',#812,#189);
#134=LINE('',#813,#190);
#135=LINE('',#818,#191);
#136=LINE('',#823,#192);
#137=LINE('',#824,#193);
#138=LINE('',#825,#194);
#139=LINE('',#830,#195);
#140=LINE('',#835,#196);
#141=LINE('',#836,#197);
#142=LINE('',#837,#198);
#143=LINE('',#842,#199);
#144=LINE('',#847,#200);
#145=LINE('',#848,#201);
#146=LINE('',#849,#202);
#147=LINE('',#855,#203);
#148=LINE('',#858,#204);
#149=LINE('',#861,#205);
#150=LINE('',#862,#206);
#151=LINE('',#865,#207);
#152=LINE('',#869,#208);
#153=LINE('',#870,#209);
#154=LINE('',#874,#210);
#155=LINE('',#876,#211);
#156=LINE('',#878,#212);
#157=LINE('',#879,#213);
#158=LINE('',#882,#214);
#159=LINE('',#884,#215);
#160=LINE('',#886,#216);
#161=LINE('',#887,#217);
#162=LINE('',#894,#218);
#163=LINE('',#900,#219);
#164=LINE('',#904,#220);
#165=LINE('',#911,#221);
#166=LINE('',#914,#222);
#167=LINE('',#917,#223);
#168=LINE('',#918,#224);
#169=LINE('',#920,#225);
#170=LINE('',#926,#226);
#171=LINE('',#929,#227);
#172=LINE('',#931,#228);
#173=LINE('',#932,#229);
#174=LINE('',#935,#230);
#175=LINE('',#936,#231);
#176=LINE('',#939,#232);
#177=LINE('',#940,#233);
#178=LINE('',#942,#234);
#179=LINE('',#946,#235);
#180=LINE('',#948,#236);
#181=LINE('',#949,#237);
#182=LINE('',#952,#238);
#183=LINE('',#953,#239);
#184=LINE('',#956,#240);
#185=LINE('',#957,#241);
#186=LINE('',#959,#242);
#187=VECTOR('',#644,10.);
#188=VECTOR('',#645,10.);
#189=VECTOR('',#646,10.);
#190=VECTOR('',#647,10.);
#191=VECTOR('',#652,10.);
#192=VECTOR('',#657,10.);
#193=VECTOR('',#658,10.);
#194=VECTOR('',#659,10.);
#195=VECTOR('',#664,10.);
#196=VECTOR('',#669,10.);
#197=VECTOR('',#670,10.);
#198=VECTOR('',#671,10.);
#199=VECTOR('',#676,10.);
#200=VECTOR('',#681,10.);
#201=VECTOR('',#682,10.);
#202=VECTOR('',#683,10.);
#203=VECTOR('',#692,10.);
#204=VECTOR('',#695,10.);
#205=VECTOR('',#698,10.);
#206=VECTOR('',#699,10.);
#207=VECTOR('',#702,10.);
#208=VECTOR('',#707,10.);
#209=VECTOR('',#708,10.);
#210=VECTOR('',#711,10.);
#211=VECTOR('',#712,10.);
#212=VECTOR('',#713,10.);
#213=VECTOR('',#714,10.);
#214=VECTOR('',#715,10.);
#215=VECTOR('',#716,10.);
#216=VECTOR('',#717,10.);
#217=VECTOR('',#718,10.);
#218=VECTOR('',#725,1.75);
#219=VECTOR('',#732,2.25);
#220=VECTOR('',#737,4.75);
#221=VECTOR('',#746,10.);
#222=VECTOR('',#749,10.);
#223=VECTOR('',#752,10.);
#224=VECTOR('',#753,10.);
#225=VECTOR('',#756,10.);
#226=VECTOR('',#765,2.6);
#227=VECTOR('',#768,10.);
#228=VECTOR('',#769,10.);
#229=VECTOR('',#770,10.);
#230=VECTOR('',#773,10.);
#231=VECTOR('',#774,10.);
#232=VECTOR('',#777,10.);
#233=VECTOR('',#778,10.);
#234=VECTOR('',#781,10.);
#235=VECTOR('',#786,10.);
#236=VECTOR('',#787,10.);
#237=VECTOR('',#788,10.);
#238=VECTOR('',#791,10.);
#239=VECTOR('',#792,10.);
#240=VECTOR('',#795,10.);
#241=VECTOR('',#796,10.);
#242=VECTOR('',#799,10.);
#243=VERTEX_POINT('',#806);
#244=VERTEX_POINT('',#807);
#245=VERTEX_POINT('',#809);
#246=VERTEX_POINT('',#811);
#247=VERTEX_POINT('',#815);
#248=VERTEX_POINT('',#817);
#249=VERTEX_POINT('',#821);
#250=VERTEX_POINT('',#822);
#251=VERTEX_POINT('',#827);
#252=VERTEX_POINT('',#829);
#253=VERTEX_POINT('',#833);
#254=VERTEX_POINT('',#834);
#255=VERTEX_POINT('',#839);
#256=VERTEX_POINT('',#841);
#257=VERTEX_POINT('',#845);
#258=VERTEX_POINT('',#846);
#259=VERTEX_POINT('',#854);
#260=VERTEX_POINT('',#856);
#261=VERTEX_POINT('',#860);
#262=VERTEX_POINT('',#864);
#263=VERTEX_POINT('',#868);
#264=VERTEX_POINT('',#872);
#265=VERTEX_POINT('',#873);
#266=VERTEX_POINT('',#875);
#267=VERTEX_POINT('',#877);
#268=VERTEX_POINT('',#880);
#269=VERTEX_POINT('',#881);
#270=VERTEX_POINT('',#883);
#271=VERTEX_POINT('',#885);
#272=VERTEX_POINT('',#888);
#273=VERTEX_POINT('',#891);
#274=VERTEX_POINT('',#893);
#275=VERTEX_POINT('',#897);
#276=VERTEX_POINT('',#899);
#277=VERTEX_POINT('',#903);
#278=VERTEX_POINT('',#907);
#279=VERTEX_POINT('',#910);
#280=VERTEX_POINT('',#912);
#281=VERTEX_POINT('',#916);
#282=VERTEX_POINT('',#922);
#283=VERTEX_POINT('',#928);
#284=VERTEX_POINT('',#930);
#285=VERTEX_POINT('',#934);
#286=VERTEX_POINT('',#938);
#287=VERTEX_POINT('',#945);
#288=VERTEX_POINT('',#947);
#289=VERTEX_POINT('',#951);
#290=VERTEX_POINT('',#955);
#291=EDGE_CURVE('',#243,#244,#131,.T.);
#292=EDGE_CURVE('',#244,#245,#132,.T.);
#293=EDGE_CURVE('',#245,#246,#133,.T.);
#294=EDGE_CURVE('',#246,#243,#134,.T.);
#295=EDGE_CURVE('',#243,#247,#32,.T.);
#296=EDGE_CURVE('',#247,#248,#135,.T.);
#297=EDGE_CURVE('',#248,#244,#33,.T.);
#298=EDGE_CURVE('',#249,#250,#136,.T.);
#299=EDGE_CURVE('',#250,#248,#137,.T.);
#300=EDGE_CURVE('',#247,#249,#138,.T.);
#301=EDGE_CURVE('',#249,#251,#34,.T.);
#302=EDGE_CURVE('',#251,#252,#139,.T.);
#303=EDGE_CURVE('',#252,#250,#35,.T.);
#304=EDGE_CURVE('',#253,#254,#140,.T.);
#305=EDGE_CURVE('',#254,#252,#141,.T.);
#306=EDGE_CURVE('',#251,#253,#142,.T.);
#307=EDGE_CURVE('',#253,#255,#36,.T.);
#308=EDGE_CURVE('',#255,#256,#143,.T.);
#309=EDGE_CURVE('',#256,#254,#37,.T.);
#310=EDGE_CURVE('',#257,#258,#144,.T.);
#311=EDGE_CURVE('',#258,#256,#145,.T.);
#312=EDGE_CURVE('',#255,#257,#146,.T.);
#313=EDGE_CURVE('',#257,#246,#38,.T.);
#314=EDGE_CURVE('',#245,#258,#39,.T.);
#315=EDGE_CURVE('',#249,#259,#147,.T.);
#316=EDGE_CURVE('',#259,#260,#40,.T.);
#317=EDGE_CURVE('',#260,#251,#148,.T.);
#318=EDGE_CURVE('',#261,#247,#149,.T.);
#319=EDGE_CURVE('',#261,#259,#150,.T.);
#320=EDGE_CURVE('',#243,#262,#151,.T.);
#321=EDGE_CURVE('',#262,#261,#41,.T.);
#322=EDGE_CURVE('',#263,#246,#152,.T.);
#323=EDGE_CURVE('',#263,#262,#153,.T.);
#324=EDGE_CURVE('',#264,#265,#154,.T.);
#325=EDGE_CURVE('',#265,#266,#155,.T.);
#326=EDGE_CURVE('',#266,#267,#156,.T.);
#327=EDGE_CURVE('',#267,#264,#157,.T.);
#328=EDGE_CURVE('',#268,#269,#158,.T.);
#329=EDGE_CURVE('',#269,#270,#159,.T.);
#330=EDGE_CURVE('',#270,#271,#160,.T.);
#331=EDGE_CURVE('',#271,#268,#161,.T.);
#332=EDGE_CURVE('',#272,#272,#42,.T.);
#333=EDGE_CURVE('',#273,#273,#43,.T.);
#334=EDGE_CURVE('',#273,#274,#162,.T.);
#335=EDGE_CURVE('',#274,#274,#44,.T.);
#336=EDGE_CURVE('',#275,#275,#45,.T.);
#337=EDGE_CURVE('',#275,#276,#163,.T.);
#338=EDGE_CURVE('',#276,#276,#46,.T.);
#339=EDGE_CURVE('',#272,#277,#164,.T.);
#340=EDGE_CURVE('',#277,#277,#47,.T.);
#341=EDGE_CURVE('',#278,#278,#48,.T.);
#342=EDGE_CURVE('',#253,#279,#165,.T.);
#343=EDGE_CURVE('',#279,#280,#49,.T.);
#344=EDGE_CURVE('',#280,#255,#166,.T.);
#345=EDGE_CURVE('',#280,#281,#167,.T.);
#346=EDGE_CURVE('',#257,#281,#168,.T.);
#347=EDGE_CURVE('',#260,#279,#169,.T.);
#348=EDGE_CURVE('',#281,#263,#50,.T.);
#349=EDGE_CURVE('',#282,#282,#51,.T.);
#350=EDGE_CURVE('',#278,#282,#170,.T.);
#351=EDGE_CURVE('',#268,#283,#171,.T.);
#352=EDGE_CURVE('',#283,#284,#172,.T.);
#353=EDGE_CURVE('',#269,#284,#173,.T.);
#354=EDGE_CURVE('',#271,#285,#174,.T.);
#355=EDGE_CURVE('',#285,#283,#175,.T.);
#356=EDGE_CURVE('',#270,#286,#176,.T.);
#357=EDGE_CURVE('',#286,#285,#177,.T.);
#358=EDGE_CURVE('',#284,#286,#178,.T.);
#359=EDGE_CURVE('',#264,#287,#179,.T.);
#360=EDGE_CURVE('',#287,#288,#180,.T.);
#361=EDGE_CURVE('',#265,#288,#181,.T.);
#362=EDGE_CURVE('',#267,#289,#182,.T.);
#363=EDGE_CURVE('',#289,#287,#183,.T.);
#364=EDGE_CURVE('',#266,#290,#184,.T.);
#365=EDGE_CURVE('',#290,#289,#185,.T.);
#366=EDGE_CURVE('',#288,#290,#186,.T.);
#367=ORIENTED_EDGE('',*,*,#291,.T.);
#368=ORIENTED_EDGE('',*,*,#292,.T.);
#369=ORIENTED_EDGE('',*,*,#293,.T.);
#370=ORIENTED_EDGE('',*,*,#294,.T.);
#371=ORIENTED_EDGE('',*,*,#291,.F.);
#372=ORIENTED_EDGE('',*,*,#295,.T.);
#373=ORIENTED_EDGE('',*,*,#296,.T.);
#374=ORIENTED_EDGE('',*,*,#297,.T.);
#375=ORIENTED_EDGE('',*,*,#298,.T.);
#376=ORIENTED_EDGE('',*,*,#299,.T.);
#377=ORIENTED_EDGE('',*,*,#296,.F.);
#378=ORIENTED_EDGE('',*,*,#300,.T.);
#379=ORIENTED_EDGE('',*,*,#298,.F.);
#380=ORIENTED_EDGE('',*,*,#301,.T.);
#381=ORIENTED_EDGE('',*,*,#302,.T.);
#382=ORIENTED_EDGE('',*,*,#303,.T.);
#383=ORIENTED_EDGE('',*,*,#304,.T.);
#384=ORIENTED_EDGE('',*,*,#305,.T.);
#385=ORIENTED_EDGE('',*,*,#302,.F.);
#386=ORIENTED_EDGE('',*,*,#306,.T.);
#387=ORIENTED_EDGE('',*,*,#304,.F.);
#388=ORIENTED_EDGE('',*,*,#307,.T.);
#389=ORIENTED_EDGE('',*,*,#308,.T.);
#390=ORIENTED_EDGE('',*,*,#309,.T.);
#391=ORIENTED_EDGE('',*,*,#310,.T.);
#392=ORIENTED_EDGE('',*,*,#311,.T.);
#393=ORIENTED_EDGE('',*,*,#308,.F.);
#394=ORIENTED_EDGE('',*,*,#312,.T.);
#395=ORIENTED_EDGE('',*,*,#310,.F.);
#396=ORIENTED_EDGE('',*,*,#313,.T.);
#397=ORIENTED_EDGE('',*,*,#293,.F.);
#398=ORIENTED_EDGE('',*,*,#314,.T.);
#399=ORIENTED_EDGE('',*,*,#301,.F.);
#400=ORIENTED_EDGE('',*,*,#315,.T.);
#401=ORIENTED_EDGE('',*,*,#316,.T.);
#402=ORIENTED_EDGE('',*,*,#317,.T.);
#403=ORIENTED_EDGE('',*,*,#300,.F.);
#404=ORIENTED_EDGE('',*,*,#318,.F.);
#405=ORIENTED_EDGE('',*,*,#319,.T.);
#406=ORIENTED_EDGE('',*,*,#315,.F.);
#407=ORIENTED_EDGE('',*,*,#295,.F.);
#408=ORIENTED_EDGE('',*,*,#320,.T.);
#409=ORIENTED_EDGE('',*,*,#321,.T.);
#410=ORIENTED_EDGE('',*,*,#318,.T.);
#411=ORIENTED_EDGE('',*,*,#294,.F.);
#412=ORIENTED_EDGE('',*,*,#322,.F.);
#413=ORIENTED_EDGE('',*,*,#323,.T.);
#414=ORIENTED_EDGE('',*,*,#320,.F.);
#415=ORIENTED_EDGE('',*,*,#292,.F.);
#416=ORIENTED_EDGE('',*,*,#297,.F.);
#417=ORIENTED_EDGE('',*,*,#299,.F.);
#418=ORIENTED_EDGE('',*,*,#303,.F.);
#419=ORIENTED_EDGE('',*,*,#305,.F.);
#420=ORIENTED_EDGE('',*,*,#309,.F.);
#421=ORIENTED_EDGE('',*,*,#311,.F.);
#422=ORIENTED_EDGE('',*,*,#314,.F.);
#423=ORIENTED_EDGE('',*,*,#324,.T.);
#424=ORIENTED_EDGE('',*,*,#325,.T.);
#425=ORIENTED_EDGE('',*,*,#326,.T.);
#426=ORIENTED_EDGE('',*,*,#327,.T.);
#427=ORIENTED_EDGE('',*,*,#328,.T.);
#428=ORIENTED_EDGE('',*,*,#329,.T.);
#429=ORIENTED_EDGE('',*,*,#330,.T.);
#430=ORIENTED_EDGE('',*,*,#331,.T.);
#431=ORIENTED_EDGE('',*,*,#332,.T.);
#432=ORIENTED_EDGE('',*,*,#333,.F.);
#433=ORIENTED_EDGE('',*,*,#334,.T.);
#434=ORIENTED_EDGE('',*,*,#335,.F.);
#435=ORIENTED_EDGE('',*,*,#334,.F.);
#436=ORIENTED_EDGE('',*,*,#336,.F.);
#437=ORIENTED_EDGE('',*,*,#337,.T.);
#438=ORIENTED_EDGE('',*,*,#338,.F.);
#439=ORIENTED_EDGE('',*,*,#337,.F.);
#440=ORIENTED_EDGE('',*,*,#332,.F.);
#441=ORIENTED_EDGE('',*,*,#339,.T.);
#442=ORIENTED_EDGE('',*,*,#340,.T.);
#443=ORIENTED_EDGE('',*,*,#339,.F.);
#444=ORIENTED_EDGE('',*,*,#340,.F.);
#445=ORIENTED_EDGE('',*,*,#341,.F.);
#446=ORIENTED_EDGE('',*,*,#307,.F.);
#447=ORIENTED_EDGE('',*,*,#342,.T.);
#448=ORIENTED_EDGE('',*,*,#343,.T.);
#449=ORIENTED_EDGE('',*,*,#344,.T.);
#450=ORIENTED_EDGE('',*,*,#312,.F.);
#451=ORIENTED_EDGE('',*,*,#344,.F.);
#452=ORIENTED_EDGE('',*,*,#345,.T.);
#453=ORIENTED_EDGE('',*,*,#346,.F.);
#454=ORIENTED_EDGE('',*,*,#343,.F.);
#455=ORIENTED_EDGE('',*,*,#347,.F.);
#456=ORIENTED_EDGE('',*,*,#316,.F.);
#457=ORIENTED_EDGE('',*,*,#319,.F.);
#458=ORIENTED_EDGE('',*,*,#321,.F.);
#459=ORIENTED_EDGE('',*,*,#323,.F.);
#460=ORIENTED_EDGE('',*,*,#348,.F.);
#461=ORIENTED_EDGE('',*,*,#345,.F.);
#462=ORIENTED_EDGE('',*,*,#335,.T.);
#463=ORIENTED_EDGE('',*,*,#338,.T.);
#464=ORIENTED_EDGE('',*,*,#349,.T.);
#465=ORIENTED_EDGE('',*,*,#313,.F.);
#466=ORIENTED_EDGE('',*,*,#346,.T.);
#467=ORIENTED_EDGE('',*,*,#348,.T.);
#468=ORIENTED_EDGE('',*,*,#322,.T.);
#469=ORIENTED_EDGE('',*,*,#341,.T.);
#470=ORIENTED_EDGE('',*,*,#350,.T.);
#471=ORIENTED_EDGE('',*,*,#349,.F.);
#472=ORIENTED_EDGE('',*,*,#350,.F.);
#473=ORIENTED_EDGE('',*,*,#328,.F.);
#474=ORIENTED_EDGE('',*,*,#351,.T.);
#475=ORIENTED_EDGE('',*,*,#352,.T.);
#476=ORIENTED_EDGE('',*,*,#353,.F.);
#477=ORIENTED_EDGE('',*,*,#331,.F.);
#478=ORIENTED_EDGE('',*,*,#354,.T.);
#479=ORIENTED_EDGE('',*,*,#355,.T.);
#480=ORIENTED_EDGE('',*,*,#351,.F.);
#481=ORIENTED_EDGE('',*,*,#330,.F.);
#482=ORIENTED_EDGE('',*,*,#356,.T.);
#483=ORIENTED_EDGE('',*,*,#357,.T.);
#484=ORIENTED_EDGE('',*,*,#354,.F.);
#485=ORIENTED_EDGE('',*,*,#329,.F.);
#486=ORIENTED_EDGE('',*,*,#353,.T.);
#487=ORIENTED_EDGE('',*,*,#358,.T.);
#488=ORIENTED_EDGE('',*,*,#356,.F.);
#489=ORIENTED_EDGE('',*,*,#358,.F.);
#490=ORIENTED_EDGE('',*,*,#352,.F.);
#491=ORIENTED_EDGE('',*,*,#355,.F.);
#492=ORIENTED_EDGE('',*,*,#357,.F.);
#493=ORIENTED_EDGE('',*,*,#333,.T.);
#494=ORIENTED_EDGE('',*,*,#324,.F.);
#495=ORIENTED_EDGE('',*,*,#359,.T.);
#496=ORIENTED_EDGE('',*,*,#360,.T.);
#497=ORIENTED_EDGE('',*,*,#361,.F.);
#498=ORIENTED_EDGE('',*,*,#327,.F.);
#499=ORIENTED_EDGE('',*,*,#362,.T.);
#500=ORIENTED_EDGE('',*,*,#363,.T.);
#501=ORIENTED_EDGE('',*,*,#359,.F.);
#502=ORIENTED_EDGE('',*,*,#326,.F.);
#503=ORIENTED_EDGE('',*,*,#364,.T.);
#504=ORIENTED_EDGE('',*,*,#365,.T.);
#505=ORIENTED_EDGE('',*,*,#362,.F.);
#506=ORIENTED_EDGE('',*,*,#325,.F.);
#507=ORIENTED_EDGE('',*,*,#361,.T.);
#508=ORIENTED_EDGE('',*,*,#366,.T.);
#509=ORIENTED_EDGE('',*,*,#364,.F.);
#510=ORIENTED_EDGE('',*,*,#366,.F.);
#511=ORIENTED_EDGE('',*,*,#360,.F.);
#512=ORIENTED_EDGE('',*,*,#363,.F.);
#513=ORIENTED_EDGE('',*,*,#365,.F.);
#514=ORIENTED_EDGE('',*,*,#336,.T.);
#515=ORIENTED_EDGE('',*,*,#306,.F.);
#516=ORIENTED_EDGE('',*,*,#317,.F.);
#517=ORIENTED_EDGE('',*,*,#347,.T.);
#518=ORIENTED_EDGE('',*,*,#342,.F.);
#519=PLANE('',#587);
#520=PLANE('',#591);
#521=PLANE('',#595);
#522=PLANE('',#599);
#523=PLANE('',#605);
#524=PLANE('',#608);
#525=PLANE('',#609);
#526=PLANE('',#619);
#527=PLANE('',#623);
#528=PLANE('',#624);
#529=PLANE('',#629);
#530=PLANE('',#630);
#531=PLANE('',#631);
#532=PLANE('',#632);
#533=PLANE('',#633);
#534=PLANE('',#634);
#535=PLANE('',#635);
#536=PLANE('',#636);
#537=PLANE('',#637);
#538=PLANE('',#638);
#539=PLANE('',#639);
#540=ADVANCED_FACE('',(#56),#519,.T.);
#541=ADVANCED_FACE('',(#57),#52,.T.);
#542=ADVANCED_FACE('',(#58),#520,.T.);
#543=ADVANCED_FACE('',(#59),#53,.T.);
#544=ADVANCED_FACE('',(#60),#521,.T.);
#545=ADVANCED_FACE('',(#61),#54,.T.);
#546=ADVANCED_FACE('',(#62),#522,.T.);
#547=ADVANCED_FACE('',(#63),#55,.T.);
#548=ADVANCED_FACE('',(#64),#24,.T.);
#549=ADVANCED_FACE('',(#65),#523,.T.);
#550=ADVANCED_FACE('',(#66),#25,.T.);
#551=ADVANCED_FACE('',(#67),#524,.T.);
#552=ADVANCED_FACE('',(#68,#15,#16,#17),#525,.T.);
#553=ADVANCED_FACE('',(#69),#26,.F.);
#554=ADVANCED_FACE('',(#70),#27,.F.);
#555=ADVANCED_FACE('',(#71),#28,.F.);
#556=ADVANCED_FACE('',(#72,#18),#526,.T.);
#557=ADVANCED_FACE('',(#73),#29,.T.);
#558=ADVANCED_FACE('',(#74),#527,.T.);
#559=ADVANCED_FACE('',(#75,#19,#20,#21),#528,.F.);
#560=ADVANCED_FACE('',(#76),#30,.T.);
#561=ADVANCED_FACE('',(#77),#31,.F.);
#562=ADVANCED_FACE('',(#78),#529,.F.);
#563=ADVANCED_FACE('',(#79),#530,.F.);
#564=ADVANCED_FACE('',(#80),#531,.F.);
#565=ADVANCED_FACE('',(#81),#532,.F.);
#566=ADVANCED_FACE('',(#82,#22),#533,.F.);
#567=ADVANCED_FACE('',(#83),#534,.F.);
#568=ADVANCED_FACE('',(#84),#535,.F.);
#569=ADVANCED_FACE('',(#85),#536,.F.);
#570=ADVANCED_FACE('',(#86),#537,.F.);
#571=ADVANCED_FACE('',(#87,#23),#538,.F.);
#572=ADVANCED_FACE('',(#88),#539,.T.);
#573=CLOSED_SHELL('',(#540,#541,#542,#543,#544,#545,#546,#547,#548,#549,
#550,#551,#552,#553,#554,#555,#556,#557,#558,#559,#560,#561,#562,#563,#564,
#565,#566,#567,#568,#569,#570,#571,#572));
#574=DERIVED_UNIT_ELEMENT(#576,1.);
#575=DERIVED_UNIT_ELEMENT(#967,-3.);
#576=(
MASS_UNIT()
NAMED_UNIT(*)
SI_UNIT(.KILO.,.GRAM.)
);
#577=DERIVED_UNIT((#574,#575));
#578=MEASURE_REPRESENTATION_ITEM('density measure',
POSITIVE_RATIO_MEASURE(7850.),#577);
#579=PROPERTY_DEFINITION_REPRESENTATION(#584,#581);
#580=PROPERTY_DEFINITION_REPRESENTATION(#585,#582);
#581=REPRESENTATION('material name',(#583),#964);
#582=REPRESENTATION('density',(#578),#964);
#583=DESCRIPTIVE_REPRESENTATION_ITEM('Steel','Steel');
#584=PROPERTY_DEFINITION('material property','material name',#974);
#585=PROPERTY_DEFINITION('material property','density of part',#974);
#586=AXIS2_PLACEMENT_3D('',#804,#640,#641);
#587=AXIS2_PLACEMENT_3D('',#805,#642,#643);
#588=AXIS2_PLACEMENT_3D('',#814,#648,#649);
#589=AXIS2_PLACEMENT_3D('',#816,#650,#651);
#590=AXIS2_PLACEMENT_3D('',#819,#653,#654);
#591=AXIS2_PLACEMENT_3D('',#820,#655,#656);
#592=AXIS2_PLACEMENT_3D('',#826,#660,#661);
#593=AXIS2_PLACEMENT_3D('',#828,#662,#663);
#594=AXIS2_PLACEMENT_3D('',#831,#665,#666);
#595=AXIS2_PLACEMENT_3D('',#832,#667,#668);
#596=AXIS2_PLACEMENT_3D('',#838,#672,#673);
#597=AXIS2_PLACEMENT_3D('',#840,#674,#675);
#598=AXIS2_PLACEMENT_3D('',#843,#677,#678);
#599=AXIS2_PLACEMENT_3D('',#844,#679,#680);
#600=AXIS2_PLACEMENT_3D('',#850,#684,#685);
#601=AXIS2_PLACEMENT_3D('',#851,#686,#687);
#602=AXIS2_PLACEMENT_3D('',#852,#688,#689);
#603=AXIS2_PLACEMENT_3D('',#853,#690,#691);
#604=AXIS2_PLACEMENT_3D('',#857,#693,#694);
#605=AXIS2_PLACEMENT_3D('',#859,#696,#697);
#606=AXIS2_PLACEMENT_3D('',#863,#700,#701);
#607=AXIS2_PLACEMENT_3D('',#866,#703,#704);
#608=AXIS2_PLACEMENT_3D('',#867,#705,#706);
#609=AXIS2_PLACEMENT_3D('',#871,#709,#710);
#610=AXIS2_PLACEMENT_3D('',#889,#719,#720);
#611=AXIS2_PLACEMENT_3D('',#890,#721,#722);
#612=AXIS2_PLACEMENT_3D('',#892,#723,#724);
#613=AXIS2_PLACEMENT_3D('',#895,#726,#727);
#614=AXIS2_PLACEMENT_3D('',#896,#728,#729);
#615=AXIS2_PLACEMENT_3D('',#898,#730,#731);
#616=AXIS2_PLACEMENT_3D('',#901,#733,#734);
#617=AXIS2_PLACEMENT_3D('',#902,#735,#736);
#618=AXIS2_PLACEMENT_3D('',#905,#738,#739);
#619=AXIS2_PLACEMENT_3D('',#906,#740,#741);
#620=AXIS2_PLACEMENT_3D('',#908,#742,#743);
#621=AXIS2_PLACEMENT_3D('',#909,#744,#745);
#622=AXIS2_PLACEMENT_3D('',#913,#747,#748);
#623=AXIS2_PLACEMENT_3D('',#915,#750,#751);
#624=AXIS2_PLACEMENT_3D('',#919,#754,#755);
#625=AXIS2_PLACEMENT_3D('',#921,#757,#758);
#626=AXIS2_PLACEMENT_3D('',#923,#759,#760);
#627=AXIS2_PLACEMENT_3D('',#924,#761,#762);
#628=AXIS2_PLACEMENT_3D('',#925,#763,#764);
#629=AXIS2_PLACEMENT_3D('',#927,#766,#767);
#630=AXIS2_PLACEMENT_3D('',#933,#771,#772);
#631=AXIS2_PLACEMENT_3D('',#937,#775,#776);
#632=AXIS2_PLACEMENT_3D('',#941,#779,#780);
#633=AXIS2_PLACEMENT_3D('',#943,#782,#783);
#634=AXIS2_PLACEMENT_3D('',#944,#784,#785);
#635=AXIS2_PLACEMENT_3D('',#950,#789,#790);
#636=AXIS2_PLACEMENT_3D('',#954,#793,#794);
#637=AXIS2_PLACEMENT_3D('',#958,#797,#798);
#638=AXIS2_PLACEMENT_3D('',#960,#800,#801);
#639=AXIS2_PLACEMENT_3D('',#961,#802,#803);
#640=DIRECTION('axis',(0.,0.,1.));
#641=DIRECTION('refdir',(1.,0.,0.));
#642=DIRECTION('center_axis',(-2.18068397039413E-17,0.707106781186548,0.707106781186548));
#643=DIRECTION('ref_axis',(1.,0.,3.08395284618099E-17));
#644=DIRECTION('',(0.,0.707106781186547,-0.707106781186547));
#645=DIRECTION('',(-1.,0.,-3.08395284618099E-17));
#646=DIRECTION('',(0.,-0.707106781186547,0.707106781186547));
#647=DIRECTION('',(1.,0.,3.08395284618099E-17));
#648=DIRECTION('center_axis',(0.,-1.,0.));
#649=DIRECTION('ref_axis',(0.707106781186547,0.,0.707106781186548));
#650=DIRECTION('center_axis',(0.,1.,0.));
#651=DIRECTION('ref_axis',(0.707106781186547,0.,0.707106781186548));
#652=DIRECTION('',(-0.707106781186548,0.707106781186547,-7.85046229341887E-16));
#653=DIRECTION('center_axis',(0.,-1.,0.));
#654=DIRECTION('ref_axis',(0.707106781186547,0.,0.707106781186548));
#655=DIRECTION('center_axis',(0.707106781186547,0.707106781186548,1.8471675984515E-16));
#656=DIRECTION('ref_axis',(2.61228946970625E-16,0.,-1.));
#657=DIRECTION('',(-0.707106781186548,0.707106781186547,0.));
#658=DIRECTION('',(-2.61228946970625E-16,0.,1.));
#659=DIRECTION('',(2.61228946970625E-16,0.,-1.));
#660=DIRECTION('center_axis',(0.,-1.,0.));
#661=DIRECTION('ref_axis',(0.707106781186548,0.,-0.707106781186548));
#662=DIRECTION('center_axis',(0.,1.,0.));
#663=DIRECTION('ref_axis',(0.707106781186547,0.,-0.707106781186547));
#664=DIRECTION('',(0.,0.707106781186547,0.707106781186548));
#665=DIRECTION('center_axis',(0.,-1.,0.));
#666=DIRECTION('ref_axis',(0.707106781186548,0.,-0.707106781186548));
#667=DIRECTION('center_axis',(2.18068397039413E-17,0.707106781186547,-0.707106781186548));
#668=DIRECTION('ref_axis',(-1.,0.,-3.08395284618099E-17));
#669=DIRECTION('',(0.,0.707106781186548,0.707106781186547));
#670=DIRECTION('',(1.,0.,3.08395284618099E-17));
#671=DIRECTION('',(-1.,0.,-3.08395284618099E-17));
#672=DIRECTION('center_axis',(0.,-1.,0.));
#673=DIRECTION('ref_axis',(-0.707106781186547,0.,-0.707106781186548));
#674=DIRECTION('center_axis',(0.,1.,0.));
#675=DIRECTION('ref_axis',(-0.707106781186547,0.,-0.707106781186548));
#676=DIRECTION('',(0.707106781186547,0.707106781186548,7.85046229341888E-16));
#677=DIRECTION('center_axis',(0.,-1.,0.));
#678=DIRECTION('ref_axis',(-0.707106781186547,0.,-0.707106781186548));
#679=DIRECTION('center_axis',(-0.707106781186547,0.707106781186548,-7.388670393806E-16));
#680=DIRECTION('ref_axis',(-1.0449157878825E-15,0.,1.));
#681=DIRECTION('',(0.707106781186548,0.707106781186547,7.85046229341887E-16));
#682=DIRECTION('',(1.0449157878825E-15,0.,-1.));
#683=DIRECTION('',(-1.0449157878825E-15,0.,1.));
#684=DIRECTION('center_axis',(0.,-1.,0.));
#685=DIRECTION('ref_axis',(-0.707106781186548,0.,0.707106781186547));
#686=DIRECTION('center_axis',(0.,1.,0.));
#687=DIRECTION('ref_axis',(-0.707106781186548,0.,0.707106781186547));
#688=DIRECTION('center_axis',(0.,-1.,0.));
#689=DIRECTION('ref_axis',(-0.707106781186548,0.,0.707106781186547));
#690=DIRECTION('center_axis',(0.,1.,0.));
#691=DIRECTION('ref_axis',(0.707106781186547,0.,-0.707106781186547));
#692=DIRECTION('',(0.,-1.,0.));
#693=DIRECTION('center_axis',(0.,1.,0.));
#694=DIRECTION('ref_axis',(0.707106781186547,0.,-0.707106781186547));
#695=DIRECTION('',(0.,1.,0.));
#696=DIRECTION('center_axis',(1.,0.,2.61228946970625E-16));
#697=DIRECTION('ref_axis',(2.61228946970625E-16,0.,-1.));
#698=DIRECTION('',(0.,1.,0.));
#699=DIRECTION('',(2.61228946970625E-16,0.,-1.));
#700=DIRECTION('center_axis',(0.,1.,0.));
#701=DIRECTION('ref_axis',(0.707106781186547,0.,0.707106781186548));
#702=DIRECTION('',(0.,-1.,0.));
#703=DIRECTION('center_axis',(0.,1.,0.));
#704=DIRECTION('ref_axis',(0.707106781186547,0.,0.707106781186548));
#705=DIRECTION('center_axis',(-3.08395284618099E-17,0.,1.));
#706=DIRECTION('ref_axis',(1.,0.,3.08395284618099E-17));
#707=DIRECTION('',(0.,1.,0.));
#708=DIRECTION('',(1.,0.,3.08395284618099E-17));
#709=DIRECTION('center_axis',(0.,1.,0.));
#710=DIRECTION('ref_axis',(0.,0.,1.));
#711=DIRECTION('',(-1.,0.,-3.96508223080413E-16));
#712=DIRECTION('',(0.,0.,-1.));
#713=DIRECTION('',(1.,0.,-2.9738116731031E-16));
#714=DIRECTION('',(-9.91270557701033E-17,0.,1.));
#715=DIRECTION('',(0.,0.,-1.));
#716=DIRECTION('',(1.,0.,9.03669903764663E-16));
#717=DIRECTION('',(0.,0.,1.));
#718=DIRECTION('',(-1.,0.,2.58191401075618E-16));
#719=DIRECTION('center_axis',(0.,-1.,0.));
#720=DIRECTION('ref_axis',(-1.,0.,0.));
#721=DIRECTION('center_axis',(0.,-1.,0.));
#722=DIRECTION('ref_axis',(-1.,0.,0.));
#723=DIRECTION('center_axis',(0.,-1.,0.));
#724=DIRECTION('ref_axis',(-1.,0.,0.));
#725=DIRECTION('',(0.,-1.,0.));
#726=DIRECTION('center_axis',(0.,1.,0.));
#727=DIRECTION('ref_axis',(-1.,0.,0.));
#728=DIRECTION('center_axis',(0.,-1.,0.));
#729=DIRECTION('ref_axis',(-1.,0.,0.));
#730=DIRECTION('center_axis',(0.,-1.,0.));
#731=DIRECTION('ref_axis',(-1.,0.,0.));
#732=DIRECTION('',(0.,-1.,0.));
#733=DIRECTION('center_axis',(0.,1.,0.));
#734=DIRECTION('ref_axis',(-1.,0.,0.));
#735=DIRECTION('center_axis',(0.,-1.,0.));
#736=DIRECTION('ref_axis',(-1.,0.,0.));
#737=DIRECTION('',(0.,-1.,0.));
#738=DIRECTION('center_axis',(0.,-1.,0.));
#739=DIRECTION('ref_axis',(-1.,0.,0.));
#740=DIRECTION('center_axis',(0.,1.,0.));
#741=DIRECTION('ref_axis',(-1.,0.,0.));
#742=DIRECTION('center_axis',(0.,1.,0.));
#743=DIRECTION('ref_axis',(-1.,0.,0.));
#744=DIRECTION('center_axis',(0.,1.,0.));
#745=DIRECTION('ref_axis',(-0.707106781186547,0.,-0.707106781186548));
#746=DIRECTION('',(0.,-1.,0.));
#747=DIRECTION('center_axis',(0.,1.,0.));
#748=DIRECTION('ref_axis',(-0.707106781186547,0.,-0.707106781186548));
#749=DIRECTION('',(0.,1.,0.));
#750=DIRECTION('center_axis',(-1.,0.,-1.0449157878825E-15));
#751=DIRECTION('ref_axis',(-1.0449157878825E-15,0.,1.));
#752=DIRECTION('',(-1.0449157878825E-15,0.,1.));
#753=DIRECTION('',(0.,-1.,0.));
#754=DIRECTION('center_axis',(0.,1.,0.));
#755=DIRECTION('ref_axis',(1.,0.,0.));
#756=DIRECTION('',(-1.,0.,-3.08395284618099E-17));
#757=DIRECTION('center_axis',(0.,1.,0.));
#758=DIRECTION('ref_axis',(-0.707106781186548,0.,0.707106781186547));
#759=DIRECTION('center_axis',(0.,1.,0.));
#760=DIRECTION('ref_axis',(-1.,0.,0.));
#761=DIRECTION('center_axis',(0.,1.,0.));
#762=DIRECTION('ref_axis',(-0.707106781186548,0.,0.707106781186547));
#763=DIRECTION('center_axis',(0.,-1.,0.));
#764=DIRECTION('ref_axis',(-1.,0.,0.));
#765=DIRECTION('',(0.,-1.,0.));
#766=DIRECTION('center_axis',(-1.,0.,0.));
#767=DIRECTION('ref_axis',(0.,0.,-1.));
#768=DIRECTION('',(0.,-1.,0.));
#769=DIRECTION('',(0.,0.,-1.));
#770=DIRECTION('',(0.,-1.,0.));
#771=DIRECTION('center_axis',(2.58191401075618E-16,0.,1.));
#772=DIRECTION('ref_axis',(-1.,0.,2.58191401075618E-16));
#773=DIRECTION('',(0.,-1.,0.));
#774=DIRECTION('',(-1.,0.,2.58191401075618E-16));
#775=DIRECTION('center_axis',(1.,0.,0.));
#776=DIRECTION('ref_axis',(0.,0.,1.));
#777=DIRECTION('',(0.,-1.,0.));
#778=DIRECTION('',(0.,0.,1.));
#779=DIRECTION('center_axis',(9.03669903764663E-16,0.,-1.));
#780=DIRECTION('ref_axis',(1.,0.,9.03669903764663E-16));
#781=DIRECTION('',(1.,0.,9.03669903764663E-16));
#782=DIRECTION('center_axis',(0.,-1.,0.));
#783=DIRECTION('ref_axis',(0.,0.,-1.));
#784=DIRECTION('center_axis',(-3.96508223080413E-16,0.,1.));
#785=DIRECTION('ref_axis',(-1.,0.,-3.96508223080413E-16));
#786=DIRECTION('',(0.,-1.,0.));
#787=DIRECTION('',(-1.,0.,-3.96508223080413E-16));
#788=DIRECTION('',(0.,-1.,0.));
#789=DIRECTION('center_axis',(1.,0.,9.91270557701033E-17));
#790=DIRECTION('ref_axis',(-9.91270557701033E-17,0.,1.));
#791=DIRECTION('',(0.,-1.,0.));
#792=DIRECTION('',(-9.91270557701033E-17,0.,1.));
#793=DIRECTION('center_axis',(-2.9738116731031E-16,0.,-1.));
#794=DIRECTION('ref_axis',(1.,0.,-2.9738116731031E-16));
#795=DIRECTION('',(0.,-1.,0.));
#796=DIRECTION('',(1.,0.,-2.9738116731031E-16));
#797=DIRECTION('center_axis',(-1.,0.,0.));
#798=DIRECTION('ref_axis',(0.,0.,-1.));
#799=DIRECTION('',(0.,0.,-1.));
#800=DIRECTION('center_axis',(0.,-1.,0.));
#801=DIRECTION('ref_axis',(0.,0.,-1.));
#802=DIRECTION('center_axis',(3.08395284618099E-17,0.,-1.));
#803=DIRECTION('ref_axis',(-1.,0.,-3.08395284618099E-17));
#804=CARTESIAN_POINT('',(0.,0.,0.));
#805=CARTESIAN_POINT('Origin',(-9.,7.3,8.));
#806=CARTESIAN_POINT('',(15.,6.8,8.5));
#807=CARTESIAN_POINT('',(15.,7.8,7.5));
#808=CARTESIAN_POINT('',(15.,6.8,8.5));
#809=CARTESIAN_POINT('',(-15.,7.8,7.5));
#810=CARTESIAN_POINT('',(-9.,7.8,7.5));
#811=CARTESIAN_POINT('',(-15.,6.8,8.5));
#812=CARTESIAN_POINT('',(-15.,7.8,7.5));
#813=CARTESIAN_POINT('',(-9.,6.8,8.5));
#814=CARTESIAN_POINT('Origin',(15.,7.3,5.5));
#815=CARTESIAN_POINT('',(18.,6.8,5.5));
#816=CARTESIAN_POINT('Origin',(15.,6.8,5.5));
#817=CARTESIAN_POINT('',(17.,7.8,5.5));
#818=CARTESIAN_POINT('',(18.,6.8,5.5));
#819=CARTESIAN_POINT('Origin',(15.,7.8,5.5));
#820=CARTESIAN_POINT('Origin',(17.5,7.3,4.25000000000001));
#821=CARTESIAN_POINT('',(18.,6.8,-5.5));
#822=CARTESIAN_POINT('',(17.,7.8,-5.5));
#823=CARTESIAN_POINT('',(18.,6.8,-5.5));
#824=CARTESIAN_POINT('',(17.,7.8,4.25000000000001));
#825=CARTESIAN_POINT('',(18.,6.8,4.25000000000001));
#826=CARTESIAN_POINT('Origin',(15.,7.3,-5.5));
#827=CARTESIAN_POINT('',(15.,6.8,-8.5));
#828=CARTESIAN_POINT('Origin',(15.,6.8,-5.5));
#829=CARTESIAN_POINT('',(15.,7.8,-7.5));
#830=CARTESIAN_POINT('',(15.,6.8,-8.5));
#831=CARTESIAN_POINT('Origin',(15.,7.8,-5.5));
#832=CARTESIAN_POINT('Origin',(9.,7.3,-8.));
#833=CARTESIAN_POINT('',(-15.,6.8,-8.5));
#834=CARTESIAN_POINT('',(-15.,7.8,-7.5));
#835=CARTESIAN_POINT('',(-15.,6.8,-8.5));
#836=CARTESIAN_POINT('',(9.,7.8,-7.5));
#837=CARTESIAN_POINT('',(9.,6.8,-8.5));
#838=CARTESIAN_POINT('Origin',(-15.,7.3,-5.5));
#839=CARTESIAN_POINT('',(-18.,6.8,-5.5));
#840=CARTESIAN_POINT('Origin',(-15.,6.8,-5.5));
#841=CARTESIAN_POINT('',(-17.,7.8,-5.5));
#842=CARTESIAN_POINT('',(-18.,6.8,-5.5));
#843=CARTESIAN_POINT('Origin',(-15.,7.8,-5.5));
#844=CARTESIAN_POINT('Origin',(-17.5,7.3,-4.25000000000001));
#845=CARTESIAN_POINT('',(-18.,6.8,5.5));
#846=CARTESIAN_POINT('',(-17.,7.8,5.5));
#847=CARTESIAN_POINT('',(-18.,6.8,5.5));
#848=CARTESIAN_POINT('',(-17.,7.8,-4.25000000000001));
#849=CARTESIAN_POINT('',(-18.,6.8,-4.25000000000001));
#850=CARTESIAN_POINT('Origin',(-15.,7.3,5.5));
#851=CARTESIAN_POINT('Origin',(-15.,6.8,5.5));
#852=CARTESIAN_POINT('Origin',(-15.,7.8,5.5));
#853=CARTESIAN_POINT('Origin',(15.,0.,-5.5));
#854=CARTESIAN_POINT('',(18.,0.,-5.5));
#855=CARTESIAN_POINT('',(18.,0.,-5.5));
#856=CARTESIAN_POINT('',(15.,0.,-8.5));
#857=CARTESIAN_POINT('Origin',(15.,0.,-5.5));
#858=CARTESIAN_POINT('',(15.,0.,-8.5));
#859=CARTESIAN_POINT('Origin',(18.,0.,8.5));
#860=CARTESIAN_POINT('',(18.,0.,5.5));
#861=CARTESIAN_POINT('',(18.,0.,5.5));
#862=CARTESIAN_POINT('',(18.,0.,8.5));
#863=CARTESIAN_POINT('Origin',(15.,0.,5.5));
#864=CARTESIAN_POINT('',(15.,0.,8.5));
#865=CARTESIAN_POINT('',(15.,0.,8.5));
#866=CARTESIAN_POINT('Origin',(15.,0.,5.5));
#867=CARTESIAN_POINT('Origin',(-18.,0.,8.5));
#868=CARTESIAN_POINT('',(-15.,0.,8.5));
#869=CARTESIAN_POINT('',(-15.,0.,8.5));
#870=CARTESIAN_POINT('',(-18.,0.,8.5));
#871=CARTESIAN_POINT('Origin',(-2.22044604925031E-15,7.8,2.22044604925031E-15));
#872=CARTESIAN_POINT('',(0.80000000000069,7.8,2.79999999999987));
#873=CARTESIAN_POINT('',(-4.79999999999931,7.8,2.79999999999987));
#874=CARTESIAN_POINT('',(0.400000000000344,7.8,2.79999999999987));
#875=CARTESIAN_POINT('',(-4.79999999999931,7.8,-2.80000000000013));
#876=CARTESIAN_POINT('',(-4.79999999999931,7.8,1.39999999999993));
#877=CARTESIAN_POINT('',(0.800000000000691,7.8,-2.80000000000013));
#878=CARTESIAN_POINT('',(-2.39999999999966,7.8,-2.80000000000013));
#879=CARTESIAN_POINT('',(0.800000000000691,7.8,-1.40000000000006));
#880=CARTESIAN_POINT('',(-13.1499999999993,7.8,2.14999999999987));
#881=CARTESIAN_POINT('',(-13.1499999999993,7.8,-2.15000000000013));
#882=CARTESIAN_POINT('',(-13.1499999999993,7.8,1.07499999999993));
#883=CARTESIAN_POINT('',(-8.84999999999931,7.8,-2.15000000000013));
#884=CARTESIAN_POINT('',(-6.57499999999966,7.8,-2.15000000000013));
#885=CARTESIAN_POINT('',(-8.84999999999931,7.8,2.14999999999987));
#886=CARTESIAN_POINT('',(-8.84999999999931,7.8,-1.07500000000006));
#887=CARTESIAN_POINT('',(-4.42499999999966,7.8,2.14999999999986));
#888=CARTESIAN_POINT('',(13.7500000000007,7.8,-1.32698247159989E-13));
#889=CARTESIAN_POINT('Origin',(9.00000000000069,7.8,-1.32116539930394E-13));
#890=CARTESIAN_POINT('Origin',(-10.9999999999993,7.8,-1.32116539930394E-13));
#891=CARTESIAN_POINT('',(-9.24999999999931,6.5,-1.31902226740543E-13));
#892=CARTESIAN_POINT('Origin',(-10.9999999999993,6.5,-1.32116539930394E-13));
#893=CARTESIAN_POINT('',(-9.24999999999931,0.,-1.32330853120244E-13));
#894=CARTESIAN_POINT('',(-9.24999999999931,7.8,-1.31902226740543E-13));
#895=CARTESIAN_POINT('Origin',(-10.9999999999993,0.,-1.32116539930394E-13));
#896=CARTESIAN_POINT('Origin',(-1.99999999999931,7.8,-1.3184675573541E-13));
#897=CARTESIAN_POINT('',(0.25000000000069,5.9,-1.31571210205602E-13));
#898=CARTESIAN_POINT('Origin',(-1.99999999999931,5.9,-1.3184675573541E-13));
#899=CARTESIAN_POINT('',(0.25000000000069,0.,-1.32122301265218E-13));
#900=CARTESIAN_POINT('',(0.25000000000069,7.8,-1.31571210205602E-13));
#901=CARTESIAN_POINT('Origin',(-1.99999999999931,0.,-1.3184675573541E-13));
#902=CARTESIAN_POINT('Origin',(9.00000000000069,7.8,-1.32116539930394E-13));
#903=CARTESIAN_POINT('',(13.7500000000007,6.2,-1.32698247159989E-13));
#904=CARTESIAN_POINT('',(13.7500000000007,7.8,-1.31534832700799E-13));
#905=CARTESIAN_POINT('Origin',(9.00000000000069,6.2,-1.32116539930394E-13));
#906=CARTESIAN_POINT('Origin',(9.00000000000069,6.2,-1.32116539930394E-13));
#907=CARTESIAN_POINT('',(11.6000000000007,6.2,-1.32434948098172E-13));
#908=CARTESIAN_POINT('Origin',(9.00000000000069,6.2,-1.32116539930394E-13));
#909=CARTESIAN_POINT('Origin',(-15.,0.,-5.5));
#910=CARTESIAN_POINT('',(-15.,0.,-8.5));
#911=CARTESIAN_POINT('',(-15.,0.,-8.5));
#912=CARTESIAN_POINT('',(-18.,0.,-5.5));
#913=CARTESIAN_POINT('Origin',(-15.,0.,-5.5));
#914=CARTESIAN_POINT('',(-18.,0.,-5.5));
#915=CARTESIAN_POINT('Origin',(-18.,0.,-8.5));
#916=CARTESIAN_POINT('',(-18.,0.,5.5));
#917=CARTESIAN_POINT('',(-18.,0.,-8.5));
#918=CARTESIAN_POINT('',(-18.,0.,5.5));
#919=CARTESIAN_POINT('Origin',(-2.22044604925031E-15,0.,2.22044604925031E-15));
#920=CARTESIAN_POINT('',(18.,0.,-8.5));
#921=CARTESIAN_POINT('Origin',(-15.,0.,5.5));
#922=CARTESIAN_POINT('',(11.6000000000007,0.,-1.32434948098172E-13));
#923=CARTESIAN_POINT('Origin',(9.00000000000069,0.,-1.32116539930394E-13));
#924=CARTESIAN_POINT('Origin',(-15.,0.,5.5));
#925=CARTESIAN_POINT('Origin',(9.00000000000069,7.8,-1.32116539930394E-13));
#926=CARTESIAN_POINT('',(11.6000000000007,7.8,-1.31798131762615E-13));
#927=CARTESIAN_POINT('Origin',(-13.1499999999993,7.8,2.14999999999987));
#928=CARTESIAN_POINT('',(-13.1499999999993,6.5,2.14999999999987));
#929=CARTESIAN_POINT('',(-13.1499999999993,7.8,2.14999999999987));
#930=CARTESIAN_POINT('',(-13.1499999999993,6.5,-2.15000000000013));
#931=CARTESIAN_POINT('',(-13.1499999999993,6.5,2.14999999999987));
#932=CARTESIAN_POINT('',(-13.1499999999993,7.8,-2.15000000000013));
#933=CARTESIAN_POINT('Origin',(-8.84999999999931,7.8,2.14999999999986));
#934=CARTESIAN_POINT('',(-8.84999999999931,6.5,2.14999999999987));
#935=CARTESIAN_POINT('',(-8.84999999999931,7.8,2.14999999999987));
#936=CARTESIAN_POINT('',(-8.84999999999931,6.5,2.14999999999986));
#937=CARTESIAN_POINT('Origin',(-8.84999999999931,7.8,-2.15000000000013));
#938=CARTESIAN_POINT('',(-8.84999999999931,6.5,-2.15000000000013));
#939=CARTESIAN_POINT('',(-8.84999999999931,7.8,-2.15000000000013));
#940=CARTESIAN_POINT('',(-8.84999999999931,6.5,-2.15000000000013));
#941=CARTESIAN_POINT('Origin',(-13.1499999999993,7.8,-2.15000000000013));
#942=CARTESIAN_POINT('',(-13.1499999999993,6.5,-2.15000000000013));
#943=CARTESIAN_POINT('Origin',(-10.9999999999993,6.5,-1.33781874467331E-13));
#944=CARTESIAN_POINT('Origin',(0.800000000000691,7.8,2.79999999999987));
#945=CARTESIAN_POINT('',(0.800000000000691,5.9,2.79999999999987));
#946=CARTESIAN_POINT('',(0.80000000000069,7.8,2.79999999999987));
#947=CARTESIAN_POINT('',(-4.79999999999931,5.9,2.79999999999987));
#948=CARTESIAN_POINT('',(-4.79999999999931,5.9,2.79999999999987));
#949=CARTESIAN_POINT('',(-4.79999999999931,7.8,2.79999999999987));
#950=CARTESIAN_POINT('Origin',(0.800000000000691,7.8,-2.80000000000013));
#951=CARTESIAN_POINT('',(0.800000000000691,5.9,-2.80000000000013));
#952=CARTESIAN_POINT('',(0.800000000000691,7.8,-2.80000000000013));
#953=CARTESIAN_POINT('',(0.80000000000069,5.9,2.79999999999987));
#954=CARTESIAN_POINT('Origin',(-4.79999999999931,7.8,-2.80000000000013));
#955=CARTESIAN_POINT('',(-4.79999999999931,5.9,-2.80000000000013));
#956=CARTESIAN_POINT('',(-4.79999999999931,7.8,-2.80000000000013));
#957=CARTESIAN_POINT('',(0.800000000000691,5.9,-2.80000000000013));
#958=CARTESIAN_POINT('Origin',(-4.79999999999931,7.8,2.79999999999987));
#959=CARTESIAN_POINT('',(-4.79999999999931,5.9,-2.80000000000013));
#960=CARTESIAN_POINT('Origin',(-1.99999999999931,5.9,-1.32116539930394E-13));
#961=CARTESIAN_POINT('Origin',(18.,0.,-8.5));
#962=UNCERTAINTY_MEASURE_WITH_UNIT(LENGTH_MEASURE(0.01),#966,
'DISTANCE_ACCURACY_VALUE',
'Maximum model space distance between geometric entities at asserted c
onnectivities');
#963=UNCERTAINTY_MEASURE_WITH_UNIT(LENGTH_MEASURE(0.01),#966,
'DISTANCE_ACCURACY_VALUE',
'Maximum model space distance between geometric entities at asserted c
onnectivities');
#964=(
GEOMETRIC_REPRESENTATION_CONTEXT(3)
GLOBAL_UNCERTAINTY_ASSIGNED_CONTEXT((#962))
GLOBAL_UNIT_ASSIGNED_CONTEXT((#966,#968,#969))
REPRESENTATION_CONTEXT('','3D')
);
#965=(
GEOMETRIC_REPRESENTATION_CONTEXT(3)
GLOBAL_UNCERTAINTY_ASSIGNED_CONTEXT((#963))
GLOBAL_UNIT_ASSIGNED_CONTEXT((#966,#968,#969))
REPRESENTATION_CONTEXT('','3D')
);
#966=(
LENGTH_UNIT()
NAMED_UNIT(*)
SI_UNIT(.MILLI.,.METRE.)
);
#967=(
LENGTH_UNIT()
NAMED_UNIT(*)
SI_UNIT($,.METRE.)
);
#968=(
NAMED_UNIT(*)
PLANE_ANGLE_UNIT()
SI_UNIT($,.RADIAN.)
);
#969=(
NAMED_UNIT(*)
SI_UNIT($,.STERADIAN.)
SOLID_ANGLE_UNIT()
);
#970=SHAPE_DEFINITION_REPRESENTATION(#971,#972);
#971=PRODUCT_DEFINITION_SHAPE('',$,#974);
#972=SHAPE_REPRESENTATION('',(#586),#964);
#973=PRODUCT_DEFINITION_CONTEXT('part definition',#978,'design');
#974=PRODUCT_DEFINITION('2026-09-07-16-20-22-100','Hardware Fit Tester',
#975,#973);
#975=PRODUCT_DEFINITION_FORMATION('',$,#980);
#976=PRODUCT_RELATED_PRODUCT_CATEGORY('Hardware Fit Tester',
'Hardware Fit Tester',(#980));
#977=APPLICATION_PROTOCOL_DEFINITION('international standard',
'automotive_design',2009,#978);
#978=APPLICATION_CONTEXT(
'Core Data for Automotive Mechanical Design Process');
#979=PRODUCT_CONTEXT('part definition',#978,'mechanical');
#980=PRODUCT('2026-09-07-16-20-22-100','Hardware Fit Tester',$,(#979));
#981=PRESENTATION_STYLE_ASSIGNMENT((#982));
#982=SURFACE_STYLE_USAGE(.BOTH.,#983);
#983=SURFACE_SIDE_STYLE('',(#984));
#984=SURFACE_STYLE_FILL_AREA(#985);
#985=FILL_AREA_STYLE('Steel - Satin',(#986));
#986=FILL_AREA_STYLE_COLOUR('Steel - Satin',#987);
#987=COLOUR_RGB('Steel - Satin',0.627450980392157,0.627450980392157,0.627450980392157);
ENDSEC;
END-ISO-10303-21;
