ISO-10303-21;
HEADER;
/* Generated by software containing ST-Developer
 * from STEP Tools, Inc. (www.steptools.com) 
 */

FILE_DESCRIPTION(
/* description */ (''),
/* implementation_level */ '2;1');

FILE_NAME(
/* name */ 'power-track-offset-clamping-base_v1.0.step',
/* time_stamp */ '2026-08-29T10:48:16-05:00',
/* author */ (''),
/* organization */ (''),
/* preprocessor_version */ 'ST-DEVELOPER v20.1',
/* originating_system */ 'Autodesk Translation Framework v15.8.0.0',
/* authorisation */ '');

FILE_SCHEMA (('AUTOMOTIVE_DESIGN { 1 0 10303 214 3 1 1 }'));
ENDSEC;

DATA;
#10=MECHANICAL_DESIGN_GEOMETRIC_PRESENTATION_REPRESENTATION('',(#13),#537);
#11=SHAPE_REPRESENTATION_RELATIONSHIP('SRR','None',#544,#12);
#12=ADVANCED_BREP_SHAPE_REPRESENTATION('',(#14),#536);
#13=STYLED_ITEM('',(#553),#14);
#14=MANIFOLD_SOLID_BREP('Body1',#305);
#15=(
BOUNDED_SURFACE()
B_SPLINE_SURFACE(1,2,((#501,#502,#503,#504,#505),(#506,#507,#508,#509,#510)),
 .UNSPECIFIED.,.F.,.F.,.F.)
B_SPLINE_SURFACE_WITH_KNOTS((2,2),(3,2,3),(-2.38582622110166E-15,7.),(0.648857340508222,
1.5707963267949,2.49273531308157),.UNSPECIFIED.)
GEOMETRIC_REPRESENTATION_ITEM()
RATIONAL_B_SPLINE_SURFACE(((1.,0.895621671839814,1.,0.895621671839814,1.),
(1.,0.895621671839814,1.,0.895621671839814,1.)))
REPRESENTATION_ITEM('')
SURFACE()
);
#16=(
BOUNDED_SURFACE()
B_SPLINE_SURFACE(1,2,((#520,#521,#522,#523,#524),(#525,#526,#527,#528,#529)),
 .UNSPECIFIED.,.F.,.F.,.F.)
B_SPLINE_SURFACE_WITH_KNOTS((2,2),(3,2,3),(-1.6538017185135E-16,7.),(0.648857340508222,
1.5707963267949,2.49273531308157),.UNSPECIFIED.)
GEOMETRIC_REPRESENTATION_ITEM()
RATIONAL_B_SPLINE_SURFACE(((1.,0.895621671839814,1.,0.895621671839814,1.),
(1.,0.895621671839814,1.,0.895621671839814,1.)))
REPRESENTATION_ITEM('')
SURFACE()
);
#17=CYLINDRICAL_SURFACE('',#337,2.);
#18=CYLINDRICAL_SURFACE('',#338,2.);
#19=CYLINDRICAL_SURFACE('',#340,2.);
#20=CYLINDRICAL_SURFACE('',#342,2.);
#21=ELLIPSE('',#323,6.,3.5);
#22=ELLIPSE('',#326,6.,3.5);
#23=ELLIPSE('',#332,6.,3.5);
#24=ELLIPSE('',#335,6.,3.5);
#25=CIRCLE('',#322,2.);
#26=CIRCLE('',#324,2.);
#27=CIRCLE('',#325,2.);
#28=CIRCLE('',#327,2.);
#29=CIRCLE('',#331,2.);
#30=CIRCLE('',#333,2.);
#31=CIRCLE('',#334,2.);
#32=CIRCLE('',#336,2.);
#33=FACE_OUTER_BOUND('',#49,.T.);
#34=FACE_OUTER_BOUND('',#50,.T.);
#35=FACE_OUTER_BOUND('',#51,.T.);
#36=FACE_OUTER_BOUND('',#52,.T.);
#37=FACE_OUTER_BOUND('',#53,.T.);
#38=FACE_OUTER_BOUND('',#54,.T.);
#39=FACE_OUTER_BOUND('',#55,.T.);
#40=FACE_OUTER_BOUND('',#56,.T.);
#41=FACE_OUTER_BOUND('',#57,.T.);
#42=FACE_OUTER_BOUND('',#58,.T.);
#43=FACE_OUTER_BOUND('',#59,.T.);
#44=FACE_OUTER_BOUND('',#60,.T.);
#45=FACE_OUTER_BOUND('',#61,.T.);
#46=FACE_OUTER_BOUND('',#62,.T.);
#47=FACE_OUTER_BOUND('',#63,.T.);
#48=FACE_OUTER_BOUND('',#64,.T.);
#49=EDGE_LOOP('',(#195,#196,#197,#198));
#50=EDGE_LOOP('',(#199,#200,#201,#202));
#51=EDGE_LOOP('',(#203,#204,#205,#206,#207,#208,#209,#210,#211,#212,#213,
#214,#215,#216));
#52=EDGE_LOOP('',(#217,#218,#219,#220));
#53=EDGE_LOOP('',(#221,#222,#223,#224));
#54=EDGE_LOOP('',(#225,#226,#227,#228,#229,#230,#231,#232,#233,#234,#235,
#236,#237,#238));
#55=EDGE_LOOP('',(#239,#240,#241,#242));
#56=EDGE_LOOP('',(#243,#244,#245,#246));
#57=EDGE_LOOP('',(#247,#248,#249,#250));
#58=EDGE_LOOP('',(#251,#252,#253,#254));
#59=EDGE_LOOP('',(#255,#256,#257,#258));
#60=EDGE_LOOP('',(#259,#260,#261,#262));
#61=EDGE_LOOP('',(#263,#264,#265,#266));
#62=EDGE_LOOP('',(#267,#268,#269,#270));
#63=EDGE_LOOP('',(#271,#272,#273,#274));
#64=EDGE_LOOP('',(#275,#276,#277,#278));
#65=LINE('',#433,#95);
#66=LINE('',#435,#96);
#67=LINE('',#437,#97);
#68=LINE('',#438,#98);
#69=LINE('',#441,#99);
#70=LINE('',#443,#100);
#71=LINE('',#444,#101);
#72=LINE('',#447,#102);
#73=LINE('',#449,#103);
#74=LINE('',#451,#104);
#75=LINE('',#453,#105);
#76=LINE('',#461,#106);
#77=LINE('',#468,#107);
#78=LINE('',#472,#108);
#79=LINE('',#473,#109);
#80=LINE('',#474,#110);
#81=LINE('',#477,#111);
#82=LINE('',#478,#112);
#83=LINE('',#481,#113);
#84=LINE('',#489,#114);
#85=LINE('',#496,#115);
#86=LINE('',#497,#116);
#87=LINE('',#499,#117);
#88=LINE('',#500,#118);
#89=LINE('',#511,#119);
#90=LINE('',#513,#120);
#91=LINE('',#515,#121);
#92=LINE('',#517,#122);
#93=LINE('',#518,#123);
#94=LINE('',#530,#124);
#95=VECTOR('',#349,10.);
#96=VECTOR('',#350,10.);
#97=VECTOR('',#351,10.);
#98=VECTOR('',#352,10.);
#99=VECTOR('',#355,10.);
#100=VECTOR('',#356,10.);
#101=VECTOR('',#357,10.);
#102=VECTOR('',#360,10.);
#103=VECTOR('',#361,10.);
#104=VECTOR('',#362,10.);
#105=VECTOR('',#363,10.);
#106=VECTOR('',#370,10.);
#107=VECTOR('',#377,10.);
#108=VECTOR('',#380,10.);
#109=VECTOR('',#381,10.);
#110=VECTOR('',#382,10.);
#111=VECTOR('',#385,10.);
#112=VECTOR('',#386,10.);
#113=VECTOR('',#389,10.);
#114=VECTOR('',#396,10.);
#115=VECTOR('',#403,10.);
#116=VECTOR('',#404,10.);
#117=VECTOR('',#407,2.);
#118=VECTOR('',#408,2.);
#119=VECTOR('',#409,2.);
#120=VECTOR('',#412,2.);
#121=VECTOR('',#415,2.);
#122=VECTOR('',#418,2.);
#123=VECTOR('',#419,2.);
#124=VECTOR('',#422,2.);
#125=VERTEX_POINT('',#431);
#126=VERTEX_POINT('',#432);
#127=VERTEX_POINT('',#434);
#128=VERTEX_POINT('',#436);
#129=VERTEX_POINT('',#440);
#130=VERTEX_POINT('',#442);
#131=VERTEX_POINT('',#446);
#132=VERTEX_POINT('',#448);
#133=VERTEX_POINT('',#450);
#134=VERTEX_POINT('',#452);
#135=VERTEX_POINT('',#454);
#136=VERTEX_POINT('',#456);
#137=VERTEX_POINT('',#458);
#138=VERTEX_POINT('',#460);
#139=VERTEX_POINT('',#462);
#140=VERTEX_POINT('',#464);
#141=VERTEX_POINT('',#466);
#142=VERTEX_POINT('',#470);
#143=VERTEX_POINT('',#471);
#144=VERTEX_POINT('',#476);
#145=VERTEX_POINT('',#480);
#146=VERTEX_POINT('',#482);
#147=VERTEX_POINT('',#484);
#148=VERTEX_POINT('',#486);
#149=VERTEX_POINT('',#488);
#150=VERTEX_POINT('',#490);
#151=VERTEX_POINT('',#492);
#152=VERTEX_POINT('',#494);
#153=EDGE_CURVE('',#125,#126,#65,.T.);
#154=EDGE_CURVE('',#126,#127,#66,.T.);
#155=EDGE_CURVE('',#127,#128,#67,.T.);
#156=EDGE_CURVE('',#128,#125,#68,.T.);
#157=EDGE_CURVE('',#126,#129,#69,.T.);
#158=EDGE_CURVE('',#130,#129,#70,.T.);
#159=EDGE_CURVE('',#127,#130,#71,.T.);
#160=EDGE_CURVE('',#125,#131,#72,.T.);
#161=EDGE_CURVE('',#132,#131,#73,.T.);
#162=EDGE_CURVE('',#132,#133,#74,.T.);
#163=EDGE_CURVE('',#133,#134,#75,.T.);
#164=EDGE_CURVE('',#135,#134,#25,.T.);
#165=EDGE_CURVE('',#135,#136,#21,.T.);
#166=EDGE_CURVE('',#137,#136,#26,.T.);
#167=EDGE_CURVE('',#138,#137,#76,.T.);
#168=EDGE_CURVE('',#139,#138,#27,.T.);
#169=EDGE_CURVE('',#139,#140,#22,.T.);
#170=EDGE_CURVE('',#141,#140,#28,.T.);
#171=EDGE_CURVE('',#141,#129,#77,.T.);
#172=EDGE_CURVE('',#142,#143,#78,.T.);
#173=EDGE_CURVE('',#143,#132,#79,.T.);
#174=EDGE_CURVE('',#131,#142,#80,.T.);
#175=EDGE_CURVE('',#143,#144,#81,.T.);
#176=EDGE_CURVE('',#133,#144,#82,.T.);
#177=EDGE_CURVE('',#130,#145,#83,.T.);
#178=EDGE_CURVE('',#146,#145,#29,.T.);
#179=EDGE_CURVE('',#146,#147,#23,.T.);
#180=EDGE_CURVE('',#148,#147,#30,.T.);
#181=EDGE_CURVE('',#149,#148,#84,.T.);
#182=EDGE_CURVE('',#150,#149,#31,.T.);
#183=EDGE_CURVE('',#150,#151,#24,.T.);
#184=EDGE_CURVE('',#152,#151,#32,.T.);
#185=EDGE_CURVE('',#152,#144,#85,.T.);
#186=EDGE_CURVE('',#142,#128,#86,.T.);
#187=EDGE_CURVE('',#151,#135,#87,.T.);
#188=EDGE_CURVE('',#134,#152,#88,.T.);
#189=EDGE_CURVE('',#136,#150,#89,.T.);
#190=EDGE_CURVE('',#149,#137,#90,.T.);
#191=EDGE_CURVE('',#138,#148,#91,.T.);
#192=EDGE_CURVE('',#140,#146,#92,.T.);
#193=EDGE_CURVE('',#145,#141,#93,.T.);
#194=EDGE_CURVE('',#147,#139,#94,.T.);
#195=ORIENTED_EDGE('',*,*,#153,.T.);
#196=ORIENTED_EDGE('',*,*,#154,.T.);
#197=ORIENTED_EDGE('',*,*,#155,.T.);
#198=ORIENTED_EDGE('',*,*,#156,.T.);
#199=ORIENTED_EDGE('',*,*,#154,.F.);
#200=ORIENTED_EDGE('',*,*,#157,.T.);
#201=ORIENTED_EDGE('',*,*,#158,.F.);
#202=ORIENTED_EDGE('',*,*,#159,.F.);
#203=ORIENTED_EDGE('',*,*,#153,.F.);
#204=ORIENTED_EDGE('',*,*,#160,.T.);
#205=ORIENTED_EDGE('',*,*,#161,.F.);
#206=ORIENTED_EDGE('',*,*,#162,.T.);
#207=ORIENTED_EDGE('',*,*,#163,.T.);
#208=ORIENTED_EDGE('',*,*,#164,.F.);
#209=ORIENTED_EDGE('',*,*,#165,.T.);
#210=ORIENTED_EDGE('',*,*,#166,.F.);
#211=ORIENTED_EDGE('',*,*,#167,.F.);
#212=ORIENTED_EDGE('',*,*,#168,.F.);
#213=ORIENTED_EDGE('',*,*,#169,.T.);
#214=ORIENTED_EDGE('',*,*,#170,.F.);
#215=ORIENTED_EDGE('',*,*,#171,.T.);
#216=ORIENTED_EDGE('',*,*,#157,.F.);
#217=ORIENTED_EDGE('',*,*,#172,.T.);
#218=ORIENTED_EDGE('',*,*,#173,.T.);
#219=ORIENTED_EDGE('',*,*,#161,.T.);
#220=ORIENTED_EDGE('',*,*,#174,.T.);
#221=ORIENTED_EDGE('',*,*,#173,.F.);
#222=ORIENTED_EDGE('',*,*,#175,.T.);
#223=ORIENTED_EDGE('',*,*,#176,.F.);
#224=ORIENTED_EDGE('',*,*,#162,.F.);
#225=ORIENTED_EDGE('',*,*,#155,.F.);
#226=ORIENTED_EDGE('',*,*,#159,.T.);
#227=ORIENTED_EDGE('',*,*,#177,.T.);
#228=ORIENTED_EDGE('',*,*,#178,.F.);
#229=ORIENTED_EDGE('',*,*,#179,.T.);
#230=ORIENTED_EDGE('',*,*,#180,.F.);
#231=ORIENTED_EDGE('',*,*,#181,.F.);
#232=ORIENTED_EDGE('',*,*,#182,.F.);
#233=ORIENTED_EDGE('',*,*,#183,.T.);
#234=ORIENTED_EDGE('',*,*,#184,.F.);
#235=ORIENTED_EDGE('',*,*,#185,.T.);
#236=ORIENTED_EDGE('',*,*,#175,.F.);
#237=ORIENTED_EDGE('',*,*,#172,.F.);
#238=ORIENTED_EDGE('',*,*,#186,.T.);
#239=ORIENTED_EDGE('',*,*,#184,.T.);
#240=ORIENTED_EDGE('',*,*,#187,.T.);
#241=ORIENTED_EDGE('',*,*,#164,.T.);
#242=ORIENTED_EDGE('',*,*,#188,.T.);
#243=ORIENTED_EDGE('',*,*,#187,.F.);
#244=ORIENTED_EDGE('',*,*,#183,.F.);
#245=ORIENTED_EDGE('',*,*,#189,.F.);
#246=ORIENTED_EDGE('',*,*,#165,.F.);
#247=ORIENTED_EDGE('',*,*,#166,.T.);
#248=ORIENTED_EDGE('',*,*,#189,.T.);
#249=ORIENTED_EDGE('',*,*,#182,.T.);
#250=ORIENTED_EDGE('',*,*,#190,.T.);
#251=ORIENTED_EDGE('',*,*,#190,.F.);
#252=ORIENTED_EDGE('',*,*,#181,.T.);
#253=ORIENTED_EDGE('',*,*,#191,.F.);
#254=ORIENTED_EDGE('',*,*,#167,.T.);
#255=ORIENTED_EDGE('',*,*,#170,.T.);
#256=ORIENTED_EDGE('',*,*,#192,.T.);
#257=ORIENTED_EDGE('',*,*,#178,.T.);
#258=ORIENTED_EDGE('',*,*,#193,.T.);
#259=ORIENTED_EDGE('',*,*,#193,.F.);
#260=ORIENTED_EDGE('',*,*,#177,.F.);
#261=ORIENTED_EDGE('',*,*,#158,.T.);
#262=ORIENTED_EDGE('',*,*,#171,.F.);
#263=ORIENTED_EDGE('',*,*,#192,.F.);
#264=ORIENTED_EDGE('',*,*,#169,.F.);
#265=ORIENTED_EDGE('',*,*,#194,.F.);
#266=ORIENTED_EDGE('',*,*,#179,.F.);
#267=ORIENTED_EDGE('',*,*,#180,.T.);
#268=ORIENTED_EDGE('',*,*,#194,.T.);
#269=ORIENTED_EDGE('',*,*,#168,.T.);
#270=ORIENTED_EDGE('',*,*,#191,.T.);
#271=ORIENTED_EDGE('',*,*,#188,.F.);
#272=ORIENTED_EDGE('',*,*,#163,.F.);
#273=ORIENTED_EDGE('',*,*,#176,.T.);
#274=ORIENTED_EDGE('',*,*,#185,.F.);
#275=ORIENTED_EDGE('',*,*,#156,.F.);
#276=ORIENTED_EDGE('',*,*,#186,.F.);
#277=ORIENTED_EDGE('',*,*,#174,.F.);
#278=ORIENTED_EDGE('',*,*,#160,.F.);
#279=PLANE('',#319);
#280=PLANE('',#320);
#281=PLANE('',#321);
#282=PLANE('',#328);
#283=PLANE('',#329);
#284=PLANE('',#330);
#285=PLANE('',#339);
#286=PLANE('',#341);
#287=PLANE('',#343);
#288=PLANE('',#344);
#289=ADVANCED_FACE('',(#33),#279,.T.);
#290=ADVANCED_FACE('',(#34),#280,.T.);
#291=ADVANCED_FACE('',(#35),#281,.T.);
#292=ADVANCED_FACE('',(#36),#282,.T.);
#293=ADVANCED_FACE('',(#37),#283,.T.);
#294=ADVANCED_FACE('',(#38),#284,.T.);
#295=ADVANCED_FACE('',(#39),#17,.T.);
#296=ADVANCED_FACE('',(#40),#15,.F.);
#297=ADVANCED_FACE('',(#41),#18,.T.);
#298=ADVANCED_FACE('',(#42),#285,.T.);
#299=ADVANCED_FACE('',(#43),#19,.T.);
#300=ADVANCED_FACE('',(#44),#286,.F.);
#301=ADVANCED_FACE('',(#45),#16,.T.);
#302=ADVANCED_FACE('',(#46),#20,.T.);
#303=ADVANCED_FACE('',(#47),#287,.F.);
#304=ADVANCED_FACE('',(#48),#288,.F.);
#305=CLOSED_SHELL('',(#289,#290,#291,#292,#293,#294,#295,#296,#297,#298,
#299,#300,#301,#302,#303,#304));
#306=DERIVED_UNIT_ELEMENT(#308,1.);
#307=DERIVED_UNIT_ELEMENT(#539,-3.);
#308=(
MASS_UNIT()
NAMED_UNIT(*)
SI_UNIT(.KILO.,.GRAM.)
);
#309=DERIVED_UNIT((#306,#307));
#310=MEASURE_REPRESENTATION_ITEM('density measure',
POSITIVE_RATIO_MEASURE(7850.),#309);
#311=PROPERTY_DEFINITION_REPRESENTATION(#316,#313);
#312=PROPERTY_DEFINITION_REPRESENTATION(#317,#314);
#313=REPRESENTATION('material name',(#315),#536);
#314=REPRESENTATION('density',(#310),#536);
#315=DESCRIPTIVE_REPRESENTATION_ITEM('Steel','Steel');
#316=PROPERTY_DEFINITION('material property','material name',#546);
#317=PROPERTY_DEFINITION('material property','density of part',#546);
#318=AXIS2_PLACEMENT_3D('',#429,#345,#346);
#319=AXIS2_PLACEMENT_3D('',#430,#347,#348);
#320=AXIS2_PLACEMENT_3D('',#439,#353,#354);
#321=AXIS2_PLACEMENT_3D('',#445,#358,#359);
#322=AXIS2_PLACEMENT_3D('',#455,#364,#365);
#323=AXIS2_PLACEMENT_3D('',#457,#366,#367);
#324=AXIS2_PLACEMENT_3D('',#459,#368,#369);
#325=AXIS2_PLACEMENT_3D('',#463,#371,#372);
#326=AXIS2_PLACEMENT_3D('',#465,#373,#374);
#327=AXIS2_PLACEMENT_3D('',#467,#375,#376);
#328=AXIS2_PLACEMENT_3D('',#469,#378,#379);
#329=AXIS2_PLACEMENT_3D('',#475,#383,#384);
#330=AXIS2_PLACEMENT_3D('',#479,#387,#388);
#331=AXIS2_PLACEMENT_3D('',#483,#390,#391);
#332=AXIS2_PLACEMENT_3D('',#485,#392,#393);
#333=AXIS2_PLACEMENT_3D('',#487,#394,#395);
#334=AXIS2_PLACEMENT_3D('',#491,#397,#398);
#335=AXIS2_PLACEMENT_3D('',#493,#399,#400);
#336=AXIS2_PLACEMENT_3D('',#495,#401,#402);
#337=AXIS2_PLACEMENT_3D('',#498,#405,#406);
#338=AXIS2_PLACEMENT_3D('',#512,#410,#411);
#339=AXIS2_PLACEMENT_3D('',#514,#413,#414);
#340=AXIS2_PLACEMENT_3D('',#516,#416,#417);
#341=AXIS2_PLACEMENT_3D('',#519,#420,#421);
#342=AXIS2_PLACEMENT_3D('',#531,#423,#424);
#343=AXIS2_PLACEMENT_3D('',#532,#425,#426);
#344=AXIS2_PLACEMENT_3D('',#533,#427,#428);
#345=DIRECTION('axis',(0.,0.,1.));
#346=DIRECTION('refdir',(1.,0.,0.));
#347=DIRECTION('center_axis',(-0.707106781186548,-0.707106781186547,-4.29906268449129E-16));
#348=DIRECTION('ref_axis',(-6.07979275389967E-16,0.,1.));
#349=DIRECTION('',(-0.707106781186547,0.707106781186548,0.));
#350=DIRECTION('',(6.07979275389967E-16,0.,-1.));
#351=DIRECTION('',(0.707106781186547,-0.707106781186548,0.));
#352=DIRECTION('',(-6.07979275389967E-16,0.,1.));
#353=DIRECTION('center_axis',(-1.,0.,-6.07979275389967E-16));
#354=DIRECTION('ref_axis',(-6.07979275389967E-16,0.,1.));
#355=DIRECTION('',(0.,1.,0.));
#356=DIRECTION('',(-6.07979275389967E-16,0.,1.));
#357=DIRECTION('',(0.,1.,0.));
#358=DIRECTION('center_axis',(0.,0.,1.));
#359=DIRECTION('ref_axis',(1.,0.,0.));
#360=DIRECTION('',(1.,0.,0.));
#361=DIRECTION('',(-0.707106781186548,-0.707106781186547,0.));
#362=DIRECTION('',(0.,1.,0.));
#363=DIRECTION('',(1.,0.,5.55111512312578E-16));
#364=DIRECTION('center_axis',(0.,0.,-1.));
#365=DIRECTION('ref_axis',(0.,1.,0.));
#366=DIRECTION('center_axis',(0.,0.,-1.));
#367=DIRECTION('ref_axis',(0.,1.,0.));
#368=DIRECTION('center_axis',(0.,0.,-1.));
#369=DIRECTION('ref_axis',(0.,-1.,0.));
#370=DIRECTION('',(1.,0.,5.55111512312578E-16));
#371=DIRECTION('center_axis',(0.,0.,-1.));
#372=DIRECTION('ref_axis',(0.,-1.,0.));
#373=DIRECTION('center_axis',(0.,0.,-1.));
#374=DIRECTION('ref_axis',(0.,1.,0.));
#375=DIRECTION('center_axis',(0.,0.,-1.));
#376=DIRECTION('ref_axis',(0.,1.,0.));
#377=DIRECTION('',(1.,0.,5.55111512312578E-16));
#378=DIRECTION('center_axis',(0.707106781186547,-0.707106781186548,-1.86915768890926E-17));
#379=DIRECTION('ref_axis',(-2.64338815386942E-17,0.,-1.));
#380=DIRECTION('',(0.707106781186548,0.707106781186547,0.));
#381=DIRECTION('',(2.64338815386942E-17,0.,1.));
#382=DIRECTION('',(-2.64338815386942E-17,0.,-1.));
#383=DIRECTION('center_axis',(1.,0.,-2.64338815386942E-17));
#384=DIRECTION('ref_axis',(-2.64338815386942E-17,0.,-1.));
#385=DIRECTION('',(0.,1.,0.));
#386=DIRECTION('',(-2.64338815386942E-17,0.,-1.));
#387=DIRECTION('center_axis',(0.,0.,-1.));
#388=DIRECTION('ref_axis',(-1.,0.,0.));
#389=DIRECTION('',(-1.,0.,0.));
#390=DIRECTION('center_axis',(0.,0.,1.));
#391=DIRECTION('ref_axis',(0.,1.,0.));
#392=DIRECTION('center_axis',(0.,0.,1.));
#393=DIRECTION('ref_axis',(0.,1.,0.));
#394=DIRECTION('center_axis',(0.,0.,1.));
#395=DIRECTION('ref_axis',(0.,-1.,0.));
#396=DIRECTION('',(-1.,0.,0.));
#397=DIRECTION('center_axis',(0.,0.,1.));
#398=DIRECTION('ref_axis',(0.,-1.,0.));
#399=DIRECTION('center_axis',(0.,0.,1.));
#400=DIRECTION('ref_axis',(0.,1.,0.));
#401=DIRECTION('center_axis',(0.,0.,1.));
#402=DIRECTION('ref_axis',(0.,1.,0.));
#403=DIRECTION('',(-1.,0.,0.));
#404=DIRECTION('',(-1.,0.,0.));
#405=DIRECTION('center_axis',(-2.80129079222288E-15,0.,1.));
#406=DIRECTION('ref_axis',(0.,1.,0.));
#407=DIRECTION('',(-2.80129079222288E-15,0.,1.));
#408=DIRECTION('',(2.80129079222288E-15,0.,-1.));
#409=DIRECTION('',(2.80129079222288E-15,0.,-1.));
#410=DIRECTION('center_axis',(2.80129079222288E-15,0.,-1.));
#411=DIRECTION('ref_axis',(0.,-1.,0.));
#412=DIRECTION('',(-2.80129079222288E-15,0.,1.));
#413=DIRECTION('center_axis',(0.,1.,0.));
#414=DIRECTION('ref_axis',(0.,0.,1.));
#415=DIRECTION('',(-2.80129079222288E-15,0.,-1.));
#416=DIRECTION('center_axis',(-2.80129079222288E-15,0.,-1.));
#417=DIRECTION('ref_axis',(0.,1.,0.));
#418=DIRECTION('',(-2.80129079222288E-15,0.,-1.));
#419=DIRECTION('',(2.80129079222288E-15,0.,1.));
#420=DIRECTION('center_axis',(0.,1.,0.));
#421=DIRECTION('ref_axis',(-1.,0.,0.));
#422=DIRECTION('',(2.80129079222288E-15,0.,1.));
#423=DIRECTION('center_axis',(2.80129079222288E-15,0.,1.));
#424=DIRECTION('ref_axis',(0.,-1.,0.));
#425=DIRECTION('center_axis',(0.,1.,0.));
#426=DIRECTION('ref_axis',(-1.,0.,0.));
#427=DIRECTION('center_axis',(0.,1.,0.));
#428=DIRECTION('ref_axis',(1.,0.,0.));
#429=CARTESIAN_POINT('',(0.,0.,0.));
#430=CARTESIAN_POINT('Origin',(-2.59999999999999,0.4,-10.4999999999999));
#431=CARTESIAN_POINT('',(-2.20000000000001,0.,21.));
#432=CARTESIAN_POINT('',(-3.00000000000001,0.8,21.));
#433=CARTESIAN_POINT('',(-2.6,0.399999999999995,21.));
#434=CARTESIAN_POINT('',(-2.99999999999998,0.8,-20.9999999999999));
#435=CARTESIAN_POINT('',(-2.99999999999999,0.8,-10.4999999999999));
#436=CARTESIAN_POINT('',(-2.19999999999998,0.,-20.9999999999999));
#437=CARTESIAN_POINT('',(-1.09999999999999,-1.09999999999999,-20.9999999999999));
#438=CARTESIAN_POINT('',(-2.19999999999999,0.,-10.4999999999999));
#439=CARTESIAN_POINT('Origin',(-2.99999999999998,0.,-20.9999999999999));
#440=CARTESIAN_POINT('',(-3.00000000000001,6.5,21.));
#441=CARTESIAN_POINT('',(-3.00000000000001,0.,21.));
#442=CARTESIAN_POINT('',(-2.99999999999998,6.5,-20.9999999999999));
#443=CARTESIAN_POINT('',(-2.99999999999998,6.5,-20.9999999999999));
#444=CARTESIAN_POINT('',(-2.99999999999998,0.,-20.9999999999999));
#445=CARTESIAN_POINT('Origin',(-3.00000000000001,0.,21.));
#446=CARTESIAN_POINT('',(2.19999999999999,0.,21.));
#447=CARTESIAN_POINT('',(-3.00000000000001,0.,21.));
#448=CARTESIAN_POINT('',(2.99999999999999,0.8,21.));
#449=CARTESIAN_POINT('',(1.09999999999999,-1.1,21.));
#450=CARTESIAN_POINT('',(2.99999999999999,6.5,21.));
#451=CARTESIAN_POINT('',(2.99999999999999,0.,21.));
#452=CARTESIAN_POINT('',(4.29973067404654,6.5,20.9999999999999));
#453=CARTESIAN_POINT('',(-7.99999999999995,6.5,20.9999999999999));
#454=CARTESIAN_POINT('',(5.88503274651604,9.7193511959333,21.0000000000001));
#455=CARTESIAN_POINT('Origin',(4.29973067404654,8.5,21.0000000000001));
#456=CARTESIAN_POINT('',(5.88503274651604,19.2806488040667,21.0000000000001));
#457=CARTESIAN_POINT('Origin',(8.00000000000007,14.5,21.0000000000001));
#458=CARTESIAN_POINT('',(4.29973067404654,22.5,20.9999999999999));
#459=CARTESIAN_POINT('Origin',(4.29973067404654,20.5,21.0000000000001));
#460=CARTESIAN_POINT('',(-4.29973067404654,22.5,20.9999999999999));
#461=CARTESIAN_POINT('',(-7.99999999999995,22.5,20.9999999999999));
#462=CARTESIAN_POINT('',(-5.88503274651604,19.2806488040667,21.0000000000001));
#463=CARTESIAN_POINT('Origin',(-4.29973067404654,20.5,21.0000000000001));
#464=CARTESIAN_POINT('',(-5.88503274651604,9.7193511959333,21.0000000000001));
#465=CARTESIAN_POINT('Origin',(-8.00000000000007,14.5,21.0000000000001));
#466=CARTESIAN_POINT('',(-4.29973067404654,6.5,20.9999999999999));
#467=CARTESIAN_POINT('Origin',(-4.29973067404654,8.5,21.0000000000001));
#468=CARTESIAN_POINT('',(-7.99999999999995,6.5,20.9999999999999));
#469=CARTESIAN_POINT('Origin',(2.59999999999999,0.4,10.5000000000001));
#470=CARTESIAN_POINT('',(2.19999999999999,0.,-20.9999999999999));
#471=CARTESIAN_POINT('',(2.99999999999999,0.8,-20.9999999999999));
#472=CARTESIAN_POINT('',(2.59999999999999,0.4,-20.9999999999999));
#473=CARTESIAN_POINT('',(2.99999999999999,0.8,10.5000000000001));
#474=CARTESIAN_POINT('',(2.19999999999999,0.,10.5000000000001));
#475=CARTESIAN_POINT('Origin',(2.99999999999999,0.,21.));
#476=CARTESIAN_POINT('',(2.99999999999999,6.5,-20.9999999999999));
#477=CARTESIAN_POINT('',(2.99999999999999,0.,-20.9999999999999));
#478=CARTESIAN_POINT('',(2.99999999999999,6.5,21.));
#479=CARTESIAN_POINT('Origin',(2.99999999999999,0.,-20.9999999999999));
#480=CARTESIAN_POINT('',(-4.29973067404666,6.5,-20.9999999999999));
#481=CARTESIAN_POINT('',(7.99999999999998,6.5,-20.9999999999999));
#482=CARTESIAN_POINT('',(-5.88503274651613,9.71935119593328,-20.9999999999999));
#483=CARTESIAN_POINT('Origin',(-4.29973067404666,8.5,-20.9999999999999));
#484=CARTESIAN_POINT('',(-5.88503274651613,19.2806488040667,-20.9999999999999));
#485=CARTESIAN_POINT('Origin',(-8.00000000000015,14.5,-20.9999999999999));
#486=CARTESIAN_POINT('',(-4.29973067404666,22.5,-20.9999999999999));
#487=CARTESIAN_POINT('Origin',(-4.29973067404666,20.5,-20.9999999999999));
#488=CARTESIAN_POINT('',(4.29973067404666,22.5,-20.9999999999999));
#489=CARTESIAN_POINT('',(7.99999999999998,22.5,-20.9999999999999));
#490=CARTESIAN_POINT('',(5.88503274651613,19.2806488040667,-20.9999999999999));
#491=CARTESIAN_POINT('Origin',(4.29973067404666,20.5,-20.9999999999999));
#492=CARTESIAN_POINT('',(5.88503274651613,9.71935119593328,-20.9999999999999));
#493=CARTESIAN_POINT('Origin',(8.00000000000015,14.5,-20.9999999999999));
#494=CARTESIAN_POINT('',(4.29973067404666,6.5,-20.9999999999999));
#495=CARTESIAN_POINT('Origin',(4.29973067404666,8.5,-20.9999999999999));
#496=CARTESIAN_POINT('',(7.99999999999998,6.5,-20.9999999999999));
#497=CARTESIAN_POINT('',(2.99999999999999,0.,-20.9999999999999));
#498=CARTESIAN_POINT('Origin',(4.2997306740466,8.5,3.5527136788005E-14));
#499=CARTESIAN_POINT('',(5.88503274651609,9.71935119593329,3.99680288865056E-14));
#500=CARTESIAN_POINT('',(4.2997306740466,6.5,3.5527136788005E-14));
#501=CARTESIAN_POINT('Ctrl Pts',(5.88503274651606,19.2806488040667,21.0000000000001));
#502=CARTESIAN_POINT('Ctrl Pts',(4.50000000000007,17.4799409433513,21.0000000000001));
#503=CARTESIAN_POINT('Ctrl Pts',(4.50000000000007,14.5,21.0000000000001));
#504=CARTESIAN_POINT('Ctrl Pts',(4.50000000000007,11.5200590566487,21.0000000000001));
#505=CARTESIAN_POINT('Ctrl Pts',(5.88503274651606,9.71935119593327,21.0000000000001));
#506=CARTESIAN_POINT('Ctrl Pts',(5.88503274651614,19.2806488040667,-21.));
#507=CARTESIAN_POINT('Ctrl Pts',(4.50000000000014,17.4799409433513,-21.));
#508=CARTESIAN_POINT('Ctrl Pts',(4.50000000000014,14.5,-21.));
#509=CARTESIAN_POINT('Ctrl Pts',(4.50000000000014,11.5200590566487,-21.));
#510=CARTESIAN_POINT('Ctrl Pts',(5.88503274651614,9.71935119593327,-21.));
#511=CARTESIAN_POINT('',(5.88503274651609,19.2806488040667,-4.44089209850063E-14));
#512=CARTESIAN_POINT('Origin',(4.2997306740466,20.5,-4.88498130835069E-14));
#513=CARTESIAN_POINT('',(4.2997306740466,22.5,-4.88498130835069E-14));
#514=CARTESIAN_POINT('Origin',(-1.33226762955019E-14,22.5,-3.99680288865056E-14));
#515=CARTESIAN_POINT('',(-4.2997306740466,22.5,-4.44089209850063E-14));
#516=CARTESIAN_POINT('Origin',(-4.2997306740466,8.5,-4.88498130835069E-14));
#517=CARTESIAN_POINT('',(-5.88503274651609,9.71935119593329,-4.44089209850063E-14));
#518=CARTESIAN_POINT('',(-4.2997306740466,6.5,-4.88498130835069E-14));
#519=CARTESIAN_POINT('Origin',(-1.33226762955019E-14,6.5,-3.99680288865056E-14));
#520=CARTESIAN_POINT('Ctrl Pts',(-5.88503274651606,19.2806488040667,21.0000000000001));
#521=CARTESIAN_POINT('Ctrl Pts',(-4.50000000000007,17.4799409433513,21.0000000000001));
#522=CARTESIAN_POINT('Ctrl Pts',(-4.50000000000007,14.5,21.0000000000001));
#523=CARTESIAN_POINT('Ctrl Pts',(-4.50000000000007,11.5200590566487,21.0000000000001));
#524=CARTESIAN_POINT('Ctrl Pts',(-5.88503274651606,9.71935119593327,21.0000000000001));
#525=CARTESIAN_POINT('Ctrl Pts',(-5.88503274651614,19.2806488040667,-20.9999999999999));
#526=CARTESIAN_POINT('Ctrl Pts',(-4.50000000000014,17.4799409433513,-20.9999999999999));
#527=CARTESIAN_POINT('Ctrl Pts',(-4.50000000000014,14.5,-20.9999999999999));
#528=CARTESIAN_POINT('Ctrl Pts',(-4.50000000000014,11.5200590566487,-20.9999999999999));
#529=CARTESIAN_POINT('Ctrl Pts',(-5.88503274651614,9.71935119593327,-20.9999999999999));
#530=CARTESIAN_POINT('',(-5.88503274651609,19.2806488040667,-3.99680288865056E-14));
#531=CARTESIAN_POINT('Origin',(-4.2997306740466,20.5,-4.44089209850063E-14));
#532=CARTESIAN_POINT('Origin',(-1.33226762955019E-14,6.5,-3.99680288865056E-14));
#533=CARTESIAN_POINT('Origin',(-6.10622663543836E-15,0.,5.32907051820075E-14));
#534=UNCERTAINTY_MEASURE_WITH_UNIT(LENGTH_MEASURE(0.01),#538,
'DISTANCE_ACCURACY_VALUE',
'Maximum model space distance between geometric entities at asserted c
onnectivities');
#535=UNCERTAINTY_MEASURE_WITH_UNIT(LENGTH_MEASURE(0.01),#538,
'DISTANCE_ACCURACY_VALUE',
'Maximum model space distance between geometric entities at asserted c
onnectivities');
#536=(
GEOMETRIC_REPRESENTATION_CONTEXT(3)
GLOBAL_UNCERTAINTY_ASSIGNED_CONTEXT((#534))
GLOBAL_UNIT_ASSIGNED_CONTEXT((#538,#540,#541))
REPRESENTATION_CONTEXT('','3D')
);
#537=(
GEOMETRIC_REPRESENTATION_CONTEXT(3)
GLOBAL_UNCERTAINTY_ASSIGNED_CONTEXT((#535))
GLOBAL_UNIT_ASSIGNED_CONTEXT((#538,#540,#541))
REPRESENTATION_CONTEXT('','3D')
);
#538=(
LENGTH_UNIT()
NAMED_UNIT(*)
SI_UNIT(.MILLI.,.METRE.)
);
#539=(
LENGTH_UNIT()
NAMED_UNIT(*)
SI_UNIT($,.METRE.)
);
#540=(
NAMED_UNIT(*)
PLANE_ANGLE_UNIT()
SI_UNIT($,.RADIAN.)
);
#541=(
NAMED_UNIT(*)
SI_UNIT($,.STERADIAN.)
SOLID_ANGLE_UNIT()
);
#542=SHAPE_DEFINITION_REPRESENTATION(#543,#544);
#543=PRODUCT_DEFINITION_SHAPE('',$,#546);
#544=SHAPE_REPRESENTATION('',(#318),#536);
#545=PRODUCT_DEFINITION_CONTEXT('part definition',#550,'design');
#546=PRODUCT_DEFINITION('2026-08-29-10-48-15-940','(Unsaved)',#547,#545);
#547=PRODUCT_DEFINITION_FORMATION('',$,#552);
#548=PRODUCT_RELATED_PRODUCT_CATEGORY('(Unsaved)','(Unsaved)',(#552));
#549=APPLICATION_PROTOCOL_DEFINITION('international standard',
'automotive_design',2009,#550);
#550=APPLICATION_CONTEXT(
'Core Data for Automotive Mechanical Design Process');
#551=PRODUCT_CONTEXT('part definition',#550,'mechanical');
#552=PRODUCT('2026-08-29-10-48-15-940','(Unsaved)',$,(#551));
#553=PRESENTATION_STYLE_ASSIGNMENT((#554));
#554=SURFACE_STYLE_USAGE(.BOTH.,#555);
#555=SURFACE_SIDE_STYLE('',(#556));
#556=SURFACE_STYLE_FILL_AREA(#557);
#557=FILL_AREA_STYLE('Steel - Satin',(#558));
#558=FILL_AREA_STYLE_COLOUR('Steel - Satin',#559);
#559=COLOUR_RGB('Steel - Satin',0.627450980392157,0.627450980392157,0.627450980392157);
ENDSEC;
END-ISO-10303-21;
