ISO-10303-21;
HEADER;
/* Generated by software containing ST-Developer
 * from STEP Tools, Inc. (www.steptools.com) 
 */

FILE_DESCRIPTION(
/* description */ (''),
/* implementation_level */ '2;1');

FILE_NAME(
/* name */ 'weight-material-scoop_v1.0.step',
/* time_stamp */ '2026-08-29T11:09:47-05:00',
/* author */ (''),
/* organization */ (''),
/* preprocessor_version */ 'ST-DEVELOPER v20.1',
/* originating_system */ 'Autodesk Translation Framework v15.8.0.0',
/* authorisation */ '');

FILE_SCHEMA (('AUTOMOTIVE_DESIGN { 1 0 10303 214 3 1 1 }'));
ENDSEC;

DATA;
#10=MECHANICAL_DESIGN_GEOMETRIC_PRESENTATION_REPRESENTATION('',(#13),#817);
#11=SHAPE_REPRESENTATION_RELATIONSHIP('SRR','None',#824,#12);
#12=ADVANCED_BREP_SHAPE_REPRESENTATION('',(#14),#816);
#13=STYLED_ITEM('',(#833),#14);
#14=MANIFOLD_SOLID_BREP('Body1',#495);
#15=CONICAL_SURFACE('',#515,18.9142135623731,0.785398163397448);
#16=CONICAL_SURFACE('',#518,18.9142135623731,0.785398163397448);
#17=CONICAL_SURFACE('',#534,17.5,0.785398163397448);
#18=CONICAL_SURFACE('',#537,17.5,0.785398163397448);
#19=FACE_BOUND('',#63,.T.);
#20=FACE_BOUND('',#66,.T.);
#21=FACE_BOUND('',#79,.T.);
#22=FACE_BOUND('',#81,.T.);
#23=FACE_BOUND('',#84,.T.);
#24=CIRCLE('',#511,18.3284271247462);
#25=CIRCLE('',#514,18.3284271247462);
#26=CIRCLE('',#516,15.6854271247462);
#27=CIRCLE('',#519,15.6854271247462);
#28=CIRCLE('',#529,17.5);
#29=CIRCLE('',#533,17.5);
#30=CIRCLE('',#535,14.857);
#31=CIRCLE('',#538,14.857);
#32=FACE_OUTER_BOUND('',#61,.T.);
#33=FACE_OUTER_BOUND('',#62,.T.);
#34=FACE_OUTER_BOUND('',#64,.T.);
#35=FACE_OUTER_BOUND('',#65,.T.);
#36=FACE_OUTER_BOUND('',#67,.T.);
#37=FACE_OUTER_BOUND('',#68,.T.);
#38=FACE_OUTER_BOUND('',#69,.T.);
#39=FACE_OUTER_BOUND('',#70,.T.);
#40=FACE_OUTER_BOUND('',#71,.T.);
#41=FACE_OUTER_BOUND('',#72,.T.);
#42=FACE_OUTER_BOUND('',#73,.T.);
#43=FACE_OUTER_BOUND('',#74,.T.);
#44=FACE_OUTER_BOUND('',#75,.T.);
#45=FACE_OUTER_BOUND('',#76,.T.);
#46=FACE_OUTER_BOUND('',#77,.T.);
#47=FACE_OUTER_BOUND('',#78,.T.);
#48=FACE_OUTER_BOUND('',#80,.T.);
#49=FACE_OUTER_BOUND('',#82,.T.);
#50=FACE_OUTER_BOUND('',#83,.T.);
#51=FACE_OUTER_BOUND('',#85,.T.);
#52=FACE_OUTER_BOUND('',#86,.T.);
#53=FACE_OUTER_BOUND('',#87,.T.);
#54=FACE_OUTER_BOUND('',#88,.T.);
#55=FACE_OUTER_BOUND('',#89,.T.);
#56=FACE_OUTER_BOUND('',#90,.T.);
#57=FACE_OUTER_BOUND('',#91,.T.);
#58=FACE_OUTER_BOUND('',#92,.T.);
#59=FACE_OUTER_BOUND('',#93,.T.);
#60=FACE_OUTER_BOUND('',#94,.T.);
#61=EDGE_LOOP('',(#313,#314,#315,#316));
#62=EDGE_LOOP('',(#317,#318,#319,#320,#321,#322));
#63=EDGE_LOOP('',(#323));
#64=EDGE_LOOP('',(#324,#325,#326,#327));
#65=EDGE_LOOP('',(#328,#329,#330,#331,#332,#333));
#66=EDGE_LOOP('',(#334));
#67=EDGE_LOOP('',(#335,#336,#337,#338));
#68=EDGE_LOOP('',(#339));
#69=EDGE_LOOP('',(#340,#341,#342,#343));
#70=EDGE_LOOP('',(#344));
#71=EDGE_LOOP('',(#345,#346,#347,#348));
#72=EDGE_LOOP('',(#349,#350,#351,#352));
#73=EDGE_LOOP('',(#353,#354,#355,#356,#357));
#74=EDGE_LOOP('',(#358,#359,#360,#361));
#75=EDGE_LOOP('',(#362,#363,#364,#365));
#76=EDGE_LOOP('',(#366,#367,#368,#369,#370,#371));
#77=EDGE_LOOP('',(#372,#373,#374,#375));
#78=EDGE_LOOP('',(#376,#377,#378,#379,#380));
#79=EDGE_LOOP('',(#381));
#80=EDGE_LOOP('',(#382,#383,#384,#385,#386,#387,#388));
#81=EDGE_LOOP('',(#389,#390,#391,#392,#393,#394,#395));
#82=EDGE_LOOP('',(#396,#397,#398,#399));
#83=EDGE_LOOP('',(#400,#401,#402,#403,#404));
#84=EDGE_LOOP('',(#405));
#85=EDGE_LOOP('',(#406,#407,#408,#409));
#86=EDGE_LOOP('',(#410));
#87=EDGE_LOOP('',(#411,#412,#413,#414));
#88=EDGE_LOOP('',(#415));
#89=EDGE_LOOP('',(#416,#417,#418,#419));
#90=EDGE_LOOP('',(#420,#421,#422,#423));
#91=EDGE_LOOP('',(#424,#425,#426));
#92=EDGE_LOOP('',(#427,#428,#429,#430));
#93=EDGE_LOOP('',(#431,#432,#433,#434));
#94=EDGE_LOOP('',(#435,#436,#437,#438,#439,#440));
#95=LINE('',#682,#151);
#96=LINE('',#684,#152);
#97=LINE('',#686,#153);
#98=LINE('',#687,#154);
#99=LINE('',#690,#155);
#100=LINE('',#692,#156);
#101=LINE('',#694,#157);
#102=LINE('',#696,#158);
#103=LINE('',#697,#159);
#104=LINE('',#703,#160);
#105=LINE('',#705,#161);
#106=LINE('',#707,#162);
#107=LINE('',#708,#163);
#108=LINE('',#711,#164);
#109=LINE('',#713,#165);
#110=LINE('',#715,#166);
#111=LINE('',#717,#167);
#112=LINE('',#718,#168);
#113=LINE('',#724,#169);
#114=LINE('',#729,#170);
#115=LINE('',#733,#171);
#116=LINE('',#735,#172);
#117=LINE('',#736,#173);
#118=LINE('',#738,#174);
#119=LINE('',#739,#175);
#120=LINE('',#741,#176);
#121=LINE('',#743,#177);
#122=LINE('',#745,#178);
#123=LINE('',#746,#179);
#124=LINE('',#751,#180);
#125=LINE('',#753,#181);
#126=LINE('',#755,#182);
#127=LINE('',#756,#183);
#128=LINE('',#759,#184);
#129=LINE('',#761,#185);
#130=LINE('',#763,#186);
#131=LINE('',#764,#187);
#132=LINE('',#769,#188);
#133=LINE('',#771,#189);
#134=LINE('',#773,#190);
#135=LINE('',#775,#191);
#136=LINE('',#776,#192);
#137=LINE('',#779,#193);
#138=LINE('',#781,#194);
#139=LINE('',#782,#195);
#140=LINE('',#785,#196);
#141=LINE('',#787,#197);
#142=LINE('',#788,#198);
#143=LINE('',#793,#199);
#144=LINE('',#798,#200);
#145=LINE('',#803,#201);
#146=LINE('',#804,#202);
#147=LINE('',#806,#203);
#148=LINE('',#808,#204);
#149=LINE('',#810,#205);
#150=LINE('',#812,#206);
#151=VECTOR('',#550,10.);
#152=VECTOR('',#551,10.);
#153=VECTOR('',#552,10.);
#154=VECTOR('',#553,10.);
#155=VECTOR('',#556,10.);
#156=VECTOR('',#557,10.);
#157=VECTOR('',#558,10.);
#158=VECTOR('',#559,10.);
#159=VECTOR('',#560,10.);
#160=VECTOR('',#565,10.);
#161=VECTOR('',#566,10.);
#162=VECTOR('',#567,10.);
#163=VECTOR('',#568,10.);
#164=VECTOR('',#571,10.);
#165=VECTOR('',#572,10.);
#166=VECTOR('',#573,10.);
#167=VECTOR('',#574,10.);
#168=VECTOR('',#575,10.);
#169=VECTOR('',#582,17.5);
#170=VECTOR('',#589,17.5);
#171=VECTOR('',#594,10.);
#172=VECTOR('',#595,10.);
#173=VECTOR('',#596,10.);
#174=VECTOR('',#599,10.);
#175=VECTOR('',#600,10.);
#176=VECTOR('',#603,10.);
#177=VECTOR('',#606,10.);
#178=VECTOR('',#609,10.);
#179=VECTOR('',#610,10.);
#180=VECTOR('',#615,10.);
#181=VECTOR('',#616,10.);
#182=VECTOR('',#617,10.);
#183=VECTOR('',#618,10.);
#184=VECTOR('',#621,10.);
#185=VECTOR('',#622,10.);
#186=VECTOR('',#623,10.);
#187=VECTOR('',#624,10.);
#188=VECTOR('',#629,10.);
#189=VECTOR('',#630,10.);
#190=VECTOR('',#631,10.);
#191=VECTOR('',#632,10.);
#192=VECTOR('',#633,10.);
#193=VECTOR('',#636,10.);
#194=VECTOR('',#637,10.);
#195=VECTOR('',#638,10.);
#196=VECTOR('',#641,10.);
#197=VECTOR('',#642,10.);
#198=VECTOR('',#643,10.);
#199=VECTOR('',#648,17.5);
#200=VECTOR('',#655,17.5);
#201=VECTOR('',#662,10.);
#202=VECTOR('',#663,10.);
#203=VECTOR('',#666,10.);
#204=VECTOR('',#669,10.);
#205=VECTOR('',#672,10.);
#206=VECTOR('',#675,10.);
#207=VERTEX_POINT('',#680);
#208=VERTEX_POINT('',#681);
#209=VERTEX_POINT('',#683);
#210=VERTEX_POINT('',#685);
#211=VERTEX_POINT('',#689);
#212=VERTEX_POINT('',#691);
#213=VERTEX_POINT('',#693);
#214=VERTEX_POINT('',#695);
#215=VERTEX_POINT('',#698);
#216=VERTEX_POINT('',#701);
#217=VERTEX_POINT('',#702);
#218=VERTEX_POINT('',#704);
#219=VERTEX_POINT('',#706);
#220=VERTEX_POINT('',#710);
#221=VERTEX_POINT('',#712);
#222=VERTEX_POINT('',#714);
#223=VERTEX_POINT('',#716);
#224=VERTEX_POINT('',#719);
#225=VERTEX_POINT('',#722);
#226=VERTEX_POINT('',#727);
#227=VERTEX_POINT('',#732);
#228=VERTEX_POINT('',#734);
#229=VERTEX_POINT('',#749);
#230=VERTEX_POINT('',#750);
#231=VERTEX_POINT('',#752);
#232=VERTEX_POINT('',#754);
#233=VERTEX_POINT('',#758);
#234=VERTEX_POINT('',#760);
#235=VERTEX_POINT('',#762);
#236=VERTEX_POINT('',#765);
#237=VERTEX_POINT('',#768);
#238=VERTEX_POINT('',#770);
#239=VERTEX_POINT('',#772);
#240=VERTEX_POINT('',#774);
#241=VERTEX_POINT('',#778);
#242=VERTEX_POINT('',#780);
#243=VERTEX_POINT('',#784);
#244=VERTEX_POINT('',#786);
#245=VERTEX_POINT('',#789);
#246=VERTEX_POINT('',#792);
#247=VERTEX_POINT('',#797);
#248=VERTEX_POINT('',#802);
#249=EDGE_CURVE('',#207,#208,#95,.T.);
#250=EDGE_CURVE('',#209,#207,#96,.T.);
#251=EDGE_CURVE('',#210,#209,#97,.F.);
#252=EDGE_CURVE('',#208,#210,#98,.T.);
#253=EDGE_CURVE('',#211,#210,#99,.F.);
#254=EDGE_CURVE('',#211,#212,#100,.F.);
#255=EDGE_CURVE('',#213,#212,#101,.F.);
#256=EDGE_CURVE('',#213,#214,#102,.F.);
#257=EDGE_CURVE('',#208,#214,#103,.T.);
#258=EDGE_CURVE('',#215,#215,#24,.F.);
#259=EDGE_CURVE('',#216,#217,#104,.T.);
#260=EDGE_CURVE('',#218,#216,#105,.T.);
#261=EDGE_CURVE('',#219,#218,#106,.F.);
#262=EDGE_CURVE('',#217,#219,#107,.T.);
#263=EDGE_CURVE('',#220,#216,#108,.T.);
#264=EDGE_CURVE('',#221,#220,#109,.T.);
#265=EDGE_CURVE('',#221,#222,#110,.T.);
#266=EDGE_CURVE('',#223,#222,#111,.T.);
#267=EDGE_CURVE('',#218,#223,#112,.F.);
#268=EDGE_CURVE('',#224,#224,#25,.F.);
#269=EDGE_CURVE('',#225,#225,#26,.T.);
#270=EDGE_CURVE('',#225,#215,#113,.T.);
#271=EDGE_CURVE('',#226,#226,#27,.F.);
#272=EDGE_CURVE('',#226,#224,#114,.T.);
#273=EDGE_CURVE('',#214,#227,#115,.T.);
#274=EDGE_CURVE('',#213,#228,#116,.T.);
#275=EDGE_CURVE('',#227,#228,#117,.T.);
#276=EDGE_CURVE('',#227,#220,#118,.T.);
#277=EDGE_CURVE('',#228,#221,#119,.T.);
#278=EDGE_CURVE('',#212,#222,#120,.T.);
#279=EDGE_CURVE('',#223,#211,#121,.F.);
#280=EDGE_CURVE('',#217,#207,#122,.T.);
#281=EDGE_CURVE('',#209,#219,#123,.F.);
#282=EDGE_CURVE('',#229,#230,#124,.T.);
#283=EDGE_CURVE('',#230,#231,#125,.T.);
#284=EDGE_CURVE('',#231,#232,#126,.T.);
#285=EDGE_CURVE('',#232,#229,#127,.T.);
#286=EDGE_CURVE('',#233,#230,#128,.T.);
#287=EDGE_CURVE('',#234,#233,#129,.T.);
#288=EDGE_CURVE('',#235,#234,#130,.T.);
#289=EDGE_CURVE('',#235,#231,#131,.T.);
#290=EDGE_CURVE('',#236,#236,#28,.T.);
#291=EDGE_CURVE('',#229,#237,#132,.T.);
#292=EDGE_CURVE('',#238,#237,#133,.T.);
#293=EDGE_CURVE('',#238,#239,#134,.T.);
#294=EDGE_CURVE('',#240,#239,#135,.T.);
#295=EDGE_CURVE('',#240,#233,#136,.T.);
#296=EDGE_CURVE('',#237,#241,#137,.T.);
#297=EDGE_CURVE('',#241,#242,#138,.T.);
#298=EDGE_CURVE('',#242,#238,#139,.T.);
#299=EDGE_CURVE('',#242,#243,#140,.T.);
#300=EDGE_CURVE('',#243,#244,#141,.T.);
#301=EDGE_CURVE('',#244,#239,#142,.T.);
#302=EDGE_CURVE('',#245,#245,#29,.T.);
#303=EDGE_CURVE('',#236,#246,#143,.T.);
#304=EDGE_CURVE('',#246,#246,#30,.T.);
#305=EDGE_CURVE('',#245,#247,#144,.T.);
#306=EDGE_CURVE('',#247,#247,#31,.T.);
#307=EDGE_CURVE('',#240,#248,#145,.T.);
#308=EDGE_CURVE('',#234,#248,#146,.T.);
#309=EDGE_CURVE('',#248,#244,#147,.T.);
#310=EDGE_CURVE('',#234,#244,#148,.T.);
#311=EDGE_CURVE('',#243,#235,#149,.T.);
#312=EDGE_CURVE('',#232,#241,#150,.T.);
#313=ORIENTED_EDGE('',*,*,#249,.F.);
#314=ORIENTED_EDGE('',*,*,#250,.F.);
#315=ORIENTED_EDGE('',*,*,#251,.F.);
#316=ORIENTED_EDGE('',*,*,#252,.F.);
#317=ORIENTED_EDGE('',*,*,#252,.T.);
#318=ORIENTED_EDGE('',*,*,#253,.F.);
#319=ORIENTED_EDGE('',*,*,#254,.T.);
#320=ORIENTED_EDGE('',*,*,#255,.F.);
#321=ORIENTED_EDGE('',*,*,#256,.T.);
#322=ORIENTED_EDGE('',*,*,#257,.F.);
#323=ORIENTED_EDGE('',*,*,#258,.F.);
#324=ORIENTED_EDGE('',*,*,#259,.F.);
#325=ORIENTED_EDGE('',*,*,#260,.F.);
#326=ORIENTED_EDGE('',*,*,#261,.F.);
#327=ORIENTED_EDGE('',*,*,#262,.F.);
#328=ORIENTED_EDGE('',*,*,#260,.T.);
#329=ORIENTED_EDGE('',*,*,#263,.F.);
#330=ORIENTED_EDGE('',*,*,#264,.F.);
#331=ORIENTED_EDGE('',*,*,#265,.T.);
#332=ORIENTED_EDGE('',*,*,#266,.F.);
#333=ORIENTED_EDGE('',*,*,#267,.F.);
#334=ORIENTED_EDGE('',*,*,#268,.F.);
#335=ORIENTED_EDGE('',*,*,#269,.F.);
#336=ORIENTED_EDGE('',*,*,#270,.T.);
#337=ORIENTED_EDGE('',*,*,#258,.T.);
#338=ORIENTED_EDGE('',*,*,#270,.F.);
#339=ORIENTED_EDGE('',*,*,#269,.T.);
#340=ORIENTED_EDGE('',*,*,#271,.T.);
#341=ORIENTED_EDGE('',*,*,#272,.T.);
#342=ORIENTED_EDGE('',*,*,#268,.T.);
#343=ORIENTED_EDGE('',*,*,#272,.F.);
#344=ORIENTED_EDGE('',*,*,#271,.F.);
#345=ORIENTED_EDGE('',*,*,#273,.F.);
#346=ORIENTED_EDGE('',*,*,#256,.F.);
#347=ORIENTED_EDGE('',*,*,#274,.T.);
#348=ORIENTED_EDGE('',*,*,#275,.F.);
#349=ORIENTED_EDGE('',*,*,#276,.F.);
#350=ORIENTED_EDGE('',*,*,#275,.T.);
#351=ORIENTED_EDGE('',*,*,#277,.T.);
#352=ORIENTED_EDGE('',*,*,#264,.T.);
#353=ORIENTED_EDGE('',*,*,#277,.F.);
#354=ORIENTED_EDGE('',*,*,#274,.F.);
#355=ORIENTED_EDGE('',*,*,#255,.T.);
#356=ORIENTED_EDGE('',*,*,#278,.T.);
#357=ORIENTED_EDGE('',*,*,#265,.F.);
#358=ORIENTED_EDGE('',*,*,#279,.F.);
#359=ORIENTED_EDGE('',*,*,#266,.T.);
#360=ORIENTED_EDGE('',*,*,#278,.F.);
#361=ORIENTED_EDGE('',*,*,#254,.F.);
#362=ORIENTED_EDGE('',*,*,#250,.T.);
#363=ORIENTED_EDGE('',*,*,#280,.F.);
#364=ORIENTED_EDGE('',*,*,#262,.T.);
#365=ORIENTED_EDGE('',*,*,#281,.F.);
#366=ORIENTED_EDGE('',*,*,#251,.T.);
#367=ORIENTED_EDGE('',*,*,#281,.T.);
#368=ORIENTED_EDGE('',*,*,#261,.T.);
#369=ORIENTED_EDGE('',*,*,#267,.T.);
#370=ORIENTED_EDGE('',*,*,#279,.T.);
#371=ORIENTED_EDGE('',*,*,#253,.T.);
#372=ORIENTED_EDGE('',*,*,#282,.T.);
#373=ORIENTED_EDGE('',*,*,#283,.T.);
#374=ORIENTED_EDGE('',*,*,#284,.T.);
#375=ORIENTED_EDGE('',*,*,#285,.T.);
#376=ORIENTED_EDGE('',*,*,#283,.F.);
#377=ORIENTED_EDGE('',*,*,#286,.F.);
#378=ORIENTED_EDGE('',*,*,#287,.F.);
#379=ORIENTED_EDGE('',*,*,#288,.F.);
#380=ORIENTED_EDGE('',*,*,#289,.T.);
#381=ORIENTED_EDGE('',*,*,#290,.T.);
#382=ORIENTED_EDGE('',*,*,#282,.F.);
#383=ORIENTED_EDGE('',*,*,#291,.T.);
#384=ORIENTED_EDGE('',*,*,#292,.F.);
#385=ORIENTED_EDGE('',*,*,#293,.T.);
#386=ORIENTED_EDGE('',*,*,#294,.F.);
#387=ORIENTED_EDGE('',*,*,#295,.T.);
#388=ORIENTED_EDGE('',*,*,#286,.T.);
#389=ORIENTED_EDGE('',*,*,#259,.T.);
#390=ORIENTED_EDGE('',*,*,#280,.T.);
#391=ORIENTED_EDGE('',*,*,#249,.T.);
#392=ORIENTED_EDGE('',*,*,#257,.T.);
#393=ORIENTED_EDGE('',*,*,#273,.T.);
#394=ORIENTED_EDGE('',*,*,#276,.T.);
#395=ORIENTED_EDGE('',*,*,#263,.T.);
#396=ORIENTED_EDGE('',*,*,#292,.T.);
#397=ORIENTED_EDGE('',*,*,#296,.T.);
#398=ORIENTED_EDGE('',*,*,#297,.T.);
#399=ORIENTED_EDGE('',*,*,#298,.T.);
#400=ORIENTED_EDGE('',*,*,#298,.F.);
#401=ORIENTED_EDGE('',*,*,#299,.T.);
#402=ORIENTED_EDGE('',*,*,#300,.T.);
#403=ORIENTED_EDGE('',*,*,#301,.T.);
#404=ORIENTED_EDGE('',*,*,#293,.F.);
#405=ORIENTED_EDGE('',*,*,#302,.T.);
#406=ORIENTED_EDGE('',*,*,#290,.F.);
#407=ORIENTED_EDGE('',*,*,#303,.T.);
#408=ORIENTED_EDGE('',*,*,#304,.T.);
#409=ORIENTED_EDGE('',*,*,#303,.F.);
#410=ORIENTED_EDGE('',*,*,#304,.F.);
#411=ORIENTED_EDGE('',*,*,#302,.F.);
#412=ORIENTED_EDGE('',*,*,#305,.T.);
#413=ORIENTED_EDGE('',*,*,#306,.F.);
#414=ORIENTED_EDGE('',*,*,#305,.F.);
#415=ORIENTED_EDGE('',*,*,#306,.T.);
#416=ORIENTED_EDGE('',*,*,#295,.F.);
#417=ORIENTED_EDGE('',*,*,#307,.T.);
#418=ORIENTED_EDGE('',*,*,#308,.F.);
#419=ORIENTED_EDGE('',*,*,#287,.T.);
#420=ORIENTED_EDGE('',*,*,#294,.T.);
#421=ORIENTED_EDGE('',*,*,#301,.F.);
#422=ORIENTED_EDGE('',*,*,#309,.F.);
#423=ORIENTED_EDGE('',*,*,#307,.F.);
#424=ORIENTED_EDGE('',*,*,#309,.T.);
#425=ORIENTED_EDGE('',*,*,#310,.F.);
#426=ORIENTED_EDGE('',*,*,#308,.T.);
#427=ORIENTED_EDGE('',*,*,#310,.T.);
#428=ORIENTED_EDGE('',*,*,#300,.F.);
#429=ORIENTED_EDGE('',*,*,#311,.T.);
#430=ORIENTED_EDGE('',*,*,#288,.T.);
#431=ORIENTED_EDGE('',*,*,#285,.F.);
#432=ORIENTED_EDGE('',*,*,#312,.T.);
#433=ORIENTED_EDGE('',*,*,#296,.F.);
#434=ORIENTED_EDGE('',*,*,#291,.F.);
#435=ORIENTED_EDGE('',*,*,#284,.F.);
#436=ORIENTED_EDGE('',*,*,#289,.F.);
#437=ORIENTED_EDGE('',*,*,#311,.F.);
#438=ORIENTED_EDGE('',*,*,#299,.F.);
#439=ORIENTED_EDGE('',*,*,#297,.F.);
#440=ORIENTED_EDGE('',*,*,#312,.F.);
#441=PLANE('',#509);
#442=PLANE('',#510);
#443=PLANE('',#512);
#444=PLANE('',#513);
#445=PLANE('',#517);
#446=PLANE('',#520);
#447=PLANE('',#521);
#448=PLANE('',#522);
#449=PLANE('',#523);
#450=PLANE('',#524);
#451=PLANE('',#525);
#452=PLANE('',#526);
#453=PLANE('',#527);
#454=PLANE('',#528);
#455=PLANE('',#530);
#456=PLANE('',#531);
#457=PLANE('',#532);
#458=PLANE('',#536);
#459=PLANE('',#539);
#460=PLANE('',#540);
#461=PLANE('',#541);
#462=PLANE('',#542);
#463=PLANE('',#543);
#464=PLANE('',#544);
#465=PLANE('',#545);
#466=ADVANCED_FACE('',(#32),#441,.F.);
#467=ADVANCED_FACE('',(#33,#19),#442,.F.);
#468=ADVANCED_FACE('',(#34),#443,.F.);
#469=ADVANCED_FACE('',(#35,#20),#444,.F.);
#470=ADVANCED_FACE('',(#36),#15,.T.);
#471=ADVANCED_FACE('',(#37),#445,.T.);
#472=ADVANCED_FACE('',(#38),#16,.T.);
#473=ADVANCED_FACE('',(#39),#446,.F.);
#474=ADVANCED_FACE('',(#40),#447,.F.);
#475=ADVANCED_FACE('',(#41),#448,.F.);
#476=ADVANCED_FACE('',(#42),#449,.F.);
#477=ADVANCED_FACE('',(#43),#450,.F.);
#478=ADVANCED_FACE('',(#44),#451,.F.);
#479=ADVANCED_FACE('',(#45),#452,.T.);
#480=ADVANCED_FACE('',(#46),#453,.T.);
#481=ADVANCED_FACE('',(#47,#21),#454,.T.);
#482=ADVANCED_FACE('',(#48,#22),#455,.T.);
#483=ADVANCED_FACE('',(#49),#456,.T.);
#484=ADVANCED_FACE('',(#50,#23),#457,.T.);
#485=ADVANCED_FACE('',(#51),#17,.F.);
#486=ADVANCED_FACE('',(#52),#458,.F.);
#487=ADVANCED_FACE('',(#53),#18,.F.);
#488=ADVANCED_FACE('',(#54),#459,.T.);
#489=ADVANCED_FACE('',(#55),#460,.T.);
#490=ADVANCED_FACE('',(#56),#461,.T.);
#491=ADVANCED_FACE('',(#57),#462,.T.);
#492=ADVANCED_FACE('',(#58),#463,.T.);
#493=ADVANCED_FACE('',(#59),#464,.T.);
#494=ADVANCED_FACE('',(#60),#465,.F.);
#495=CLOSED_SHELL('',(#466,#467,#468,#469,#470,#471,#472,#473,#474,#475,
#476,#477,#478,#479,#480,#481,#482,#483,#484,#485,#486,#487,#488,#489,#490,
#491,#492,#493,#494));
#496=DERIVED_UNIT_ELEMENT(#498,1.);
#497=DERIVED_UNIT_ELEMENT(#819,-3.);
#498=(
MASS_UNIT()
NAMED_UNIT(*)
SI_UNIT(.KILO.,.GRAM.)
);
#499=DERIVED_UNIT((#496,#497));
#500=MEASURE_REPRESENTATION_ITEM('density measure',
POSITIVE_RATIO_MEASURE(7850.),#499);
#501=PROPERTY_DEFINITION_REPRESENTATION(#506,#503);
#502=PROPERTY_DEFINITION_REPRESENTATION(#507,#504);
#503=REPRESENTATION('material name',(#505),#816);
#504=REPRESENTATION('density',(#500),#816);
#505=DESCRIPTIVE_REPRESENTATION_ITEM('Steel','Steel');
#506=PROPERTY_DEFINITION('material property','material name',#826);
#507=PROPERTY_DEFINITION('material property','density of part',#826);
#508=AXIS2_PLACEMENT_3D('',#678,#546,#547);
#509=AXIS2_PLACEMENT_3D('',#679,#548,#549);
#510=AXIS2_PLACEMENT_3D('',#688,#554,#555);
#511=AXIS2_PLACEMENT_3D('',#699,#561,#562);
#512=AXIS2_PLACEMENT_3D('',#700,#563,#564);
#513=AXIS2_PLACEMENT_3D('',#709,#569,#570);
#514=AXIS2_PLACEMENT_3D('',#720,#576,#577);
#515=AXIS2_PLACEMENT_3D('',#721,#578,#579);
#516=AXIS2_PLACEMENT_3D('',#723,#580,#581);
#517=AXIS2_PLACEMENT_3D('',#725,#583,#584);
#518=AXIS2_PLACEMENT_3D('',#726,#585,#586);
#519=AXIS2_PLACEMENT_3D('',#728,#587,#588);
#520=AXIS2_PLACEMENT_3D('',#730,#590,#591);
#521=AXIS2_PLACEMENT_3D('',#731,#592,#593);
#522=AXIS2_PLACEMENT_3D('',#737,#597,#598);
#523=AXIS2_PLACEMENT_3D('',#740,#601,#602);
#524=AXIS2_PLACEMENT_3D('',#742,#604,#605);
#525=AXIS2_PLACEMENT_3D('',#744,#607,#608);
#526=AXIS2_PLACEMENT_3D('',#747,#611,#612);
#527=AXIS2_PLACEMENT_3D('',#748,#613,#614);
#528=AXIS2_PLACEMENT_3D('',#757,#619,#620);
#529=AXIS2_PLACEMENT_3D('',#766,#625,#626);
#530=AXIS2_PLACEMENT_3D('',#767,#627,#628);
#531=AXIS2_PLACEMENT_3D('',#777,#634,#635);
#532=AXIS2_PLACEMENT_3D('',#783,#639,#640);
#533=AXIS2_PLACEMENT_3D('',#790,#644,#645);
#534=AXIS2_PLACEMENT_3D('',#791,#646,#647);
#535=AXIS2_PLACEMENT_3D('',#794,#649,#650);
#536=AXIS2_PLACEMENT_3D('',#795,#651,#652);
#537=AXIS2_PLACEMENT_3D('',#796,#653,#654);
#538=AXIS2_PLACEMENT_3D('',#799,#656,#657);
#539=AXIS2_PLACEMENT_3D('',#800,#658,#659);
#540=AXIS2_PLACEMENT_3D('',#801,#660,#661);
#541=AXIS2_PLACEMENT_3D('',#805,#664,#665);
#542=AXIS2_PLACEMENT_3D('',#807,#667,#668);
#543=AXIS2_PLACEMENT_3D('',#809,#670,#671);
#544=AXIS2_PLACEMENT_3D('',#811,#673,#674);
#545=AXIS2_PLACEMENT_3D('',#813,#676,#677);
#546=DIRECTION('axis',(0.,0.,1.));
#547=DIRECTION('refdir',(1.,0.,0.));
#548=DIRECTION('center_axis',(-0.707106781186548,0.,0.707106781186547));
#549=DIRECTION('ref_axis',(0.707106781186547,0.,0.707106781186548));
#550=DIRECTION('',(-0.707106781186547,0.,-0.707106781186548));
#551=DIRECTION('',(0.,1.,0.));
#552=DIRECTION('',(-0.707106781186547,0.,-0.707106781186548));
#553=DIRECTION('',(0.,-1.,0.));
#554=DIRECTION('center_axis',(-1.,0.,-8.88178419700125E-17));
#555=DIRECTION('ref_axis',(-8.88178419700125E-17,0.,1.));
#556=DIRECTION('',(8.88178419700125E-17,0.,-1.));
#557=DIRECTION('',(0.,-1.,0.));
#558=DIRECTION('',(3.50009173123372E-17,0.919078158561409,-0.394075295413668));
#559=DIRECTION('',(0.,-1.,0.));
#560=DIRECTION('',(8.88178419700125E-17,0.,-1.));
#561=DIRECTION('center_axis',(-1.,0.,-8.88178419700125E-17));
#562=DIRECTION('ref_axis',(0.,0.,-1.));
#563=DIRECTION('center_axis',(0.707106781186549,0.,0.707106781186546));
#564=DIRECTION('ref_axis',(0.707106781186546,0.,-0.707106781186549));
#565=DIRECTION('',(-0.707106781186546,0.,0.707106781186549));
#566=DIRECTION('',(0.,1.,0.));
#567=DIRECTION('',(-0.707106781186546,0.,0.707106781186549));
#568=DIRECTION('',(0.,-1.,0.));
#569=DIRECTION('center_axis',(1.,0.,0.));
#570=DIRECTION('ref_axis',(0.,0.,-1.));
#571=DIRECTION('',(0.,0.,1.));
#572=DIRECTION('',(0.,1.,0.));
#573=DIRECTION('',(0.,-0.919078158561409,0.394075295413668));
#574=DIRECTION('',(0.,1.,0.));
#575=DIRECTION('',(0.,0.,1.));
#576=DIRECTION('center_axis',(1.,0.,0.));
#577=DIRECTION('ref_axis',(0.,0.,-1.));
#578=DIRECTION('center_axis',(-1.,0.,0.));
#579=DIRECTION('ref_axis',(0.,0.,-1.));
#580=DIRECTION('center_axis',(1.,0.,0.));
#581=DIRECTION('ref_axis',(0.,0.,-1.));
#582=DIRECTION('',(-0.707106781186548,8.65956056235493E-17,0.707106781186548));
#583=DIRECTION('center_axis',(1.,0.,0.));
#584=DIRECTION('ref_axis',(0.,0.,-1.));
#585=DIRECTION('center_axis',(1.,0.,0.));
#586=DIRECTION('ref_axis',(0.,0.,-1.));
#587=DIRECTION('center_axis',(-1.,0.,0.));
#588=DIRECTION('ref_axis',(0.,0.,-1.));
#589=DIRECTION('',(0.707106781186548,8.65956056235493E-17,0.707106781186548));
#590=DIRECTION('center_axis',(1.,0.,0.));
#591=DIRECTION('ref_axis',(0.,0.,-1.));
#592=DIRECTION('center_axis',(-0.650791373455969,0.,-0.759256602365297));
#593=DIRECTION('ref_axis',(0.759256602365297,0.,-0.650791373455969));
#594=DIRECTION('',(0.759256602365297,0.,-0.650791373455969));
#595=DIRECTION('',(0.417721508442786,0.835051544512759,-0.358047007236674));
#596=DIRECTION('',(0.,-1.,0.));
#597=DIRECTION('center_axis',(0.650791373455968,0.,-0.759256602365297));
#598=DIRECTION('ref_axis',(0.759256602365297,0.,0.650791373455968));
#599=DIRECTION('',(0.759256602365297,0.,0.650791373455968));
#600=DIRECTION('',(0.417721508442786,-0.835051544512759,0.358047007236674));
#601=DIRECTION('center_axis',(0.,-0.394075295413668,-0.919078158561409));
#602=DIRECTION('ref_axis',(0.,0.919078158561409,-0.394075295413668));
#603=DIRECTION('',(1.,0.,0.));
#604=DIRECTION('center_axis',(0.,0.,-1.));
#605=DIRECTION('ref_axis',(-1.,0.,0.));
#606=DIRECTION('',(1.,0.,0.));
#607=DIRECTION('center_axis',(-1.26882631385732E-16,0.,1.));
#608=DIRECTION('ref_axis',(1.,0.,1.26882631385732E-16));
#609=DIRECTION('',(-1.,0.,-1.26882631385732E-16));
#610=DIRECTION('',(-1.,0.,-1.26882631385732E-16));
#611=DIRECTION('center_axis',(0.,1.,0.));
#612=DIRECTION('ref_axis',(1.,0.,0.));
#613=DIRECTION('center_axis',(-0.707106781186548,0.,0.707106781186547));
#614=DIRECTION('ref_axis',(0.707106781186547,0.,0.707106781186548));
#615=DIRECTION('',(-0.707106781186547,0.,-0.707106781186548));
#616=DIRECTION('',(0.,-1.,0.));
#617=DIRECTION('',(0.707106781186547,0.,0.707106781186548));
#618=DIRECTION('',(0.,1.,0.));
#619=DIRECTION('center_axis',(-1.,0.,-8.88178419700125E-17));
#620=DIRECTION('ref_axis',(-8.88178419700125E-17,0.,1.));
#621=DIRECTION('',(-8.88178419700125E-17,0.,1.));
#622=DIRECTION('',(0.,1.,0.));
#623=DIRECTION('',(0.,1.,0.));
#624=DIRECTION('',(-8.88178419700125E-17,0.,1.));
#625=DIRECTION('center_axis',(1.,0.,8.88178419700125E-17));
#626=DIRECTION('ref_axis',(0.,0.,-1.));
#627=DIRECTION('center_axis',(0.,1.,0.));
#628=DIRECTION('ref_axis',(0.,0.,1.));
#629=DIRECTION('',(1.,0.,1.26882631385732E-16));
#630=DIRECTION('',(-0.707106781186546,0.,0.707106781186549));
#631=DIRECTION('',(0.,0.,-1.));
#632=DIRECTION('',(0.759256602365297,0.,0.650791373455968));
#633=DIRECTION('',(-0.759256602365297,0.,0.650791373455969));
#634=DIRECTION('center_axis',(0.707106781186549,0.,0.707106781186546));
#635=DIRECTION('ref_axis',(0.707106781186546,0.,-0.707106781186549));
#636=DIRECTION('',(0.,-1.,0.));
#637=DIRECTION('',(0.707106781186546,0.,-0.707106781186549));
#638=DIRECTION('',(0.,1.,0.));
#639=DIRECTION('center_axis',(1.,0.,0.));
#640=DIRECTION('ref_axis',(0.,0.,-1.));
#641=DIRECTION('',(0.,0.,-1.));
#642=DIRECTION('',(0.,1.,0.));
#643=DIRECTION('',(0.,1.,0.));
#644=DIRECTION('center_axis',(-1.,0.,0.));
#645=DIRECTION('ref_axis',(0.,0.,-1.));
#646=DIRECTION('center_axis',(-1.,0.,0.));
#647=DIRECTION('ref_axis',(0.,0.,-1.));
#648=DIRECTION('',(0.707106781186548,-8.65956056235493E-17,-0.707106781186547));
#649=DIRECTION('center_axis',(1.,0.,0.));
#650=DIRECTION('ref_axis',(0.,0.,-1.));
#651=DIRECTION('center_axis',(1.,0.,0.));
#652=DIRECTION('ref_axis',(0.,0.,-1.));
#653=DIRECTION('center_axis',(1.,0.,0.));
#654=DIRECTION('ref_axis',(0.,0.,-1.));
#655=DIRECTION('',(-0.707106781186548,-8.65956056235493E-17,-0.707106781186547));
#656=DIRECTION('center_axis',(1.,0.,0.));
#657=DIRECTION('ref_axis',(0.,0.,-1.));
#658=DIRECTION('center_axis',(1.,0.,0.));
#659=DIRECTION('ref_axis',(0.,0.,-1.));
#660=DIRECTION('center_axis',(-0.650791373455969,0.,-0.759256602365297));
#661=DIRECTION('ref_axis',(0.759256602365297,0.,-0.650791373455969));
#662=DIRECTION('',(0.,-1.,0.));
#663=DIRECTION('',(0.417721508442786,0.835051544512759,-0.358047007236674));
#664=DIRECTION('center_axis',(0.650791373455968,0.,-0.759256602365297));
#665=DIRECTION('ref_axis',(0.759256602365297,0.,0.650791373455968));
#666=DIRECTION('',(0.417721508442786,-0.835051544512759,0.358047007236674));
#667=DIRECTION('center_axis',(0.,-0.394075295413668,-0.919078158561409));
#668=DIRECTION('ref_axis',(0.,0.919078158561409,-0.394075295413668));
#669=DIRECTION('',(1.,0.,0.));
#670=DIRECTION('center_axis',(0.,0.,-1.));
#671=DIRECTION('ref_axis',(-1.,0.,0.));
#672=DIRECTION('',(-1.,0.,0.));
#673=DIRECTION('center_axis',(-1.26882631385732E-16,0.,1.));
#674=DIRECTION('ref_axis',(1.,0.,1.26882631385732E-16));
#675=DIRECTION('',(1.,0.,1.26882631385732E-16));
#676=DIRECTION('center_axis',(0.,1.,0.));
#677=DIRECTION('ref_axis',(1.,0.,0.));
#678=CARTESIAN_POINT('',(0.,0.,0.));
#679=CARTESIAN_POINT('Origin',(-15.0857864376269,0.,22.5857864376269));
#680=CARTESIAN_POINT('',(-14.6715728752538,60.,23.));
#681=CARTESIAN_POINT('',(-15.5,60.,22.1715728752538));
#682=CARTESIAN_POINT('',(-16.9607864376269,60.,20.7107864376269));
#683=CARTESIAN_POINT('',(-14.6715728752538,2.,23.));
#684=CARTESIAN_POINT('',(-14.6715728752538,0.,23.));
#685=CARTESIAN_POINT('',(-15.5,2.,22.1715728752538));
#686=CARTESIAN_POINT('',(-16.9607864376269,2.,20.7107864376269));
#687=CARTESIAN_POINT('',(-15.5,0.,22.1715728752538));
#688=CARTESIAN_POINT('Origin',(-15.5,0.,-25.));
#689=CARTESIAN_POINT('',(-15.5,2.,-23.));
#690=CARTESIAN_POINT('',(-15.5,2.,-12.5));
#691=CARTESIAN_POINT('',(-15.5,26.4155107152597,-23.));
#692=CARTESIAN_POINT('',(-15.5,0.,-23.));
#693=CARTESIAN_POINT('',(-15.5,28.9346334450323,-24.0801301550592));
#694=CARTESIAN_POINT('',(-15.5,18.8319290345975,-19.7483699147215));
#695=CARTESIAN_POINT('',(-15.5,60.,-24.0801301550592));
#696=CARTESIAN_POINT('',(-15.5,30.,-24.0801301550592));
#697=CARTESIAN_POINT('',(-15.5,60.,-12.5));
#698=CARTESIAN_POINT('',(-15.5,30.,18.3284271247462));
#699=CARTESIAN_POINT('Origin',(-15.5,30.,0.));
#700=CARTESIAN_POINT('Origin',(15.0857864376269,0.,22.5857864376269));
#701=CARTESIAN_POINT('',(15.5,60.,22.1715728752538));
#702=CARTESIAN_POINT('',(14.6715728752538,60.,23.));
#703=CARTESIAN_POINT('',(16.9607864376269,60.,20.7107864376269));
#704=CARTESIAN_POINT('',(15.5,2.,22.1715728752538));
#705=CARTESIAN_POINT('',(15.5,0.,22.1715728752538));
#706=CARTESIAN_POINT('',(14.6715728752538,2.,23.));
#707=CARTESIAN_POINT('',(16.9607864376269,2.,20.7107864376269));
#708=CARTESIAN_POINT('',(14.6715728752538,0.,23.));
#709=CARTESIAN_POINT('Origin',(15.5,0.,25.));
#710=CARTESIAN_POINT('',(15.5,60.,-24.0801301550592));
#711=CARTESIAN_POINT('',(15.5,60.,12.5));
#712=CARTESIAN_POINT('',(15.5,28.9346334450323,-24.0801301550592));
#713=CARTESIAN_POINT('',(15.5,30.,-24.0801301550592));
#714=CARTESIAN_POINT('',(15.5,26.4155107152597,-23.));
#715=CARTESIAN_POINT('',(15.5,9.7772791135141,-15.8659864533373));
#716=CARTESIAN_POINT('',(15.5,2.,-23.));
#717=CARTESIAN_POINT('',(15.5,0.,-23.));
#718=CARTESIAN_POINT('',(15.5,2.,12.5));
#719=CARTESIAN_POINT('',(15.5,30.,18.3284271247462));
#720=CARTESIAN_POINT('Origin',(15.5,30.,0.));
#721=CARTESIAN_POINT('Origin',(-16.0857864376269,30.,0.));
#722=CARTESIAN_POINT('',(-12.857,30.,15.6854271247462));
#723=CARTESIAN_POINT('Origin',(-12.857,30.,0.));
#724=CARTESIAN_POINT('',(-16.0857864376269,30.,18.9142135623731));
#725=CARTESIAN_POINT('Origin',(-12.857,30.,0.));
#726=CARTESIAN_POINT('Origin',(16.0857864376269,30.,0.));
#727=CARTESIAN_POINT('',(12.857,30.,15.6854271247462));
#728=CARTESIAN_POINT('Origin',(12.857,30.,0.));
#729=CARTESIAN_POINT('',(16.0857864376269,30.,18.9142135623731));
#730=CARTESIAN_POINT('Origin',(12.857,30.,0.));
#731=CARTESIAN_POINT('Origin',(-16.1984172530881,60.,-23.4814867952694));
#732=CARTESIAN_POINT('',(2.31296463463574E-15,60.,-37.3658444407735));
#733=CARTESIAN_POINT('',(-17.3307701942645,60.,-22.5108985599753));
#734=CARTESIAN_POINT('',(1.11022302462516E-15,59.9201074470745,-37.3658444407735));
#735=CARTESIAN_POINT('',(-8.0295045482797,43.8686232903003,-30.4834119708194));
#736=CARTESIAN_POINT('',(1.11022302462516E-15,60.,-37.3658444407735));
#737=CARTESIAN_POINT('Origin',(-1.30158274691194,60.,-38.4814867952694));
#738=CARTESIAN_POINT('',(8.58077019426453,60.,-30.0108985599753));
#739=CARTESIAN_POINT('',(5.38097651571972,49.1631972578208,-32.7535788558708));
#740=CARTESIAN_POINT('Origin',(2.22044604925031E-15,32.8372803985107,-25.7534772330645));
#741=CARTESIAN_POINT('',(8.75,26.4155107152597,-23.));
#742=CARTESIAN_POINT('Origin',(17.5,0.,-23.));
#743=CARTESIAN_POINT('',(8.75,2.,-23.));
#744=CARTESIAN_POINT('Origin',(-17.5,0.,23.));
#745=CARTESIAN_POINT('',(-8.75,60.,23.));
#746=CARTESIAN_POINT('',(-8.75,2.,23.));
#747=CARTESIAN_POINT('Origin',(0.,2.,0.));
#748=CARTESIAN_POINT('Origin',(-16.5,0.,24.));
#749=CARTESIAN_POINT('',(-15.5,60.,25.));
#750=CARTESIAN_POINT('',(-17.5,60.,23.));
#751=CARTESIAN_POINT('',(-18.375,60.,22.125));
#752=CARTESIAN_POINT('',(-17.5,0.,23.));
#753=CARTESIAN_POINT('',(-17.5,0.,23.));
#754=CARTESIAN_POINT('',(-15.5,0.,25.));
#755=CARTESIAN_POINT('',(-18.375,0.,22.125));
#756=CARTESIAN_POINT('',(-15.5,0.,25.));
#757=CARTESIAN_POINT('Origin',(-17.5,0.,-25.));
#758=CARTESIAN_POINT('',(-17.5,60.,-25.));
#759=CARTESIAN_POINT('',(-17.5,60.,-25.));
#760=CARTESIAN_POINT('',(-17.5,25.,-25.));
#761=CARTESIAN_POINT('',(-17.5,0.,-25.));
#762=CARTESIAN_POINT('',(-17.5,0.,-25.));
#763=CARTESIAN_POINT('',(-17.5,0.,-25.));
#764=CARTESIAN_POINT('',(-17.5,0.,-25.));
#765=CARTESIAN_POINT('',(-17.5,30.,17.5));
#766=CARTESIAN_POINT('Origin',(-17.5,30.,0.));
#767=CARTESIAN_POINT('Origin',(0.,60.,0.));
#768=CARTESIAN_POINT('',(15.5,60.,25.));
#769=CARTESIAN_POINT('',(-17.5,60.,25.));
#770=CARTESIAN_POINT('',(17.5,60.,23.));
#771=CARTESIAN_POINT('',(18.375,60.,22.125));
#772=CARTESIAN_POINT('',(17.5,60.,-25.));
#773=CARTESIAN_POINT('',(17.5,60.,25.));
#774=CARTESIAN_POINT('',(0.,60.,-40.));
#775=CARTESIAN_POINT('',(0.,60.,-40.));
#776=CARTESIAN_POINT('',(0.,60.,-40.));
#777=CARTESIAN_POINT('Origin',(16.5,0.,24.));
#778=CARTESIAN_POINT('',(15.5,0.,25.));
#779=CARTESIAN_POINT('',(15.5,0.,25.));
#780=CARTESIAN_POINT('',(17.5,0.,23.));
#781=CARTESIAN_POINT('',(18.375,0.,22.125));
#782=CARTESIAN_POINT('',(17.5,0.,23.));
#783=CARTESIAN_POINT('Origin',(17.5,0.,25.));
#784=CARTESIAN_POINT('',(17.5,0.,-25.));
#785=CARTESIAN_POINT('',(17.5,0.,25.));
#786=CARTESIAN_POINT('',(17.5,25.,-25.));
#787=CARTESIAN_POINT('',(17.5,0.,-25.));
#788=CARTESIAN_POINT('',(17.5,0.,-25.));
#789=CARTESIAN_POINT('',(17.5,30.,17.5));
#790=CARTESIAN_POINT('Origin',(17.5,30.,0.));
#791=CARTESIAN_POINT('Origin',(-17.5,30.,0.));
#792=CARTESIAN_POINT('',(-14.857,30.,14.857));
#793=CARTESIAN_POINT('',(-17.5,30.,17.5));
#794=CARTESIAN_POINT('Origin',(-14.857,30.,0.));
#795=CARTESIAN_POINT('Origin',(-14.857,30.,0.));
#796=CARTESIAN_POINT('Origin',(17.5,30.,0.));
#797=CARTESIAN_POINT('',(14.857,30.,14.857));
#798=CARTESIAN_POINT('',(17.5,30.,17.5));
#799=CARTESIAN_POINT('Origin',(14.857,30.,0.));
#800=CARTESIAN_POINT('Origin',(14.857,30.,0.));
#801=CARTESIAN_POINT('Origin',(-17.5,60.,-25.));
#802=CARTESIAN_POINT('',(1.11022302462516E-15,59.983599679725,-40.));
#803=CARTESIAN_POINT('',(0.,60.,-40.));
#804=CARTESIAN_POINT('',(-8.44562651815574,43.1002615565461,-32.7608915558665));
#805=CARTESIAN_POINT('Origin',(0.,60.,-40.));
#806=CARTESIAN_POINT('',(5.79709848559576,48.3948355240666,-35.0310584409179));
#807=CARTESIAN_POINT('Origin',(2.22044604925031E-15,31.8930861892106,-27.9555647156025));
#808=CARTESIAN_POINT('',(8.75,25.,-25.));
#809=CARTESIAN_POINT('Origin',(17.5,0.,-25.));
#810=CARTESIAN_POINT('',(17.5,0.,-25.));
#811=CARTESIAN_POINT('Origin',(-17.5,0.,25.));
#812=CARTESIAN_POINT('',(-17.5,0.,25.));
#813=CARTESIAN_POINT('Origin',(0.,0.,0.));
#814=UNCERTAINTY_MEASURE_WITH_UNIT(LENGTH_MEASURE(0.01),#818,
'DISTANCE_ACCURACY_VALUE',
'Maximum model space distance between geometric entities at asserted c
onnectivities');
#815=UNCERTAINTY_MEASURE_WITH_UNIT(LENGTH_MEASURE(0.01),#818,
'DISTANCE_ACCURACY_VALUE',
'Maximum model space distance between geometric entities at asserted c
onnectivities');
#816=(
GEOMETRIC_REPRESENTATION_CONTEXT(3)
GLOBAL_UNCERTAINTY_ASSIGNED_CONTEXT((#814))
GLOBAL_UNIT_ASSIGNED_CONTEXT((#818,#820,#821))
REPRESENTATION_CONTEXT('','3D')
);
#817=(
GEOMETRIC_REPRESENTATION_CONTEXT(3)
GLOBAL_UNCERTAINTY_ASSIGNED_CONTEXT((#815))
GLOBAL_UNIT_ASSIGNED_CONTEXT((#818,#820,#821))
REPRESENTATION_CONTEXT('','3D')
);
#818=(
LENGTH_UNIT()
NAMED_UNIT(*)
SI_UNIT(.MILLI.,.METRE.)
);
#819=(
LENGTH_UNIT()
NAMED_UNIT(*)
SI_UNIT($,.METRE.)
);
#820=(
NAMED_UNIT(*)
PLANE_ANGLE_UNIT()
SI_UNIT($,.RADIAN.)
);
#821=(
NAMED_UNIT(*)
SI_UNIT($,.STERADIAN.)
SOLID_ANGLE_UNIT()
);
#822=SHAPE_DEFINITION_REPRESENTATION(#823,#824);
#823=PRODUCT_DEFINITION_SHAPE('',$,#826);
#824=SHAPE_REPRESENTATION('',(#508),#816);
#825=PRODUCT_DEFINITION_CONTEXT('part definition',#830,'design');
#826=PRODUCT_DEFINITION('2026-08-29-11-09-46-991','(Unsaved)',#827,#825);
#827=PRODUCT_DEFINITION_FORMATION('',$,#832);
#828=PRODUCT_RELATED_PRODUCT_CATEGORY('(Unsaved)','(Unsaved)',(#832));
#829=APPLICATION_PROTOCOL_DEFINITION('international standard',
'automotive_design',2009,#830);
#830=APPLICATION_CONTEXT(
'Core Data for Automotive Mechanical Design Process');
#831=PRODUCT_CONTEXT('part definition',#830,'mechanical');
#832=PRODUCT('2026-08-29-11-09-46-991','(Unsaved)',$,(#831));
#833=PRESENTATION_STYLE_ASSIGNMENT((#834));
#834=SURFACE_STYLE_USAGE(.BOTH.,#835);
#835=SURFACE_SIDE_STYLE('',(#836));
#836=SURFACE_STYLE_FILL_AREA(#837);
#837=FILL_AREA_STYLE('Steel - Satin',(#838));
#838=FILL_AREA_STYLE_COLOUR('Steel - Satin',#839);
#839=COLOUR_RGB('Steel - Satin',0.627450980392157,0.627450980392157,0.627450980392157);
ENDSEC;
END-ISO-10303-21;
