ISO-10303-21;
HEADER;
/* Generated by software containing ST-Developer
 * from STEP Tools, Inc. (www.steptools.com) 
 */

FILE_DESCRIPTION(
/* description */ (''),
/* implementation_level */ '2;1');

FILE_NAME(
/* name */ 'QT Py Header Trimmer.step',
/* time_stamp */ '2026-09-10T21:28:10-05:00',
/* author */ (''),
/* organization */ (''),
/* preprocessor_version */ 'ST-DEVELOPER v20.2',
/* originating_system */ 'Autodesk Translation Framework v15.15.0.0',
/* authorisation */ '');

FILE_SCHEMA (('AUTOMOTIVE_DESIGN { 1 0 10303 214 3 1 1 }'));
ENDSEC;

DATA;
#10=MECHANICAL_DESIGN_GEOMETRIC_PRESENTATION_REPRESENTATION('',(#13),#2227);
#11=SHAPE_REPRESENTATION_RELATIONSHIP('SRR','None',#2234,#12);
#12=ADVANCED_BREP_SHAPE_REPRESENTATION('',(#14),#2226);
#13=STYLED_ITEM('',(#2243),#14);
#14=MANIFOLD_SOLID_BREP('Body1',#1415);
#15=FACE_BOUND('',#174,.T.);
#16=FACE_BOUND('',#175,.T.);
#17=FACE_BOUND('',#176,.T.);
#18=FACE_BOUND('',#177,.T.);
#19=FACE_BOUND('',#178,.T.);
#20=FACE_BOUND('',#179,.T.);
#21=FACE_BOUND('',#180,.T.);
#22=FACE_BOUND('',#181,.T.);
#23=FACE_BOUND('',#182,.T.);
#24=FACE_BOUND('',#183,.T.);
#25=FACE_BOUND('',#184,.T.);
#26=FACE_BOUND('',#185,.T.);
#27=FACE_BOUND('',#186,.T.);
#28=FACE_BOUND('',#187,.T.);
#29=FACE_BOUND('',#251,.T.);
#30=FACE_BOUND('',#252,.T.);
#31=FACE_BOUND('',#253,.T.);
#32=FACE_BOUND('',#254,.T.);
#33=FACE_BOUND('',#255,.T.);
#34=FACE_BOUND('',#256,.T.);
#35=FACE_BOUND('',#257,.T.);
#36=FACE_BOUND('',#258,.T.);
#37=FACE_BOUND('',#259,.T.);
#38=FACE_BOUND('',#260,.T.);
#39=FACE_BOUND('',#261,.T.);
#40=FACE_BOUND('',#262,.T.);
#41=FACE_BOUND('',#263,.T.);
#42=FACE_BOUND('',#264,.T.);
#43=PLANE('',#1432);
#44=PLANE('',#1433);
#45=PLANE('',#1439);
#46=PLANE('',#1444);
#47=PLANE('',#1445);
#48=PLANE('',#1446);
#49=PLANE('',#1447);
#50=PLANE('',#1448);
#51=PLANE('',#1449);
#52=PLANE('',#1450);
#53=PLANE('',#1451);
#54=PLANE('',#1452);
#55=PLANE('',#1453);
#56=PLANE('',#1454);
#57=PLANE('',#1455);
#58=PLANE('',#1456);
#59=PLANE('',#1457);
#60=PLANE('',#1458);
#61=PLANE('',#1459);
#62=PLANE('',#1460);
#63=PLANE('',#1461);
#64=PLANE('',#1462);
#65=PLANE('',#1463);
#66=PLANE('',#1464);
#67=PLANE('',#1465);
#68=PLANE('',#1466);
#69=PLANE('',#1467);
#70=PLANE('',#1468);
#71=PLANE('',#1469);
#72=PLANE('',#1470);
#73=PLANE('',#1471);
#74=PLANE('',#1472);
#75=PLANE('',#1473);
#76=PLANE('',#1474);
#77=PLANE('',#1475);
#78=PLANE('',#1476);
#79=PLANE('',#1477);
#80=PLANE('',#1478);
#81=PLANE('',#1479);
#82=PLANE('',#1480);
#83=PLANE('',#1481);
#84=PLANE('',#1482);
#85=PLANE('',#1483);
#86=PLANE('',#1484);
#87=PLANE('',#1485);
#88=PLANE('',#1486);
#89=PLANE('',#1487);
#90=PLANE('',#1488);
#91=PLANE('',#1489);
#92=PLANE('',#1490);
#93=PLANE('',#1491);
#94=PLANE('',#1492);
#95=PLANE('',#1493);
#96=PLANE('',#1494);
#97=PLANE('',#1495);
#98=PLANE('',#1496);
#99=PLANE('',#1497);
#100=PLANE('',#1498);
#101=PLANE('',#1499);
#102=PLANE('',#1500);
#103=PLANE('',#1501);
#104=PLANE('',#1502);
#105=FACE_OUTER_BOUND('',#171,.T.);
#106=FACE_OUTER_BOUND('',#172,.T.);
#107=FACE_OUTER_BOUND('',#173,.T.);
#108=FACE_OUTER_BOUND('',#188,.T.);
#109=FACE_OUTER_BOUND('',#189,.T.);
#110=FACE_OUTER_BOUND('',#190,.T.);
#111=FACE_OUTER_BOUND('',#191,.T.);
#112=FACE_OUTER_BOUND('',#192,.T.);
#113=FACE_OUTER_BOUND('',#193,.T.);
#114=FACE_OUTER_BOUND('',#194,.T.);
#115=FACE_OUTER_BOUND('',#195,.T.);
#116=FACE_OUTER_BOUND('',#196,.T.);
#117=FACE_OUTER_BOUND('',#197,.T.);
#118=FACE_OUTER_BOUND('',#198,.T.);
#119=FACE_OUTER_BOUND('',#199,.T.);
#120=FACE_OUTER_BOUND('',#200,.T.);
#121=FACE_OUTER_BOUND('',#201,.T.);
#122=FACE_OUTER_BOUND('',#202,.T.);
#123=FACE_OUTER_BOUND('',#203,.T.);
#124=FACE_OUTER_BOUND('',#204,.T.);
#125=FACE_OUTER_BOUND('',#205,.T.);
#126=FACE_OUTER_BOUND('',#206,.T.);
#127=FACE_OUTER_BOUND('',#207,.T.);
#128=FACE_OUTER_BOUND('',#208,.T.);
#129=FACE_OUTER_BOUND('',#209,.T.);
#130=FACE_OUTER_BOUND('',#210,.T.);
#131=FACE_OUTER_BOUND('',#211,.T.);
#132=FACE_OUTER_BOUND('',#212,.T.);
#133=FACE_OUTER_BOUND('',#213,.T.);
#134=FACE_OUTER_BOUND('',#214,.T.);
#135=FACE_OUTER_BOUND('',#215,.T.);
#136=FACE_OUTER_BOUND('',#216,.T.);
#137=FACE_OUTER_BOUND('',#217,.T.);
#138=FACE_OUTER_BOUND('',#218,.T.);
#139=FACE_OUTER_BOUND('',#219,.T.);
#140=FACE_OUTER_BOUND('',#220,.T.);
#141=FACE_OUTER_BOUND('',#221,.T.);
#142=FACE_OUTER_BOUND('',#222,.T.);
#143=FACE_OUTER_BOUND('',#223,.T.);
#144=FACE_OUTER_BOUND('',#224,.T.);
#145=FACE_OUTER_BOUND('',#225,.T.);
#146=FACE_OUTER_BOUND('',#226,.T.);
#147=FACE_OUTER_BOUND('',#227,.T.);
#148=FACE_OUTER_BOUND('',#228,.T.);
#149=FACE_OUTER_BOUND('',#229,.T.);
#150=FACE_OUTER_BOUND('',#230,.T.);
#151=FACE_OUTER_BOUND('',#231,.T.);
#152=FACE_OUTER_BOUND('',#232,.T.);
#153=FACE_OUTER_BOUND('',#233,.T.);
#154=FACE_OUTER_BOUND('',#234,.T.);
#155=FACE_OUTER_BOUND('',#235,.T.);
#156=FACE_OUTER_BOUND('',#236,.T.);
#157=FACE_OUTER_BOUND('',#237,.T.);
#158=FACE_OUTER_BOUND('',#238,.T.);
#159=FACE_OUTER_BOUND('',#239,.T.);
#160=FACE_OUTER_BOUND('',#240,.T.);
#161=FACE_OUTER_BOUND('',#241,.T.);
#162=FACE_OUTER_BOUND('',#242,.T.);
#163=FACE_OUTER_BOUND('',#243,.T.);
#164=FACE_OUTER_BOUND('',#244,.T.);
#165=FACE_OUTER_BOUND('',#245,.T.);
#166=FACE_OUTER_BOUND('',#246,.T.);
#167=FACE_OUTER_BOUND('',#247,.T.);
#168=FACE_OUTER_BOUND('',#248,.T.);
#169=FACE_OUTER_BOUND('',#249,.T.);
#170=FACE_OUTER_BOUND('',#250,.T.);
#171=EDGE_LOOP('',(#961,#962,#963,#964));
#172=EDGE_LOOP('',(#965,#966,#967,#968));
#173=EDGE_LOOP('',(#969,#970,#971,#972,#973,#974,#975,#976));
#174=EDGE_LOOP('',(#977,#978,#979,#980));
#175=EDGE_LOOP('',(#981,#982,#983,#984));
#176=EDGE_LOOP('',(#985,#986,#987,#988));
#177=EDGE_LOOP('',(#989,#990,#991,#992));
#178=EDGE_LOOP('',(#993,#994,#995,#996));
#179=EDGE_LOOP('',(#997,#998,#999,#1000));
#180=EDGE_LOOP('',(#1001,#1002,#1003,#1004));
#181=EDGE_LOOP('',(#1005,#1006,#1007,#1008));
#182=EDGE_LOOP('',(#1009,#1010,#1011,#1012));
#183=EDGE_LOOP('',(#1013,#1014,#1015,#1016));
#184=EDGE_LOOP('',(#1017,#1018,#1019,#1020));
#185=EDGE_LOOP('',(#1021,#1022,#1023,#1024));
#186=EDGE_LOOP('',(#1025,#1026,#1027,#1028));
#187=EDGE_LOOP('',(#1029,#1030,#1031,#1032));
#188=EDGE_LOOP('',(#1033,#1034,#1035,#1036));
#189=EDGE_LOOP('',(#1037,#1038,#1039,#1040));
#190=EDGE_LOOP('',(#1041,#1042,#1043,#1044));
#191=EDGE_LOOP('',(#1045,#1046,#1047,#1048));
#192=EDGE_LOOP('',(#1049,#1050,#1051,#1052));
#193=EDGE_LOOP('',(#1053,#1054,#1055,#1056));
#194=EDGE_LOOP('',(#1057,#1058,#1059,#1060));
#195=EDGE_LOOP('',(#1061,#1062,#1063,#1064));
#196=EDGE_LOOP('',(#1065,#1066,#1067,#1068));
#197=EDGE_LOOP('',(#1069,#1070,#1071,#1072));
#198=EDGE_LOOP('',(#1073,#1074,#1075,#1076));
#199=EDGE_LOOP('',(#1077,#1078,#1079,#1080));
#200=EDGE_LOOP('',(#1081,#1082,#1083,#1084));
#201=EDGE_LOOP('',(#1085,#1086,#1087,#1088));
#202=EDGE_LOOP('',(#1089,#1090,#1091,#1092));
#203=EDGE_LOOP('',(#1093,#1094,#1095,#1096));
#204=EDGE_LOOP('',(#1097,#1098,#1099,#1100));
#205=EDGE_LOOP('',(#1101,#1102,#1103,#1104));
#206=EDGE_LOOP('',(#1105,#1106,#1107,#1108));
#207=EDGE_LOOP('',(#1109,#1110,#1111,#1112));
#208=EDGE_LOOP('',(#1113,#1114,#1115,#1116));
#209=EDGE_LOOP('',(#1117,#1118,#1119,#1120));
#210=EDGE_LOOP('',(#1121,#1122,#1123,#1124));
#211=EDGE_LOOP('',(#1125,#1126,#1127,#1128));
#212=EDGE_LOOP('',(#1129,#1130,#1131,#1132));
#213=EDGE_LOOP('',(#1133,#1134,#1135,#1136));
#214=EDGE_LOOP('',(#1137,#1138,#1139,#1140));
#215=EDGE_LOOP('',(#1141,#1142,#1143,#1144));
#216=EDGE_LOOP('',(#1145,#1146,#1147,#1148));
#217=EDGE_LOOP('',(#1149,#1150,#1151,#1152));
#218=EDGE_LOOP('',(#1153,#1154,#1155,#1156));
#219=EDGE_LOOP('',(#1157,#1158,#1159,#1160));
#220=EDGE_LOOP('',(#1161,#1162,#1163,#1164));
#221=EDGE_LOOP('',(#1165,#1166,#1167,#1168));
#222=EDGE_LOOP('',(#1169,#1170,#1171,#1172));
#223=EDGE_LOOP('',(#1173,#1174,#1175,#1176));
#224=EDGE_LOOP('',(#1177,#1178,#1179,#1180));
#225=EDGE_LOOP('',(#1181,#1182,#1183,#1184));
#226=EDGE_LOOP('',(#1185,#1186,#1187,#1188));
#227=EDGE_LOOP('',(#1189,#1190,#1191,#1192));
#228=EDGE_LOOP('',(#1193,#1194,#1195,#1196));
#229=EDGE_LOOP('',(#1197,#1198,#1199,#1200));
#230=EDGE_LOOP('',(#1201,#1202,#1203,#1204));
#231=EDGE_LOOP('',(#1205,#1206,#1207,#1208));
#232=EDGE_LOOP('',(#1209,#1210,#1211,#1212));
#233=EDGE_LOOP('',(#1213,#1214,#1215,#1216));
#234=EDGE_LOOP('',(#1217,#1218,#1219,#1220));
#235=EDGE_LOOP('',(#1221,#1222,#1223,#1224));
#236=EDGE_LOOP('',(#1225,#1226,#1227,#1228));
#237=EDGE_LOOP('',(#1229,#1230,#1231,#1232));
#238=EDGE_LOOP('',(#1233,#1234,#1235,#1236));
#239=EDGE_LOOP('',(#1237,#1238,#1239,#1240));
#240=EDGE_LOOP('',(#1241,#1242,#1243,#1244));
#241=EDGE_LOOP('',(#1245,#1246,#1247,#1248));
#242=EDGE_LOOP('',(#1249,#1250,#1251,#1252));
#243=EDGE_LOOP('',(#1253,#1254,#1255,#1256));
#244=EDGE_LOOP('',(#1257,#1258,#1259,#1260));
#245=EDGE_LOOP('',(#1261,#1262,#1263,#1264));
#246=EDGE_LOOP('',(#1265,#1266,#1267,#1268));
#247=EDGE_LOOP('',(#1269,#1270,#1271,#1272));
#248=EDGE_LOOP('',(#1273,#1274,#1275,#1276));
#249=EDGE_LOOP('',(#1277,#1278,#1279,#1280));
#250=EDGE_LOOP('',(#1281,#1282,#1283,#1284,#1285,#1286,#1287,#1288));
#251=EDGE_LOOP('',(#1289,#1290,#1291,#1292));
#252=EDGE_LOOP('',(#1293,#1294,#1295,#1296));
#253=EDGE_LOOP('',(#1297,#1298,#1299,#1300));
#254=EDGE_LOOP('',(#1301,#1302,#1303,#1304));
#255=EDGE_LOOP('',(#1305,#1306,#1307,#1308));
#256=EDGE_LOOP('',(#1309,#1310,#1311,#1312));
#257=EDGE_LOOP('',(#1313,#1314,#1315,#1316));
#258=EDGE_LOOP('',(#1317,#1318,#1319,#1320));
#259=EDGE_LOOP('',(#1321,#1322,#1323,#1324));
#260=EDGE_LOOP('',(#1325,#1326,#1327,#1328));
#261=EDGE_LOOP('',(#1329,#1330,#1331,#1332));
#262=EDGE_LOOP('',(#1333,#1334,#1335,#1336));
#263=EDGE_LOOP('',(#1337,#1338,#1339,#1340));
#264=EDGE_LOOP('',(#1341,#1342,#1343,#1344));
#265=LINE('',#1843,#449);
#266=LINE('',#1846,#450);
#267=LINE('',#1849,#451);
#268=LINE('',#1851,#452);
#269=LINE('',#1852,#453);
#270=LINE('',#1855,#454);
#271=LINE('',#1859,#455);
#272=LINE('',#1863,#456);
#273=LINE('',#1867,#457);
#274=LINE('',#1869,#458);
#275=LINE('',#1871,#459);
#276=LINE('',#1872,#460);
#277=LINE('',#1875,#461);
#278=LINE('',#1877,#462);
#279=LINE('',#1879,#463);
#280=LINE('',#1880,#464);
#281=LINE('',#1883,#465);
#282=LINE('',#1885,#466);
#283=LINE('',#1887,#467);
#284=LINE('',#1888,#468);
#285=LINE('',#1891,#469);
#286=LINE('',#1893,#470);
#287=LINE('',#1895,#471);
#288=LINE('',#1896,#472);
#289=LINE('',#1899,#473);
#290=LINE('',#1901,#474);
#291=LINE('',#1903,#475);
#292=LINE('',#1904,#476);
#293=LINE('',#1907,#477);
#294=LINE('',#1909,#478);
#295=LINE('',#1911,#479);
#296=LINE('',#1912,#480);
#297=LINE('',#1915,#481);
#298=LINE('',#1917,#482);
#299=LINE('',#1919,#483);
#300=LINE('',#1920,#484);
#301=LINE('',#1923,#485);
#302=LINE('',#1925,#486);
#303=LINE('',#1927,#487);
#304=LINE('',#1928,#488);
#305=LINE('',#1931,#489);
#306=LINE('',#1933,#490);
#307=LINE('',#1935,#491);
#308=LINE('',#1936,#492);
#309=LINE('',#1939,#493);
#310=LINE('',#1941,#494);
#311=LINE('',#1943,#495);
#312=LINE('',#1944,#496);
#313=LINE('',#1947,#497);
#314=LINE('',#1949,#498);
#315=LINE('',#1951,#499);
#316=LINE('',#1952,#500);
#317=LINE('',#1955,#501);
#318=LINE('',#1957,#502);
#319=LINE('',#1959,#503);
#320=LINE('',#1960,#504);
#321=LINE('',#1963,#505);
#322=LINE('',#1965,#506);
#323=LINE('',#1967,#507);
#324=LINE('',#1968,#508);
#325=LINE('',#1971,#509);
#326=LINE('',#1973,#510);
#327=LINE('',#1975,#511);
#328=LINE('',#1976,#512);
#329=LINE('',#1981,#513);
#330=LINE('',#1982,#514);
#331=LINE('',#1985,#515);
#332=LINE('',#1986,#516);
#333=LINE('',#1990,#517);
#334=LINE('',#1994,#518);
#335=LINE('',#1997,#519);
#336=LINE('',#1999,#520);
#337=LINE('',#2000,#521);
#338=LINE('',#2003,#522);
#339=LINE('',#2004,#523);
#340=LINE('',#2007,#524);
#341=LINE('',#2008,#525);
#342=LINE('',#2010,#526);
#343=LINE('',#2013,#527);
#344=LINE('',#2015,#528);
#345=LINE('',#2016,#529);
#346=LINE('',#2019,#530);
#347=LINE('',#2020,#531);
#348=LINE('',#2023,#532);
#349=LINE('',#2024,#533);
#350=LINE('',#2026,#534);
#351=LINE('',#2029,#535);
#352=LINE('',#2031,#536);
#353=LINE('',#2032,#537);
#354=LINE('',#2035,#538);
#355=LINE('',#2036,#539);
#356=LINE('',#2039,#540);
#357=LINE('',#2040,#541);
#358=LINE('',#2042,#542);
#359=LINE('',#2045,#543);
#360=LINE('',#2047,#544);
#361=LINE('',#2048,#545);
#362=LINE('',#2051,#546);
#363=LINE('',#2052,#547);
#364=LINE('',#2055,#548);
#365=LINE('',#2056,#549);
#366=LINE('',#2058,#550);
#367=LINE('',#2061,#551);
#368=LINE('',#2063,#552);
#369=LINE('',#2064,#553);
#370=LINE('',#2067,#554);
#371=LINE('',#2068,#555);
#372=LINE('',#2071,#556);
#373=LINE('',#2072,#557);
#374=LINE('',#2074,#558);
#375=LINE('',#2077,#559);
#376=LINE('',#2079,#560);
#377=LINE('',#2080,#561);
#378=LINE('',#2083,#562);
#379=LINE('',#2084,#563);
#380=LINE('',#2087,#564);
#381=LINE('',#2088,#565);
#382=LINE('',#2090,#566);
#383=LINE('',#2093,#567);
#384=LINE('',#2095,#568);
#385=LINE('',#2096,#569);
#386=LINE('',#2099,#570);
#387=LINE('',#2100,#571);
#388=LINE('',#2103,#572);
#389=LINE('',#2104,#573);
#390=LINE('',#2106,#574);
#391=LINE('',#2109,#575);
#392=LINE('',#2111,#576);
#393=LINE('',#2112,#577);
#394=LINE('',#2115,#578);
#395=LINE('',#2116,#579);
#396=LINE('',#2119,#580);
#397=LINE('',#2120,#581);
#398=LINE('',#2122,#582);
#399=LINE('',#2125,#583);
#400=LINE('',#2127,#584);
#401=LINE('',#2128,#585);
#402=LINE('',#2131,#586);
#403=LINE('',#2132,#587);
#404=LINE('',#2135,#588);
#405=LINE('',#2136,#589);
#406=LINE('',#2138,#590);
#407=LINE('',#2141,#591);
#408=LINE('',#2143,#592);
#409=LINE('',#2144,#593);
#410=LINE('',#2147,#594);
#411=LINE('',#2148,#595);
#412=LINE('',#2151,#596);
#413=LINE('',#2152,#597);
#414=LINE('',#2154,#598);
#415=LINE('',#2157,#599);
#416=LINE('',#2159,#600);
#417=LINE('',#2160,#601);
#418=LINE('',#2163,#602);
#419=LINE('',#2164,#603);
#420=LINE('',#2167,#604);
#421=LINE('',#2168,#605);
#422=LINE('',#2170,#606);
#423=LINE('',#2173,#607);
#424=LINE('',#2175,#608);
#425=LINE('',#2176,#609);
#426=LINE('',#2179,#610);
#427=LINE('',#2180,#611);
#428=LINE('',#2183,#612);
#429=LINE('',#2184,#613);
#430=LINE('',#2186,#614);
#431=LINE('',#2189,#615);
#432=LINE('',#2191,#616);
#433=LINE('',#2192,#617);
#434=LINE('',#2195,#618);
#435=LINE('',#2196,#619);
#436=LINE('',#2199,#620);
#437=LINE('',#2200,#621);
#438=LINE('',#2202,#622);
#439=LINE('',#2205,#623);
#440=LINE('',#2207,#624);
#441=LINE('',#2208,#625);
#442=LINE('',#2211,#626);
#443=LINE('',#2212,#627);
#444=LINE('',#2215,#628);
#445=LINE('',#2216,#629);
#446=LINE('',#2218,#630);
#447=LINE('',#2220,#631);
#448=LINE('',#2222,#632);
#449=VECTOR('',#1509,10.);
#450=VECTOR('',#1512,10.);
#451=VECTOR('',#1515,10.);
#452=VECTOR('',#1516,10.);
#453=VECTOR('',#1517,10.);
#454=VECTOR('',#1520,10.);
#455=VECTOR('',#1523,10.);
#456=VECTOR('',#1526,10.);
#457=VECTOR('',#1529,10.);
#458=VECTOR('',#1530,10.);
#459=VECTOR('',#1531,10.);
#460=VECTOR('',#1532,10.);
#461=VECTOR('',#1533,10.);
#462=VECTOR('',#1534,10.);
#463=VECTOR('',#1535,10.);
#464=VECTOR('',#1536,10.);
#465=VECTOR('',#1537,10.);
#466=VECTOR('',#1538,10.);
#467=VECTOR('',#1539,10.);
#468=VECTOR('',#1540,10.);
#469=VECTOR('',#1541,10.);
#470=VECTOR('',#1542,10.);
#471=VECTOR('',#1543,10.);
#472=VECTOR('',#1544,10.);
#473=VECTOR('',#1545,10.);
#474=VECTOR('',#1546,10.);
#475=VECTOR('',#1547,10.);
#476=VECTOR('',#1548,10.);
#477=VECTOR('',#1549,10.);
#478=VECTOR('',#1550,10.);
#479=VECTOR('',#1551,10.);
#480=VECTOR('',#1552,10.);
#481=VECTOR('',#1553,10.);
#482=VECTOR('',#1554,10.);
#483=VECTOR('',#1555,10.);
#484=VECTOR('',#1556,10.);
#485=VECTOR('',#1557,10.);
#486=VECTOR('',#1558,10.);
#487=VECTOR('',#1559,10.);
#488=VECTOR('',#1560,10.);
#489=VECTOR('',#1561,10.);
#490=VECTOR('',#1562,10.);
#491=VECTOR('',#1563,10.);
#492=VECTOR('',#1564,10.);
#493=VECTOR('',#1565,10.);
#494=VECTOR('',#1566,10.);
#495=VECTOR('',#1567,10.);
#496=VECTOR('',#1568,10.);
#497=VECTOR('',#1569,10.);
#498=VECTOR('',#1570,10.);
#499=VECTOR('',#1571,10.);
#500=VECTOR('',#1572,10.);
#501=VECTOR('',#1573,10.);
#502=VECTOR('',#1574,10.);
#503=VECTOR('',#1575,10.);
#504=VECTOR('',#1576,10.);
#505=VECTOR('',#1577,10.);
#506=VECTOR('',#1578,10.);
#507=VECTOR('',#1579,10.);
#508=VECTOR('',#1580,10.);
#509=VECTOR('',#1581,10.);
#510=VECTOR('',#1582,10.);
#511=VECTOR('',#1583,10.);
#512=VECTOR('',#1584,10.);
#513=VECTOR('',#1589,10.);
#514=VECTOR('',#1590,10.);
#515=VECTOR('',#1593,10.);
#516=VECTOR('',#1594,10.);
#517=VECTOR('',#1599,10.);
#518=VECTOR('',#1604,10.);
#519=VECTOR('',#1607,10.);
#520=VECTOR('',#1608,10.);
#521=VECTOR('',#1609,10.);
#522=VECTOR('',#1612,10.);
#523=VECTOR('',#1613,10.);
#524=VECTOR('',#1616,10.);
#525=VECTOR('',#1617,10.);
#526=VECTOR('',#1620,10.);
#527=VECTOR('',#1623,10.);
#528=VECTOR('',#1624,10.);
#529=VECTOR('',#1625,10.);
#530=VECTOR('',#1628,10.);
#531=VECTOR('',#1629,10.);
#532=VECTOR('',#1632,10.);
#533=VECTOR('',#1633,10.);
#534=VECTOR('',#1636,10.);
#535=VECTOR('',#1639,10.);
#536=VECTOR('',#1640,10.);
#537=VECTOR('',#1641,10.);
#538=VECTOR('',#1644,10.);
#539=VECTOR('',#1645,10.);
#540=VECTOR('',#1648,10.);
#541=VECTOR('',#1649,10.);
#542=VECTOR('',#1652,10.);
#543=VECTOR('',#1655,10.);
#544=VECTOR('',#1656,10.);
#545=VECTOR('',#1657,10.);
#546=VECTOR('',#1660,10.);
#547=VECTOR('',#1661,10.);
#548=VECTOR('',#1664,10.);
#549=VECTOR('',#1665,10.);
#550=VECTOR('',#1668,10.);
#551=VECTOR('',#1671,10.);
#552=VECTOR('',#1672,10.);
#553=VECTOR('',#1673,10.);
#554=VECTOR('',#1676,10.);
#555=VECTOR('',#1677,10.);
#556=VECTOR('',#1680,10.);
#557=VECTOR('',#1681,10.);
#558=VECTOR('',#1684,10.);
#559=VECTOR('',#1687,10.);
#560=VECTOR('',#1688,10.);
#561=VECTOR('',#1689,10.);
#562=VECTOR('',#1692,10.);
#563=VECTOR('',#1693,10.);
#564=VECTOR('',#1696,10.);
#565=VECTOR('',#1697,10.);
#566=VECTOR('',#1700,10.);
#567=VECTOR('',#1703,10.);
#568=VECTOR('',#1704,10.);
#569=VECTOR('',#1705,10.);
#570=VECTOR('',#1708,10.);
#571=VECTOR('',#1709,10.);
#572=VECTOR('',#1712,10.);
#573=VECTOR('',#1713,10.);
#574=VECTOR('',#1716,10.);
#575=VECTOR('',#1719,10.);
#576=VECTOR('',#1720,10.);
#577=VECTOR('',#1721,10.);
#578=VECTOR('',#1724,10.);
#579=VECTOR('',#1725,10.);
#580=VECTOR('',#1728,10.);
#581=VECTOR('',#1729,10.);
#582=VECTOR('',#1732,10.);
#583=VECTOR('',#1735,10.);
#584=VECTOR('',#1736,10.);
#585=VECTOR('',#1737,10.);
#586=VECTOR('',#1740,10.);
#587=VECTOR('',#1741,10.);
#588=VECTOR('',#1744,10.);
#589=VECTOR('',#1745,10.);
#590=VECTOR('',#1748,10.);
#591=VECTOR('',#1751,10.);
#592=VECTOR('',#1752,10.);
#593=VECTOR('',#1753,10.);
#594=VECTOR('',#1756,10.);
#595=VECTOR('',#1757,10.);
#596=VECTOR('',#1760,10.);
#597=VECTOR('',#1761,10.);
#598=VECTOR('',#1764,10.);
#599=VECTOR('',#1767,10.);
#600=VECTOR('',#1768,10.);
#601=VECTOR('',#1769,10.);
#602=VECTOR('',#1772,10.);
#603=VECTOR('',#1773,10.);
#604=VECTOR('',#1776,10.);
#605=VECTOR('',#1777,10.);
#606=VECTOR('',#1780,10.);
#607=VECTOR('',#1783,10.);
#608=VECTOR('',#1784,10.);
#609=VECTOR('',#1785,10.);
#610=VECTOR('',#1788,10.);
#611=VECTOR('',#1789,10.);
#612=VECTOR('',#1792,10.);
#613=VECTOR('',#1793,10.);
#614=VECTOR('',#1796,10.);
#615=VECTOR('',#1799,10.);
#616=VECTOR('',#1800,10.);
#617=VECTOR('',#1801,10.);
#618=VECTOR('',#1804,10.);
#619=VECTOR('',#1805,10.);
#620=VECTOR('',#1808,10.);
#621=VECTOR('',#1809,10.);
#622=VECTOR('',#1812,10.);
#623=VECTOR('',#1815,10.);
#624=VECTOR('',#1816,10.);
#625=VECTOR('',#1817,10.);
#626=VECTOR('',#1820,10.);
#627=VECTOR('',#1821,10.);
#628=VECTOR('',#1824,10.);
#629=VECTOR('',#1825,10.);
#630=VECTOR('',#1828,10.);
#631=VECTOR('',#1831,10.);
#632=VECTOR('',#1834,10.);
#633=CIRCLE('',#1430,3.);
#634=CIRCLE('',#1431,3.);
#635=CIRCLE('',#1434,3.);
#636=CIRCLE('',#1435,3.);
#637=CIRCLE('',#1436,3.);
#638=CIRCLE('',#1438,3.);
#639=CIRCLE('',#1441,3.);
#640=CIRCLE('',#1443,3.);
#641=VERTEX_POINT('',#1839);
#642=VERTEX_POINT('',#1840);
#643=VERTEX_POINT('',#1842);
#644=VERTEX_POINT('',#1844);
#645=VERTEX_POINT('',#1848);
#646=VERTEX_POINT('',#1850);
#647=VERTEX_POINT('',#1854);
#648=VERTEX_POINT('',#1856);
#649=VERTEX_POINT('',#1858);
#650=VERTEX_POINT('',#1860);
#651=VERTEX_POINT('',#1862);
#652=VERTEX_POINT('',#1865);
#653=VERTEX_POINT('',#1866);
#654=VERTEX_POINT('',#1868);
#655=VERTEX_POINT('',#1870);
#656=VERTEX_POINT('',#1873);
#657=VERTEX_POINT('',#1874);
#658=VERTEX_POINT('',#1876);
#659=VERTEX_POINT('',#1878);
#660=VERTEX_POINT('',#1881);
#661=VERTEX_POINT('',#1882);
#662=VERTEX_POINT('',#1884);
#663=VERTEX_POINT('',#1886);
#664=VERTEX_POINT('',#1889);
#665=VERTEX_POINT('',#1890);
#666=VERTEX_POINT('',#1892);
#667=VERTEX_POINT('',#1894);
#668=VERTEX_POINT('',#1897);
#669=VERTEX_POINT('',#1898);
#670=VERTEX_POINT('',#1900);
#671=VERTEX_POINT('',#1902);
#672=VERTEX_POINT('',#1905);
#673=VERTEX_POINT('',#1906);
#674=VERTEX_POINT('',#1908);
#675=VERTEX_POINT('',#1910);
#676=VERTEX_POINT('',#1913);
#677=VERTEX_POINT('',#1914);
#678=VERTEX_POINT('',#1916);
#679=VERTEX_POINT('',#1918);
#680=VERTEX_POINT('',#1921);
#681=VERTEX_POINT('',#1922);
#682=VERTEX_POINT('',#1924);
#683=VERTEX_POINT('',#1926);
#684=VERTEX_POINT('',#1929);
#685=VERTEX_POINT('',#1930);
#686=VERTEX_POINT('',#1932);
#687=VERTEX_POINT('',#1934);
#688=VERTEX_POINT('',#1937);
#689=VERTEX_POINT('',#1938);
#690=VERTEX_POINT('',#1940);
#691=VERTEX_POINT('',#1942);
#692=VERTEX_POINT('',#1945);
#693=VERTEX_POINT('',#1946);
#694=VERTEX_POINT('',#1948);
#695=VERTEX_POINT('',#1950);
#696=VERTEX_POINT('',#1953);
#697=VERTEX_POINT('',#1954);
#698=VERTEX_POINT('',#1956);
#699=VERTEX_POINT('',#1958);
#700=VERTEX_POINT('',#1961);
#701=VERTEX_POINT('',#1962);
#702=VERTEX_POINT('',#1964);
#703=VERTEX_POINT('',#1966);
#704=VERTEX_POINT('',#1969);
#705=VERTEX_POINT('',#1970);
#706=VERTEX_POINT('',#1972);
#707=VERTEX_POINT('',#1974);
#708=VERTEX_POINT('',#1978);
#709=VERTEX_POINT('',#1979);
#710=VERTEX_POINT('',#1984);
#711=VERTEX_POINT('',#1988);
#712=VERTEX_POINT('',#1992);
#713=VERTEX_POINT('',#1996);
#714=VERTEX_POINT('',#1998);
#715=VERTEX_POINT('',#2002);
#716=VERTEX_POINT('',#2006);
#717=VERTEX_POINT('',#2012);
#718=VERTEX_POINT('',#2014);
#719=VERTEX_POINT('',#2018);
#720=VERTEX_POINT('',#2022);
#721=VERTEX_POINT('',#2028);
#722=VERTEX_POINT('',#2030);
#723=VERTEX_POINT('',#2034);
#724=VERTEX_POINT('',#2038);
#725=VERTEX_POINT('',#2044);
#726=VERTEX_POINT('',#2046);
#727=VERTEX_POINT('',#2050);
#728=VERTEX_POINT('',#2054);
#729=VERTEX_POINT('',#2060);
#730=VERTEX_POINT('',#2062);
#731=VERTEX_POINT('',#2066);
#732=VERTEX_POINT('',#2070);
#733=VERTEX_POINT('',#2076);
#734=VERTEX_POINT('',#2078);
#735=VERTEX_POINT('',#2082);
#736=VERTEX_POINT('',#2086);
#737=VERTEX_POINT('',#2092);
#738=VERTEX_POINT('',#2094);
#739=VERTEX_POINT('',#2098);
#740=VERTEX_POINT('',#2102);
#741=VERTEX_POINT('',#2108);
#742=VERTEX_POINT('',#2110);
#743=VERTEX_POINT('',#2114);
#744=VERTEX_POINT('',#2118);
#745=VERTEX_POINT('',#2124);
#746=VERTEX_POINT('',#2126);
#747=VERTEX_POINT('',#2130);
#748=VERTEX_POINT('',#2134);
#749=VERTEX_POINT('',#2140);
#750=VERTEX_POINT('',#2142);
#751=VERTEX_POINT('',#2146);
#752=VERTEX_POINT('',#2150);
#753=VERTEX_POINT('',#2156);
#754=VERTEX_POINT('',#2158);
#755=VERTEX_POINT('',#2162);
#756=VERTEX_POINT('',#2166);
#757=VERTEX_POINT('',#2172);
#758=VERTEX_POINT('',#2174);
#759=VERTEX_POINT('',#2178);
#760=VERTEX_POINT('',#2182);
#761=VERTEX_POINT('',#2188);
#762=VERTEX_POINT('',#2190);
#763=VERTEX_POINT('',#2194);
#764=VERTEX_POINT('',#2198);
#765=VERTEX_POINT('',#2204);
#766=VERTEX_POINT('',#2206);
#767=VERTEX_POINT('',#2210);
#768=VERTEX_POINT('',#2214);
#769=EDGE_CURVE('',#641,#642,#633,.T.);
#770=EDGE_CURVE('',#642,#643,#265,.T.);
#771=EDGE_CURVE('',#643,#644,#634,.T.);
#772=EDGE_CURVE('',#644,#641,#266,.T.);
#773=EDGE_CURVE('',#644,#645,#267,.T.);
#774=EDGE_CURVE('',#646,#645,#268,.T.);
#775=EDGE_CURVE('',#641,#646,#269,.T.);
#776=EDGE_CURVE('',#647,#643,#270,.T.);
#777=EDGE_CURVE('',#648,#647,#635,.T.);
#778=EDGE_CURVE('',#649,#648,#271,.T.);
#779=EDGE_CURVE('',#650,#649,#636,.T.);
#780=EDGE_CURVE('',#651,#650,#272,.T.);
#781=EDGE_CURVE('',#645,#651,#637,.T.);
#782=EDGE_CURVE('',#652,#653,#273,.T.);
#783=EDGE_CURVE('',#654,#652,#274,.T.);
#784=EDGE_CURVE('',#655,#654,#275,.T.);
#785=EDGE_CURVE('',#653,#655,#276,.T.);
#786=EDGE_CURVE('',#656,#657,#277,.T.);
#787=EDGE_CURVE('',#658,#656,#278,.T.);
#788=EDGE_CURVE('',#659,#658,#279,.T.);
#789=EDGE_CURVE('',#657,#659,#280,.T.);
#790=EDGE_CURVE('',#660,#661,#281,.T.);
#791=EDGE_CURVE('',#662,#660,#282,.T.);
#792=EDGE_CURVE('',#663,#662,#283,.T.);
#793=EDGE_CURVE('',#661,#663,#284,.T.);
#794=EDGE_CURVE('',#664,#665,#285,.T.);
#795=EDGE_CURVE('',#666,#664,#286,.T.);
#796=EDGE_CURVE('',#667,#666,#287,.T.);
#797=EDGE_CURVE('',#665,#667,#288,.T.);
#798=EDGE_CURVE('',#668,#669,#289,.T.);
#799=EDGE_CURVE('',#670,#668,#290,.T.);
#800=EDGE_CURVE('',#671,#670,#291,.T.);
#801=EDGE_CURVE('',#669,#671,#292,.T.);
#802=EDGE_CURVE('',#672,#673,#293,.T.);
#803=EDGE_CURVE('',#674,#672,#294,.T.);
#804=EDGE_CURVE('',#675,#674,#295,.T.);
#805=EDGE_CURVE('',#673,#675,#296,.T.);
#806=EDGE_CURVE('',#676,#677,#297,.T.);
#807=EDGE_CURVE('',#678,#676,#298,.T.);
#808=EDGE_CURVE('',#679,#678,#299,.T.);
#809=EDGE_CURVE('',#677,#679,#300,.T.);
#810=EDGE_CURVE('',#680,#681,#301,.T.);
#811=EDGE_CURVE('',#682,#680,#302,.T.);
#812=EDGE_CURVE('',#683,#682,#303,.T.);
#813=EDGE_CURVE('',#681,#683,#304,.T.);
#814=EDGE_CURVE('',#684,#685,#305,.T.);
#815=EDGE_CURVE('',#686,#684,#306,.T.);
#816=EDGE_CURVE('',#687,#686,#307,.T.);
#817=EDGE_CURVE('',#685,#687,#308,.T.);
#818=EDGE_CURVE('',#688,#689,#309,.T.);
#819=EDGE_CURVE('',#690,#688,#310,.T.);
#820=EDGE_CURVE('',#691,#690,#311,.T.);
#821=EDGE_CURVE('',#689,#691,#312,.T.);
#822=EDGE_CURVE('',#692,#693,#313,.T.);
#823=EDGE_CURVE('',#694,#692,#314,.T.);
#824=EDGE_CURVE('',#695,#694,#315,.T.);
#825=EDGE_CURVE('',#693,#695,#316,.T.);
#826=EDGE_CURVE('',#696,#697,#317,.T.);
#827=EDGE_CURVE('',#698,#696,#318,.T.);
#828=EDGE_CURVE('',#699,#698,#319,.T.);
#829=EDGE_CURVE('',#697,#699,#320,.T.);
#830=EDGE_CURVE('',#700,#701,#321,.T.);
#831=EDGE_CURVE('',#702,#700,#322,.T.);
#832=EDGE_CURVE('',#703,#702,#323,.T.);
#833=EDGE_CURVE('',#701,#703,#324,.T.);
#834=EDGE_CURVE('',#704,#705,#325,.T.);
#835=EDGE_CURVE('',#706,#704,#326,.T.);
#836=EDGE_CURVE('',#707,#706,#327,.T.);
#837=EDGE_CURVE('',#705,#707,#328,.T.);
#838=EDGE_CURVE('',#708,#709,#638,.T.);
#839=EDGE_CURVE('',#709,#648,#329,.T.);
#840=EDGE_CURVE('',#647,#708,#330,.T.);
#841=EDGE_CURVE('',#710,#709,#331,.T.);
#842=EDGE_CURVE('',#649,#710,#332,.T.);
#843=EDGE_CURVE('',#710,#711,#639,.T.);
#844=EDGE_CURVE('',#711,#650,#333,.T.);
#845=EDGE_CURVE('',#712,#646,#640,.T.);
#846=EDGE_CURVE('',#651,#712,#334,.T.);
#847=EDGE_CURVE('',#704,#713,#335,.T.);
#848=EDGE_CURVE('',#714,#713,#336,.T.);
#849=EDGE_CURVE('',#706,#714,#337,.T.);
#850=EDGE_CURVE('',#715,#714,#338,.T.);
#851=EDGE_CURVE('',#707,#715,#339,.T.);
#852=EDGE_CURVE('',#716,#715,#340,.T.);
#853=EDGE_CURVE('',#705,#716,#341,.T.);
#854=EDGE_CURVE('',#713,#716,#342,.T.);
#855=EDGE_CURVE('',#700,#717,#343,.T.);
#856=EDGE_CURVE('',#718,#717,#344,.T.);
#857=EDGE_CURVE('',#702,#718,#345,.T.);
#858=EDGE_CURVE('',#719,#718,#346,.T.);
#859=EDGE_CURVE('',#703,#719,#347,.T.);
#860=EDGE_CURVE('',#720,#719,#348,.T.);
#861=EDGE_CURVE('',#701,#720,#349,.T.);
#862=EDGE_CURVE('',#717,#720,#350,.T.);
#863=EDGE_CURVE('',#696,#721,#351,.T.);
#864=EDGE_CURVE('',#722,#721,#352,.T.);
#865=EDGE_CURVE('',#698,#722,#353,.T.);
#866=EDGE_CURVE('',#723,#722,#354,.T.);
#867=EDGE_CURVE('',#699,#723,#355,.T.);
#868=EDGE_CURVE('',#724,#723,#356,.T.);
#869=EDGE_CURVE('',#697,#724,#357,.T.);
#870=EDGE_CURVE('',#721,#724,#358,.T.);
#871=EDGE_CURVE('',#692,#725,#359,.T.);
#872=EDGE_CURVE('',#726,#725,#360,.T.);
#873=EDGE_CURVE('',#694,#726,#361,.T.);
#874=EDGE_CURVE('',#727,#726,#362,.T.);
#875=EDGE_CURVE('',#695,#727,#363,.T.);
#876=EDGE_CURVE('',#728,#727,#364,.T.);
#877=EDGE_CURVE('',#693,#728,#365,.T.);
#878=EDGE_CURVE('',#725,#728,#366,.T.);
#879=EDGE_CURVE('',#688,#729,#367,.T.);
#880=EDGE_CURVE('',#730,#729,#368,.T.);
#881=EDGE_CURVE('',#690,#730,#369,.T.);
#882=EDGE_CURVE('',#731,#730,#370,.T.);
#883=EDGE_CURVE('',#691,#731,#371,.T.);
#884=EDGE_CURVE('',#732,#731,#372,.T.);
#885=EDGE_CURVE('',#689,#732,#373,.T.);
#886=EDGE_CURVE('',#729,#732,#374,.T.);
#887=EDGE_CURVE('',#684,#733,#375,.T.);
#888=EDGE_CURVE('',#734,#733,#376,.T.);
#889=EDGE_CURVE('',#686,#734,#377,.T.);
#890=EDGE_CURVE('',#735,#734,#378,.T.);
#891=EDGE_CURVE('',#687,#735,#379,.T.);
#892=EDGE_CURVE('',#736,#735,#380,.T.);
#893=EDGE_CURVE('',#685,#736,#381,.T.);
#894=EDGE_CURVE('',#733,#736,#382,.T.);
#895=EDGE_CURVE('',#680,#737,#383,.T.);
#896=EDGE_CURVE('',#738,#737,#384,.T.);
#897=EDGE_CURVE('',#682,#738,#385,.T.);
#898=EDGE_CURVE('',#739,#738,#386,.T.);
#899=EDGE_CURVE('',#683,#739,#387,.T.);
#900=EDGE_CURVE('',#740,#739,#388,.T.);
#901=EDGE_CURVE('',#681,#740,#389,.T.);
#902=EDGE_CURVE('',#737,#740,#390,.T.);
#903=EDGE_CURVE('',#676,#741,#391,.T.);
#904=EDGE_CURVE('',#742,#741,#392,.T.);
#905=EDGE_CURVE('',#678,#742,#393,.T.);
#906=EDGE_CURVE('',#743,#742,#394,.T.);
#907=EDGE_CURVE('',#679,#743,#395,.T.);
#908=EDGE_CURVE('',#744,#743,#396,.T.);
#909=EDGE_CURVE('',#677,#744,#397,.T.);
#910=EDGE_CURVE('',#741,#744,#398,.T.);
#911=EDGE_CURVE('',#672,#745,#399,.T.);
#912=EDGE_CURVE('',#746,#745,#400,.T.);
#913=EDGE_CURVE('',#674,#746,#401,.T.);
#914=EDGE_CURVE('',#747,#746,#402,.T.);
#915=EDGE_CURVE('',#675,#747,#403,.T.);
#916=EDGE_CURVE('',#748,#747,#404,.T.);
#917=EDGE_CURVE('',#673,#748,#405,.T.);
#918=EDGE_CURVE('',#745,#748,#406,.T.);
#919=EDGE_CURVE('',#668,#749,#407,.T.);
#920=EDGE_CURVE('',#750,#749,#408,.T.);
#921=EDGE_CURVE('',#670,#750,#409,.T.);
#922=EDGE_CURVE('',#751,#750,#410,.T.);
#923=EDGE_CURVE('',#671,#751,#411,.T.);
#924=EDGE_CURVE('',#752,#751,#412,.T.);
#925=EDGE_CURVE('',#669,#752,#413,.T.);
#926=EDGE_CURVE('',#749,#752,#414,.T.);
#927=EDGE_CURVE('',#664,#753,#415,.T.);
#928=EDGE_CURVE('',#754,#753,#416,.T.);
#929=EDGE_CURVE('',#666,#754,#417,.T.);
#930=EDGE_CURVE('',#755,#754,#418,.T.);
#931=EDGE_CURVE('',#667,#755,#419,.T.);
#932=EDGE_CURVE('',#756,#755,#420,.T.);
#933=EDGE_CURVE('',#665,#756,#421,.T.);
#934=EDGE_CURVE('',#753,#756,#422,.T.);
#935=EDGE_CURVE('',#660,#757,#423,.T.);
#936=EDGE_CURVE('',#758,#757,#424,.T.);
#937=EDGE_CURVE('',#662,#758,#425,.T.);
#938=EDGE_CURVE('',#759,#758,#426,.T.);
#939=EDGE_CURVE('',#663,#759,#427,.T.);
#940=EDGE_CURVE('',#760,#759,#428,.T.);
#941=EDGE_CURVE('',#661,#760,#429,.T.);
#942=EDGE_CURVE('',#757,#760,#430,.T.);
#943=EDGE_CURVE('',#656,#761,#431,.T.);
#944=EDGE_CURVE('',#762,#761,#432,.T.);
#945=EDGE_CURVE('',#658,#762,#433,.T.);
#946=EDGE_CURVE('',#763,#762,#434,.T.);
#947=EDGE_CURVE('',#659,#763,#435,.T.);
#948=EDGE_CURVE('',#764,#763,#436,.T.);
#949=EDGE_CURVE('',#657,#764,#437,.T.);
#950=EDGE_CURVE('',#761,#764,#438,.T.);
#951=EDGE_CURVE('',#652,#765,#439,.T.);
#952=EDGE_CURVE('',#766,#765,#440,.T.);
#953=EDGE_CURVE('',#654,#766,#441,.T.);
#954=EDGE_CURVE('',#767,#766,#442,.T.);
#955=EDGE_CURVE('',#655,#767,#443,.T.);
#956=EDGE_CURVE('',#768,#767,#444,.T.);
#957=EDGE_CURVE('',#653,#768,#445,.T.);
#958=EDGE_CURVE('',#765,#768,#446,.T.);
#959=EDGE_CURVE('',#712,#711,#447,.T.);
#960=EDGE_CURVE('',#708,#642,#448,.T.);
#961=ORIENTED_EDGE('',*,*,#769,.T.);
#962=ORIENTED_EDGE('',*,*,#770,.T.);
#963=ORIENTED_EDGE('',*,*,#771,.T.);
#964=ORIENTED_EDGE('',*,*,#772,.T.);
#965=ORIENTED_EDGE('',*,*,#772,.F.);
#966=ORIENTED_EDGE('',*,*,#773,.T.);
#967=ORIENTED_EDGE('',*,*,#774,.F.);
#968=ORIENTED_EDGE('',*,*,#775,.F.);
#969=ORIENTED_EDGE('',*,*,#771,.F.);
#970=ORIENTED_EDGE('',*,*,#776,.F.);
#971=ORIENTED_EDGE('',*,*,#777,.F.);
#972=ORIENTED_EDGE('',*,*,#778,.F.);
#973=ORIENTED_EDGE('',*,*,#779,.F.);
#974=ORIENTED_EDGE('',*,*,#780,.F.);
#975=ORIENTED_EDGE('',*,*,#781,.F.);
#976=ORIENTED_EDGE('',*,*,#773,.F.);
#977=ORIENTED_EDGE('',*,*,#782,.F.);
#978=ORIENTED_EDGE('',*,*,#783,.F.);
#979=ORIENTED_EDGE('',*,*,#784,.F.);
#980=ORIENTED_EDGE('',*,*,#785,.F.);
#981=ORIENTED_EDGE('',*,*,#786,.F.);
#982=ORIENTED_EDGE('',*,*,#787,.F.);
#983=ORIENTED_EDGE('',*,*,#788,.F.);
#984=ORIENTED_EDGE('',*,*,#789,.F.);
#985=ORIENTED_EDGE('',*,*,#790,.F.);
#986=ORIENTED_EDGE('',*,*,#791,.F.);
#987=ORIENTED_EDGE('',*,*,#792,.F.);
#988=ORIENTED_EDGE('',*,*,#793,.F.);
#989=ORIENTED_EDGE('',*,*,#794,.F.);
#990=ORIENTED_EDGE('',*,*,#795,.F.);
#991=ORIENTED_EDGE('',*,*,#796,.F.);
#992=ORIENTED_EDGE('',*,*,#797,.F.);
#993=ORIENTED_EDGE('',*,*,#798,.F.);
#994=ORIENTED_EDGE('',*,*,#799,.F.);
#995=ORIENTED_EDGE('',*,*,#800,.F.);
#996=ORIENTED_EDGE('',*,*,#801,.F.);
#997=ORIENTED_EDGE('',*,*,#802,.F.);
#998=ORIENTED_EDGE('',*,*,#803,.F.);
#999=ORIENTED_EDGE('',*,*,#804,.F.);
#1000=ORIENTED_EDGE('',*,*,#805,.F.);
#1001=ORIENTED_EDGE('',*,*,#806,.F.);
#1002=ORIENTED_EDGE('',*,*,#807,.F.);
#1003=ORIENTED_EDGE('',*,*,#808,.F.);
#1004=ORIENTED_EDGE('',*,*,#809,.F.);
#1005=ORIENTED_EDGE('',*,*,#810,.F.);
#1006=ORIENTED_EDGE('',*,*,#811,.F.);
#1007=ORIENTED_EDGE('',*,*,#812,.F.);
#1008=ORIENTED_EDGE('',*,*,#813,.F.);
#1009=ORIENTED_EDGE('',*,*,#814,.F.);
#1010=ORIENTED_EDGE('',*,*,#815,.F.);
#1011=ORIENTED_EDGE('',*,*,#816,.F.);
#1012=ORIENTED_EDGE('',*,*,#817,.F.);
#1013=ORIENTED_EDGE('',*,*,#818,.F.);
#1014=ORIENTED_EDGE('',*,*,#819,.F.);
#1015=ORIENTED_EDGE('',*,*,#820,.F.);
#1016=ORIENTED_EDGE('',*,*,#821,.F.);
#1017=ORIENTED_EDGE('',*,*,#822,.F.);
#1018=ORIENTED_EDGE('',*,*,#823,.F.);
#1019=ORIENTED_EDGE('',*,*,#824,.F.);
#1020=ORIENTED_EDGE('',*,*,#825,.F.);
#1021=ORIENTED_EDGE('',*,*,#826,.F.);
#1022=ORIENTED_EDGE('',*,*,#827,.F.);
#1023=ORIENTED_EDGE('',*,*,#828,.F.);
#1024=ORIENTED_EDGE('',*,*,#829,.F.);
#1025=ORIENTED_EDGE('',*,*,#830,.F.);
#1026=ORIENTED_EDGE('',*,*,#831,.F.);
#1027=ORIENTED_EDGE('',*,*,#832,.F.);
#1028=ORIENTED_EDGE('',*,*,#833,.F.);
#1029=ORIENTED_EDGE('',*,*,#834,.F.);
#1030=ORIENTED_EDGE('',*,*,#835,.F.);
#1031=ORIENTED_EDGE('',*,*,#836,.F.);
#1032=ORIENTED_EDGE('',*,*,#837,.F.);
#1033=ORIENTED_EDGE('',*,*,#838,.T.);
#1034=ORIENTED_EDGE('',*,*,#839,.T.);
#1035=ORIENTED_EDGE('',*,*,#777,.T.);
#1036=ORIENTED_EDGE('',*,*,#840,.T.);
#1037=ORIENTED_EDGE('',*,*,#839,.F.);
#1038=ORIENTED_EDGE('',*,*,#841,.F.);
#1039=ORIENTED_EDGE('',*,*,#842,.F.);
#1040=ORIENTED_EDGE('',*,*,#778,.T.);
#1041=ORIENTED_EDGE('',*,*,#843,.T.);
#1042=ORIENTED_EDGE('',*,*,#844,.T.);
#1043=ORIENTED_EDGE('',*,*,#779,.T.);
#1044=ORIENTED_EDGE('',*,*,#842,.T.);
#1045=ORIENTED_EDGE('',*,*,#845,.T.);
#1046=ORIENTED_EDGE('',*,*,#774,.T.);
#1047=ORIENTED_EDGE('',*,*,#781,.T.);
#1048=ORIENTED_EDGE('',*,*,#846,.T.);
#1049=ORIENTED_EDGE('',*,*,#835,.T.);
#1050=ORIENTED_EDGE('',*,*,#847,.T.);
#1051=ORIENTED_EDGE('',*,*,#848,.F.);
#1052=ORIENTED_EDGE('',*,*,#849,.F.);
#1053=ORIENTED_EDGE('',*,*,#836,.T.);
#1054=ORIENTED_EDGE('',*,*,#849,.T.);
#1055=ORIENTED_EDGE('',*,*,#850,.F.);
#1056=ORIENTED_EDGE('',*,*,#851,.F.);
#1057=ORIENTED_EDGE('',*,*,#837,.T.);
#1058=ORIENTED_EDGE('',*,*,#851,.T.);
#1059=ORIENTED_EDGE('',*,*,#852,.F.);
#1060=ORIENTED_EDGE('',*,*,#853,.F.);
#1061=ORIENTED_EDGE('',*,*,#834,.T.);
#1062=ORIENTED_EDGE('',*,*,#853,.T.);
#1063=ORIENTED_EDGE('',*,*,#854,.F.);
#1064=ORIENTED_EDGE('',*,*,#847,.F.);
#1065=ORIENTED_EDGE('',*,*,#831,.T.);
#1066=ORIENTED_EDGE('',*,*,#855,.T.);
#1067=ORIENTED_EDGE('',*,*,#856,.F.);
#1068=ORIENTED_EDGE('',*,*,#857,.F.);
#1069=ORIENTED_EDGE('',*,*,#832,.T.);
#1070=ORIENTED_EDGE('',*,*,#857,.T.);
#1071=ORIENTED_EDGE('',*,*,#858,.F.);
#1072=ORIENTED_EDGE('',*,*,#859,.F.);
#1073=ORIENTED_EDGE('',*,*,#833,.T.);
#1074=ORIENTED_EDGE('',*,*,#859,.T.);
#1075=ORIENTED_EDGE('',*,*,#860,.F.);
#1076=ORIENTED_EDGE('',*,*,#861,.F.);
#1077=ORIENTED_EDGE('',*,*,#830,.T.);
#1078=ORIENTED_EDGE('',*,*,#861,.T.);
#1079=ORIENTED_EDGE('',*,*,#862,.F.);
#1080=ORIENTED_EDGE('',*,*,#855,.F.);
#1081=ORIENTED_EDGE('',*,*,#827,.T.);
#1082=ORIENTED_EDGE('',*,*,#863,.T.);
#1083=ORIENTED_EDGE('',*,*,#864,.F.);
#1084=ORIENTED_EDGE('',*,*,#865,.F.);
#1085=ORIENTED_EDGE('',*,*,#828,.T.);
#1086=ORIENTED_EDGE('',*,*,#865,.T.);
#1087=ORIENTED_EDGE('',*,*,#866,.F.);
#1088=ORIENTED_EDGE('',*,*,#867,.F.);
#1089=ORIENTED_EDGE('',*,*,#829,.T.);
#1090=ORIENTED_EDGE('',*,*,#867,.T.);
#1091=ORIENTED_EDGE('',*,*,#868,.F.);
#1092=ORIENTED_EDGE('',*,*,#869,.F.);
#1093=ORIENTED_EDGE('',*,*,#826,.T.);
#1094=ORIENTED_EDGE('',*,*,#869,.T.);
#1095=ORIENTED_EDGE('',*,*,#870,.F.);
#1096=ORIENTED_EDGE('',*,*,#863,.F.);
#1097=ORIENTED_EDGE('',*,*,#823,.T.);
#1098=ORIENTED_EDGE('',*,*,#871,.T.);
#1099=ORIENTED_EDGE('',*,*,#872,.F.);
#1100=ORIENTED_EDGE('',*,*,#873,.F.);
#1101=ORIENTED_EDGE('',*,*,#824,.T.);
#1102=ORIENTED_EDGE('',*,*,#873,.T.);
#1103=ORIENTED_EDGE('',*,*,#874,.F.);
#1104=ORIENTED_EDGE('',*,*,#875,.F.);
#1105=ORIENTED_EDGE('',*,*,#825,.T.);
#1106=ORIENTED_EDGE('',*,*,#875,.T.);
#1107=ORIENTED_EDGE('',*,*,#876,.F.);
#1108=ORIENTED_EDGE('',*,*,#877,.F.);
#1109=ORIENTED_EDGE('',*,*,#822,.T.);
#1110=ORIENTED_EDGE('',*,*,#877,.T.);
#1111=ORIENTED_EDGE('',*,*,#878,.F.);
#1112=ORIENTED_EDGE('',*,*,#871,.F.);
#1113=ORIENTED_EDGE('',*,*,#819,.T.);
#1114=ORIENTED_EDGE('',*,*,#879,.T.);
#1115=ORIENTED_EDGE('',*,*,#880,.F.);
#1116=ORIENTED_EDGE('',*,*,#881,.F.);
#1117=ORIENTED_EDGE('',*,*,#820,.T.);
#1118=ORIENTED_EDGE('',*,*,#881,.T.);
#1119=ORIENTED_EDGE('',*,*,#882,.F.);
#1120=ORIENTED_EDGE('',*,*,#883,.F.);
#1121=ORIENTED_EDGE('',*,*,#821,.T.);
#1122=ORIENTED_EDGE('',*,*,#883,.T.);
#1123=ORIENTED_EDGE('',*,*,#884,.F.);
#1124=ORIENTED_EDGE('',*,*,#885,.F.);
#1125=ORIENTED_EDGE('',*,*,#818,.T.);
#1126=ORIENTED_EDGE('',*,*,#885,.T.);
#1127=ORIENTED_EDGE('',*,*,#886,.F.);
#1128=ORIENTED_EDGE('',*,*,#879,.F.);
#1129=ORIENTED_EDGE('',*,*,#815,.T.);
#1130=ORIENTED_EDGE('',*,*,#887,.T.);
#1131=ORIENTED_EDGE('',*,*,#888,.F.);
#1132=ORIENTED_EDGE('',*,*,#889,.F.);
#1133=ORIENTED_EDGE('',*,*,#816,.T.);
#1134=ORIENTED_EDGE('',*,*,#889,.T.);
#1135=ORIENTED_EDGE('',*,*,#890,.F.);
#1136=ORIENTED_EDGE('',*,*,#891,.F.);
#1137=ORIENTED_EDGE('',*,*,#817,.T.);
#1138=ORIENTED_EDGE('',*,*,#891,.T.);
#1139=ORIENTED_EDGE('',*,*,#892,.F.);
#1140=ORIENTED_EDGE('',*,*,#893,.F.);
#1141=ORIENTED_EDGE('',*,*,#814,.T.);
#1142=ORIENTED_EDGE('',*,*,#893,.T.);
#1143=ORIENTED_EDGE('',*,*,#894,.F.);
#1144=ORIENTED_EDGE('',*,*,#887,.F.);
#1145=ORIENTED_EDGE('',*,*,#811,.T.);
#1146=ORIENTED_EDGE('',*,*,#895,.T.);
#1147=ORIENTED_EDGE('',*,*,#896,.F.);
#1148=ORIENTED_EDGE('',*,*,#897,.F.);
#1149=ORIENTED_EDGE('',*,*,#812,.T.);
#1150=ORIENTED_EDGE('',*,*,#897,.T.);
#1151=ORIENTED_EDGE('',*,*,#898,.F.);
#1152=ORIENTED_EDGE('',*,*,#899,.F.);
#1153=ORIENTED_EDGE('',*,*,#813,.T.);
#1154=ORIENTED_EDGE('',*,*,#899,.T.);
#1155=ORIENTED_EDGE('',*,*,#900,.F.);
#1156=ORIENTED_EDGE('',*,*,#901,.F.);
#1157=ORIENTED_EDGE('',*,*,#810,.T.);
#1158=ORIENTED_EDGE('',*,*,#901,.T.);
#1159=ORIENTED_EDGE('',*,*,#902,.F.);
#1160=ORIENTED_EDGE('',*,*,#895,.F.);
#1161=ORIENTED_EDGE('',*,*,#807,.T.);
#1162=ORIENTED_EDGE('',*,*,#903,.T.);
#1163=ORIENTED_EDGE('',*,*,#904,.F.);
#1164=ORIENTED_EDGE('',*,*,#905,.F.);
#1165=ORIENTED_EDGE('',*,*,#808,.T.);
#1166=ORIENTED_EDGE('',*,*,#905,.T.);
#1167=ORIENTED_EDGE('',*,*,#906,.F.);
#1168=ORIENTED_EDGE('',*,*,#907,.F.);
#1169=ORIENTED_EDGE('',*,*,#809,.T.);
#1170=ORIENTED_EDGE('',*,*,#907,.T.);
#1171=ORIENTED_EDGE('',*,*,#908,.F.);
#1172=ORIENTED_EDGE('',*,*,#909,.F.);
#1173=ORIENTED_EDGE('',*,*,#806,.T.);
#1174=ORIENTED_EDGE('',*,*,#909,.T.);
#1175=ORIENTED_EDGE('',*,*,#910,.F.);
#1176=ORIENTED_EDGE('',*,*,#903,.F.);
#1177=ORIENTED_EDGE('',*,*,#803,.T.);
#1178=ORIENTED_EDGE('',*,*,#911,.T.);
#1179=ORIENTED_EDGE('',*,*,#912,.F.);
#1180=ORIENTED_EDGE('',*,*,#913,.F.);
#1181=ORIENTED_EDGE('',*,*,#804,.T.);
#1182=ORIENTED_EDGE('',*,*,#913,.T.);
#1183=ORIENTED_EDGE('',*,*,#914,.F.);
#1184=ORIENTED_EDGE('',*,*,#915,.F.);
#1185=ORIENTED_EDGE('',*,*,#805,.T.);
#1186=ORIENTED_EDGE('',*,*,#915,.T.);
#1187=ORIENTED_EDGE('',*,*,#916,.F.);
#1188=ORIENTED_EDGE('',*,*,#917,.F.);
#1189=ORIENTED_EDGE('',*,*,#802,.T.);
#1190=ORIENTED_EDGE('',*,*,#917,.T.);
#1191=ORIENTED_EDGE('',*,*,#918,.F.);
#1192=ORIENTED_EDGE('',*,*,#911,.F.);
#1193=ORIENTED_EDGE('',*,*,#799,.T.);
#1194=ORIENTED_EDGE('',*,*,#919,.T.);
#1195=ORIENTED_EDGE('',*,*,#920,.F.);
#1196=ORIENTED_EDGE('',*,*,#921,.F.);
#1197=ORIENTED_EDGE('',*,*,#800,.T.);
#1198=ORIENTED_EDGE('',*,*,#921,.T.);
#1199=ORIENTED_EDGE('',*,*,#922,.F.);
#1200=ORIENTED_EDGE('',*,*,#923,.F.);
#1201=ORIENTED_EDGE('',*,*,#801,.T.);
#1202=ORIENTED_EDGE('',*,*,#923,.T.);
#1203=ORIENTED_EDGE('',*,*,#924,.F.);
#1204=ORIENTED_EDGE('',*,*,#925,.F.);
#1205=ORIENTED_EDGE('',*,*,#798,.T.);
#1206=ORIENTED_EDGE('',*,*,#925,.T.);
#1207=ORIENTED_EDGE('',*,*,#926,.F.);
#1208=ORIENTED_EDGE('',*,*,#919,.F.);
#1209=ORIENTED_EDGE('',*,*,#795,.T.);
#1210=ORIENTED_EDGE('',*,*,#927,.T.);
#1211=ORIENTED_EDGE('',*,*,#928,.F.);
#1212=ORIENTED_EDGE('',*,*,#929,.F.);
#1213=ORIENTED_EDGE('',*,*,#796,.T.);
#1214=ORIENTED_EDGE('',*,*,#929,.T.);
#1215=ORIENTED_EDGE('',*,*,#930,.F.);
#1216=ORIENTED_EDGE('',*,*,#931,.F.);
#1217=ORIENTED_EDGE('',*,*,#797,.T.);
#1218=ORIENTED_EDGE('',*,*,#931,.T.);
#1219=ORIENTED_EDGE('',*,*,#932,.F.);
#1220=ORIENTED_EDGE('',*,*,#933,.F.);
#1221=ORIENTED_EDGE('',*,*,#794,.T.);
#1222=ORIENTED_EDGE('',*,*,#933,.T.);
#1223=ORIENTED_EDGE('',*,*,#934,.F.);
#1224=ORIENTED_EDGE('',*,*,#927,.F.);
#1225=ORIENTED_EDGE('',*,*,#791,.T.);
#1226=ORIENTED_EDGE('',*,*,#935,.T.);
#1227=ORIENTED_EDGE('',*,*,#936,.F.);
#1228=ORIENTED_EDGE('',*,*,#937,.F.);
#1229=ORIENTED_EDGE('',*,*,#792,.T.);
#1230=ORIENTED_EDGE('',*,*,#937,.T.);
#1231=ORIENTED_EDGE('',*,*,#938,.F.);
#1232=ORIENTED_EDGE('',*,*,#939,.F.);
#1233=ORIENTED_EDGE('',*,*,#793,.T.);
#1234=ORIENTED_EDGE('',*,*,#939,.T.);
#1235=ORIENTED_EDGE('',*,*,#940,.F.);
#1236=ORIENTED_EDGE('',*,*,#941,.F.);
#1237=ORIENTED_EDGE('',*,*,#790,.T.);
#1238=ORIENTED_EDGE('',*,*,#941,.T.);
#1239=ORIENTED_EDGE('',*,*,#942,.F.);
#1240=ORIENTED_EDGE('',*,*,#935,.F.);
#1241=ORIENTED_EDGE('',*,*,#787,.T.);
#1242=ORIENTED_EDGE('',*,*,#943,.T.);
#1243=ORIENTED_EDGE('',*,*,#944,.F.);
#1244=ORIENTED_EDGE('',*,*,#945,.F.);
#1245=ORIENTED_EDGE('',*,*,#788,.T.);
#1246=ORIENTED_EDGE('',*,*,#945,.T.);
#1247=ORIENTED_EDGE('',*,*,#946,.F.);
#1248=ORIENTED_EDGE('',*,*,#947,.F.);
#1249=ORIENTED_EDGE('',*,*,#789,.T.);
#1250=ORIENTED_EDGE('',*,*,#947,.T.);
#1251=ORIENTED_EDGE('',*,*,#948,.F.);
#1252=ORIENTED_EDGE('',*,*,#949,.F.);
#1253=ORIENTED_EDGE('',*,*,#786,.T.);
#1254=ORIENTED_EDGE('',*,*,#949,.T.);
#1255=ORIENTED_EDGE('',*,*,#950,.F.);
#1256=ORIENTED_EDGE('',*,*,#943,.F.);
#1257=ORIENTED_EDGE('',*,*,#783,.T.);
#1258=ORIENTED_EDGE('',*,*,#951,.T.);
#1259=ORIENTED_EDGE('',*,*,#952,.F.);
#1260=ORIENTED_EDGE('',*,*,#953,.F.);
#1261=ORIENTED_EDGE('',*,*,#784,.T.);
#1262=ORIENTED_EDGE('',*,*,#953,.T.);
#1263=ORIENTED_EDGE('',*,*,#954,.F.);
#1264=ORIENTED_EDGE('',*,*,#955,.F.);
#1265=ORIENTED_EDGE('',*,*,#785,.T.);
#1266=ORIENTED_EDGE('',*,*,#955,.T.);
#1267=ORIENTED_EDGE('',*,*,#956,.F.);
#1268=ORIENTED_EDGE('',*,*,#957,.F.);
#1269=ORIENTED_EDGE('',*,*,#782,.T.);
#1270=ORIENTED_EDGE('',*,*,#957,.T.);
#1271=ORIENTED_EDGE('',*,*,#958,.F.);
#1272=ORIENTED_EDGE('',*,*,#951,.F.);
#1273=ORIENTED_EDGE('',*,*,#844,.F.);
#1274=ORIENTED_EDGE('',*,*,#959,.F.);
#1275=ORIENTED_EDGE('',*,*,#846,.F.);
#1276=ORIENTED_EDGE('',*,*,#780,.T.);
#1277=ORIENTED_EDGE('',*,*,#770,.F.);
#1278=ORIENTED_EDGE('',*,*,#960,.F.);
#1279=ORIENTED_EDGE('',*,*,#840,.F.);
#1280=ORIENTED_EDGE('',*,*,#776,.T.);
#1281=ORIENTED_EDGE('',*,*,#769,.F.);
#1282=ORIENTED_EDGE('',*,*,#775,.T.);
#1283=ORIENTED_EDGE('',*,*,#845,.F.);
#1284=ORIENTED_EDGE('',*,*,#959,.T.);
#1285=ORIENTED_EDGE('',*,*,#843,.F.);
#1286=ORIENTED_EDGE('',*,*,#841,.T.);
#1287=ORIENTED_EDGE('',*,*,#838,.F.);
#1288=ORIENTED_EDGE('',*,*,#960,.T.);
#1289=ORIENTED_EDGE('',*,*,#958,.T.);
#1290=ORIENTED_EDGE('',*,*,#956,.T.);
#1291=ORIENTED_EDGE('',*,*,#954,.T.);
#1292=ORIENTED_EDGE('',*,*,#952,.T.);
#1293=ORIENTED_EDGE('',*,*,#950,.T.);
#1294=ORIENTED_EDGE('',*,*,#948,.T.);
#1295=ORIENTED_EDGE('',*,*,#946,.T.);
#1296=ORIENTED_EDGE('',*,*,#944,.T.);
#1297=ORIENTED_EDGE('',*,*,#942,.T.);
#1298=ORIENTED_EDGE('',*,*,#940,.T.);
#1299=ORIENTED_EDGE('',*,*,#938,.T.);
#1300=ORIENTED_EDGE('',*,*,#936,.T.);
#1301=ORIENTED_EDGE('',*,*,#934,.T.);
#1302=ORIENTED_EDGE('',*,*,#932,.T.);
#1303=ORIENTED_EDGE('',*,*,#930,.T.);
#1304=ORIENTED_EDGE('',*,*,#928,.T.);
#1305=ORIENTED_EDGE('',*,*,#926,.T.);
#1306=ORIENTED_EDGE('',*,*,#924,.T.);
#1307=ORIENTED_EDGE('',*,*,#922,.T.);
#1308=ORIENTED_EDGE('',*,*,#920,.T.);
#1309=ORIENTED_EDGE('',*,*,#918,.T.);
#1310=ORIENTED_EDGE('',*,*,#916,.T.);
#1311=ORIENTED_EDGE('',*,*,#914,.T.);
#1312=ORIENTED_EDGE('',*,*,#912,.T.);
#1313=ORIENTED_EDGE('',*,*,#910,.T.);
#1314=ORIENTED_EDGE('',*,*,#908,.T.);
#1315=ORIENTED_EDGE('',*,*,#906,.T.);
#1316=ORIENTED_EDGE('',*,*,#904,.T.);
#1317=ORIENTED_EDGE('',*,*,#902,.T.);
#1318=ORIENTED_EDGE('',*,*,#900,.T.);
#1319=ORIENTED_EDGE('',*,*,#898,.T.);
#1320=ORIENTED_EDGE('',*,*,#896,.T.);
#1321=ORIENTED_EDGE('',*,*,#894,.T.);
#1322=ORIENTED_EDGE('',*,*,#892,.T.);
#1323=ORIENTED_EDGE('',*,*,#890,.T.);
#1324=ORIENTED_EDGE('',*,*,#888,.T.);
#1325=ORIENTED_EDGE('',*,*,#886,.T.);
#1326=ORIENTED_EDGE('',*,*,#884,.T.);
#1327=ORIENTED_EDGE('',*,*,#882,.T.);
#1328=ORIENTED_EDGE('',*,*,#880,.T.);
#1329=ORIENTED_EDGE('',*,*,#878,.T.);
#1330=ORIENTED_EDGE('',*,*,#876,.T.);
#1331=ORIENTED_EDGE('',*,*,#874,.T.);
#1332=ORIENTED_EDGE('',*,*,#872,.T.);
#1333=ORIENTED_EDGE('',*,*,#870,.T.);
#1334=ORIENTED_EDGE('',*,*,#868,.T.);
#1335=ORIENTED_EDGE('',*,*,#866,.T.);
#1336=ORIENTED_EDGE('',*,*,#864,.T.);
#1337=ORIENTED_EDGE('',*,*,#862,.T.);
#1338=ORIENTED_EDGE('',*,*,#860,.T.);
#1339=ORIENTED_EDGE('',*,*,#858,.T.);
#1340=ORIENTED_EDGE('',*,*,#856,.T.);
#1341=ORIENTED_EDGE('',*,*,#854,.T.);
#1342=ORIENTED_EDGE('',*,*,#852,.T.);
#1343=ORIENTED_EDGE('',*,*,#850,.T.);
#1344=ORIENTED_EDGE('',*,*,#848,.T.);
#1345=CYLINDRICAL_SURFACE('',#1429,3.);
#1346=CYLINDRICAL_SURFACE('',#1437,3.);
#1347=CYLINDRICAL_SURFACE('',#1440,3.);
#1348=CYLINDRICAL_SURFACE('',#1442,3.);
#1349=ADVANCED_FACE('',(#105),#1345,.T.);
#1350=ADVANCED_FACE('',(#106),#43,.T.);
#1351=ADVANCED_FACE('',(#107,#15,#16,#17,#18,#19,#20,#21,#22,#23,#24,#25,
#26,#27,#28),#44,.F.);
#1352=ADVANCED_FACE('',(#108),#1346,.T.);
#1353=ADVANCED_FACE('',(#109),#45,.T.);
#1354=ADVANCED_FACE('',(#110),#1347,.T.);
#1355=ADVANCED_FACE('',(#111),#1348,.T.);
#1356=ADVANCED_FACE('',(#112),#46,.T.);
#1357=ADVANCED_FACE('',(#113),#47,.T.);
#1358=ADVANCED_FACE('',(#114),#48,.T.);
#1359=ADVANCED_FACE('',(#115),#49,.T.);
#1360=ADVANCED_FACE('',(#116),#50,.T.);
#1361=ADVANCED_FACE('',(#117),#51,.T.);
#1362=ADVANCED_FACE('',(#118),#52,.T.);
#1363=ADVANCED_FACE('',(#119),#53,.T.);
#1364=ADVANCED_FACE('',(#120),#54,.T.);
#1365=ADVANCED_FACE('',(#121),#55,.T.);
#1366=ADVANCED_FACE('',(#122),#56,.T.);
#1367=ADVANCED_FACE('',(#123),#57,.T.);
#1368=ADVANCED_FACE('',(#124),#58,.T.);
#1369=ADVANCED_FACE('',(#125),#59,.T.);
#1370=ADVANCED_FACE('',(#126),#60,.T.);
#1371=ADVANCED_FACE('',(#127),#61,.T.);
#1372=ADVANCED_FACE('',(#128),#62,.T.);
#1373=ADVANCED_FACE('',(#129),#63,.T.);
#1374=ADVANCED_FACE('',(#130),#64,.T.);
#1375=ADVANCED_FACE('',(#131),#65,.T.);
#1376=ADVANCED_FACE('',(#132),#66,.T.);
#1377=ADVANCED_FACE('',(#133),#67,.T.);
#1378=ADVANCED_FACE('',(#134),#68,.T.);
#1379=ADVANCED_FACE('',(#135),#69,.T.);
#1380=ADVANCED_FACE('',(#136),#70,.T.);
#1381=ADVANCED_FACE('',(#137),#71,.T.);
#1382=ADVANCED_FACE('',(#138),#72,.T.);
#1383=ADVANCED_FACE('',(#139),#73,.T.);
#1384=ADVANCED_FACE('',(#140),#74,.T.);
#1385=ADVANCED_FACE('',(#141),#75,.T.);
#1386=ADVANCED_FACE('',(#142),#76,.T.);
#1387=ADVANCED_FACE('',(#143),#77,.T.);
#1388=ADVANCED_FACE('',(#144),#78,.T.);
#1389=ADVANCED_FACE('',(#145),#79,.T.);
#1390=ADVANCED_FACE('',(#146),#80,.T.);
#1391=ADVANCED_FACE('',(#147),#81,.T.);
#1392=ADVANCED_FACE('',(#148),#82,.T.);
#1393=ADVANCED_FACE('',(#149),#83,.T.);
#1394=ADVANCED_FACE('',(#150),#84,.T.);
#1395=ADVANCED_FACE('',(#151),#85,.T.);
#1396=ADVANCED_FACE('',(#152),#86,.T.);
#1397=ADVANCED_FACE('',(#153),#87,.T.);
#1398=ADVANCED_FACE('',(#154),#88,.T.);
#1399=ADVANCED_FACE('',(#155),#89,.T.);
#1400=ADVANCED_FACE('',(#156),#90,.T.);
#1401=ADVANCED_FACE('',(#157),#91,.T.);
#1402=ADVANCED_FACE('',(#158),#92,.T.);
#1403=ADVANCED_FACE('',(#159),#93,.T.);
#1404=ADVANCED_FACE('',(#160),#94,.T.);
#1405=ADVANCED_FACE('',(#161),#95,.T.);
#1406=ADVANCED_FACE('',(#162),#96,.T.);
#1407=ADVANCED_FACE('',(#163),#97,.T.);
#1408=ADVANCED_FACE('',(#164),#98,.T.);
#1409=ADVANCED_FACE('',(#165),#99,.T.);
#1410=ADVANCED_FACE('',(#166),#100,.T.);
#1411=ADVANCED_FACE('',(#167),#101,.T.);
#1412=ADVANCED_FACE('',(#168),#102,.T.);
#1413=ADVANCED_FACE('',(#169),#103,.T.);
#1414=ADVANCED_FACE('',(#170,#29,#30,#31,#32,#33,#34,#35,#36,#37,#38,#39,
#40,#41,#42),#104,.T.);
#1415=CLOSED_SHELL('',(#1349,#1350,#1351,#1352,#1353,#1354,#1355,#1356,
#1357,#1358,#1359,#1360,#1361,#1362,#1363,#1364,#1365,#1366,#1367,#1368,
#1369,#1370,#1371,#1372,#1373,#1374,#1375,#1376,#1377,#1378,#1379,#1380,
#1381,#1382,#1383,#1384,#1385,#1386,#1387,#1388,#1389,#1390,#1391,#1392,
#1393,#1394,#1395,#1396,#1397,#1398,#1399,#1400,#1401,#1402,#1403,#1404,
#1405,#1406,#1407,#1408,#1409,#1410,#1411,#1412,#1413,#1414));
#1416=DERIVED_UNIT_ELEMENT(#1418,1.);
#1417=DERIVED_UNIT_ELEMENT(#2229,-3.);
#1418=(
MASS_UNIT()
NAMED_UNIT(*)
SI_UNIT(.KILO.,.GRAM.)
);
#1419=DERIVED_UNIT((#1416,#1417));
#1420=MEASURE_REPRESENTATION_ITEM('density measure',
POSITIVE_RATIO_MEASURE(7850.),#1419);
#1421=PROPERTY_DEFINITION_REPRESENTATION(#1426,#1423);
#1422=PROPERTY_DEFINITION_REPRESENTATION(#1427,#1424);
#1423=REPRESENTATION('material name',(#1425),#2226);
#1424=REPRESENTATION('density',(#1420),#2226);
#1425=DESCRIPTIVE_REPRESENTATION_ITEM('Steel','Steel');
#1426=PROPERTY_DEFINITION('material property','material name',#2236);
#1427=PROPERTY_DEFINITION('material property','density of part',#2236);
#1428=AXIS2_PLACEMENT_3D('',#1837,#1503,#1504);
#1429=AXIS2_PLACEMENT_3D('',#1838,#1505,#1506);
#1430=AXIS2_PLACEMENT_3D('',#1841,#1507,#1508);
#1431=AXIS2_PLACEMENT_3D('',#1845,#1510,#1511);
#1432=AXIS2_PLACEMENT_3D('',#1847,#1513,#1514);
#1433=AXIS2_PLACEMENT_3D('',#1853,#1518,#1519);
#1434=AXIS2_PLACEMENT_3D('',#1857,#1521,#1522);
#1435=AXIS2_PLACEMENT_3D('',#1861,#1524,#1525);
#1436=AXIS2_PLACEMENT_3D('',#1864,#1527,#1528);
#1437=AXIS2_PLACEMENT_3D('',#1977,#1585,#1586);
#1438=AXIS2_PLACEMENT_3D('',#1980,#1587,#1588);
#1439=AXIS2_PLACEMENT_3D('',#1983,#1591,#1592);
#1440=AXIS2_PLACEMENT_3D('',#1987,#1595,#1596);
#1441=AXIS2_PLACEMENT_3D('',#1989,#1597,#1598);
#1442=AXIS2_PLACEMENT_3D('',#1991,#1600,#1601);
#1443=AXIS2_PLACEMENT_3D('',#1993,#1602,#1603);
#1444=AXIS2_PLACEMENT_3D('',#1995,#1605,#1606);
#1445=AXIS2_PLACEMENT_3D('',#2001,#1610,#1611);
#1446=AXIS2_PLACEMENT_3D('',#2005,#1614,#1615);
#1447=AXIS2_PLACEMENT_3D('',#2009,#1618,#1619);
#1448=AXIS2_PLACEMENT_3D('',#2011,#1621,#1622);
#1449=AXIS2_PLACEMENT_3D('',#2017,#1626,#1627);
#1450=AXIS2_PLACEMENT_3D('',#2021,#1630,#1631);
#1451=AXIS2_PLACEMENT_3D('',#2025,#1634,#1635);
#1452=AXIS2_PLACEMENT_3D('',#2027,#1637,#1638);
#1453=AXIS2_PLACEMENT_3D('',#2033,#1642,#1643);
#1454=AXIS2_PLACEMENT_3D('',#2037,#1646,#1647);
#1455=AXIS2_PLACEMENT_3D('',#2041,#1650,#1651);
#1456=AXIS2_PLACEMENT_3D('',#2043,#1653,#1654);
#1457=AXIS2_PLACEMENT_3D('',#2049,#1658,#1659);
#1458=AXIS2_PLACEMENT_3D('',#2053,#1662,#1663);
#1459=AXIS2_PLACEMENT_3D('',#2057,#1666,#1667);
#1460=AXIS2_PLACEMENT_3D('',#2059,#1669,#1670);
#1461=AXIS2_PLACEMENT_3D('',#2065,#1674,#1675);
#1462=AXIS2_PLACEMENT_3D('',#2069,#1678,#1679);
#1463=AXIS2_PLACEMENT_3D('',#2073,#1682,#1683);
#1464=AXIS2_PLACEMENT_3D('',#2075,#1685,#1686);
#1465=AXIS2_PLACEMENT_3D('',#2081,#1690,#1691);
#1466=AXIS2_PLACEMENT_3D('',#2085,#1694,#1695);
#1467=AXIS2_PLACEMENT_3D('',#2089,#1698,#1699);
#1468=AXIS2_PLACEMENT_3D('',#2091,#1701,#1702);
#1469=AXIS2_PLACEMENT_3D('',#2097,#1706,#1707);
#1470=AXIS2_PLACEMENT_3D('',#2101,#1710,#1711);
#1471=AXIS2_PLACEMENT_3D('',#2105,#1714,#1715);
#1472=AXIS2_PLACEMENT_3D('',#2107,#1717,#1718);
#1473=AXIS2_PLACEMENT_3D('',#2113,#1722,#1723);
#1474=AXIS2_PLACEMENT_3D('',#2117,#1726,#1727);
#1475=AXIS2_PLACEMENT_3D('',#2121,#1730,#1731);
#1476=AXIS2_PLACEMENT_3D('',#2123,#1733,#1734);
#1477=AXIS2_PLACEMENT_3D('',#2129,#1738,#1739);
#1478=AXIS2_PLACEMENT_3D('',#2133,#1742,#1743);
#1479=AXIS2_PLACEMENT_3D('',#2137,#1746,#1747);
#1480=AXIS2_PLACEMENT_3D('',#2139,#1749,#1750);
#1481=AXIS2_PLACEMENT_3D('',#2145,#1754,#1755);
#1482=AXIS2_PLACEMENT_3D('',#2149,#1758,#1759);
#1483=AXIS2_PLACEMENT_3D('',#2153,#1762,#1763);
#1484=AXIS2_PLACEMENT_3D('',#2155,#1765,#1766);
#1485=AXIS2_PLACEMENT_3D('',#2161,#1770,#1771);
#1486=AXIS2_PLACEMENT_3D('',#2165,#1774,#1775);
#1487=AXIS2_PLACEMENT_3D('',#2169,#1778,#1779);
#1488=AXIS2_PLACEMENT_3D('',#2171,#1781,#1782);
#1489=AXIS2_PLACEMENT_3D('',#2177,#1786,#1787);
#1490=AXIS2_PLACEMENT_3D('',#2181,#1790,#1791);
#1491=AXIS2_PLACEMENT_3D('',#2185,#1794,#1795);
#1492=AXIS2_PLACEMENT_3D('',#2187,#1797,#1798);
#1493=AXIS2_PLACEMENT_3D('',#2193,#1802,#1803);
#1494=AXIS2_PLACEMENT_3D('',#2197,#1806,#1807);
#1495=AXIS2_PLACEMENT_3D('',#2201,#1810,#1811);
#1496=AXIS2_PLACEMENT_3D('',#2203,#1813,#1814);
#1497=AXIS2_PLACEMENT_3D('',#2209,#1818,#1819);
#1498=AXIS2_PLACEMENT_3D('',#2213,#1822,#1823);
#1499=AXIS2_PLACEMENT_3D('',#2217,#1826,#1827);
#1500=AXIS2_PLACEMENT_3D('',#2219,#1829,#1830);
#1501=AXIS2_PLACEMENT_3D('',#2221,#1832,#1833);
#1502=AXIS2_PLACEMENT_3D('',#2223,#1835,#1836);
#1503=DIRECTION('axis',(0.,0.,1.));
#1504=DIRECTION('refdir',(1.,0.,0.));
#1505=DIRECTION('center_axis',(0.,1.,0.));
#1506=DIRECTION('ref_axis',(-0.707106781186547,0.,-0.707106781186548));
#1507=DIRECTION('center_axis',(0.,-1.,0.));
#1508=DIRECTION('ref_axis',(-0.707106781186547,0.,-0.707106781186548));
#1509=DIRECTION('',(0.,-1.,0.));
#1510=DIRECTION('center_axis',(0.,1.,0.));
#1511=DIRECTION('ref_axis',(-0.707106781186547,0.,-0.707106781186548));
#1512=DIRECTION('',(0.,1.,0.));
#1513=DIRECTION('center_axis',(-1.,0.,-4.44089209850063E-16));
#1514=DIRECTION('ref_axis',(-4.44089209850063E-16,0.,1.));
#1515=DIRECTION('',(-4.44089209850063E-16,0.,1.));
#1516=DIRECTION('',(0.,-1.,0.));
#1517=DIRECTION('',(-4.44089209850063E-16,0.,1.));
#1518=DIRECTION('center_axis',(0.,1.,0.));
#1519=DIRECTION('ref_axis',(1.,0.,0.));
#1520=DIRECTION('',(-1.,0.,1.90323947078598E-16));
#1521=DIRECTION('center_axis',(0.,1.,0.));
#1522=DIRECTION('ref_axis',(0.707106781186547,0.,-0.707106781186547));
#1523=DIRECTION('',(6.34413156928661E-17,0.,-1.));
#1524=DIRECTION('center_axis',(0.,1.,0.));
#1525=DIRECTION('ref_axis',(0.707106781186547,0.,0.707106781186547));
#1526=DIRECTION('',(1.,0.,3.1720657846433E-16));
#1527=DIRECTION('center_axis',(0.,1.,0.));
#1528=DIRECTION('ref_axis',(-0.707106781186548,0.,0.707106781186547));
#1529=DIRECTION('',(1.,0.,0.));
#1530=DIRECTION('',(0.,0.,-1.));
#1531=DIRECTION('',(-1.,0.,0.));
#1532=DIRECTION('',(7.40148683083438E-16,0.,1.));
#1533=DIRECTION('',(1.,0.,0.));
#1534=DIRECTION('',(0.,0.,-1.));
#1535=DIRECTION('',(-1.,0.,0.));
#1536=DIRECTION('',(7.40148683083438E-16,0.,1.));
#1537=DIRECTION('',(1.,0.,0.));
#1538=DIRECTION('',(0.,0.,-1.));
#1539=DIRECTION('',(-1.,0.,-1.85037170770859E-16));
#1540=DIRECTION('',(7.40148683083438E-16,0.,1.));
#1541=DIRECTION('',(1.,0.,0.));
#1542=DIRECTION('',(0.,0.,-1.));
#1543=DIRECTION('',(-1.,0.,0.));
#1544=DIRECTION('',(7.40148683083438E-16,0.,1.));
#1545=DIRECTION('',(1.,0.,0.));
#1546=DIRECTION('',(0.,0.,-1.));
#1547=DIRECTION('',(-1.,0.,-9.25185853854297E-17));
#1548=DIRECTION('',(7.40148683083438E-16,0.,1.));
#1549=DIRECTION('',(1.,0.,0.));
#1550=DIRECTION('',(0.,0.,-1.));
#1551=DIRECTION('',(-1.,0.,0.));
#1552=DIRECTION('',(7.40148683083438E-16,0.,1.));
#1553=DIRECTION('',(1.,0.,0.));
#1554=DIRECTION('',(0.,0.,-1.));
#1555=DIRECTION('',(-1.,0.,0.));
#1556=DIRECTION('',(7.40148683083438E-16,0.,1.));
#1557=DIRECTION('',(1.,0.,0.));
#1558=DIRECTION('',(0.,0.,-1.));
#1559=DIRECTION('',(-1.,0.,-1.85037170770859E-16));
#1560=DIRECTION('',(7.40148683083438E-16,0.,1.));
#1561=DIRECTION('',(1.,0.,0.));
#1562=DIRECTION('',(0.,0.,-1.));
#1563=DIRECTION('',(-1.,0.,-9.25185853854297E-17));
#1564=DIRECTION('',(7.40148683083438E-16,0.,1.));
#1565=DIRECTION('',(1.,0.,0.));
#1566=DIRECTION('',(0.,0.,-1.));
#1567=DIRECTION('',(-1.,0.,0.));
#1568=DIRECTION('',(7.40148683083438E-16,0.,1.));
#1569=DIRECTION('',(1.,0.,0.));
#1570=DIRECTION('',(0.,0.,-1.));
#1571=DIRECTION('',(-1.,0.,0.));
#1572=DIRECTION('',(7.40148683083438E-16,0.,1.));
#1573=DIRECTION('',(1.,0.,0.));
#1574=DIRECTION('',(0.,0.,-1.));
#1575=DIRECTION('',(-1.,0.,0.));
#1576=DIRECTION('',(7.40148683083438E-16,0.,1.));
#1577=DIRECTION('',(1.,0.,0.));
#1578=DIRECTION('',(0.,0.,-1.));
#1579=DIRECTION('',(-1.,0.,0.));
#1580=DIRECTION('',(7.40148683083438E-16,0.,1.));
#1581=DIRECTION('',(1.,0.,0.));
#1582=DIRECTION('',(0.,0.,-1.));
#1583=DIRECTION('',(-1.,0.,0.));
#1584=DIRECTION('',(7.40148683083438E-16,0.,1.));
#1585=DIRECTION('center_axis',(0.,1.,0.));
#1586=DIRECTION('ref_axis',(0.707106781186547,0.,-0.707106781186547));
#1587=DIRECTION('center_axis',(0.,-1.,0.));
#1588=DIRECTION('ref_axis',(0.707106781186547,0.,-0.707106781186547));
#1589=DIRECTION('',(0.,-1.,0.));
#1590=DIRECTION('',(0.,1.,0.));
#1591=DIRECTION('center_axis',(1.,0.,6.34413156928661E-17));
#1592=DIRECTION('ref_axis',(6.34413156928661E-17,0.,-1.));
#1593=DIRECTION('',(6.34413156928661E-17,0.,-1.));
#1594=DIRECTION('',(0.,1.,0.));
#1595=DIRECTION('center_axis',(0.,1.,0.));
#1596=DIRECTION('ref_axis',(0.707106781186547,0.,0.707106781186547));
#1597=DIRECTION('center_axis',(0.,-1.,0.));
#1598=DIRECTION('ref_axis',(0.707106781186547,0.,0.707106781186547));
#1599=DIRECTION('',(0.,-1.,0.));
#1600=DIRECTION('center_axis',(0.,1.,0.));
#1601=DIRECTION('ref_axis',(-0.707106781186548,0.,0.707106781186547));
#1602=DIRECTION('center_axis',(0.,-1.,0.));
#1603=DIRECTION('ref_axis',(-0.707106781186548,0.,0.707106781186547));
#1604=DIRECTION('',(0.,1.,0.));
#1605=DIRECTION('center_axis',(1.,0.,0.));
#1606=DIRECTION('ref_axis',(0.,0.,-1.));
#1607=DIRECTION('',(0.,1.,0.));
#1608=DIRECTION('',(0.,0.,-1.));
#1609=DIRECTION('',(0.,1.,0.));
#1610=DIRECTION('center_axis',(0.,0.,-1.));
#1611=DIRECTION('ref_axis',(-1.,0.,0.));
#1612=DIRECTION('',(-1.,0.,0.));
#1613=DIRECTION('',(0.,1.,0.));
#1614=DIRECTION('center_axis',(-1.,0.,7.40148683083438E-16));
#1615=DIRECTION('ref_axis',(7.40148683083438E-16,0.,1.));
#1616=DIRECTION('',(7.40148683083438E-16,0.,1.));
#1617=DIRECTION('',(0.,1.,0.));
#1618=DIRECTION('center_axis',(0.,0.,1.));
#1619=DIRECTION('ref_axis',(1.,0.,0.));
#1620=DIRECTION('',(1.,0.,0.));
#1621=DIRECTION('center_axis',(1.,0.,0.));
#1622=DIRECTION('ref_axis',(0.,0.,-1.));
#1623=DIRECTION('',(0.,1.,0.));
#1624=DIRECTION('',(0.,0.,-1.));
#1625=DIRECTION('',(0.,1.,0.));
#1626=DIRECTION('center_axis',(0.,0.,-1.));
#1627=DIRECTION('ref_axis',(-1.,0.,0.));
#1628=DIRECTION('',(-1.,0.,0.));
#1629=DIRECTION('',(0.,1.,0.));
#1630=DIRECTION('center_axis',(-1.,0.,7.40148683083438E-16));
#1631=DIRECTION('ref_axis',(7.40148683083438E-16,0.,1.));
#1632=DIRECTION('',(7.40148683083438E-16,0.,1.));
#1633=DIRECTION('',(0.,1.,0.));
#1634=DIRECTION('center_axis',(0.,0.,1.));
#1635=DIRECTION('ref_axis',(1.,0.,0.));
#1636=DIRECTION('',(1.,0.,0.));
#1637=DIRECTION('center_axis',(1.,0.,0.));
#1638=DIRECTION('ref_axis',(0.,0.,-1.));
#1639=DIRECTION('',(0.,1.,0.));
#1640=DIRECTION('',(0.,0.,-1.));
#1641=DIRECTION('',(0.,1.,0.));
#1642=DIRECTION('center_axis',(0.,0.,-1.));
#1643=DIRECTION('ref_axis',(-1.,0.,0.));
#1644=DIRECTION('',(-1.,0.,0.));
#1645=DIRECTION('',(0.,1.,0.));
#1646=DIRECTION('center_axis',(-1.,0.,7.40148683083438E-16));
#1647=DIRECTION('ref_axis',(7.40148683083438E-16,0.,1.));
#1648=DIRECTION('',(7.40148683083438E-16,0.,1.));
#1649=DIRECTION('',(0.,1.,0.));
#1650=DIRECTION('center_axis',(0.,0.,1.));
#1651=DIRECTION('ref_axis',(1.,0.,0.));
#1652=DIRECTION('',(1.,0.,0.));
#1653=DIRECTION('center_axis',(1.,0.,0.));
#1654=DIRECTION('ref_axis',(0.,0.,-1.));
#1655=DIRECTION('',(0.,1.,0.));
#1656=DIRECTION('',(0.,0.,-1.));
#1657=DIRECTION('',(0.,1.,0.));
#1658=DIRECTION('center_axis',(0.,0.,-1.));
#1659=DIRECTION('ref_axis',(-1.,0.,0.));
#1660=DIRECTION('',(-1.,0.,0.));
#1661=DIRECTION('',(0.,1.,0.));
#1662=DIRECTION('center_axis',(-1.,0.,7.40148683083438E-16));
#1663=DIRECTION('ref_axis',(7.40148683083438E-16,0.,1.));
#1664=DIRECTION('',(7.40148683083438E-16,0.,1.));
#1665=DIRECTION('',(0.,1.,0.));
#1666=DIRECTION('center_axis',(0.,0.,1.));
#1667=DIRECTION('ref_axis',(1.,0.,0.));
#1668=DIRECTION('',(1.,0.,0.));
#1669=DIRECTION('center_axis',(1.,0.,0.));
#1670=DIRECTION('ref_axis',(0.,0.,-1.));
#1671=DIRECTION('',(0.,1.,0.));
#1672=DIRECTION('',(0.,0.,-1.));
#1673=DIRECTION('',(0.,1.,0.));
#1674=DIRECTION('center_axis',(0.,0.,-1.));
#1675=DIRECTION('ref_axis',(-1.,0.,0.));
#1676=DIRECTION('',(-1.,0.,0.));
#1677=DIRECTION('',(0.,1.,0.));
#1678=DIRECTION('center_axis',(-1.,0.,7.40148683083438E-16));
#1679=DIRECTION('ref_axis',(7.40148683083438E-16,0.,1.));
#1680=DIRECTION('',(7.40148683083438E-16,0.,1.));
#1681=DIRECTION('',(0.,1.,0.));
#1682=DIRECTION('center_axis',(0.,0.,1.));
#1683=DIRECTION('ref_axis',(1.,0.,0.));
#1684=DIRECTION('',(1.,0.,0.));
#1685=DIRECTION('center_axis',(1.,0.,0.));
#1686=DIRECTION('ref_axis',(0.,0.,-1.));
#1687=DIRECTION('',(0.,1.,0.));
#1688=DIRECTION('',(0.,0.,-1.));
#1689=DIRECTION('',(0.,1.,0.));
#1690=DIRECTION('center_axis',(9.25185853854297E-17,0.,-1.));
#1691=DIRECTION('ref_axis',(-1.,0.,-9.25185853854297E-17));
#1692=DIRECTION('',(-1.,0.,-9.25185853854297E-17));
#1693=DIRECTION('',(0.,1.,0.));
#1694=DIRECTION('center_axis',(-1.,0.,7.40148683083438E-16));
#1695=DIRECTION('ref_axis',(7.40148683083438E-16,0.,1.));
#1696=DIRECTION('',(7.40148683083438E-16,0.,1.));
#1697=DIRECTION('',(0.,1.,0.));
#1698=DIRECTION('center_axis',(0.,0.,1.));
#1699=DIRECTION('ref_axis',(1.,0.,0.));
#1700=DIRECTION('',(1.,0.,0.));
#1701=DIRECTION('center_axis',(1.,0.,0.));
#1702=DIRECTION('ref_axis',(0.,0.,-1.));
#1703=DIRECTION('',(0.,1.,0.));
#1704=DIRECTION('',(0.,0.,-1.));
#1705=DIRECTION('',(0.,1.,0.));
#1706=DIRECTION('center_axis',(1.85037170770859E-16,0.,-1.));
#1707=DIRECTION('ref_axis',(-1.,0.,-1.85037170770859E-16));
#1708=DIRECTION('',(-1.,0.,-1.85037170770859E-16));
#1709=DIRECTION('',(0.,1.,0.));
#1710=DIRECTION('center_axis',(-1.,0.,7.40148683083438E-16));
#1711=DIRECTION('ref_axis',(7.40148683083438E-16,0.,1.));
#1712=DIRECTION('',(7.40148683083438E-16,0.,1.));
#1713=DIRECTION('',(0.,1.,0.));
#1714=DIRECTION('center_axis',(0.,0.,1.));
#1715=DIRECTION('ref_axis',(1.,0.,0.));
#1716=DIRECTION('',(1.,0.,0.));
#1717=DIRECTION('center_axis',(1.,0.,0.));
#1718=DIRECTION('ref_axis',(0.,0.,-1.));
#1719=DIRECTION('',(0.,1.,0.));
#1720=DIRECTION('',(0.,0.,-1.));
#1721=DIRECTION('',(0.,1.,0.));
#1722=DIRECTION('center_axis',(0.,0.,-1.));
#1723=DIRECTION('ref_axis',(-1.,0.,0.));
#1724=DIRECTION('',(-1.,0.,0.));
#1725=DIRECTION('',(0.,1.,0.));
#1726=DIRECTION('center_axis',(-1.,0.,7.40148683083438E-16));
#1727=DIRECTION('ref_axis',(7.40148683083438E-16,0.,1.));
#1728=DIRECTION('',(7.40148683083438E-16,0.,1.));
#1729=DIRECTION('',(0.,1.,0.));
#1730=DIRECTION('center_axis',(0.,0.,1.));
#1731=DIRECTION('ref_axis',(1.,0.,0.));
#1732=DIRECTION('',(1.,0.,0.));
#1733=DIRECTION('center_axis',(1.,0.,0.));
#1734=DIRECTION('ref_axis',(0.,0.,-1.));
#1735=DIRECTION('',(0.,1.,0.));
#1736=DIRECTION('',(0.,0.,-1.));
#1737=DIRECTION('',(0.,1.,0.));
#1738=DIRECTION('center_axis',(0.,0.,-1.));
#1739=DIRECTION('ref_axis',(-1.,0.,0.));
#1740=DIRECTION('',(-1.,0.,0.));
#1741=DIRECTION('',(0.,1.,0.));
#1742=DIRECTION('center_axis',(-1.,0.,7.40148683083438E-16));
#1743=DIRECTION('ref_axis',(7.40148683083438E-16,0.,1.));
#1744=DIRECTION('',(7.40148683083438E-16,0.,1.));
#1745=DIRECTION('',(0.,1.,0.));
#1746=DIRECTION('center_axis',(0.,0.,1.));
#1747=DIRECTION('ref_axis',(1.,0.,0.));
#1748=DIRECTION('',(1.,0.,0.));
#1749=DIRECTION('center_axis',(1.,0.,0.));
#1750=DIRECTION('ref_axis',(0.,0.,-1.));
#1751=DIRECTION('',(0.,1.,0.));
#1752=DIRECTION('',(0.,0.,-1.));
#1753=DIRECTION('',(0.,1.,0.));
#1754=DIRECTION('center_axis',(9.25185853854297E-17,0.,-1.));
#1755=DIRECTION('ref_axis',(-1.,0.,-9.25185853854297E-17));
#1756=DIRECTION('',(-1.,0.,-9.25185853854297E-17));
#1757=DIRECTION('',(0.,1.,0.));
#1758=DIRECTION('center_axis',(-1.,0.,7.40148683083438E-16));
#1759=DIRECTION('ref_axis',(7.40148683083438E-16,0.,1.));
#1760=DIRECTION('',(7.40148683083438E-16,0.,1.));
#1761=DIRECTION('',(0.,1.,0.));
#1762=DIRECTION('center_axis',(0.,0.,1.));
#1763=DIRECTION('ref_axis',(1.,0.,0.));
#1764=DIRECTION('',(1.,0.,0.));
#1765=DIRECTION('center_axis',(1.,0.,0.));
#1766=DIRECTION('ref_axis',(0.,0.,-1.));
#1767=DIRECTION('',(0.,1.,0.));
#1768=DIRECTION('',(0.,0.,-1.));
#1769=DIRECTION('',(0.,1.,0.));
#1770=DIRECTION('center_axis',(0.,0.,-1.));
#1771=DIRECTION('ref_axis',(-1.,0.,0.));
#1772=DIRECTION('',(-1.,0.,0.));
#1773=DIRECTION('',(0.,1.,0.));
#1774=DIRECTION('center_axis',(-1.,0.,7.40148683083438E-16));
#1775=DIRECTION('ref_axis',(7.40148683083438E-16,0.,1.));
#1776=DIRECTION('',(7.40148683083438E-16,0.,1.));
#1777=DIRECTION('',(0.,1.,0.));
#1778=DIRECTION('center_axis',(0.,0.,1.));
#1779=DIRECTION('ref_axis',(1.,0.,0.));
#1780=DIRECTION('',(1.,0.,0.));
#1781=DIRECTION('center_axis',(1.,0.,0.));
#1782=DIRECTION('ref_axis',(0.,0.,-1.));
#1783=DIRECTION('',(0.,1.,0.));
#1784=DIRECTION('',(0.,0.,-1.));
#1785=DIRECTION('',(0.,1.,0.));
#1786=DIRECTION('center_axis',(1.85037170770859E-16,0.,-1.));
#1787=DIRECTION('ref_axis',(-1.,0.,-1.85037170770859E-16));
#1788=DIRECTION('',(-1.,0.,-1.85037170770859E-16));
#1789=DIRECTION('',(0.,1.,0.));
#1790=DIRECTION('center_axis',(-1.,0.,7.40148683083438E-16));
#1791=DIRECTION('ref_axis',(7.40148683083438E-16,0.,1.));
#1792=DIRECTION('',(7.40148683083438E-16,0.,1.));
#1793=DIRECTION('',(0.,1.,0.));
#1794=DIRECTION('center_axis',(0.,0.,1.));
#1795=DIRECTION('ref_axis',(1.,0.,0.));
#1796=DIRECTION('',(1.,0.,0.));
#1797=DIRECTION('center_axis',(1.,0.,0.));
#1798=DIRECTION('ref_axis',(0.,0.,-1.));
#1799=DIRECTION('',(0.,1.,0.));
#1800=DIRECTION('',(0.,0.,-1.));
#1801=DIRECTION('',(0.,1.,0.));
#1802=DIRECTION('center_axis',(0.,0.,-1.));
#1803=DIRECTION('ref_axis',(-1.,0.,0.));
#1804=DIRECTION('',(-1.,0.,0.));
#1805=DIRECTION('',(0.,1.,0.));
#1806=DIRECTION('center_axis',(-1.,0.,7.40148683083438E-16));
#1807=DIRECTION('ref_axis',(7.40148683083438E-16,0.,1.));
#1808=DIRECTION('',(7.40148683083438E-16,0.,1.));
#1809=DIRECTION('',(0.,1.,0.));
#1810=DIRECTION('center_axis',(0.,0.,1.));
#1811=DIRECTION('ref_axis',(1.,0.,0.));
#1812=DIRECTION('',(1.,0.,0.));
#1813=DIRECTION('center_axis',(1.,0.,0.));
#1814=DIRECTION('ref_axis',(0.,0.,-1.));
#1815=DIRECTION('',(0.,1.,0.));
#1816=DIRECTION('',(0.,0.,-1.));
#1817=DIRECTION('',(0.,1.,0.));
#1818=DIRECTION('center_axis',(0.,0.,-1.));
#1819=DIRECTION('ref_axis',(-1.,0.,0.));
#1820=DIRECTION('',(-1.,0.,0.));
#1821=DIRECTION('',(0.,1.,0.));
#1822=DIRECTION('center_axis',(-1.,0.,7.40148683083438E-16));
#1823=DIRECTION('ref_axis',(7.40148683083438E-16,0.,1.));
#1824=DIRECTION('',(7.40148683083438E-16,0.,1.));
#1825=DIRECTION('',(0.,1.,0.));
#1826=DIRECTION('center_axis',(0.,0.,1.));
#1827=DIRECTION('ref_axis',(1.,0.,0.));
#1828=DIRECTION('',(1.,0.,0.));
#1829=DIRECTION('center_axis',(-3.1720657846433E-16,0.,1.));
#1830=DIRECTION('ref_axis',(1.,0.,3.1720657846433E-16));
#1831=DIRECTION('',(1.,0.,3.1720657846433E-16));
#1832=DIRECTION('center_axis',(-1.90323947078598E-16,0.,-1.));
#1833=DIRECTION('ref_axis',(-1.,0.,1.90323947078598E-16));
#1834=DIRECTION('',(-1.,0.,1.90323947078598E-16));
#1835=DIRECTION('center_axis',(0.,1.,0.));
#1836=DIRECTION('ref_axis',(0.,0.,1.));
#1837=CARTESIAN_POINT('',(0.,0.,0.));
#1838=CARTESIAN_POINT('Origin',(-14.5,0.,-14.5));
#1839=CARTESIAN_POINT('',(-17.5,3.5,-14.5));
#1840=CARTESIAN_POINT('',(-14.5,3.5,-17.5));
#1841=CARTESIAN_POINT('Origin',(-14.5,3.5,-14.5));
#1842=CARTESIAN_POINT('',(-14.5,0.,-17.5));
#1843=CARTESIAN_POINT('',(-14.5,0.,-17.5));
#1844=CARTESIAN_POINT('',(-17.5,0.,-14.5));
#1845=CARTESIAN_POINT('Origin',(-14.5,0.,-14.5));
#1846=CARTESIAN_POINT('',(-17.5,0.,-14.5));
#1847=CARTESIAN_POINT('Origin',(-17.5,0.,-17.5));
#1848=CARTESIAN_POINT('',(-17.5,0.,14.5));
#1849=CARTESIAN_POINT('',(-17.5,0.,-17.5));
#1850=CARTESIAN_POINT('',(-17.5,3.5,14.5));
#1851=CARTESIAN_POINT('',(-17.5,0.,14.5));
#1852=CARTESIAN_POINT('',(-17.5,3.5,-17.5));
#1853=CARTESIAN_POINT('Origin',(0.,0.,4.44089209850063E-15));
#1854=CARTESIAN_POINT('',(14.5,0.,-17.5));
#1855=CARTESIAN_POINT('',(17.5,0.,-17.5));
#1856=CARTESIAN_POINT('',(17.5,0.,-14.5));
#1857=CARTESIAN_POINT('Origin',(14.5,0.,-14.5));
#1858=CARTESIAN_POINT('',(17.5,0.,14.5));
#1859=CARTESIAN_POINT('',(17.5,0.,17.5));
#1860=CARTESIAN_POINT('',(14.5,0.,17.5));
#1861=CARTESIAN_POINT('Origin',(14.5,0.,14.5));
#1862=CARTESIAN_POINT('',(-14.5,0.,17.5));
#1863=CARTESIAN_POINT('',(-17.5,0.,17.5));
#1864=CARTESIAN_POINT('Origin',(-14.5,0.,14.5));
#1865=CARTESIAN_POINT('',(6.87,0.,-5.83000000000481));
#1866=CARTESIAN_POINT('',(8.37,0.,-5.83000000000481));
#1867=CARTESIAN_POINT('',(8.37,0.,-5.83000000000481));
#1868=CARTESIAN_POINT('',(6.87,0.,-4.3300000000048));
#1869=CARTESIAN_POINT('',(6.87,0.,-5.83000000000481));
#1870=CARTESIAN_POINT('',(8.37,0.,-4.3300000000048));
#1871=CARTESIAN_POINT('',(6.87,0.,-4.3300000000048));
#1872=CARTESIAN_POINT('',(8.37,0.,-4.3300000000048));
#1873=CARTESIAN_POINT('',(6.87,0.,4.3299999999952));
#1874=CARTESIAN_POINT('',(8.37,0.,4.3299999999952));
#1875=CARTESIAN_POINT('',(8.37,0.,4.3299999999952));
#1876=CARTESIAN_POINT('',(6.87,0.,5.8299999999952));
#1877=CARTESIAN_POINT('',(6.87,0.,4.3299999999952));
#1878=CARTESIAN_POINT('',(8.37,0.,5.8299999999952));
#1879=CARTESIAN_POINT('',(6.87,0.,5.8299999999952));
#1880=CARTESIAN_POINT('',(8.37,0.,5.8299999999952));
#1881=CARTESIAN_POINT('',(-8.37,0.,-3.2900000000048));
#1882=CARTESIAN_POINT('',(-6.87,0.,-3.2900000000048));
#1883=CARTESIAN_POINT('',(-6.87,0.,-3.2900000000048));
#1884=CARTESIAN_POINT('',(-8.37,0.,-1.7900000000048));
#1885=CARTESIAN_POINT('',(-8.37,0.,-3.2900000000048));
#1886=CARTESIAN_POINT('',(-6.87,0.,-1.7900000000048));
#1887=CARTESIAN_POINT('',(-8.37,0.,-1.7900000000048));
#1888=CARTESIAN_POINT('',(-6.87,0.,-1.7900000000048));
#1889=CARTESIAN_POINT('',(-8.37,0.,-8.3700000000048));
#1890=CARTESIAN_POINT('',(-6.87,0.,-8.3700000000048));
#1891=CARTESIAN_POINT('',(-6.87,0.,-8.3700000000048));
#1892=CARTESIAN_POINT('',(-8.37,0.,-6.8700000000048));
#1893=CARTESIAN_POINT('',(-8.37,0.,-8.3700000000048));
#1894=CARTESIAN_POINT('',(-6.87,0.,-6.8700000000048));
#1895=CARTESIAN_POINT('',(-8.37,0.,-6.8700000000048));
#1896=CARTESIAN_POINT('',(-6.87,0.,-6.8700000000048));
#1897=CARTESIAN_POINT('',(-8.37,0.,-0.750000000004805));
#1898=CARTESIAN_POINT('',(-6.87,0.,-0.750000000004805));
#1899=CARTESIAN_POINT('',(-6.87,0.,-0.750000000004805));
#1900=CARTESIAN_POINT('',(-8.37,0.,0.749999999995196));
#1901=CARTESIAN_POINT('',(-8.37,0.,-0.750000000004805));
#1902=CARTESIAN_POINT('',(-6.87,0.,0.749999999995196));
#1903=CARTESIAN_POINT('',(-8.37,0.,0.749999999995195));
#1904=CARTESIAN_POINT('',(-6.87,0.,0.749999999995196));
#1905=CARTESIAN_POINT('',(-8.37,0.,4.3299999999952));
#1906=CARTESIAN_POINT('',(-6.87,0.,4.3299999999952));
#1907=CARTESIAN_POINT('',(-6.87,0.,4.3299999999952));
#1908=CARTESIAN_POINT('',(-8.37,0.,5.8299999999952));
#1909=CARTESIAN_POINT('',(-8.37,0.,4.3299999999952));
#1910=CARTESIAN_POINT('',(-6.87,0.,5.8299999999952));
#1911=CARTESIAN_POINT('',(-8.37,0.,5.8299999999952));
#1912=CARTESIAN_POINT('',(-6.87,0.,5.8299999999952));
#1913=CARTESIAN_POINT('',(6.87,0.,1.7899999999952));
#1914=CARTESIAN_POINT('',(8.37,0.,1.7899999999952));
#1915=CARTESIAN_POINT('',(8.37,0.,1.7899999999952));
#1916=CARTESIAN_POINT('',(6.87,0.,3.2899999999952));
#1917=CARTESIAN_POINT('',(6.87,0.,1.7899999999952));
#1918=CARTESIAN_POINT('',(8.37,0.,3.2899999999952));
#1919=CARTESIAN_POINT('',(6.87,0.,3.2899999999952));
#1920=CARTESIAN_POINT('',(8.37,0.,3.2899999999952));
#1921=CARTESIAN_POINT('',(6.87,0.,-3.2900000000048));
#1922=CARTESIAN_POINT('',(8.37,0.,-3.2900000000048));
#1923=CARTESIAN_POINT('',(8.37,0.,-3.2900000000048));
#1924=CARTESIAN_POINT('',(6.87,0.,-1.7900000000048));
#1925=CARTESIAN_POINT('',(6.87,0.,-3.2900000000048));
#1926=CARTESIAN_POINT('',(8.37,0.,-1.7900000000048));
#1927=CARTESIAN_POINT('',(6.87,0.,-1.7900000000048));
#1928=CARTESIAN_POINT('',(8.37,0.,-1.7900000000048));
#1929=CARTESIAN_POINT('',(6.87,0.,-0.750000000004805));
#1930=CARTESIAN_POINT('',(8.37,0.,-0.750000000004805));
#1931=CARTESIAN_POINT('',(8.37,0.,-0.750000000004805));
#1932=CARTESIAN_POINT('',(6.87,0.,0.749999999995196));
#1933=CARTESIAN_POINT('',(6.87,0.,-0.750000000004805));
#1934=CARTESIAN_POINT('',(8.37,0.,0.749999999995196));
#1935=CARTESIAN_POINT('',(6.87,0.,0.749999999995195));
#1936=CARTESIAN_POINT('',(8.37,0.,0.749999999995196));
#1937=CARTESIAN_POINT('',(6.87,0.,6.8699999999952));
#1938=CARTESIAN_POINT('',(8.37,0.,6.8699999999952));
#1939=CARTESIAN_POINT('',(8.37,0.,6.8699999999952));
#1940=CARTESIAN_POINT('',(6.87,0.,8.3699999999952));
#1941=CARTESIAN_POINT('',(6.87,0.,6.8699999999952));
#1942=CARTESIAN_POINT('',(8.37,0.,8.3699999999952));
#1943=CARTESIAN_POINT('',(6.87,0.,8.3699999999952));
#1944=CARTESIAN_POINT('',(8.37,0.,8.3699999999952));
#1945=CARTESIAN_POINT('',(-8.37,0.,6.8699999999952));
#1946=CARTESIAN_POINT('',(-6.87,0.,6.8699999999952));
#1947=CARTESIAN_POINT('',(-6.87,0.,6.8699999999952));
#1948=CARTESIAN_POINT('',(-8.37,0.,8.3699999999952));
#1949=CARTESIAN_POINT('',(-8.37,0.,6.8699999999952));
#1950=CARTESIAN_POINT('',(-6.87,0.,8.3699999999952));
#1951=CARTESIAN_POINT('',(-8.37,0.,8.3699999999952));
#1952=CARTESIAN_POINT('',(-6.87,0.,8.3699999999952));
#1953=CARTESIAN_POINT('',(-8.37,0.,1.7899999999952));
#1954=CARTESIAN_POINT('',(-6.87,0.,1.7899999999952));
#1955=CARTESIAN_POINT('',(-6.87,0.,1.7899999999952));
#1956=CARTESIAN_POINT('',(-8.37,0.,3.2899999999952));
#1957=CARTESIAN_POINT('',(-8.37,0.,1.7899999999952));
#1958=CARTESIAN_POINT('',(-6.87,0.,3.2899999999952));
#1959=CARTESIAN_POINT('',(-8.37,0.,3.2899999999952));
#1960=CARTESIAN_POINT('',(-6.87,0.,3.2899999999952));
#1961=CARTESIAN_POINT('',(6.87,0.,-8.3700000000048));
#1962=CARTESIAN_POINT('',(8.37,0.,-8.3700000000048));
#1963=CARTESIAN_POINT('',(8.37,0.,-8.3700000000048));
#1964=CARTESIAN_POINT('',(6.87,0.,-6.8700000000048));
#1965=CARTESIAN_POINT('',(6.87,0.,-8.3700000000048));
#1966=CARTESIAN_POINT('',(8.37,0.,-6.8700000000048));
#1967=CARTESIAN_POINT('',(6.87,0.,-6.8700000000048));
#1968=CARTESIAN_POINT('',(8.37,0.,-6.8700000000048));
#1969=CARTESIAN_POINT('',(-8.37,0.,-5.83000000000481));
#1970=CARTESIAN_POINT('',(-6.87,0.,-5.83000000000481));
#1971=CARTESIAN_POINT('',(-6.87,0.,-5.83000000000481));
#1972=CARTESIAN_POINT('',(-8.37,0.,-4.3300000000048));
#1973=CARTESIAN_POINT('',(-8.37,0.,-5.83000000000481));
#1974=CARTESIAN_POINT('',(-6.87,0.,-4.3300000000048));
#1975=CARTESIAN_POINT('',(-8.37,0.,-4.3300000000048));
#1976=CARTESIAN_POINT('',(-6.87,0.,-4.3300000000048));
#1977=CARTESIAN_POINT('Origin',(14.5,0.,-14.5));
#1978=CARTESIAN_POINT('',(14.5,3.5,-17.5));
#1979=CARTESIAN_POINT('',(17.5,3.5,-14.5));
#1980=CARTESIAN_POINT('Origin',(14.5,3.5,-14.5));
#1981=CARTESIAN_POINT('',(17.5,0.,-14.5));
#1982=CARTESIAN_POINT('',(14.5,0.,-17.5));
#1983=CARTESIAN_POINT('Origin',(17.5,0.,17.5));
#1984=CARTESIAN_POINT('',(17.5,3.5,14.5));
#1985=CARTESIAN_POINT('',(17.5,3.5,17.5));
#1986=CARTESIAN_POINT('',(17.5,0.,14.5));
#1987=CARTESIAN_POINT('Origin',(14.5,0.,14.5));
#1988=CARTESIAN_POINT('',(14.5,3.5,17.5));
#1989=CARTESIAN_POINT('Origin',(14.5,3.5,14.5));
#1990=CARTESIAN_POINT('',(14.5,0.,17.5));
#1991=CARTESIAN_POINT('Origin',(-14.5,0.,14.5));
#1992=CARTESIAN_POINT('',(-14.5,3.5,17.5));
#1993=CARTESIAN_POINT('Origin',(-14.5,3.5,14.5));
#1994=CARTESIAN_POINT('',(-14.5,0.,17.5));
#1995=CARTESIAN_POINT('Origin',(-8.37,0.,-4.3300000000048));
#1996=CARTESIAN_POINT('',(-8.37,3.5,-5.83000000000481));
#1997=CARTESIAN_POINT('',(-8.37,0.,-5.83000000000481));
#1998=CARTESIAN_POINT('',(-8.37,3.5,-4.3300000000048));
#1999=CARTESIAN_POINT('',(-8.37,3.5,-5.83000000000481));
#2000=CARTESIAN_POINT('',(-8.37,0.,-4.3300000000048));
#2001=CARTESIAN_POINT('Origin',(-6.87,0.,-4.3300000000048));
#2002=CARTESIAN_POINT('',(-6.87,3.5,-4.3300000000048));
#2003=CARTESIAN_POINT('',(-8.37,3.5,-4.3300000000048));
#2004=CARTESIAN_POINT('',(-6.87,0.,-4.3300000000048));
#2005=CARTESIAN_POINT('Origin',(-6.87,0.,-5.83000000000481));
#2006=CARTESIAN_POINT('',(-6.87,3.5,-5.83000000000481));
#2007=CARTESIAN_POINT('',(-6.87,3.5,-4.3300000000048));
#2008=CARTESIAN_POINT('',(-6.87,0.,-5.83000000000481));
#2009=CARTESIAN_POINT('Origin',(-8.37,0.,-5.83000000000481));
#2010=CARTESIAN_POINT('',(-6.87,3.5,-5.83000000000481));
#2011=CARTESIAN_POINT('Origin',(6.87,0.,-6.8700000000048));
#2012=CARTESIAN_POINT('',(6.87,3.5,-8.3700000000048));
#2013=CARTESIAN_POINT('',(6.87,0.,-8.3700000000048));
#2014=CARTESIAN_POINT('',(6.87,3.5,-6.8700000000048));
#2015=CARTESIAN_POINT('',(6.87,3.5,-8.3700000000048));
#2016=CARTESIAN_POINT('',(6.87,0.,-6.8700000000048));
#2017=CARTESIAN_POINT('Origin',(8.37,0.,-6.8700000000048));
#2018=CARTESIAN_POINT('',(8.37,3.5,-6.8700000000048));
#2019=CARTESIAN_POINT('',(6.87,3.5,-6.8700000000048));
#2020=CARTESIAN_POINT('',(8.37,0.,-6.8700000000048));
#2021=CARTESIAN_POINT('Origin',(8.37,0.,-8.3700000000048));
#2022=CARTESIAN_POINT('',(8.37,3.5,-8.3700000000048));
#2023=CARTESIAN_POINT('',(8.37,3.5,-6.8700000000048));
#2024=CARTESIAN_POINT('',(8.37,0.,-8.3700000000048));
#2025=CARTESIAN_POINT('Origin',(6.87,0.,-8.3700000000048));
#2026=CARTESIAN_POINT('',(8.37,3.5,-8.3700000000048));
#2027=CARTESIAN_POINT('Origin',(-8.37,0.,3.2899999999952));
#2028=CARTESIAN_POINT('',(-8.37,3.5,1.7899999999952));
#2029=CARTESIAN_POINT('',(-8.37,0.,1.7899999999952));
#2030=CARTESIAN_POINT('',(-8.37,3.5,3.2899999999952));
#2031=CARTESIAN_POINT('',(-8.37,3.5,1.7899999999952));
#2032=CARTESIAN_POINT('',(-8.37,0.,3.2899999999952));
#2033=CARTESIAN_POINT('Origin',(-6.87,0.,3.2899999999952));
#2034=CARTESIAN_POINT('',(-6.87,3.5,3.2899999999952));
#2035=CARTESIAN_POINT('',(-8.37,3.5,3.2899999999952));
#2036=CARTESIAN_POINT('',(-6.87,0.,3.2899999999952));
#2037=CARTESIAN_POINT('Origin',(-6.87,0.,1.7899999999952));
#2038=CARTESIAN_POINT('',(-6.87,3.5,1.7899999999952));
#2039=CARTESIAN_POINT('',(-6.87,3.5,3.2899999999952));
#2040=CARTESIAN_POINT('',(-6.87,0.,1.7899999999952));
#2041=CARTESIAN_POINT('Origin',(-8.37,0.,1.7899999999952));
#2042=CARTESIAN_POINT('',(-6.87,3.5,1.7899999999952));
#2043=CARTESIAN_POINT('Origin',(-8.37,0.,8.3699999999952));
#2044=CARTESIAN_POINT('',(-8.37,3.5,6.8699999999952));
#2045=CARTESIAN_POINT('',(-8.37,0.,6.8699999999952));
#2046=CARTESIAN_POINT('',(-8.37,3.5,8.36999999999519));
#2047=CARTESIAN_POINT('',(-8.37,3.5,6.8699999999952));
#2048=CARTESIAN_POINT('',(-8.37,0.,8.3699999999952));
#2049=CARTESIAN_POINT('Origin',(-6.87,0.,8.3699999999952));
#2050=CARTESIAN_POINT('',(-6.87,3.5,8.36999999999519));
#2051=CARTESIAN_POINT('',(-8.37,3.5,8.3699999999952));
#2052=CARTESIAN_POINT('',(-6.87,0.,8.3699999999952));
#2053=CARTESIAN_POINT('Origin',(-6.87,0.,6.8699999999952));
#2054=CARTESIAN_POINT('',(-6.87,3.5,6.8699999999952));
#2055=CARTESIAN_POINT('',(-6.87,3.5,8.3699999999952));
#2056=CARTESIAN_POINT('',(-6.87,0.,6.8699999999952));
#2057=CARTESIAN_POINT('Origin',(-8.37,0.,6.8699999999952));
#2058=CARTESIAN_POINT('',(-6.87,3.5,6.8699999999952));
#2059=CARTESIAN_POINT('Origin',(6.87,0.,8.3699999999952));
#2060=CARTESIAN_POINT('',(6.87,3.5,6.8699999999952));
#2061=CARTESIAN_POINT('',(6.87,0.,6.8699999999952));
#2062=CARTESIAN_POINT('',(6.87,3.5,8.36999999999519));
#2063=CARTESIAN_POINT('',(6.87,3.5,6.8699999999952));
#2064=CARTESIAN_POINT('',(6.87,0.,8.3699999999952));
#2065=CARTESIAN_POINT('Origin',(8.37,0.,8.3699999999952));
#2066=CARTESIAN_POINT('',(8.37,3.5,8.36999999999519));
#2067=CARTESIAN_POINT('',(6.87,3.5,8.3699999999952));
#2068=CARTESIAN_POINT('',(8.37,0.,8.3699999999952));
#2069=CARTESIAN_POINT('Origin',(8.37,0.,6.8699999999952));
#2070=CARTESIAN_POINT('',(8.37,3.5,6.8699999999952));
#2071=CARTESIAN_POINT('',(8.37,3.5,8.3699999999952));
#2072=CARTESIAN_POINT('',(8.37,0.,6.8699999999952));
#2073=CARTESIAN_POINT('Origin',(6.87,0.,6.8699999999952));
#2074=CARTESIAN_POINT('',(8.37,3.5,6.8699999999952));
#2075=CARTESIAN_POINT('Origin',(6.87,0.,0.749999999995196));
#2076=CARTESIAN_POINT('',(6.87,3.5,-0.750000000004805));
#2077=CARTESIAN_POINT('',(6.87,0.,-0.750000000004805));
#2078=CARTESIAN_POINT('',(6.87,3.5,0.749999999995196));
#2079=CARTESIAN_POINT('',(6.87,3.5,-0.750000000004805));
#2080=CARTESIAN_POINT('',(6.87,0.,0.749999999995196));
#2081=CARTESIAN_POINT('Origin',(8.37,0.,0.749999999995196));
#2082=CARTESIAN_POINT('',(8.37,3.5,0.749999999995196));
#2083=CARTESIAN_POINT('',(6.87,3.5,0.749999999995195));
#2084=CARTESIAN_POINT('',(8.37,0.,0.749999999995196));
#2085=CARTESIAN_POINT('Origin',(8.37,0.,-0.750000000004805));
#2086=CARTESIAN_POINT('',(8.37,3.5,-0.750000000004805));
#2087=CARTESIAN_POINT('',(8.37,3.5,0.749999999995196));
#2088=CARTESIAN_POINT('',(8.37,0.,-0.750000000004805));
#2089=CARTESIAN_POINT('Origin',(6.87,0.,-0.750000000004805));
#2090=CARTESIAN_POINT('',(8.37,3.5,-0.750000000004805));
#2091=CARTESIAN_POINT('Origin',(6.87,0.,-1.7900000000048));
#2092=CARTESIAN_POINT('',(6.87,3.5,-3.2900000000048));
#2093=CARTESIAN_POINT('',(6.87,0.,-3.2900000000048));
#2094=CARTESIAN_POINT('',(6.87,3.5,-1.7900000000048));
#2095=CARTESIAN_POINT('',(6.87,3.5,-3.2900000000048));
#2096=CARTESIAN_POINT('',(6.87,0.,-1.7900000000048));
#2097=CARTESIAN_POINT('Origin',(8.37,0.,-1.7900000000048));
#2098=CARTESIAN_POINT('',(8.37,3.5,-1.7900000000048));
#2099=CARTESIAN_POINT('',(6.87,3.5,-1.7900000000048));
#2100=CARTESIAN_POINT('',(8.37,0.,-1.7900000000048));
#2101=CARTESIAN_POINT('Origin',(8.37,0.,-3.2900000000048));
#2102=CARTESIAN_POINT('',(8.37,3.5,-3.2900000000048));
#2103=CARTESIAN_POINT('',(8.37,3.5,-1.7900000000048));
#2104=CARTESIAN_POINT('',(8.37,0.,-3.2900000000048));
#2105=CARTESIAN_POINT('Origin',(6.87,0.,-3.2900000000048));
#2106=CARTESIAN_POINT('',(8.37,3.5,-3.2900000000048));
#2107=CARTESIAN_POINT('Origin',(6.87,0.,3.2899999999952));
#2108=CARTESIAN_POINT('',(6.87,3.5,1.7899999999952));
#2109=CARTESIAN_POINT('',(6.87,0.,1.7899999999952));
#2110=CARTESIAN_POINT('',(6.87,3.5,3.2899999999952));
#2111=CARTESIAN_POINT('',(6.87,3.5,1.7899999999952));
#2112=CARTESIAN_POINT('',(6.87,0.,3.2899999999952));
#2113=CARTESIAN_POINT('Origin',(8.37,0.,3.2899999999952));
#2114=CARTESIAN_POINT('',(8.37,3.5,3.2899999999952));
#2115=CARTESIAN_POINT('',(6.87,3.5,3.2899999999952));
#2116=CARTESIAN_POINT('',(8.37,0.,3.2899999999952));
#2117=CARTESIAN_POINT('Origin',(8.37,0.,1.7899999999952));
#2118=CARTESIAN_POINT('',(8.37,3.5,1.7899999999952));
#2119=CARTESIAN_POINT('',(8.37,3.5,3.2899999999952));
#2120=CARTESIAN_POINT('',(8.37,0.,1.7899999999952));
#2121=CARTESIAN_POINT('Origin',(6.87,0.,1.7899999999952));
#2122=CARTESIAN_POINT('',(8.37,3.5,1.7899999999952));
#2123=CARTESIAN_POINT('Origin',(-8.37,0.,5.8299999999952));
#2124=CARTESIAN_POINT('',(-8.37,3.5,4.3299999999952));
#2125=CARTESIAN_POINT('',(-8.37,0.,4.3299999999952));
#2126=CARTESIAN_POINT('',(-8.37,3.5,5.8299999999952));
#2127=CARTESIAN_POINT('',(-8.37,3.5,4.3299999999952));
#2128=CARTESIAN_POINT('',(-8.37,0.,5.8299999999952));
#2129=CARTESIAN_POINT('Origin',(-6.87,0.,5.8299999999952));
#2130=CARTESIAN_POINT('',(-6.87,3.5,5.8299999999952));
#2131=CARTESIAN_POINT('',(-8.37,3.5,5.8299999999952));
#2132=CARTESIAN_POINT('',(-6.87,0.,5.8299999999952));
#2133=CARTESIAN_POINT('Origin',(-6.87,0.,4.3299999999952));
#2134=CARTESIAN_POINT('',(-6.87,3.5,4.3299999999952));
#2135=CARTESIAN_POINT('',(-6.87,3.5,5.8299999999952));
#2136=CARTESIAN_POINT('',(-6.87,0.,4.3299999999952));
#2137=CARTESIAN_POINT('Origin',(-8.37,0.,4.3299999999952));
#2138=CARTESIAN_POINT('',(-6.87,3.5,4.3299999999952));
#2139=CARTESIAN_POINT('Origin',(-8.37,0.,0.749999999995196));
#2140=CARTESIAN_POINT('',(-8.37,3.5,-0.750000000004805));
#2141=CARTESIAN_POINT('',(-8.37,0.,-0.750000000004805));
#2142=CARTESIAN_POINT('',(-8.37,3.5,0.749999999995196));
#2143=CARTESIAN_POINT('',(-8.37,3.5,-0.750000000004805));
#2144=CARTESIAN_POINT('',(-8.37,0.,0.749999999995196));
#2145=CARTESIAN_POINT('Origin',(-6.87,0.,0.749999999995196));
#2146=CARTESIAN_POINT('',(-6.87,3.5,0.749999999995196));
#2147=CARTESIAN_POINT('',(-8.37,3.5,0.749999999995195));
#2148=CARTESIAN_POINT('',(-6.87,0.,0.749999999995196));
#2149=CARTESIAN_POINT('Origin',(-6.87,0.,-0.750000000004805));
#2150=CARTESIAN_POINT('',(-6.87,3.5,-0.750000000004805));
#2151=CARTESIAN_POINT('',(-6.87,3.5,0.749999999995196));
#2152=CARTESIAN_POINT('',(-6.87,0.,-0.750000000004805));
#2153=CARTESIAN_POINT('Origin',(-8.37,0.,-0.750000000004805));
#2154=CARTESIAN_POINT('',(-6.87,3.5,-0.750000000004805));
#2155=CARTESIAN_POINT('Origin',(-8.37,0.,-6.8700000000048));
#2156=CARTESIAN_POINT('',(-8.37,3.5,-8.3700000000048));
#2157=CARTESIAN_POINT('',(-8.37,0.,-8.3700000000048));
#2158=CARTESIAN_POINT('',(-8.37,3.5,-6.8700000000048));
#2159=CARTESIAN_POINT('',(-8.37,3.5,-8.3700000000048));
#2160=CARTESIAN_POINT('',(-8.37,0.,-6.8700000000048));
#2161=CARTESIAN_POINT('Origin',(-6.87,0.,-6.8700000000048));
#2162=CARTESIAN_POINT('',(-6.87,3.5,-6.8700000000048));
#2163=CARTESIAN_POINT('',(-8.37,3.5,-6.8700000000048));
#2164=CARTESIAN_POINT('',(-6.87,0.,-6.8700000000048));
#2165=CARTESIAN_POINT('Origin',(-6.87,0.,-8.3700000000048));
#2166=CARTESIAN_POINT('',(-6.87,3.5,-8.3700000000048));
#2167=CARTESIAN_POINT('',(-6.87,3.5,-6.8700000000048));
#2168=CARTESIAN_POINT('',(-6.87,0.,-8.3700000000048));
#2169=CARTESIAN_POINT('Origin',(-8.37,0.,-8.3700000000048));
#2170=CARTESIAN_POINT('',(-6.87,3.5,-8.3700000000048));
#2171=CARTESIAN_POINT('Origin',(-8.37,0.,-1.7900000000048));
#2172=CARTESIAN_POINT('',(-8.37,3.5,-3.2900000000048));
#2173=CARTESIAN_POINT('',(-8.37,0.,-3.2900000000048));
#2174=CARTESIAN_POINT('',(-8.37,3.5,-1.7900000000048));
#2175=CARTESIAN_POINT('',(-8.37,3.5,-3.2900000000048));
#2176=CARTESIAN_POINT('',(-8.37,0.,-1.7900000000048));
#2177=CARTESIAN_POINT('Origin',(-6.87,0.,-1.7900000000048));
#2178=CARTESIAN_POINT('',(-6.87,3.5,-1.7900000000048));
#2179=CARTESIAN_POINT('',(-8.37,3.5,-1.7900000000048));
#2180=CARTESIAN_POINT('',(-6.87,0.,-1.7900000000048));
#2181=CARTESIAN_POINT('Origin',(-6.87,0.,-3.2900000000048));
#2182=CARTESIAN_POINT('',(-6.87,3.5,-3.2900000000048));
#2183=CARTESIAN_POINT('',(-6.87,3.5,-1.7900000000048));
#2184=CARTESIAN_POINT('',(-6.87,0.,-3.2900000000048));
#2185=CARTESIAN_POINT('Origin',(-8.37,0.,-3.2900000000048));
#2186=CARTESIAN_POINT('',(-6.87,3.5,-3.2900000000048));
#2187=CARTESIAN_POINT('Origin',(6.87,0.,5.8299999999952));
#2188=CARTESIAN_POINT('',(6.87,3.5,4.3299999999952));
#2189=CARTESIAN_POINT('',(6.87,0.,4.3299999999952));
#2190=CARTESIAN_POINT('',(6.87,3.5,5.8299999999952));
#2191=CARTESIAN_POINT('',(6.87,3.5,4.3299999999952));
#2192=CARTESIAN_POINT('',(6.87,0.,5.8299999999952));
#2193=CARTESIAN_POINT('Origin',(8.37,0.,5.8299999999952));
#2194=CARTESIAN_POINT('',(8.37,3.5,5.8299999999952));
#2195=CARTESIAN_POINT('',(6.87,3.5,5.8299999999952));
#2196=CARTESIAN_POINT('',(8.37,0.,5.8299999999952));
#2197=CARTESIAN_POINT('Origin',(8.37,0.,4.3299999999952));
#2198=CARTESIAN_POINT('',(8.37,3.5,4.3299999999952));
#2199=CARTESIAN_POINT('',(8.37,3.5,5.8299999999952));
#2200=CARTESIAN_POINT('',(8.37,0.,4.3299999999952));
#2201=CARTESIAN_POINT('Origin',(6.87,0.,4.3299999999952));
#2202=CARTESIAN_POINT('',(8.37,3.5,4.3299999999952));
#2203=CARTESIAN_POINT('Origin',(6.87,0.,-4.3300000000048));
#2204=CARTESIAN_POINT('',(6.87,3.5,-5.83000000000481));
#2205=CARTESIAN_POINT('',(6.87,0.,-5.83000000000481));
#2206=CARTESIAN_POINT('',(6.87,3.5,-4.3300000000048));
#2207=CARTESIAN_POINT('',(6.87,3.5,-5.83000000000481));
#2208=CARTESIAN_POINT('',(6.87,0.,-4.3300000000048));
#2209=CARTESIAN_POINT('Origin',(8.37,0.,-4.3300000000048));
#2210=CARTESIAN_POINT('',(8.37,3.5,-4.3300000000048));
#2211=CARTESIAN_POINT('',(6.87,3.5,-4.3300000000048));
#2212=CARTESIAN_POINT('',(8.37,0.,-4.3300000000048));
#2213=CARTESIAN_POINT('Origin',(8.37,0.,-5.83000000000481));
#2214=CARTESIAN_POINT('',(8.37,3.5,-5.83000000000481));
#2215=CARTESIAN_POINT('',(8.37,3.5,-4.3300000000048));
#2216=CARTESIAN_POINT('',(8.37,0.,-5.83000000000481));
#2217=CARTESIAN_POINT('Origin',(6.87,0.,-5.83000000000481));
#2218=CARTESIAN_POINT('',(8.37,3.5,-5.83000000000481));
#2219=CARTESIAN_POINT('Origin',(-17.5,0.,17.5));
#2220=CARTESIAN_POINT('',(-17.5,3.5,17.5));
#2221=CARTESIAN_POINT('Origin',(17.5,0.,-17.5));
#2222=CARTESIAN_POINT('',(17.5,3.5,-17.5));
#2223=CARTESIAN_POINT('Origin',(0.,3.5,4.44089209850063E-15));
#2224=UNCERTAINTY_MEASURE_WITH_UNIT(LENGTH_MEASURE(0.01),#2228,
'DISTANCE_ACCURACY_VALUE',
'Maximum model space distance between geometric entities at asserted c
onnectivities');
#2225=UNCERTAINTY_MEASURE_WITH_UNIT(LENGTH_MEASURE(0.01),#2228,
'DISTANCE_ACCURACY_VALUE',
'Maximum model space distance between geometric entities at asserted c
onnectivities');
#2226=(
GEOMETRIC_REPRESENTATION_CONTEXT(3)
GLOBAL_UNCERTAINTY_ASSIGNED_CONTEXT((#2224))
GLOBAL_UNIT_ASSIGNED_CONTEXT((#2228,#2230,#2231))
REPRESENTATION_CONTEXT('','3D')
);
#2227=(
GEOMETRIC_REPRESENTATION_CONTEXT(3)
GLOBAL_UNCERTAINTY_ASSIGNED_CONTEXT((#2225))
GLOBAL_UNIT_ASSIGNED_CONTEXT((#2228,#2230,#2231))
REPRESENTATION_CONTEXT('','3D')
);
#2228=(
LENGTH_UNIT()
NAMED_UNIT(*)
SI_UNIT(.MILLI.,.METRE.)
);
#2229=(
LENGTH_UNIT()
NAMED_UNIT(*)
SI_UNIT($,.METRE.)
);
#2230=(
NAMED_UNIT(*)
PLANE_ANGLE_UNIT()
SI_UNIT($,.RADIAN.)
);
#2231=(
NAMED_UNIT(*)
SI_UNIT($,.STERADIAN.)
SOLID_ANGLE_UNIT()
);
#2232=SHAPE_DEFINITION_REPRESENTATION(#2233,#2234);
#2233=PRODUCT_DEFINITION_SHAPE('',$,#2236);
#2234=SHAPE_REPRESENTATION('',(#1428),#2226);
#2235=PRODUCT_DEFINITION_CONTEXT('part definition',#2240,'design');
#2236=PRODUCT_DEFINITION('2026-09-10-21-28-10-243',
'QT Py Header Trimmer',#2237,#2235);
#2237=PRODUCT_DEFINITION_FORMATION('',$,#2242);
#2238=PRODUCT_RELATED_PRODUCT_CATEGORY('QT Py Header Trimmer',
'QT Py Header Trimmer',(#2242));
#2239=APPLICATION_PROTOCOL_DEFINITION('international standard',
'automotive_design',2009,#2240);
#2240=APPLICATION_CONTEXT(
'Core Data for Automotive Mechanical Design Process');
#2241=PRODUCT_CONTEXT('part definition',#2240,'mechanical');
#2242=PRODUCT('2026-09-10-21-28-10-243','QT Py Header Trimmer',$,(#2241));
#2243=PRESENTATION_STYLE_ASSIGNMENT((#2244));
#2244=SURFACE_STYLE_USAGE(.BOTH.,#2245);
#2245=SURFACE_SIDE_STYLE('',(#2246));
#2246=SURFACE_STYLE_FILL_AREA(#2247);
#2247=FILL_AREA_STYLE('Steel - Satin',(#2248));
#2248=FILL_AREA_STYLE_COLOUR('Steel - Satin',#2249);
#2249=COLOUR_RGB('Steel - Satin',0.627450980392157,0.627450980392157,0.627450980392157);
ENDSEC;
END-ISO-10303-21;
