ISO-10303-21;
HEADER;
/* Generated by software containing ST-Developer
 * from STEP Tools, Inc. (www.steptools.com) 
 */

FILE_DESCRIPTION(
/* description */ (''),
/* implementation_level */ '2;1');

FILE_NAME(
/* name */ 'carriage-clip_v1.0.step',
/* time_stamp */ '2026-08-29T11:09:34-05:00',
/* author */ (''),
/* organization */ (''),
/* preprocessor_version */ 'ST-DEVELOPER v20.1',
/* originating_system */ 'Autodesk Translation Framework v15.8.0.0',
/* authorisation */ '');

FILE_SCHEMA (('AUTOMOTIVE_DESIGN { 1 0 10303 214 3 1 1 }'));
ENDSEC;

DATA;
#10=MECHANICAL_DESIGN_GEOMETRIC_PRESENTATION_REPRESENTATION('',(#13),#1563);
#11=SHAPE_REPRESENTATION_RELATIONSHIP('SRR','None',#1570,#12);
#12=ADVANCED_BREP_SHAPE_REPRESENTATION('',(#14),#1562);
#13=STYLED_ITEM('',(#1579),#14);
#14=MANIFOLD_SOLID_BREP('Body1',#913);
#15=CONICAL_SURFACE('',#995,1.76213203435596,0.785398163397448);
#16=CONICAL_SURFACE('',#999,1.76213203435596,0.785398163397448);
#17=CONICAL_SURFACE('',#1003,1.76213203435596,0.785398163397448);
#18=FACE_BOUND('',#111,.T.);
#19=FACE_BOUND('',#112,.T.);
#20=FACE_BOUND('',#113,.T.);
#21=FACE_BOUND('',#130,.T.);
#22=FACE_BOUND('',#146,.T.);
#23=FACE_BOUND('',#147,.T.);
#24=FACE_BOUND('',#148,.T.);
#25=FACE_BOUND('',#149,.T.);
#26=PLANE('',#930);
#27=PLANE('',#932);
#28=PLANE('',#939);
#29=PLANE('',#940);
#30=PLANE('',#943);
#31=PLANE('',#948);
#32=PLANE('',#952);
#33=PLANE('',#956);
#34=PLANE('',#960);
#35=PLANE('',#964);
#36=PLANE('',#973);
#37=PLANE('',#976);
#38=PLANE('',#979);
#39=PLANE('',#985);
#40=PLANE('',#986);
#41=PLANE('',#987);
#42=PLANE('',#990);
#43=PLANE('',#991);
#44=PLANE('',#1007);
#45=PLANE('',#1012);
#46=PLANE('',#1015);
#47=PLANE('',#1020);
#48=FACE_OUTER_BOUND('',#95,.T.);
#49=FACE_OUTER_BOUND('',#96,.T.);
#50=FACE_OUTER_BOUND('',#97,.T.);
#51=FACE_OUTER_BOUND('',#98,.T.);
#52=FACE_OUTER_BOUND('',#99,.T.);
#53=FACE_OUTER_BOUND('',#100,.T.);
#54=FACE_OUTER_BOUND('',#101,.T.);
#55=FACE_OUTER_BOUND('',#102,.T.);
#56=FACE_OUTER_BOUND('',#103,.T.);
#57=FACE_OUTER_BOUND('',#104,.T.);
#58=FACE_OUTER_BOUND('',#105,.T.);
#59=FACE_OUTER_BOUND('',#106,.T.);
#60=FACE_OUTER_BOUND('',#107,.T.);
#61=FACE_OUTER_BOUND('',#108,.T.);
#62=FACE_OUTER_BOUND('',#109,.T.);
#63=FACE_OUTER_BOUND('',#110,.T.);
#64=FACE_OUTER_BOUND('',#114,.T.);
#65=FACE_OUTER_BOUND('',#115,.T.);
#66=FACE_OUTER_BOUND('',#116,.T.);
#67=FACE_OUTER_BOUND('',#117,.T.);
#68=FACE_OUTER_BOUND('',#118,.T.);
#69=FACE_OUTER_BOUND('',#119,.T.);
#70=FACE_OUTER_BOUND('',#120,.T.);
#71=FACE_OUTER_BOUND('',#121,.T.);
#72=FACE_OUTER_BOUND('',#122,.T.);
#73=FACE_OUTER_BOUND('',#123,.T.);
#74=FACE_OUTER_BOUND('',#124,.T.);
#75=FACE_OUTER_BOUND('',#125,.T.);
#76=FACE_OUTER_BOUND('',#126,.T.);
#77=FACE_OUTER_BOUND('',#127,.T.);
#78=FACE_OUTER_BOUND('',#128,.T.);
#79=FACE_OUTER_BOUND('',#129,.T.);
#80=FACE_OUTER_BOUND('',#131,.T.);
#81=FACE_OUTER_BOUND('',#132,.T.);
#82=FACE_OUTER_BOUND('',#133,.T.);
#83=FACE_OUTER_BOUND('',#134,.T.);
#84=FACE_OUTER_BOUND('',#135,.T.);
#85=FACE_OUTER_BOUND('',#136,.T.);
#86=FACE_OUTER_BOUND('',#137,.T.);
#87=FACE_OUTER_BOUND('',#138,.T.);
#88=FACE_OUTER_BOUND('',#139,.T.);
#89=FACE_OUTER_BOUND('',#140,.T.);
#90=FACE_OUTER_BOUND('',#141,.T.);
#91=FACE_OUTER_BOUND('',#142,.T.);
#92=FACE_OUTER_BOUND('',#143,.T.);
#93=FACE_OUTER_BOUND('',#144,.T.);
#94=FACE_OUTER_BOUND('',#145,.T.);
#95=EDGE_LOOP('',(#582,#583,#584,#585));
#96=EDGE_LOOP('',(#586,#587,#588,#589,#590,#591));
#97=EDGE_LOOP('',(#592,#593,#594,#595,#596,#597,#598,#599,#600,#601,#602,
#603,#604,#605,#606,#607,#608));
#98=EDGE_LOOP('',(#609,#610,#611,#612));
#99=EDGE_LOOP('',(#613,#614,#615,#616));
#100=EDGE_LOOP('',(#617,#618,#619,#620,#621,#622,#623));
#101=EDGE_LOOP('',(#624,#625,#626,#627,#628,#629,#630,#631,#632,#633,#634,
#635,#636,#637,#638));
#102=EDGE_LOOP('',(#639,#640,#641,#642));
#103=EDGE_LOOP('',(#643,#644,#645,#646));
#104=EDGE_LOOP('',(#647,#648,#649,#650));
#105=EDGE_LOOP('',(#651,#652,#653,#654));
#106=EDGE_LOOP('',(#655,#656,#657,#658));
#107=EDGE_LOOP('',(#659,#660,#661,#662));
#108=EDGE_LOOP('',(#663,#664,#665,#666));
#109=EDGE_LOOP('',(#667,#668,#669,#670));
#110=EDGE_LOOP('',(#671,#672,#673,#674,#675,#676,#677,#678,#679,#680,#681,
#682));
#111=EDGE_LOOP('',(#683,#684,#685,#686,#687,#688,#689,#690));
#112=EDGE_LOOP('',(#691));
#113=EDGE_LOOP('',(#692));
#114=EDGE_LOOP('',(#693,#694,#695,#696));
#115=EDGE_LOOP('',(#697,#698,#699,#700));
#116=EDGE_LOOP('',(#701,#702,#703,#704));
#117=EDGE_LOOP('',(#705,#706,#707,#708));
#118=EDGE_LOOP('',(#709,#710,#711,#712,#713));
#119=EDGE_LOOP('',(#714,#715,#716,#717));
#120=EDGE_LOOP('',(#718,#719,#720,#721));
#121=EDGE_LOOP('',(#722,#723,#724,#725));
#122=EDGE_LOOP('',(#726,#727,#728,#729));
#123=EDGE_LOOP('',(#730,#731,#732,#733));
#124=EDGE_LOOP('',(#734,#735,#736,#737));
#125=EDGE_LOOP('',(#738,#739,#740,#741));
#126=EDGE_LOOP('',(#742,#743,#744,#745));
#127=EDGE_LOOP('',(#746,#747,#748,#749));
#128=EDGE_LOOP('',(#750,#751,#752,#753));
#129=EDGE_LOOP('',(#754,#755,#756,#757,#758,#759));
#130=EDGE_LOOP('',(#760));
#131=EDGE_LOOP('',(#761,#762,#763,#764));
#132=EDGE_LOOP('',(#765,#766,#767,#768));
#133=EDGE_LOOP('',(#769,#770,#771,#772));
#134=EDGE_LOOP('',(#773,#774,#775,#776));
#135=EDGE_LOOP('',(#777,#778,#779,#780));
#136=EDGE_LOOP('',(#781,#782,#783,#784));
#137=EDGE_LOOP('',(#785,#786,#787,#788));
#138=EDGE_LOOP('',(#789,#790,#791,#792));
#139=EDGE_LOOP('',(#793,#794,#795,#796));
#140=EDGE_LOOP('',(#797,#798,#799,#800));
#141=EDGE_LOOP('',(#801,#802,#803,#804));
#142=EDGE_LOOP('',(#805,#806,#807,#808));
#143=EDGE_LOOP('',(#809,#810,#811,#812));
#144=EDGE_LOOP('',(#813,#814,#815,#816));
#145=EDGE_LOOP('',(#817,#818,#819,#820,#821,#822,#823,#824,#825,#826,#827,
#828,#829,#830,#831,#832));
#146=EDGE_LOOP('',(#833,#834,#835,#836,#837,#838,#839,#840));
#147=EDGE_LOOP('',(#841));
#148=EDGE_LOOP('',(#842));
#149=EDGE_LOOP('',(#843));
#150=LINE('',#1301,#234);
#151=LINE('',#1304,#235);
#152=LINE('',#1307,#236);
#153=LINE('',#1309,#237);
#154=LINE('',#1311,#238);
#155=LINE('',#1314,#239);
#156=LINE('',#1317,#240);
#157=LINE('',#1319,#241);
#158=LINE('',#1321,#242);
#159=LINE('',#1323,#243);
#160=LINE('',#1325,#244);
#161=LINE('',#1327,#245);
#162=LINE('',#1329,#246);
#163=LINE('',#1331,#247);
#164=LINE('',#1335,#248);
#165=LINE('',#1339,#249);
#166=LINE('',#1343,#250);
#167=LINE('',#1347,#251);
#168=LINE('',#1350,#252);
#169=LINE('',#1352,#253);
#170=LINE('',#1355,#254);
#171=LINE('',#1363,#255);
#172=LINE('',#1367,#256);
#173=LINE('',#1371,#257);
#174=LINE('',#1375,#258);
#175=LINE('',#1377,#259);
#176=LINE('',#1379,#260);
#177=LINE('',#1381,#261);
#178=LINE('',#1382,#262);
#179=LINE('',#1386,#263);
#180=LINE('',#1388,#264);
#181=LINE('',#1390,#265);
#182=LINE('',#1391,#266);
#183=LINE('',#1397,#267);
#184=LINE('',#1400,#268);
#185=LINE('',#1402,#269);
#186=LINE('',#1403,#270);
#187=LINE('',#1409,#271);
#188=LINE('',#1412,#272);
#189=LINE('',#1414,#273);
#190=LINE('',#1415,#274);
#191=LINE('',#1421,#275);
#192=LINE('',#1424,#276);
#193=LINE('',#1426,#277);
#194=LINE('',#1427,#278);
#195=LINE('',#1435,#279);
#196=LINE('',#1439,#280);
#197=LINE('',#1443,#281);
#198=LINE('',#1447,#282);
#199=LINE('',#1451,#283);
#200=LINE('',#1459,#284);
#201=LINE('',#1461,#285);
#202=LINE('',#1462,#286);
#203=LINE('',#1465,#287);
#204=LINE('',#1469,#288);
#205=LINE('',#1470,#289);
#206=LINE('',#1473,#290);
#207=LINE('',#1476,#291);
#208=LINE('',#1478,#292);
#209=LINE('',#1479,#293);
#210=LINE('',#1482,#294);
#211=LINE('',#1483,#295);
#212=LINE('',#1485,#296);
#213=LINE('',#1486,#297);
#214=LINE('',#1488,#298);
#215=LINE('',#1489,#299);
#216=LINE('',#1491,#300);
#217=LINE('',#1498,#301);
#218=LINE('',#1503,#302);
#219=LINE('',#1511,#303);
#220=LINE('',#1514,#304);
#221=LINE('',#1519,#305);
#222=LINE('',#1522,#306);
#223=LINE('',#1527,#307);
#224=LINE('',#1530,#308);
#225=LINE('',#1534,#309);
#226=LINE('',#1535,#310);
#227=LINE('',#1536,#311);
#228=LINE('',#1542,#312);
#229=LINE('',#1545,#313);
#230=LINE('',#1546,#314);
#231=LINE('',#1550,#315);
#232=LINE('',#1553,#316);
#233=LINE('',#1554,#317);
#234=VECTOR('',#1027,10.);
#235=VECTOR('',#1030,10.);
#236=VECTOR('',#1033,10.);
#237=VECTOR('',#1034,10.);
#238=VECTOR('',#1035,10.);
#239=VECTOR('',#1038,10.);
#240=VECTOR('',#1041,10.);
#241=VECTOR('',#1042,10.);
#242=VECTOR('',#1043,10.);
#243=VECTOR('',#1044,10.);
#244=VECTOR('',#1045,10.);
#245=VECTOR('',#1046,10.);
#246=VECTOR('',#1047,10.);
#247=VECTOR('',#1048,10.);
#248=VECTOR('',#1051,10.);
#249=VECTOR('',#1054,10.);
#250=VECTOR('',#1057,10.);
#251=VECTOR('',#1062,10.);
#252=VECTOR('',#1065,10.);
#253=VECTOR('',#1068,10.);
#254=VECTOR('',#1071,10.);
#255=VECTOR('',#1080,10.);
#256=VECTOR('',#1083,10.);
#257=VECTOR('',#1086,10.);
#258=VECTOR('',#1089,10.);
#259=VECTOR('',#1090,10.);
#260=VECTOR('',#1091,10.);
#261=VECTOR('',#1092,10.);
#262=VECTOR('',#1093,10.);
#263=VECTOR('',#1096,10.);
#264=VECTOR('',#1097,10.);
#265=VECTOR('',#1098,10.);
#266=VECTOR('',#1099,10.);
#267=VECTOR('',#1106,10.);
#268=VECTOR('',#1109,10.);
#269=VECTOR('',#1110,10.);
#270=VECTOR('',#1111,10.);
#271=VECTOR('',#1118,10.);
#272=VECTOR('',#1121,10.);
#273=VECTOR('',#1122,10.);
#274=VECTOR('',#1123,10.);
#275=VECTOR('',#1130,10.);
#276=VECTOR('',#1133,10.);
#277=VECTOR('',#1134,10.);
#278=VECTOR('',#1135,10.);
#279=VECTOR('',#1146,10.);
#280=VECTOR('',#1149,10.);
#281=VECTOR('',#1152,10.);
#282=VECTOR('',#1155,10.);
#283=VECTOR('',#1158,10.);
#284=VECTOR('',#1167,10.);
#285=VECTOR('',#1168,10.);
#286=VECTOR('',#1169,10.);
#287=VECTOR('',#1172,10.);
#288=VECTOR('',#1177,10.);
#289=VECTOR('',#1178,10.);
#290=VECTOR('',#1181,10.);
#291=VECTOR('',#1186,10.);
#292=VECTOR('',#1187,10.);
#293=VECTOR('',#1188,10.);
#294=VECTOR('',#1193,10.);
#295=VECTOR('',#1194,10.);
#296=VECTOR('',#1197,10.);
#297=VECTOR('',#1198,10.);
#298=VECTOR('',#1201,10.);
#299=VECTOR('',#1202,10.);
#300=VECTOR('',#1205,10.);
#301=VECTOR('',#1218,10.);
#302=VECTOR('',#1223,10.);
#303=VECTOR('',#1232,1.55);
#304=VECTOR('',#1237,1.1);
#305=VECTOR('',#1242,1.55);
#306=VECTOR('',#1247,1.1);
#307=VECTOR('',#1252,1.55);
#308=VECTOR('',#1257,1.1);
#309=VECTOR('',#1260,10.);
#310=VECTOR('',#1261,10.);
#311=VECTOR('',#1262,10.);
#312=VECTOR('',#1271,10.);
#313=VECTOR('',#1274,10.);
#314=VECTOR('',#1275,10.);
#315=VECTOR('',#1280,10.);
#316=VECTOR('',#1283,10.);
#317=VECTOR('',#1284,10.);
#318=CIRCLE('',#928,2.);
#319=CIRCLE('',#929,2.);
#320=CIRCLE('',#931,2.);
#321=CIRCLE('',#933,0.8);
#322=CIRCLE('',#934,0.8);
#323=CIRCLE('',#935,0.8);
#324=CIRCLE('',#936,0.8);
#325=CIRCLE('',#938,2.);
#326=CIRCLE('',#941,3.);
#327=CIRCLE('',#942,11.4999999999949);
#328=CIRCLE('',#944,0.8);
#329=CIRCLE('',#945,0.8);
#330=CIRCLE('',#946,0.8);
#331=CIRCLE('',#947,0.8);
#332=CIRCLE('',#950,2.25);
#333=CIRCLE('',#951,2.25);
#334=CIRCLE('',#954,2.25);
#335=CIRCLE('',#955,2.25);
#336=CIRCLE('',#958,2.25);
#337=CIRCLE('',#959,2.25);
#338=CIRCLE('',#962,2.25);
#339=CIRCLE('',#963,2.25);
#340=CIRCLE('',#965,11.4999999999949);
#341=CIRCLE('',#966,2.);
#342=CIRCLE('',#967,2.);
#343=CIRCLE('',#968,3.);
#344=CIRCLE('',#969,2.);
#345=CIRCLE('',#970,2.);
#346=CIRCLE('',#971,1.1);
#347=CIRCLE('',#972,1.1);
#348=CIRCLE('',#975,2.);
#349=CIRCLE('',#978,2.);
#350=CIRCLE('',#989,3.);
#351=CIRCLE('',#992,2.);
#352=CIRCLE('',#993,2.);
#353=CIRCLE('',#994,1.1);
#354=CIRCLE('',#996,2.42426406871193);
#355=CIRCLE('',#997,1.1);
#356=CIRCLE('',#1000,2.42426406871193);
#357=CIRCLE('',#1001,1.1);
#358=CIRCLE('',#1004,2.42426406871193);
#359=CIRCLE('',#1005,1.1);
#360=CIRCLE('',#1009,2.);
#361=CIRCLE('',#1011,3.);
#362=CIRCLE('',#1014,2.);
#363=CIRCLE('',#1017,2.);
#364=CIRCLE('',#1019,2.);
#365=VERTEX_POINT('',#1297);
#366=VERTEX_POINT('',#1298);
#367=VERTEX_POINT('',#1300);
#368=VERTEX_POINT('',#1302);
#369=VERTEX_POINT('',#1306);
#370=VERTEX_POINT('',#1308);
#371=VERTEX_POINT('',#1310);
#372=VERTEX_POINT('',#1312);
#373=VERTEX_POINT('',#1316);
#374=VERTEX_POINT('',#1318);
#375=VERTEX_POINT('',#1320);
#376=VERTEX_POINT('',#1322);
#377=VERTEX_POINT('',#1324);
#378=VERTEX_POINT('',#1326);
#379=VERTEX_POINT('',#1328);
#380=VERTEX_POINT('',#1330);
#381=VERTEX_POINT('',#1332);
#382=VERTEX_POINT('',#1334);
#383=VERTEX_POINT('',#1336);
#384=VERTEX_POINT('',#1338);
#385=VERTEX_POINT('',#1340);
#386=VERTEX_POINT('',#1342);
#387=VERTEX_POINT('',#1346);
#388=VERTEX_POINT('',#1348);
#389=VERTEX_POINT('',#1354);
#390=VERTEX_POINT('',#1356);
#391=VERTEX_POINT('',#1360);
#392=VERTEX_POINT('',#1362);
#393=VERTEX_POINT('',#1364);
#394=VERTEX_POINT('',#1366);
#395=VERTEX_POINT('',#1368);
#396=VERTEX_POINT('',#1370);
#397=VERTEX_POINT('',#1372);
#398=VERTEX_POINT('',#1374);
#399=VERTEX_POINT('',#1376);
#400=VERTEX_POINT('',#1378);
#401=VERTEX_POINT('',#1380);
#402=VERTEX_POINT('',#1384);
#403=VERTEX_POINT('',#1385);
#404=VERTEX_POINT('',#1387);
#405=VERTEX_POINT('',#1389);
#406=VERTEX_POINT('',#1393);
#407=VERTEX_POINT('',#1395);
#408=VERTEX_POINT('',#1399);
#409=VERTEX_POINT('',#1401);
#410=VERTEX_POINT('',#1405);
#411=VERTEX_POINT('',#1407);
#412=VERTEX_POINT('',#1411);
#413=VERTEX_POINT('',#1413);
#414=VERTEX_POINT('',#1417);
#415=VERTEX_POINT('',#1419);
#416=VERTEX_POINT('',#1423);
#417=VERTEX_POINT('',#1425);
#418=VERTEX_POINT('',#1432);
#419=VERTEX_POINT('',#1434);
#420=VERTEX_POINT('',#1436);
#421=VERTEX_POINT('',#1438);
#422=VERTEX_POINT('',#1440);
#423=VERTEX_POINT('',#1442);
#424=VERTEX_POINT('',#1444);
#425=VERTEX_POINT('',#1446);
#426=VERTEX_POINT('',#1448);
#427=VERTEX_POINT('',#1450);
#428=VERTEX_POINT('',#1453);
#429=VERTEX_POINT('',#1455);
#430=VERTEX_POINT('',#1458);
#431=VERTEX_POINT('',#1460);
#432=VERTEX_POINT('',#1464);
#433=VERTEX_POINT('',#1468);
#434=VERTEX_POINT('',#1472);
#435=VERTEX_POINT('',#1477);
#436=VERTEX_POINT('',#1500);
#437=VERTEX_POINT('',#1502);
#438=VERTEX_POINT('',#1505);
#439=VERTEX_POINT('',#1508);
#440=VERTEX_POINT('',#1510);
#441=VERTEX_POINT('',#1516);
#442=VERTEX_POINT('',#1518);
#443=VERTEX_POINT('',#1524);
#444=VERTEX_POINT('',#1526);
#445=VERTEX_POINT('',#1532);
#446=VERTEX_POINT('',#1533);
#447=VERTEX_POINT('',#1540);
#448=VERTEX_POINT('',#1544);
#449=VERTEX_POINT('',#1548);
#450=VERTEX_POINT('',#1552);
#451=EDGE_CURVE('',#365,#366,#318,.T.);
#452=EDGE_CURVE('',#366,#367,#150,.T.);
#453=EDGE_CURVE('',#367,#368,#319,.F.);
#454=EDGE_CURVE('',#368,#365,#151,.T.);
#455=EDGE_CURVE('',#365,#369,#152,.T.);
#456=EDGE_CURVE('',#370,#369,#153,.T.);
#457=EDGE_CURVE('',#371,#370,#154,.T.);
#458=EDGE_CURVE('',#372,#371,#320,.T.);
#459=EDGE_CURVE('',#372,#366,#155,.F.);
#460=EDGE_CURVE('',#368,#373,#156,.T.);
#461=EDGE_CURVE('',#373,#374,#157,.T.);
#462=EDGE_CURVE('',#374,#375,#158,.F.);
#463=EDGE_CURVE('',#375,#376,#159,.T.);
#464=EDGE_CURVE('',#376,#377,#160,.T.);
#465=EDGE_CURVE('',#378,#377,#161,.T.);
#466=EDGE_CURVE('',#379,#378,#162,.T.);
#467=EDGE_CURVE('',#379,#380,#163,.T.);
#468=EDGE_CURVE('',#381,#380,#321,.T.);
#469=EDGE_CURVE('',#381,#382,#164,.T.);
#470=EDGE_CURVE('',#383,#382,#322,.T.);
#471=EDGE_CURVE('',#383,#384,#165,.T.);
#472=EDGE_CURVE('',#385,#384,#323,.T.);
#473=EDGE_CURVE('',#385,#386,#166,.T.);
#474=EDGE_CURVE('',#369,#386,#324,.T.);
#475=EDGE_CURVE('',#371,#387,#167,.T.);
#476=EDGE_CURVE('',#387,#388,#325,.F.);
#477=EDGE_CURVE('',#388,#372,#168,.T.);
#478=EDGE_CURVE('',#388,#367,#169,.T.);
#479=EDGE_CURVE('',#387,#389,#170,.T.);
#480=EDGE_CURVE('',#390,#389,#326,.T.);
#481=EDGE_CURVE('',#373,#390,#327,.T.);
#482=EDGE_CURVE('',#391,#370,#328,.T.);
#483=EDGE_CURVE('',#391,#392,#171,.T.);
#484=EDGE_CURVE('',#393,#392,#329,.T.);
#485=EDGE_CURVE('',#393,#394,#172,.T.);
#486=EDGE_CURVE('',#395,#394,#330,.T.);
#487=EDGE_CURVE('',#395,#396,#173,.T.);
#488=EDGE_CURVE('',#397,#396,#331,.T.);
#489=EDGE_CURVE('',#397,#398,#174,.T.);
#490=EDGE_CURVE('',#399,#398,#175,.T.);
#491=EDGE_CURVE('',#399,#400,#176,.T.);
#492=EDGE_CURVE('',#400,#401,#177,.T.);
#493=EDGE_CURVE('',#389,#401,#178,.T.);
#494=EDGE_CURVE('',#402,#403,#179,.T.);
#495=EDGE_CURVE('',#404,#402,#180,.T.);
#496=EDGE_CURVE('',#405,#404,#181,.T.);
#497=EDGE_CURVE('',#405,#403,#182,.T.);
#498=EDGE_CURVE('',#403,#406,#332,.T.);
#499=EDGE_CURVE('',#407,#405,#333,.T.);
#500=EDGE_CURVE('',#407,#406,#183,.T.);
#501=EDGE_CURVE('',#406,#408,#184,.T.);
#502=EDGE_CURVE('',#409,#407,#185,.T.);
#503=EDGE_CURVE('',#409,#408,#186,.T.);
#504=EDGE_CURVE('',#408,#410,#334,.T.);
#505=EDGE_CURVE('',#411,#409,#335,.T.);
#506=EDGE_CURVE('',#411,#410,#187,.T.);
#507=EDGE_CURVE('',#410,#412,#188,.T.);
#508=EDGE_CURVE('',#413,#411,#189,.T.);
#509=EDGE_CURVE('',#413,#412,#190,.T.);
#510=EDGE_CURVE('',#412,#414,#336,.T.);
#511=EDGE_CURVE('',#415,#413,#337,.T.);
#512=EDGE_CURVE('',#415,#414,#191,.T.);
#513=EDGE_CURVE('',#414,#416,#192,.T.);
#514=EDGE_CURVE('',#417,#415,#193,.T.);
#515=EDGE_CURVE('',#417,#416,#194,.T.);
#516=EDGE_CURVE('',#416,#402,#338,.T.);
#517=EDGE_CURVE('',#404,#417,#339,.T.);
#518=EDGE_CURVE('',#418,#374,#340,.T.);
#519=EDGE_CURVE('',#419,#418,#195,.F.);
#520=EDGE_CURVE('',#420,#419,#341,.F.);
#521=EDGE_CURVE('',#421,#420,#196,.F.);
#522=EDGE_CURVE('',#422,#421,#342,.F.);
#523=EDGE_CURVE('',#423,#422,#197,.F.);
#524=EDGE_CURVE('',#424,#423,#343,.F.);
#525=EDGE_CURVE('',#425,#424,#198,.F.);
#526=EDGE_CURVE('',#426,#425,#344,.F.);
#527=EDGE_CURVE('',#427,#426,#199,.F.);
#528=EDGE_CURVE('',#375,#427,#345,.F.);
#529=EDGE_CURVE('',#428,#428,#346,.T.);
#530=EDGE_CURVE('',#429,#429,#347,.T.);
#531=EDGE_CURVE('',#422,#430,#200,.T.);
#532=EDGE_CURVE('',#430,#431,#201,.T.);
#533=EDGE_CURVE('',#423,#431,#202,.T.);
#534=EDGE_CURVE('',#421,#432,#203,.T.);
#535=EDGE_CURVE('',#432,#430,#348,.T.);
#536=EDGE_CURVE('',#420,#433,#204,.T.);
#537=EDGE_CURVE('',#433,#432,#205,.T.);
#538=EDGE_CURVE('',#419,#434,#206,.T.);
#539=EDGE_CURVE('',#434,#433,#349,.T.);
#540=EDGE_CURVE('',#418,#390,#207,.T.);
#541=EDGE_CURVE('',#390,#435,#208,.T.);
#542=EDGE_CURVE('',#435,#434,#209,.T.);
#543=EDGE_CURVE('',#394,#383,#210,.F.);
#544=EDGE_CURVE('',#382,#395,#211,.F.);
#545=EDGE_CURVE('',#396,#381,#212,.F.);
#546=EDGE_CURVE('',#380,#397,#213,.T.);
#547=EDGE_CURVE('',#384,#393,#214,.F.);
#548=EDGE_CURVE('',#392,#385,#215,.F.);
#549=EDGE_CURVE('',#386,#391,#216,.F.);
#550=EDGE_CURVE('',#401,#435,#350,.T.);
#551=EDGE_CURVE('',#398,#379,#217,.F.);
#552=EDGE_CURVE('',#436,#378,#351,.F.);
#553=EDGE_CURVE('',#436,#437,#218,.T.);
#554=EDGE_CURVE('',#399,#437,#352,.F.);
#555=EDGE_CURVE('',#438,#438,#353,.F.);
#556=EDGE_CURVE('',#439,#439,#354,.T.);
#557=EDGE_CURVE('',#439,#440,#219,.T.);
#558=EDGE_CURVE('',#440,#440,#355,.T.);
#559=EDGE_CURVE('',#440,#429,#220,.T.);
#560=EDGE_CURVE('',#441,#441,#356,.T.);
#561=EDGE_CURVE('',#441,#442,#221,.T.);
#562=EDGE_CURVE('',#442,#442,#357,.T.);
#563=EDGE_CURVE('',#442,#428,#222,.T.);
#564=EDGE_CURVE('',#443,#443,#358,.T.);
#565=EDGE_CURVE('',#443,#444,#223,.T.);
#566=EDGE_CURVE('',#444,#444,#359,.T.);
#567=EDGE_CURVE('',#444,#438,#224,.T.);
#568=EDGE_CURVE('',#445,#446,#225,.T.);
#569=EDGE_CURVE('',#437,#446,#226,.T.);
#570=EDGE_CURVE('',#436,#445,#227,.T.);
#571=EDGE_CURVE('',#446,#400,#360,.T.);
#572=EDGE_CURVE('',#431,#447,#361,.T.);
#573=EDGE_CURVE('',#424,#447,#228,.T.);
#574=EDGE_CURVE('',#447,#448,#229,.T.);
#575=EDGE_CURVE('',#425,#448,#230,.T.);
#576=EDGE_CURVE('',#448,#449,#362,.T.);
#577=EDGE_CURVE('',#426,#449,#231,.T.);
#578=EDGE_CURVE('',#449,#450,#232,.T.);
#579=EDGE_CURVE('',#427,#450,#233,.T.);
#580=EDGE_CURVE('',#450,#376,#363,.T.);
#581=EDGE_CURVE('',#377,#445,#364,.T.);
#582=ORIENTED_EDGE('',*,*,#451,.T.);
#583=ORIENTED_EDGE('',*,*,#452,.T.);
#584=ORIENTED_EDGE('',*,*,#453,.T.);
#585=ORIENTED_EDGE('',*,*,#454,.T.);
#586=ORIENTED_EDGE('',*,*,#451,.F.);
#587=ORIENTED_EDGE('',*,*,#455,.T.);
#588=ORIENTED_EDGE('',*,*,#456,.F.);
#589=ORIENTED_EDGE('',*,*,#457,.F.);
#590=ORIENTED_EDGE('',*,*,#458,.F.);
#591=ORIENTED_EDGE('',*,*,#459,.T.);
#592=ORIENTED_EDGE('',*,*,#454,.F.);
#593=ORIENTED_EDGE('',*,*,#460,.T.);
#594=ORIENTED_EDGE('',*,*,#461,.T.);
#595=ORIENTED_EDGE('',*,*,#462,.T.);
#596=ORIENTED_EDGE('',*,*,#463,.T.);
#597=ORIENTED_EDGE('',*,*,#464,.T.);
#598=ORIENTED_EDGE('',*,*,#465,.F.);
#599=ORIENTED_EDGE('',*,*,#466,.F.);
#600=ORIENTED_EDGE('',*,*,#467,.T.);
#601=ORIENTED_EDGE('',*,*,#468,.F.);
#602=ORIENTED_EDGE('',*,*,#469,.T.);
#603=ORIENTED_EDGE('',*,*,#470,.F.);
#604=ORIENTED_EDGE('',*,*,#471,.T.);
#605=ORIENTED_EDGE('',*,*,#472,.F.);
#606=ORIENTED_EDGE('',*,*,#473,.T.);
#607=ORIENTED_EDGE('',*,*,#474,.F.);
#608=ORIENTED_EDGE('',*,*,#455,.F.);
#609=ORIENTED_EDGE('',*,*,#458,.T.);
#610=ORIENTED_EDGE('',*,*,#475,.T.);
#611=ORIENTED_EDGE('',*,*,#476,.T.);
#612=ORIENTED_EDGE('',*,*,#477,.T.);
#613=ORIENTED_EDGE('',*,*,#452,.F.);
#614=ORIENTED_EDGE('',*,*,#459,.F.);
#615=ORIENTED_EDGE('',*,*,#477,.F.);
#616=ORIENTED_EDGE('',*,*,#478,.T.);
#617=ORIENTED_EDGE('',*,*,#476,.F.);
#618=ORIENTED_EDGE('',*,*,#479,.T.);
#619=ORIENTED_EDGE('',*,*,#480,.F.);
#620=ORIENTED_EDGE('',*,*,#481,.F.);
#621=ORIENTED_EDGE('',*,*,#460,.F.);
#622=ORIENTED_EDGE('',*,*,#453,.F.);
#623=ORIENTED_EDGE('',*,*,#478,.F.);
#624=ORIENTED_EDGE('',*,*,#475,.F.);
#625=ORIENTED_EDGE('',*,*,#457,.T.);
#626=ORIENTED_EDGE('',*,*,#482,.F.);
#627=ORIENTED_EDGE('',*,*,#483,.T.);
#628=ORIENTED_EDGE('',*,*,#484,.F.);
#629=ORIENTED_EDGE('',*,*,#485,.T.);
#630=ORIENTED_EDGE('',*,*,#486,.F.);
#631=ORIENTED_EDGE('',*,*,#487,.T.);
#632=ORIENTED_EDGE('',*,*,#488,.F.);
#633=ORIENTED_EDGE('',*,*,#489,.T.);
#634=ORIENTED_EDGE('',*,*,#490,.F.);
#635=ORIENTED_EDGE('',*,*,#491,.T.);
#636=ORIENTED_EDGE('',*,*,#492,.T.);
#637=ORIENTED_EDGE('',*,*,#493,.F.);
#638=ORIENTED_EDGE('',*,*,#479,.F.);
#639=ORIENTED_EDGE('',*,*,#494,.F.);
#640=ORIENTED_EDGE('',*,*,#495,.F.);
#641=ORIENTED_EDGE('',*,*,#496,.F.);
#642=ORIENTED_EDGE('',*,*,#497,.T.);
#643=ORIENTED_EDGE('',*,*,#498,.F.);
#644=ORIENTED_EDGE('',*,*,#497,.F.);
#645=ORIENTED_EDGE('',*,*,#499,.F.);
#646=ORIENTED_EDGE('',*,*,#500,.T.);
#647=ORIENTED_EDGE('',*,*,#501,.F.);
#648=ORIENTED_EDGE('',*,*,#500,.F.);
#649=ORIENTED_EDGE('',*,*,#502,.F.);
#650=ORIENTED_EDGE('',*,*,#503,.T.);
#651=ORIENTED_EDGE('',*,*,#504,.F.);
#652=ORIENTED_EDGE('',*,*,#503,.F.);
#653=ORIENTED_EDGE('',*,*,#505,.F.);
#654=ORIENTED_EDGE('',*,*,#506,.T.);
#655=ORIENTED_EDGE('',*,*,#507,.F.);
#656=ORIENTED_EDGE('',*,*,#506,.F.);
#657=ORIENTED_EDGE('',*,*,#508,.F.);
#658=ORIENTED_EDGE('',*,*,#509,.T.);
#659=ORIENTED_EDGE('',*,*,#510,.F.);
#660=ORIENTED_EDGE('',*,*,#509,.F.);
#661=ORIENTED_EDGE('',*,*,#511,.F.);
#662=ORIENTED_EDGE('',*,*,#512,.T.);
#663=ORIENTED_EDGE('',*,*,#513,.F.);
#664=ORIENTED_EDGE('',*,*,#512,.F.);
#665=ORIENTED_EDGE('',*,*,#514,.F.);
#666=ORIENTED_EDGE('',*,*,#515,.T.);
#667=ORIENTED_EDGE('',*,*,#516,.F.);
#668=ORIENTED_EDGE('',*,*,#515,.F.);
#669=ORIENTED_EDGE('',*,*,#517,.F.);
#670=ORIENTED_EDGE('',*,*,#495,.T.);
#671=ORIENTED_EDGE('',*,*,#518,.F.);
#672=ORIENTED_EDGE('',*,*,#519,.F.);
#673=ORIENTED_EDGE('',*,*,#520,.F.);
#674=ORIENTED_EDGE('',*,*,#521,.F.);
#675=ORIENTED_EDGE('',*,*,#522,.F.);
#676=ORIENTED_EDGE('',*,*,#523,.F.);
#677=ORIENTED_EDGE('',*,*,#524,.F.);
#678=ORIENTED_EDGE('',*,*,#525,.F.);
#679=ORIENTED_EDGE('',*,*,#526,.F.);
#680=ORIENTED_EDGE('',*,*,#527,.F.);
#681=ORIENTED_EDGE('',*,*,#528,.F.);
#682=ORIENTED_EDGE('',*,*,#462,.F.);
#683=ORIENTED_EDGE('',*,*,#494,.T.);
#684=ORIENTED_EDGE('',*,*,#498,.T.);
#685=ORIENTED_EDGE('',*,*,#501,.T.);
#686=ORIENTED_EDGE('',*,*,#504,.T.);
#687=ORIENTED_EDGE('',*,*,#507,.T.);
#688=ORIENTED_EDGE('',*,*,#510,.T.);
#689=ORIENTED_EDGE('',*,*,#513,.T.);
#690=ORIENTED_EDGE('',*,*,#516,.T.);
#691=ORIENTED_EDGE('',*,*,#529,.F.);
#692=ORIENTED_EDGE('',*,*,#530,.F.);
#693=ORIENTED_EDGE('',*,*,#523,.T.);
#694=ORIENTED_EDGE('',*,*,#531,.T.);
#695=ORIENTED_EDGE('',*,*,#532,.T.);
#696=ORIENTED_EDGE('',*,*,#533,.F.);
#697=ORIENTED_EDGE('',*,*,#522,.T.);
#698=ORIENTED_EDGE('',*,*,#534,.T.);
#699=ORIENTED_EDGE('',*,*,#535,.T.);
#700=ORIENTED_EDGE('',*,*,#531,.F.);
#701=ORIENTED_EDGE('',*,*,#521,.T.);
#702=ORIENTED_EDGE('',*,*,#536,.T.);
#703=ORIENTED_EDGE('',*,*,#537,.T.);
#704=ORIENTED_EDGE('',*,*,#534,.F.);
#705=ORIENTED_EDGE('',*,*,#520,.T.);
#706=ORIENTED_EDGE('',*,*,#538,.T.);
#707=ORIENTED_EDGE('',*,*,#539,.T.);
#708=ORIENTED_EDGE('',*,*,#536,.F.);
#709=ORIENTED_EDGE('',*,*,#519,.T.);
#710=ORIENTED_EDGE('',*,*,#540,.T.);
#711=ORIENTED_EDGE('',*,*,#541,.T.);
#712=ORIENTED_EDGE('',*,*,#542,.T.);
#713=ORIENTED_EDGE('',*,*,#538,.F.);
#714=ORIENTED_EDGE('',*,*,#518,.T.);
#715=ORIENTED_EDGE('',*,*,#461,.F.);
#716=ORIENTED_EDGE('',*,*,#481,.T.);
#717=ORIENTED_EDGE('',*,*,#540,.F.);
#718=ORIENTED_EDGE('',*,*,#486,.T.);
#719=ORIENTED_EDGE('',*,*,#543,.T.);
#720=ORIENTED_EDGE('',*,*,#470,.T.);
#721=ORIENTED_EDGE('',*,*,#544,.T.);
#722=ORIENTED_EDGE('',*,*,#488,.T.);
#723=ORIENTED_EDGE('',*,*,#545,.T.);
#724=ORIENTED_EDGE('',*,*,#468,.T.);
#725=ORIENTED_EDGE('',*,*,#546,.T.);
#726=ORIENTED_EDGE('',*,*,#472,.T.);
#727=ORIENTED_EDGE('',*,*,#547,.T.);
#728=ORIENTED_EDGE('',*,*,#484,.T.);
#729=ORIENTED_EDGE('',*,*,#548,.T.);
#730=ORIENTED_EDGE('',*,*,#474,.T.);
#731=ORIENTED_EDGE('',*,*,#549,.T.);
#732=ORIENTED_EDGE('',*,*,#482,.T.);
#733=ORIENTED_EDGE('',*,*,#456,.T.);
#734=ORIENTED_EDGE('',*,*,#543,.F.);
#735=ORIENTED_EDGE('',*,*,#485,.F.);
#736=ORIENTED_EDGE('',*,*,#547,.F.);
#737=ORIENTED_EDGE('',*,*,#471,.F.);
#738=ORIENTED_EDGE('',*,*,#549,.F.);
#739=ORIENTED_EDGE('',*,*,#473,.F.);
#740=ORIENTED_EDGE('',*,*,#548,.F.);
#741=ORIENTED_EDGE('',*,*,#483,.F.);
#742=ORIENTED_EDGE('',*,*,#544,.F.);
#743=ORIENTED_EDGE('',*,*,#469,.F.);
#744=ORIENTED_EDGE('',*,*,#545,.F.);
#745=ORIENTED_EDGE('',*,*,#487,.F.);
#746=ORIENTED_EDGE('',*,*,#480,.T.);
#747=ORIENTED_EDGE('',*,*,#493,.T.);
#748=ORIENTED_EDGE('',*,*,#550,.T.);
#749=ORIENTED_EDGE('',*,*,#541,.F.);
#750=ORIENTED_EDGE('',*,*,#546,.F.);
#751=ORIENTED_EDGE('',*,*,#467,.F.);
#752=ORIENTED_EDGE('',*,*,#551,.F.);
#753=ORIENTED_EDGE('',*,*,#489,.F.);
#754=ORIENTED_EDGE('',*,*,#551,.T.);
#755=ORIENTED_EDGE('',*,*,#466,.T.);
#756=ORIENTED_EDGE('',*,*,#552,.F.);
#757=ORIENTED_EDGE('',*,*,#553,.T.);
#758=ORIENTED_EDGE('',*,*,#554,.F.);
#759=ORIENTED_EDGE('',*,*,#490,.T.);
#760=ORIENTED_EDGE('',*,*,#555,.T.);
#761=ORIENTED_EDGE('',*,*,#556,.F.);
#762=ORIENTED_EDGE('',*,*,#557,.T.);
#763=ORIENTED_EDGE('',*,*,#558,.T.);
#764=ORIENTED_EDGE('',*,*,#557,.F.);
#765=ORIENTED_EDGE('',*,*,#558,.F.);
#766=ORIENTED_EDGE('',*,*,#559,.T.);
#767=ORIENTED_EDGE('',*,*,#530,.T.);
#768=ORIENTED_EDGE('',*,*,#559,.F.);
#769=ORIENTED_EDGE('',*,*,#560,.F.);
#770=ORIENTED_EDGE('',*,*,#561,.T.);
#771=ORIENTED_EDGE('',*,*,#562,.T.);
#772=ORIENTED_EDGE('',*,*,#561,.F.);
#773=ORIENTED_EDGE('',*,*,#562,.F.);
#774=ORIENTED_EDGE('',*,*,#563,.T.);
#775=ORIENTED_EDGE('',*,*,#529,.T.);
#776=ORIENTED_EDGE('',*,*,#563,.F.);
#777=ORIENTED_EDGE('',*,*,#564,.F.);
#778=ORIENTED_EDGE('',*,*,#565,.T.);
#779=ORIENTED_EDGE('',*,*,#566,.T.);
#780=ORIENTED_EDGE('',*,*,#565,.F.);
#781=ORIENTED_EDGE('',*,*,#566,.F.);
#782=ORIENTED_EDGE('',*,*,#567,.T.);
#783=ORIENTED_EDGE('',*,*,#555,.F.);
#784=ORIENTED_EDGE('',*,*,#567,.F.);
#785=ORIENTED_EDGE('',*,*,#568,.T.);
#786=ORIENTED_EDGE('',*,*,#569,.F.);
#787=ORIENTED_EDGE('',*,*,#553,.F.);
#788=ORIENTED_EDGE('',*,*,#570,.T.);
#789=ORIENTED_EDGE('',*,*,#571,.T.);
#790=ORIENTED_EDGE('',*,*,#491,.F.);
#791=ORIENTED_EDGE('',*,*,#554,.T.);
#792=ORIENTED_EDGE('',*,*,#569,.T.);
#793=ORIENTED_EDGE('',*,*,#524,.T.);
#794=ORIENTED_EDGE('',*,*,#533,.T.);
#795=ORIENTED_EDGE('',*,*,#572,.T.);
#796=ORIENTED_EDGE('',*,*,#573,.F.);
#797=ORIENTED_EDGE('',*,*,#525,.T.);
#798=ORIENTED_EDGE('',*,*,#573,.T.);
#799=ORIENTED_EDGE('',*,*,#574,.T.);
#800=ORIENTED_EDGE('',*,*,#575,.F.);
#801=ORIENTED_EDGE('',*,*,#526,.T.);
#802=ORIENTED_EDGE('',*,*,#575,.T.);
#803=ORIENTED_EDGE('',*,*,#576,.T.);
#804=ORIENTED_EDGE('',*,*,#577,.F.);
#805=ORIENTED_EDGE('',*,*,#527,.T.);
#806=ORIENTED_EDGE('',*,*,#577,.T.);
#807=ORIENTED_EDGE('',*,*,#578,.T.);
#808=ORIENTED_EDGE('',*,*,#579,.F.);
#809=ORIENTED_EDGE('',*,*,#528,.T.);
#810=ORIENTED_EDGE('',*,*,#579,.T.);
#811=ORIENTED_EDGE('',*,*,#580,.T.);
#812=ORIENTED_EDGE('',*,*,#463,.F.);
#813=ORIENTED_EDGE('',*,*,#581,.T.);
#814=ORIENTED_EDGE('',*,*,#570,.F.);
#815=ORIENTED_EDGE('',*,*,#552,.T.);
#816=ORIENTED_EDGE('',*,*,#465,.T.);
#817=ORIENTED_EDGE('',*,*,#532,.F.);
#818=ORIENTED_EDGE('',*,*,#535,.F.);
#819=ORIENTED_EDGE('',*,*,#537,.F.);
#820=ORIENTED_EDGE('',*,*,#539,.F.);
#821=ORIENTED_EDGE('',*,*,#542,.F.);
#822=ORIENTED_EDGE('',*,*,#550,.F.);
#823=ORIENTED_EDGE('',*,*,#492,.F.);
#824=ORIENTED_EDGE('',*,*,#571,.F.);
#825=ORIENTED_EDGE('',*,*,#568,.F.);
#826=ORIENTED_EDGE('',*,*,#581,.F.);
#827=ORIENTED_EDGE('',*,*,#464,.F.);
#828=ORIENTED_EDGE('',*,*,#580,.F.);
#829=ORIENTED_EDGE('',*,*,#578,.F.);
#830=ORIENTED_EDGE('',*,*,#576,.F.);
#831=ORIENTED_EDGE('',*,*,#574,.F.);
#832=ORIENTED_EDGE('',*,*,#572,.F.);
#833=ORIENTED_EDGE('',*,*,#496,.T.);
#834=ORIENTED_EDGE('',*,*,#517,.T.);
#835=ORIENTED_EDGE('',*,*,#514,.T.);
#836=ORIENTED_EDGE('',*,*,#511,.T.);
#837=ORIENTED_EDGE('',*,*,#508,.T.);
#838=ORIENTED_EDGE('',*,*,#505,.T.);
#839=ORIENTED_EDGE('',*,*,#502,.T.);
#840=ORIENTED_EDGE('',*,*,#499,.T.);
#841=ORIENTED_EDGE('',*,*,#556,.T.);
#842=ORIENTED_EDGE('',*,*,#560,.T.);
#843=ORIENTED_EDGE('',*,*,#564,.T.);
#844=CYLINDRICAL_SURFACE('',#927,2.);
#845=CYLINDRICAL_SURFACE('',#937,2.);
#846=CYLINDRICAL_SURFACE('',#949,2.25);
#847=CYLINDRICAL_SURFACE('',#953,2.25);
#848=CYLINDRICAL_SURFACE('',#957,2.25);
#849=CYLINDRICAL_SURFACE('',#961,2.25);
#850=CYLINDRICAL_SURFACE('',#974,2.);
#851=CYLINDRICAL_SURFACE('',#977,2.);
#852=CYLINDRICAL_SURFACE('',#980,11.4999999999949);
#853=CYLINDRICAL_SURFACE('',#981,0.8);
#854=CYLINDRICAL_SURFACE('',#982,0.8);
#855=CYLINDRICAL_SURFACE('',#983,0.8);
#856=CYLINDRICAL_SURFACE('',#984,0.8);
#857=CYLINDRICAL_SURFACE('',#988,3.);
#858=CYLINDRICAL_SURFACE('',#998,1.1);
#859=CYLINDRICAL_SURFACE('',#1002,1.1);
#860=CYLINDRICAL_SURFACE('',#1006,1.1);
#861=CYLINDRICAL_SURFACE('',#1008,2.);
#862=CYLINDRICAL_SURFACE('',#1010,3.);
#863=CYLINDRICAL_SURFACE('',#1013,2.);
#864=CYLINDRICAL_SURFACE('',#1016,2.);
#865=CYLINDRICAL_SURFACE('',#1018,2.);
#866=ADVANCED_FACE('',(#48),#844,.T.);
#867=ADVANCED_FACE('',(#49),#26,.T.);
#868=ADVANCED_FACE('',(#50),#27,.T.);
#869=ADVANCED_FACE('',(#51),#845,.T.);
#870=ADVANCED_FACE('',(#52),#28,.T.);
#871=ADVANCED_FACE('',(#53),#29,.F.);
#872=ADVANCED_FACE('',(#54),#30,.T.);
#873=ADVANCED_FACE('',(#55),#31,.F.);
#874=ADVANCED_FACE('',(#56),#846,.F.);
#875=ADVANCED_FACE('',(#57),#32,.F.);
#876=ADVANCED_FACE('',(#58),#847,.F.);
#877=ADVANCED_FACE('',(#59),#33,.F.);
#878=ADVANCED_FACE('',(#60),#848,.F.);
#879=ADVANCED_FACE('',(#61),#34,.F.);
#880=ADVANCED_FACE('',(#62),#849,.F.);
#881=ADVANCED_FACE('',(#63,#18,#19,#20),#35,.T.);
#882=ADVANCED_FACE('',(#64),#36,.T.);
#883=ADVANCED_FACE('',(#65),#850,.T.);
#884=ADVANCED_FACE('',(#66),#37,.T.);
#885=ADVANCED_FACE('',(#67),#851,.T.);
#886=ADVANCED_FACE('',(#68),#38,.T.);
#887=ADVANCED_FACE('',(#69),#852,.T.);
#888=ADVANCED_FACE('',(#70),#853,.F.);
#889=ADVANCED_FACE('',(#71),#854,.F.);
#890=ADVANCED_FACE('',(#72),#855,.F.);
#891=ADVANCED_FACE('',(#73),#856,.F.);
#892=ADVANCED_FACE('',(#74),#39,.F.);
#893=ADVANCED_FACE('',(#75),#40,.F.);
#894=ADVANCED_FACE('',(#76),#41,.F.);
#895=ADVANCED_FACE('',(#77),#857,.F.);
#896=ADVANCED_FACE('',(#78),#42,.F.);
#897=ADVANCED_FACE('',(#79,#21),#43,.T.);
#898=ADVANCED_FACE('',(#80),#15,.F.);
#899=ADVANCED_FACE('',(#81),#858,.F.);
#900=ADVANCED_FACE('',(#82),#16,.F.);
#901=ADVANCED_FACE('',(#83),#859,.F.);
#902=ADVANCED_FACE('',(#84),#17,.F.);
#903=ADVANCED_FACE('',(#85),#860,.F.);
#904=ADVANCED_FACE('',(#86),#44,.T.);
#905=ADVANCED_FACE('',(#87),#861,.T.);
#906=ADVANCED_FACE('',(#88),#862,.F.);
#907=ADVANCED_FACE('',(#89),#45,.T.);
#908=ADVANCED_FACE('',(#90),#863,.T.);
#909=ADVANCED_FACE('',(#91),#46,.T.);
#910=ADVANCED_FACE('',(#92),#864,.T.);
#911=ADVANCED_FACE('',(#93),#865,.T.);
#912=ADVANCED_FACE('',(#94,#22,#23,#24,#25),#47,.T.);
#913=CLOSED_SHELL('',(#866,#867,#868,#869,#870,#871,#872,#873,#874,#875,
#876,#877,#878,#879,#880,#881,#882,#883,#884,#885,#886,#887,#888,#889,#890,
#891,#892,#893,#894,#895,#896,#897,#898,#899,#900,#901,#902,#903,#904,#905,
#906,#907,#908,#909,#910,#911,#912));
#914=DERIVED_UNIT_ELEMENT(#916,1.);
#915=DERIVED_UNIT_ELEMENT(#1565,-3.);
#916=(
MASS_UNIT()
NAMED_UNIT(*)
SI_UNIT(.KILO.,.GRAM.)
);
#917=DERIVED_UNIT((#914,#915));
#918=MEASURE_REPRESENTATION_ITEM('density measure',
POSITIVE_RATIO_MEASURE(7850.),#917);
#919=PROPERTY_DEFINITION_REPRESENTATION(#924,#921);
#920=PROPERTY_DEFINITION_REPRESENTATION(#925,#922);
#921=REPRESENTATION('material name',(#923),#1562);
#922=REPRESENTATION('density',(#918),#1562);
#923=DESCRIPTIVE_REPRESENTATION_ITEM('Steel','Steel');
#924=PROPERTY_DEFINITION('material property','material name',#1572);
#925=PROPERTY_DEFINITION('material property','density of part',#1572);
#926=AXIS2_PLACEMENT_3D('',#1295,#1021,#1022);
#927=AXIS2_PLACEMENT_3D('',#1296,#1023,#1024);
#928=AXIS2_PLACEMENT_3D('',#1299,#1025,#1026);
#929=AXIS2_PLACEMENT_3D('',#1303,#1028,#1029);
#930=AXIS2_PLACEMENT_3D('',#1305,#1031,#1032);
#931=AXIS2_PLACEMENT_3D('',#1313,#1036,#1037);
#932=AXIS2_PLACEMENT_3D('',#1315,#1039,#1040);
#933=AXIS2_PLACEMENT_3D('',#1333,#1049,#1050);
#934=AXIS2_PLACEMENT_3D('',#1337,#1052,#1053);
#935=AXIS2_PLACEMENT_3D('',#1341,#1055,#1056);
#936=AXIS2_PLACEMENT_3D('',#1344,#1058,#1059);
#937=AXIS2_PLACEMENT_3D('',#1345,#1060,#1061);
#938=AXIS2_PLACEMENT_3D('',#1349,#1063,#1064);
#939=AXIS2_PLACEMENT_3D('',#1351,#1066,#1067);
#940=AXIS2_PLACEMENT_3D('',#1353,#1069,#1070);
#941=AXIS2_PLACEMENT_3D('',#1357,#1072,#1073);
#942=AXIS2_PLACEMENT_3D('',#1358,#1074,#1075);
#943=AXIS2_PLACEMENT_3D('',#1359,#1076,#1077);
#944=AXIS2_PLACEMENT_3D('',#1361,#1078,#1079);
#945=AXIS2_PLACEMENT_3D('',#1365,#1081,#1082);
#946=AXIS2_PLACEMENT_3D('',#1369,#1084,#1085);
#947=AXIS2_PLACEMENT_3D('',#1373,#1087,#1088);
#948=AXIS2_PLACEMENT_3D('',#1383,#1094,#1095);
#949=AXIS2_PLACEMENT_3D('',#1392,#1100,#1101);
#950=AXIS2_PLACEMENT_3D('',#1394,#1102,#1103);
#951=AXIS2_PLACEMENT_3D('',#1396,#1104,#1105);
#952=AXIS2_PLACEMENT_3D('',#1398,#1107,#1108);
#953=AXIS2_PLACEMENT_3D('',#1404,#1112,#1113);
#954=AXIS2_PLACEMENT_3D('',#1406,#1114,#1115);
#955=AXIS2_PLACEMENT_3D('',#1408,#1116,#1117);
#956=AXIS2_PLACEMENT_3D('',#1410,#1119,#1120);
#957=AXIS2_PLACEMENT_3D('',#1416,#1124,#1125);
#958=AXIS2_PLACEMENT_3D('',#1418,#1126,#1127);
#959=AXIS2_PLACEMENT_3D('',#1420,#1128,#1129);
#960=AXIS2_PLACEMENT_3D('',#1422,#1131,#1132);
#961=AXIS2_PLACEMENT_3D('',#1428,#1136,#1137);
#962=AXIS2_PLACEMENT_3D('',#1429,#1138,#1139);
#963=AXIS2_PLACEMENT_3D('',#1430,#1140,#1141);
#964=AXIS2_PLACEMENT_3D('',#1431,#1142,#1143);
#965=AXIS2_PLACEMENT_3D('',#1433,#1144,#1145);
#966=AXIS2_PLACEMENT_3D('',#1437,#1147,#1148);
#967=AXIS2_PLACEMENT_3D('',#1441,#1150,#1151);
#968=AXIS2_PLACEMENT_3D('',#1445,#1153,#1154);
#969=AXIS2_PLACEMENT_3D('',#1449,#1156,#1157);
#970=AXIS2_PLACEMENT_3D('',#1452,#1159,#1160);
#971=AXIS2_PLACEMENT_3D('',#1454,#1161,#1162);
#972=AXIS2_PLACEMENT_3D('',#1456,#1163,#1164);
#973=AXIS2_PLACEMENT_3D('',#1457,#1165,#1166);
#974=AXIS2_PLACEMENT_3D('',#1463,#1170,#1171);
#975=AXIS2_PLACEMENT_3D('',#1466,#1173,#1174);
#976=AXIS2_PLACEMENT_3D('',#1467,#1175,#1176);
#977=AXIS2_PLACEMENT_3D('',#1471,#1179,#1180);
#978=AXIS2_PLACEMENT_3D('',#1474,#1182,#1183);
#979=AXIS2_PLACEMENT_3D('',#1475,#1184,#1185);
#980=AXIS2_PLACEMENT_3D('',#1480,#1189,#1190);
#981=AXIS2_PLACEMENT_3D('',#1481,#1191,#1192);
#982=AXIS2_PLACEMENT_3D('',#1484,#1195,#1196);
#983=AXIS2_PLACEMENT_3D('',#1487,#1199,#1200);
#984=AXIS2_PLACEMENT_3D('',#1490,#1203,#1204);
#985=AXIS2_PLACEMENT_3D('',#1492,#1206,#1207);
#986=AXIS2_PLACEMENT_3D('',#1493,#1208,#1209);
#987=AXIS2_PLACEMENT_3D('',#1494,#1210,#1211);
#988=AXIS2_PLACEMENT_3D('',#1495,#1212,#1213);
#989=AXIS2_PLACEMENT_3D('',#1496,#1214,#1215);
#990=AXIS2_PLACEMENT_3D('',#1497,#1216,#1217);
#991=AXIS2_PLACEMENT_3D('',#1499,#1219,#1220);
#992=AXIS2_PLACEMENT_3D('',#1501,#1221,#1222);
#993=AXIS2_PLACEMENT_3D('',#1504,#1224,#1225);
#994=AXIS2_PLACEMENT_3D('',#1506,#1226,#1227);
#995=AXIS2_PLACEMENT_3D('',#1507,#1228,#1229);
#996=AXIS2_PLACEMENT_3D('',#1509,#1230,#1231);
#997=AXIS2_PLACEMENT_3D('',#1512,#1233,#1234);
#998=AXIS2_PLACEMENT_3D('',#1513,#1235,#1236);
#999=AXIS2_PLACEMENT_3D('',#1515,#1238,#1239);
#1000=AXIS2_PLACEMENT_3D('',#1517,#1240,#1241);
#1001=AXIS2_PLACEMENT_3D('',#1520,#1243,#1244);
#1002=AXIS2_PLACEMENT_3D('',#1521,#1245,#1246);
#1003=AXIS2_PLACEMENT_3D('',#1523,#1248,#1249);
#1004=AXIS2_PLACEMENT_3D('',#1525,#1250,#1251);
#1005=AXIS2_PLACEMENT_3D('',#1528,#1253,#1254);
#1006=AXIS2_PLACEMENT_3D('',#1529,#1255,#1256);
#1007=AXIS2_PLACEMENT_3D('',#1531,#1258,#1259);
#1008=AXIS2_PLACEMENT_3D('',#1537,#1263,#1264);
#1009=AXIS2_PLACEMENT_3D('',#1538,#1265,#1266);
#1010=AXIS2_PLACEMENT_3D('',#1539,#1267,#1268);
#1011=AXIS2_PLACEMENT_3D('',#1541,#1269,#1270);
#1012=AXIS2_PLACEMENT_3D('',#1543,#1272,#1273);
#1013=AXIS2_PLACEMENT_3D('',#1547,#1276,#1277);
#1014=AXIS2_PLACEMENT_3D('',#1549,#1278,#1279);
#1015=AXIS2_PLACEMENT_3D('',#1551,#1281,#1282);
#1016=AXIS2_PLACEMENT_3D('',#1555,#1285,#1286);
#1017=AXIS2_PLACEMENT_3D('',#1556,#1287,#1288);
#1018=AXIS2_PLACEMENT_3D('',#1557,#1289,#1290);
#1019=AXIS2_PLACEMENT_3D('',#1558,#1291,#1292);
#1020=AXIS2_PLACEMENT_3D('',#1559,#1293,#1294);
#1021=DIRECTION('axis',(0.,0.,1.));
#1022=DIRECTION('refdir',(1.,0.,0.));
#1023=DIRECTION('center_axis',(0.,0.,-1.));
#1024=DIRECTION('ref_axis',(-0.707106781186548,-0.707106781186547,0.));
#1025=DIRECTION('center_axis',(0.,0.,1.));
#1026=DIRECTION('ref_axis',(-0.707106781186548,-0.707106781186547,0.));
#1027=DIRECTION('',(0.,0.,1.));
#1028=DIRECTION('center_axis',(0.,0.,1.));
#1029=DIRECTION('ref_axis',(-0.707106781186548,-0.707106781186547,0.));
#1030=DIRECTION('',(0.,0.,-1.));
#1031=DIRECTION('center_axis',(0.,0.,-1.));
#1032=DIRECTION('ref_axis',(-1.,0.,0.));
#1033=DIRECTION('',(-4.62592926927149E-17,1.,0.));
#1034=DIRECTION('',(-1.,5.2245789394125E-16,0.));
#1035=DIRECTION('',(8.06178544852292E-17,1.,0.));
#1036=DIRECTION('center_axis',(0.,0.,1.));
#1037=DIRECTION('ref_axis',(0.707106781186548,-0.707106781186547,0.));
#1038=DIRECTION('',(1.,0.,0.));
#1039=DIRECTION('center_axis',(-1.,-4.62592926927149E-17,0.));
#1040=DIRECTION('ref_axis',(4.62592926927149E-17,-1.,0.));
#1041=DIRECTION('',(4.62592926927149E-17,-1.,0.));
#1042=DIRECTION('',(0.,0.,-1.));
#1043=DIRECTION('',(-4.62592926927149E-17,1.,0.));
#1044=DIRECTION('',(0.,0.,1.));
#1045=DIRECTION('',(-4.62592926927149E-17,1.,0.));
#1046=DIRECTION('',(0.,0.,1.));
#1047=DIRECTION('',(-4.62592926927149E-17,1.,0.));
#1048=DIRECTION('',(0.,0.,1.));
#1049=DIRECTION('center_axis',(-1.,-4.62592926927149E-17,0.));
#1050=DIRECTION('ref_axis',(0.,0.707106781186548,0.707106781186547));
#1051=DIRECTION('',(4.62592926927149E-17,-1.,0.));
#1052=DIRECTION('center_axis',(-1.,-4.62592926927149E-17,0.));
#1053=DIRECTION('ref_axis',(0.,0.707106781186546,0.707106781186549));
#1054=DIRECTION('',(4.62592926927149E-17,-1.,0.));
#1055=DIRECTION('center_axis',(-1.,-4.62592926927149E-17,0.));
#1056=DIRECTION('ref_axis',(0.,-0.707106781186548,0.707106781186547));
#1057=DIRECTION('',(4.62592926927149E-17,-1.,0.));
#1058=DIRECTION('center_axis',(-1.,-4.62592926927149E-17,0.));
#1059=DIRECTION('ref_axis',(0.,0.707106781186548,0.707106781186547));
#1060=DIRECTION('center_axis',(0.,0.,-1.));
#1061=DIRECTION('ref_axis',(0.707106781186548,-0.707106781186547,0.));
#1062=DIRECTION('',(0.,0.,1.));
#1063=DIRECTION('center_axis',(0.,0.,1.));
#1064=DIRECTION('ref_axis',(0.707106781186548,-0.707106781186547,0.));
#1065=DIRECTION('',(0.,0.,-1.));
#1066=DIRECTION('center_axis',(0.,-1.,0.));
#1067=DIRECTION('ref_axis',(-1.,0.,0.));
#1068=DIRECTION('',(-1.,0.,0.));
#1069=DIRECTION('center_axis',(0.,0.,1.));
#1070=DIRECTION('ref_axis',(1.,0.,0.));
#1071=DIRECTION('',(-8.06178544852292E-17,-1.,0.));
#1072=DIRECTION('center_axis',(0.,0.,-1.));
#1073=DIRECTION('ref_axis',(-0.707106781186547,-0.707106781186548,0.));
#1074=DIRECTION('center_axis',(0.,0.,-1.));
#1075=DIRECTION('ref_axis',(-8.81310754037307E-7,0.999999999999612,0.));
#1076=DIRECTION('center_axis',(1.,-8.06178544852292E-17,0.));
#1077=DIRECTION('ref_axis',(8.06178544852292E-17,1.,0.));
#1078=DIRECTION('center_axis',(1.,-8.06178544852292E-17,0.));
#1079=DIRECTION('ref_axis',(0.,0.707106781186548,0.707106781186547));
#1080=DIRECTION('',(8.06178544852292E-17,1.,0.));
#1081=DIRECTION('center_axis',(1.,-8.06178544852292E-17,0.));
#1082=DIRECTION('ref_axis',(0.,-0.707106781186548,0.707106781186547));
#1083=DIRECTION('',(8.06178544852292E-17,1.,0.));
#1084=DIRECTION('center_axis',(1.,-8.06178544852292E-17,0.));
#1085=DIRECTION('ref_axis',(0.,0.707106781186546,0.707106781186549));
#1086=DIRECTION('',(8.06178544852292E-17,1.,0.));
#1087=DIRECTION('center_axis',(1.,-8.06178544852292E-17,0.));
#1088=DIRECTION('ref_axis',(0.,0.707106781186548,0.707106781186547));
#1089=DIRECTION('',(0.,0.,-1.));
#1090=DIRECTION('',(-8.06178544852292E-17,-1.,0.));
#1091=DIRECTION('',(0.,0.,1.));
#1092=DIRECTION('',(-8.06178544852292E-17,-1.,0.));
#1093=DIRECTION('',(0.,0.,1.));
#1094=DIRECTION('center_axis',(-0.707106781186547,-0.707106781186548,0.));
#1095=DIRECTION('ref_axis',(-0.707106781186548,0.707106781186547,0.));
#1096=DIRECTION('',(0.707106781186548,-0.707106781186547,0.));
#1097=DIRECTION('',(0.,0.,-1.));
#1098=DIRECTION('',(-0.707106781186548,0.707106781186547,0.));
#1099=DIRECTION('',(0.,0.,-1.));
#1100=DIRECTION('center_axis',(0.,0.,-1.));
#1101=DIRECTION('ref_axis',(-0.707106781186545,-0.70710678118655,0.));
#1102=DIRECTION('center_axis',(0.,0.,1.));
#1103=DIRECTION('ref_axis',(-0.707106781186545,-0.70710678118655,0.));
#1104=DIRECTION('center_axis',(0.,0.,-1.));
#1105=DIRECTION('ref_axis',(-0.707106781186545,-0.70710678118655,0.));
#1106=DIRECTION('',(0.,0.,-1.));
#1107=DIRECTION('center_axis',(-2.18547839493141E-16,-1.,0.));
#1108=DIRECTION('ref_axis',(-1.,2.18547839493141E-16,0.));
#1109=DIRECTION('',(1.,-2.18547839493141E-16,0.));
#1110=DIRECTION('',(-1.,2.18547839493141E-16,0.));
#1111=DIRECTION('',(0.,0.,-1.));
#1112=DIRECTION('center_axis',(0.,0.,-1.));
#1113=DIRECTION('ref_axis',(0.,-1.,0.));
#1114=DIRECTION('center_axis',(0.,0.,1.));
#1115=DIRECTION('ref_axis',(0.,-1.,0.));
#1116=DIRECTION('center_axis',(0.,0.,-1.));
#1117=DIRECTION('ref_axis',(0.,-1.,0.));
#1118=DIRECTION('',(0.,0.,-1.));
#1119=DIRECTION('center_axis',(0.707106781186548,0.707106781186547,0.));
#1120=DIRECTION('ref_axis',(0.707106781186547,-0.707106781186548,0.));
#1121=DIRECTION('',(-0.707106781186547,0.707106781186548,0.));
#1122=DIRECTION('',(0.707106781186547,-0.707106781186548,0.));
#1123=DIRECTION('',(0.,0.,-1.));
#1124=DIRECTION('center_axis',(0.,0.,-1.));
#1125=DIRECTION('ref_axis',(0.707106781186545,0.70710678118655,0.));
#1126=DIRECTION('center_axis',(0.,0.,1.));
#1127=DIRECTION('ref_axis',(0.707106781186545,0.70710678118655,0.));
#1128=DIRECTION('center_axis',(0.,0.,-1.));
#1129=DIRECTION('ref_axis',(0.707106781186545,0.70710678118655,0.));
#1130=DIRECTION('',(0.,0.,-1.));
#1131=DIRECTION('center_axis',(7.64917438225993E-16,1.,0.));
#1132=DIRECTION('ref_axis',(1.,-7.64917438225993E-16,0.));
#1133=DIRECTION('',(-1.,7.64917438225993E-16,0.));
#1134=DIRECTION('',(1.,-7.64917438225993E-16,0.));
#1135=DIRECTION('',(0.,0.,-1.));
#1136=DIRECTION('center_axis',(0.,0.,-1.));
#1137=DIRECTION('ref_axis',(0.,1.,0.));
#1138=DIRECTION('center_axis',(0.,0.,1.));
#1139=DIRECTION('ref_axis',(0.,1.,0.));
#1140=DIRECTION('center_axis',(0.,0.,-1.));
#1141=DIRECTION('ref_axis',(0.,1.,0.));
#1142=DIRECTION('center_axis',(0.,0.,-1.));
#1143=DIRECTION('ref_axis',(-1.,0.,0.));
#1144=DIRECTION('center_axis',(0.,0.,1.));
#1145=DIRECTION('ref_axis',(-8.81310754037307E-7,0.999999999999612,0.));
#1146=DIRECTION('',(1.,0.,0.));
#1147=DIRECTION('center_axis',(0.,0.,-1.));
#1148=DIRECTION('ref_axis',(0.707106781186548,0.707106781186547,0.));
#1149=DIRECTION('',(0.,-1.,0.));
#1150=DIRECTION('center_axis',(0.,0.,-1.));
#1151=DIRECTION('ref_axis',(0.707106781186548,-0.707106781186547,0.));
#1152=DIRECTION('',(-1.,0.,0.));
#1153=DIRECTION('center_axis',(0.,0.,1.));
#1154=DIRECTION('ref_axis',(-0.707106781186548,0.707106781186548,0.));
#1155=DIRECTION('',(-8.06178544852292E-17,-1.,0.));
#1156=DIRECTION('center_axis',(0.,0.,-1.));
#1157=DIRECTION('ref_axis',(0.707106781186548,-0.707106781186547,0.));
#1158=DIRECTION('',(-1.,-1.04491578788251E-15,0.));
#1159=DIRECTION('center_axis',(0.,0.,-1.));
#1160=DIRECTION('ref_axis',(-0.707106781186547,-0.707106781186548,0.));
#1161=DIRECTION('center_axis',(0.,0.,-1.));
#1162=DIRECTION('ref_axis',(1.,0.,0.));
#1163=DIRECTION('center_axis',(0.,0.,-1.));
#1164=DIRECTION('ref_axis',(1.,0.,0.));
#1165=DIRECTION('center_axis',(0.,-1.,0.));
#1166=DIRECTION('ref_axis',(1.,0.,0.));
#1167=DIRECTION('',(0.,0.,1.));
#1168=DIRECTION('',(-1.,0.,0.));
#1169=DIRECTION('',(0.,0.,1.));
#1170=DIRECTION('center_axis',(0.,0.,1.));
#1171=DIRECTION('ref_axis',(0.707106781186548,-0.707106781186547,0.));
#1172=DIRECTION('',(0.,0.,1.));
#1173=DIRECTION('center_axis',(0.,0.,-1.));
#1174=DIRECTION('ref_axis',(0.707106781186548,-0.707106781186547,0.));
#1175=DIRECTION('center_axis',(1.,0.,0.));
#1176=DIRECTION('ref_axis',(0.,1.,0.));
#1177=DIRECTION('',(0.,0.,1.));
#1178=DIRECTION('',(0.,-1.,0.));
#1179=DIRECTION('center_axis',(0.,0.,1.));
#1180=DIRECTION('ref_axis',(0.707106781186548,0.707106781186547,0.));
#1181=DIRECTION('',(0.,0.,1.));
#1182=DIRECTION('center_axis',(0.,0.,-1.));
#1183=DIRECTION('ref_axis',(0.707106781186548,0.707106781186547,0.));
#1184=DIRECTION('center_axis',(0.,1.,0.));
#1185=DIRECTION('ref_axis',(-1.,0.,0.));
#1186=DIRECTION('',(0.,0.,1.));
#1187=DIRECTION('',(0.,0.,1.));
#1188=DIRECTION('',(1.,0.,0.));
#1189=DIRECTION('center_axis',(0.,0.,1.));
#1190=DIRECTION('ref_axis',(-8.81310754037307E-7,0.999999999999612,0.));
#1191=DIRECTION('center_axis',(-1.,-2.61228946970625E-16,0.));
#1192=DIRECTION('ref_axis',(0.,0.707106781186546,0.707106781186549));
#1193=DIRECTION('',(1.,2.61228946970625E-16,0.));
#1194=DIRECTION('',(-1.,-2.61228946970625E-16,0.));
#1195=DIRECTION('center_axis',(-1.,2.61228946970625E-16,0.));
#1196=DIRECTION('ref_axis',(0.,0.707106781186548,0.707106781186547));
#1197=DIRECTION('',(1.,-2.61228946970625E-16,0.));
#1198=DIRECTION('',(1.,-2.61228946970625E-16,0.));
#1199=DIRECTION('center_axis',(1.,2.61228946970625E-16,0.));
#1200=DIRECTION('ref_axis',(0.,-0.707106781186548,0.707106781186547));
#1201=DIRECTION('',(-1.,-2.61228946970625E-16,0.));
#1202=DIRECTION('',(1.,2.61228946970625E-16,0.));
#1203=DIRECTION('center_axis',(-1.,5.2245789394125E-16,0.));
#1204=DIRECTION('ref_axis',(0.,0.707106781186548,0.707106781186547));
#1205=DIRECTION('',(-1.,5.2245789394125E-16,0.));
#1206=DIRECTION('center_axis',(0.,0.,1.));
#1207=DIRECTION('ref_axis',(1.,0.,0.));
#1208=DIRECTION('center_axis',(0.,0.,1.));
#1209=DIRECTION('ref_axis',(1.,0.,0.));
#1210=DIRECTION('center_axis',(0.,0.,1.));
#1211=DIRECTION('ref_axis',(1.,0.,0.));
#1212=DIRECTION('center_axis',(0.,0.,1.));
#1213=DIRECTION('ref_axis',(-0.707106781186547,-0.707106781186548,0.));
#1214=DIRECTION('center_axis',(0.,0.,1.));
#1215=DIRECTION('ref_axis',(-0.707106781186547,-0.707106781186548,0.));
#1216=DIRECTION('center_axis',(2.61228946970625E-16,1.,0.));
#1217=DIRECTION('ref_axis',(-1.,2.61228946970625E-16,0.));
#1218=DIRECTION('',(1.,-2.61228946970625E-16,0.));
#1219=DIRECTION('center_axis',(0.,0.,-1.));
#1220=DIRECTION('ref_axis',(-1.,0.,0.));
#1221=DIRECTION('center_axis',(0.,0.,-1.));
#1222=DIRECTION('ref_axis',(-0.707106781186547,0.707106781186549,0.));
#1223=DIRECTION('',(1.,-2.089831575765E-15,0.));
#1224=DIRECTION('center_axis',(0.,0.,-1.));
#1225=DIRECTION('ref_axis',(0.707106781186548,0.707106781186547,0.));
#1226=DIRECTION('center_axis',(0.,0.,-1.));
#1227=DIRECTION('ref_axis',(1.,0.,0.));
#1228=DIRECTION('center_axis',(0.,0.,1.));
#1229=DIRECTION('ref_axis',(1.,0.,0.));
#1230=DIRECTION('center_axis',(0.,0.,-1.));
#1231=DIRECTION('ref_axis',(1.,0.,0.));
#1232=DIRECTION('',(0.707106781186548,-8.65956056235493E-17,-0.707106781186548));
#1233=DIRECTION('center_axis',(0.,0.,-1.));
#1234=DIRECTION('ref_axis',(1.,0.,0.));
#1235=DIRECTION('center_axis',(0.,0.,-1.));
#1236=DIRECTION('ref_axis',(1.,0.,0.));
#1237=DIRECTION('',(0.,0.,-1.));
#1238=DIRECTION('center_axis',(0.,0.,1.));
#1239=DIRECTION('ref_axis',(1.,0.,0.));
#1240=DIRECTION('center_axis',(0.,0.,-1.));
#1241=DIRECTION('ref_axis',(1.,0.,0.));
#1242=DIRECTION('',(0.707106781186548,-8.65956056235493E-17,-0.707106781186548));
#1243=DIRECTION('center_axis',(0.,0.,-1.));
#1244=DIRECTION('ref_axis',(1.,0.,0.));
#1245=DIRECTION('center_axis',(0.,0.,-1.));
#1246=DIRECTION('ref_axis',(1.,0.,0.));
#1247=DIRECTION('',(0.,0.,-1.));
#1248=DIRECTION('center_axis',(0.,0.,1.));
#1249=DIRECTION('ref_axis',(1.,0.,0.));
#1250=DIRECTION('center_axis',(0.,0.,-1.));
#1251=DIRECTION('ref_axis',(1.,0.,0.));
#1252=DIRECTION('',(0.707106781186548,-8.65956056235493E-17,-0.707106781186548));
#1253=DIRECTION('center_axis',(0.,0.,-1.));
#1254=DIRECTION('ref_axis',(1.,0.,0.));
#1255=DIRECTION('center_axis',(0.,0.,-1.));
#1256=DIRECTION('ref_axis',(1.,0.,0.));
#1257=DIRECTION('',(0.,0.,-1.));
#1258=DIRECTION('center_axis',(2.089831575765E-15,1.,0.));
#1259=DIRECTION('ref_axis',(-1.,2.089831575765E-15,0.));
#1260=DIRECTION('',(1.,-2.089831575765E-15,0.));
#1261=DIRECTION('',(0.,0.,1.));
#1262=DIRECTION('',(0.,0.,1.));
#1263=DIRECTION('center_axis',(0.,0.,1.));
#1264=DIRECTION('ref_axis',(0.707106781186548,0.707106781186547,0.));
#1265=DIRECTION('center_axis',(0.,0.,-1.));
#1266=DIRECTION('ref_axis',(0.707106781186548,0.707106781186547,0.));
#1267=DIRECTION('center_axis',(0.,0.,1.));
#1268=DIRECTION('ref_axis',(-0.707106781186548,0.707106781186548,0.));
#1269=DIRECTION('center_axis',(0.,0.,1.));
#1270=DIRECTION('ref_axis',(-0.707106781186548,0.707106781186548,0.));
#1271=DIRECTION('',(0.,0.,1.));
#1272=DIRECTION('center_axis',(1.,-8.06178544852292E-17,0.));
#1273=DIRECTION('ref_axis',(8.06178544852292E-17,1.,0.));
#1274=DIRECTION('',(-8.06178544852292E-17,-1.,0.));
#1275=DIRECTION('',(0.,0.,1.));
#1276=DIRECTION('center_axis',(0.,0.,1.));
#1277=DIRECTION('ref_axis',(0.707106781186548,-0.707106781186547,0.));
#1278=DIRECTION('center_axis',(0.,0.,-1.));
#1279=DIRECTION('ref_axis',(0.707106781186548,-0.707106781186547,0.));
#1280=DIRECTION('',(0.,0.,1.));
#1281=DIRECTION('center_axis',(1.04491578788251E-15,-1.,0.));
#1282=DIRECTION('ref_axis',(1.,1.04491578788251E-15,0.));
#1283=DIRECTION('',(-1.,-1.04491578788251E-15,0.));
#1284=DIRECTION('',(0.,0.,1.));
#1285=DIRECTION('center_axis',(0.,0.,1.));
#1286=DIRECTION('ref_axis',(-0.707106781186547,-0.707106781186548,0.));
#1287=DIRECTION('center_axis',(0.,0.,-1.));
#1288=DIRECTION('ref_axis',(-0.707106781186547,-0.707106781186548,0.));
#1289=DIRECTION('center_axis',(0.,0.,1.));
#1290=DIRECTION('ref_axis',(-0.707106781186547,0.707106781186549,0.));
#1291=DIRECTION('center_axis',(0.,0.,-1.));
#1292=DIRECTION('ref_axis',(-0.707106781186547,0.707106781186549,0.));
#1293=DIRECTION('center_axis',(0.,0.,1.));
#1294=DIRECTION('ref_axis',(1.,0.,0.));
#1295=CARTESIAN_POINT('',(0.,0.,0.));
#1296=CARTESIAN_POINT('Origin',(-2.25,9.05000000000001,3.095));
#1297=CARTESIAN_POINT('',(-4.25,9.05000000000001,3.895));
#1298=CARTESIAN_POINT('',(-2.25,7.05000000000001,3.895));
#1299=CARTESIAN_POINT('Origin',(-2.25,9.05000000000001,3.895));
#1300=CARTESIAN_POINT('',(-2.25,7.05000000000001,6.195));
#1301=CARTESIAN_POINT('',(-2.25,7.05000000000001,3.095));
#1302=CARTESIAN_POINT('',(-4.25,9.05000000000001,6.195));
#1303=CARTESIAN_POINT('Origin',(-2.25,9.05000000000001,6.195));
#1304=CARTESIAN_POINT('',(-4.25,9.05000000000001,3.095));
#1305=CARTESIAN_POINT('Origin',(9.925,-4.44089209850063E-15,3.895));
#1306=CARTESIAN_POINT('',(-4.25,10.4015640288664,3.895));
#1307=CARTESIAN_POINT('',(-4.25,11.05,3.895));
#1308=CARTESIAN_POINT('',(4.25,10.4015640288664,3.895));
#1309=CARTESIAN_POINT('',(7.0875,10.4015640288664,3.895));
#1310=CARTESIAN_POINT('',(4.25,9.05000000000001,3.895));
#1311=CARTESIAN_POINT('',(4.25,3.62499999999999,3.895));
#1312=CARTESIAN_POINT('',(2.25,7.05000000000001,3.895));
#1313=CARTESIAN_POINT('Origin',(2.25,9.05000000000001,3.895));
#1314=CARTESIAN_POINT('',(7.0875,7.05000000000001,3.895));
#1315=CARTESIAN_POINT('Origin',(-4.25,22.1,3.095));
#1316=CARTESIAN_POINT('',(-4.25,-7.25000000000001,6.195));
#1317=CARTESIAN_POINT('',(-4.25,11.350000347491,6.195));
#1318=CARTESIAN_POINT('',(-4.25,-7.25000000000001,4.945));
#1319=CARTESIAN_POINT('',(-4.25,-7.25000000000001,3.095));
#1320=CARTESIAN_POINT('',(-4.25,-22.1,4.945));
#1321=CARTESIAN_POINT('',(-4.25,11.05,4.945));
#1322=CARTESIAN_POINT('',(-4.25,-22.1,7.8));
#1323=CARTESIAN_POINT('',(-4.25,-22.1,3.095));
#1324=CARTESIAN_POINT('',(-4.25,22.1,7.8));
#1325=CARTESIAN_POINT('',(-4.25,11.05,7.8));
#1326=CARTESIAN_POINT('',(-4.25,22.1,3.195));
#1327=CARTESIAN_POINT('',(-4.25,22.1,3.095));
#1328=CARTESIAN_POINT('',(-4.25,18.,3.195));
#1329=CARTESIAN_POINT('',(-4.25,11.05,3.195));
#1330=CARTESIAN_POINT('',(-4.25,18.,3.845));
#1331=CARTESIAN_POINT('',(-4.25,18.,3.095));
#1332=CARTESIAN_POINT('',(-4.25,16.4015640288664,3.895));
#1333=CARTESIAN_POINT('Origin',(-4.25,17.2,3.845));
#1334=CARTESIAN_POINT('',(-4.25,15.9984359711336,3.895));
#1335=CARTESIAN_POINT('',(-4.25,11.05,3.895));
#1336=CARTESIAN_POINT('',(-4.25,14.4015640288664,3.895));
#1337=CARTESIAN_POINT('Origin',(-4.25,15.2,3.845));
#1338=CARTESIAN_POINT('',(-4.25,13.9984359711336,3.895));
#1339=CARTESIAN_POINT('',(-4.25,11.05,3.895));
#1340=CARTESIAN_POINT('',(-4.25,12.4015640288664,3.895));
#1341=CARTESIAN_POINT('Origin',(-4.25,13.2,3.845));
#1342=CARTESIAN_POINT('',(-4.25,11.9984359711336,3.895));
#1343=CARTESIAN_POINT('',(-4.25,11.05,3.895));
#1344=CARTESIAN_POINT('Origin',(-4.25000000000001,11.2,3.845));
#1345=CARTESIAN_POINT('Origin',(2.25,9.05000000000001,3.095));
#1346=CARTESIAN_POINT('',(4.25,9.05000000000001,6.195));
#1347=CARTESIAN_POINT('',(4.25,9.05000000000001,3.095));
#1348=CARTESIAN_POINT('',(2.25,7.05000000000001,6.195));
#1349=CARTESIAN_POINT('Origin',(2.25,9.05000000000001,6.195));
#1350=CARTESIAN_POINT('',(2.25,7.05000000000001,3.095));
#1351=CARTESIAN_POINT('Origin',(4.25,7.05000000000001,3.095));
#1352=CARTESIAN_POINT('',(2.87499746623158,7.05000000000001,6.195));
#1353=CARTESIAN_POINT('Origin',(1.49999493246317,0.600000694981941,6.195));
#1354=CARTESIAN_POINT('',(4.25,7.24999999999999,6.195));
#1355=CARTESIAN_POINT('',(4.25,3.92500034749097,6.195));
#1356=CARTESIAN_POINT('',(7.25,4.24999999999487,6.195));
#1357=CARTESIAN_POINT('Origin',(7.25,7.24999999999999,6.195));
#1358=CARTESIAN_POINT('Origin',(7.25,-7.25000000000001,6.195));
#1359=CARTESIAN_POINT('Origin',(4.25,7.24999999999999,3.095));
#1360=CARTESIAN_POINT('',(4.25,11.9984359711336,3.895));
#1361=CARTESIAN_POINT('Origin',(4.25,11.2,3.845));
#1362=CARTESIAN_POINT('',(4.25,12.4015640288664,3.895));
#1363=CARTESIAN_POINT('',(4.25,3.62499999999999,3.895));
#1364=CARTESIAN_POINT('',(4.25,13.9984359711336,3.895));
#1365=CARTESIAN_POINT('Origin',(4.25,13.2,3.845));
#1366=CARTESIAN_POINT('',(4.25,14.4015640288664,3.895));
#1367=CARTESIAN_POINT('',(4.25,3.62499999999999,3.895));
#1368=CARTESIAN_POINT('',(4.25,15.9984359711336,3.895));
#1369=CARTESIAN_POINT('Origin',(4.25,15.2,3.845));
#1370=CARTESIAN_POINT('',(4.25,16.4015640288664,3.895));
#1371=CARTESIAN_POINT('',(4.25,3.62499999999999,3.895));
#1372=CARTESIAN_POINT('',(4.25,18.,3.845));
#1373=CARTESIAN_POINT('Origin',(4.25,17.2,3.845));
#1374=CARTESIAN_POINT('',(4.25,18.,3.195));
#1375=CARTESIAN_POINT('',(4.25,18.,3.095));
#1376=CARTESIAN_POINT('',(4.25,22.1,3.195));
#1377=CARTESIAN_POINT('',(4.25,3.62499999999999,3.195));
#1378=CARTESIAN_POINT('',(4.25,22.1,7.8));
#1379=CARTESIAN_POINT('',(4.25,22.1,3.095));
#1380=CARTESIAN_POINT('',(4.25,7.24999999999999,7.8));
#1381=CARTESIAN_POINT('',(4.25,3.625,7.8));
#1382=CARTESIAN_POINT('',(4.25,7.24999999999999,3.095));
#1383=CARTESIAN_POINT('Origin',(7.94900974233027,-2.86099025766974,7.8));
#1384=CARTESIAN_POINT('',(5.40900974233027,-0.320990257669735,4.945));
#1385=CARTESIAN_POINT('',(7.94900974233027,-2.86099025766974,4.945));
#1386=CARTESIAN_POINT('',(7.72775974233027,-2.63974025766974,4.945));
#1387=CARTESIAN_POINT('',(5.40900974233027,-0.320990257669735,7.8));
#1388=CARTESIAN_POINT('',(5.40900974233027,-0.320990257669735,7.8));
#1389=CARTESIAN_POINT('',(7.94900974233027,-2.86099025766974,7.8));
#1390=CARTESIAN_POINT('',(7.72775974233027,-2.63974025766974,7.8));
#1391=CARTESIAN_POINT('',(7.94900974233027,-2.86099025766974,7.8));
#1392=CARTESIAN_POINT('Origin',(9.54,-1.27,7.8));
#1393=CARTESIAN_POINT('',(9.54,-3.52,4.945));
#1394=CARTESIAN_POINT('Origin',(9.54,-1.27,4.945));
#1395=CARTESIAN_POINT('',(9.54,-3.52,7.8));
#1396=CARTESIAN_POINT('Origin',(9.54,-1.27,7.8));
#1397=CARTESIAN_POINT('',(9.54,-3.52,7.8));
#1398=CARTESIAN_POINT('Origin',(14.62,-3.52,7.8));
#1399=CARTESIAN_POINT('',(14.62,-3.52,4.945));
#1400=CARTESIAN_POINT('',(12.2725,-3.52,4.945));
#1401=CARTESIAN_POINT('',(14.62,-3.52,7.8));
#1402=CARTESIAN_POINT('',(12.2725,-3.52,7.8));
#1403=CARTESIAN_POINT('',(14.62,-3.52,7.8));
#1404=CARTESIAN_POINT('Origin',(14.62,-1.27,7.8));
#1405=CARTESIAN_POINT('',(16.2109902576697,0.320990257669729,4.945));
#1406=CARTESIAN_POINT('Origin',(14.62,-1.27,4.945));
#1407=CARTESIAN_POINT('',(16.2109902576697,0.320990257669729,7.8));
#1408=CARTESIAN_POINT('Origin',(14.62,-1.27,7.8));
#1409=CARTESIAN_POINT('',(16.2109902576697,0.320990257669729,7.8));
#1410=CARTESIAN_POINT('Origin',(13.6709902576697,2.86099025766973,7.8));
#1411=CARTESIAN_POINT('',(13.6709902576697,2.86099025766974,4.945));
#1412=CARTESIAN_POINT('',(13.4497402576697,3.08224025766973,4.945));
#1413=CARTESIAN_POINT('',(13.6709902576697,2.86099025766974,7.8));
#1414=CARTESIAN_POINT('',(13.4497402576697,3.08224025766973,7.8));
#1415=CARTESIAN_POINT('',(13.6709902576697,2.86099025766974,7.8));
#1416=CARTESIAN_POINT('Origin',(12.08,1.27,7.8));
#1417=CARTESIAN_POINT('',(12.08,3.52,4.945));
#1418=CARTESIAN_POINT('Origin',(12.08,1.27,4.945));
#1419=CARTESIAN_POINT('',(12.08,3.52,7.8));
#1420=CARTESIAN_POINT('Origin',(12.08,1.27,7.8));
#1421=CARTESIAN_POINT('',(12.08,3.52,7.8));
#1422=CARTESIAN_POINT('Origin',(7.,3.52,7.8));
#1423=CARTESIAN_POINT('',(7.,3.52,4.945));
#1424=CARTESIAN_POINT('',(8.4625,3.52,4.945));
#1425=CARTESIAN_POINT('',(7.,3.52,7.8));
#1426=CARTESIAN_POINT('',(8.4625,3.52,7.8));
#1427=CARTESIAN_POINT('',(7.,3.52,7.8));
#1428=CARTESIAN_POINT('Origin',(7.,1.27,7.8));
#1429=CARTESIAN_POINT('Origin',(7.,1.27,4.945));
#1430=CARTESIAN_POINT('Origin',(7.,1.27,7.8));
#1431=CARTESIAN_POINT('Origin',(9.925,-4.44089209850063E-15,4.945));
#1432=CARTESIAN_POINT('',(7.25,4.24999999999999,4.945));
#1433=CARTESIAN_POINT('Origin',(7.25,-7.25000000000001,4.945));
#1434=CARTESIAN_POINT('',(22.1,4.24999999999999,4.945));
#1435=CARTESIAN_POINT('',(16.0125,4.24999999999999,4.945));
#1436=CARTESIAN_POINT('',(24.1,2.24999999999999,4.945));
#1437=CARTESIAN_POINT('Origin',(22.1,2.24999999999999,4.945));
#1438=CARTESIAN_POINT('',(24.1,-2.25000000000001,4.945));
#1439=CARTESIAN_POINT('',(24.1,-1.12500000000001,4.945));
#1440=CARTESIAN_POINT('',(22.1,-4.25000000000001,4.945));
#1441=CARTESIAN_POINT('Origin',(22.1,-2.25000000000001,4.945));
#1442=CARTESIAN_POINT('',(7.25,-4.25000000000001,4.945));
#1443=CARTESIAN_POINT('',(8.5875,-4.25000000000001,4.945));
#1444=CARTESIAN_POINT('',(4.25,-7.25000000000001,4.945));
#1445=CARTESIAN_POINT('Origin',(7.25,-7.25000000000001,4.945));
#1446=CARTESIAN_POINT('',(4.25,-22.1,4.945));
#1447=CARTESIAN_POINT('',(4.25,-11.05,4.945));
#1448=CARTESIAN_POINT('',(2.25,-24.1,4.945));
#1449=CARTESIAN_POINT('Origin',(2.25,-22.1,4.945));
#1450=CARTESIAN_POINT('',(-2.24999999999999,-24.1,4.945));
#1451=CARTESIAN_POINT('',(3.83750000000002,-24.1,4.945));
#1452=CARTESIAN_POINT('Origin',(-2.25,-22.1,4.945));
#1453=CARTESIAN_POINT('',(18.75,-7.91440578062618E-15,4.945));
#1454=CARTESIAN_POINT('Origin',(19.85,-8.04911692853238E-15,4.945));
#1455=CARTESIAN_POINT('',(-1.1,-19.85,4.945));
#1456=CARTESIAN_POINT('Origin',(-4.44089209850063E-15,-19.85,4.945));
#1457=CARTESIAN_POINT('Origin',(7.25,-4.25000000000001,3.095));
#1458=CARTESIAN_POINT('',(22.1,-4.25000000000001,7.8));
#1459=CARTESIAN_POINT('',(22.1,-4.25000000000001,3.095));
#1460=CARTESIAN_POINT('',(7.25,-4.25000000000001,7.8));
#1461=CARTESIAN_POINT('',(8.5875,-4.25000000000001,7.8));
#1462=CARTESIAN_POINT('',(7.25,-4.25000000000001,3.095));
#1463=CARTESIAN_POINT('Origin',(22.1,-2.25000000000001,3.095));
#1464=CARTESIAN_POINT('',(24.1,-2.25000000000001,7.8));
#1465=CARTESIAN_POINT('',(24.1,-2.25000000000001,3.095));
#1466=CARTESIAN_POINT('Origin',(22.1,-2.25000000000001,7.8));
#1467=CARTESIAN_POINT('Origin',(24.1,-2.25000000000001,3.095));
#1468=CARTESIAN_POINT('',(24.1,2.24999999999999,7.8));
#1469=CARTESIAN_POINT('',(24.1,2.24999999999999,3.095));
#1470=CARTESIAN_POINT('',(24.1,-1.12500000000001,7.8));
#1471=CARTESIAN_POINT('Origin',(22.1,2.24999999999999,3.095));
#1472=CARTESIAN_POINT('',(22.1,4.24999999999999,7.8));
#1473=CARTESIAN_POINT('',(22.1,4.24999999999999,3.095));
#1474=CARTESIAN_POINT('Origin',(22.1,2.24999999999999,7.8));
#1475=CARTESIAN_POINT('Origin',(22.1,4.24999999999999,3.095));
#1476=CARTESIAN_POINT('',(7.25,4.24999999999999,3.095));
#1477=CARTESIAN_POINT('',(7.25,4.24999999999999,7.8));
#1478=CARTESIAN_POINT('',(7.25,4.24999999999999,3.095));
#1479=CARTESIAN_POINT('',(16.0125,4.24999999999999,7.8));
#1480=CARTESIAN_POINT('Origin',(7.25,-7.25000000000001,3.095));
#1481=CARTESIAN_POINT('Origin',(7.0875,15.2,3.845));
#1482=CARTESIAN_POINT('',(7.0875,14.4015640288664,3.895));
#1483=CARTESIAN_POINT('',(7.0875,15.9984359711336,3.895));
#1484=CARTESIAN_POINT('Origin',(7.0875,17.2,3.845));
#1485=CARTESIAN_POINT('',(7.0875,16.4015640288664,3.895));
#1486=CARTESIAN_POINT('',(7.0875,18.,3.845));
#1487=CARTESIAN_POINT('Origin',(2.8375,13.2,3.845));
#1488=CARTESIAN_POINT('',(2.8375,13.9984359711336,3.895));
#1489=CARTESIAN_POINT('',(2.8375,12.4015640288664,3.895));
#1490=CARTESIAN_POINT('Origin',(7.0875,11.2,3.845));
#1491=CARTESIAN_POINT('',(7.0875,11.9984359711336,3.895));
#1492=CARTESIAN_POINT('Origin',(9.925,-4.44089209850063E-15,3.895));
#1493=CARTESIAN_POINT('Origin',(9.925,-4.44089209850063E-15,3.895));
#1494=CARTESIAN_POINT('Origin',(9.925,-4.44089209850063E-15,3.895));
#1495=CARTESIAN_POINT('Origin',(7.25,7.24999999999999,3.095));
#1496=CARTESIAN_POINT('Origin',(7.25,7.24999999999999,7.8));
#1497=CARTESIAN_POINT('Origin',(4.25,18.,3.095));
#1498=CARTESIAN_POINT('',(7.0875,18.,3.195));
#1499=CARTESIAN_POINT('Origin',(9.925,-4.44089209850063E-15,3.195));
#1500=CARTESIAN_POINT('',(-2.24999999999999,24.1,3.195));
#1501=CARTESIAN_POINT('Origin',(-2.25,22.1,3.195));
#1502=CARTESIAN_POINT('',(2.25000000000001,24.1,3.195));
#1503=CARTESIAN_POINT('',(6.08750000000003,24.1,3.195));
#1504=CARTESIAN_POINT('Origin',(2.25,22.1,3.195));
#1505=CARTESIAN_POINT('',(-1.1,19.85,3.195));
#1506=CARTESIAN_POINT('Origin',(2.22044604925031E-15,19.85,3.195));
#1507=CARTESIAN_POINT('Origin',(-4.44089209850063E-15,-19.85,7.13786796564404));
#1508=CARTESIAN_POINT('',(-2.42426406871193,-19.85,7.8));
#1509=CARTESIAN_POINT('Origin',(-4.44089209850063E-15,-19.85,7.8));
#1510=CARTESIAN_POINT('',(-1.1,-19.85,6.47573593128807));
#1511=CARTESIAN_POINT('',(-1.76213203435597,-19.85,7.13786796564404));
#1512=CARTESIAN_POINT('Origin',(-4.44089209850063E-15,-19.85,6.47573593128807));
#1513=CARTESIAN_POINT('Origin',(-4.44089209850063E-15,-19.85,4.3));
#1514=CARTESIAN_POINT('',(-1.1,-19.85,4.3));
#1515=CARTESIAN_POINT('Origin',(19.85,-8.04911692853238E-15,7.13786796564404));
#1516=CARTESIAN_POINT('',(17.4257359312881,-7.75223020532878E-15,7.8));
#1517=CARTESIAN_POINT('Origin',(19.85,-8.04911692853238E-15,7.8));
#1518=CARTESIAN_POINT('',(18.75,-7.91440578062618E-15,6.47573593128807));
#1519=CARTESIAN_POINT('',(18.087867965644,-7.83331799297748E-15,7.13786796564404));
#1520=CARTESIAN_POINT('Origin',(19.85,-8.04911692853238E-15,6.47573593128807));
#1521=CARTESIAN_POINT('Origin',(19.85,-8.04911692853238E-15,4.3));
#1522=CARTESIAN_POINT('',(18.75,-7.91440578062618E-15,4.3));
#1523=CARTESIAN_POINT('Origin',(2.22044604925031E-15,19.85,7.13786796564404));
#1524=CARTESIAN_POINT('',(-2.42426406871193,19.85,7.8));
#1525=CARTESIAN_POINT('Origin',(2.22044604925031E-15,19.85,7.8));
#1526=CARTESIAN_POINT('',(-1.1,19.85,6.47573593128807));
#1527=CARTESIAN_POINT('',(-1.76213203435596,19.85,7.13786796564404));
#1528=CARTESIAN_POINT('Origin',(2.22044604925031E-15,19.85,6.47573593128807));
#1529=CARTESIAN_POINT('Origin',(2.22044604925031E-15,19.85,4.3));
#1530=CARTESIAN_POINT('',(-1.1,19.85,4.3));
#1531=CARTESIAN_POINT('Origin',(2.25000000000001,24.1,3.095));
#1532=CARTESIAN_POINT('',(-2.24999999999999,24.1,7.8));
#1533=CARTESIAN_POINT('',(2.25000000000001,24.1,7.8));
#1534=CARTESIAN_POINT('',(6.08750000000003,24.1,7.8));
#1535=CARTESIAN_POINT('',(2.25000000000001,24.1,3.095));
#1536=CARTESIAN_POINT('',(-2.24999999999999,24.1,3.095));
#1537=CARTESIAN_POINT('Origin',(2.25,22.1,3.095));
#1538=CARTESIAN_POINT('Origin',(2.25,22.1,7.8));
#1539=CARTESIAN_POINT('Origin',(7.25,-7.25000000000001,3.095));
#1540=CARTESIAN_POINT('',(4.25,-7.25000000000001,7.8));
#1541=CARTESIAN_POINT('Origin',(7.25,-7.25000000000001,7.8));
#1542=CARTESIAN_POINT('',(4.25,-7.25000000000001,3.095));
#1543=CARTESIAN_POINT('Origin',(4.25,-22.1,3.095));
#1544=CARTESIAN_POINT('',(4.25,-22.1,7.8));
#1545=CARTESIAN_POINT('',(4.25,-11.05,7.8));
#1546=CARTESIAN_POINT('',(4.25,-22.1,3.095));
#1547=CARTESIAN_POINT('Origin',(2.25,-22.1,3.095));
#1548=CARTESIAN_POINT('',(2.25,-24.1,7.8));
#1549=CARTESIAN_POINT('Origin',(2.25,-22.1,7.8));
#1550=CARTESIAN_POINT('',(2.25,-24.1,3.095));
#1551=CARTESIAN_POINT('Origin',(-2.24999999999999,-24.1,3.095));
#1552=CARTESIAN_POINT('',(-2.24999999999999,-24.1,7.8));
#1553=CARTESIAN_POINT('',(3.83750000000002,-24.1,7.8));
#1554=CARTESIAN_POINT('',(-2.24999999999999,-24.1,3.095));
#1555=CARTESIAN_POINT('Origin',(-2.25,-22.1,3.095));
#1556=CARTESIAN_POINT('Origin',(-2.25,-22.1,7.8));
#1557=CARTESIAN_POINT('Origin',(-2.25,22.1,3.095));
#1558=CARTESIAN_POINT('Origin',(-2.25,22.1,7.8));
#1559=CARTESIAN_POINT('Origin',(9.925,0.,7.8));
#1560=UNCERTAINTY_MEASURE_WITH_UNIT(LENGTH_MEASURE(0.01),#1564,
'DISTANCE_ACCURACY_VALUE',
'Maximum model space distance between geometric entities at asserted c
onnectivities');
#1561=UNCERTAINTY_MEASURE_WITH_UNIT(LENGTH_MEASURE(0.01),#1564,
'DISTANCE_ACCURACY_VALUE',
'Maximum model space distance between geometric entities at asserted c
onnectivities');
#1562=(
GEOMETRIC_REPRESENTATION_CONTEXT(3)
GLOBAL_UNCERTAINTY_ASSIGNED_CONTEXT((#1560))
GLOBAL_UNIT_ASSIGNED_CONTEXT((#1564,#1566,#1567))
REPRESENTATION_CONTEXT('','3D')
);
#1563=(
GEOMETRIC_REPRESENTATION_CONTEXT(3)
GLOBAL_UNCERTAINTY_ASSIGNED_CONTEXT((#1561))
GLOBAL_UNIT_ASSIGNED_CONTEXT((#1564,#1566,#1567))
REPRESENTATION_CONTEXT('','3D')
);
#1564=(
LENGTH_UNIT()
NAMED_UNIT(*)
SI_UNIT(.MILLI.,.METRE.)
);
#1565=(
LENGTH_UNIT()
NAMED_UNIT(*)
SI_UNIT($,.METRE.)
);
#1566=(
NAMED_UNIT(*)
PLANE_ANGLE_UNIT()
SI_UNIT($,.RADIAN.)
);
#1567=(
NAMED_UNIT(*)
SI_UNIT($,.STERADIAN.)
SOLID_ANGLE_UNIT()
);
#1568=SHAPE_DEFINITION_REPRESENTATION(#1569,#1570);
#1569=PRODUCT_DEFINITION_SHAPE('',$,#1572);
#1570=SHAPE_REPRESENTATION('',(#926),#1562);
#1571=PRODUCT_DEFINITION_CONTEXT('part definition',#1576,'design');
#1572=PRODUCT_DEFINITION('2026-08-29-11-09-34-241','(Unsaved)',#1573,#1571);
#1573=PRODUCT_DEFINITION_FORMATION('',$,#1578);
#1574=PRODUCT_RELATED_PRODUCT_CATEGORY('(Unsaved)','(Unsaved)',(#1578));
#1575=APPLICATION_PROTOCOL_DEFINITION('international standard',
'automotive_design',2009,#1576);
#1576=APPLICATION_CONTEXT(
'Core Data for Automotive Mechanical Design Process');
#1577=PRODUCT_CONTEXT('part definition',#1576,'mechanical');
#1578=PRODUCT('2026-08-29-11-09-34-241','(Unsaved)',$,(#1577));
#1579=PRESENTATION_STYLE_ASSIGNMENT((#1580));
#1580=SURFACE_STYLE_USAGE(.BOTH.,#1581);
#1581=SURFACE_SIDE_STYLE('',(#1582));
#1582=SURFACE_STYLE_FILL_AREA(#1583);
#1583=FILL_AREA_STYLE('Steel - Satin',(#1584));
#1584=FILL_AREA_STYLE_COLOUR('Steel - Satin',#1585);
#1585=COLOUR_RGB('Steel - Satin',0.627450980392157,0.627450980392157,0.627450980392157);
ENDSEC;
END-ISO-10303-21;
